<svg xmlns="http://www.w3.org/2000/svg" xmlns:xlink="http://www.w3.org/1999/xlink" width="113" height="113" viewBox="0 0 113 113">
  <defs>
    <clipPath id="clip-path">
      <rect id="Rectángulo_325023" data-name="Rectángulo 325023" width="74.524" height="74.555" fill="none"/>
    </clipPath>
  </defs>
  <g id="Grupo_876567" data-name="Grupo 876567" transform="translate(-1005.5 -7471)">
    <g id="Grupo_876557" data-name="Grupo 876557">
      <g id="Trazado_613727" data-name="Trazado 613727" transform="translate(1005.5 7471)" fill="#ffd265">
        <path d="M 56.5 111 C 49.14166641235352 111 42.00450134277344 109.5593032836914 35.28675079345703 106.7179336547852 C 32.05783462524414 105.3522186279297 28.94338417053223 103.661735534668 26.02993392944336 101.6934356689453 C 23.14363288879395 99.74349975585938 20.42941665649414 97.50405120849609 17.96268272399902 95.03731536865234 C 15.49594974517822 92.57057952880859 13.25650024414062 89.85636901855469 11.30656623840332 86.97006988525391 C 9.338266372680664 84.05661773681641 7.647783279418945 80.94216918945312 6.282066822052002 77.71324920654297 C 3.440700054168701 70.99549865722656 2 63.85833358764648 2 56.5 C 2 49.14166641235352 3.440700054168701 42.00450134277344 6.282066822052002 35.28675079345703 C 7.647783279418945 32.05783462524414 9.338266372680664 28.94338417053223 11.30656623840332 26.02993392944336 C 13.25650024414062 23.14363288879395 15.49594974517822 20.42941665649414 17.96268272399902 17.96268272399902 C 20.42941665649414 15.49594974517822 23.14363288879395 13.25650024414062 26.02993392944336 11.30656623840332 C 28.94338417053223 9.338266372680664 32.05783462524414 7.647783279418945 35.28675079345703 6.282066822052002 C 42.00450134277344 3.440700054168701 49.14166641235352 2 56.5 2 C 63.85833358764648 2 70.99549865722656 3.440700054168701 77.71324920654297 6.282066822052002 C 80.94216918945312 7.647783279418945 84.05661773681641 9.338266372680664 86.97006988525391 11.30656623840332 C 89.85636901855469 13.25650024414062 92.57057952880859 15.49594974517822 95.03731536865234 17.96268272399902 C 97.50405120849609 20.42941665649414 99.74349975585938 23.14363288879395 101.6934356689453 26.02993392944336 C 103.661735534668 28.94338417053223 105.3522186279297 32.05783462524414 106.7179336547852 35.28675079345703 C 109.5593032836914 42.00450134277344 111 49.14166641235352 111 56.5 C 111 63.85833358764648 109.5593032836914 70.99549865722656 106.7179336547852 77.71324920654297 C 105.3522186279297 80.94216918945312 103.661735534668 84.05661773681641 101.6934356689453 86.97006988525391 C 99.74349975585938 89.85636901855469 97.50405120849609 92.57057952880859 95.03731536865234 95.03731536865234 C 92.57057952880859 97.50405120849609 89.85636901855469 99.74349975585938 86.97006988525391 101.6934356689453 C 84.05661773681641 103.661735534668 80.94216918945312 105.3522186279297 77.71324920654297 106.7179336547852 C 70.99549865722656 109.5593032836914 63.85833358764648 111 56.5 111 Z" stroke="none"/>
        <path d="M 56.5 4 C 49.41078186035156 4 42.53574371337891 5.387542724609375 36.06585693359375 8.124069213867188 C 29.81467437744141 10.76808929443359 24.19969177246094 14.55409240722656 19.37689208984375 19.37689208984375 C 14.55409240722656 24.19969177246094 10.76808929443359 29.81467437744141 8.124069213867188 36.06585693359375 C 5.387542724609375 42.53574371337891 4 49.41078186035156 4 56.5 C 4 63.58921813964844 5.387542724609375 70.46425628662109 8.124069213867188 76.93414306640625 C 10.76808929443359 83.18532562255859 14.55409240722656 88.80030822753906 19.37689208984375 93.62310791015625 C 24.19969177246094 98.44590759277344 29.81467437744141 102.2319107055664 36.06585693359375 104.8759307861328 C 42.53574371337891 107.6124572753906 49.41078186035156 109 56.5 109 C 63.58921813964844 109 70.46425628662109 107.6124572753906 76.93414306640625 104.8759307861328 C 83.18532562255859 102.2319107055664 88.80030822753906 98.44590759277344 93.62310791015625 93.62310791015625 C 98.44590759277344 88.80030822753906 102.2319107055664 83.18532562255859 104.8759307861328 76.93414306640625 C 107.6124572753906 70.46425628662109 109 63.58921813964844 109 56.5 C 109 49.41078186035156 107.6124572753906 42.53574371337891 104.8759307861328 36.06585693359375 C 102.2319107055664 29.81467437744141 98.44590759277344 24.19969177246094 93.62310791015625 19.37689208984375 C 88.80030822753906 14.55409240722656 83.18532562255859 10.76808929443359 76.93414306640625 8.124069213867188 C 70.46425628662109 5.387542724609375 63.58921813964844 4 56.5 4 M 56.5 0 C 87.70408630371094 0 113 25.29590606689453 113 56.5 C 113 87.70408630371094 87.70408630371094 113 56.5 113 C 25.29590606689453 113 0 87.70408630371094 0 56.5 C 0 25.29590606689453 25.29590606689453 0 56.5 0 Z" stroke="none" fill="#f9fbfc"/>
      </g>
      <g id="Grupo_876556" data-name="Grupo 876556" transform="translate(1026 7489)">
        <g id="Grupo_876555" data-name="Grupo 876555" transform="translate(0 0)" clip-path="url(#clip-path)">
          <path id="Trazado_615492" data-name="Trazado 615492" d="M34.558,74.555H5.842c-1.461,0-1.891-.553-1.536-1.99q1.106-4.493,2.215-8.984a10.081,10.081,0,0,0,.1-3.237c-.16-2.029,1.057-3.283,3.24-3.209,3.617.123,7.242.017,10.864.05.654.006.847-.116.846-.821q-.036-26.269-.02-52.536A3.548,3.548,0,0,1,23.725.378a3.54,3.54,0,0,1,4.036.6,3.7,3.7,0,0,1,1.25,2.96q-.018,26.19-.026,52.381c0,.715.186.9.879.865,1.187-.06,2.38-.033,3.569-.007.426.01.594-.081.543-.545-.34-3.079-.661-6.16-.988-9.241-.032-.308-.085-.616-.1-.924-.008-.284-.042-.439-.4-.5a1.186,1.186,0,0,1-1.008-1.341c.014-1.551,0-3.1.006-4.656,0-.985.431-1.42,1.4-1.424,1.4-.007,2.795-.029,4.191.012.526.014.635-.155.625-.645-.031-1.552-.016-3.1-.01-4.656a13.677,13.677,0,0,1,27.1-2.3,13.951,13.951,0,0,1,.215,3.394c-.012.389.083.551.5.687a4.576,4.576,0,0,1,3.232,4.508c0,2.923-.013,5.845.007,8.769a3.729,3.729,0,0,1-1.577,3.2,1.1,1.1,0,0,0-.462.9c-.33,3.261-.7,6.52-1.026,9.782a74.707,74.707,0,0,0-.68,10.352c.069,1.8-.209,2.02-2.046,2.02h-28.4" transform="translate(0.808 0.001)" fill="#040506"/>
          <path id="Trazado_615493" data-name="Trazado 615493" d="M64.482,17.714a1.169,1.169,0,0,1-.824,1.169,6.793,6.793,0,0,0-4.219,4.234,1.26,1.26,0,0,1-2.338,0,6.772,6.772,0,0,0-4.217-4.237,1.266,1.266,0,0,1,0-2.373A6.778,6.778,0,0,0,57.1,12.276a1.26,1.26,0,0,1,2.338,0,6.793,6.793,0,0,0,4.218,4.235,1.185,1.185,0,0,1,.827,1.206" transform="translate(10.041 2.216)" fill="#040506"/>
          <path id="Trazado_615494" data-name="Trazado 615494" d="M18.677,30.033a1.293,1.293,0,0,1-.865,1.361,6.717,6.717,0,0,0-4.166,4.181,1.267,1.267,0,0,1-2.374,0,6.781,6.781,0,0,0-4.235-4.219,1.26,1.26,0,0,1,0-2.338A6.773,6.773,0,0,0,11.272,24.8a1.266,1.266,0,0,1,2.373,0,6.732,6.732,0,0,0,4.167,4.182,1.155,1.155,0,0,1,.866,1.049" transform="translate(1.205 4.626)" fill="#040506"/>
          <path id="Trazado_615495" data-name="Trazado 615495" d="M12.43,42.535a1.285,1.285,0,0,1-.861,1.35A6.716,6.716,0,0,0,7.4,48.066a1.183,1.183,0,0,1-1.185.829,1.178,1.178,0,0,1-1.189-.822A6.772,6.772,0,0,0,.795,43.854a1.26,1.26,0,0,1-.008-2.339A6.778,6.778,0,0,0,5.025,37.3a1.174,1.174,0,0,1,1.183-.827,1.268,1.268,0,0,1,1.248.964,6.578,6.578,0,0,0,3.328,3.706c.322.159.664.277.983.441a1.093,1.093,0,0,1,.663.952" transform="translate(0 7.035)" fill="#040506"/>
          <path id="Trazado_615496" data-name="Trazado 615496" d="M48.717,59.668c-2.741,0-5.484-.019-8.225.017a.7.7,0,0,1-.827-.629,17.22,17.22,0,0,1-.8-6.331,2.66,2.66,0,0,0-3.037-3.011c-1.26.1-2.534,0-3.8.027-.419.007-.579-.111-.621-.55q-.5-5.048-1.065-10.091c-.052-.475.1-.555.528-.554q4.965.023,9.932,0c.453,0,.546.147.554.57a11.054,11.054,0,0,0,.128,2.853A3.685,3.685,0,0,0,47.1,44.148a.694.694,0,0,1,.922.007,3.53,3.53,0,0,0,4.075-.023.639.639,0,0,1,.854,0,3.516,3.516,0,0,0,4.009.062c.4-.251.641-.156,1.059-.032,1.128.334,1.151,1.032,1.039,2-.5,4.36-.954,8.727-1.394,13.094-.052.514-.355.407-.643.407q-4.151.005-8.3,0" transform="translate(5.851 7.436)" fill="#2989c5"/>
          <path id="Trazado_615497" data-name="Trazado 615497" d="M50.457,31.194q-2.559,0-5.119,0a4.593,4.593,0,0,0-4.563,3.259c-.125.378-.26.477-.625.474-1.757-.016-3.515,0-5.274-.01-.234,0-.536.11-.519-.338.1-2.546-.258-5.114.447-7.626a11.133,11.133,0,0,1,21.629.676,16.03,16.03,0,0,1,.3,3.075c.007.439-.159.5-.534.5-1.913-.016-3.826-.007-5.739-.007" transform="translate(6.626 3.622)" fill="#ffd265"/>
          <path id="Trazado_615498" data-name="Trazado 615498" d="M50.336,31.269c2.068,0,4.137,0,6.207,0a2.237,2.237,0,0,1,2.493,2.486c.006,2.818,0,5.636,0,8.455a1.38,1.38,0,0,1-.752,1.335,1.075,1.075,0,0,1-1.231-.136,1.4,1.4,0,0,1-.507-1.235c.011-1.371-.019-2.741.016-4.111.013-.49-.141-.6-.61-.6-1.886-.01-1.886-.027-1.886,1.868,0,.983.012,1.966,0,2.948a1.247,1.247,0,1,1-2.475,0q-.021-2.133,0-4.266c0-.381-.072-.531-.5-.545C49.1,37.4,49.1,37.381,49.1,39.389c0,.93.007,1.861,0,2.791-.008.911-.484,1.488-1.22,1.5-.761.016-1.256-.579-1.261-1.538-.006-1.371-.018-2.741.008-4.111.008-.437-.115-.561-.559-.569-1.935-.035-1.934-.051-1.934,1.9,0,.958.008,1.915,0,2.87a1.3,1.3,0,0,1-1.194,1.449,1.348,1.348,0,0,1-1.282-1.458c-.011-2.9-.018-5.793,0-8.688a2.178,2.178,0,0,1,2.318-2.264c2.121-.017,4.241,0,6.362,0" transform="translate(8.032 6.031)" fill="#f17a1e"/>
          <path id="Trazado_615499" data-name="Trazado 615499" d="M23.31,29.825q0,13,.017,26c0,.722-.136.988-.919.956-1.581-.066-1.582-.018-1.582-1.594V4.042c0-1.268.392-1.888,1.211-1.916.841-.027,1.273.627,1.273,1.932V29.825" transform="translate(4.017 0.41)" fill="#7d432d"/>
          <path id="Trazado_615500" data-name="Trazado 615500" d="M24.393,52.493c-5.067,0-10.135-.011-15.2.013-.631,0-.905-.079-.878-.82.063-1.676.017-1.677,1.712-1.677q14.853,0,29.706-.013c.657,0,.946.093.916.858-.066,1.637-.018,1.639-1.672,1.639Z" transform="translate(1.603 9.644)" fill="#b45e3e"/>
          <path id="Trazado_615501" data-name="Trazado 615501" d="M47.622,60.832c-2.507,0-5.015-.024-7.521.018-.565.01-.768-.184-.854-.687-.1-.581-.53-1.387-.3-1.677.326-.406,1.148-.129,1.756-.131,4.807-.012,9.615,0,14.422-.019.559,0,.744.1.731.7-.036,1.791,0,1.792-1.8,1.792Z" transform="translate(7.5 11.239)" fill="#54adde"/>
          <path id="Trazado_615502" data-name="Trazado 615502" d="M35.323,36.877c-1.861,0-3.721-.018-5.582.012-.481.008-.6-.123-.6-.6,0-1.9-.021-1.9,1.848-1.9,3.308,0,6.616.013,9.922-.014.546,0,.685.136.678.68-.023,1.818,0,1.818-1.849,1.818H35.323" transform="translate(5.621 6.632)" fill="#54adde"/>
          <path id="Trazado_615503" data-name="Trazado 615503" d="M22.248,61.634H21.162c-1.213,0-1.239,0-1.1-1.162.23-1.946.512-3.885.737-5.831.043-.37.156-.48.515-.465.722.029,1.591-.227,2.127.092s.308,1.269.4,1.942c.23,1.659.41,3.326.644,4.985.051.365-.041.452-.377.444-.619-.016-1.239,0-1.86,0" transform="translate(3.858 10.437)" fill="#e88a1b"/>
          <path id="Trazado_615504" data-name="Trazado 615504" d="M16.511,61.626c-.459-.067-1.214.255-1.507-.136-.212-.282.154-1.007.283-1.529.429-1.746.879-3.488,1.294-5.238.1-.416.258-.63.715-.555a4.358,4.358,0,0,0,.7.007c1.292,0,1.312,0,1.163,1.239-.225,1.866-.513,3.724-.7,5.592-.058.567-.272.676-.761.626-.358-.037-.722-.007-1.177-.007" transform="translate(2.882 10.446)" fill="#faa42d"/>
          <path id="Trazado_615505" data-name="Trazado 615505" d="M29.554,61.624c-1.1,0-2.129-.006-3.158,0-.264,0-.339-.1-.37-.354q-.413-3.373-.862-6.742c-.038-.287.052-.373.314-.358.076,0,.155,0,.231,0,1.984-.045,1.99-.047,2.468,1.859.46,1.839.907,3.682,1.377,5.592" transform="translate(4.852 10.448)" fill="#faa42d"/>
          <path id="Trazado_615506" data-name="Trazado 615506" d="M10.783,54.2c-.474,1.905-.929,3.773-1.4,5.636-.462,1.819-.47,1.817-2.365,1.785-.126,0-.253-.016-.453-.027.472-1.906.928-3.774,1.4-5.638.459-1.819.468-1.818,2.367-1.785.125,0,.252.016.452.029" transform="translate(1.266 10.448)" fill="#faa32d"/>
          <path id="Trazado_615507" data-name="Trazado 615507" d="M10.729,61.591c.474-1.9.929-3.771,1.4-5.633.463-1.823.47-1.822,2.367-1.785.125,0,.251.019.447.033-.474,1.9-.929,3.771-1.4,5.633-.463,1.823-.47,1.822-2.365,1.783-.126,0-.252-.018-.449-.032" transform="translate(2.069 10.448)" fill="#e88a1b"/>
          <path id="Trazado_615508" data-name="Trazado 615508" d="M29.484,54.266a.564.564,0,0,1,.117-.058c2.2-.194,2.207-.2,2.726,1.894.451,1.817.895,3.636,1.34,5.442a.564.564,0,0,1-.117.058c-2.2.2-2.207.2-2.726-1.894-.451-1.817-.9-3.636-1.34-5.442" transform="translate(5.687 10.441)" fill="#e88a1b"/>
          <path id="Trazado_615509" data-name="Trazado 615509" d="M35,54.184c.87-.292,1.107.277,1.292,1.125.416,1.907.93,3.795,1.418,5.686.118.456.092.662-.493.656-1.724-.019-1.727.011-2.151-1.671-.415-1.646-.778-3.307-1.255-4.934-.216-.737-.091-.981.666-.865a4.436,4.436,0,0,0,.522,0" transform="translate(6.503 10.437)" fill="#faa32d"/>
          <path id="Trazado_615510" data-name="Trazado 615510" d="M57.536,14.785c.191.231.271.324.348.42a8.83,8.83,0,0,0,1.584,1.573c.277.206.321.329.016.555a7.925,7.925,0,0,0-1.631,1.633c-.205.276-.328.227-.511-.014a8.492,8.492,0,0,0-1.632-1.632c-.245-.186-.282-.308-.01-.512a8.852,8.852,0,0,0,1.686-1.687,1.761,1.761,0,0,0,.149-.336" transform="translate(10.708 2.852)" fill="#faa32d"/>
          <path id="Trazado_615511" data-name="Trazado 615511" d="M13.923,29.527c-.024.048-.029.078-.045.091a14.406,14.406,0,0,0-2.028,2c-.115.131-.245-.119-.333-.228a9.3,9.3,0,0,0-1.585-1.575c-.267-.2-.326-.332-.017-.561a8.894,8.894,0,0,0,1.638-1.628c.1-.123.193-.371.4-.1a10.1,10.1,0,0,0,1.85,1.85.7.7,0,0,1,.12.156" transform="translate(1.872 5.286)" fill="#faa32d"/>
          <path id="Trazado_615512" data-name="Trazado 615512" d="M51.422,52.153c0,.851-.017,1.7.007,2.552.011.37-.11.466-.477.484-2.015.092-2.014.1-2.014-1.88,0-1.263.018-2.528-.011-3.79-.01-.439.119-.555.558-.562,1.936-.032,1.936-.048,1.936,1.881v1.315" transform="translate(9.437 9.442)" fill="#040506"/>
          <path id="Trazado_615513" data-name="Trazado 615513" d="M51.421,46.081c0,1.2,0,1.2-1.2,1.2-1.281,0-1.281,0-1.281-1.279,0-1.2,0-1.2,1.2-1.2,1.282,0,1.282,0,1.282,1.279" transform="translate(9.439 8.642)" fill="#040506"/>
        </g>
      </g>
    </g>
  </g>
</svg>
