<svg xmlns="http://www.w3.org/2000/svg" xmlns:xlink="http://www.w3.org/1999/xlink" width="186.485" height="42.461" viewBox="0 0 186.485 42.461">
  <defs>
    <clipPath id="clip-path">
      <rect id="Rect치ngulo_325020" data-name="Rect치ngulo 325020" width="42.485" height="42.461" fill="none"/>
    </clipPath>
  </defs>
  <g id="Grupo_876548" data-name="Grupo 876548" transform="translate(-180 -4689.539)">
    <rect id="Rect치ngulo_324910" data-name="Rect치ngulo 324910" width="177" height="40" transform="translate(180 4692)" fill="#a3314f"/>
    <g id="Grupo_876547" data-name="Grupo 876547" transform="translate(324 4689.538)">
      <g id="Grupo_876546" data-name="Grupo 876546" transform="translate(0 0)" clip-path="url(#clip-path)">
        <path id="Trazado_615394" data-name="Trazado 615394" d="M34.32,12.617c.1-.349.182-.7.3-1.047A4.123,4.123,0,0,1,38.744,8.81a4.047,4.047,0,0,1,3.6,2.8,4.151,4.151,0,0,1-.061,2.311q-2.907,10.957-5.8,21.916a2.928,2.928,0,0,1-.79,1.385c-1.231,1.209-2.43,2.452-3.675,3.648a1.273,1.273,0,0,0-.491,1.218c.056.3-.071.369-.367.369q-12.475-.013-24.95-.005a2,2,0,0,1-1.659-.81q-.72-.928-1.413-1.878a1.961,1.961,0,0,1-.377-1.2c.009-1.312-.007-2.625.01-3.936,0-.3-.04-.44-.384-.4a8.254,8.254,0,0,1-1.026.007A1.344,1.344,0,0,1,.027,32.909q-.011-.727,0-1.455A1.342,1.342,0,0,1,1.363,30.13c.356-.006.714-.016,1.07,0,.247.013.34-.034.34-.316,0-1.058.013-1.077-1.048-1.051a1.57,1.57,0,0,1-1.466-.6,4.147,4.147,0,0,1,.029-2.962,1.282,1.282,0,0,1,1.054-.554c.171,0,.343.009.513,0,.294-.019.768.129.845-.057a3.345,3.345,0,0,0,.062-1.174c0-.191-.148-.134-.247-.135-.385-.005-.77,0-1.156,0A1.345,1.345,0,0,1,.027,21.952q-.011-.728,0-1.455a1.341,1.341,0,0,1,1.338-1.323c.371-.006.742-.011,1.113,0,.21.008.289-.036.295-.274.026-1.1.035-1.118-1.049-1.092a1.569,1.569,0,0,1-1.465-.6A4.148,4.148,0,0,1,.29,14.248a1.283,1.283,0,0,1,1.055-.553h.428c1.082,0,1.146-.087,1-1.193-.027-.2-.133-.177-.258-.177-.385,0-.77.005-1.155,0a1.345,1.345,0,0,1-1.331-1.33q-.011-.728,0-1.455A1.341,1.341,0,0,1,1.366,8.218c.343-.006.686-.022,1.027,0,.291.022.386-.053.379-.365-.022-1-.01-2-.008-2.995A2.031,2.031,0,0,1,4.878,2.739c.624,0,.624,0,.626-.616A2.029,2.029,0,0,1,7.618,0Q19.879,0,32.14,0a2.026,2.026,0,0,1,2.126,2.111q0,5.028,0,10.056v.444l.053.006" transform="translate(0 0)" fill="#040506"/>
        <path id="Trazado_615395" data-name="Trazado 615395" d="M20.751,7.522c4.123,0,8.246.005,12.368-.009.363,0,.434.094.434.443q-.016,12.238-.013,24.477A11.75,11.75,0,0,1,33,34.924c-.207.942-.454,1.877-.709,2.808a4.2,4.2,0,0,0,.175,2.017c.12.584.257,1.165.392,1.746.044.187.031.307-.209.266a1.265,1.265,0,0,0-.213,0q-12.219,0-24.437.008c-.372,0-.5-.067-.491-.473.033-1.112.018-2.225.007-3.338,0-.234.05-.327.3-.312.355.022.713.011,1.07,0A1.36,1.36,0,0,0,10.258,36.3q.016-.706,0-1.412a1.358,1.358,0,0,0-1.37-1.347c-.371-.007-.742-.014-1.113,0-.211.009-.253-.067-.26-.266-.041-1.109-.045-1.156,1.039-1.1a1.494,1.494,0,0,0,1.711-1.714c-.035-.353,0-.713-.008-1.07A1.359,1.359,0,0,0,8.92,28.067c-.371-.009-.742-.012-1.113,0-.211.008-.289-.04-.294-.276-.027-1.1-.033-1.145,1.052-1.084a1.493,1.493,0,0,0,1.7-1.725c-.031-.311,0-.627-.005-.941a1.371,1.371,0,0,0-1.478-1.455c-.328,0-.658-.015-.984,0-.232.014-.277-.071-.282-.288-.024-1.086-.028-1.133,1.061-1.073a1.487,1.487,0,0,0,1.689-1.694c-.035-.353,0-.713-.007-1.069A1.362,1.362,0,0,0,8.9,17.11c-.128,0-.256,0-.385,0-1.075,0-1.152-.1-1-1.193.028-.2.136-.175.26-.176.356,0,.713,0,1.07,0a1.363,1.363,0,0,0,1.415-1.39q.009-.663,0-1.327a1.361,1.361,0,0,0-1.414-1.39c-.357,0-.714-.013-1.07,0-.212.01-.26-.067-.259-.267.009-1.013,0-2.026.006-3.038,0-.563.266-.807.86-.808q3.659,0,7.318,0Z" transform="translate(-3.387 -3.414)" fill="#e0e4e9"/>
        <path id="Trazado_615396" data-name="Trazado 615396" d="M68.9,21.172a17.612,17.612,0,0,1-.539,2.232c-.727,2.789-1.48,5.572-2.2,8.363-.093.359-.205.426-.561.322-1.39-.407-2.788-.787-4.189-1.154-.261-.069-.3-.145-.232-.4.82-3.25,1.622-6.5,2.442-9.755a2.646,2.646,0,0,1,1.993-2.023,2.581,2.581,0,0,1,2.648.78,2.342,2.342,0,0,1,.64,1.633" transform="translate(-27.783 -8.478)" fill="#ffcc59"/>
        <path id="Trazado_615397" data-name="Trazado 615397" d="M37.239,24.751v-.508q0-9.946.01-19.893c0-.392-.1-.481-.485-.48q-11.788.018-23.575,0c-.188,0-.549.249-.6-.2-.079-.685.128-1.067.6-1.146a2.16,2.16,0,0,1,.342-.009H37.661c.72,0,.947.225.947.94q0,7.893-.005,15.786a10.157,10.157,0,0,1-.5,2.281c-.256,1.084-.534,2.164-.8,3.245l-.061-.01" transform="translate(-5.712 -1.139)" fill="#efc5a4"/>
        <path id="Trazado_615398" data-name="Trazado 615398" d="M55.819,53.572q.539-2.174,1.077-4.344c.447-1.791.9-3.58,1.344-5.372.064-.26.124-.372.434-.282,1.405.4,2.817.786,4.23,1.161.258.068.339.136.26.428-.853,3.181-1.689,6.367-2.528,9.552-.058.221-.1.35-.413.26-1.377-.4-2.765-.757-4.147-1.142-.109-.031-.365.009-.258-.261" transform="translate(-25.349 -19.784)" fill="#ffcc59"/>
        <path id="Trazado_615399" data-name="Trazado 615399" d="M34.19,74.146h-.512q-11.484,0-22.967.011a1.3,1.3,0,0,1-1.282-.642,8.246,8.246,0,0,0-.5-.688.744.744,0,0,1,.435-.05q12.039,0,24.078-.01c.353,0,.516.074.543.446a6.756,6.756,0,0,0,.2.932" transform="translate(-4.057 -33.061)" fill="#efc5a4"/>
        <path id="Trazado_615400" data-name="Trazado 615400" d="M55.489,64.8l4.1,1.114-3.156,3.122-.94-4.236" transform="translate(-25.21 -29.441)" fill="#98a2af"/>
        <path id="Trazado_615401" data-name="Trazado 615401" d="M4.6,18.933c-.583,0-1.167-.011-1.749.005-.244.007-.3-.072-.307-.31-.017-1.065-.025-1.065,1.04-1.065.924,0,1.849.008,2.774-.005.244,0,.3.073.307.31.017,1.065.025,1.065-1.04,1.065H4.6" transform="translate(-1.153 -7.977)" fill="#e45b73"/>
        <path id="Trazado_615402" data-name="Trazado 615402" d="M4.594,28.972c-.6,0-1.2-.007-1.792,0-.2,0-.262-.047-.272-.258C2.476,27.6,2.468,27.6,3.562,27.6c.925,0,1.849.007,2.774,0,.234,0,.312.053.316.3.019,1.073.028,1.073-1.033,1.073H4.594" transform="translate(-1.141 -12.539)" fill="#e45b73"/>
        <path id="Trazado_615403" data-name="Trazado 615403" d="M4.579,39.011c-.583,0-1.167-.009-1.749,0-.218.005-.286-.051-.293-.281-.031-1.093-.039-1.093,1.055-1.093.911,0,1.821.009,2.731-.005.255,0,.336.053.337.325,0,1.05.015,1.05-1.014,1.05H4.579" transform="translate(-1.148 -17.099)" fill="#e45b73"/>
        <path id="Trazado_615404" data-name="Trazado 615404" d="M4.644,47.682c.583,0,1.167.008,1.749,0,.2,0,.258.058.267.263.051,1.111.058,1.111-1.037,1.111-.924,0-1.849-.008-2.774.005-.241,0-.307-.063-.311-.307-.017-1.068-.026-1.068,1.038-1.068H4.644" transform="translate(-1.152 -21.662)" fill="#e45b73"/>
        <path id="Trazado_615405" data-name="Trazado 615405" d="M4.591,59.089c-.6,0-1.2-.007-1.792,0-.2,0-.259-.055-.269-.261-.052-1.113-.058-1.113,1.036-1.113.924,0,1.849.008,2.774,0,.237,0,.308.061.312.305.018,1.07.027,1.07-1.036,1.07H4.591" transform="translate(-1.142 -26.222)" fill="#e45b73"/>
        <path id="Trazado_615406" data-name="Trazado 615406" d="M37.421,22.13c-1.469,0-2.938-.008-4.407.007-.28,0-.35-.073-.35-.351q.016-4.449,0-8.9c0-.28.073-.351.351-.35q4.45.016,8.9,0c.28,0,.35.073.349.351q-.016,4.449,0,8.9c0,.28-.073.353-.351.35-1.5-.014-3-.007-4.493-.007" transform="translate(-14.84 -5.696)" fill="#040506"/>
        <path id="Trazado_615407" data-name="Trazado 615407" d="M19.894,47.68c1.483,0,2.967.008,4.45-.007.278,0,.352.069.351.35q-.016,4.449,0,8.9c0,.278-.069.352-.349.351q-4.45-.016-8.9,0c-.278,0-.352-.069-.351-.349q.016-4.45,0-8.9c0-.278.069-.354.35-.351,1.483.015,2.967.007,4.45.007" transform="translate(-6.858 -21.659)" fill="#040506"/>
        <path id="Trazado_615408" data-name="Trazado 615408" d="M24.684,32.621c3.067,0,6.133.005,9.2-.008.315,0,.4.067.4.392-.02.984,0,.985-.995.985q-8.879,0-17.758.009c-.352,0-.452-.075-.441-.436.028-.942.009-.942.953-.942h8.644" transform="translate(-6.854 -14.817)" fill="#040506"/>
        <path id="Trazado_615409" data-name="Trazado 615409" d="M24.667,39.008c-3.052,0-6.1-.005-9.157.008-.327,0-.428-.071-.42-.413.023-.964.007-.965.972-.965q8.879,0,17.758-.009c.368,0,.478.073.464.457-.033.921-.01.922-.931.922Z" transform="translate(-6.855 -17.097)" fill="#040506"/>
        <path id="Trazado_615410" data-name="Trazado 615410" d="M24.642,44.028c-3.052,0-6.1-.005-9.157.008-.321,0-.4-.077-.394-.4.019-.982,0-.982,1-.982q8.879,0,17.758-.009c.357,0,.448.083.438.439-.027.939-.008.939-.955.939Z" transform="translate(-6.856 -19.377)" fill="#040506"/>
        <path id="Trazado_615411" data-name="Trazado 615411" d="M19.177,18.928c-1.24,0-2.481-.006-3.721,0-.255,0-.368-.031-.366-.335.008-1.04-.007-1.04,1.026-1.04,2.253,0,4.506.012,6.759-.011.395,0,.461.113.451.47-.026.91-.008.911-.94.911Z" transform="translate(-6.855 -7.972)" fill="#040506"/>
        <path id="Trazado_615412" data-name="Trazado 615412" d="M19.184,23.951c-1.255,0-2.51-.009-3.765.007-.269,0-.327-.071-.327-.331,0-1.046-.01-1.046,1.018-1.046,2.281,0,4.563.007,6.844-.008.3,0,.375.078.371.375-.013,1,0,1-1.018,1H19.184" transform="translate(-6.857 -10.256)" fill="#040506"/>
        <path id="Trazado_615413" data-name="Trazado 615413" d="M19.251,27.6c1.24,0,2.481.009,3.721-.007.279,0,.353.07.351.35-.006,1.026.005,1.026-1.037,1.026-2.267,0-4.535-.007-6.8.008-.32,0-.4-.074-.4-.395.019-.983,0-.983,1-.983h3.165" transform="translate(-6.856 -12.538)" fill="#040506"/>
        <path id="Trazado_615414" data-name="Trazado 615414" d="M39.286,54.067c-1.255,0-2.51-.009-3.765.007-.284,0-.349-.08-.348-.354.005-1.023,0-1.023,1-1.023,2.281,0,4.563.008,6.844-.009.325,0,.4.083.392.4-.018.98,0,.98-1,.98Z" transform="translate(-15.981 -23.938)" fill="#040506"/>
        <path id="Trazado_615415" data-name="Trazado 615415" d="M39.29,59.087c-1.255,0-2.51-.009-3.765.007-.277,0-.354-.068-.352-.349.005-1.028-.006-1.028,1.036-1.028,2.267,0,4.535.007,6.8-.008.318,0,.4.07.4.393-.02.984,0,.984-.995.984Z" transform="translate(-15.98 -26.219)" fill="#040506"/>
        <path id="Trazado_615416" data-name="Trazado 615416" d="M24.662,13.915c-.584,0-1.169-.009-1.753,0-.215,0-.285-.047-.291-.279-.026-1.1-.034-1.1,1.052-1.1.927,0,1.853.006,2.78,0,.215,0,.285.047.291.279.026,1.1.034,1.1-1.052,1.1H24.662" transform="translate(-10.273 -5.698)" fill="#040506"/>
        <path id="Trazado_615417" data-name="Trazado 615417" d="M16.386,13.915h-.342c-1.08,0-1.15-.088-1-1.191.022-.157.082-.181.213-.18.769,0,1.539.008,2.308,0,.2,0,.219.087.228.254.055,1.12.059,1.12-1.067,1.12Z" transform="translate(-6.809 -5.698)" fill="#040506"/>
        <path id="Trazado_615418" data-name="Trazado 615418" d="M35.182,18.435c0-1.026.008-2.053-.005-3.079,0-.242.067-.308.308-.307q3.122.014,6.245,0c.242,0,.308.067.307.308q-.014,3.122,0,6.244c0,.242-.067.308-.308.307q-3.122-.014-6.245,0c-.242,0-.309-.066-.307-.307.013-1.055.005-2.11.005-3.165" transform="translate(-15.982 -6.837)" fill="#60c1e5"/>
        <path id="Trazado_615419" data-name="Trazado 615419" d="M21.079,50.189c1.012,0,2.024.011,3.036-.007.283,0,.351.077.35.354q-.017,3.078,0,6.157c0,.282-.077.351-.354.35q-3.079-.017-6.158,0c-.282,0-.351-.077-.35-.354q.017-3.078,0-6.157c0-.283.077-.355.354-.35,1.041.016,2.081.007,3.122.007" transform="translate(-7.998 -22.799)" fill="#ffcc59"/>
      </g>
    </g>
  </g>
</svg>
