<svg xmlns="http://www.w3.org/2000/svg" xmlns:xlink="http://www.w3.org/1999/xlink" width="155.183" height="155.183" viewBox="0 0 155.183 155.183">
  <defs>
    <filter id="Elipse_5221" x="0" y="0" width="155.183" height="155.183" filterUnits="userSpaceOnUse">
      <feOffset dy="6" input="SourceAlpha"/>
      <feGaussianBlur stdDeviation="5" result="blur"/>
      <feFlood flood-opacity="0.329"/>
      <feComposite operator="in" in2="blur"/>
      <feComposite in="SourceGraphic"/>
    </filter>
    <clipPath id="clip-path">
      <rect id="Rectángulo_325017" data-name="Rectángulo 325017" width="74.339" height="74.359" fill="none"/>
    </clipPath>
  </defs>
  <g id="Grupo_876538" data-name="Grupo 876538" transform="translate(-9043.098 7397.969)">
    <g transform="matrix(1, 0, 0, 1, 9043.1, -7397.97)" filter="url(#Elipse_5221)">
      <circle id="Elipse_5221-2" data-name="Elipse 5221" cx="62.591" cy="62.591" r="62.591" transform="translate(15 9)" fill="#ffb500"/>
    </g>
    <g id="Grupo_876537" data-name="Grupo 876537" transform="translate(9084.881 -7360.919)">
      <g id="Grupo_876536" data-name="Grupo 876536" clip-path="url(#clip-path)">
        <path id="Trazado_615330" data-name="Trazado 615330" d="M59.312,70.672c-.21.934-.555,1.227-1.484,1.227q-23.956,0-47.913,0a3.643,3.643,0,0,1-3.694-3.36,10.944,10.944,0,0,1-.034-2.028c.063-.706-.217-.868-.854-.814a12.333,12.333,0,0,1-1.74-.007A3.636,3.636,0,0,1,.135,63,1.515,1.515,0,0,0,0,62.751V18.157a2.336,2.336,0,0,1,.626-.948Q8.924,8.925,17.207.626A2.327,2.327,0,0,1,18.155,0H54.03a4.068,4.068,0,0,1,2.706,2.264,5.627,5.627,0,0,1,.318,2.274c-.011,1.634,0,1.635,1.642,1.633a6.534,6.534,0,0,1,1.8.149,3.58,3.58,0,0,1,2.7,3.446c.034,5.387.016,10.775.023,16.163A1.342,1.342,0,0,1,62,27.317a1.232,1.232,0,0,1-1.454-1.043,4.651,4.651,0,0,1-.064-1.085q0-7.117,0-14.234c0-.291.011-.581-.013-.871-.063-.777-.366-1.088-1.134-1.134-.459-.027-.919-.015-1.379-.015-.68.011-.654.5-.654.968q0,5.6,0,11.209c0,.434.012.868-.023,1.3A1.568,1.568,0,0,1,55.466,24a1.6,1.6,0,0,1-1.179-1.41,6.2,6.2,0,0,1-.048-1.158q0-8.372,0-16.745c0-.291.011-.581-.014-.87a1.023,1.023,0,0,0-1.09-1.1c-.48-.048-.965-.029-1.448-.03-10.019.023-20.039,0-30.059.012-.29,0-.58,0-.871.007a.549.549,0,0,0-.619.625c0,.242-.007.484-.007.726q0,5.372,0,10.747c0,.266,0,.533,0,.8a4.24,4.24,0,0,1-4.506,4.522c-.823.02-1.645,0-2.469,0q-4.683,0-9.366,0c-1.044,0-1.083.035-1.083,1.041q0,20.041,0,40.083c0,1.386.322,1.7,1.727,1.7q12.488.005,24.977,0c.339,0,.677-.009,1.016.01a1.632,1.632,0,0,1,1.7,1.291,1.793,1.793,0,0,1,.014.285,1.39,1.39,0,0,1-1.447,1.33c-.338.029-.677.016-1.016.016H10.369c-.242,0-.485.01-.726,0-.486-.015-.709.2-.7.7s-.023.969.019,1.451A1.141,1.141,0,0,0,10,69.159a6.717,6.717,0,0,0,1.159.041l45.876,0a6.068,6.068,0,0,1,1.3.061,1.136,1.136,0,0,1,.976,1.41" fill="#040506"/>
        <path id="Trazado_615331" data-name="Trazado 615331" d="M65.148,33.9A21.111,21.111,0,0,1,70.709,43.8a20.728,20.728,0,0,1-2.448,16,.741.741,0,0,0,.142,1.124c2.535,2.491,5.064,4.99,7.548,7.531a5.183,5.183,0,0,1-2.242,8.687,5,5,0,0,1-5.016-1.247c-.8-.734-1.556-1.516-2.332-2.277a3.93,3.93,0,0,1-.913-.7c-1.55-1.56-3.119-3.1-4.656-4.676a.992.992,0,0,0-1.339-.222,20.939,20.939,0,0,1-19.307-.457,1.911,1.911,0,0,1-.2-.106,21.241,21.241,0,0,1-6.489-31.6,20.6,20.6,0,0,1,13.819-8.034,19.954,19.954,0,0,1,7.711.317,18.959,18.959,0,0,1,3.918,1.3c.824.466,1.712.815,2.51,1.331a20.1,20.1,0,0,1,3.211,2.454,2.611,2.611,0,0,1,.524.684" transform="translate(-3.155 -3.003)" fill="#040506"/>
        <path id="Trazado_615332" data-name="Trazado 615332" d="M38.092,72.252A21.235,21.235,0,0,0,48.52,74.794,20.422,20.422,0,0,0,57.5,72.588a.82.82,0,0,1,1.159.2c1.848,1.911,3.73,3.788,5.6,5.678l-3.894.06c-.209-1.009-.529-1.249-1.677-1.249q-23.6,0-47.2,0a1.7,1.7,0,0,1-1.5-.529,1.778,1.778,0,0,1-.226-1.254c.013-.624-.265-1.428.11-1.823s1.191-.127,1.813-.127q9.84-.015,19.677-.007c1.127,0,1.4-.2,1.669-1.191a.685.685,0,0,1,.528-.192,35.857,35.857,0,0,1,4.537.1" transform="translate(-1.053 -7.85)" fill="#d1d1d1"/>
        <path id="Trazado_615333" data-name="Trazado 615333" d="M69.065,31.965a31.045,31.045,0,0,0-3.759-2.989,1.916,1.916,0,0,1-.222-1.261c0-5.3-.012-10.6.009-15.9a11.4,11.4,0,0,1-.066-2.018c.484-.009.968-.032,1.451-.023a1.191,1.191,0,0,1,1.3,1.306c.014,1.331,0,2.663,0,3.994q0,5.808,0,11.618c0,1.081.227,1.374,1.291,1.691q-.007,1.793-.013,3.585" transform="translate(-7.073 -1.063)" fill="#d1d1d1"/>
        <path id="Trazado_615334" data-name="Trazado 615334" d="M52.156,25.584a24.651,24.651,0,0,0-5.762-.463,20.555,20.555,0,0,0-14.3,6.572,20.134,20.134,0,0,0-5.735,15.37A20.679,20.679,0,0,0,36.708,64.335c.162.1.318.209.477.314a34.067,34.067,0,0,1-4.909,0c-.32-.928-.636-1.151-1.661-1.151H4.485c-1.336,0-1.709-.376-1.709-1.729q0-20.434-.014-40.869c0-.6.139-.761.749-.757,4.113.029,8.225.016,12.338.014,2.809,0,4.3-1.488,4.305-4.285q0-6.207-.005-12.413c0-.428-.012-.7.583-.7q15.532.031,31.065.017a1.966,1.966,0,0,1,.216.022.631.631,0,0,1,.407.467,6.627,6.627,0,0,1,.008,2.346.322.322,0,0,1-.233.249,5.242,5.242,0,0,0-2.606-.414c-1.327.016-2.655,0-3.982,0a3.053,3.053,0,0,0-.863.081.922.922,0,0,0-.77.993.931.931,0,0,0,.848.93,4.862,4.862,0,0,0,.867.039c1.134,0,2.269-.016,3.4.008.776.017.925.169.939.953.021,1.159,0,2.317.008,3.476a3.383,3.383,0,0,0,.072.864,1.02,1.02,0,0,0,1.489.767c.22-.084.41-.271.677-.2a.981.981,0,0,1,.243.8q.019,5.288-.005,10.575c0,.307.1.708-.362.839" transform="translate(-0.3 -0.3)" fill="#fff"/>
        <path id="Trazado_615335" data-name="Trazado 615335" d="M17.89,5.147v7.762c0,1.234.014,2.468-.01,3.7a1.145,1.145,0,0,1-1.257,1.271c-3.869.015-7.737.007-11.475.007L17.89,5.147" transform="translate(-0.56 -0.56)" fill="#d1d1d1"/>
        <path id="Trazado_615336" data-name="Trazado 615336" d="M58.17,25.586c.194-.168.142-.4.142-.608q0-5.53,0-11.06a.729.729,0,0,0-.114-.55.873.873,0,0,1-.116-.555q.007-3.214,0-6.429a.865.865,0,0,1,.117-.554A5,5,0,0,0,58.027,2.8c.435-.008.871-.027,1.306-.022,1.051.01,1.485.44,1.486,1.51q.009,6.1,0,12.2c0,2.034.006,4.067,0,6.1a1.42,1.42,0,0,0,1,1.571c.2.048.395.128.411.348a4.141,4.141,0,0,1-.149,2.389c-1.287-.49-2.588-.938-3.913-1.313" transform="translate(-6.315 -0.302)" fill="#d1d1d1"/>
        <path id="Trazado_615337" data-name="Trazado 615337" d="M62.547,27.656c0-.686-.007-1.372.009-2.059a.7.7,0,0,0-.272-.679c1.134-.038,1.532-.446,1.533-1.621.005-4.229.028-8.457-.02-12.685-.009-.8.256-.967.938-.822a2.843,2.843,0,0,1,.291,1.183q-.013,9-.012,18l-2.465-1.317" transform="translate(-6.779 -1.06)" fill="#fff"/>
        <path id="Trazado_615338" data-name="Trazado 615338" d="M35.88,72.206h4.909l.155.054a28.086,28.086,0,0,1-3.684.088c-.459.019-.92,0-1.38,0,0-.048,0-.1,0-.145" transform="translate(-3.905 -7.858)" fill="#ffc53c"/>
        <path id="Trazado_615339" data-name="Trazado 615339" d="M55.776,66.978a16.567,16.567,0,0,1-9.837.184c-7.495-2.128-12.172-7.072-13.622-14.7A18.426,18.426,0,0,1,46.506,31.071a18.2,18.2,0,0,1,9.3.306,1.677,1.677,0,0,1,.253.127,19.308,19.308,0,0,1,8.465,8.34c.115.209.268.414.132.673-.43.1-.592-.258-.8-.5a2.4,2.4,0,0,0-3.79-.275q-6.482,5.588-13,11.13c-.626.533-1.25,1.068-1.867,1.61a.78.78,0,0,1-1.247-.069c-.857-.888-1.737-1.754-2.615-2.621a2.381,2.381,0,0,0-3.8-.022c-.5.493-1.006.979-1.485,1.492a2.3,2.3,0,0,0-.214,3.052,5.217,5.217,0,0,0,.62.709q2.849,2.849,5.7,5.7a4.7,4.7,0,0,0,.958.772,2.287,2.287,0,0,0,2.765-.26c2.093-1.756,4.153-3.551,6.23-5.326,2.9-2.482,5.8-4.976,8.7-7.455,1.4-1.191,2.77-2.415,4.195-3.575.335-.273.374-.811.872-.919.361.13.395.467.458.766a20.041,20.041,0,0,1-8.827,21.4c-.548.36-1.178.531-1.74.853" transform="translate(-3.481 -3.331)" fill="#a1b600"/>
        <path id="Trazado_615340" data-name="Trazado 615340" d="M58.681,67.087c1.075-.72,2.213-1.34,3.238-2.141a19.624,19.624,0,0,0,6.35-8.6A20.027,20.027,0,0,0,69.554,48a21.229,21.229,0,0,0-.577-3.545.5.5,0,0,0-.255-.333.468.468,0,0,1-.08-.411,2.641,2.641,0,0,0-.851-2.354c-.181-.173-.418-.361-.273-.681a12.17,12.17,0,0,0-2.138-3.558,19.362,19.362,0,0,0-6.18-5.238c-.1-.05-.157-.173-.233-.262a15.732,15.732,0,0,1,6.276,3.326A18.062,18.062,0,0,1,72,50.539,18.438,18.438,0,0,1,58.968,67.052a1.522,1.522,0,0,1-.287.035" transform="translate(-6.386 -3.44)" fill="#8a9e13"/>
        <path id="Trazado_615341" data-name="Trazado 615341" d="M75.8,79.132a1.991,1.991,0,0,1-1.362-.726c-2.53-2.521-5.046-5.056-7.582-7.57-.315-.312-.279-.452.061-.692a18.11,18.11,0,0,0,2.52-2.166c.351-.209.538.081.726.268,1.923,1.907,3.865,3.8,5.74,5.753a3.766,3.766,0,0,1-.1,5.132" transform="translate(-7.252 -7.39)" fill="#6c7b82"/>
        <path id="Trazado_615342" data-name="Trazado 615342" d="M76.139,79.032c.188-.36.4-.708.558-1.084a3.523,3.523,0,0,0-.63-3.967c-1.879-2-3.863-3.9-5.8-5.846-.135-.135-.261-.291-.487-.258.064-.069.127-.14.193-.207.913-.916.913-.916,1.854.023,2.255,2.252,4.516,4.5,6.759,6.763a2.607,2.607,0,0,1,.784,2.7,2.707,2.707,0,0,1-2.106,1.97,1.4,1.4,0,0,1-1.121-.1" transform="translate(-7.594 -7.29)" fill="#434b4f"/>
        <path id="Trazado_615343" data-name="Trazado 615343" d="M19.347,27.823q5.261,0,10.524,0a6.43,6.43,0,0,1,.8.026,1.107,1.107,0,0,1,1.042,1.028,1.14,1.14,0,0,1-.7,1.3,1.738,1.738,0,0,1-.7.14q-10.96.011-21.921,0a1.25,1.25,0,0,1-1.419-1.29c.016-.755.512-1.2,1.414-1.2,3.653-.009,7.306,0,10.96,0" transform="translate(-0.759 -3.028)" fill="#050506"/>
        <path id="Trazado_615344" data-name="Trazado 615344" d="M18.091,33.391q4.859,0,9.719,0c.906,0,1.4.424,1.426,1.179a1.244,1.244,0,0,1-1.4,1.3c-1.958.01-3.917,0-5.875,0q-6.745,0-13.49,0c-.913,0-1.432-.4-1.493-1.129A1.192,1.192,0,0,1,8.3,33.4c2.369-.012,4.738,0,7.108,0h2.683" transform="translate(-0.759 -3.634)" fill="#040506"/>
        <path id="Trazado_615345" data-name="Trazado 615345" d="M16.693,38.95q4.065,0,8.129,0c1,0,1.526.428,1.527,1.231s-.528,1.242-1.52,1.242q-8.238,0-16.476,0A1.245,1.245,0,0,1,7.844,39a2.931,2.931,0,0,1,.72-.045q4.065,0,8.129,0" transform="translate(-0.759 -4.239)" fill="#040506"/>
        <path id="Trazado_615346" data-name="Trazado 615346" d="M15.831,46.979q-3.665,0-7.331,0c-1,0-1.527-.427-1.529-1.227S7.5,44.5,8.489,44.5q7.4,0,14.806,0c.947,0,1.536.5,1.516,1.273-.019.743-.583,1.2-1.5,1.2q-3.738.007-7.475,0" transform="translate(-0.759 -4.843)" fill="#040506"/>
        <path id="Trazado_615347" data-name="Trazado 615347" d="M15.573,52.54c-2.42,0-4.841.01-7.262-.005a1.209,1.209,0,0,1-1.316-1.487c.118-.64.627-1,1.471-1q5.918-.005,11.836,0c.872,0,1.743-.012,2.614,0a1.252,1.252,0,0,1,1.378,1.259c0,.766-.5,1.221-1.387,1.224-2.444.011-4.89,0-7.334,0" transform="translate(-0.758 -5.447)" fill="#050506"/>
        <path id="Trazado_615348" data-name="Trazado 615348" d="M9.906,67.084c-.991,0-1.982.009-2.973,0A1.247,1.247,0,0,1,5.55,65.689q-.017-2.937,0-5.874A1.292,1.292,0,0,1,6.786,58.4a1.27,1.27,0,0,1,1.241,1.4c.012,1.378.028,2.756-.009,4.133-.013.523.1.712.664.692,1.352-.046,2.707-.019,4.06-.013.907,0,1.482.472,1.5,1.212.024.765-.563,1.259-1.513,1.265s-1.885,0-2.828,0" transform="translate(-0.603 -6.356)" fill="#040506"/>
        <path id="Trazado_615349" data-name="Trazado 615349" d="M57.184,6.13a2.851,2.851,0,0,1,.15.626q.016,3.144,0,6.287a2.8,2.8,0,0,1-.15.626,1.244,1.244,0,0,1-1.53.472,1.341,1.341,0,0,1-.8-1.406c0-1.355-.021-2.709.011-4.063.012-.495-.111-.667-.634-.653-1.377.037-2.756.02-4.134.01-.885-.006-1.388-.454-1.4-1.211-.01-.783.517-1.265,1.429-1.268,1.911-.008,3.82.006,5.73-.008a1.534,1.534,0,0,1,1.331.589" transform="translate(-5.3 -0.603)" fill="#050506"/>
        <path id="Trazado_615350" data-name="Trazado 615350" d="M65,41.555a2.162,2.162,0,0,0,.574.724A2.643,2.643,0,0,1,66.206,45a3.268,3.268,0,0,1-.864,1.147q-9.4,8.041-18.787,16.089a2.533,2.533,0,0,1-3.8-.112q-3.164-3.147-6.309-6.314a2.482,2.482,0,0,1,.018-3.828c.527-.534,1.049-1.073,1.594-1.587a2.432,2.432,0,0,1,3.512,0q1.516,1.458,2.973,2.978c.323.337.514.344.87.037q5.85-5.046,11.727-10.059c1.12-.96,2.229-1.932,3.358-2.881a2.493,2.493,0,0,1,3.815.342c.219.256.459.494.689.74" transform="translate(-3.869 -4.325)" fill="#040506"/>
        <path id="Trazado_615351" data-name="Trazado 615351" d="M64.125,44.391c-.075.24-.285.34-.445.477q-4.812,4.141-9.634,8.273c-2.864,2.455-5.736,4.9-8.592,7.369-.307.266-.465.341-.794.006q-2.922-2.982-5.9-5.907c-.335-.33-.312-.511.02-.79A6.585,6.585,0,0,0,39.7,52.9c.34-.429.567-.316.9.024,1.128,1.165,2.285,2.3,3.433,3.446.912.909,1.373.94,2.346.108q6.311-5.406,12.611-10.822c1.064-.914,2.136-1.819,3.185-2.751.308-.274.495-.271.745.059.321.423.689.81,1.036,1.214.061.071.118.147.174.218" transform="translate(-4.192 -4.647)" fill="#f3f3f3"/>
      </g>
    </g>
  </g>
</svg>
