<svg xmlns="http://www.w3.org/2000/svg" xmlns:xlink="http://www.w3.org/1999/xlink" width="155.182" height="155.183" viewBox="0 0 155.182 155.183">
  <defs>
    <filter id="Elipse_5222" x="0" y="0" width="155.182" height="155.183" filterUnits="userSpaceOnUse">
      <feOffset dy="6" input="SourceAlpha"/>
      <feGaussianBlur stdDeviation="5" result="blur"/>
      <feFlood flood-opacity="0.329"/>
      <feComposite operator="in" in2="blur"/>
      <feComposite in="SourceGraphic"/>
    </filter>
    <clipPath id="clip-path">
      <rect id="Rectángulo_325005" data-name="Rectángulo 325005" width="71.818" height="84.886" transform="translate(0 0)" fill="none"/>
    </clipPath>
  </defs>
  <g id="Grupo_876517" data-name="Grupo 876517" transform="translate(-1081.09 -4303.031)">
    <g transform="matrix(1, 0, 0, 1, 1081.09, 4303.03)" filter="url(#Elipse_5222)">
      <circle id="Elipse_5222-2" data-name="Elipse 5222" cx="62.591" cy="62.591" r="62.591" transform="translate(15 9)" fill="#ffb500"/>
    </g>
    <g id="Grupo_876500" data-name="Grupo 876500" transform="translate(1125.681 4339.958)">
      <g id="Grupo_876499" data-name="Grupo 876499" transform="translate(0 -3)" clip-path="url(#clip-path)">
        <path id="Trazado_615029" data-name="Trazado 615029" d="M11.054,84.886c-.938-.362-1.946-.469-2.885-.846A12.793,12.793,0,0,1,10.723,59.5a12.627,12.627,0,0,1,9.54,2.24c.455.326.671.417,1.094-.084a3.477,3.477,0,0,1,5.121-.453,3.351,3.351,0,0,1,.086,5.052c-1.377,1.28-1.4,2.567-1.126,4.268a12.6,12.6,0,0,1-10.9,14.224c-.06.006-.112.092-.168.141Z" fill="#040506"/>
        <path id="Trazado_615030" data-name="Trazado 615030" d="M12.974,55.226a12.777,12.777,0,1,1-.392-25.55,12.439,12.439,0,0,1,7.654,2.392c.5.364.734.379,1.153-.114a3.5,3.5,0,1,1,5.386,4.473c-.575.67-1.391,1.253-1.665,2.028-.259.733.293,1.617.394,2.462a12.8,12.8,0,0,1-7.258,13.119,11.733,11.733,0,0,1-5.272,1.19" fill="#040506"/>
        <path id="Trazado_615031" data-name="Trazado 615031" d="M4.115,5.047c-.438-.959-.354-1.363.42-2.016A12.748,12.748,0,0,1,20.35,2.485c.422.309.624.3.968-.1a3.51,3.51,0,1,1,5.321,4.557c-.546.654-1.446,1.181-1.566,1.971a9.782,9.782,0,0,0,.432,2.4A12.791,12.791,0,0,1,.162,14.764,12.538,12.538,0,0,1,.651,8.806C1,7.71,1.389,7.487,2.565,7.662A1.227,1.227,0,0,1,3.316,9.39a14.521,14.521,0,0,0-.52,3.331,10.055,10.055,0,1,0,20.021-1.276c-.141.68-.974,1.029-1.351,1.7-1.66,1.768-3.15,3.693-4.871,5.406a3.617,3.617,0,0,1-5.638-.293c-1.464-1.724-2.989-3.4-4.392-5.171a3.427,3.427,0,0,1-.412-3.955A3.582,3.582,0,0,1,9.512,7.112a3.279,3.279,0,0,1,2.321.942A13.5,13.5,0,0,1,13.46,9.815c.321.431.619.438,1,.027,1.387-1.5,2.674-3.083,4.054-4.587.349-.379.16-.63-.192-.862a9.646,9.646,0,0,0-6.775-1.584A10.2,10.2,0,0,0,6.307,5.1c-.945.779-1.546.729-2.192-.052" fill="#040506"/>
        <path id="Trazado_615032" data-name="Trazado 615032" d="M4.115,5.047c.951.618,1.231.593,2.185-.2A10.234,10.234,0,0,1,18.6,4.3c.472.322.644.5.169,1.012-1.5,1.621-2.946,3.29-4.387,4.963-.311.361-.482.413-.791.012-.455-.589-.958-1.141-1.455-1.7a3.491,3.491,0,1,0-5.282,4.562q2.168,2.557,4.362,5.093a3.442,3.442,0,0,0,5.353.1c1.6-1.748,3.163-3.534,4.741-5.3.323.3.21.663.129,1a11.71,11.71,0,0,1-9.3,8.791,6.741,6.741,0,0,1-1.636-.078,9.924,9.924,0,0,1-7.544-7.1,9.378,9.378,0,0,1,.1-6.014,1.584,1.584,0,0,0-.49-1.977c.258-1.025,1.118-1.693,1.55-2.615" fill="#fff"/>
        <path id="Trazado_615033" data-name="Trazado 615033" d="M51.483,5.354H69.87a4.284,4.284,0,0,1,.826.026A1.226,1.226,0,0,1,71.8,6.628a1.19,1.19,0,0,1-1.1,1.247,5.142,5.142,0,0,1-.824.038q-18.429,0-36.858,0H32.86c-1.126-.01-1.763-.493-1.737-1.316.026-.8.639-1.244,1.724-1.244q9.318,0,18.636,0" fill="#070708"/>
        <path id="Trazado_615034" data-name="Trazado 615034" d="M51.479,14.076q-9.237,0-18.471,0a2.7,2.7,0,0,1-.98-.084,1.206,1.206,0,0,1-.893-1.245,1.166,1.166,0,0,1,.991-1.159,4.012,4.012,0,0,1,.82-.067q18.511,0,37.023,0a4.59,4.59,0,0,1,.742.039,1.188,1.188,0,0,1,1.09,1.25,1.234,1.234,0,0,1-1.11,1.246,3.828,3.828,0,0,1-.743.023H51.479" fill="#070708"/>
        <path id="Trazado_615035" data-name="Trazado 615035" d="M51.437,43.735H33.049a4.035,4.035,0,0,1-.824-.037,1.258,1.258,0,0,1,.02-2.5,3.816,3.816,0,0,1,.742-.03q18.471,0,36.941,0c.111,0,.221,0,.331,0,.936.024,1.536.507,1.558,1.25.022.77-.605,1.31-1.578,1.312q-6.46.01-12.921,0H51.437" fill="#070708"/>
        <path id="Trazado_615036" data-name="Trazado 615036" d="M51.486,70.829h18.47a3.748,3.748,0,0,1,.743.024,1.228,1.228,0,0,1,1.1,1.251,1.191,1.191,0,0,1-1.1,1.245,4.713,4.713,0,0,1-.742.038q-18.471,0-36.94,0c-.083,0-.166,0-.249,0-1.046-.018-1.678-.523-1.65-1.32.028-.777.628-1.238,1.646-1.239q9.358,0,18.718,0" fill="#070708"/>
        <path id="Trazado_615037" data-name="Trazado 615037" d="M51.5,37.564H33.276c-.166,0-.331,0-.5,0-1.059-.018-1.683-.51-1.657-1.306.025-.777.628-1.246,1.64-1.247q18.719,0,37.436,0c.986,0,1.613.5,1.62,1.271s-.593,1.276-1.6,1.278q-9.358.009-18.718,0" fill="#060608"/>
        <path id="Trazado_615038" data-name="Trazado 615038" d="M51.4,64.675q9.318,0,18.635,0a2.321,2.321,0,0,1,.9.082,1.211,1.211,0,0,1,.861,1.269A1.146,1.146,0,0,1,70.7,67.176c-.274.027-.551.031-.826.031q-18.387,0-36.773,0-2.031,0-1.983-1.3c.032-.849.648-1.234,1.978-1.234H51.4" fill="#050506"/>
        <path id="Trazado_615039" data-name="Trazado 615039" d="M45.447,76.989q6.087,0,12.173,0a5.26,5.26,0,0,1,.824.038,1.192,1.192,0,0,1,1.092,1.249A1.208,1.208,0,0,1,58.509,79.5a3.253,3.253,0,0,1-.74.045q-12.422,0-24.842,0a2.518,2.518,0,0,1-.9-.086,1.2,1.2,0,0,1-.894-1.243,1.159,1.159,0,0,1,.989-1.16,4.451,4.451,0,0,1,.9-.067q6.21-.006,12.421,0" fill="#070708"/>
        <path id="Trazado_615040" data-name="Trazado 615040" d="M45.445,47.341q6.085,0,12.172,0a7.087,7.087,0,0,1,.825.037,1.164,1.164,0,0,1,1.092,1.158,1.194,1.194,0,0,1-.946,1.286,3,3,0,0,1-.817.07q-12.42,0-24.841,0a2.45,2.45,0,0,1-.9-.082,1.211,1.211,0,0,1-.9-1.245A1.171,1.171,0,0,1,32.2,47.387a5.84,5.84,0,0,1,.907-.044q6.17,0,12.338,0" fill="#070708"/>
        <path id="Trazado_615041" data-name="Trazado 615041" d="M45.279,20.229q-6.21,0-12.42,0a2.06,2.06,0,0,1-.972-.133,1.193,1.193,0,0,1-.748-1.258,1.153,1.153,0,0,1,1.049-1.1A7.042,7.042,0,0,1,33.1,17.7q12.255,0,24.509,0c1.328,0,1.945.4,1.948,1.251s-.651,1.282-1.937,1.282H45.279" fill="#050506"/>
        <path id="Trazado_615042" data-name="Trazado 615042" d="M10.546,82.081a9.726,9.726,0,0,1-6.8-5.166A10.273,10.273,0,0,1,18.492,63.534c.548.359.771.581.2,1.184-1.473,1.567-2.886,3.194-4.278,4.835-.391.461-.584.375-.9-.028-.441-.565-.918-1.1-1.393-1.64a3.495,3.495,0,1,0-5.313,4.54q2.183,2.6,4.423,5.148a3.421,3.421,0,0,0,5.35.067c1.568-1.706,3.085-3.457,4.625-5.189.523.28.285.722.186,1.083a11.494,11.494,0,0,1-5.8,7.4,7.592,7.592,0,0,1-5.051,1.144" fill="#fff"/>
        <path id="Trazado_615043" data-name="Trazado 615043" d="M13.178,75.948c-1.484-1.7-2.973-3.4-4.447-5.115a1,1,0,1,1,1.524-1.28c.852.978,1.693,1.965,2.549,2.94.81.924,1.528.919,2.336,0q3.994-4.536,7.986-9.075c.366-.417.739-.755,1.346-.532.228.5-.116.855-.387,1.162-1.725,1.964-3.443,3.934-5.175,5.891-1.386,1.565-2.751,3.149-4.137,4.715-.451.51-.784,1.209-1.595,1.292" fill="#a9c97e"/>
        <path id="Trazado_615044" data-name="Trazado 615044" d="M10.546,82.081a11.443,11.443,0,0,0,10.743-8.918.758.758,0,0,0-.079-.712l1.675-1.964c1.067,4.95-2.413,10.3-7.464,11.569a8.747,8.747,0,0,1-4.875.025" fill="#c9c9c9"/>
        <path id="Trazado_615045" data-name="Trazado 615045" d="M13.178,75.948a15.893,15.893,0,0,0,2.565-2.677c1.436-1.553,2.778-3.193,4.174-4.785,1.342-1.53,2.708-3.04,4.052-4.569a2.231,2.231,0,0,0,.5-1.029c.821.565.886,1.029.2,1.8q-3.765,4.292-7.545,8.571c-.784.89-1.55,1.8-2.354,2.667-.571.618-.938.6-1.6.018" fill="#95be64"/>
        <path id="Trazado_615046" data-name="Trazado 615046" d="M10.524,52.42a9.77,9.77,0,0,1-7.56-7.09A10.261,10.261,0,0,1,13.581,32.2a9.857,9.857,0,0,1,5.63,2.235l-5.234,5.943c-.643-.744-1.231-1.439-1.834-2.12a3.493,3.493,0,1,0-5.295,4.555q2.168,2.558,4.368,5.09a3.446,3.446,0,0,0,5.356.106c.322-.341.619-.706.943-1.046a1.4,1.4,0,0,0,.151-2,5.041,5.041,0,0,1,2.026-2.352,1.509,1.509,0,0,0,1.649.008c.467.288.186.7.1,1.011A11.568,11.568,0,0,1,13.2,52.255a5.565,5.565,0,0,1-2.674.165" fill="#fff"/>
        <path id="Trazado_615047" data-name="Trazado 615047" d="M13.173,46.28c-1.484-1.7-2.975-3.4-4.448-5.114a.939.939,0,0,1,.085-1.46.945.945,0,0,1,1.45.192c.85.979,1.694,1.965,2.545,2.944a1.34,1.34,0,0,0,2.337,0q3.99-4.541,7.984-9.077c.361-.412.732-.767,1.344-.535.227.505-.123.85-.39,1.161-1.631,1.9-3.3,3.767-4.944,5.652-1.466,1.679-2.951,3.34-4.42,5.015-.429.488-.743,1.181-1.543,1.227" fill="#a9c97e"/>
        <path id="Trazado_615048" data-name="Trazado 615048" d="M10.524,52.42a10.638,10.638,0,0,0,7.482-3.141,9.922,9.922,0,0,0,3.335-6.664l1.529-1.753a9.463,9.463,0,0,1-2.4,8.418,9.772,9.772,0,0,1-9.942,3.14" fill="#c9c9c9"/>
        <path id="Trazado_615049" data-name="Trazado 615049" d="M13.173,46.28a15.689,15.689,0,0,0,2.566-2.674c1.55-1.674,3.017-3.424,4.521-5.139,1.252-1.427,2.515-2.843,3.755-4.279a2.046,2.046,0,0,0,.455-.963c.819.553.882,1.037.211,1.8Q22.26,37.8,19.827,40.554a1.379,1.379,0,0,0-.135,2.053l-2.026,2.351c-1.028-.51-1.369-.437-2.131.453-.269.314-.526.642-.823.927-.519.5-1.049.57-1.539-.058" fill="#95be64"/>
        <path id="Trazado_615050" data-name="Trazado 615050" d="M13.165,16.614c-1.482-1.7-2.97-3.4-4.442-5.112a.939.939,0,0,1,.091-1.457.911.911,0,0,1,1.39.135c.877.991,1.733,2,2.6,3a1.334,1.334,0,0,0,2.334.009q3.984-4.537,7.973-9.069c.368-.418.74-.855,1.394-.523.147.505-.179.844-.456,1.166q-3.1,3.6-6.277,7.144c-1.249,1.4-2.424,2.862-3.731,4.207-.232.239-.423.615-.873.5" fill="#a9c97e"/>
        <path id="Trazado_615051" data-name="Trazado 615051" d="M10.5,22.758a10.655,10.655,0,0,0,7.484-3.124,9.75,9.75,0,0,0,3.327-6.593L22.857,11.2a9.6,9.6,0,0,1-2.089,8.1A10.111,10.111,0,0,1,10.5,22.758" fill="#c9c9c9"/>
        <path id="Trazado_615052" data-name="Trazado 615052" d="M13.165,16.614a18.914,18.914,0,0,0,2.791-2.908c1.069-1.141,2.06-2.355,3.092-3.531C20.7,8.3,22.357,6.429,23.993,4.54A4.851,4.851,0,0,0,24.5,3.6c.78.527.846,1.008.2,1.74q-3.738,4.255-7.486,8.5c-.82.93-1.622,1.877-2.465,2.786-.576.621-.922.593-1.59-.011" fill="#95be64"/>
      </g>
    </g>
  </g>
</svg>
