<svg xmlns="http://www.w3.org/2000/svg" xmlns:xlink="http://www.w3.org/1999/xlink" width="155.182" height="155.183" viewBox="0 0 155.182 155.183">
  <defs>
    <filter id="Elipse_5221" x="0" y="0" width="155.182" height="155.183" filterUnits="userSpaceOnUse">
      <feOffset dy="6" input="SourceAlpha"/>
      <feGaussianBlur stdDeviation="5" result="blur"/>
      <feFlood flood-opacity="0.329"/>
      <feComposite operator="in" in2="blur"/>
      <feComposite in="SourceGraphic"/>
    </filter>
    <clipPath id="clip-path">
      <rect id="Rectángulo_325015" data-name="Rectángulo 325015" width="58.193" height="78.098" fill="none"/>
    </clipPath>
  </defs>
  <g id="Grupo_876532" data-name="Grupo 876532" transform="translate(-732.098 -4303.031)">
    <g transform="matrix(1, 0, 0, 1, 732.1, 4303.03)" filter="url(#Elipse_5221)">
      <circle id="Elipse_5221-2" data-name="Elipse 5221" cx="62.591" cy="62.591" r="62.591" transform="translate(15 9)" fill="#ffb500"/>
    </g>
    <g id="Grupo_876531" data-name="Grupo 876531" transform="translate(780.884 4339.004)">
      <g id="Grupo_876530" data-name="Grupo 876530" transform="translate(0 0.001)" clip-path="url(#clip-path)">
        <path id="Trazado_615293" data-name="Trazado 615293" d="M1.009,0H57.183a1.656,1.656,0,0,1,1.006,1.716c0,.28,0,.558,0,.838V75.689c0,.355,0,.711-.014,1.066a1.256,1.256,0,0,1-1,1.343H14.1c-.806-.339-.935-.548-.9-1.45a1.482,1.482,0,0,1,1.493-1.068c.279-.016.557-.014.835-.014q18.01,0,36.021,0c.253,0,.507,0,.759.023.785-.049,1.571-.018,2.358-.022.5,0,.751-.214.744-.727,0-.279.006-.558.006-.837V16.428c0-1.564,0-1.561-1.587-1.566-.481,0-.963.026-1.443-.022-1.5-.008-3,.072-4.368-.033a2.988,2.988,0,0,1,1.028,2.414.6.6,0,0,0,.736.649c1.247-.121,1.984.678,2,2.118.03,3.169.019,6.338,0,9.507a2.98,2.98,0,0,1-.186,1.044A1.383,1.383,0,0,1,50.2,31.5,1.491,1.491,0,0,1,49,30.291a3.9,3.9,0,0,1-.034-.758c0-2.662,0-5.324,0-7.262-.073,5.183.149,11.086.086,16.992-.015,1.444.036,2.89-.022,4.335-.042,1.035-.414,1.47-1.311,1.672-1-.1-1.349-.454-1.42-1.419-.025-.329-.015-.659-.015-.988V22.2c0-.278-.01-.558,0-.836.009-.516-.243-.721-.744-.723-.835,0-1.671.026-2.507-.019-.786.048-1.572.017-2.359.022-.508,0-.748.22-.738.731,0,.253-.006.507-.006.761q0,13.091,0,26.184A3.822,3.822,0,0,0,40,49.455c.171.3.457.265.735.267,1.56.011,3.121-.04,4.681-.01.6.011.84-.222.912-.819.107-.884.549-1.221,1.477-1.276A1.44,1.44,0,0,1,49.009,49a6.936,6.936,0,0,1,.04.988c0,4.414-.017,8.827.009,13.241A3.329,3.329,0,0,1,47.335,66.6a.85.85,0,0,0-.411.839c-.016.583.023,1.168-.031,1.749a3.967,3.967,0,0,1-2.944,3.578,3.917,3.917,0,0,1-4.1-1.687,3.517,3.517,0,0,1-.552-1.8,10.692,10.692,0,0,1,0-1.368,1.449,1.449,0,0,0-.811-1.548,2.758,2.758,0,0,1-1.337-2.635c.022-5.834.01-11.668.01-17.5q0-14.116,0-28.232c0-1.06-.128-2.15.732-3a1.261,1.261,0,0,0-.833-.14q-16.474-.005-32.948,0c-1.333,0-1.331,0-1.335,1.343,0,1.065.039,2.132-.022,3.2A1.417,1.417,0,0,1,1.3,20.914,1.435,1.435,0,0,1,.013,19.241C-.01,16.762,0,14.284,0,11.8q0-4.97,0-9.94A1.779,1.779,0,0,1,1.009,0" transform="translate(0 -0.001)" fill="#040506"/>
        <path id="Trazado_615294" data-name="Trazado 615294" d="M.979,75.153A1.57,1.57,0,0,1,.2,73.634Q.229,47.656.219,21.679c0-1,.243-1.3,1.211-1.506a1.067,1.067,0,0,1,1.237.919,5.768,5.768,0,0,1,.08,1.439q0,24.267,0,48.535c0,1.554,0,1.553,1.521,1.555,1.648,0,3.3-.009,4.944.006A1.538,1.538,0,0,1,10.865,73.7c.034.9-.1,1.114-.9,1.456Z" transform="translate(0.03 2.946)" fill="#040506"/>
        <path id="Trazado_615295" data-name="Trazado 615295" d="M8.717,68.334A1.434,1.434,0,0,0,9.5,67.122a3.009,3.009,0,0,1,2.54,0,1.434,1.434,0,0,0,.785,1.213Z" transform="translate(1.273 9.764)" fill="#fdfdfd"/>
        <path id="Trazado_615296" data-name="Trazado 615296" d="M13.148,75.024H10.609a1.32,1.32,0,0,0-1.5-1.078c-2,.025-4.008-.016-6.012.023-.59.011-.744-.139-.743-.738q.028-25.156.025-50.311c0-.838-.207-1.441-1.082-1.662a8.218,8.218,0,0,0-.147-2.386c.915-.155,1.211-.491,1.216-1.418.007-1.394.013-2.79-.006-4.183,0-.371.057-.527.486-.527q17.686.021,35.374.015c.041,0,.084.033.19.079a2.883,2.883,0,0,0-1.219,2.748q.024,23.014,0,46.027c0,1.449.391,2.541,1.868,3,.314.1.276.3.277.526,0,.76-.011,1.522.023,2.281a3.516,3.516,0,0,0,3.156,3.333,3.571,3.571,0,0,0,3.874-2.8,12.655,12.655,0,0,0,.1-2.73.612.612,0,0,1,.48-.7,2.349,2.349,0,0,0,1.653-2.387c.021-4.944.011-9.89.006-14.835a1.237,1.237,0,0,0-1.112-1.391,2.736,2.736,0,0,1,0-2.587c.94-.359,1.119-.626,1.119-1.711q0-11.14.013-22.28c0-.251-.219-.727.2-.733.3,0,.151.464.152.713C49,22.072,49,24.835,49,27.6c0,.2-.011.407.006.609a1.253,1.253,0,0,0,1.14,1.281A1.194,1.194,0,0,0,51.3,28.161q.028-5.285,0-10.57c-.006-.929-.452-1.315-1.375-1.334a3.465,3.465,0,0,0-.607,0c-.563.092-.75-.109-.7-.69A2.81,2.81,0,0,0,47.3,12.78h4.841c.332.36.249.81.25,1.232q.012,4.834,0,9.666,0,24.395-.006,48.788c0,.494.126,1.025-.249,1.46-.3.009-.607.026-.911.026q-18.214,0-36.427-.008c-.83,0-1.451.185-1.655,1.08" transform="translate(0.167 1.861)" fill="#fff"/>
        <path id="Trazado_615297" data-name="Trazado 615297" d="M51.837,12c-1.571.008-3.144,0-4.714.032-.37.007-.442-.117-.486-.468a3.914,3.914,0,0,0-3.861-3.576A3.849,3.849,0,0,0,38.891,11.5c-.076.587-.4.524-.785.524H12.4c-3.144,0-6.289-.011-9.432.011-.551,0-.779-.078-.77-.72.04-2.865.026-5.73.008-8.6,0-.447.084-.6.575-.6q24.455.022,48.911.015a1.151,1.151,0,0,1,.15.021,1.3,1.3,0,0,1,.245,1.005q.012,3.918,0,7.837A1.3,1.3,0,0,1,51.837,12" transform="translate(0.32 0.309)" fill="#3b82be"/>
        <path id="Trazado_615298" data-name="Trazado 615298" d="M45.641,73.927V12.78c.964-.009,1.927,0,2.889-.034.366-.011.516.1.465.468a2.808,2.808,0,0,0,0,.381q0,29.76.017,59.519c0,.691-.166.913-.86.855-.832-.07-1.672-.032-2.509-.041" transform="translate(6.668 1.861)" fill="#bec2d0"/>
        <path id="Trazado_615299" data-name="Trazado 615299" d="M42.613,42.584a15.364,15.364,0,0,0,0,2.588c-.91.171-1.182.461-1.17,1.437.007.526-.141.7-.678.688-1.872-.029-3.744,0-5.617-.008-.165,0-.356.073-.493-.1.59-.444,1.273-.221,1.914-.245,1.106-.042,1.14-.044,1.14-1.174q.005-13.279.007-26.556c0-.47-.115-.973.243-1.386.911-.009,1.825.019,2.733-.039.6-.039.754.154.752.752-.024,5.47-.015,10.943-.015,16.414q0,3,0,6c0,1.116.15,1.311,1.179,1.624" transform="translate(5.063 2.598)" fill="#feac40"/>
        <path id="Trazado_615300" data-name="Trazado 615300" d="M37.972,17.83q0,14.241.017,28.484c0,.708-.2.926-.893.879-.806-.055-1.618-.007-2.429,0-.019-.25-.056-.5-.056-.751,0-9.268.007-18.536-.021-27.8,0-.719.21-.893.877-.844.831.062,1.669.03,2.5.038" transform="translate(5.053 2.598)" fill="#ffcb42"/>
        <path id="Trazado_615301" data-name="Trazado 615301" d="M45.509,12V2.151c1.012-.008,2.025,0,3.037-.031.364-.01.473.109.472.472q-.019,4.482,0,8.965c0,.363-.108.483-.472.472C47.534,12,46.521,12.006,45.509,12" transform="translate(6.648 0.309)" fill="#3176b2"/>
        <path id="Trazado_615302" data-name="Trazado 615302" d="M37.569,45.571c.983-.01,1.968-.009,2.951-.037.371-.01.54.076.535.5q-.031,2.8,0,5.6c0,.424-.165.5-.534.493-.984-.026-1.968-.024-2.952-.033a1.123,1.123,0,0,1-.238-.848q-.017-2.414,0-4.827a1.171,1.171,0,0,1,.24-.849" transform="translate(5.453 6.651)" fill="#22a5dc"/>
        <path id="Trazado_615303" data-name="Trazado 615303" d="M37.968,45.571V52.1c-.96.009-1.922.008-2.882.034-.342.009-.492-.063-.488-.452q.029-2.847,0-5.694c0-.387.144-.463.488-.453.959.028,1.921.028,2.881.039" transform="translate(5.054 6.651)" fill="#3db8ec"/>
        <path id="Trazado_615304" data-name="Trazado 615304" d="M34.646,53.412c.138-.233.364-.118.547-.119,1.852-.008,3.7.014,5.555-.011.509-.007.74.1.7.664a16.971,16.971,0,0,0,0,1.9c.017.437-.091.653-.588.631-.962-.04-1.927-.026-2.889-.036-.41-.6-.189-1.274-.228-1.916-.047-.8-.077-.825-.873-.879-.74-.05-1.519.214-2.215-.235" transform="translate(5.061 7.781)" fill="#fdab40"/>
        <path id="Trazado_615305" data-name="Trazado 615305" d="M37.783,12.982c-1.619,0-1.614,0-1.613-1.623A1.944,1.944,0,0,1,36.8,9.588a1.6,1.6,0,0,1,2.48.76,2.907,2.907,0,0,1,.133.971c0,1.664.006,1.664-1.635,1.664" transform="translate(5.284 1.352)" fill="#e23623"/>
        <path id="Trazado_615306" data-name="Trazado 615306" d="M34.652,53.393c.905,0,1.813.025,2.719,0,.465-.013.622.156.609.613-.029.8-.01,1.611-.01,2.417-.976.009-1.955.008-2.932.032-.329.008-.445-.11-.434-.434.028-.876.033-1.752.049-2.628" transform="translate(5.055 7.8)" fill="#ffcb42"/>
        <path id="Trazado_615307" data-name="Trazado 615307" d="M36.47,59.555c0-1.5,0-1.5,1.489-1.5,1.083,0,1.089,0,1.081,1.082a10.766,10.766,0,0,1-.063,1.587A1.238,1.238,0,0,1,37.6,61.845a1.273,1.273,0,0,1-1.13-1.3c-.015-.328,0-.658,0-.987" transform="translate(5.327 8.481)" fill="#3b82be"/>
        <path id="Trazado_615308" data-name="Trazado 615308" d="M34.732,14.606a32.037,32.037,0,0,1,3.854-.072c.633-.016,1.266,0,1.9,0,.92,0,1.132.292.944,1.194-.074.36-.315.268-.518.268-.987,0-1.974-.011-2.962-.019-.044-.092-.032.039-.045-.058-.126-1.026-.8-1.135-1.658-1.076-.5.033-1.062.172-1.515-.234" transform="translate(5.074 2.119)" fill="#faa93f"/>
        <path id="Trazado_615309" data-name="Trazado 615309" d="M34.754,14.594c.8.009,1.6.064,2.4.013.661-.044.935.165.83.832a3.467,3.467,0,0,0-.007.524c-.876.008-1.756-.033-2.627.04-.673.057-.839-.211-.735-.8.037-.207-.111-.457.143-.613" transform="translate(5.052 2.131)" fill="#ffc941"/>
        <path id="Trazado_615310" data-name="Trazado 615310" d="M19.83,57.154q-6.392,0-12.784,0a1.3,1.3,0,0,1-1.308-.578,1.131,1.131,0,0,1,.747-1.663,3.523,3.523,0,0,1,.832-.05q12.479,0,24.958,0a4.689,4.689,0,0,1,.684.018,1.122,1.122,0,0,1,1.031,1.2,1.084,1.084,0,0,1-1.15,1.065c-1.979.019-3.957.009-5.936.01H19.83" transform="translate(0.817 8.014)" fill="#040506"/>
        <path id="Trazado_615311" data-name="Trazado 615311" d="M18.62,34.486H7.441q-.38,0-.76-.022a1.116,1.116,0,0,1-.131-2.219,4.745,4.745,0,0,1,.753-.062q11.293-.005,22.587,0a4.323,4.323,0,0,1,.9.093,1.105,1.105,0,0,1-.084,2.158,6.86,6.86,0,0,1-.909.049q-5.589.005-11.179,0" transform="translate(0.818 4.701)" fill="#050607"/>
        <path id="Trazado_615312" data-name="Trazado 615312" d="M18.615,30.433q-5.628,0-11.257,0a4.006,4.006,0,0,1-.83-.056A1.056,1.056,0,0,1,5.6,29.182a1.044,1.044,0,0,1,1.1-1.035c.2-.008.406-.01.609-.01q11.295,0,22.589,0c1.2,0,1.716.328,1.736,1.107s-.568,1.188-1.76,1.188H18.615" transform="translate(0.818 4.11)" fill="#050506"/>
        <path id="Trazado_615313" data-name="Trazado 615313" d="M18.568,38.307H7.386a7.49,7.49,0,0,1-.834-.026A1.025,1.025,0,0,1,5.6,37.265a1.053,1.053,0,0,1,.7-1.133,2.439,2.439,0,0,1,.973-.121q11.333,0,22.665,0a2.392,2.392,0,0,1,.973.119,1.056,1.056,0,0,1,.7,1.138,1.025,1.025,0,0,1-.952,1.012,7,7,0,0,1-.836.026H18.568" transform="translate(0.817 5.26)" fill="#050506"/>
        <path id="Trazado_615314" data-name="Trazado 615314" d="M20.273,24.171q4.681,0,9.361,0a1.392,1.392,0,0,1,1.122.347,1.106,1.106,0,0,1,.267,1.119,1.09,1.09,0,0,1-.845.784,2.8,2.8,0,0,1-.681.04q-9.285,0-18.57,0c-.152,0-.306.009-.456,0a1.152,1.152,0,0,1-1.139-1.176,1.108,1.108,0,0,1,1.2-1.1c2.156-.015,4.313-.007,6.469-.007h3.273" transform="translate(1.363 3.53)" fill="#040506"/>
        <path id="Trazado_615315" data-name="Trazado 615315" d="M15.485,59.031h7.909a5.89,5.89,0,0,1,.683.016A1.171,1.171,0,0,1,25.251,60.2a1.187,1.187,0,0,1-1.2,1.133,5.644,5.644,0,0,1-.607.013q-8.023,0-16.046,0c-1.24,0-1.8-.348-1.82-1.129-.022-.8.572-1.185,1.842-1.185h8.062" transform="translate(0.815 8.623)" fill="#070708"/>
        <path id="Trazado_615316" data-name="Trazado 615316" d="M13.477,42.141c-2.154,0-4.307,0-6.462,0-.9,0-1.417-.41-1.435-1.112-.018-.719.534-1.171,1.465-1.172q6.423-.007,12.847,0c.949,0,1.47.425,1.462,1.163s-.527,1.119-1.492,1.12q-3.192.005-6.385,0Z" transform="translate(0.815 5.821)" fill="#040506"/>
        <path id="Trazado_615317" data-name="Trazado 615317" d="M10.985,22.482c-1.343,0-2.686.007-4.03,0-.879-.006-1.4-.46-1.378-1.168.023-.666.548-1.112,1.373-1.114q4.067-.014,8.135,0a1.2,1.2,0,0,1,1.343,1.145c0,.676-.517,1.13-1.339,1.136-1.368.011-2.737,0-4.105,0" transform="translate(0.815 2.949)" fill="#040506"/>
        <path id="Trazado_615318" data-name="Trazado 615318" d="M27.121,6.8a3.423,3.423,0,1,1-3.438-3.412A3.443,3.443,0,0,1,27.121,6.8" transform="translate(2.962 0.494)" fill="#040506"/>
        <path id="Trazado_615319" data-name="Trazado 615319" d="M19.151,6.814a3.423,3.423,0,1,1-3.421-3.43,3.448,3.448,0,0,1,3.421,3.43" transform="translate(1.798 0.494)" fill="#040506"/>
        <path id="Trazado_615320" data-name="Trazado 615320" d="M11.182,6.815a3.423,3.423,0,1,1-3.421-3.43,3.448,3.448,0,0,1,3.421,3.43" transform="translate(0.633 0.494)" fill="#040506"/>
        <path id="Trazado_615321" data-name="Trazado 615321" d="M23.369,5.413a1.148,1.148,0,0,1,1.174,1.048,1.137,1.137,0,0,1-2.273.076,1.144,1.144,0,0,1,1.1-1.123" transform="translate(3.253 0.79)" fill="#4bb8d1"/>
        <path id="Trazado_615322" data-name="Trazado 615322" d="M16.566,6.5a1.13,1.13,0,0,1-2.259,0,1.13,1.13,0,0,1,2.259,0" transform="translate(2.09 0.79)" fill="#ffcb42"/>
        <path id="Trazado_615323" data-name="Trazado 615323" d="M8.6,6.5A1.135,1.135,0,0,1,6.332,6.49,1.136,1.136,0,0,1,8.6,6.5" transform="translate(0.925 0.791)" fill="#e13522"/>
      </g>
    </g>
  </g>
</svg>
