<svg xmlns="http://www.w3.org/2000/svg" xmlns:xlink="http://www.w3.org/1999/xlink" width="127" height="131" viewBox="0 0 127 131">
  <defs>
    <filter id="Elipse_5223" x="0" y="0" width="127" height="131" filterUnits="userSpaceOnUse">
      <feOffset dy="3" input="SourceAlpha"/>
      <feGaussianBlur stdDeviation="3" result="blur"/>
      <feFlood flood-opacity="0.161"/>
      <feComposite operator="in" in2="blur"/>
      <feComposite in="SourceGraphic"/>
    </filter>
    <clipPath id="clip-path">
      <rect id="Rectángulo_324996" data-name="Rectángulo 324996" width="70.16" height="70.16" fill="none"/>
    </clipPath>
  </defs>
  <g id="Grupo_876479" data-name="Grupo 876479" transform="translate(-315.948 -5247)">
    <g transform="matrix(1, 0, 0, 1, 315.95, 5247)" filter="url(#Elipse_5223)">
      <ellipse id="Elipse_5223-2" data-name="Elipse 5223" cx="54.5" cy="56.5" rx="54.5" ry="56.5" transform="translate(9 6)" fill="#fff4d9"/>
    </g>
    <g id="Grupo_876478" data-name="Grupo 876478" transform="translate(350.948 5275)">
      <g id="Grupo_876477" data-name="Grupo 876477" transform="translate(0 0)" clip-path="url(#clip-path)">
        <path id="Trazado_614778" data-name="Trazado 614778" d="M3.763,0H51.678a4.615,4.615,0,0,1,3.889,4.925q0,9.268,0,18.538a1.526,1.526,0,0,0,.064.742c.273-.061.4-.3.571-.463,1.906-1.832,3.659-3.822,5.676-5.538a5.21,5.21,0,0,1,8,1.765,11.185,11.185,0,0,1,.28,1.388v1.78a4.838,4.838,0,0,1-1.745,3.212C64.443,30.31,60.49,34.292,56.5,38.235a2.845,2.845,0,0,0-.931,2.218c.028,8.3.018,16.6.015,24.906a4.779,4.779,0,0,1-2,4,4.008,4.008,0,0,1-2.491.8q-23.367-.006-46.734,0A4.328,4.328,0,0,1,0,65.762Q0,35.281,0,4.8C0,2.055,1.114.633,3.763,0" transform="translate(0 0)" fill="#040506"/>
        <path id="Trazado_614779" data-name="Trazado 614779" d="M25.858,65.447c-.207-1.006-.629-1.364-1.631-1.365-4.357,0-8.715-.011-13.071.012-.532,0-.665-.127-.665-.663q.022-26.176,0-52.354c0-.515.1-.683.654-.674,2.189.036,4.38.023,6.57.008.4,0,.578.04.608.528a4.186,4.186,0,0,0,4.009,3.846q7.6.048,15.193,0A4.2,4.2,0,0,0,41.569,10.9c.027-.381.122-.492.505-.489q3.422.026,6.845,0c.411,0,.471.141.471.505q-.014,12.011,0,24.021a.893.893,0,0,1-.355.761,8.068,8.068,0,0,0-2.278,3.331c-1.02,2.427-2.124,4.817-3.2,7.218a1.427,1.427,0,0,0,2,1.979c1.248-.58,2.514-1.12,3.831-1.7V53.44c0,3.353-.011,6.707.012,10.06,0,.484-.121.594-.6.592-4.381-.02-8.761-.013-13.14-.011-1,0-1.426.362-1.629,1.365a4.955,4.955,0,0,1-2.56.143c-.3-.1-.347-.392-.467-.626a1.166,1.166,0,0,0-2.107-.017c-.122.232-.171.523-.464.636a4.872,4.872,0,0,1-2.573-.137" transform="translate(-2.223 -2.204)" fill="#fff"/>
        <path id="Trazado_614780" data-name="Trazado 614780" d="M24.389,63.976h2.7c.2.11.234.325.326.5a1.179,1.179,0,0,0,2.127,0c.091-.178.128-.394.327-.5h2.7a1.451,1.451,0,0,0,1.7,1.371q7.324,0,14.649,0c1.258,0,1.743-.477,1.743-1.723q0-9.582-.01-19.165c0-.469.1-.731.578-.9.716-.258,1.4-.616,2.171-.967v.72q0,11.225,0,22.451c0,1.623-.7,2.327-2.321,2.327H5.893c-1.627,0-2.334-.7-2.334-2.314V5.744A1.973,1.973,0,0,1,5.8,3.472c3.468,0,6.936.009,10.4-.013.495,0,.693.091.645.627-.062.676.224,1.593-.121,1.98-.4.444-1.327.132-2.025.137-2.259.017-4.518,0-6.776.007A1.421,1.421,0,0,0,6.3,7.841q0,27.927,0,55.852c0,1.151.51,1.653,1.672,1.653q7.36,0,14.718,0a1.454,1.454,0,0,0,1.7-1.371" transform="translate(-0.754 -0.733)" fill="#689fd6"/>
        <path id="Trazado_614781" data-name="Trazado 614781" d="M32.812,3.471c2.758,0,5.515.011,8.273-.011.462,0,.62.086.609.585-.035,1.617-.008,3.236-.016,4.854a1.534,1.534,0,0,1-1.694,1.688q-7.214.008-14.427,0a1.535,1.535,0,0,1-1.688-1.7c-.007-1.618.021-3.236-.015-4.853-.012-.508.164-.581.616-.578,2.781.02,5.561.01,8.342.01" transform="translate(-5.054 -0.733)" fill="#aecfef"/>
        <path id="Trazado_614782" data-name="Trazado 614782" d="M60.476,31.185V8.029c0-1.386-.441-1.82-1.848-1.82-2.691,0-5.383-.017-8.074.014-.53.006-.664-.15-.624-.648a12.953,12.953,0,0,0,0-1.641c-.016-.344.07-.474.447-.472,3.649.014,7.3,0,10.947.017a1.905,1.905,0,0,1,1.884,2.068q.007,5.781,0,11.563c0,3.58-.006,7.161.008,10.741a1.189,1.189,0,0,1-.385.958c-.757.724-1.481,1.485-2.36,2.376" transform="translate(-10.577 -0.733)" fill="#689fd6"/>
        <path id="Trazado_614783" data-name="Trazado 614783" d="M61.549,41.979c4.033-4.03,8.034-8.024,12.025-12.028.264-.266.406-.235.648.014.841.868,1.694,1.724,2.566,2.559.252.242.206.364-.013.583q-5.861,5.842-11.7,11.7c-.234.235-.378.312-.651.032-.936-.963-1.9-1.9-2.87-2.862" transform="translate(-13.04 -6.306)" fill="#ffb146"/>
        <path id="Trazado_614784" data-name="Trazado 614784" d="M81.843,25.32A2.263,2.263,0,0,1,84.107,26.6a2.1,2.1,0,0,1-.295,2.361c-.838,1.045-.847,1.04-1.78.11-.662-.659-1.308-1.335-1.988-1.975-.293-.275-.257-.437.011-.7.575-.573,1.144-1.122,1.788-1.077" transform="translate(-16.915 -5.364)" fill="#e45165"/>
        <path id="Trazado_614785" data-name="Trazado 614785" d="M61.543,50.606c-1.245.557-2.34,1.052-3.44,1.534a.994.994,0,0,1-.671.166c.43-.973.848-1.927,1.27-2.88.475-1.071.471-1.064,1.311-.24.471.461.965.9,1.53,1.419" transform="translate(-12.168 -10.295)" fill="#8390a4"/>
        <path id="Trazado_614786" data-name="Trazado 614786" d="M15.37,26.524c0-1.346,0-2.692,0-4.038,0-1.136.493-1.64,1.607-1.642q4.141,0,8.282,0c1.114,0,1.608.507,1.609,1.641q0,4.107,0,8.213c0,1.133-.5,1.642-1.608,1.643q-4.141,0-8.282,0c-1.112,0-1.605-.508-1.608-1.642,0-1.392,0-2.784,0-4.176" transform="translate(-3.256 -4.416)" fill="#040506"/>
        <path id="Trazado_614787" data-name="Trazado 614787" d="M26.87,45.686c0,1.392,0,2.784,0,4.176a1.4,1.4,0,0,1-1.594,1.587q-4.176,0-8.351,0a1.383,1.383,0,0,1-1.551-1.56q-.007-4.21,0-8.42A1.366,1.366,0,0,1,16.9,39.953q4.21-.009,8.42,0a1.385,1.385,0,0,1,1.552,1.559c.006,1.392,0,2.784,0,4.176" transform="translate(-3.256 -8.464)" fill="#040506"/>
        <path id="Trazado_614788" data-name="Trazado 614788" d="M21.052,70.556c-1.346,0-2.692,0-4.038,0-1.135,0-1.641-.5-1.642-1.608q0-4.141,0-8.282c0-1.114.505-1.607,1.641-1.609q4.107,0,8.214,0c1.135,0,1.642.495,1.642,1.607q.006,4.141,0,8.282c0,1.113-.508,1.607-1.641,1.609-1.392,0-2.784,0-4.176,0" transform="translate(-3.256 -12.512)" fill="#040506"/>
        <path id="Trazado_614789" data-name="Trazado 614789" d="M38.228,68.236a1.459,1.459,0,0,1,.5-1.082c.535-.53,1.043-1.088,1.607-1.586.379-.334.321-.54-.02-.849-.557-.5-1.082-1.047-1.6-1.59a1.379,1.379,0,1,1,1.947-1.936c.576.552,1.144,1.114,1.691,1.694.242.258.4.281.649.009.544-.584,1.114-1.144,1.689-1.7a1.379,1.379,0,1,1,1.96,1.923c-.534.562-1.069,1.126-1.649,1.639-.363.321-.292.508.02.8.552.51,1.078,1.051,1.6,1.594a1.383,1.383,0,1,1-1.949,1.936c-.573-.555-1.141-1.117-1.689-1.7-.227-.241-.373-.243-.6,0-.6.625-1.211,1.241-1.84,1.836a1.312,1.312,0,0,1-1.52.262,1.3,1.3,0,0,1-.794-1.248" transform="translate(-8.098 -12.858)" fill="#040506"/>
        <path id="Trazado_614790" data-name="Trazado 614790" d="M40.707,31.407a1.584,1.584,0,0,1-1.053-.474c-.95-.953-1.91-1.895-2.851-2.855a1.382,1.382,0,1,1,1.94-1.944c.542.521,1.087,1.043,1.591,1.6.283.313.441.307.738,0q2.343-2.394,4.734-4.743a1.373,1.373,0,0,1,2.409.56,1.315,1.315,0,0,1-.4,1.307q-3.036,3.057-6.089,6.1a1.568,1.568,0,0,1-1.016.45" transform="translate(-7.686 -4.766)" fill="#040506"/>
        <path id="Trazado_614791" data-name="Trazado 614791" d="M37.665,44.71a1.728,1.728,0,0,1,1.08.525c.525.538,1.082,1.047,1.587,1.6.281.309.438.315.738.008q2.343-2.4,4.734-4.744a1.374,1.374,0,0,1,2.409.556,1.313,1.313,0,0,1-.4,1.308q-3.036,3.057-6.095,6.091a1.337,1.337,0,0,1-2.009.026c-1.018-.98-2.011-1.987-3-2.995a1.332,1.332,0,0,1-.3-1.572,1.4,1.4,0,0,1,1.254-.807" transform="translate(-7.686 -8.814)" fill="#040506"/>
        <path id="Trazado_614792" data-name="Trazado 614792" d="M36.19,79.877c-.21.922-.7,1.389-1.425,1.37-.707-.019-1.153-.469-1.356-1.37.185-.9.631-1.347,1.356-1.364.753-.018,1.233.441,1.425,1.364" transform="translate(-7.078 -16.634)" fill="#050607"/>
        <path id="Trazado_614793" data-name="Trazado 614793" d="M18.843,27.328c0-.865.013-1.731-.007-2.6-.007-.326.093-.427.422-.424q2.595.021,5.191,0c.325,0,.427.093.424.422q-.021,2.595,0,5.191c0,.325-.093.427-.422.424q-2.595-.021-5.191,0c-.326,0-.433-.092-.425-.422.02-.865.007-1.73.007-2.6" transform="translate(-3.991 -5.15)" fill="#c9cf46"/>
        <path id="Trazado_614794" data-name="Trazado 614794" d="M24.866,46.466c0,.843-.017,1.685.008,2.527.01.359-.1.464-.457.46q-2.561-.027-5.123,0c-.357,0-.463-.1-.459-.457q.027-2.562,0-5.123c0-.357.1-.463.457-.459q2.561.027,5.123,0c.357,0,.471.095.459.457-.025.865-.008,1.73-.008,2.6" transform="translate(-3.99 -9.198)" fill="#c9cf46"/>
        <path id="Trazado_614795" data-name="Trazado 614795" d="M18.843,65.472c0-.843.013-1.685-.007-2.527-.007-.328.1-.426.424-.423q2.595.021,5.19,0c.327,0,.426.1.423.424q-.021,2.594,0,5.189c0,.328-.1.426-.423.423q-2.595-.02-5.19,0c-.328,0-.431-.1-.424-.423.02-.887.007-1.776.007-2.663" transform="translate(-3.991 -13.246)" fill="#e45165"/>
      </g>
    </g>
  </g>
</svg>
