<svg xmlns="http://www.w3.org/2000/svg" xmlns:xlink="http://www.w3.org/1999/xlink" width="127" height="131" viewBox="0 0 127 131">
  <defs>
    <filter id="Elipse_5225" x="0" y="0" width="127" height="131" filterUnits="userSpaceOnUse">
      <feOffset dy="3" input="SourceAlpha"/>
      <feGaussianBlur stdDeviation="3" result="blur"/>
      <feFlood flood-opacity="0.161"/>
      <feComposite operator="in" in2="blur"/>
      <feComposite in="SourceGraphic"/>
    </filter>
    <clipPath id="clip-path">
      <rect id="Rectángulo_324998" data-name="Rectángulo 324998" width="71.891" height="73.227" transform="translate(0 0)" fill="none"/>
    </clipPath>
  </defs>
  <g id="Grupo_876485" data-name="Grupo 876485" transform="translate(-1156.948 -5247)">
    <g transform="matrix(1, 0, 0, 1, 1156.95, 5247)" filter="url(#Elipse_5225)">
      <ellipse id="Elipse_5225-2" data-name="Elipse 5225" cx="54.5" cy="56.5" rx="54.5" ry="56.5" transform="translate(9 6)" fill="#fff4d9"/>
    </g>
    <g id="Grupo_876484" data-name="Grupo 876484" transform="translate(1189.948 5275.79)">
      <g id="Grupo_876483" data-name="Grupo 876483" clip-path="url(#clip-path)">
        <path id="Trazado_614831" data-name="Trazado 614831" d="M14.382,72.5a1.213,1.213,0,0,1-1.261.725c-2.064-.024-4.142.135-6.115-.7A10.665,10.665,0,0,1,.034,62.956c-.025-.308-.025-.619-.025-.928Q.008,40.405,0,18.783a10.8,10.8,0,0,1,3.883-8.669,10.331,10.331,0,0,1,6.8-2.533c.167,0,.334-.011.5,0A3.787,3.787,0,0,0,14,6.794a6.585,6.585,0,0,1,4.736-1.18,2.153,2.153,0,0,0,2.3-1.2A9.191,9.191,0,0,1,27.714.13c.094-.014.187-.02.223-.13h2.717c.605.162,1.222.291,1.814.492a9.787,9.787,0,0,1,5.56,4.633.794.794,0,0,0,.818.482,11.706,11.706,0,0,1,4.232.4,6.357,6.357,0,0,1,2.1,1.171,1.5,1.5,0,0,0,1.154.4,11.957,11.957,0,0,1,6.04,1.027,11.014,11.014,0,0,1,5.958,7.378l1.458-1.556c.374-.4.768-.783,1.121-1.2a1.229,1.229,0,0,1,1.753-.342,1.119,1.119,0,0,1,.045,1.818c-.8.839-1.52,1.751-2.367,2.548-.573.538-.55.579.078,1.066.263.2.541.384.789.6.618.486,1.261.942,1.849,1.462.387.341.614.3.893-.127,1.28-1.98,2.58-3.947,3.87-5.92.456-.7.933-1.382,1.365-2.1a1.5,1.5,0,0,0-.706-2.389,1.446,1.446,0,0,0-1.561.4c-.431.4-.815.862-1.273,1.238a1,1,0,0,1-1.621-.175,1.157,1.157,0,0,1,.169-1.606c.383-.391.736-.812,1.129-1.193a3.858,3.858,0,0,1,5.077-.31,3.8,3.8,0,0,1,.9,5.052c-.962,1.553-1.987,3.067-3.021,4.654a5.464,5.464,0,0,1,1.77,1.155,4.587,4.587,0,0,1,.2,6.168c-2.225,2.851-4.494,5.669-6.682,8.549-1.192,1.568-2.566,2.667-4.65,2.523-.245-.017-.352.074-.338.321.01.166,0,.333,0,.5,0,8.313-.049,16.627.018,24.94a10.956,10.956,0,0,1-8,10.779,10.371,10.371,0,0,1-2.671.372q-15.008-.007-30.015,0c-.953,0-1.176-.185-1.411-1.142a1.04,1.04,0,0,1,.9-1.153,5.174,5.174,0,0,1,1.07-.048H47.5a8.463,8.463,0,0,0,8.619-7.225,6.581,6.581,0,0,0,.08-1.138q0-13.083,0-26.164a1.623,1.623,0,0,0-.081-.766c-.336.041-.426.318-.578.511Q49.9,43.257,44.283,50.431a5.94,5.94,0,0,1-3.81,2.316,4.528,4.528,0,0,1-2.253-.2,1,1,0,0,0-1.286.384c-.677.84-1.459.892-2.062.22a1.119,1.119,0,0,1-.2-1.38c.1-.181.283-.328.248-.578a1.282,1.282,0,0,0-.76-.08c-2.025-.008-4.051,0-6.076,0a1.933,1.933,0,0,1-1.23-.284,1.22,1.22,0,0,1-.565-1.294,1.169,1.169,0,0,1,1.054-.928,5.2,5.2,0,0,1,.856-.035c1.811,0,3.622-.012,5.433.007.523,0,.752-.168.687-.706a6.187,6.187,0,0,1,1.656-4.705q8.517-10.806,17-21.642a1.61,1.61,0,0,0,.344-1.388,3.314,3.314,0,0,1,1.747-3.454c.872-.459.928-.531.54-1.423A8.474,8.474,0,0,0,48.313,9.94c-.642-.073-.734.054-.549.657a7.443,7.443,0,0,1-7.3,9.619q-11.187.016-22.374,0a7.494,7.494,0,0,1-7.621-7.261,7.482,7.482,0,0,1,.348-2.324c.061-.228.282-.495-.076-.685a8.45,8.45,0,0,0-8.324,8.073q-.028,22.372,0,44.744a8.426,8.426,0,0,0,6.744,7.921,6.14,6.14,0,0,0,1.772.181c.735-.007,1.472-.024,2.206.008,1.065.045,1.485.609,1.247,1.632" fill="#040506"/>
        <path id="Trazado_614832" data-name="Trazado 614832" d="M14.382,72.5c.033-1.054-.313-1.42-1.342-1.428-.708-.006-1.416-.016-2.124-.024a3.729,3.729,0,0,1-1.837-1.041,9.8,9.8,0,0,1-3.533-7.718q.036-22.037.012-44.073a9.712,9.712,0,0,1,3.957-7.8,3.06,3.06,0,0,1,1.4-.668c.7-.137.31.305.239.5a7.185,7.185,0,0,0,3.118,8.769A7.324,7.324,0,0,0,18.022,20c7.507.007,15.014.019,22.521,0a7.191,7.191,0,0,0,7.363-7.075,6.908,6.908,0,0,0-.688-3.185,8.75,8.75,0,0,1,8.823,6.124c.123.383.165.6-.36.76a3.088,3.088,0,0,0-2.124,3.76,1.059,1.059,0,0,1-.218,1.019Q44.621,32.486,35.907,43.575A5.692,5.692,0,0,0,34.539,48.2c.081.485-.048.537-.472.534-2.073-.019-4.146-.011-6.22-.007a1.647,1.647,0,0,0-.839.113,1,1,0,0,0-.558,1.128,1.047,1.047,0,0,0,1.113.906c1.12.021,2.24.007,3.361.007h4.6c-.235.324-.434.574-.608.841a1.031,1.031,0,0,0,.188,1.462.947.947,0,0,0,1.449-.137c.546-.907,1.132-.848,2.072-.617a5.025,5.025,0,0,0,5.415-2.016q5.808-7.378,11.592-14.776a2.618,2.618,0,0,1,.224-.278c.11-.107.162-.343.37-.263.168.066.195.251.181.428-.007.094,0,.19,0,.286q0,13.261,0,26.524a8.621,8.621,0,0,1-6.76,8.515,9.629,9.629,0,0,1-2.267.225q-14.656-.009-29.313-.016c-.8,0-1.339.215-1.56,1.015a3.677,3.677,0,0,0-2.123.425" fill="#f1f6fb"/>
        <path id="Trazado_614833" data-name="Trazado 614833" d="M64.023,11.318c.777.519,1.146.483,1.783-.177.346-.358.675-.732,1.035-1.073A1.47,1.47,0,0,1,68.575,9.7a.594.594,0,0,1-.173.588c-2.394,2.8-4.636,5.724-6.992,8.555a.49.49,0,0,1-.3.184c-1.633-1.111-1.631-1.109-.312-2.5.554-.584,1.092-1.184,1.644-1.77.675-.716.714-1.023.216-1.87a7.65,7.65,0,0,0,1.361-1.572" fill="#6da2d8"/>
        <path id="Trazado_614834" data-name="Trazado 614834" d="M30.51,2.3a7.248,7.248,0,0,1,5.807,4.282A1.823,1.823,0,0,0,38.286,7.8a19.211,19.211,0,0,1,3.208.058,5.007,5.007,0,0,1,.124,9.88,2.986,2.986,0,0,1-.355.012,1.681,1.681,0,0,1-.705.051c-6.641,0-13.282,0-19.923.014a1.928,1.928,0,0,1-1.507-.641,6.434,6.434,0,0,1-.291-8.431,2.144,2.144,0,0,1,2.022-.949.85.85,0,0,0,.492-.047,1.745,1.745,0,0,0,.807-.9,2.308,2.308,0,0,1,1.559-.335,8.989,8.989,0,0,1,1.905.077c.455.315.068.591-.078.828a4.541,4.541,0,1,0,8.183,3.474,4.507,4.507,0,0,0-5.458-5.307,1.422,1.422,0,0,1-.838.077.206.206,0,0,1-.071-.306A6.6,6.6,0,0,1,30.51,2.3" fill="#ffd767"/>
        <path id="Trazado_614835" data-name="Trazado 614835" d="M10.917,9.748a9.969,9.969,0,0,0-4.93,6.417,7.442,7.442,0,0,0-.224,1.758q.013,22.3.011,44.593c0,3.737,1.819,6.434,4.91,8.373.08.05.155.107.231.161A8.623,8.623,0,0,1,2.2,62.837c-.05-7.312-.018-14.625-.02-21.938q0-11.22,0-22.439A8.6,8.6,0,0,1,8.94,9.951a5.781,5.781,0,0,1,1.977-.2" fill="#def1fc"/>
        <path id="Trazado_614836" data-name="Trazado 614836" d="M56.966,24.025c.9.7,1.8,1.407,2.715,2.083.361.265.349.448.08.79Q52.978,35.509,46.219,44.14c-.588.749-1.192,1.486-1.757,2.252-.228.309-.367.386-.71.116-1.245-.982-1.252-.962-.272-2.21q5.272-6.711,10.537-13.429c.718-.916.613-1.495-.34-2.012-.38-.023-.64-.167-.352-.56,1.028-1.4,2.125-2.751,3.2-4.115a.376.376,0,0,1,.439-.157" fill="#da6970"/>
        <path id="Trazado_614837" data-name="Trazado 614837" d="M56.966,24.025a9.314,9.314,0,0,0-1.509,1.78c-.685.782-1.282,1.64-1.935,2.451-.243.3-.193.477.155.6a1.444,1.444,0,0,0-1.388.676Q46.781,36.6,41.25,43.645c-.315.4-.518.53-.981.13-1.036-.9-1.068-.865-.244-1.916Q47.4,32.448,54.77,23.031c.318-.408.523-.413.876-.089.419.384.878.724,1.32,1.083" fill="#b94f5a"/>
        <path id="Trazado_614838" data-name="Trazado 614838" d="M21.351,7.745c-.083.04-.172.123-.25.114-1.376-.176-2.012.787-2.6,1.743a6.149,6.149,0,0,0,1.045,7.7,1.536,1.536,0,0,0,1.14.438q9.9-.015,19.793-.007c.261,0,.523.013.785.019a1.966,1.966,0,0,1-.912.1q-11.069,0-22.136-.006a5.021,5.021,0,0,1-5.3-5.778,4.9,4.9,0,0,1,4.232-4.195c1.4-.114,2.8-.086,4.207-.123" fill="#ffc44e"/>
        <path id="Trazado_614839" data-name="Trazado 614839" d="M69.161,22.367a2.3,2.3,0,0,1-.585,1.508Q64.9,28.561,61.22,33.246A2.407,2.407,0,0,1,57.9,33.7c-.327-.23-.447-.418-.149-.789q2.053-2.561,4.056-5.159a.656.656,0,0,1,.662-.283,3.161,3.161,0,0,0,2.947-4.608.6.6,0,0,1,.043-.7c.449-.641.871-1.3,1.287-1.964a.526.526,0,0,1,.712-.249,2.454,2.454,0,0,1,1.7,2.424" fill="#6da2d8"/>
        <path id="Trazado_614840" data-name="Trazado 614840" d="M61.114,19.031q1.851-2.321,3.7-4.642,1.875-2.344,3.757-4.686a1.586,1.586,0,0,1,.864,2.45c-1.907,2.97-3.855,5.912-5.814,8.908l-2.51-2.03" fill="#89b8e4"/>
        <path id="Trazado_614841" data-name="Trazado 614841" d="M25.82,6.73a23.573,23.573,0,0,0-3.662.112C23.383,3.657,27.349,1.5,30.51,2.3A9.11,9.11,0,0,0,27.381,5.64,3.148,3.148,0,0,1,25.82,6.73" fill="#ffc44e"/>
        <path id="Trazado_614842" data-name="Trazado 614842" d="M58.751,20c1.478,1.146,2.967,2.28,4.429,3.446a1.037,1.037,0,0,1,.214,1.512,1.081,1.081,0,0,1-1.531.13c-1.456-1.137-2.893-2.3-4.337-3.451A1.349,1.349,0,0,1,58.751,20" fill="#89b8e4"/>
        <path id="Trazado_614843" data-name="Trazado 614843" d="M39.639,46.055c.955.735,1.913,1.468,2.864,2.209.131.1.326.174.159.436a3.187,3.187,0,0,1-4.571,1.209c-.3-.419-.137-.859-.064-1.3a4.639,4.639,0,0,1,1-2.16c.159-.2.3-.439.616-.4" fill="#ffd767"/>
        <path id="Trazado_614844" data-name="Trazado 614844" d="M39.639,46.055a4.915,4.915,0,0,0-1.548,3.854c-1.872-1.151-1.968-3.418-.2-5.278q.87.709,1.745,1.424" fill="#ffc34e"/>
        <path id="Trazado_614845" data-name="Trazado 614845" d="M58.751,20a2,2,0,0,0-1.225,1.637c-.509-.383-1.035-.746-1.522-1.155a1.03,1.03,0,0,1-.185-1.459.988.988,0,0,1,1.443-.219c.519.367.994.8,1.489,1.2" fill="#6ca1d8"/>
        <path id="Trazado_614846" data-name="Trazado 614846" d="M15.925,39.9c-1.1,0-2.191.014-3.285,0a4.553,4.553,0,0,1-4.431-3.969A44.9,44.9,0,0,1,8.2,28.3a4.442,4.442,0,0,1,4.235-4c2.331-.073,4.667-.078,7,0a4.575,4.575,0,0,1,4.338,4.465q.069,3.319,0,6.642A4.666,4.666,0,0,1,19.139,39.9c-1.071.011-2.143,0-3.214,0" fill="#040506"/>
        <path id="Trazado_614847" data-name="Trazado 614847" d="M15.941,60.319A34.242,34.242,0,0,1,12.3,60.3a4.5,4.5,0,0,1-4.14-4.354,63.151,63.151,0,0,1,0-6.852,4.427,4.427,0,0,1,4.27-4.366,43.962,43.962,0,0,1,7.275.029,4.549,4.549,0,0,1,4.069,4.421q.071,3.32,0,6.642a4.691,4.691,0,0,1-4.546,4.52c-1.095.029-2.191,0-3.286,0v-.021" fill="#040506"/>
        <path id="Trazado_614848" data-name="Trazado 614848" d="M35.947,28.305q3.966,0,7.931,0c.927,0,1.377.351,1.381,1.059s-.47,1.088-1.366,1.088q-8.073,0-16.147,0c-1.018,0-1.6-.759-1.209-1.556a1.157,1.157,0,0,1,1.193-.6c2.739.01,5.478.005,8.217.005" fill="#050506"/>
        <path id="Trazado_614849" data-name="Trazado 614849" d="M31.706,33.733c1.307,0,2.614-.005,3.921,0,.815,0,1.32.428,1.308,1.076a1.126,1.126,0,0,1-1.265,1.07q-3.993.013-7.986,0a1.135,1.135,0,0,1-1.268-1.065c-.014-.664.471-1.077,1.3-1.081,1.331-.007,2.662,0,3.993,0" fill="#050606"/>
        <path id="Trazado_614850" data-name="Trazado 614850" d="M31.691,54.148c1.31,0,2.621-.009,3.931,0,.812.007,1.326.448,1.311,1.085S36.406,56.3,35.587,56.3q-3.932.012-7.863,0c-.805,0-1.318-.457-1.306-1.1s.481-1.04,1.27-1.048c1.334-.014,2.669,0,4,0" fill="#060607"/>
        <path id="Trazado_614851" data-name="Trazado 614851" d="M25.82,6.73a8.567,8.567,0,0,1,1.561-1.09,4.738,4.738,0,0,1,4.4,8.366,4.723,4.723,0,0,1-6.373-6.7c.135-.194.275-.385.413-.577" fill="#040506"/>
        <path id="Trazado_614852" data-name="Trazado 614852" d="M15.965,26.428c1.048,0,2.1-.022,3.143,0a2.5,2.5,0,0,1,2.526,2.543q.039,3.106,0,6.215a2.523,2.523,0,0,1-2.588,2.563q-3.106.017-6.215,0a2.4,2.4,0,0,1-2.5-2.237,58.212,58.212,0,0,1,0-6.851,2.348,2.348,0,0,1,2.426-2.23c1.07-.029,2.142-.006,3.214-.007" fill="#aecd8b"/>
        <path id="Trazado_614853" data-name="Trazado 614853" d="M15.934,58.2c-1,0-2,.01-3,0A2.49,2.49,0,0,1,10.3,55.756c-.071-2.164-.065-4.334,0-6.5a2.324,2.324,0,0,1,2.347-2.4c2.21-.081,4.429-.082,6.639.006a2.444,2.444,0,0,1,2.348,2.566q.03,3.072,0,6.144a2.566,2.566,0,0,1-2.629,2.615c-1.024.017-2.048,0-3.072,0" fill="#aecd8a"/>
        <path id="Trazado_614854" data-name="Trazado 614854" d="M31.823,9.97a2.528,2.528,0,1,1-5.055.007,2.528,2.528,0,1,1,5.055-.007" fill="#254e6c"/>
        <path id="Trazado_614855" data-name="Trazado 614855" d="M15.132,33.4c.984-1.561,1.92-3.068,2.882-4.559a1.065,1.065,0,0,1,1.9-.054,1.025,1.025,0,0,1-.06,1.141c-1.223,1.948-2.434,3.9-3.674,5.841a1.038,1.038,0,0,1-1.79.114c-.828-.948-1.627-1.923-2.416-2.9a1.054,1.054,0,0,1,.081-1.583,1.084,1.084,0,0,1,1.571.215c.5.57.973,1.157,1.5,1.789" fill="#040506"/>
        <path id="Trazado_614856" data-name="Trazado 614856" d="M15.129,53.833c1.006-1.594,1.957-3.1,2.9-4.6a1.075,1.075,0,0,1,1.99.214,1.08,1.08,0,0,1-.186.943c-1.214,1.928-2.414,3.865-3.644,5.783a1.022,1.022,0,0,1-1.779.162c-.848-.964-1.661-1.959-2.458-2.966A1.032,1.032,0,0,1,12.1,51.8a1.122,1.122,0,0,1,1.57.278c.475.561.939,1.131,1.459,1.759" fill="#040506"/>
      </g>
    </g>
  </g>
</svg>
