<svg xmlns="http://www.w3.org/2000/svg" xmlns:xlink="http://www.w3.org/1999/xlink" width="128.626" height="115.48" viewBox="0 0 128.626 115.48">
  <defs>
    <clipPath id="clip-path">
      <rect id="Rectángulo_324999" data-name="Rectángulo 324999" width="128.626" height="115.48" fill="none"/>
    </clipPath>
  </defs>
  <g id="Grupo_876486" data-name="Grupo 876486" clip-path="url(#clip-path)">
    <path id="Trazado_614857" data-name="Trazado 614857" d="M64.316,0q26.912,0,53.823,0c6.318,0,10.484,4.179,10.484,10.529q0,39.609,0,79.219c0,6.308-4.215,10.541-10.51,10.545q-18.13.011-36.261-.021c-1.006,0-1.369.17-1.33,1.274.093,2.649.064,5.3.021,7.958-.054,3.284-1.658,5.423-4.415,5.891a6.26,6.26,0,0,1-4.864-1.306q-3.092-2.287-6.057-4.747a1.19,1.19,0,0,0-1.861.033c-1.7,1.442-3.468,2.806-5.232,4.17-1.747,1.351-3.644,2.3-5.945,1.776-2.511-.568-4.06-2.611-4.109-5.486-.048-2.822-.052-5.644.01-8.465.019-.9-.242-1.1-1.115-1.094q-18.318.045-36.639.016A9.915,9.915,0,0,1,.145,92.1a9.647,9.647,0,0,1-.139-1.882Q0,50.164,0,10.113A9.794,9.794,0,0,1,10.113,0q27.1-.011,54.2,0" transform="translate(0 0)" fill="#111325"/>
    <path id="Trazado_614858" data-name="Trazado 614858" d="M60.278,7.6q17.184,0,34.367,0c3.339,0,4.529,1.179,4.605,4.549.117,5.175,2.62,7.8,7.791,8.157.462.033.925.055,1.387.1a3.633,3.633,0,0,1,3.671,3.71c.021.251.016.505.016.758q0,22.175,0,44.348a7.683,7.683,0,0,1-.075,1.259,3.563,3.563,0,0,1-3.662,3.306,21.748,21.748,0,0,0-2.762.209c-4.03.813-6.287,3.211-6.3,7.3C99.295,85.3,98,86.7,93.7,86.587c-5.345-.139-10.7-.064-16.045-.007-1.079.01-1.3-.33-1.308-1.348a13.854,13.854,0,0,1,.955-5.118c2.625-6.915,1.614-13.4-3.285-18.944-4.967-5.62-11.372-7.593-18.623-5.622-7.173,1.951-11.62,6.8-13.272,14.087A17.47,17.47,0,0,0,43.546,81.3c.762,1.592.28,3.229.4,4.84.039.522-.433.408-.74.408-6.108,0-12.214.036-18.32-.033-2.38-.027-3.671-1.465-3.7-3.876a14.355,14.355,0,0,0-.368-3.253c-.84-3.4-3.371-5.338-7.2-5.556-4.643-.266-5.326-.99-5.326-5.647q0-21.542,0-43.085a6.351,6.351,0,0,1,.287-2.366,3.262,3.262,0,0,1,2.782-2.254c1.087-.124,2.193-.114,3.271-.287,4.106-.662,6.256-3.178,6.526-7.56.018-.294.013-.59.019-.885.043-2.8,1.395-4.136,4.233-4.143,4.38-.015,8.761,0,13.14,0H60.278" transform="translate(4.1 3.758)" fill="#ced5ee"/>
    <path id="Trazado_614859" data-name="Trazado 614859" d="M63.718,1.353q26.915,0,53.829,0c5.075,0,8.386,3.29,8.387,8.345q0,39.739,0,79.479c0,5.037-3.338,8.427-8.351,8.433-12.173.015-24.345-.009-36.518.028-1.078,0-1.389-.329-1.318-1.357a28.487,28.487,0,0,0,0-3.537c-.052-.9.281-1.143,1.157-1.139,5.643.034,11.287.024,16.931.01a11.3,11.3,0,0,0,2.51-.164c2.738-.635,4.179-2.592,4.338-5.734a17.262,17.262,0,0,1,.111-2.142,5.173,5.173,0,0,1,5.155-4.626c.377-.03.756-.03,1.136-.042,4.427-.146,6.465-2.256,6.471-6.737q.013-9.1,0-18.2,0-12.888,0-25.777a8.178,8.178,0,0,0-.694-3.68,5.019,5.019,0,0,0-4.477-2.984c-.966-.061-1.933-.121-2.892-.238a5.151,5.151,0,0,1-4.767-5.13,22.94,22.94,0,0,0-.2-2.765,5.473,5.473,0,0,0-5.386-4.726c-.169-.007-.338-.007-.505-.007q-35,0-70,.006c-3.7,0-5.951,2.245-6.049,5.957a11.843,11.843,0,0,1-.2,2.38A4.958,4.958,0,0,1,17.9,21.284a12.275,12.275,0,0,1-2.387.212c-3.12-.149-5.72,2-5.8,6.039C9.673,29.262,9.7,30.99,9.7,32.716q0,19.713-.007,39.424a9.514,9.514,0,0,0,.39,2.985c.764,2.335,2.575,3.586,5.407,3.762a21.5,21.5,0,0,1,2.268.118c3.146.537,4.7,2.39,4.816,5.658a12.925,12.925,0,0,0,.209,2.632,5.22,5.22,0,0,0,5.2,4.282q9.034.087,18.069.016c1.142-.009,1.474.315,1.375,1.413a18.537,18.537,0,0,0,0,3.155c.093,1.111-.2,1.489-1.42,1.484C34,97.6,22,97.614,9.994,97.618a12.573,12.573,0,0,1-2.256-.206,7.708,7.708,0,0,1-6.377-7.528q-.016-40.435,0-80.871a7.761,7.761,0,0,1,7.9-7.658q27.228-.011,54.46,0" transform="translate(0.67 0.669)" fill="#2196f3"/>
    <path id="Trazado_614860" data-name="Trazado 614860" d="M64.876,57.009a16.437,16.437,0,1,1-16.42-16.433,16.365,16.365,0,0,1,16.42,16.433" transform="translate(15.833 20.075)" fill="#ffb448"/>
    <path id="Trazado_614861" data-name="Trazado 614861" d="M61.769,64.783c.016,4.327.078,8.656.036,12.983-.03,3.176-2.42,4.54-5.278,3.046A33.431,33.431,0,0,1,52.1,77.5c-1.139-.861-2.272-1.734-3.36-2.656a1.435,1.435,0,0,0-2.114.027c-2.123,1.719-4.281,3.39-6.424,5.082A6.349,6.349,0,0,1,37.4,81.315a2.984,2.984,0,0,1-3.738-2.837c-.22-3.109-.04-6.223-.091-9.335-.021-1.178.037-2.36-.018-3.537-.042-.9.341-1.037,1.054-.722,1.076.477,2.069,1.12,3.164,1.571A24.763,24.763,0,0,0,59.6,65.494c.67-.347,1.26-1.058,2.17-.711" transform="translate(16.601 32.006)" fill="#e23e47"/>
    <path id="Trazado_614862" data-name="Trazado 614862" d="M61.789,67.3a41.64,41.64,0,0,1-6.486,2.96,25.475,25.475,0,0,1-17.55-.9,31.472,31.472,0,0,0-4.067-1.939V80.992a1.88,1.88,0,0,1-.167-1.1q0-9.722.013-19.444c0-.194.022-.387.048-.837,3.918,4.169,8.474,6.435,14.036,6.457,5.589.022,10.185-2.172,14.173-6.435Z" transform="translate(16.58 29.491)" fill="#cf224a"/>
    <path id="Trazado_614863" data-name="Trazado 614863" d="M57.426,33.47H29.386c-.253,0-.505,0-.758,0-.722.015-1.288-.221-1.263-1.04s.619-1.01,1.327-.982c.169.006.336,0,.505,0H85.783c.167,0,.336.007.505,0,.713-.036,1.3.164,1.326.981s-.531,1.067-1.265,1.043c-.294-.01-.589,0-.883,0H57.426" transform="translate(13.539 15.557)" fill="#111325"/>
    <path id="Trazado_614864" data-name="Trazado 614864" d="M47.109,27.046H20.084a5.162,5.162,0,0,1-1.13-.051.909.909,0,0,1-.741-.9.925.925,0,0,1,.755-1.018,5.086,5.086,0,0,1,1.132-.048q27.087,0,54.177,0a6.109,6.109,0,0,1,1.007.024.993.993,0,0,1-.015,1.973,5.8,5.8,0,0,1-1.007.024H47.109" transform="translate(9.01 12.377)" fill="#111325"/>
    <path id="Trazado_614865" data-name="Trazado 614865" d="M49.175,18.938H64.454a5.666,5.666,0,0,1,1.009.027.992.992,0,0,1,.043,1.954,4.093,4.093,0,0,1-1.006.039q-15.343,0-30.686,0a7.909,7.909,0,0,1-.883-.013.964.964,0,0,1-.961-.975.95.95,0,0,1,.916-1.013,7.313,7.313,0,0,1,1.009-.019H49.175" transform="translate(15.817 9.366)" fill="#111325"/>
    <path id="Trazado_614866" data-name="Trazado 614866" d="M65.961,27.044c-1.263,0-2.526-.009-3.788,0-.735.007-1.294-.272-1.274-1.051.019-.691.534-.981,1.223-.978q3.852.013,7.7,0c.686,0,1.188.257,1.2.987.009.807-.546,1.048-1.274,1.04-1.262-.012-2.525,0-3.788,0" transform="translate(30.13 12.378)" fill="#111325"/>
    <path id="Trazado_614867" data-name="Trazado 614867" d="M22.716,31.448q1.574,0,3.148,0c.707,0,1.139.359,1.114,1.063a.961.961,0,0,1-1.1.957c-2.182,0-4.365,0-6.547,0-.7,0-1.142-.342-1.115-1.061.024-.652.463-.952,1.1-.955,1.133-.006,2.266,0,3.4,0" transform="translate(9.014 15.558)" fill="#111325"/>
    <path id="Trazado_614868" data-name="Trazado 614868" d="M56.793,13.424c-.395-.115-1.054.242-.979-.575.067-.749.68-.433,1.07-.457s1.009-.215.949.565c-.06.8-.711.287-1.04.468" transform="translate(27.611 6.108)" fill="#191c33"/>
    <path id="Trazado_614869" data-name="Trazado 614869" d="M60.2,13.444c-.41-.148-1,.218-1.009-.5-.012-.87.677-.523,1.1-.559s1-.173.925.592c-.084.81-.761.185-1.013.465" transform="translate(29.285 6.109)" fill="#191c33"/>
    <path id="Trazado_614870" data-name="Trazado 614870" d="M63.526,12.35c.393.139,1.021-.271,1.069.511.051.824-.6.531-.967.519s-1,.332-1.054-.438c-.054-.791.589-.478.952-.592" transform="translate(30.957 6.11)" fill="#191c33"/>
    <path id="Trazado_614871" data-name="Trazado 614871" d="M66.994,13.425c-.341-.164-.991.3-1.037-.481s.575-.571.975-.55c.383.019,1-.3,1.046.469.055.834-.6.435-.984.562" transform="translate(32.631 6.107)" fill="#191c33"/>
    <path id="Trazado_614872" data-name="Trazado 614872" d="M50.02,12.349c.454.1,1.081-.221,1.049.574s-.667.445-1.033.456-1.018.312-.991-.5c.027-.794.685-.354.975-.528" transform="translate(24.265 6.11)" fill="#191c33"/>
    <path id="Trazado_614873" data-name="Trazado 614873" d="M46.658,13.424c-.368-.136-1.033.271-.991-.549.037-.764.655-.472,1.043-.483s1.01-.254.978.537c-.033.809-.683.332-1.03.495" transform="translate(22.593 6.108)" fill="#191c33"/>
    <path id="Trazado_614874" data-name="Trazado 614874" d="M53.5,13.449c-.417-.175-1.076.266-1.075-.544,0-.776.625-.514,1.015-.511s1-.285,1.009.507c.012.854-.685.311-.949.549" transform="translate(25.939 6.107)" fill="#191c33"/>
    <path id="Trazado_614875" data-name="Trazado 614875" d="M43.359,13.449c-.417-.175-1.076.266-1.075-.544,0-.776.625-.514,1.015-.511s1-.285,1.009.507c.012.854-.685.311-.949.549" transform="translate(20.92 6.107)" fill="#191c33"/>
    <path id="Trazado_614876" data-name="Trazado 614876" d="M39.857,12.347c.417.135,1.046-.254,1.069.537.022.819-.625.5-.99.5s-1.006.335-1.034-.459.629-.426.955-.574" transform="translate(19.247 6.109)" fill="#191c33"/>
    <path id="Trazado_614877" data-name="Trazado 614877" d="M36.514,13.424c-.368-.136-1.033.271-.991-.549.037-.764.655-.472,1.043-.483s1.01-.254.978.537c-.033.809-.683.332-1.03.495" transform="translate(17.574 6.108)" fill="#191c33"/>
    <path id="Trazado_614878" data-name="Trazado 614878" d="M33.181,13.442c-.448-.138-1.111.23-1.039-.59.064-.75.677-.438,1.067-.46s1-.218.955.562c-.052.837-.744.212-.984.489" transform="translate(15.9 6.108)" fill="#191c33"/>
    <path id="Trazado_614879" data-name="Trazado 614879" d="M19.683,54.8c.4.06.954-.154.924.532-.039.877-.737.43-1.138.484-.335.045-.912.247-.885-.477.033-.885.737-.381,1.1-.54" transform="translate(9.194 27.11)" fill="#191c33"/>
    <path id="Trazado_614880" data-name="Trazado 614880" d="M23.059,55.892c-.411-.194-1.07.281-1.088-.519-.021-.874.677-.514,1.087-.538.387-.022.994-.253.97.534-.025.837-.712.257-.969.523" transform="translate(10.87 27.103)" fill="#181a30"/>
    <path id="Trazado_614881" data-name="Trazado 614881" d="M26.33,54.785c.417.135,1.046-.254,1.069.537.022.819-.625.5-.99.5s-1.006.335-1.034-.459.629-.426.955-.574" transform="translate(12.554 27.105)" fill="#191c33"/>
    <path id="Trazado_614882" data-name="Trazado 614882" d="M29.848,55.889c-.393-.19-1.043.278-1.09-.507s.575-.571.975-.55c.383.019.991-.3,1.048.471.063.855-.631.387-.933.586" transform="translate(14.227 27.103)" fill="#191c33"/>
    <path id="Trazado_614883" data-name="Trazado 614883" d="M56.82,55.862c-.359-.146-1.019.285-1.01-.526.009-.773.631-.505,1.019-.505s1.007-.281,1,.513c0,.819-.658.368-1.012.519" transform="translate(27.612 27.104)" fill="#191c33"/>
    <path id="Trazado_614884" data-name="Trazado 614884" d="M60.165,54.788c.454.1,1.081-.221,1.049.575s-.668.444-1.033.454-1.018.312-.991-.5c.027-.794.685-.354.975-.528" transform="translate(29.284 27.107)" fill="#191c33"/>
    <path id="Trazado_614885" data-name="Trazado 614885" d="M63.583,55.862c-.359-.146-1.019.287-1.01-.526.009-.773.632-.505,1.021-.505s1.006-.281,1,.514c0,.818-.658.365-1.012.517" transform="translate(30.958 27.104)" fill="#191c33"/>
    <path id="Trazado_614886" data-name="Trazado 614886" d="M66.985,54.8c.4.09,1.024-.235.991.562s-.667.445-1.033.454-1.021.311-.988-.5c.03-.771.659-.4,1.03-.514" transform="translate(32.631 27.111)" fill="#191c33"/>
    <path id="Trazado_614887" data-name="Trazado 614887" d="M29.73,12.349c.454.1,1.081-.221,1.049.574s-.667.445-1.033.456-1.016.311-.99-.5c.025-.794.683-.354.973-.528" transform="translate(14.227 6.11)" fill="#191c33"/>
    <path id="Trazado_614888" data-name="Trazado 614888" d="M26.467,13.451c-.393-.19-1.043.278-1.09-.507s.575-.571.975-.55c.383.019.993-.3,1.048.471.063.855-.631.387-.933.586" transform="translate(12.555 6.107)" fill="#191c33"/>
    <path id="Trazado_614889" data-name="Trazado 614889" d="M22.977,13.428c-.366-.151-1.03.288-1.006-.526.025-.864.716-.46,1.123-.5s1-.2.931.57c-.07.783-.712.277-1.048.46" transform="translate(10.87 6.106)" fill="#181a30"/>
    <path id="Trazado_614890" data-name="Trazado 614890" d="M19.572,13.443c-.426-.124-1,.208-.988-.52.019-.882.706-.487,1.115-.528.365-.036.913-.188.91.492-.006.939-.785.268-1.037.556" transform="translate(9.194 6.106)" fill="#191c33"/>
    <path id="Trazado_614891" data-name="Trazado 614891" d="M45.4,46.786a7.158,7.158,0,1,1-7.193,7.078A7.2,7.2,0,0,1,45.4,46.786" transform="translate(18.905 23.148)" fill="#111325"/>
    <path id="Trazado_614892" data-name="Trazado 614892" d="M44.759,58.4a5.124,5.124,0,1,1,5.128-5.137A5.108,5.108,0,0,1,44.759,58.4" transform="translate(19.576 23.822)" fill="#ced5ed"/>
  </g>
</svg>
