<svg xmlns="http://www.w3.org/2000/svg" xmlns:xlink="http://www.w3.org/1999/xlink" width="62.397" height="59.431" viewBox="0 0 62.397 59.431">
  <defs>
    <clipPath id="clip-path">
      <rect id="Rectángulo_324973" data-name="Rectángulo 324973" width="62.397" height="59.431" fill="none"/>
    </clipPath>
  </defs>
  <g id="Grupo_876403" data-name="Grupo 876403" transform="translate(0 0)">
    <g id="Grupo_876402" data-name="Grupo 876402" transform="translate(0 0)" clip-path="url(#clip-path)">
      <path id="Trazado_614159" data-name="Trazado 614159" d="M17.864,37.764a1.024,1.024,0,0,1,.265-1.451c.232-.2.454-.406.678-.611a2.414,2.414,0,0,0,1.113-2.278,2.969,2.969,0,0,1,3.838-2.944.575.575,0,0,0,.7-.225c1.368-1.658,2.758-3.3,4.138-4.947a.626.626,0,0,0,.055-.153A2.349,2.349,0,0,1,27.1,23.533c-.155-.416-.328-.824-.5-1.234a2.573,2.573,0,0,1,.628-3.1c.39-.363.374-.6-.029-.877a.732.732,0,0,1-.13-.129c-.549-.669-1-1.075-2.025-.5-1.313.736-3-.015-3.925-1.416a3.1,3.1,0,0,1,.363-3.911Q27.192,6.619,32.937.913A3.1,3.1,0,0,1,37.089.7a3.168,3.168,0,0,1,.942,4.347c-.255.4-.175.593.129.831a2.067,2.067,0,0,1,.173.171c.317.314.59.8.964.895s.6-.5.953-.718a2.53,2.53,0,0,1,2.369-.3c.639.246,1.272.508,1.906.77a1.543,1.543,0,0,1,.945.812A4.694,4.694,0,0,0,46.8,9.2a1.023,1.023,0,0,1,.207,1.456.853.853,0,0,1-1.405.133c-.466-.374-.712-.215-1.056.13q-6.541,6.562-13.1,13.106c-.519.519-.519.522,0,1.043.472.473.942.948,1.421,1.414.521.538,1.056,1.064,1.587,1.594.467.464.473.465.959-.021q2.152-2.147,4.3-4.3l8.769-8.768c.541-.542.541-.543.11-1.162s-.409-1,.075-1.405a1.007,1.007,0,0,1,1.505.16,4.589,4.589,0,0,0,1.744,1.366.564.564,0,0,1,.291.213,6.181,6.181,0,0,1,1.405,4.127,2.392,2.392,0,0,1-.9,1.475c-.265.234-.356.423-.016.655a1.125,1.125,0,0,1,.215.215c.565.675,1.015,1.143,2.082.533,1.269-.724,2.891-.015,3.856,1.327a3.131,3.131,0,0,1-.136,3.831,7.433,7.433,0,0,1-.543.575q-4.755,4.759-9.516,9.512a5.265,5.265,0,0,1-.527.409c.216.271.41.176.571.176,3.288.007,6.577.071,9.863-.021,1.823-.051,3.139.494,3.827,2.247v1.339A2.787,2.787,0,0,1,59.5,43.028a1,1,0,0,0-.956.6,9.813,9.813,0,0,0-1.106,4.255c-.031.886-.323,1.225-1.151,1.348-.763-.213-.974-.464-1.023-1.22-.051-.787-.056-.8-.861-.8q-5.323-.031-10.645-.019c-.7-.178-1.045-.574-1.011-1.148a1.114,1.114,0,0,1,1.16-1.016c1.109-.06,2.221-.022,3.331-.021,1.615,0,3.231-.02,4.846.01.972,0,1.946-.007,2.919,0a.727.727,0,0,0,.814-.565,7.923,7.923,0,0,1,.372-.965c.144-.326.034-.439-.3-.437-.953,0-1.906.008-2.861,0-.184,0-.365.022-.547.022-9.547-.005-19.093.011-28.638-.006-2.078-.137-2.741.206-3.89,2.008a17.961,17.961,0,0,1,1.9-.06C26.541,44.979,31.229,45,35.916,45c.061,0,.122,0,.182.007a1.173,1.173,0,0,1,1.218.972c.071.562-.26.969-.969,1.195-5.344.025-10.69.005-16.035.012-1.424,0-1.6.2-1.419,1.637a11.4,11.4,0,0,0,.871,3.887c.142.314.258.652.675.7,6.978.019,13.953,0,20.929.007,2.981,0,5.962-.034,8.943.014,1.825.029,3.638-.239,5.462-.155.378.017.528-.1.386-.5a1.052,1.052,0,0,1,.413-1.285,1.105,1.105,0,0,1,1.589.492,2.941,2.941,0,0,1,.24.491,1.245,1.245,0,0,0,1.217.88,2.908,2.908,0,0,1,2.779,2.43v1.34a3.158,3.158,0,0,1-2.456,2.247,4.672,4.672,0,0,1-.786.052q-19,0-37.994,0a2.936,2.936,0,0,1-3.241-2.993c-.02-.288-.111-.349-.352-.327-.04,0-.082,0-.122,0-1.933.3-2.983-.749-3.645-2.391-.209-.519-.42-1.037-.646-1.591-1.777,1.926-3.528,3.816-5.268,5.716A4.53,4.53,0,0,1,4.472,59.43,4.362,4.362,0,0,1,.381,56.7a4.156,4.156,0,0,1,.89-4.768c1.337-1.357,2.777-2.614,4.177-3.909q4.562-4.214,9.125-8.423c.447-.414.89-.639,1.444-.207a.9.9,0,0,1,.043,1.558c-.555.5-1.071,1.048-1.635,1.54C13.084,43.663,11.8,44.9,10.487,46.1c-1.986,1.815-3.942,3.663-5.94,5.465-.585.528-1.151,1.08-1.732,1.613a2.468,2.468,0,0,0-.457,3.008,2.428,2.428,0,0,0,3.876.46c1.974-2.118,3.932-4.249,5.9-6.373q1.608-1.738,3.215-3.478c1.87-2.02,3.745-4.036,5.6-6.069.6-.658,1.2-1.315,1.82-1.957.294-.306.292-.528-.015-.807-.4-.368-.776-.77-1.144-1.175-.332-.407-.64-.349-1.02-.023-.43.37-.787.816-1.245,1.152-.629.462-1.108.406-1.48-.151" transform="translate(0 0)" fill="#040506"/>
      <path id="Trazado_614160" data-name="Trazado 614160" d="M52.243,13.68a1.021,1.021,0,0,0,.225,1.5c.335.281.406.475.036.842q-6.834,6.788-13.624,13.619c-.3.3-.455.322-.741,0-.565-.632-1.176-1.223-1.769-1.831.052-.261.264-.4.433-.572q7.013-7.017,14.03-14.028a1.151,1.151,0,0,1,.522-.4,4.688,4.688,0,0,1,.887.87" transform="translate(-3.57 -1.257)" fill="#f79220"/>
      <path id="Trazado_614161" data-name="Trazado 614161" d="M51.137,12.672c-.1.124-.192.26-.3.373Q43.658,20.225,36.476,27.4c-.1.1-.216.181-.324.272-.621-.607-1.238-1.22-1.87-1.817-.174-.164-.193-.28-.005-.428a1.94,1.94,0,0,0,.173-.171q6.794-6.792,13.58-13.593c.328-.329.514-.371.849-.01.513.553.825.547,1.484.121q.386.449.774.9" transform="translate(-3.352 -1.119)" fill="#fcb159"/>
      <path id="Trazado_614162" data-name="Trazado 614162" d="M18.068,41.711a.989.989,0,0,0,1.534-.074,11.449,11.449,0,0,0,1.14-1.07c.45-.533.8-.434,1.172.055.167.3-.078.451-.235.611-1.8,1.839-3.506,3.768-5.26,5.652-2.485,2.669-4.947,5.36-7.425,8.036-1.307,1.412-2.605,2.834-3.911,4.247A3.545,3.545,0,0,1,2.9,60.284c-.162.023-.322.06-.458-.071a2.507,2.507,0,0,1,.441-3.165c2.8-2.6,5.635-5.183,8.452-7.774q2.415-2.221,4.819-4.454c.526-.492.524-.867.063-1.481a8.494,8.494,0,0,0,1.846-1.628" transform="translate(-0.204 -3.947)" fill="#752e24"/>
      <path id="Trazado_614163" data-name="Trazado 614163" d="M38.374,51.7c.628-.2.923-.577.838-1.067s-.474-.774-1.131-.774q-6.827,0-13.656,0c-.222,0-.444-.013-.666-.019a.192.192,0,0,1-.023-.272,14.778,14.778,0,0,1,1.97-2c.142-.007.283-.021.425-.021h28.62c.142,0,.283.014.425.022a9.038,9.038,0,0,1-.971,2.274c-2.709.007-5.419.021-8.128.016a1.007,1.007,0,0,0-1.11.644c-.2.572.128,1.017.839,1.208,1.5.091,3,.02,4.5.037,1.034.012,2.069.025,3.1-.008.48-.014.606.195.591.613a10.971,10.971,0,0,0,.978,5.085c.308.666.228.762-.5.762q-15.729,0-31.456,0a1.975,1.975,0,0,0-.723.044c-.3.1-.329-.173-.409-.332a9.592,9.592,0,0,1-1.07-4.247c-.147-1.292.4-1.918,1.68-1.918q7.607,0,15.213,0a1.8,1.8,0,0,0,.663-.041" transform="translate(-2.041 -4.666)" fill="#d9c8c3"/>
      <path id="Trazado_614164" data-name="Trazado 614164" d="M22.771,63.526a1.015,1.015,0,0,1-.856-1.182,1.047,1.047,0,0,1,1.091-.926c.121-.006.243,0,.364,0H58.886c.181,0,.363.02.545.03a1.635,1.635,0,0,1,.28,1.83.559.559,0,0,1-.5.3c-.162,0-.325,0-.487,0q-17.649,0-35.3,0a1.5,1.5,0,0,1-.659-.05" transform="translate(-2.15 -6.028)" fill="#dd266f"/>
      <path id="Trazado_614165" data-name="Trazado 614165" d="M29.608,43.718a5.18,5.18,0,0,1,3.239-.649q13.241.023,26.482.01c.243,0,.486.014.729.022a1.565,1.565,0,0,1,0,2.155c-.142.006-.283.019-.425.02H28.7c-.142,0-.283-.013-.425-.02a3.082,3.082,0,0,1,1.337-1.538" transform="translate(-2.775 -4.227)" fill="#dd266f"/>
      <path id="Trazado_614166" data-name="Trazado 614166" d="M2.486,60.258a4.438,4.438,0,0,0,3.312-2c.491-.644,1.107-1.177,1.645-1.785,1.248-1.409,2.572-2.749,3.854-4.128,2-2.149,4-4.294,5.97-6.465,1.442-1.587,2.88-3.178,4.368-4.723.137-.143.324-.259.319-.494.453.462.9.934,1.361,1.383.224.216.232.363.012.6q-2.343,2.5-4.663,5.027-4.027,4.375-8.048,8.754C9.284,57.871,7.9,59.267,6.6,60.733a2.566,2.566,0,0,1-4.112-.475" transform="translate(-0.244 -3.991)" fill="#59251e"/>
      <path id="Trazado_614167" data-name="Trazado 614167" d="M32.189,40.325a2.293,2.293,0,0,0-.047-1.185.661.661,0,0,1,.287-.856q2.325-1.914,4.617-3.87c.3-.254.45-.276.562.127a.8.8,0,0,0,.151.262c.722.929,1.86,1.1,2.853,1.5a2.5,2.5,0,0,0,2.939-.861c.207-.229.363-.272.562-.007a1.726,1.726,0,0,0,.3.3c.675.552,1.189,1.06.477,2.025-.412.559-.243,1.354.1,2.564Z" transform="translate(-3.149 -3.36)" fill="#fff"/>
      <path id="Trazado_614168" data-name="Trazado 614168" d="M26.625,16.28a1.806,1.806,0,0,1-1.614-1.037,1.257,1.257,0,0,1,.365-1.482Q30.99,8.153,36.6,2.541a1.26,1.26,0,0,1,1.888-.108,1.373,1.373,0,0,1,.285,2.029,3.933,3.933,0,0,1-.407.451Q33.059,10.228,27.745,15.54a2.138,2.138,0,0,1-1.12.74" transform="translate(-2.444 -0.202)" fill="#752e24"/>
      <path id="Trazado_614169" data-name="Trazado 614169" d="M62.256,26.842a1.135,1.135,0,0,1-.39.937q-5.621,5.614-11.239,11.23a1.463,1.463,0,0,1-2.065-2.069q5.569-5.579,11.149-11.148a1.3,1.3,0,0,1,1.529-.427,1.485,1.485,0,0,1,1.017,1.476" transform="translate(-4.722 -2.479)" fill="#59251e"/>
      <path id="Trazado_614170" data-name="Trazado 614170" d="M55.73,19.256a1.058,1.058,0,0,1-.352.876Q49.14,26.368,42.908,32.61a.883.883,0,0,1-.944.242c-.577-.183-1.135-.427-1.7-.653-.3-.119-.289-.3-.082-.509l.257-.259L54.163,17.71c.1-.1.2-.2.3-.3.24-.221.444-.271.589.106a15.755,15.755,0,0,1,.675,1.74" transform="translate(-3.93 -1.692)" fill="#59251e"/>
      <path id="Trazado_614171" data-name="Trazado 614171" d="M31.261,22.061a1.228,1.228,0,0,1,.49-.859l8.612-8.61c1.248-1.249,2.5-2.491,3.741-3.751a.867.867,0,0,1,.917-.325c.593.2,1.169.454,1.748.693.229.095.238.256.087.433-.092.107-.2.206-.3.306L32.737,23.769c-.528.528-.6.513-.871-.168-.209-.526-.414-1.054-.605-1.54" transform="translate(-3.069 -0.832)" fill="#752e24"/>
      <path id="Trazado_614172" data-name="Trazado 614172" d="M22.459,58.694c.271-.212.588-.115.882-.115q15.5-.008,30.994,0c.142,0,.285-.012.426,0,.455.044.459-.131.281-.482a9.613,9.613,0,0,1-1.052-4.135,4.409,4.409,0,0,1,0-1.252c.117-.464-.234-.454-.559-.453q-3.409.007-6.82,0c-.216,0-.45.073-.642-.1,3.769,0,7.538,0,11.307-.02.343,0,.42.129.38.428a3.954,3.954,0,0,0-.02.485c-.007.779.207,1.026,1,1.164a10.09,10.09,0,0,0,.368,2.405c-.9.554-.521,1.263-.127,2.037H54.64q-15.087,0-30.176,0c-.668,0-1.337.023-2,.034" transform="translate(-2.205 -5.117)" fill="#c3b3ae"/>
      <path id="Trazado_614173" data-name="Trazado 614173" d="M57.239,25.349c-.089.1-.16.2-.243.283Q52.735,29.9,48.475,34.16c-.2.2-.336.236-.541.01a8.212,8.212,0,0,0-.905-.9c-.389-.317-.39-.529-.016-.9,2.171-2.134,4.314-4.3,6.466-6.449.631-.631,1.272-1.255,1.89-1.9.217-.226.364-.25.585-.006.341.375.713.721,1.07,1.081.069.069.129.149.215.247" transform="translate(-4.587 -2.34)" fill="#923d32"/>
      <path id="Trazado_614174" data-name="Trazado 614174" d="M31.959,18.17c-.1-.092-.195-.169-.28-.253-.331-.328-.643-.68-1-.983-.3-.258-.242-.42.014-.675q4.211-4.184,8.394-8.4c.291-.294.458-.277.714.014.374.425,1.088.816,1.092,1.227s-.684.83-1.084,1.23q-3.72,3.728-7.447,7.448c-.128.129-.263.251-.407.387" transform="translate(-2.992 -0.751)" fill="#ab483e"/>
      <path id="Trazado_614175" data-name="Trazado 614175" d="M31.88,30.657c.345-.418.639-1.1,1.051-1.179.38-.076.751.634,1.128.995.483.462.931.962,1.427,1.409.333.3.295.5-.026.762-1.337,1.107-2.651,2.244-4,3.34-.894.727-.914.705-1.764-.15-.17-.171-.326-.357-.488-.537.172-.455.586-.7.9-1.034.468-.5.965-.968,1.446-1.454.712-.721.766-1,.375-1.917a.72.72,0,0,1-.048-.234" transform="translate(-2.867 -2.893)" fill="#59251e"/>
      <path id="Trazado_614176" data-name="Trazado 614176" d="M22.865,63.527q4.5-.007,9.008-.012,13.334,0,26.667,0c1.174,0,1.553-.545,1.166-1.683a3.557,3.557,0,0,0-.181-.385c.749-.008,1.5-.036,2.248-.017a1.058,1.058,0,0,1,1.037,1,1.093,1.093,0,0,1-.9,1.129,3.338,3.338,0,0,1-.665.049q-18.867.007-37.736.006a1.035,1.035,0,0,1-.649-.082" transform="translate(-2.244 -6.029)" fill="#db0c56"/>
      <path id="Trazado_614177" data-name="Trazado 614177" d="M26.5,39.936c-.694-.679-1.4-1.344-2.075-2.043a1.245,1.245,0,0,1-.026-1.754,1.265,1.265,0,0,1,1.756-.091c.716.654,1.374,1.37,2.057,2.06A1.784,1.784,0,0,1,26.5,39.936" transform="translate(-2.361 -3.507)" fill="#aa483e"/>
      <path id="Trazado_614178" data-name="Trazado 614178" d="M57.842,49.841a7.717,7.717,0,0,1,.97-2.274h3.465c-.256.7-.522,1.376-.741,2.064-.08.252-.23.233-.41.232l-3.284-.022" transform="translate(-5.678 -4.669)" fill="#c2b2ae"/>
      <path id="Trazado_614179" data-name="Trazado 614179" d="M18.635,55.769a14.21,14.21,0,0,0,1.3,3.928c-.681,0-1.241,0-1.8,0a.479.479,0,0,1-.432-.275,5.768,5.768,0,0,1-.806-1.67.458.458,0,0,1,.115-.5,11.282,11.282,0,0,1,1.16-1.294c.132-.111.247-.278.464-.194" transform="translate(-1.655 -5.472)" fill="#dd266f"/>
      <path id="Trazado_614180" data-name="Trazado 614180" d="M63.515,45.257a2.355,2.355,0,0,0,0-2.155c.726-.006,1.453-.029,2.179-.015A1.1,1.1,0,0,1,66.8,44.143a1.115,1.115,0,0,1-1.108,1.127c-.725.021-1.452-.007-2.179-.014" transform="translate(-6.235 -4.229)" fill="#dc0c56"/>
      <path id="Trazado_614181" data-name="Trazado 614181" d="M31.817,30.786a1.321,1.321,0,0,1-.079,2.106c-.857.852-1.727,1.69-2.592,2.534-.731-.612-.748-.626-.183-1.3.939-1.123,1.9-2.226,2.854-3.338" transform="translate(-2.804 -3.022)" fill="#742e24"/>
      <path id="Trazado_614182" data-name="Trazado 614182" d="M26.77,40.194a2.368,2.368,0,0,0,1.712-1.828c.334.32.692.62,1,.965a1.3,1.3,0,0,1,.007,1.807,1.248,1.248,0,0,1-1.839-.03c-.309-.286-.584-.609-.876-.914" transform="translate(-2.628 -3.766)" fill="#923d32"/>
      <path id="Trazado_614183" data-name="Trazado 614183" d="M25.8,47.563a16.751,16.751,0,0,1-1.622,1.788c-.142.137-.324.255-.325.489H21.7c.719-.782,1.367-1.484,2.011-2.191.132-.144.3-.106.45-.1.544,0,1.088.012,1.631.019" transform="translate(-2.13 -4.666)" fill="#c2b2ae"/>
      <path id="Trazado_614184" data-name="Trazado 614184" d="M18.589,55.538a7.007,7.007,0,0,0-1.739,1.985c-.026-.03-.064-.054-.077-.088-.583-1.6-.585-1.6.575-2.88.332-.365.678-.717,1.1-1.159.053.794.1,1.468.142,2.142" transform="translate(-1.609 -5.241)" fill="#dc0c56"/>
      <path id="Trazado_614185" data-name="Trazado 614185" d="M29.381,43.785l-1.337,1.538H25.952c.473-.519.9-.98,1.319-1.451a.377.377,0,0,1,.441-.086,3.34,3.34,0,0,0,1.668,0" transform="translate(-2.547 -4.294)" fill="#dc0c56"/>
      <path id="Trazado_614186" data-name="Trazado 614186" d="M38.361,52.153c-.212.181-.466.1-.7.1q-7.413.008-14.826,0c-1.355,0-1.921.519-2.029,1.859A.534.534,0,0,1,20.763,54c-.226-1.8-.174-1.869,1.594-1.868q8,.007,16,.018" transform="translate(-2.029 -5.117)" fill="#baaba6"/>
      <path id="Trazado_614187" data-name="Trazado 614187" d="M38.893,54.709q5.142,0,10.285,0a2.163,2.163,0,0,1,.659.062.9.9,0,0,1-.184,1.758,5.277,5.277,0,0,1-.547.013H28.535c-.756-.009-1.19-.344-1.185-.916s.452-.918,1.2-.918q5.173,0,10.346,0" transform="translate(-2.685 -5.37)" fill="#050506"/>
    </g>
  </g>
</svg>
