<svg xmlns="http://www.w3.org/2000/svg" xmlns:xlink="http://www.w3.org/1999/xlink" width="75.104" height="75.959" viewBox="0 0 75.104 75.959">
  <defs>
    <clipPath id="clip-path">
      <rect id="Rectángulo_324961" data-name="Rectángulo 324961" width="75.104" height="75.959" fill="none"/>
    </clipPath>
  </defs>
  <g id="Grupo_876437" data-name="Grupo 876437" transform="translate(0 0)">
    <g id="Grupo_876378" data-name="Grupo 876378" transform="translate(0 0)" clip-path="url(#clip-path)">
      <path id="Trazado_613811" data-name="Trazado 613811" d="M4.507,75.959a13.676,13.676,0,0,1-1.481-.6A5.308,5.308,0,0,1,.049,70.824c-.023-.345-.026-.691-.026-1.037q0-26.015-.023-52.03A6.875,6.875,0,0,1,2.192,12.5C5.746,9.032,9.239,5.5,12.73,1.972A6.218,6.218,0,0,1,17.41.016C29.734.048,42.058.078,54.382,0a5.744,5.744,0,0,1,5.871,5.85c-.059,4.718-.021,9.437-.007,14.156a1.4,1.4,0,0,1-.745,1.406c-1.267.217-1.694-.135-1.7-1.483-.016-4.487,0-8.974-.006-13.462a8.085,8.085,0,0,0-.041-1.108,3.09,3.09,0,0,0-3.2-2.867c-2.12-.029-4.239-.011-6.359-.006q-15.116.015-30.233.006c-1.509,0-1.51,0-1.51,1.5,0,2.743-.1,5.49.028,8.227a4.227,4.227,0,0,1-4.321,4.359q-4.15,0-8.3,0c-1.34,0-1.342,0-1.342,1.349q0,25.982-.008,51.963a3.243,3.243,0,0,0,1.917,3.361A4.027,4.027,0,0,0,6.1,73.5q9.078,0,18.155,0,11.93,0,23.859,0c2.2.04,4.4.049,6.592,0A3.13,3.13,0,0,0,57.8,70.34c.032-.493-.026-.991.045-1.481a1.073,1.073,0,0,1,1.223-1.064c.942.251,1.137.535,1.18,1.484a6.458,6.458,0,0,1-1.431,4.87A7.14,7.14,0,0,1,55.8,75.959Z" transform="translate(0 0)" fill="#040506"/>
      <path id="Trazado_613812" data-name="Trazado 613812" d="M62.72,26.439a5.122,5.122,0,0,1,3.739,1.939,2.035,2.035,0,0,0,2.152.6,4.441,4.441,0,0,1,5.565,3.083,7.244,7.244,0,0,1,.209,1.236,1.975,1.975,0,0,0,1.338,1.787,4.545,4.545,0,0,1,2.228,6.87,1.975,1.975,0,0,0,.012,2.3,4.532,4.532,0,0,1-2.2,6.822,2.054,2.054,0,0,0-1.4,1.909,4.409,4.409,0,0,1-3.529,4.273c-.464.116-.3.453-.3.709-.012,3.062,0,6.125-.01,9.187a2.454,2.454,0,0,1-1.992,2.64,2.325,2.325,0,0,1-1.756-.383c-1.158-.7-2.306-1.418-3.464-2.12-.192-.116-.345-.339-.62-.275a3.55,3.55,0,0,1-1.172.884c-.823.547-1.692,1.021-2.519,1.563a2.618,2.618,0,0,1-2.934.186,2.657,2.657,0,0,1-1.285-2.506c0-2.792-.026-5.585.018-8.377.013-.847-.132-1.456-1.069-1.618a1.566,1.566,0,0,1-.333-.159,4.739,4.739,0,0,1-2.45-3.9,2.171,2.171,0,0,0-1.473-1.938,4.66,4.66,0,0,1-2.891-3.744,3.871,3.871,0,0,1,.524-2.7,2.788,2.788,0,0,0,.026-3.172,4.493,4.493,0,0,1,1.985-6.286,3,3,0,0,0,1.908-2.637,4.293,4.293,0,0,1,2.27-3.369,4.188,4.188,0,0,1,3.337-.495,2.249,2.249,0,0,0,2.467-.705,4.636,4.636,0,0,1,2.516-1.589,2.246,2.246,0,0,1,1.095-.015" transform="translate(-3.65 -2.068)" fill="#040506"/>
      <path id="Trazado_613813" data-name="Trazado 613813" d="M63.174,24.562a5.216,5.216,0,0,0-3.71,1.986,1.8,1.8,0,0,1-1.938.605,4.979,4.979,0,0,0-3.706.35,1.511,1.511,0,0,1-.228-1.13c-.01-3.334,0-6.668-.012-10A1.109,1.109,0,0,1,54,15.55a2.323,2.323,0,0,0,.659-1.806,20.862,20.862,0,0,1,.007-2.425,3.912,3.912,0,0,0-.978-3.043,10.816,10.816,0,0,1-.068-1.984A4.977,4.977,0,0,0,52.546,3a.589.589,0,0,1-.2-.527c2.2-.007,4.39-.046,6.586-.012A3.289,3.289,0,0,1,62.1,5.946c.01,4.764,0,9.526.006,14.29,0,1.088.388,1.433,1.5,1.368a.7.7,0,0,0-.45.784c.042.723.018,1.449.02,2.174" transform="translate(-4.104 -0.192)" fill="#def1fc"/>
      <path id="Trazado_613814" data-name="Trazado 613814" d="M53.825,59.4a1.413,1.413,0,0,0,.406.152c1.341.065,1.248.985,1.237,1.943-.033,2.768,0,5.533-.018,8.3a2.4,2.4,0,0,0,3.789,2.156c1.3-.784,2.552-1.662,3.917-2.344q.007,1.42.013,2.841a1.285,1.285,0,0,0-1.075,1.508A6.516,6.516,0,0,1,62,75.8a3.225,3.225,0,0,1-3.014,2.58c-2.215.037-4.429,0-6.644-.008a.721.721,0,0,1,.232-.6A5.068,5.068,0,0,0,53.6,74.442q0-6.919,0-13.837c0-.408-.094-.847.224-1.2" transform="translate(-4.104 -4.658)" fill="#def1fc"/>
      <path id="Trazado_613815" data-name="Trazado 613815" d="M49.912,54.937c0,4.958-.013,9.914.007,14.872A5.26,5.26,0,0,1,48.433,73.9c-.246.008-.493.023-.739.023-13.835,0-27.67-.022-41.5.028A3.577,3.577,0,0,1,2.433,70.19c.053-17.5.029-34.993.029-52.49,0-1.193,0-1.193,1.224-1.193q4.262,0,8.524,0a3.9,3.9,0,0,0,4.267-4.281c.007-3.015.013-6.03-.009-9.045,0-.527.112-.744.689-.744q15.6.029,31.2.023a.41.41,0,0,1,.074.012,5.325,5.325,0,0,1,1.482,4.394c-.02.469-.016.939-.022,1.407a9.424,9.424,0,0,1-1.752-.128q-11.029.029-22.058.013a2.6,2.6,0,0,0-1.569.316,2.16,2.16,0,0,0-1.057,1.844c0,1.233-.025,2.468.006,3.7a2.128,2.128,0,0,0,1.756,2.173,7.048,7.048,0,0,0,2.282.073c.631-.054.876-.582,1.216-.992a5.883,5.883,0,0,1,2.967,0,2.028,2.028,0,0,0,2.095,1.039q6.981-.037,13.964,0a7.217,7.217,0,0,1,1.969-.106c.29.186.2.482.2.739q.006,5.274,0,10.55a4.827,4.827,0,0,0-2.239,3.945,2.163,2.163,0,0,1-1.557,1.88,4.352,4.352,0,0,0-2.8,3.693,4.011,4.011,0,0,0,.641,2.749,2.516,2.516,0,0,1,0,2.9,4.362,4.362,0,0,0,2.1,6.4,2.454,2.454,0,0,1,1.662,2.289,4.581,4.581,0,0,0,2.2,3.578" transform="translate(-0.191 -0.191)" fill="#f1f6fb"/>
      <path id="Trazado_613816" data-name="Trazado 613816" d="M4.4,14.418l9.943-9.95c.135.073.025.3.026.468q.012,3.782,0,7.563c0,1.327-.555,1.906-1.88,1.914-2.69.018-5.381.006-8.092.006" transform="translate(-0.345 -0.35)" fill="#da6a74"/>
      <path id="Trazado_613817" data-name="Trazado 613817" d="M61.785,30.307a2.723,2.723,0,0,1,1.487-1.266,2.191,2.191,0,0,1,2.4.729,4.505,4.505,0,0,0,4.836,1.579,2.123,2.123,0,0,1,2.757,1.975,4.592,4.592,0,0,0,3.039,4.165,2.136,2.136,0,0,1,1.068,3.189,4.6,4.6,0,0,0-.008,5.212,2.136,2.136,0,0,1-1.04,3.2,4.625,4.625,0,0,0-3.064,4.228,2.085,2.085,0,0,1-2.587,1.952,4.765,4.765,0,0,0-5.1,1.64,2.144,2.144,0,0,1-3.316-.034c-.165-.182-.307-.383-.459-.576.153-.441.579-.583.915-.81a14.148,14.148,0,0,0,3.343-3.178c.831-.483,1.8-.655,2.613-1.194a9.14,9.14,0,0,0-1.721-16.437,2.249,2.249,0,0,1-.735-.338,16.324,16.324,0,0,0-4.054-3.6.721.721,0,0,1-.373-.437" transform="translate(-4.845 -2.27)" fill="#ffc44e"/>
      <path id="Trazado_613818" data-name="Trazado 613818" d="M60.8,30.423a14.634,14.634,0,0,1,4.486,3.9c-.291.242-.611.11-.922.069a9.1,9.1,0,1,0-1.622,18.1,9.835,9.835,0,0,0,1.848-.076.562.562,0,0,1,.554.115,9.5,9.5,0,0,1-2.345,2.5,19.309,19.309,0,0,1-1.988,1.387,4.866,4.866,0,0,0-4.479-1.05A2.152,2.152,0,0,1,53.6,53.325a4.456,4.456,0,0,0-2.984-4.095,2.154,2.154,0,0,1-1.069-3.241,4.587,4.587,0,0,0,0-5.145,2.138,2.138,0,0,1,.993-3.211,4.568,4.568,0,0,0,3.067-4.2,2.143,2.143,0,0,1,2.778-1.967,4.791,4.791,0,0,0,4.41-1.044" transform="translate(-3.856 -2.386)" fill="#ffd767"/>
      <path id="Trazado_613819" data-name="Trazado 613819" d="M69.15,64.97c0,1.506,0,3.013-.006,4.519,0,.2.119.479-.124.6-.2.1-.358-.114-.519-.212-1.136-.692-2.274-1.382-3.4-2.093A2.484,2.484,0,0,0,62.2,67.8c-1.139.734-2.309,1.419-3.456,2.143-.465.294-.619.233-.616-.35q.029-4.667,0-9.334c0-.515.2-.591.608-.505a2.544,2.544,0,0,1,1.376.807c2.207,2.383,4.93,2.374,7.1,0a2.738,2.738,0,0,1,.5-.438c.4-.265.879-.54,1.3-.328.334.167.124.679.129,1.034.019,1.382.008,2.766.008,4.148" transform="translate(-4.558 -4.682)" fill="#e79d38"/>
      <path id="Trazado_613820" data-name="Trazado 613820" d="M30.5,15.819c-.252.9-.542,1.155-1.445,1.148a9.547,9.547,0,0,1-2.138-.081,2.368,2.368,0,0,1-1.954-2.281c-.044-1.207-.034-2.418-.016-3.627a2.421,2.421,0,0,1,2.647-2.6q7.885-.01,15.769,0c2.146,0,4.294.012,6.44-.006a3.759,3.759,0,0,1,1.854.374,2.9,2.9,0,0,1,1.086,2.586,20.946,20.946,0,0,0,0,2.646,2.856,2.856,0,0,1-1.268,2.708,5.29,5.29,0,0,1-1.882.3c-4.864-.012-9.729-.006-14.593-.007-1.056,0-1.357-.226-1.581-1.155a1.013,1.013,0,0,1,.858-1.21,4.684,4.684,0,0,1,1.107-.064q6.811,0,13.624,0c1.2,0,1.246-.045,1.251-1.246,0-.568-.01-1.135,0-1.7.01-.54-.239-.767-.763-.736-.172.01-.346,0-.519,0H28.763c-.247,0-.493,0-.74.014a.514.514,0,0,0-.558.551c-.029.84-.024,1.678,0,2.518.01.4.219.57.6.591.469.026.94-.021,1.405.047A1.062,1.062,0,0,1,30.5,15.819" transform="translate(-1.955 -0.656)" fill="#040506"/>
      <path id="Trazado_613821" data-name="Trazado 613821" d="M30.681,16a1.2,1.2,0,0,0-1.418-1.079.656.656,0,0,1-.074,0c-1.83-.018-1.84-.018-1.826-1.814.006-.737-.311-1.7.121-2.153.469-.495,1.447-.158,2.2-.159,6.744-.013,13.488,0,20.232-.021.609,0,.822.143.782.772a21.359,21.359,0,0,0,0,2.593c.037.624-.178.8-.791.794-4.348-.023-8.7-.013-13.043-.013-.642,0-1.286.015-1.927,0A1.167,1.167,0,0,0,33.6,16h-2.92" transform="translate(-2.137 -0.838)" fill="#bfdaf4"/>
      <path id="Trazado_613822" data-name="Trazado 613822" d="M24.413,39.931q-7,0-14,0c-1.019,0-1.584-.776-1.183-1.584a1.147,1.147,0,0,1,.937-.634,3.876,3.876,0,0,1,.518-.01q13.774,0,27.547,0a2.067,2.067,0,0,1,.8.079A1.048,1.048,0,0,1,39.767,39a.987.987,0,0,1-.988.917c-.442.03-.888.014-1.333.014H24.413" transform="translate(-0.714 -2.956)" fill="#050506"/>
      <path id="Trazado_613823" data-name="Trazado 613823" d="M24.461,46.205c4.641,0,9.281.006,13.922-.007a1.253,1.253,0,0,1,1.336.7,1.122,1.122,0,0,1-.867,1.515,3.9,3.9,0,0,1-.665.018H10.713c-.172,0-.347.012-.518,0a1.169,1.169,0,0,1-1.093-1.1,1.1,1.1,0,0,1,1.141-1.111c1.431-.02,2.863-.009,4.295-.009h9.924" transform="translate(-0.714 -3.623)" fill="#040506"/>
      <path id="Trazado_613824" data-name="Trazado 613824" d="M24.513,54.687q6.775,0,13.55,0a5.415,5.415,0,0,1,.812.033.978.978,0,0,1,.9,1,.988.988,0,0,1-.762,1.114,3.006,3.006,0,0,1-.8.089q-13.773.007-27.545,0a2.644,2.644,0,0,1-.8-.1,1.085,1.085,0,0,1,.207-2.108c.269-.027.542-.026.814-.026H24.513" transform="translate(-0.715 -4.288)" fill="#050607"/>
      <path id="Trazado_613825" data-name="Trazado 613825" d="M24.414,29.241q6.96,0,13.92,0c.954,0,1.4.319,1.443,1.011a1,1,0,0,1-.878,1.169,4.768,4.768,0,0,1-.882.061q-13.55,0-27.1,0a4.187,4.187,0,0,1-1.026-.093.993.993,0,0,1-.772-1.045,1.012,1.012,0,0,1,.861-1.049,4.316,4.316,0,0,1,.81-.052q6.812,0,13.624,0" transform="translate(-0.715 -2.293)" fill="#070708"/>
      <path id="Trazado_613826" data-name="Trazado 613826" d="M17.412,67.116q3.4,0,6.809,0c.891,0,1.368.382,1.382,1.079s-.521,1.148-1.413,1.148q-6.808.006-13.617,0c-.911,0-1.454-.415-1.472-1.1s.515-1.122,1.428-1.124q3.442-.006,6.883,0" transform="translate(-0.714 -5.263)" fill="#050506"/>
      <path id="Trazado_613827" data-name="Trazado 613827" d="M65.521,52.842a10.23,10.23,0,0,1-5.865-.553,9.328,9.328,0,0,1,2.255-17.794,11.635,11.635,0,0,1,3.752.143A9.752,9.752,0,0,1,71.3,38.884,9.334,9.334,0,0,1,65.853,52.7a2.974,2.974,0,0,0-.333.137" transform="translate(-4.236 -2.697)" fill="#040506"/>
      <path id="Trazado_613828" data-name="Trazado 613828" d="M67.949,49.387a7.059,7.059,0,1,1-.018-10.973,6.648,6.648,0,0,1,1.054,3.177,14.89,14.89,0,0,1-.313,6.209,3.217,3.217,0,0,1-.723,1.588" transform="translate(-4.427 -2.889)" fill="#e79d38"/>
      <path id="Trazado_613829" data-name="Trazado 613829" d="M68.926,49.52a15.254,15.254,0,0,0-.018-10.973,7.011,7.011,0,0,1,.018,10.973" transform="translate(-5.404 -3.023)" fill="#e3911c"/>
    </g>
  </g>
</svg>
