<svg xmlns="http://www.w3.org/2000/svg" xmlns:xlink="http://www.w3.org/1999/xlink" width="55.478" height="74.768" viewBox="0 0 55.478 74.768">
  <defs>
    <clipPath id="clip-path">
      <rect id="Rectángulo_324983" data-name="Rectángulo 324983" width="55.478" height="74.768" transform="translate(0 0)" fill="none"/>
    </clipPath>
  </defs>
  <g id="Grupo_876435" data-name="Grupo 876435" transform="translate(0 0)">
    <g id="Grupo_876434" data-name="Grupo 876434" clip-path="url(#clip-path)">
      <path id="Trazado_614421" data-name="Trazado 614421" d="M41.01,70.171c0,1.357-.045,2.525.017,3.688.037.694-.108.909-.866.907q-19.625-.042-39.248,0c-.69,0-.913-.106-.908-.865.04-5.55.11-11.1,0-16.648A12.183,12.183,0,0,1,10.23,44.92c2.093-.362,4.169-.818,6.256-1.214A.763.763,0,0,0,17.2,43c.069-.492.174-.979.277-1.548a6.147,6.147,0,0,1-4.719.505A5.792,5.792,0,0,1,9.235,39.1a1.156,1.156,0,0,0-.826-.653,5.98,5.98,0,0,1-3.973-8.863c.191-.339.2-.5-.094-.784a9.561,9.561,0,0,1-.668-13.512.808.808,0,0,0,.206-.8A12.012,12.012,0,0,1,13.9.152,11.624,11.624,0,0,1,24.146,3.475a.734.734,0,0,0,1.048.156,10.811,10.811,0,0,1,15.661,7.9A2.1,2.1,0,0,0,42.07,13.3a9.561,9.561,0,0,1,2.9,14.337,1.6,1.6,0,0,0-.354,1.094,13.142,13.142,0,0,1-9.033,12.752c-.566.191-.619.492-.61.985.025,1.4.007,1.407,1.352,1.571A22.612,22.612,0,0,1,42.9,45.424a15.154,15.154,0,0,1,8.453,9.07q1.83,5.07,3.627,10.149a7.319,7.319,0,0,1-5.712,9.992,7.088,7.088,0,0,1-7.34-3.071c-.289-.394-.541-.815-.922-1.393" fill="#040506"/>
      <path id="Trazado_614422" data-name="Trazado 614422" d="M16.847,38.83a3.519,3.519,0,0,1-5.8-1.737c-.189-.743-.439-1-1.235-.951a3.512,3.512,0,0,1-3.482-2.261,3.451,3.451,0,0,1,.886-3.919,10.331,10.331,0,0,1,.911-.786c.386-.3.4-.49-.06-.747A10.168,10.168,0,0,1,5.857,26.88a7.094,7.094,0,0,1-.013-10.287,1.767,1.767,0,0,0,.583-2.05A9.515,9.515,0,0,1,14.379,2.558a9.341,9.341,0,0,1,9.13,3.892c.634.82.622.829,1.427.223a8.4,8.4,0,0,1,13.426,4.745,5.967,5.967,0,0,1,.216,2.232c-.095.68.149.945.8,1.136a7.219,7.219,0,0,1,5.238,7.158,5.69,5.69,0,0,1-.684,2.672,14.377,14.377,0,0,0-2.479-4.274,13.024,13.024,0,0,0-8.1-4.507A12.889,12.889,0,0,0,24.1,17.868a1.329,1.329,0,0,1-.775.23c-.753-.015-1.507.014-2.259-.011a3.017,3.017,0,0,1-2.928-2.551,2.928,2.928,0,0,1,1.939-3.208c.785-.259.784-.6.546-1.249-.551-1.516-.554-1.56-1.985-.794a5.143,5.143,0,0,0-2.924,4.655,1.172,1.172,0,0,1-.686,1.18,7.392,7.392,0,0,0-4.082,5.448,9.432,9.432,0,0,0-.068,1.876,53.549,53.549,0,0,0,.126,6.089,13.008,13.008,0,0,0,5.385,8.956c.14.1.279.21.454.341" fill="#525b66"/>
      <path id="Trazado_614423" data-name="Trazado 614423" d="M16.548,57.871c-.294,1.2-.534,2.343-.871,3.462a.8.8,0,0,0,.408,1.081c2.142,1.394,4.257,2.829,6.389,4.237a.8.8,0,0,1,.467.759q-.042,2.221,0,4.444c.007.415-.139.49-.513.489-4.068-.012-8.136-.017-12.2.006-.493,0-.564-.159-.562-.6.017-3.565-.005-7.131.024-10.7,0-.594-.09-.814-.753-.793-1.671.053-1.672.015-1.672,1.665,0,3.264-.01,6.529.01,9.793,0,.474-.094.645-.606.628-1.229-.041-2.461-.031-3.691,0-.419.009-.546-.1-.545-.534.018-5.1-.028-10.2.031-15.293a9.542,9.542,0,0,1,7.109-8.941c.516-.136.63.01.772.445,1.013,3.088,2.065,6.163,3.069,9.254.15.461.336.634.822.606.749-.043,1.5-.011,2.317-.011" fill="#e0e4e9"/>
      <path id="Trazado_614424" data-name="Trazado 614424" d="M40.013,55.361l5.529,6.14c.487.541.985,1.072,1.454,1.628.231.275.389.393.7.072.45-.464.956-.874,1.451-1.319-3.373-3.745-6.72-7.45-10.054-11.167a3.9,3.9,0,0,0-3.452-1.275c-.508.045-.723-.081-.67-.635a8.236,8.236,0,0,0,0-1.654c-.069-.639.131-.821.77-.725,2.048.308,4.142.355,6.09,1.194a12.609,12.609,0,0,1,7.15,7.49c1.275,3.468,2.506,6.952,3.736,10.436a5,5,0,0,1-8.933,4.406c-2-3.089-3.958-6.2-5.933-9.308-.145-.228-.3-.434-.136-.743.766-1.486,1.512-2.982,2.3-4.54" fill="#e0e4e9"/>
      <path id="Trazado_614425" data-name="Trazado 614425" d="M31.971,72.335c-2.007,0-4.013-.015-6.019.011-.479.006-.638-.1-.625-.609.037-1.428.026-2.859.005-4.288a.789.789,0,0,1,.429-.778c.786-.488,1.558-1,2.308-1.544.316-.228.483-.179.748.083a3.368,3.368,0,0,0,3.994.781,3.531,3.531,0,0,0,2.182-3.465c0-.341-.22-.856.161-1,.557-.214.642.429.85.745.879,1.337,2.051,2.6,2.481,4.078s.109,3.182.114,4.786c0,1.2,0,1.2-1.21,1.2Z" fill="#e0e4e9"/>
      <path id="Trazado_614426" data-name="Trazado 614426" d="M21.06,20.526a13.512,13.512,0,0,0,.83,17.8,10.74,10.74,0,0,1-6.2-3.818,10.564,10.564,0,0,1-2.4-6.878,40.73,40.73,0,0,1,.11-5.783A4.963,4.963,0,0,1,16.253,18.2c.345-.19.434.011.589.2a5.53,5.53,0,0,0,4.218,2.12" fill="#efc5a5"/>
      <path id="Trazado_614427" data-name="Trazado 614427" d="M37.392,28.973A6.025,6.025,0,1,1,31.4,22.916a6.067,6.067,0,0,1,5.993,6.057" fill="#21a1d3"/>
      <path id="Trazado_614428" data-name="Trazado 614428" d="M32.687,51.844c1.13,0,2.26,0,3.39,0a3.146,3.146,0,0,1,2.1,1.5c.066.194-.053.329-.128.48-.805,1.61-1.62,3.214-2.4,4.834a.645.645,0,0,1-.688.421c-1.934-.015-3.867,0-5.8-.01a1.246,1.246,0,0,1-1.4-1.386q-.021-2.221,0-4.444a1.247,1.247,0,0,1,1.393-1.4c1.18-.013,2.36,0,3.54,0" fill="#efc5a5"/>
      <path id="Trazado_614429" data-name="Trazado 614429" d="M27.751,43.384c.312.957-.254,1.563-1.235,2.012-.834.382-1.561,1.307-2.4,1.261-.8-.045-1.558-.813-2.332-1.267a12.538,12.538,0,0,0-1.488-.869,1.024,1.024,0,0,1-.666-1.445,20.87,20.87,0,0,0,.44-2.126c.067-.38.162-.552.619-.421a13.446,13.446,0,0,0,4.683.422c.811-.057,1.48.543,2.255.723.163.037.125.252.126.4,0,.376,0,.752,0,1.311" fill="#efc5a5"/>
      <path id="Trazado_614430" data-name="Trazado 614430" d="M21.956,23.815a10.644,10.644,0,0,1,18.9.053,15.105,15.105,0,0,0-18.9-.053" fill="#5ec1e5"/>
      <path id="Trazado_614431" data-name="Trazado 614431" d="M21.879,34.017c6.286,4.446,12.5,4.456,18.752.187-.543,2.014-3.944,4.871-7.46,5.441a10.741,10.741,0,0,1-11.292-5.628" fill="#5ec1e5"/>
      <path id="Trazado_614432" data-name="Trazado 614432" d="M19.128,55.46c-1.134,0-2.283-.006-3.431,0-.285,0-.38-.141-.46-.383q-1.269-3.843-2.56-7.679c-.11-.327-.1-.478.308-.543.912-.146,1.815-.349,2.72-.543.272-.058.475-.077.585.259q1.425,4.38,2.866,8.755c.007.02-.009.048-.028.13" fill="#c0c7d0"/>
      <path id="Trazado_614433" data-name="Trazado 614433" d="M24.123,62.428c-.72-2.162-1.373-4.118-2.021-6.076a.442.442,0,0,1,0-.283c.648-1.528,1.3-3.052,2.02-4.722,1.954,3.726,1.5,7.288,0,11.081" fill="#ffcd58"/>
      <path id="Trazado_614434" data-name="Trazado 614434" d="M30.162,45.745c0-1,.016-2-.008-3-.01-.417.11-.551.547-.556,1.872-.024,1.872-.04,1.872,1.853,0,1.6-.016,3.206.009,4.809.007.454-.117.593-.586.6-1.834.022-1.834.04-1.834-1.822V45.745" fill="#a56434"/>
      <path id="Trazado_614435" data-name="Trazado 614435" d="M20.884,52.71,18.8,46.451c1.281.765,2.4,1.441,3.527,2.1.276.161.211.344.118.558-.495,1.143-.989,2.286-1.558,3.6" fill="#e75541"/>
      <path id="Trazado_614436" data-name="Trazado 614436" d="M21.627,63.171c-1.015-.674-2.024-1.359-3.05-2.016-.279-.179-.251-.369-.183-.629.183-.7.343-1.4.516-2.106.077-.31.124-.583.594-.572a.652.652,0,0,1,.723.544c.5,1.561,1.025,3.111,1.541,4.666l-.141.113" fill="#bfc6d0"/>
      <path id="Trazado_614437" data-name="Trazado 614437" d="M23.319,31.772a9.034,9.034,0,0,1-2.411-2.627.326.326,0,0,1,0-.408,9.14,9.14,0,0,1,2.421-2.648,10,10,0,0,0-.01,5.683" fill="#bfc6cf"/>
      <path id="Trazado_614438" data-name="Trazado 614438" d="M39.3,31.946a11.591,11.591,0,0,0,.516-3,15.726,15.726,0,0,0-.391-2.839,4.338,4.338,0,0,1,1.377,1.25c1.451,1.953,1.45,1.227,0,3.176a5.912,5.912,0,0,1-1.5,1.417" fill="#bfc6cf"/>
      <path id="Trazado_614439" data-name="Trazado 614439" d="M31.449,61.486c.4.136,1.221-.411,1.14.728-.074,1.056-.441,1.662-1.207,1.675s-1.232-.6-1.217-1.647c.014-.9-.155-.739,1.284-.756" fill="#a46434"/>
      <path id="Trazado_614440" data-name="Trazado 614440" d="M27.751,47.482a4.3,4.3,0,0,0,.012,1.025c.3,1.046-.488,1.367-1.139,1.787-.041.027-.112.081-.126.07-.4-.331-.432-.863-.68-1.28a.343.343,0,0,1,.148-.545c.564-.313,1.111-.655,1.785-1.057" fill="#e65541"/>
      <path id="Trazado_614441" data-name="Trazado 614441" d="M26.429,63.289c.272-.812.473-1.416.677-2.019.038-.113.075-.264.244-.166.141.081.384.07.384.3,0,.5.215,1.065-.448,1.356a8.336,8.336,0,0,0-.857.53" fill="#e6665a"/>
      <path id="Trazado_614442" data-name="Trazado 614442" d="M34.982,28.971a3.616,3.616,0,1,1-3.6-3.645,3.622,3.622,0,0,1,3.6,3.645" fill="#040506"/>
      <path id="Trazado_614443" data-name="Trazado 614443" d="M31.345,27.74a1.2,1.2,0,1,1-1.179,1.222,1.228,1.228,0,0,1,1.179-1.222" fill="#35b4e3"/>
    </g>
  </g>
</svg>
