<svg xmlns="http://www.w3.org/2000/svg" xmlns:xlink="http://www.w3.org/1999/xlink" width="84.753" height="84.768" viewBox="0 0 84.753 84.768">
  <defs>
    <clipPath id="clip-path">
      <rect id="Rectángulo_324980" data-name="Rectángulo 324980" width="84.753" height="84.768" transform="translate(0 0)" fill="none"/>
    </clipPath>
  </defs>
  <g id="Grupo_876417" data-name="Grupo 876417" transform="translate(0 0)">
    <g id="Grupo_876416" data-name="Grupo 876416" clip-path="url(#clip-path)">
      <path id="Trazado_614347" data-name="Trazado 614347" d="M67.256,61.482a4.342,4.342,0,0,1-5.1,1.888v.989c0,6.532-.011,13.063.016,19.6,0,.655-.146.815-.81.814q-30.274-.03-60.55,0c-.658,0-.812-.151-.812-.811Q.028,42.385,0,.811C0,.151.155,0,.813,0q30.275.03,60.55,0c.664,0,.81.161.809.815q-.035,16.681-.008,33.364c0,.439-.247,1.08.165,1.281.524.256.851-.373,1.19-.71q4.319-4.3,8.619-8.608c1-1,1.624-1,2.615-.018q1.881,1.865,3.746,3.744a1.48,1.48,0,0,1,0,2.434q-2.736,2.757-5.5,5.485c-.333.327-.387.5-.052.883q3.25,3.72,6.435,7.5a1.178,1.178,0,0,0,1.052.463c.881-.029,1.765-.013,2.647-.008,1.176.007,1.665.482,1.666,1.644q.006,8.915,0,17.829c0,1.474-.879,2.058-2.274,1.5-1.821-.721-3.64-1.448-5.45-2.2a5.171,5.171,0,0,0-2.211-.433c-1.2.043-2.415-.038-3.617.027a2.105,2.105,0,0,1-2.071-1.021c-.561-.849-1.22-1.634-1.871-2.493" fill="#040506"/>
      <path id="Trazado_614348" data-name="Trazado 614348" d="M53.682,58.5a4.4,4.4,0,0,0,5.649,4.887v.795c0,5.649-.012,11.3.017,16.947,0,.654-.146.817-.811.816q-27.45-.032-54.9,0c-.663,0-.811-.16-.811-.815q.029-38.749,0-77.5c0-.672.175-.806.821-.805q27.45.029,54.9,0c.683,0,.8.19.8.826q-.031,15.888,0,31.775c0,.61-.145.852-.768.981-2.582.536-5.146,1.159-7.726,1.705a1.613,1.613,0,0,0-1.432,1.423c-.316,1.73-.7,3.447-1.028,5.174a1.083,1.083,0,0,1-.684.9,4.137,4.137,0,0,0-1.277,6.75c.4.418.371.612-.026.946-3.075,2.585-4.533,6.3-6.653,9.554a.689.689,0,0,0-.156.4c.268,1.657-1.309,2.172-2.014,3.215-.362.535-1.024.4-1.5.02a13.3,13.3,0,0,1-1.108-1.131,1.309,1.309,0,0,0-2.133.041c-1.219,1.723-2.008,1.788-3.473,0a1.373,1.373,0,0,0-1.575-.464c-.759.22-1.536.381-2.308.551a7.383,7.383,0,0,1-.856.07c1.405-2.036,2.014-4.117.977-6.4a6.566,6.566,0,0,0-3.517-3.637c-3.051-1.234-6.817.438-8.422,3.74-1.472,3.029-.8,6.311,3.587,8.46a35.4,35.4,0,0,1-5.67,2.576c-.535.187-.722.358-.5.993.714,2.02.679,2.04,2.658,1.257a38.667,38.667,0,0,0,6.867-3.53A2.351,2.351,0,0,1,22,68.611a20.113,20.113,0,0,0,5.068-.546,1.054,1.054,0,0,1,1.1.239,4.028,4.028,0,0,0,5.449.391.507.507,0,0,1,.677.029c2.375,1.514,4.526,1.085,6.2-1.157.495-.662.95-1.488,2.071-1.211.248.061.6-.2.872-.358q3.214-1.911,6.412-3.849a5.423,5.423,0,0,0,.958-.766c.918-.9,1.817-1.821,2.871-2.884" fill="#fff"/>
      <path id="Trazado_614349" data-name="Trazado 614349" d="M70.546,40.242c2.327,2.708,4.656,5.355,6.9,8.071a2.794,2.794,0,0,0,2.478,1.153c2-.072,2-.02,2,1.958V64.287c-1.178-.47-2.305-.872-3.391-1.365a8.259,8.259,0,0,0-4-.782,6.612,6.612,0,0,1-3.119-.119c-.851-.424-1.349-1.569-1.984-2.412-1.977-2.628-3.956-5.254-5.911-7.9a1.929,1.929,0,0,0-1.707-.863c-4,.023-8,.007-11.993.016a1.682,1.682,0,0,1-1.434-.517,1.288,1.288,0,0,1-.208-1.475,1.5,1.5,0,0,1,1.515-.839c3.263,0,6.537-.161,9.785.055a6.243,6.243,0,0,0,5.654-2.365c1.655-1.936,3.577-3.644,5.41-5.48" fill="#ffcd6d"/>
      <path id="Trazado_614350" data-name="Trazado 614350" d="M57.1,45.209c4.027-4.023,7.877-7.864,11.718-11.716.295-.3.518-.343.779,0,.017.023.042.041.061.063.532.617,1.565,1.071,1.547,1.8-.014.565-.931,1.119-1.468,1.658-2.511,2.52-5.044,5.021-7.534,7.562a1.959,1.959,0,0,1-1.62.65c-1.077-.047-2.158-.013-3.483-.013" fill="#054b73"/>
      <path id="Trazado_614351" data-name="Trazado 614351" d="M23.3,61.551a6.477,6.477,0,0,1-2.742,4.025c-.027.01-.054.04-.078.038A5.978,5.978,0,0,1,16.4,63.639a2.638,2.638,0,0,1-.159-3.125c.9-1.83,2.92-2.927,4.487-2.421A4.013,4.013,0,0,1,23.3,61.551" fill="#f3f0df"/>
      <path id="Trazado_614352" data-name="Trazado 614352" d="M59.155,39.19c-2.066,2.048-3.943,3.952-5.877,5.8-.527.5-1.287.186-1.942.179-.19,0-.11-.235-.084-.364.237-1.208.482-2.414.725-3.621a.661.661,0,0,1,.589-.557c2.114-.449,4.224-.916,6.589-1.433" fill="#faab37"/>
      <path id="Trazado_614353" data-name="Trazado 614353" d="M54.471,53.682c-1.679,1.683-3.207,3.211-4.73,4.745-.209.211-.389.234-.586,0a1.462,1.462,0,0,0-.125-.124c-1.886-1.714-1.848-1.677-.1-3.53a2.961,2.961,0,0,1,2.665-1.113,28.5,28.5,0,0,0,2.88.019" fill="#044b73"/>
      <path id="Trazado_614354" data-name="Trazado 614354" d="M59.331,56.723c0,.823.017,1.647-.005,2.47a1.414,1.414,0,1,1-2.814-.014c-.021-.97.008-1.941-.012-2.911a1.106,1.106,0,0,1,.359-.932c.5-.454.971-.942,1.435-1.433a.8.8,0,0,1,.892-.183c.277.092.134.408.139.621.016.794.006,1.588.006,2.382" fill="#faab37"/>
      <path id="Trazado_614355" data-name="Trazado 614355" d="M62.158,54.655c.91,1.211,1.646,2.238,2.438,3.219a1.832,1.832,0,0,1,.382,1.386,1.463,1.463,0,0,1-1.443,1.476,1.418,1.418,0,0,1-1.368-1.452c-.032-1.461-.009-2.923-.009-4.629" fill="#f69821"/>
      <path id="Trazado_614356" data-name="Trazado 614356" d="M75.636,31.109c-.176.185-.309.336-.454.475-.566.543-1.1,1.462-1.712,1.519-.642.06-1.106-.988-1.714-1.475-.479-.384-.489-.684-.007-1.082a11.669,11.669,0,0,0,1.242-1.234c.309-.346.538-.452.894-.039.438.507.944.955,1.416,1.433.117.119.214.257.335.4" fill="#43a1dc"/>
      <path id="Trazado_614357" data-name="Trazado 614357" d="M43.227,62.57c.74-1.24,1.481-2.479,2.254-3.773l1.644,1.688-3.734,2.241-.164-.156" fill="#429fdb"/>
      <path id="Trazado_614358" data-name="Trazado 614358" d="M31.07,25.436a9.886,9.886,0,1,1,9.9-9.805,9.9,9.9,0,0,1-9.9,9.805" fill="#040506"/>
      <path id="Trazado_614359" data-name="Trazado 614359" d="M33.866,31.086c-6.766,0-13.531-.011-20.3.017-.685,0-.876-.163-.86-.857.046-1.984.013-1.984,2.009-1.984q19.724,0,39.446-.02c.77,0,.978.168.952.948-.064,1.895-.02,1.9-1.924,1.9Z" fill="#040506"/>
      <path id="Trazado_614360" data-name="Trazado 614360" d="M19.788,36.735c-3.971,0-7.941-.017-11.911.017-.655.005-.831-.145-.818-.812.04-2.029.008-2.029,2.052-2.029,7.5,0,15,.011,22.5-.019.73,0,.93.161.908.9-.056,1.94-.017,1.941-1.965,1.941Z" fill="#040506"/>
      <path id="Trazado_614361" data-name="Trazado 614361" d="M33.948,39.56c3.971,0,7.941.014,11.912-.015.6,0,.787.126.778.759-.03,2.08,0,2.08-2.089,2.08-7.5,0-15-.008-22.5.016-.67,0-.886-.139-.868-.848.049-1.991.013-1.992,2-1.992H33.948" fill="#040506"/>
      <path id="Trazado_614362" data-name="Trazado 614362" d="M45.268,36.735c-3.088,0-6.176-.012-9.264.011-.512,0-.7-.082-.7-.658,0-2.177-.027-2.177,2.168-2.177,5.617,0,11.235.009,16.852-.014.591,0,.8.1.787.749-.029,2.089,0,2.089-2.08,2.089H45.268" fill="#040506"/>
      <path id="Trazado_614363" data-name="Trazado 614363" d="M16.928,48.033c-3.059,0-6.117-.013-9.175.012-.525,0-.693-.1-.693-.665,0-2.171-.024-2.171,2.174-2.171,5.617,0,11.234.009,16.851-.015.6,0,.79.119.781.756-.029,2.083,0,2.083-2.086,2.083Z" fill="#040506"/>
      <path id="Trazado_614364" data-name="Trazado 614364" d="M36.01,48.033c-1.882,0-3.764-.015-5.645.01-.5.007-.709-.055-.71-.647,0-2.188-.031-2.187,2.158-2.187,3.264,0,6.528.013,9.791-.014.576,0,.807.078.8.739-.028,2.1,0,2.1-2.07,2.1Z" fill="#040506"/>
      <path id="Trazado_614365" data-name="Trazado 614365" d="M12.764,39.56c1.676,0,3.352.014,5.027-.01.447-.006.588.1.6.577.051,2.258.068,2.257-2.173,2.257-2.822,0-5.645-.014-8.467.013-.53.005-.689-.108-.689-.668,0-2.169-.023-2.169,2.175-2.169h3.528" fill="#040506"/>
      <path id="Trazado_614366" data-name="Trazado 614366" d="M50.857,77.776c0,1.327,0,1.327-1.321,1.327-1.5,0-1.5,0-1.5-1.5,0-1.327,0-1.327,1.321-1.327,1.5,0,1.5,0,1.5,1.5" fill="#040506"/>
      <path id="Trazado_614367" data-name="Trazado 614367" d="M55.169,76.278c1.337,0,1.337,0,1.337,1.311,0,1.513,0,1.513-1.487,1.513-1.337,0-1.337,0-1.337-1.311,0-1.513,0-1.513,1.487-1.513" fill="#040506"/>
      <path id="Trazado_614368" data-name="Trazado 614368" d="M77.207,55.1c-1.176.308-2.029-.354-2.774-1.473-.975-1.463-2.081-2.841-3.158-4.234-.293-.378-.343-.6.109-.881.621-.386,1.21-1.171,1.794-1.154.448.014.87,1,1.3,1.56.446.584.912,1.154,1.319,1.763.685,1.026,1.375,1.989,2.852,1.6.319-.084.493.071.46.429-.022.233,0,.47,0,.7,0,1.684,0,1.684-1.895,1.684" fill="#050506"/>
      <path id="Trazado_614369" data-name="Trazado 614369" d="M24.026,15.468a7.059,7.059,0,1,1,6.886,7.142,7.109,7.109,0,0,1-6.886-7.142" fill="#ea7685"/>
    </g>
  </g>
</svg>
