<svg id="Grupo_876405" data-name="Grupo 876405" xmlns="http://www.w3.org/2000/svg" xmlns:xlink="http://www.w3.org/1999/xlink" width="74.933" height="84.444" viewBox="0 0 74.933 84.444">
  <defs>
    <clipPath id="clip-path">
      <rect id="Rectángulo_324974" data-name="Rectángulo 324974" width="74.933" height="84.444" fill="none"/>
    </clipPath>
  </defs>
  <g id="Grupo_876404" data-name="Grupo 876404" clip-path="url(#clip-path)">
    <path id="Trazado_614188" data-name="Trazado 614188" d="M73.843,84.444H51.949a1.656,1.656,0,0,1-.849-1.573,1.586,1.586,0,0,1,1.735-1.314c1.315-.043,2.632-.014,3.948-.014q6.868,0,13.736,0c1.215,0,1.243-.028,1.244-1.243q0-31.132,0-62.264c0-1.268-.03-1.292-1.281-1.3-.247,0-.493-.006-.739-.025-1.888.087-1.888.087-1.888,1.953V49.673c0,.329.006.659-.007.988-.054,1.35-.555,1.794-1.92,1.7a1.492,1.492,0,0,1-1.061-1.5c-.028-.41-.016-.821-.016-1.232V11.347c0-1.518,0-1.519-1.544-1.53-.22,0-.438-.014-.657-.024-1.706.085-1.707.085-1.707,1.81q0,27.938,0,55.875a6.208,6.208,0,0,1-.135,1.8,1.54,1.54,0,0,1-1.527,1.259c-.41.038-.822.022-1.234.022H18.3c-1.887-.017-1.6.09-1.645,1.608,0,.083-.011.165-.015.247,0,.055,0,.11.007.164.077,1.888.077,1.888,1.946,1.888H63.5c1.345,0,1.348,0,1.349-1.389q0-7.9,0-15.792c0-.848.042-1.68,1.058-1.992,1.4-.1,1.93.352,1.935,1.762q.031,9.291,0,18.581c0,1.274-.553,1.825-1.836,1.967a12.763,12.763,0,0,1-1.4.032H25.473c-1.674,0-1.674,0-1.757,1.673.038.519.011,1.039.027,1.558a.6.6,0,0,0,.651.669c.3.01.6.013.9.013H45.647c.356,0,.712-.006,1.067.014a1.581,1.581,0,0,1,1.643,1.318,1.658,1.658,0,0,1-.852,1.565H21.66a1.975,1.975,0,0,1-1.071-1.894c-.022-1.151-.006-2.3-.009-3.455,0-1.47,0-1.47-1.511-1.472-1.07,0-2.14.016-3.209-.006-1.618-.033-2.178-.6-2.191-2.2-.012-1.316-.018-2.633,0-3.949.011-.664-.252-.945-.92-.931-.987.021-1.975.008-2.962,0A9.73,9.73,0,0,1,.142,61.927a22.741,22.741,0,0,1-.121-3.613c.05-1.356.652-1.919,2.017-1.941,1.207-.019,2.414-.023,3.62,0,.661.013.974-.233.931-.91-.02-.3,0-.6,0-.9q0-25.917,0-51.834a9.873,9.873,0,0,1,.042-1.4A1.416,1.416,0,0,1,7.668,0H59.851a1.527,1.527,0,0,1,1.071,1.653c.046,1.315,0,2.631.02,3.947.012.952.087,1.031,1.033,1.043,1.234.017,2.468-.016,3.7.013,1.6.037,2.158.617,2.175,2.219.01,1.042,0,2.084,0,3.125.005,1.846-.092,1.718,1.765,1.725,1.1,0,2.194-.015,3.29.007,1.347.028,1.926.6,2.01,1.963.021.328.013.658.013.987V81.651c0,.329,0,.658-.014.987a1.953,1.953,0,0,1-1.075,1.806" fill="#040506"/>
    <path id="Trazado_614189" data-name="Trazado 614189" d="M47.505,84.444c.009-.552.76-.718.683-1.316a4.012,4.012,0,0,1,3.077,0c-.077.6.673.764.685,1.316Z" fill="#fffeff"/>
    <path id="Trazado_614190" data-name="Trazado 614190" d="M29.929,57.655c-.165-.845-.752-1.036-1.517-1.035-6.062.009-12.123-.009-18.184.023-.7,0-.834-.19-.833-.856q.03-26.247,0-52.494c0-.689.167-.842.847-.841q23.492.033,46.982,0c.685,0,.906.11.9.867q-.037,31.842,0,63.684c0,.708-.2.846-.859.83-1.947-.047-3.895-.006-5.842-.019a6.954,6.954,0,0,1-7.094-6.8c-.047-.93-.009-1.865-.024-2.8-.018-1.171-.436-1.59-1.582-1.591-2.66,0-5.321,0-7.981-.005-.743,0-1.282.238-1.436,1.033a.569.569,0,0,1-.461.308c-.979-.03-2.01.395-2.918-.307" fill="#fff"/>
    <path id="Trazado_614191" data-name="Trazado 614191" d="M29.929,57.655a6.387,6.387,0,0,0,3.38,0c-.021,1.014.382,1.434,1.416,1.438,2.112.007,4.224,0,6.337,0,.346,0,.739-.09.715.493a10.068,10.068,0,0,0,3.145,8.23h-.906q-16.995,0-33.99,0a6.972,6.972,0,0,1-7.051-5.6,14.056,14.056,0,0,1-.111-2.706c-.009-.333.173-.423.464-.412.219.008.439,0,.659,0q12.22,0,24.443,0c1.115,0,1.519-.4,1.5-1.438" fill="#19496d"/>
    <path id="Trazado_614192" data-name="Trazado 614192" d="M65.942,55.439a1.481,1.481,0,0,0-.833,1.544c.016,5.674,0,11.349.021,17.024,0,.6-.1.824-.779.823q-23.6-.035-47.209,0c-.6,0-.836-.124-.762-.756a16.3,16.3,0,0,0,.038-1.641c.445-.388.989-.267,1.5-.267q16.164-.012,32.329-.006H60.2c.329,0,.658.009.986-.02.942-.081,1.148-.291,1.187-1.212.016-.356.007-.713.007-1.069q0-29.327.005-58.651a2.463,2.463,0,0,1,.265-1.668c2.47-.227,2.47-.227,2.47,2.171q0,19.442-.009,38.883a1.527,1.527,0,0,0,.835,1.624.677.677,0,0,1,.729.763q.011.85,0,1.7a.677.677,0,0,1-.731.761" fill="#f3f3f3"/>
    <path id="Trazado_614193" data-name="Trazado 614193" d="M51.265,83.128H48.188c-.2-1.032-.539-1.317-1.611-1.317-7.452,0-14.9-.012-22.355.017-.7,0-.915-.175-.83-.852.068-.54.044-1.09.061-1.636a2.191,2.191,0,0,1,1.505-.266q14.149-.007,28.3,0H67.489c1.851,0,1.965-.108,1.966-1.941q.006-9.213,0-18.426,0-20.319.006-40.638c0-.534-.135-1.106.267-1.579.763-.021,1.732-.323,2.227.1.462.394.137,1.388.138,2.116q.01,31.086.027,62.172c0,.818-.224.958-.987.954-6.086-.034-12.172-.02-18.258-.018-1.074,0-1.418.286-1.611,1.317" fill="#f3f3f3"/>
    <path id="Trazado_614194" data-name="Trazado 614194" d="M69.729,16.487l0,60.884c0,.247.014.495,0,.74-.078.97-.364,1.23-1.343,1.23H23.453c-.189-2.031-.189-2.031,1.81-2.031H65.48c.247,0,.495.013.74-.006a1.289,1.289,0,0,0,1.365-1.484q.006-9.458,0-18.916c0-1.13-.464-1.535-1.643-1.465a.729.729,0,0,0,.5-.8,8.659,8.659,0,0,1,0-1.626.731.731,0,0,0-.5-.8c1.209.069,1.642-.335,1.642-1.55q0-16.608-.021-33.218c0-.831.2-1.125,1.016-.994a8.765,8.765,0,0,0,1.148.034" fill="#e0e0e0"/>
    <path id="Trazado_614195" data-name="Trazado 614195" d="M62.649,9.537v61.21c0,1.472-.209,1.679-1.72,1.679H17.735l-1.317,0c-.1-2.142-.1-2.142,2.033-2.142H58.774c1.485,0,1.834-.346,1.834-1.838q0-28.924,0-57.849c0-1.11,0-1.113,1.14-1.107.3,0,.6.028.9.043" fill="#e0e0e0"/>
    <path id="Trazado_614196" data-name="Trazado 614196" d="M21.806,26.337q-3.783,0-7.566,0c-1.108,0-1.558-.42-1.561-1.526q-.016-7.606,0-15.214c0-1.109.451-1.529,1.556-1.529q7.607,0,15.214,0c1.058,0,1.517.423,1.52,1.483q.02,7.648,0,15.3c0,1.061-.463,1.487-1.515,1.489q-3.823.008-7.648,0" fill="#050506"/>
    <path id="Trazado_614197" data-name="Trazado 614197" d="M33.759,47.572q9.8,0,19.589,0c1.128,0,1.739.712,1.418,1.629a1.141,1.141,0,0,1-1.09.836c-.137.009-.274,0-.411,0-13.005,0-26.009-.017-39.013.031-1.143,0-1.9-.937-1.451-1.819a1.343,1.343,0,0,1,1.369-.688q9.3.017,18.6.007h.988" fill="#040506"/>
    <path id="Trazado_614198" data-name="Trazado 614198" d="M42.813,42.633c-3.539,0-7.078-.006-10.617.007a1.289,1.289,0,0,1-1.247-.618,1.173,1.173,0,0,1,.044-1.315,1.228,1.228,0,0,1,1.119-.547q10.7.009,21.4.007a1.237,1.237,0,1,1,0,2.463q-5.351.01-10.7,0" fill="#040506"/>
    <path id="Trazado_614199" data-name="Trazado 614199" d="M33.714,35.391q-4.4,0-8.807,0c-.959,0-1.525-.44-1.556-1.2-.031-.779.568-1.27,1.562-1.27q8.849,0,17.7,0c.961,0,1.529.44,1.557,1.195.029.78-.57,1.272-1.563,1.272q-4.445,0-8.889,0" fill="#040506"/>
    <path id="Trazado_614200" data-name="Trazado 614200" d="M44.463,12.675q-4.362,0-8.725,0c-.941,0-1.522-.474-1.525-1.23s.578-1.237,1.517-1.237q8.808,0,17.613,0c.942,0,1.525.475,1.527,1.229s-.58,1.237-1.518,1.238q-4.445,0-8.889,0" fill="#040506"/>
    <path id="Trazado_614201" data-name="Trazado 614201" d="M44.519,18.436q-4.362,0-8.724,0c-1,0-1.6-.475-1.581-1.256.015-.755.589-1.211,1.541-1.211q8.766,0,17.531,0c1.006,0,1.6.476,1.582,1.255s-.6,1.213-1.625,1.214H44.519" fill="#040506"/>
    <path id="Trazado_614202" data-name="Trazado 614202" d="M44.542,24.2q-4.4,0-8.807,0c-.939,0-1.521-.478-1.523-1.234s.581-1.233,1.522-1.233q8.806,0,17.613,0c.941,0,1.525.478,1.524,1.232s-.583,1.234-1.522,1.235q-4.4,0-8.807,0" fill="#040506"/>
    <path id="Trazado_614203" data-name="Trazado 614203" d="M20.076,42.633c-2,0-4,0-6.005,0-.953,0-1.477-.458-1.464-1.257.012-.764.526-1.208,1.43-1.209q6,0,12.009,0c.931,0,1.516.5,1.5,1.256s-.592,1.21-1.543,1.21c-1.975,0-3.949,0-5.923,0" fill="#040506"/>
    <path id="Trazado_614204" data-name="Trazado 614204" d="M21.739,23.868c-1.972,0-3.945-.017-5.917.012-.507.007-.645-.137-.643-.642q.03-6.041,0-12.08c0-.517.156-.636.651-.634q6,.029,12,0c.506,0,.645.136.643.641q-.03,6.041,0,12.08c0,.517-.155.641-.651.634-2.026-.027-4.054-.011-6.081-.011" fill="#f7910b"/>
  </g>
</svg>
