<svg xmlns="http://www.w3.org/2000/svg" xmlns:xlink="http://www.w3.org/1999/xlink" width="505" height="501" viewBox="0 0 505 501">
  <defs>
    <clipPath id="clip-path">
      <rect id="Rectángulo_324796" data-name="Rectángulo 324796" width="505" height="501" transform="translate(180 2855)" fill="#fff" stroke="#707070" stroke-width="1"/>
    </clipPath>
    <clipPath id="clip-path-2">
      <rect id="Rectángulo_51431" data-name="Rectángulo 51431" width="707.743" height="458.128" fill="none"/>
    </clipPath>
    <clipPath id="clip-path-3">
      <rect id="Rectángulo_51432" data-name="Rectángulo 51432" width="31.028" height="311.485" fill="none"/>
    </clipPath>
    <clipPath id="clip-path-4">
      <rect id="Rectángulo_51438" data-name="Rectángulo 51438" width="707.743" height="488.128" fill="none"/>
    </clipPath>
    <clipPath id="clip-path-5">
      <rect id="Rectángulo_51436" data-name="Rectángulo 51436" width="94.407" height="48.98" fill="none"/>
    </clipPath>
    <clipPath id="clip-path-6">
      <rect id="Rectángulo_51437" data-name="Rectángulo 51437" width="76.702" height="28.044" fill="none"/>
    </clipPath>
    <clipPath id="clip-path-7">
      <rect id="Rectángulo_51435" data-name="Rectángulo 51435" width="73.305" height="38.033" fill="#a3314f"/>
    </clipPath>
    <clipPath id="clip-path-11">
      <rect id="Rectángulo_51444" data-name="Rectángulo 51444" width="48.78" height="4.33" fill="none"/>
    </clipPath>
    <clipPath id="clip-path-12">
      <rect id="Rectángulo_51445" data-name="Rectángulo 51445" width="47.424" height="15.633" fill="none"/>
    </clipPath>
    <clipPath id="clip-path-13">
      <rect id="Rectángulo_51446" data-name="Rectángulo 51446" width="21.565" height="46.32" fill="none"/>
    </clipPath>
    <clipPath id="clip-path-14">
      <rect id="Rectángulo_51442" data-name="Rectángulo 51442" width="3.176" height="3.167" fill="none"/>
    </clipPath>
  </defs>
  <g id="Enmascarar_grupo_868529" data-name="Enmascarar grupo 868529" transform="translate(-180 -2855)" clip-path="url(#clip-path)">
    <g id="Grupo_165461" data-name="Grupo 165461" transform="translate(-22.742 2855)">
      <g id="Grupo_165460" data-name="Grupo 165460" clip-path="url(#clip-path-2)">
        <path id="Trazado_237276" data-name="Trazado 237276" d="M500.02,421.271s.538-.015,1.642-.022l5.042-.021v.087l-240.4.151-174.742-.057-52.954-.062-14.4-.036-3.744-.019c-.844-.007-1.275-.02-1.275-.02s.432-.013,1.275-.02l3.744-.019,14.4-.036,52.954-.062,174.742-.057,240.4.151v.087l-5.042-.021c-1.1-.007-1.642-.022-1.642-.022" transform="translate(190.938 74.618)" fill="#263238"/>
      </g>
    </g>
    <g id="Grupo_165466" data-name="Grupo 165466" transform="translate(205.89 2873.52)">
      <g id="Grupo_165510" data-name="Grupo 165510" transform="translate(0)">
        <path id="Trazado_237277" data-name="Trazado 237277" d="M313.622,40.489H253.8a5.069,5.069,0,0,1-5.063-5.312l1.214-25.343a5.07,5.07,0,0,1,5.064-4.827h59.817a5.069,5.069,0,0,1,5.064,5.311l-1.215,25.343a5.068,5.068,0,0,1-5.063,4.827" transform="translate(-248.448 -4.701)" fill="#fafafa"/>
        <path id="Trazado_237278" data-name="Trazado 237278" d="M313.665,40.536a6.252,6.252,0,0,0,1.973-.469,5.044,5.044,0,0,0,2.982-4.591c.223-5.143.544-12.531.939-21.649-.019-2.242.737-4.856-.936-6.75a4.777,4.777,0,0,0-3.1-1.728c-1.228-.092-2.6-.02-3.929-.039l-17.174.028-39.352.025a4.79,4.79,0,0,0-4.076,2.295,4.858,4.858,0,0,0-.69,2.3q-.062,1.282-.123,2.556-.248,5.095-.486,10.03t-.471,9.678q-.058,1.187-.116,2.36a5.9,5.9,0,0,0,.152,2.222,4.8,4.8,0,0,0,2.807,3.105,5.237,5.237,0,0,0,2.1.351l2.224,0,4.36.007,8.337.015,14.964.038,21.668.1,5.891.057,1.532.031a3.287,3.287,0,0,1,.522.032,3.291,3.291,0,0,1-.522.032l-1.532.029-5.891.058-21.668.1-14.964.038-8.337.015-4.36.007-2.224,0a5.8,5.8,0,0,1-2.313-.386,5.364,5.364,0,0,1-3.149-3.468,6.461,6.461,0,0,1-.18-2.412q.055-1.173.111-2.359.223-4.746.456-9.681t.475-10.03q.062-1.274.123-2.556a5.381,5.381,0,0,1,5.376-5.177l39.352.024,17.174.028c1.359.026,2.637-.046,3.994.061a5.253,5.253,0,0,1,3.4,1.915,5.33,5.33,0,0,1,1.178,3.563q-.09,1.794-.176,3.508c-.478,9.114-.864,16.5-1.134,21.64a5.211,5.211,0,0,1-1.165,3.2,5.09,5.09,0,0,1-2.006,1.5,5.149,5.149,0,0,1-1.5.36c-.348.011-.525,0-.525,0" transform="translate(-248.492 -4.748)" fill="#263238"/>
        <path id="Trazado_237279" data-name="Trazado 237279" d="M461.56,38.667l2.56-16.016,10.912-6.339,8.957,9.6-2.7,16.425Z" transform="translate(-210.292 -2.675)" fill="#a3314f"/>
        <path id="Trazado_237280" data-name="Trazado 237280" d="M540.736,52.789l-13.24,290.6L313.987,337.32l-12.7-22.189L324.245,45.053,522.948,31.9Z" transform="translate(-239.027 0.12)" fill="#e0e0e0"/>
        <g id="Grupo_165464" data-name="Grupo 165464" transform="translate(270.681 32.021)" opacity="0.3">
          <g id="Grupo_165463" data-name="Grupo 165463">
            <g id="Grupo_165462" data-name="Grupo 165462" clip-path="url(#clip-path-3)">
              <path id="Trazado_237281" data-name="Trazado 237281" d="M495.81,343.387,478.022,322.5l13.24-290.6L509.05,52.789Z" transform="translate(-478.022 -31.901)"/>
            </g>
          </g>
        </g>
        <path id="Trazado_237282" data-name="Trazado 237282" d="M522.948,32.348l-13.24,290.6-208.424-7.369L317.049,29.409Z" transform="translate(-239.027 -0.327)" fill="#fafafa"/>
        <path id="Trazado_237283" data-name="Trazado 237283" d="M523,32.386,317.1,29.7l.251-.235c-4.388,79.968-9.827,179.025-15.708,286.171l-.295-.324,3.441.122L509.766,322.7l-.289.267c7.985-171.615,13.4-288.1,13.521-290.585-.112,2.479-5.307,118.98-12.962,290.61l-.011.277-.278-.009-204.986-7.22-3.439-.121-.315-.012.018-.312c5.925-107.143,11.4-206.2,15.826-286.164l.012-.239.238,0L523,32.386" transform="translate(-239.077 -0.365)" fill="#263238"/>
        <path id="Trazado_237284" data-name="Trazado 237284" d="M335.4,90.083l72.787,2.133a2.766,2.766,0,0,0,2.847-2.685l.08-2.728a2.767,2.767,0,0,0-2.685-2.848l-72.785-2.133a2.767,2.767,0,0,0-2.848,2.685l-.08,2.728a2.767,2.767,0,0,0,2.685,2.848" transform="translate(-233.392 9.07)" fill="#e0e0e0"/>
        <path id="Trazado_237285" data-name="Trazado 237285" d="M334.807,103.629l72.785,2.134a2.769,2.769,0,0,0,2.848-2.686l.08-2.728a2.767,2.767,0,0,0-2.685-2.848l-72.787-2.133a2.767,2.767,0,0,0-2.847,2.685l-.08,2.728a2.767,2.767,0,0,0,2.685,2.848" transform="translate(-233.498 11.499)" fill="#e0e0e0"/>
        <path id="Trazado_237286" data-name="Trazado 237286" d="M334.212,117.175,407,119.308a2.766,2.766,0,0,0,2.847-2.685l.08-2.728a2.767,2.767,0,0,0-2.685-2.848l-72.785-2.133a2.767,2.767,0,0,0-2.848,2.685l-.08,2.728a2.767,2.767,0,0,0,2.685,2.848" transform="translate(-233.605 13.927)" fill="#e0e0e0"/>
        <path id="Trazado_237287" data-name="Trazado 237287" d="M333.617,130.721l72.785,2.133a2.767,2.767,0,0,0,2.848-2.685l.08-2.728a2.767,2.767,0,0,0-2.685-2.848l-72.787-2.133a2.767,2.767,0,0,0-2.847,2.685l-.08,2.728a2.767,2.767,0,0,0,2.685,2.848" transform="translate(-233.712 16.356)" fill="#e0e0e0"/>
        <path id="Trazado_237288" data-name="Trazado 237288" d="M333.022,144.267l72.787,2.133a2.766,2.766,0,0,0,2.847-2.685l.08-2.728a2.767,2.767,0,0,0-2.685-2.848l-72.785-2.133a2.767,2.767,0,0,0-2.848,2.685l-.08,2.728a2.767,2.767,0,0,0,2.685,2.848" transform="translate(-233.818 18.784)" fill="#e0e0e0"/>
        <path id="Trazado_237289" data-name="Trazado 237289" d="M332.427,157.813l72.787,2.133a2.766,2.766,0,0,0,2.847-2.685l.08-2.728a2.767,2.767,0,0,0-2.685-2.848l-72.787-2.133a2.767,2.767,0,0,0-2.847,2.685l-.08,2.728a2.767,2.767,0,0,0,2.685,2.848" transform="translate(-233.925 21.213)" fill="#e0e0e0"/>
        <path id="Trazado_237290" data-name="Trazado 237290" d="M331.832,171.359l72.787,2.135a2.769,2.769,0,0,0,2.847-2.686l.08-2.728a2.767,2.767,0,0,0-2.685-2.848L332.075,163.1a2.767,2.767,0,0,0-2.848,2.685l-.08,2.728a2.767,2.767,0,0,0,2.685,2.848" transform="translate(-234.032 23.641)" fill="#e0e0e0"/>
        <path id="Trazado_237291" data-name="Trazado 237291" d="M405.63,159.839l72.787,2.135a2.768,2.768,0,0,0,2.847-2.686l.08-2.728a2.767,2.767,0,0,0-2.685-2.848l-72.785-2.133a2.767,2.767,0,0,0-2.848,2.685l-.08,2.728a2.767,2.767,0,0,0,2.685,2.848" transform="translate(-220.801 21.576)" fill="#e0e0e0"/>
        <path id="Trazado_237292" data-name="Trazado 237292" d="M405.035,173.385l72.785,2.133a2.767,2.767,0,0,0,2.848-2.685l.08-2.728a2.767,2.767,0,0,0-2.685-2.848l-72.787-2.133a2.768,2.768,0,0,0-2.847,2.685l-.08,2.728a2.767,2.767,0,0,0,2.685,2.848" transform="translate(-220.908 24.005)" fill="#e0e0e0"/>
        <path id="Trazado_237293" data-name="Trazado 237293" d="M404.317,187.669,477.1,189.8a2.766,2.766,0,0,0,2.847-2.685l.081-2.728a2.769,2.769,0,0,0-2.685-2.848l-72.788-2.133a2.767,2.767,0,0,0-2.847,2.685l-.079,2.728a2.767,2.767,0,0,0,2.685,2.848" transform="translate(-221.036 26.566)" fill="#e0e0e0"/>
        <path id="Trazado_237294" data-name="Trazado 237294" d="M403.6,201.953l72.787,2.135a2.768,2.768,0,0,0,2.847-2.686l.08-2.728a2.768,2.768,0,0,0-2.685-2.848l-72.787-2.133a2.768,2.768,0,0,0-2.847,2.685l-.08,2.728a2.767,2.767,0,0,0,2.685,2.848" transform="translate(-221.165 29.126)" fill="#e0e0e0"/>
        <path id="Trazado_237295" data-name="Trazado 237295" d="M402.88,216.237l72.787,2.133a2.767,2.767,0,0,0,2.847-2.685l.08-2.728a2.767,2.767,0,0,0-2.685-2.848l-72.785-2.133a2.767,2.767,0,0,0-2.848,2.685l-.08,2.728a2.767,2.767,0,0,0,2.685,2.848" transform="translate(-221.294 31.687)" fill="#e0e0e0"/>
        <path id="Trazado_237296" data-name="Trazado 237296" d="M402.162,230.521l72.787,2.133a2.766,2.766,0,0,0,2.847-2.685l.08-2.728a2.767,2.767,0,0,0-2.685-2.848l-72.785-2.133a2.768,2.768,0,0,0-2.848,2.685l-.08,2.728a2.767,2.767,0,0,0,2.685,2.848" transform="translate(-221.423 34.248)" fill="#e0e0e0"/>
        <path id="Trazado_237297" data-name="Trazado 237297" d="M401.444,244.8l72.787,2.136a2.768,2.768,0,0,0,2.847-2.686l.08-2.728a2.768,2.768,0,0,0-2.685-2.848l-72.787-2.133a2.768,2.768,0,0,0-2.847,2.685l-.08,2.728a2.765,2.765,0,0,0,2.685,2.847" transform="translate(-221.552 36.809)" fill="#e0e0e0"/>
        <path id="Trazado_237298" data-name="Trazado 237298" d="M325.773,255.454l160.64,4.71a2.769,2.769,0,0,0,2.848-2.686l.08-2.728a2.769,2.769,0,0,0-2.686-2.848l-160.639-4.709a2.767,2.767,0,0,0-2.848,2.685l-.08,2.728a2.767,2.767,0,0,0,2.685,2.848" transform="translate(-235.118 38.718)" fill="#e0e0e0"/>
        <path id="Trazado_237299" data-name="Trazado 237299" d="M336.469,72.445l49.085,1.439A2.766,2.766,0,0,0,388.4,71.2l.08-2.728a2.767,2.767,0,0,0-2.685-2.848l-49.085-1.439a2.767,2.767,0,0,0-2.847,2.685l-.08,2.728a2.767,2.767,0,0,0,2.685,2.848" transform="translate(-233.2 5.908)" fill="#e0e0e0"/>
        <path id="Trazado_237300" data-name="Trazado 237300" d="M311.049,318.333s.343.031,1.014.063l2.987.127,11.531.436,42.8,1.509,144.589,4.883.309.011.015-.309c.546-11.492,1.118-23.542,1.7-35.807,3.086-65.907,5.88-125.564,7.9-168.761.98-21.586,1.774-39.054,2.322-51.146.259-6.027.461-10.711.6-13.906q.092-2.369.14-3.617c.027-.815.026-1.234.026-1.234s-.042.416-.091,1.23c-.047.829-.115,2.037-.2,3.615-.165,3.194-.407,7.875-.718,13.9-.6,12.088-1.459,29.554-2.524,51.135-2.071,43.195-4.929,102.849-8.088,168.752-.58,12.266-1.15,24.315-1.693,35.808l.324-.3-144.6-4.672-42.809-1.318-11.536-.327-2.988-.071c-.672-.012-1.017,0-1.017,0" transform="translate(-237.276 3.47)" fill="#263238"/>
        <path id="Trazado_237301" data-name="Trazado 237301" d="M325.409,326.294s.323.031.958.064l2.819.129,10.893.445,40.5,1.547,137.394,5.04.307.012.016-.308c.731-13.865,1.493-28.286,2.271-43.024,3.389-65.03,6.458-123.9,8.678-166.52,1.079-21.3,1.953-38.535,2.558-50.465.287-5.948.511-10.57.663-13.722q.1-2.339.157-3.57c.032-.8.031-1.217.031-1.217s-.042.41-.1,1.213c-.051.818-.124,2.009-.219,3.566-.18,3.151-.443,7.77-.783,13.716-.652,11.927-1.594,29.16-2.758,50.454-2.269,42.622-5.4,101.483-8.865,166.51-.775,14.738-1.532,29.159-2.261,43.024l.323-.295-137.4-4.824-40.506-1.36-10.9-.337-2.821-.073c-.636-.014-.96-.006-.96-.006" transform="translate(-234.702 4.209)" fill="#263238"/>
        <path id="Trazado_237302" data-name="Trazado 237302" d="M383.932,29.222l3.146-3.08,37.534.184,1.818,3.432Z" transform="translate(-224.209 -0.912)" fill="#263238"/>
        <rect id="Rectángulo_51433" data-name="Rectángulo 51433" width="17.884" height="42.502" transform="translate(159.498 46.192) rotate(-89.278)" fill="#263238"/>
        <path id="Trazado_237303" data-name="Trazado 237303" d="M427.9,45.28l.007-.617a1.477,1.477,0,0,0-1.459-1.5l-42.5-.535a1.478,1.478,0,0,0-1.5,1.459l-.008.617a1.478,1.478,0,0,0,1.458,1.5l42.5.535a1.478,1.478,0,0,0,1.5-1.459" transform="translate(-224.475 2.044)" fill="#263238"/>
        <path id="Trazado_237304" data-name="Trazado 237304" d="M412.842,45.849h-.021l-18.693-.236a1.649,1.649,0,0,1-1.526-2.223l5.506-14.806a9.764,9.764,0,1,1,11.385.189l4.914,14.912a1.648,1.648,0,0,1-1.565,2.164m-8.91-33.678c-.077,0-.152,0-.228,0a8.717,8.717,0,0,0-8.355,8.707,8.592,8.592,0,0,0,3.8,7l.386.259L393.708,43.8a.468.468,0,0,0,.052.429.462.462,0,0,0,.382.2l18.693.236a.451.451,0,0,0,.384-.191.468.468,0,0,0,.068-.425l-5.2-15.78.392-.245a8.58,8.58,0,0,0-4.545-15.858" transform="translate(-222.674 -3.629)" fill="#455a64"/>
        <path id="Trazado_237305" data-name="Trazado 237305" d="M425.9,43.171a2.08,2.08,0,0,0-.428-.025l-1.219-.031-4.493-.093-14.826-.242-14.829-.166-4.494-.014-1.223.014a2.01,2.01,0,0,0-.427.028,1.986,1.986,0,0,0,.426.041l1.222.052,4.493.124c3.794.09,9.036.188,14.828.269s11.032.131,14.827.14c1.9,0,3.434,0,4.5-.018.532-.012.942-.017,1.225-.034a1.924,1.924,0,0,0,.423-.046" transform="translate(-224.204 2.038)" fill="#455a64"/>
        <path id="Trazado_237306" data-name="Trazado 237306" d="M426.419,28.983a2.076,2.076,0,0,0-.428-.025l-1.219-.031-4.493-.093-14.826-.242-14.829-.166-4.5-.014-1.222.014a2.011,2.011,0,0,0-.427.028,1.988,1.988,0,0,0,.426.041l1.222.052,4.492.124c3.795.09,9.037.188,14.829.269s11.032.131,14.827.14c1.9,0,3.434,0,4.5-.018.532-.012.942-.017,1.224-.034a1.931,1.931,0,0,0,.425-.046" transform="translate(-224.111 -0.505)" fill="#455a64"/>
        <path id="Trazado_237307" data-name="Trazado 237307" d="M389.543,247.8,338.2,246.3a10.527,10.527,0,0,1-10.213-10.829l1.315-44.835a10.524,10.524,0,0,1,10.828-10.211l51.346,1.5a10.525,10.525,0,0,1,10.211,10.829l-1.314,44.834A10.525,10.525,0,0,1,389.543,247.8" transform="translate(-234.241 26.747)" fill="#ebebeb"/>
        <path id="Trazado_237308" data-name="Trazado 237308" d="M328.128,227.409a1.768,1.768,0,0,1,.782-1.4l23.7-15.9a4.9,4.9,0,0,1,6.264.114,1.6,1.6,0,0,0,.314.216l10.74,5.514a1.769,1.769,0,0,0,2.045-.308l16.273-15.912a5.05,5.05,0,0,1,7.313.623l5.222,6.554a1.768,1.768,0,0,1,.384,1.119l-.248,26.476a10,10,0,0,1-10.314,9.9l-52.979-1.675a10,10,0,0,1-9.676-10.361Z" transform="translate(-234.248 29.979)" fill="#e0e0e0"/>
        <path id="Trazado_237309" data-name="Trazado 237309" d="M359.976,196.5a7.238,7.238,0,1,1-7.562-6.9,7.239,7.239,0,0,1,7.562,6.9" transform="translate(-231.099 28.392)" fill="#e0e0e0"/>
        <path id="Trazado_237310" data-name="Trazado 237310" d="M468.864,153.22l-51.345-1.5a10.527,10.527,0,0,1-10.213-10.829l1.315-44.834A10.525,10.525,0,0,1,419.45,85.84l51.346,1.5a10.525,10.525,0,0,1,10.212,10.829l-1.314,44.835a10.525,10.525,0,0,1-10.829,10.211" transform="translate(-220.02 9.79)" fill="#ebebeb"/>
        <path id="Trazado_237311" data-name="Trazado 237311" d="M407.473,131.926l24.448-16.4a4.9,4.9,0,0,1,6.407.243l12.044,6.184,17.185-16.8a5.05,5.05,0,0,1,7.313.623l5.612,7.046-.237,25.345a11.718,11.718,0,0,1-12.088,11.6L418.662,148.2a11.719,11.719,0,0,1-11.341-12.142Z" transform="translate(-220.018 13.022)" fill="#e0e0e0"/>
        <path id="Trazado_237312" data-name="Trazado 237312" d="M439.3,101.918a7.238,7.238,0,1,1-7.562-6.9,7.239,7.239,0,0,1,7.562,6.9" transform="translate(-216.877 11.435)" fill="#e0e0e0"/>
        <path id="Trazado_237313" data-name="Trazado 237313" d="M338.063,120.829a3.1,3.1,0,0,1-.951-.265,5.252,5.252,0,0,1-2.159-1.824,6.136,6.136,0,0,1-1.053-4.327,8.611,8.611,0,0,1,2.862-5.166,15.014,15.014,0,0,1,6.447-3.17,35.449,35.449,0,0,1,8.176-1.057,36.009,36.009,0,0,1,18.152,4.6,13.261,13.261,0,0,1,3.847,3.228,8.015,8.015,0,0,1,1.726,4.589,6.126,6.126,0,0,1-1.723,4.406,10.12,10.12,0,0,1-3.834,2.406,25.973,25.973,0,0,1-8.144,1.316,46.389,46.389,0,0,1-7.166-.309,44.876,44.876,0,0,1-10.07-2.429c-1.149-.425-2.024-.8-2.606-1.072a5.729,5.729,0,0,1-.876-.443,6.061,6.061,0,0,1,.925.33c.6.238,1.482.572,2.637.959a47.853,47.853,0,0,0,10.042,2.224,47.064,47.064,0,0,0,7.1.232,25.757,25.757,0,0,0,7.964-1.337,9.586,9.586,0,0,0,3.606-2.277,5.54,5.54,0,0,0,1.55-3.988,7.421,7.421,0,0,0-1.61-4.231,12.678,12.678,0,0,0-3.673-3.072,35.786,35.786,0,0,0-17.834-4.567,35.388,35.388,0,0,0-8.057.983,14.691,14.691,0,0,0-6.282,3,8.291,8.291,0,0,0-2.813,4.891,5.932,5.932,0,0,0,.912,4.146,5.357,5.357,0,0,0,2.013,1.846c.571.281.908.344.9.377" transform="translate(-233.19 13.229)" fill="#263238"/>
        <path id="Trazado_237314" data-name="Trazado 237314" d="M363.909,260.525a3.1,3.1,0,0,1-.951-.265,5.241,5.241,0,0,1-2.159-1.824,6.137,6.137,0,0,1-1.053-4.327,8.611,8.611,0,0,1,2.862-5.166,15.027,15.027,0,0,1,6.448-3.17,35.377,35.377,0,0,1,8.175-1.057,36.006,36.006,0,0,1,18.152,4.6,13.264,13.264,0,0,1,3.847,3.228,8.006,8.006,0,0,1,1.727,4.589,6.126,6.126,0,0,1-1.723,4.406,10.121,10.121,0,0,1-3.834,2.406,25.97,25.97,0,0,1-8.144,1.316,46.38,46.38,0,0,1-7.165-.309,44.88,44.88,0,0,1-10.071-2.429c-1.149-.424-2.024-.8-2.606-1.072a5.724,5.724,0,0,1-.876-.443,6.052,6.052,0,0,1,.924.33c.6.238,1.484.572,2.638.96a47.909,47.909,0,0,0,10.04,2.223,47.052,47.052,0,0,0,7.1.232,25.757,25.757,0,0,0,7.964-1.337,9.572,9.572,0,0,0,3.606-2.277,5.535,5.535,0,0,0,1.55-3.988,7.421,7.421,0,0,0-1.61-4.231,12.682,12.682,0,0,0-3.674-3.073,35.8,35.8,0,0,0-17.834-4.566,35.373,35.373,0,0,0-8.056.983,14.689,14.689,0,0,0-6.283,3,8.3,8.3,0,0,0-2.813,4.89A5.931,5.931,0,0,0,361,258.3a5.35,5.35,0,0,0,2.014,1.846c.57.281.907.344.9.377" transform="translate(-228.556 38.274)" fill="#263238"/>
        <path id="Trazado_237315" data-name="Trazado 237315" d="M333.907,75.08a3.1,3.1,0,0,1-.951-.265A5.251,5.251,0,0,1,330.8,72.99a6.136,6.136,0,0,1-1.053-4.327,8.611,8.611,0,0,1,2.862-5.166,15.028,15.028,0,0,1,6.448-3.171,35.432,35.432,0,0,1,8.175-1.055,36.006,36.006,0,0,1,18.151,4.6,13.261,13.261,0,0,1,3.847,3.228,8.006,8.006,0,0,1,1.726,4.589,6.125,6.125,0,0,1-1.723,4.406A10.121,10.121,0,0,1,365.4,78.5a25.969,25.969,0,0,1-8.144,1.316,46.369,46.369,0,0,1-7.165-.309,44.873,44.873,0,0,1-10.071-2.429c-1.149-.425-2.024-.8-2.606-1.072a5.738,5.738,0,0,1-.876-.443,6.056,6.056,0,0,1,.925.33c.6.238,1.483.572,2.637.96a47.942,47.942,0,0,0,10.042,2.223,47.061,47.061,0,0,0,7.1.232,25.758,25.758,0,0,0,7.964-1.337A9.586,9.586,0,0,0,368.8,75.7a5.54,5.54,0,0,0,1.55-3.988,7.421,7.421,0,0,0-1.61-4.231,12.681,12.681,0,0,0-3.673-3.073,35.8,35.8,0,0,0-17.834-4.566,35.369,35.369,0,0,0-8.056.984,14.689,14.689,0,0,0-6.283,3,8.3,8.3,0,0,0-2.813,4.89,5.928,5.928,0,0,0,.912,4.145,5.353,5.353,0,0,0,2.014,1.847c.569.281.907.344.9.377" transform="translate(-233.935 5.026)" fill="#263238"/>
        <path id="Trazado_237316" data-name="Trazado 237316" d="M486.863,212.986l16.214.4,7.736,9.97-8.326,10.157-16.639-.488Z" transform="translate(-205.937 32.586)" fill="#a3314f"/>
        <path id="Trazado_237317" data-name="Trazado 237317" d="M488.166,188.868l16.214.4,7.736,9.97L503.79,209.4l-16.638-.488Z" transform="translate(-205.704 28.262)" fill="#455a64"/>
        <path id="Trazado_237318" data-name="Trazado 237318" d="M308.546,15.463H257.257a.61.61,0,0,0-.61.61v.254a.61.61,0,0,0,.61.61h51.289a.61.61,0,0,0,.61-.61v-.254a.61.61,0,0,0-.61-.61" transform="translate(-247.03 -2.827)" fill="#e0e0e0"/>
        <path id="Trazado_237319" data-name="Trazado 237319" d="M308.546,19.427H257.257a.61.61,0,0,0-.61.61v.254a.61.61,0,0,0,.61.61h51.289a.61.61,0,0,0,.61-.61v-.254a.61.61,0,0,0-.61-.61" transform="translate(-247.03 -2.116)" fill="#e0e0e0"/>
        <path id="Trazado_237320" data-name="Trazado 237320" d="M308.546,23.391H257.257a.61.61,0,0,0-.61.61v.254a.61.61,0,0,0,.61.61h51.289a.61.61,0,0,0,.61-.61V24a.61.61,0,0,0-.61-.61" transform="translate(-247.03 -1.406)" fill="#e0e0e0"/>
        <path id="Trazado_237321" data-name="Trazado 237321" d="M309.2,19.162c.136-.1,8.3,10.465,18.226,23.6S345.3,66.633,345.163,66.736s-8.3-10.463-18.228-23.6S309.064,19.265,309.2,19.162" transform="translate(-237.608 -2.164)" fill="#263238"/>
        <path id="Trazado_237322" data-name="Trazado 237322" d="M311.244,18.662a2,2,0,1,1-2-2,2,2,0,0,1,2,2" transform="translate(-237.958 -2.612)" fill="#263238"/>
        <path id="Trazado_237323" data-name="Trazado 237323" d="M365.918,366.976H306.1a5.068,5.068,0,0,1-5.063-5.312l1.214-25.343a5.07,5.07,0,0,1,5.064-4.827h59.817a5.07,5.07,0,0,1,5.064,5.311l-1.215,25.343a5.068,5.068,0,0,1-5.063,4.827" transform="translate(-239.072 53.833)" fill="#fafafa"/>
        <path id="Trazado_237324" data-name="Trazado 237324" d="M365.962,367.023a6.253,6.253,0,0,0,1.973-.469,5.041,5.041,0,0,0,2.981-4.591c.224-5.143.544-12.531.94-21.649-.019-2.242.737-4.855-.936-6.75a4.777,4.777,0,0,0-3.1-1.728c-1.228-.092-2.6-.02-3.929-.039l-17.174.028-39.351.025a4.79,4.79,0,0,0-4.076,2.295,4.859,4.859,0,0,0-.69,2.3q-.062,1.283-.123,2.555-.248,5.095-.486,10.03t-.47,9.678q-.058,1.187-.116,2.36a5.9,5.9,0,0,0,.152,2.222,4.8,4.8,0,0,0,2.807,3.105,5.238,5.238,0,0,0,2.1.351l2.224,0,4.36.007,8.338.015,14.964.038,21.668.1,5.891.057,1.532.031a3.285,3.285,0,0,1,.522.032,3.269,3.269,0,0,1-.522.032l-1.532.03-5.891.058-21.668.1-14.964.038-8.338.015-4.36.007-2.224,0a5.8,5.8,0,0,1-2.313-.386A5.363,5.363,0,0,1,301,363.448a6.458,6.458,0,0,1-.181-2.41q.055-1.175.111-2.36.223-4.744.456-9.681t.475-10.03q.06-1.274.121-2.556a5.474,5.474,0,0,1,.777-2.586,5.406,5.406,0,0,1,4.6-2.591l39.351.024,17.174.028c1.359.026,2.637-.046,3.994.061a5.253,5.253,0,0,1,3.4,1.915,5.33,5.33,0,0,1,1.178,3.563q-.09,1.794-.176,3.508c-.478,9.114-.866,16.5-1.134,21.64a5.211,5.211,0,0,1-1.165,3.2,5.029,5.029,0,0,1-3.5,1.856c-.348.011-.525,0-.525,0" transform="translate(-239.116 53.786)" fill="#263238"/>
        <path id="Trazado_237325" data-name="Trazado 237325" d="M360.842,341.95H309.553a.61.61,0,0,0-.61.61v.254a.61.61,0,0,0,.61.61h51.289a.609.609,0,0,0,.608-.61v-.254a.609.609,0,0,0-.608-.61" transform="translate(-237.654 55.707)" fill="#e0e0e0"/>
        <path id="Trazado_237326" data-name="Trazado 237326" d="M360.842,345.914H309.553a.61.61,0,0,0-.61.61v.254a.61.61,0,0,0,.61.61h51.289a.609.609,0,0,0,.608-.61v-.254a.609.609,0,0,0-.608-.61" transform="translate(-237.654 56.418)" fill="#e0e0e0"/>
        <path id="Trazado_237327" data-name="Trazado 237327" d="M360.842,349.878H309.553a.61.61,0,0,0-.61.61v.254a.61.61,0,0,0,.61.61h51.289a.609.609,0,0,0,.608-.61v-.254a.609.609,0,0,0-.608-.61" transform="translate(-237.654 57.128)" fill="#e0e0e0"/>
        <path id="Trazado_237328" data-name="Trazado 237328" d="M381.831,261.074c.151.078-9.414,18.734-21.36,41.663S338.714,344.2,338.564,344.12s9.412-18.729,21.362-41.667S381.68,261,381.831,261.074" transform="translate(-232.344 41.207)" fill="#263238"/>
        <path id="Trazado_237329" data-name="Trazado 237329" d="M340.864,331.8a2,2,0,1,1-2-2,2,2,0,0,1,2,2" transform="translate(-232.647 53.529)" fill="#263238"/>
      </g>
    </g>
    <g id="Grupo_165476" data-name="Grupo 165476" transform="translate(-22.742 2855)" clip-path="url(#clip-path-4)">
      <path id="Trazado_237331" data-name="Trazado 237331" d="M505.984,345.964c0,.126-12.591.228-28.12.228s-28.122-.1-28.122-.228,12.588-.228,28.122-.228,28.12.1,28.12.228" transform="translate(9.485 13.582)" fill="#263238"/>
      <g id="Grupo_876255" data-name="Grupo 876255" transform="translate(0 37)">
        <path id="Trazado_237340" data-name="Trazado 237340" d="M513.049,423.188H429.983a20.084,20.084,0,0,1-19.9-20.259v-8.463a20.084,20.084,0,0,1,19.9-20.259h83.066a7.786,7.786,0,0,1,7.716,7.854v33.273a7.785,7.785,0,0,1-7.716,7.854" transform="translate(8.648 25.7)" fill="#ffb500"/>
        <path id="Trazado_237341" data-name="Trazado 237341" d="M688.268,382.339H496.906A1.924,1.924,0,0,1,495,380.4v-4.249a1.924,1.924,0,0,1,1.906-1.941H688.268a3.333,3.333,0,0,1,3.3,3.363v1.405a3.334,3.334,0,0,1-3.3,3.363" transform="translate(10.439 25.7)" fill="#ffb500"/>
        <path id="Trazado_237342" data-name="Trazado 237342" d="M688.268,421.644H496.906A1.924,1.924,0,0,1,495,419.7v-4.249a1.924,1.924,0,0,1,1.906-1.941H688.268a3.334,3.334,0,0,1,3.3,3.363v1.405a3.334,3.334,0,0,1-3.3,3.363" transform="translate(10.439 27.244)" fill="#ffb500"/>
        <path id="Trazado_237343" data-name="Trazado 237343" d="M685.587,414.751H516.814a16.362,16.362,0,0,1,0-32.719H685.587a41.114,41.114,0,0,0,0,32.719" transform="translate(10.561 26.008)" fill="#f5f5f5"/>
        <g id="Grupo_165472" data-name="Grupo 165472" transform="translate(418.728 399.909)" opacity="0.3">
          <g id="Grupo_165471" data-name="Grupo 165471">
            <g id="Grupo_165470" data-name="Grupo 165470" clip-path="url(#clip-path-5)">
              <path id="Trazado_237344" data-name="Trazado 237344" d="M502.654,423.188H433.883a24.018,24.018,0,0,1-23.8-24.228A24.538,24.538,0,0,1,434.4,374.208h70.088c-17.424,10.743-16.122,36.47-1.832,48.98" transform="translate(-410.079 -374.208)"/>
            </g>
          </g>
        </g>
        <path id="Trazado_237345" data-name="Trazado 237345" d="M664.884,399.243c0,.126-34.641.228-77.364.228-42.738,0-77.372-.1-77.372-.228s34.634-.228,77.372-.228c42.722,0,77.364.1,77.364.228" transform="translate(10.759 26.675)" fill="#263238"/>
        <path id="Trazado_237346" data-name="Trazado 237346" d="M680.477,406.24c0,.126-34.641.228-77.364.228-42.738,0-77.372-.1-77.372-.228s34.634-.228,77.372-.228c42.722,0,77.364.1,77.364.228" transform="translate(11.088 26.95)" fill="#263238"/>
        <path id="Trazado_237347" data-name="Trazado 237347" d="M675.879,392.75c0,.126-34.642.228-77.364.228-42.738,0-77.372-.1-77.372-.228s34.634-.228,77.372-.228c42.722,0,77.364.1,77.364.228" transform="translate(10.99 26.42)" fill="#263238"/>
        <path id="Trazado_237348" data-name="Trazado 237348" d="M493.939,418.044c0,.126-16.216.228-36.214.228s-36.217-.1-36.217-.228,16.213-.228,36.217-.228,36.214.1,36.214.228" transform="translate(8.89 27.414)" fill="#263238"/>
        <path id="Trazado_237349" data-name="Trazado 237349" d="M493.939,378.129c0,.126-16.216.228-36.214.228s-36.217-.1-36.217-.228,16.213-.227,36.217-.227,36.214.1,36.214.227" transform="translate(8.89 25.846)" fill="#263238"/>
      </g>
      <g id="Grupo_876256" data-name="Grupo 876256" transform="translate(0 37)">
        <path id="Trazado_237350" data-name="Trazado 237350" d="M547.958,375.44h-78a11.5,11.5,0,0,1-11.4-11.6V359a11.5,11.5,0,0,1,11.4-11.6h78a.535.535,0,0,1,.53.539V374.9a.535.535,0,0,1-.53.539" transform="translate(9.671 24.647)" fill="#455a64"/>
        <path id="Trazado_237351" data-name="Trazado 237351" d="M684.577,354h-155.8a1.233,1.233,0,0,1-1.222-1.244V348.64a1.234,1.234,0,0,1,1.222-1.245h155.8a2.709,2.709,0,0,1,2.684,2.733v1.141A2.708,2.708,0,0,1,684.577,354" transform="translate(11.126 24.647)" fill="#455a64"/>
        <path id="Trazado_237352" data-name="Trazado 237352" d="M684.577,374.63h-155.8a1.233,1.233,0,0,1-1.222-1.244v-4.118a1.234,1.234,0,0,1,1.222-1.245h155.8a2.709,2.709,0,0,1,2.684,2.733V371.9a2.708,2.708,0,0,1-2.684,2.732" transform="translate(11.126 25.457)" fill="#455a64"/>
        <path id="Trazado_237353" data-name="Trazado 237353" d="M682.4,368.584H539.5a7.417,7.417,0,0,1,0-14.832H682.4q-5.515,7.416,0,14.832" transform="translate(11.225 24.896)" fill="#f5f5f5"/>
        <g id="Grupo_165475" data-name="Grupo 165475" transform="translate(468.229 372.043)" opacity="0.3">
          <g id="Grupo_165474" data-name="Grupo 165474">
            <g id="Grupo_165473" data-name="Grupo 165473" clip-path="url(#clip-path-6)">
              <path id="Trazado_237354" data-name="Trazado 237354" d="M533.771,375.44H472.223a13.789,13.789,0,0,1-13.665-13.91A14.012,14.012,0,0,1,472.445,347.4H535.26c-14.157,6.15-13.1,20.881-1.489,28.044" transform="translate(-458.558 -347.396)"/>
            </g>
          </g>
        </g>
        <path id="Trazado_237355" data-name="Trazado 237355" d="M665.579,359.773c0,.126-28.145.228-62.856.228s-62.863-.1-62.863-.228,28.139-.228,62.863-.228,62.856.1,62.856.228" transform="translate(11.386 25.125)" fill="#263238"/>
        <path id="Trazado_237356" data-name="Trazado 237356" d="M678.249,363.614c0,.126-28.145.228-62.856.228s-62.862-.1-62.862-.228,28.139-.228,62.862-.228,62.856.1,62.856.228" transform="translate(11.652 25.275)" fill="#263238"/>
        <path id="Trazado_237357" data-name="Trazado 237357" d="M526.691,371.706c0,.126-13.175.228-29.423.228s-29.425-.1-29.425-.228,13.171-.228,29.425-.228,29.423.1,29.423.228" transform="translate(9.866 25.594)" fill="#263238"/>
        <path id="Trazado_237358" data-name="Trazado 237358" d="M526.691,350.583c0,.126-13.175.228-29.423.228s-29.425-.1-29.425-.228,13.171-.228,29.425-.228,29.423.1,29.423.228" transform="translate(9.866 24.764)" fill="#263238"/>
      </g>
      <g id="Grupo_876257" data-name="Grupo 876257" transform="translate(0 37)">
        <path id="Trazado_237330" data-name="Trazado 237330" d="M656.878,348.758H506.807v-6.314h150.07a2.589,2.589,0,0,1,2.566,2.612v1.09a2.589,2.589,0,0,1-2.566,2.612" transform="translate(10.688 23.453)" fill="#ff725e"/>
        <path id="Trazado_237332" data-name="Trazado 237332" d="M526.814,349.957H456.323a15.6,15.6,0,0,1-15.456-15.731v-6.571a15.6,15.6,0,0,1,15.456-15.731h70.491Z" transform="translate(9.298 22.254)" fill="#ff725e"/>
        <path id="Trazado_237333" data-name="Trazado 237333" d="M656.878,318.238h-148.9a1.179,1.179,0,0,1-1.168-1.19v-3.935a1.178,1.178,0,0,1,1.168-1.189h148.9a2.589,2.589,0,0,1,2.566,2.612v1.09a2.589,2.589,0,0,1-2.566,2.612" transform="translate(10.688 22.254)" fill="#ff725e"/>
        <path id="Trazado_237334" data-name="Trazado 237334" d="M654.8,343.4H523.746a12.7,12.7,0,0,1,0-25.405H654.8a31.926,31.926,0,0,0,0,25.405" transform="translate(10.782 22.492)" fill="#f5f5f5"/>
        <g id="Grupo_165469" data-name="Grupo 165469" transform="translate(450.165 334.178)" opacity="0.3">
          <g id="Grupo_165468" data-name="Grupo 165468">
            <g id="Grupo_165467" data-name="Grupo 165467" clip-path="url(#clip-path-7)">
              <path id="Trazado_237335" data-name="Trazado 237335" d="M512.751,349.957H455.027a14.288,14.288,0,0,1-14.16-14.412v-9.326a14.172,14.172,0,0,1,14.046-14.3h59.26c-13.53,8.341-12.519,28.318-1.422,38.033" transform="translate(-440.867 -311.924)" fill="#a3314f"/>
            </g>
          </g>
        </g>
        <path id="Trazado_237336" data-name="Trazado 237336" d="M638.721,331.366c0,.126-26.9.228-60.073.228s-60.078-.1-60.078-.228,26.892-.228,60.078-.228,60.073.1,60.073.228" transform="translate(10.937 23.009)" fill="#263238"/>
        <path id="Trazado_237337" data-name="Trazado 237337" d="M650.829,336.8c0,.126-26.9.228-60.073.228s-60.078-.1-60.078-.228,26.892-.228,60.078-.228,60.073.1,60.073.228" transform="translate(11.191 23.222)" fill="#263238"/>
        <path id="Trazado_237338" data-name="Trazado 237338" d="M647.259,323.66c0,.126-26.9.228-60.073.228s-60.078-.1-60.078-.228,26.893-.228,60.078-.228,60.073.1,60.073.228" transform="translate(11.116 22.706)" fill="#263238"/>
        <path id="Trazado_237339" data-name="Trazado 237339" d="M505.984,314.971c0,.126-12.591.228-28.12.228s-28.122-.1-28.122-.228,12.588-.228,28.122-.228,28.12.1,28.12.228" transform="translate(9.484 22.364)" fill="#263238"/>
        <path id="Trazado_237359" data-name="Trazado 237359" d="M686.586,347.4c0,.126-48.328.228-107.93.228-59.624,0-107.942-.1-107.942-.228s48.318-.228,107.942-.228c59.6,0,107.93.1,107.93.228" transform="translate(9.927 23.639)" fill="#263238"/>
      </g>
      <path id="Trazado_237360" data-name="Trazado 237360" d="M597.246,323.251v15.232l5.187-3.385,5.787,3.385V323.251Z" transform="translate(12.596 12.699)" fill="#ff725e"/>
    </g>
    <g id="Grupo_165479" data-name="Grupo 165479" transform="translate(-22.742 2855)">
      <g id="Grupo_165478" data-name="Grupo 165478" clip-path="url(#clip-path-2)">
        <path id="Trazado_237361" data-name="Trazado 237361" d="M665.805,72.6H619.5a18.069,18.069,0,0,0-1.027,36.085l4.193,7.383,5.238-7.33h37.9a18.072,18.072,0,0,0,0-36.138" transform="translate(12.691 2.852)" fill="#fff"/>
        <path id="Trazado_237362" data-name="Trazado 237362" d="M665.81,72.612s.159-.009.472,0l1.388.051a17.564,17.564,0,0,1,11.982,6.485A19.551,19.551,0,0,1,682.4,83.82a18.053,18.053,0,0,1,1.3,5.975,18.288,18.288,0,0,1-10.76,17.681,18.8,18.8,0,0,1-8.1,1.513l-36.924.029.213-.11c-1.664,2.329-3.441,4.816-5.236,7.331l-.241.336-.2-.36-1.707-3.007-2.485-4.376.215.134a19.452,19.452,0,0,1-5.19-1.1,18.752,18.752,0,0,1-4.586-2.551,18.315,18.315,0,0,1-6.045-8.233,18.792,18.792,0,0,1-.807-9.877,18.445,18.445,0,0,1,4.1-8.523,17.76,17.76,0,0,1,7.288-5.129c.342-.124.678-.261,1.021-.369l1.043-.271a16.718,16.718,0,0,1,2.089-.385c.7-.1,1.4-.087,2.086-.134h2.031l14.918.033,21.531.084,5.836.05,1.516.026c.341.009.516.027.516.027s-.175.018-.516.027l-1.516.026-5.836.05-21.531.084-14.918.033-2.03.005c-.673.05-1.356.043-2.034.138a16.2,16.2,0,0,0-2.036.381l-1.015.267c-.334.107-.661.242-.994.363A17.314,17.314,0,0,0,606.3,79a17.957,17.957,0,0,0-3.971,8.3,18.267,18.267,0,0,0,.8,9.6A17.793,17.793,0,0,0,609,104.884a18.214,18.214,0,0,0,4.452,2.475,18.994,18.994,0,0,0,5.038,1.068l.145.011.07.124,2.485,4.376,1.706,3.006-.444-.024,5.238-7.328.08-.111h.135l36.924.029a18.346,18.346,0,0,0,7.924-1.451A18.129,18.129,0,0,0,682.1,83.942a19.351,19.351,0,0,0-2.667-4.615,18.3,18.3,0,0,0-6.656-5.155,19.232,19.232,0,0,0-6.971-1.559" transform="translate(12.686 2.844)" fill="#263238"/>
        <path id="Trazado_237363" data-name="Trazado 237363" d="M621.993,84.555l1.66,3.424,3.713.549-2.687,2.665.634,3.764-3.32-1.777-3.321,1.777.634-3.764-2.686-2.665,3.713-.549Z" transform="translate(13.004 3.322)" fill="#ffb500"/>
        <path id="Trazado_237364" data-name="Trazado 237364" d="M635.787,84.555l1.66,3.424,3.713.549-2.686,2.665.634,3.764-3.321-1.777-3.321,1.777.634-3.764-2.687-2.665,3.713-.549Z" transform="translate(13.295 3.322)" fill="#ffb500"/>
        <path id="Trazado_237365" data-name="Trazado 237365" d="M649.583,84.555l1.66,3.424,3.713.549-2.687,2.665.634,3.764-3.321-1.777-3.321,1.777.634-3.764-2.686-2.665,3.713-.549Z" transform="translate(13.586 3.322)" fill="#ffb500"/>
        <path id="Trazado_237366" data-name="Trazado 237366" d="M663.378,84.555l1.66,3.424,3.713.549-2.686,2.665.634,3.764-3.32-1.777-3.321,1.777.634-3.764L658,88.529l3.713-.549Z" transform="translate(13.877 3.322)" fill="#ffb500"/>
      </g>
    </g>
    <g id="Grupo_165499" data-name="Grupo 165499" transform="translate(195.689 2933.182)">
      <g id="Grupo_165509" data-name="Grupo 165509">
        <path id="Trazado_237432" data-name="Trazado 237432" d="M209.653,153.122s-8.088,44.992-7.7,49.2,2.541,10.9,7.42,12.047a21.919,21.919,0,0,0,9.37,0L212.89,159.1Z" transform="translate(-201.942 -35.833)" fill="#ffc09d"/>
        <path id="Trazado_237433" data-name="Trazado 237433" d="M230.514,124.25l-.567-46.491c-.517-11.561,5.779-21.5,17.35-21.694l1.07.044a20.686,20.686,0,0,1,19.821,19.854c.393,10.024.7,21.1.411,26.46-.6,11.088-11.763,12.356-11.763,12.356-.025,0-.069,6.749-.063,10.009l-8.93,12.389v.662Z" transform="translate(-199.186 -48.241)" fill="#ffc09d"/>
        <path id="Trazado_237434" data-name="Trazado 237434" d="M255.7,109.948a26.828,26.828,0,0,1-14.269-4.867s3.131,8.485,14.242,7.943Z" transform="translate(-198.052 -43.413)" fill="#ff9b6c"/>
        <path id="Trazado_237435" data-name="Trazado 237435" d="M261.825,83.026a1.586,1.586,0,0,1-1.594,1.536,1.516,1.516,0,0,1-1.573-1.5,1.585,1.585,0,0,1,1.592-1.537,1.517,1.517,0,0,1,1.575,1.5" transform="translate(-196.355 -45.733)" fill="#263238"/>
        <path id="Trazado_237436" data-name="Trazado 237436" d="M262.986,78.711c-.2.2-1.369-.739-3.074-.805-1.7-.091-2.99.735-3.166.518-.087-.1.129-.461.69-.836a4.354,4.354,0,0,1,2.545-.67,4.187,4.187,0,0,1,2.435.9c.507.424.67.805.569.894" transform="translate(-196.545 -46.187)" fill="#263238"/>
        <path id="Trazado_237437" data-name="Trazado 237437" d="M247.963,83.026a1.585,1.585,0,0,1-1.594,1.535,1.515,1.515,0,0,1-1.574-1.5,1.587,1.587,0,0,1,1.593-1.537,1.518,1.518,0,0,1,1.575,1.5" transform="translate(-197.721 -45.733)" fill="#263238"/>
        <path id="Trazado_237438" data-name="Trazado 237438" d="M247.758,78.442c-.205.2-1.371-.739-3.075-.805-1.7-.09-2.989.735-3.166.518-.087-.1.128-.46.691-.835a4.355,4.355,0,0,1,2.544-.671,4.191,4.191,0,0,1,2.437.9c.506.424.669.805.569.893" transform="translate(-198.045 -46.214)" fill="#263238"/>
        <path id="Trazado_237439" data-name="Trazado 237439" d="M252.291,91.714a11.358,11.358,0,0,1,2.79-.386c.437-.026.852-.1.938-.39a2.222,2.222,0,0,0-.237-1.3q-.549-1.6-1.15-3.368c-1.594-4.794-2.728-8.728-2.534-8.791s1.642,3.773,3.235,8.566q.573,1.773,1.1,3.387a2.523,2.523,0,0,1,.156,1.718,1.093,1.093,0,0,1-.743.606,2.974,2.974,0,0,1-.744.073,11.039,11.039,0,0,1-2.807-.112" transform="translate(-197.003 -46.132)" fill="#263238"/>
        <path id="Trazado_237440" data-name="Trazado 237440" d="M248.6,73.625c-.249.425-1.885-.1-3.9-.226-2.01-.167-3.7.115-3.89-.342-.08-.218.276-.6,1-.918a6.79,6.79,0,0,1,5.933.433c.668.424.966.85.855,1.053" transform="translate(-198.114 -46.706)" fill="#263238"/>
        <path id="Trazado_237441" data-name="Trazado 237441" d="M263.3,74.157c-.365.378-1.743-.06-3.413-.124-1.666-.112-3.09.179-3.405-.235-.137-.2.1-.582.723-.933A5.381,5.381,0,0,1,260,72.3a5.294,5.294,0,0,1,2.7.85c.579.414.762.818.6,1" transform="translate(-196.573 -46.642)" fill="#263238"/>
        <path id="Trazado_237442" data-name="Trazado 237442" d="M231.143,83.366c-.186-.09-7.53-2.569-7.6,5.026s7.569,6.1,7.584,5.881.016-10.907.016-10.907" transform="translate(-199.814 -45.597)" fill="#ffc09d"/>
        <path id="Trazado_237443" data-name="Trazado 237443" d="M228.66,91.155c-.033-.024-.133.091-.358.192a1.324,1.324,0,0,1-.989.01c-.8-.3-1.463-1.582-1.487-2.951a4.371,4.371,0,0,1,.388-1.891,1.534,1.534,0,0,1,1.005-1.007.675.675,0,0,1,.778.37c.1.214.049.365.09.378.021.02.164-.125.105-.439a.842.842,0,0,0-.294-.479,1,1,0,0,0-.729-.2,1.86,1.86,0,0,0-1.393,1.164,4.485,4.485,0,0,0-.479,2.112c.034,1.531.8,2.97,1.9,3.3a1.415,1.415,0,0,0,1.212-.189c.237-.186.279-.355.253-.369" transform="translate(-199.642 -45.378)" fill="#ff9b6c"/>
        <path id="Trazado_237444" data-name="Trazado 237444" d="M247.42,91.4c.261-.016.272,1.728,1.771,2.959s3.354,1.03,3.369,1.274c.024.11-.413.341-1.2.366a4.349,4.349,0,0,1-2.812-.966,3.783,3.783,0,0,1-1.372-2.482c-.07-.729.122-1.162.242-1.152" transform="translate(-197.487 -44.761)" fill="#263238"/>
        <path id="Trazado_237445" data-name="Trazado 237445" d="M284.538,66.673a1.8,1.8,0,0,0-.834-1.06,5.539,5.539,0,0,0-2.835-.494A15.993,15.993,0,0,1,273.94,63.3,7.924,7.924,0,0,0,276,61.883a4.77,4.77,0,0,0,1.426-4.725,1.059,1.059,0,0,0-.588-.733c-.492-.157-.929.323-1.278.7a4.1,4.1,0,0,1-3.882,1.592,6.726,6.726,0,0,1-2.877-.886c-.033-.034-.062-.073-.094-.107-.39-.412-.771-.806-1.147-1.187l0,0v0c-2.825-2.866-5.26-4.858-7.779-5.9-3.691-1.536-9.884-2.21-13.762-1.24s-7.386,4.068-7.969,8.022c-2.148-1.858-5.4-1.88-8.055-.848l-.066-.03c-2.953,1.015-4.659,4.1-5.561,7.092-.049.164-.092.33-.14.494a11.658,11.658,0,0,1-4,3.82c-.287.163-.615.361-.654.689s.233.6.5.789a5.856,5.856,0,0,0,2.368,1.015,13.1,13.1,0,0,1-1,2.056c-.338.558-.74,1.227-.457,1.815a1.239,1.239,0,0,0,1.292.58,3.627,3.627,0,0,0,1.376-.6q-.506,1.172-1.011,2.344a6.941,6.941,0,0,0,3.2-.177c.593,2.812,1,8.011,1.7,9.921,2.016.058,2.508-.156,3.521.193,1.311.451.782,2.774,2.5,2.132.874-.327,2.25-3.614,2.552-4.5a43.364,43.364,0,0,0,2.086-18.335,13.955,13.955,0,0,1,4.34-3.058l-.133.118c3.118-1.044,6.643-2.064,9.572-.573,2.272,1.158,3.589,3.544,5.276,5.456a15.9,15.9,0,0,0,11.667,5.842c.4,3.358.464,8.843.592,11.973l2.743-6.232v.025c.221-.365.4-.733.579-1.1l.06-.112v-.014a19.585,19.585,0,0,1,.9-1.77l.03.027a1.955,1.955,0,0,0,2.886-2.582,4.428,4.428,0,0,0-.934-.961,3.091,3.091,0,0,0,2.936.8,2.427,2.427,0,0,0,1.743-2.38,2.063,2.063,0,0,0-1.211-1.669,6.973,6.973,0,0,0,3.973-.828c.788-.437,1.563-1.163,1.309-2.151" transform="translate(-200.206 -48.943)" fill="#263238"/>
        <path id="Trazado_237446" data-name="Trazado 237446" d="M241.044,57.854a9.6,9.6,0,0,0-1.127,1.007,7.991,7.991,0,0,0-1.748,3.671,14.08,14.08,0,0,0-.316,2.821c-.015,1.024.054,2.121.12,3.277a29.42,29.42,0,0,1,.042,3.646,12.986,12.986,0,0,1-.272,1.92,4.009,4.009,0,0,1-.806,1.856,1.677,1.677,0,0,1-1.574.509,2.5,2.5,0,0,1-1.4-.813,5.766,5.766,0,0,1-1.038-2.839l.233.031a9.308,9.308,0,0,1-1.38,2.313,3.307,3.307,0,0,1-2.175,1.152,2.13,2.13,0,0,1-1.144-.213,1.851,1.851,0,0,1-.77-.776,1.911,1.911,0,0,1-.225-.989,1.384,1.384,0,0,1,.367-.86l.116.107a7.157,7.157,0,0,1-2.408,1.764,6.42,6.42,0,0,1-.743.279,1.239,1.239,0,0,1-.266.063,1.3,1.3,0,0,1,.252-.1c.166-.066.413-.161.721-.314a7.376,7.376,0,0,0,2.326-1.792l.116.107a1.427,1.427,0,0,0-.092,1.651,1.666,1.666,0,0,0,.7.687,1.935,1.935,0,0,0,1.037.181,3.1,3.1,0,0,0,2.019-1.1,9.149,9.149,0,0,0,1.328-2.264l.165-.355.069.387a5.561,5.561,0,0,0,.989,2.711,2.242,2.242,0,0,0,1.254.727,1.415,1.415,0,0,0,1.339-.431,3.8,3.8,0,0,0,.744-1.738,12.792,12.792,0,0,0,.271-1.88,29.936,29.936,0,0,0-.027-3.615c-.058-1.156-.121-2.257-.1-3.294a13.96,13.96,0,0,1,.353-2.858,7.86,7.86,0,0,1,1.853-3.7,4.5,4.5,0,0,1,1.2-.938" transform="translate(-199.717 -48.065)" fill="#455a64"/>
        <path id="Trazado_237447" data-name="Trazado 237447" d="M273.79,69.614a.41.41,0,0,1-.09.075c-.076.054-.167.12-.28.2a3.583,3.583,0,0,1-.473.3,5.793,5.793,0,0,1-.681.348,9.848,9.848,0,0,1-4.767.8,12.593,12.593,0,0,1-6.68-2.553,21.819,21.819,0,0,1-5.687-6.709c-.793-1.354-1.437-2.742-2.149-4.025a14.755,14.755,0,0,0-2.445-3.412,7.59,7.59,0,0,0-3.18-1.981,5.435,5.435,0,0,0-1.687-.213,5.936,5.936,0,0,0-1.549.279,6.423,6.423,0,0,0-3.606,2.982,7.746,7.746,0,0,0-.593,1.66.392.392,0,0,1,.01-.116c.015-.092.034-.2.057-.341a5.581,5.581,0,0,1,.436-1.25,6.344,6.344,0,0,1,1.263-1.673,6.517,6.517,0,0,1,2.375-1.437,6.175,6.175,0,0,1,1.6-.305,5.618,5.618,0,0,1,1.754.208,7.772,7.772,0,0,1,3.29,2.017,14.832,14.832,0,0,1,2.5,3.459c.721,1.292,1.364,2.676,2.151,4.018a21.828,21.828,0,0,0,5.6,6.646,12.532,12.532,0,0,0,6.552,2.563,10.009,10.009,0,0,0,4.713-.712,15.5,15.5,0,0,0,1.565-.826" transform="translate(-198.201 -48.618)" fill="#455a64"/>
        <path id="Trazado_237448" data-name="Trazado 237448" d="M272.781,63.62a1.747,1.747,0,0,1-.4.274,8.578,8.578,0,0,1-1.188.585,11.393,11.393,0,0,1-1.875.592,12.112,12.112,0,0,1-4.8.1,11.605,11.605,0,0,1-1.9-.515,8.612,8.612,0,0,1-1.211-.536,1.831,1.831,0,0,1-.413-.256c.023-.044.633.279,1.683.618a13.157,13.157,0,0,0,1.88.453,12.94,12.94,0,0,0,4.707-.1,13.112,13.112,0,0,0,1.86-.529c1.035-.382,1.631-.73,1.655-.688" transform="translate(-196.125 -47.497)" fill="#455a64"/>
        <path id="Trazado_237449" data-name="Trazado 237449" d="M247.452,384.9l-1.1,25.107s25.152,9.548,25.4,14.208L223,423.833l.1-39.192Z" transform="translate(-199.868 -7.245)" fill="#455a64"/>
        <path id="Trazado_237450" data-name="Trazado 237450" d="M230.679,405.708a1.992,1.992,0,0,0-1.4,2.262,1.915,1.915,0,0,0,2.23,1.4,2.1,2.1,0,0,0,1.464-2.4,1.985,1.985,0,0,0-2.48-1.2" transform="translate(-199.253 -5.177)" fill="#e0e0e0"/>
        <g id="Grupo_165491" data-name="Grupo 165491" transform="translate(23.129 412.639)" opacity="0.6">
          <g id="Grupo_165490" data-name="Grupo 165490">
            <g id="Grupo_165489" data-name="Grupo 165489" clip-path="url(#clip-path-11)">
              <path id="Trazado_237451" data-name="Trazado 237451" d="M223,420.673l.165-3.95,46.688,1.841s2.163.962,1.906,2.489Z" transform="translate(-222.997 -416.724)" fill="#fff"/>
            </g>
          </g>
        </g>
        <path id="Trazado_237452" data-name="Trazado 237452" d="M245.381,407.531c-.01.238-1.2.337-2.378,1.093-1.2.726-1.809,1.752-2.028,1.657-.219-.048.147-1.469,1.588-2.36s2.872-.609,2.818-.39" transform="translate(-198.103 -5.012)" fill="#263238"/>
        <path id="Trazado_237453" data-name="Trazado 237453" d="M249.914,409.482c.053.231-.981.628-1.8,1.629-.846.977-1.058,2.063-1.3,2.051-.224.036-.378-1.36.661-2.585s2.429-1.323,2.432-1.1" transform="translate(-197.537 -4.808)" fill="#263238"/>
        <path id="Trazado_237454" data-name="Trazado 237454" d="M252.247,415.432c-.216.049-.538-1.144.083-2.442s1.738-1.809,1.838-1.61c.133.2-.6.891-1.09,1.965-.519,1.062-.6,2.065-.832,2.087" transform="translate(-197.014 -4.615)" fill="#263238"/>
        <path id="Trazado_237455" data-name="Trazado 237455" d="M245.086,402.355c-.1.216-1.192-.121-2.538-.04-1.349.053-2.4.5-2.522.291-.136-.172.893-1.046,2.48-1.119s2.7.681,2.579.868" transform="translate(-198.192 -5.586)" fill="#263238"/>
        <path id="Trazado_237456" data-name="Trazado 237456" d="M245.25,402.018a40.811,40.811,0,0,1,.067,6.046l-.194-.3c2.847,1.081,6.635,2.54,10.658,4.437a57.19,57.19,0,0,1,10.8,6.223,11.555,11.555,0,0,1,2.673,2.722c.507.782.439,1.382.36,1.352A3.4,3.4,0,0,0,269,421.33a13.587,13.587,0,0,0-2.759-2.443,70.788,70.788,0,0,0-10.8-5.944c-4-1.885-7.742-3.409-10.537-4.605l-.207-.089.012-.209a40.782,40.782,0,0,1,.547-6.022" transform="translate(-197.731 -5.533)" fill="#263238"/>
        <path id="Trazado_237457" data-name="Trazado 237457" d="M216.556,225.5v22.755l8.976,72.664s-2.845,34.077-4.592,53.312c-1.517,16.706.962,45.8.962,45.8h26.613L258.037,323l5.91-60.509,10.719-35.842Z" transform="translate(-200.502 -22.922)" fill="#263238"/>
        <path id="Trazado_237458" data-name="Trazado 237458" d="M262.456,381.445l-6.97,24.145s22.2,15.195,21.348,19.782l-47.3-11.833,9.316-38.068Z" transform="translate(-199.224 -8.148)" fill="#455a64"/>
        <path id="Trazado_237459" data-name="Trazado 237459" d="M240.48,397.695a1.99,1.99,0,0,0-1.887,1.87,1.914,1.914,0,0,0,1.838,1.887,2.1,2.1,0,0,0,1.988-1.992,1.986,1.986,0,0,0-2.129-1.75" transform="translate(-198.332 -5.961)" fill="#e0e0e0"/>
        <g id="Grupo_165494" data-name="Grupo 165494" transform="translate(30.308 401.591)" opacity="0.6">
          <g id="Grupo_165493" data-name="Grupo 165493">
            <g id="Grupo_165492" data-name="Grupo 165492" clip-path="url(#clip-path-12)">
              <path id="Trazado_237460" data-name="Trazado 237460" d="M229.532,410.466l1.089-3.8,44.947,12.766s1.876,1.443,1.267,2.867Z" transform="translate(-229.532 -406.666)" fill="#fff"/>
            </g>
          </g>
        </g>
        <path id="Trazado_237461" data-name="Trazado 237461" d="M254.356,402.89c-.065.23-1.247.045-2.568.5-1.335.424-2.171,1.279-2.361,1.134-.2-.1.489-1.393,2.1-1.92s2.933.083,2.83.283" transform="translate(-197.268 -5.496)" fill="#263238"/>
        <path id="Trazado_237462" data-name="Trazado 237462" d="M258.316,405.861c0,.237-1.1.379-2.131,1.16-1.051.75-1.514,1.758-1.741,1.69-.226-.018-.047-1.41,1.25-2.356s2.673-.715,2.622-.493" transform="translate(-196.778 -5.174)" fill="#263238"/>
        <path id="Trazado_237463" data-name="Trazado 237463" d="M259.186,412.209c-.222,0-.255-1.238.655-2.354s2.116-1.35,2.165-1.133c.083.222-.788.725-1.52,1.653-.755.911-1.064,1.868-1.3,1.833" transform="translate(-196.316 -4.88)" fill="#263238"/>
        <path id="Trazado_237464" data-name="Trazado 237464" d="M255.249,397.813c-.149.186-1.129-.4-2.457-.635-1.323-.266-2.449-.081-2.519-.31-.092-.2,1.114-.807,2.674-.505s2.462,1.3,2.3,1.45" transform="translate(-197.182 -6.098)" fill="#263238"/>
        <path id="Trazado_237465" data-name="Trazado 237465" d="M283.618,226.91l1.222,12.376-1.475,89.865L262.3,401.34l-5.1,17.507-27.185-5.119L250.97,226.935Z" transform="translate(-199.176 -22.783)" fill="#263238"/>
        <path id="Trazado_237466" data-name="Trazado 237466" d="M282.824,328.769s-.029.146-.1.427-.194.707-.343,1.247c-.315,1.114-.774,2.734-1.37,4.835-1.217,4.234-2.987,10.389-5.219,18.148L257.456,416.65l-.06.208-.213-.039L230,411.711l-.249-.046.047-.249c1.387-7.325,2.836-14.979,4.315-22.784l12.151-63.971v.078c-4.5-28.26-8.092-50.8-10.154-63.737l.012.034c-1.976-3.6-3.5-6.369-4.54-8.26q-.758-1.4-1.158-2.135c-.257-.481-.377-.734-.377-.734s.152.234.425.706q.417.732,1.205,2.11l4.628,8.21.009.016,0,.019c2.11,12.931,5.786,35.454,10.4,63.7l.007.04-.008.04c-3.6,19.054-7.725,40.861-12.1,63.98-1.48,7.8-2.931,15.459-4.32,22.784l-.2-.3,27.182,5.133-.273.168c7.53-25.7,13.96-47.641,18.51-63.172,2.288-7.743,4.1-13.885,5.35-18.11.627-2.092,1.111-3.7,1.444-4.813l.381-1.237c.088-.277.142-.415.142-.415" transform="translate(-199.203 -20.517)" fill="#455a64"/>
        <path id="Trazado_237467" data-name="Trazado 237467" d="M275.693,233.619a8.548,8.548,0,0,1-1.48,2.172,20.019,20.019,0,0,1-10.705,6.523,8.492,8.492,0,0,1-2.608.319,24.543,24.543,0,0,0,14.793-9.013" transform="translate(-196.134 -26.37)" fill="#455a64"/>
        <path id="Trazado_237468" data-name="Trazado 237468" d="M328.309,110.332a1.15,1.15,0,0,0-.256-1.585.568.568,0,0,0-.408-.12c-.544.09-1.976,1.136-3.079,1.155s-2.978-.32-4.081.7-3.791,6.639-4.133,7.858-1.537,11.928-1.537,11.928Z" transform="translate(-190.823 -41.602)" fill="#ffc09d"/>
        <path id="Trazado_237469" data-name="Trazado 237469" d="M333.146,108.9c-.059.067-13.193,5.864-18.961,8.408a1.959,1.959,0,0,0-.561,3.216,2.05,2.05,0,0,0,2.347.366l18.848-9.184,1.553-2.361Z" transform="translate(-191 -43.036)" fill="#263238"/>
        <path id="Trazado_237470" data-name="Trazado 237470" d="M319.28,120.727l4.188-3.085,5.53-8.024s2.263-1.345,3.436-.5,1.557,1.827,1.012,2.923c0,0,3.123.746,3.347,1.792a11.945,11.945,0,0,1-.451,3.591,6.306,6.306,0,0,1,.023,2.989,4.806,4.806,0,0,0-.394,1.929s2.023,2.476,1.153,5.008-4.519,8.182-6.47,9.643a42.476,42.476,0,0,1-5.647,3.212l-2.412,5.054-10.015-9.067Z" transform="translate(-191.043 -41.517)" fill="#ffc09d"/>
        <path id="Trazado_237471" data-name="Trazado 237471" d="M328.1,109.863a2.324,2.324,0,0,1-.25.433l-.747,1.136c-.637.955-1.529,2.265-2.526,3.7l-1.413,2.027a5.04,5.04,0,0,1-.719.825,3.483,3.483,0,0,1-.8.521,6.638,6.638,0,0,1-1.3.436,2.129,2.129,0,0,1-.492.089,2.706,2.706,0,0,1,.471-.166,8.188,8.188,0,0,0,1.255-.488c1.08-.454,1.8-1.962,2.83-3.36,1-1.439,1.907-2.736,2.575-3.67l.8-1.1a2.414,2.414,0,0,1,.316-.387" transform="translate(-190.326 -42.942)" fill="#ff9b6c"/>
        <path id="Trazado_237472" data-name="Trazado 237472" d="M328.534,118.016a30.865,30.865,0,0,1,1.614-3.154,30.606,30.606,0,0,1,1.793-3.055,30.986,30.986,0,0,1-1.614,3.154,30.726,30.726,0,0,1-1.793,3.055" transform="translate(-189.472 -42.75)" fill="#ff9b6c"/>
        <path id="Trazado_237473" data-name="Trazado 237473" d="M329.937,122.182c-.032,0-.047-.179-.149-.44a1.849,1.849,0,0,0-.651-.837,1.885,1.885,0,0,0-1.014-.323c-.28-.009-.455.037-.465.007s.156-.121.46-.152a1.737,1.737,0,0,1,1.135.3,1.7,1.7,0,0,1,.672.961c.075.3.035.486.012.484" transform="translate(-189.558 -41.901)" fill="#ff9b6c"/>
        <path id="Trazado_237474" data-name="Trazado 237474" d="M334.227,123.509c-.02.022-.175-.093-.413-.283a4.919,4.919,0,0,0-.979-.639,1.875,1.875,0,0,0-1.105-.18,1.12,1.12,0,0,0-.414.211c-.03,0,.046-.242.375-.35a1.748,1.748,0,0,1,1.229.134,3.441,3.441,0,0,1,.99.717c.219.221.336.371.318.391" transform="translate(-189.198 -40.021)" fill="#ff9b6c"/>
        <path id="Trazado_237475" data-name="Trazado 237475" d="M332.332,119.834a8.793,8.793,0,0,1,.918-1.64,8.655,8.655,0,0,1,1.091-1.532,8.783,8.783,0,0,1-.918,1.641,8.679,8.679,0,0,1-1.091,1.531" transform="translate(-189.098 -42.272)" fill="#ff9b6c"/>
        <path id="Trazado_237476" data-name="Trazado 237476" d="M325.208,120.036c-.033,0-.027-.174-.1-.423a1.575,1.575,0,0,0-.566-.808,1.621,1.621,0,0,0-.945-.291c-.262,0-.424.055-.436.024s.138-.127.425-.168a1.513,1.513,0,0,1,1.076.269,1.484,1.484,0,0,1,.587.941c.046.286-.013.46-.036.456" transform="translate(-190.001 -42.105)" fill="#ff9b6c"/>
        <path id="Trazado_237477" data-name="Trazado 237477" d="M315.161,120.149c-.024-.027.181-.183.361-.532a1.811,1.811,0,0,0,.1-1.456,1.912,1.912,0,0,0-1.041-1.032c-.363-.15-.62-.145-.619-.18a1,1,0,0,1,.668.044,1.9,1.9,0,0,1,1.183,1.094,1.817,1.817,0,0,1-.164,1.6c-.231.359-.478.478-.487.46" transform="translate(-190.907 -42.247)" fill="#455a64"/>
        <path id="Trazado_237478" data-name="Trazado 237478" d="M285.009,144.326l15.884,13.6,19.5-29.131,12.679,7.48s-19,43.744-24.153,47.608-9.5,2.863-16.122-.2-30.227-26.822-30.227-26.822Z" transform="translate(-195.97 -38.921)" fill="#ffc09d"/>
        <path id="Trazado_237479" data-name="Trazado 237479" d="M298.032,167.416c-.156-.024.277-2.77.085-6.164-.17-3.4-.893-6.08-.741-6.12a20.906,20.906,0,0,1,.657,12.283" transform="translate(-192.543 -35.943)" fill="#ff9b6c"/>
        <path id="Trazado_237480" data-name="Trazado 237480" d="M226.148,122.718s13.5.2,13.7,17.028-3.438,39.346-3.438,39.346l-34.468-6.075s4.275-31.335,7.926-40.359c3.673-9.081,10.691-11.471,16.28-9.94" transform="translate(-201.942 -39.741)" fill="#a3314f"/>
        <path id="Trazado_237481" data-name="Trazado 237481" d="M231.633,111.65l-.43,2.744s-18.422,12.171-19.463,15.314c-1.616,4.871,1.907,46.019,3.461,57.68s1.87,37.365,1.87,37.365c-1.13,3.026-2.416,5.757-2.841,9.982-.422,4.189,2.841,8.011,2.841,8.011,19.767,6.45,43.913,8.5,70.035,2.542l-.246-7.405-8.54-87.445s2.488-20.909-7.712-26.962c-1.12-.665-10.018-5.72-10.018-5.72Z" transform="translate(-201.018 -40.6)" fill="#a3314f"/>
        <g id="Grupo_165497" data-name="Grupo 165497" transform="translate(60.239 106.228)" opacity="0.3">
          <g id="Grupo_165496" data-name="Grupo 165496">
            <g id="Grupo_165495" data-name="Grupo 165495" clip-path="url(#clip-path-13)">
              <path id="Trazado_237482" data-name="Trazado 237482" d="M256.779,143.4a62.371,62.371,0,0,0,6.07,24.814,73.509,73.509,0,0,0,15.5,21.506l-2.764-24.071Z" transform="translate(-256.779 -143.395)"/>
            </g>
          </g>
        </g>
        <path id="Trazado_237483" data-name="Trazado 237483" d="M272.507,125.164c-3.23-2.613-9.236-4.034-12.664-1.684a10.321,10.321,0,0,0-4.158,5.119c-2.925,8.554-1.176,17.751,1.164,24.577S270.5,173.149,270.5,173.149l27.949-16.963s-18.707-22.674-20.657-25.016c-1.017-1.222-3.493-4.554-5.287-6.006" transform="translate(-196.799 -39.774)" fill="#a3314f"/>
        <path id="Trazado_237484" data-name="Trazado 237484" d="M272.525,125.174a4.86,4.86,0,0,1,.591.472,20.318,20.318,0,0,1,1.541,1.565c1.3,1.426,3,3.65,5.308,6.359l18.682,22.478.17.205-.228.138-26.407,16.058-1.529.928-.187.113-.139-.166c-3.125-3.694-6.03-7.407-8.636-11.143a59.61,59.61,0,0,1-3.565-5.681,23.7,23.7,0,0,1-1.376-2.968c-.375-1.01-.673-2.022-.97-3.026-2.334-8.027-2.394-15.9-.265-21.891a8.949,8.949,0,0,1,9.294-6.417,12.9,12.9,0,0,1,2.893.494,13.724,13.724,0,0,1,3.7,1.633,6.632,6.632,0,0,1,1.125.848c-.022.03-.384-.3-1.179-.761a14.354,14.354,0,0,0-3.7-1.53,12.842,12.842,0,0,0-2.854-.444,9.285,9.285,0,0,0-3.374.439,10.048,10.048,0,0,0-5.57,5.852c-2.055,5.923-1.963,13.694.376,21.647.3.992.6,2,.97,2.993a23.185,23.185,0,0,0,1.354,2.9A59.562,59.562,0,0,0,262.1,161.9c2.6,3.711,5.5,7.418,8.614,11.094l-.326-.052,1.529-.928L298.35,156l-.058.344-18.537-22.594c-2.276-2.735-3.956-4.994-5.207-6.441-.623-.726-1.129-1.26-1.483-1.607s-.551-.512-.539-.526" transform="translate(-196.817 -39.785)" fill="#263238"/>
        <path id="Trazado_237485" data-name="Trazado 237485" d="M211.375,136.57a1.793,1.793,0,0,1,.08.488c.035.379.077.843.129,1.4.094,1.3.221,3.045.375,5.168.281,4.437.661,10.43,1.082,17.054.436,6.66.893,12.683,1.289,17.038.2,2.118.359,3.86.479,5.155.049.56.09,1.024.123,1.4a1.817,1.817,0,0,1,.008.494,1.8,1.8,0,0,1-.11-.481c-.059-.377-.131-.837-.219-1.393-.177-1.212-.4-2.968-.641-5.144-.488-4.349-1-10.375-1.439-17.039s-.734-12.7-.933-17.069c-.087-2.126-.158-3.876-.212-5.176-.013-.562-.024-1.028-.033-1.409a1.8,1.8,0,0,1,.023-.493" transform="translate(-201.015 -38.006)" fill="#263238"/>
        <path id="Trazado_237486" data-name="Trazado 237486" d="M272.369,225.5a2.121,2.121,0,0,1-.517.161l-1.508.367c-.655.162-1.462.33-2.4.505s-2.011.392-3.2.57c-2.376.41-5.229.742-8.4,1.051-3.176.266-6.678.46-10.357.508-3.681.026-7.186-.1-10.368-.311-3.178-.257-6.037-.545-8.418-.932-1.194-.165-2.267-.362-3.208-.543s-1.751-.333-2.406-.494l-1.509-.363a2.238,2.238,0,0,1-.517-.16,2.137,2.137,0,0,1,.54.059l1.526.268c.659.132,1.471.266,2.416.408s2.015.325,3.209.466c2.378.341,5.231.59,8.4.821,3.171.183,6.664.3,10.33.269,3.667-.046,7.156-.226,10.323-.466,3.164-.282,6.012-.577,8.388-.938,1.192-.155,2.264-.336,3.205-.494s1.754-.288,2.415-.42l1.525-.272a2.189,2.189,0,0,1,.54-.06" transform="translate(-200.207 -27.424)" fill="#263238"/>
      </g>
    </g>
    <g id="Grupo_876254" data-name="Grupo 876254" transform="translate(392.624 2929.459)">
      <g id="Grupo_165508" data-name="Grupo 165508">
        <path id="Trazado_237373" data-name="Trazado 237373" d="M543.555,85.619s-4.884,18.259-5.3,31.178l-.14,4.3s10.775,8.947,19.814,9.5l7.576-18.628Z" transform="translate(-397.781 -43.632)" fill="#263238"/>
        <path id="Trazado_237374" data-name="Trazado 237374" d="M591.188,98.154c-2.06-8.906-2.851-19.271-10.257-25.078-5.5-4.309-11.757-5.511-18.734-5.218-3.436.144-7.316,1.73-10.307,3.423-4.1,2.323-5.841,7.033-7.821,11.311-3.966,8.573-3.463,20.182-.777,23.408l35.823,18.917c7.153-3.723,11.634-5.205,12.778-14.741a34.937,34.937,0,0,0-.7-12.022" transform="translate(-397.55 -44.967)" fill="#263238"/>
        <path id="Trazado_237375" data-name="Trazado 237375" d="M580.376,79.763l-22.544-6.652c-7.263-1.058-12.465,7.731-13.214,15.031-.832,8.111-1.528,18.047-.8,24.152,1.456,12.276,10.746,14.2,10.746,14.2,0-.041.021.184-.052,3.81l-.028,7.47c-.1,2.376.321,3.175,1.775,5.057,3.325,4.308,9.385,4.883,16.531,2.239,4.142-1.532,7.021-4.614,7.338-8.813l3.92-51.986a4.3,4.3,0,0,0-3.668-4.5" transform="translate(-397.376 -44.577)" fill="#ae7461"/>
        <path id="Trazado_237376" data-name="Trazado 237376" d="M546.534,97.515a1.566,1.566,0,0,0,1.447,1.637,1.5,1.5,0,0,0,1.667-1.347,1.565,1.565,0,0,0-1.444-1.638,1.5,1.5,0,0,0-1.671,1.348" transform="translate(-397.149 -42.841)" fill="#263238"/>
        <path id="Trazado_237377" data-name="Trazado 237377" d="M545.93,94.037c.186.212,1.406-.619,3.09-.548,1.682.046,2.883.961,3.074.762.094-.088-.09-.463-.613-.876a4.3,4.3,0,0,0-2.451-.863,4.127,4.127,0,0,0-2.469.691c-.533.377-.724.74-.631.834" transform="translate(-397.196 -43.115)" fill="#263238"/>
        <path id="Trazado_237378" data-name="Trazado 237378" d="M560.3,97.74a1.565,1.565,0,0,0,1.447,1.637,1.5,1.5,0,0,0,1.668-1.347,1.568,1.568,0,0,0-1.446-1.638,1.5,1.5,0,0,0-1.67,1.348" transform="translate(-396.116 -42.824)" fill="#263238"/>
        <path id="Trazado_237379" data-name="Trazado 237379" d="M561.335,94.221c.187.212,1.408-.618,3.089-.547,1.683.046,2.884.96,3.076.761.093-.087-.088-.463-.613-.876a4.307,4.307,0,0,0-2.452-.863,4.124,4.124,0,0,0-2.468.691c-.532.377-.724.74-.632.834" transform="translate(-396.04 -43.101)" fill="#263238"/>
        <path id="Trazado_237380" data-name="Trazado 237380" d="M555.53,105.245a11.2,11.2,0,0,0-2.716-.6c-.428-.061-.831-.162-.892-.459a2.187,2.187,0,0,1,.335-1.263q.668-1.537,1.4-3.223c1.95-4.591,3.378-8.374,3.192-8.451s-1.916,3.582-3.865,8.173q-.7,1.7-1.346,3.246a2.475,2.475,0,0,0-.289,1.678,1.075,1.075,0,0,0,.681.657,2.956,2.956,0,0,0,.728.13,10.942,10.942,0,0,0,2.771.113" transform="translate(-396.792 -43.209)" fill="#263238"/>
        <path id="Trazado_237381" data-name="Trazado 237381" d="M553.746,123.017a31.058,31.058,0,0,0,16.51-3.715s-4.376,8.378-16.54,6.755Z" transform="translate(-396.61 -39.491)" fill="#6f4439"/>
        <path id="Trazado_237382" data-name="Trazado 237382" d="M560.673,107.832a2.443,2.443,0,0,0-1.986-1.186,3.178,3.178,0,0,0-2.95,1.319,1.975,1.975,0,0,0-.184,1.42c.1.246.018.124.2.3a5.557,5.557,0,0,0,2.216,1.5,2.385,2.385,0,0,0,2.552-.828,2.434,2.434,0,0,0,.152-2.521" transform="translate(-396.476 -42.055)" fill="#6f4439"/>
        <path id="Trazado_237383" data-name="Trazado 237383" d="M560.468,105.6c-.273-.027-.359,1.8-1.981,3.026s-3.557.936-3.583,1.191c-.031.115.417.375,1.239.435a4.554,4.554,0,0,0,2.986-.892,3.965,3.965,0,0,0,1.544-2.541c.1-.761-.079-1.223-.2-1.219" transform="translate(-396.521 -42.133)" fill="#263238"/>
        <path id="Trazado_237384" data-name="Trazado 237384" d="M560.741,88.45c.12.472,1.817.418,3.76.847,1.953.389,3.484,1.119,3.785.736.135-.185-.1-.641-.7-1.144a6.706,6.706,0,0,0-5.748-1.207c-.75.221-1.149.544-1.1.768" transform="translate(-396.083 -43.492)" fill="#263238"/>
        <path id="Trazado_237385" data-name="Trazado 237385" d="M546.063,89.871c.382.331,1.608-.247,3.149-.489,1.533-.289,2.887-.158,3.13-.6.1-.212-.157-.561-.779-.837a4.8,4.8,0,0,0-2.654-.249,4.738,4.738,0,0,0-2.4,1.124c-.489.469-.612.884-.441,1.048" transform="translate(-397.189 -43.482)" fill="#263238"/>
        <path id="Trazado_237386" data-name="Trazado 237386" d="M556.763,71.882c-.02.088-.038.177-.057.264l.042.018c.006-.095.01-.188.015-.283" transform="translate(-396.385 -44.662)" fill="#263238"/>
        <path id="Trazado_237387" data-name="Trazado 237387" d="M573.665,131.6c.345-3.2-.942-6.413-.569-9.609.4-3.387,2.59-6.291,3.491-9.581,1.443-5.27-.536-10.873-1.261-16.318a12.926,12.926,0,0,1-7.935-4.581c-2.448-2.853-3.927-6.388-5.368-9.859a16.509,16.509,0,0,0,3.319,9.483,4.452,4.452,0,0,1-3.8-1.235,9.953,9.953,0,0,1-2.232-3.466,27.091,27.091,0,0,1-2.161-9.761,35.075,35.075,0,0,0,1.594,14.253,6.1,6.1,0,0,0-2.653.1,2.91,2.91,0,0,1-2.524-.536,3.183,3.183,0,0,1-.691-1.628,36.587,36.587,0,0,1-.405-12.418,37.844,37.844,0,0,0-2.8,6.881,13.335,13.335,0,0,0-.052,7.344,1.078,1.078,0,0,1-1.516-.01,2.571,2.571,0,0,1-.663-1.533,18.885,18.885,0,0,1,.4-6.18c-1.22,2.162-1.626,4.671-2.3,7.061s-1.749,4.84-3.826,6.2a32.507,32.507,0,0,1,.305-9.364,28.256,28.256,0,0,1,2.745-7.431,22.069,22.069,0,0,1,4.947-6.887c3.6-3.149,5.1-1.793,7.393-.593l.272.114c.007-.056.011-.113.018-.169l.1-.489a34.452,34.452,0,0,1,18.137.848c4.328,1.412,4.725,10.729,5.78,6.3.64-2.68,4.112-.234,4.155-.157,5.1,9.207,10.515,23.811,10.762,46.889Z" transform="translate(-397.525 -44.762)" fill="#263238"/>
        <path id="Trazado_237388" data-name="Trazado 237388" d="M586.318,62.193a11.5,11.5,0,0,0-7.936-3.863,8.664,8.664,0,0,0-7.663,3.991,6.983,6.983,0,0,0,.944,8.35l3.771,3.018a10.326,10.326,0,0,0,8.565.831,7.447,7.447,0,0,0,4.835-6.794,8.758,8.758,0,0,0-2.517-5.532" transform="translate(-395.406 -45.68)" fill="#263238"/>
        <path id="Trazado_237389" data-name="Trazado 237389" d="M583.414,78.2c-.73.341-2.794-2.821-6.48-5.305-3.63-2.569-7.317-3.38-7.256-4.184.032-.366,1.07-.66,2.752-.487a14.091,14.091,0,0,1,10.465,7.23c.758,1.513.849,2.588.519,2.747" transform="translate(-395.412 -44.941)" fill="#455a64"/>
        <path id="Trazado_237390" data-name="Trazado 237390" d="M535.033,171.712l14.126-13.23,9.57,15.2c-.19,1.364-12.389,27.65-17.67,33.1-6.026,6.215-14.24,5.734-17.864-2.847-2.857-6.765-7.6-27.6-7.6-27.6Z" transform="translate(-399.47 -35.371)" fill="#a3314f"/>
        <path id="Trazado_237391" data-name="Trazado 237391" d="M549.495,133.923c-3.375,1.216-11.135,5.458-13.4,8.242a21.29,21.29,0,0,0-2.853,4.41c-1.767,3.888-5.126,32.717-5.126,32.717l15.044,10.9,13.1-50.424-.836-8Z" transform="translate(-398.53 -38.007)" fill="#a3314f"/>
        <path id="Trazado_237392" data-name="Trazado 237392" d="M543.6,222.4l.947-12.447a242.058,242.058,0,0,1-3.965-24.824c-1.693-18.339,3.088-29.737,3.743-31.67.371-1.1,10.2-21.445,10.2-21.445s2.063,6.269,10.354,4.786c11.561-2.067,15.773-8.335,15.773-8.335l14.938,3.23s5.82,23.373,6.677,31.117c.46,4.153-5.012,27.621-5.012,27.621l8.81,13.179c.263.648-3.827,18.658-4.627,19.4s-15.131,4.072-15.308,4.685-27.319,11.976-27.3,11.511-13.058-11-13.058-11Z" transform="translate(-397.623 -37.983)" fill="#a3314f"/>
        <path id="Trazado_237393" data-name="Trazado 237393" d="M540.338,154.319a2.127,2.127,0,0,1-.034.545c-.051.417-.111.928-.185,1.546-.159,1.342-.387,3.284-.586,5.691a81.639,81.639,0,0,0,.351,18.8c.966,7.307,2.375,13.842,3.284,18.593.462,2.375.815,4.3,1.04,5.636l.239,1.541a1.987,1.987,0,0,1,.045.544,2.074,2.074,0,0,1-.156-.524c-.092-.411-.205-.912-.342-1.52-.305-1.405-.715-3.3-1.214-5.6-1.007-4.727-2.481-11.261-3.452-18.6a75.745,75.745,0,0,1-.189-18.908c.249-2.41.537-4.35.763-5.685.115-.668.214-1.185.289-1.533a1.937,1.937,0,0,1,.146-.527" transform="translate(-397.741 -35.785)" fill="#263238"/>
        <path id="Trazado_237394" data-name="Trazado 237394" d="M606.911,208.592c2.678,4.545,10.794,21.942,13.171,30.828,10.848,40.545,20.027,95.07,23.074,106.182,4.063,14.806,13.157,48.305,17.787,70.614l-22.233,9.7s-29.118-78.461-37.062-97.741c-8.233-19.977-21.965-57.66-21.965-57.66l-7.933,149.466-21.3.658s-7.283-42.116-10.178-67.289-3.22-76.989-3.243-90.14c-.03-16.014,6.911-52.042,6.911-52.042s8.307,6.234,23.883,3.848c12.4-1.9,36.123-11.443,36.123-11.443Z" transform="translate(-397.862 -26.338)" fill="#263238"/>
        <path id="Trazado_237395" data-name="Trazado 237395" d="M563.621,219.035a10.27,10.27,0,0,0,.125,1.717c.114,1.1.307,2.69.569,4.651.52,3.922,1.336,9.328,2.4,15.271s2.173,11.3,3.043,15.159c.435,1.93.805,3.487,1.079,4.559a10.214,10.214,0,0,0,.479,1.652,10.242,10.242,0,0,0-.268-1.7c-.233-1.179-.537-2.726-.906-4.594-.772-3.878-1.819-9.237-2.882-15.175s-1.936-11.325-2.556-15.23c-.3-1.878-.552-3.436-.743-4.623a10.311,10.311,0,0,0-.337-1.688" transform="translate(-395.868 -29.426)" fill="#455a64"/>
        <path id="Trazado_237396" data-name="Trazado 237396" d="M570.958,218.784c.03,0-.033-.268-.415-.434a2.718,2.718,0,0,0-1.622-.053,3.269,3.269,0,0,0-1.062.434,1.779,1.779,0,0,0-.726,1.18,2.725,2.725,0,0,0,1.219,2.706,2.806,2.806,0,0,0,2.967.133,1.932,1.932,0,0,0,.819-1.105,2.752,2.752,0,0,0,.08-1.152,2.321,2.321,0,0,0-.717-1.462c-.306-.255-.538-.273-.543-.247-.021.045.17.133.389.4a2.344,2.344,0,0,1,.481,1.348,1.875,1.875,0,0,1-.775,1.785,2.345,2.345,0,0,1-2.4-.162A2.257,2.257,0,0,1,567.636,220a1.332,1.332,0,0,1,.49-.891,3.071,3.071,0,0,1,.9-.43,2.931,2.931,0,0,1,1.451-.123c.333.077.443.258.485.231" transform="translate(-395.606 -29.896)" fill="#455a64"/>
        <path id="Trazado_237397" data-name="Trazado 237397" d="M558.018,254.1a20.543,20.543,0,0,0,2.576,1.766c1.61,1.053,3.814,2.537,6.176,4.276s4.429,3.411,5.913,4.639a20.808,20.808,0,0,0,2.448,1.939,14.958,14.958,0,0,0-2.192-2.235,73.3,73.3,0,0,0-12.139-8.953,15.031,15.031,0,0,0-2.781-1.433" transform="translate(-396.287 -26.323)" fill="#455a64"/>
        <path id="Trazado_237398" data-name="Trazado 237398" d="M608.178,329.785a2.951,2.951,0,0,0,.921.031c.591-.012,1.445-.076,2.5-.2a44.6,44.6,0,0,0,15.7-4.92c.931-.5,1.668-.936,2.161-1.263s.758-.518.739-.552a32.827,32.827,0,0,0-3.077,1.465,56.036,56.036,0,0,1-15.577,4.882,33.2,33.2,0,0,0-3.363.553" transform="translate(-392.523 -19.701)" fill="#455a64"/>
        <path id="Trazado_237399" data-name="Trazado 237399" d="M611.537,327.627a8.365,8.365,0,0,0,2.181-.581c1.319-.441,3.118-1.126,5.056-2s3.643-1.765,4.848-2.461a8.36,8.36,0,0,0,1.881-1.247c-.081-.141-3.1,1.475-6.957,3.2s-7.062,2.93-7.009,3.083" transform="translate(-392.272 -19.861)" fill="#455a64"/>
        <path id="Trazado_237400" data-name="Trazado 237400" d="M551.007,391.064l-.112,22.19s-22.593,7.338-23.012,11.437l43.015,1.761,1.593-34.567Z" transform="translate(-398.548 -12.27)" fill="#263238"/>
        <path id="Trazado_237401" data-name="Trazado 237401" d="M561.884,410.484a1.757,1.757,0,0,1,1.132,2.054,1.69,1.69,0,0,1-2.026,1.141A1.856,1.856,0,0,1,559.8,411.5a1.754,1.754,0,0,1,2.24-.952" transform="translate(-396.159 -10.819)" fill="#e0e0e0"/>
        <path id="Trazado_237402" data-name="Trazado 237402" d="M570.9,424.253l.024-3.491-41.251-.384s-1.95.755-1.788,2.113Z" transform="translate(-398.549 -10.07)" fill="#455a64"/>
        <path id="Trazado_237403" data-name="Trazado 237403" d="M548.649,411.487c0,.211,1.045.348,2.05,1.066,1.026.691,1.52,1.623,1.717,1.548.2-.033-.066-1.3-1.3-2.149s-2.5-.66-2.467-.466" transform="translate(-396.99 -10.75)" fill="#fff"/>
        <path id="Trazado_237404" data-name="Trazado 237404" d="M544.381,413.043c-.056.2.839.6,1.516,1.514.7.9.845,1.865,1.055,1.865.2.041.391-1.184-.472-2.308s-2.086-1.271-2.1-1.071" transform="translate(-397.31 -10.626)" fill="#fff"/>
        <path id="Trazado_237405" data-name="Trazado 237405" d="M541.9,418.222c.189.053.525-.985.032-2.158s-1.456-1.671-1.552-1.5c-.126.168.487.811.876,1.78.413.959.436,1.847.644,1.876" transform="translate(-397.612 -10.509)" fill="#fff"/>
        <path id="Trazado_237406" data-name="Trazado 237406" d="M549.194,406.82c.081.2,1.056-.055,2.239.074,1.187.105,2.094.541,2.212.366.128-.147-.742-.961-2.139-1.094s-2.408.485-2.311.655" transform="translate(-396.95 -11.138)" fill="#fff"/>
        <path id="Trazado_237407" data-name="Trazado 237407" d="M645.142,388.9l8.24,25.55,12.344,18.329a2.751,2.751,0,0,1-3.418,4.041c-5.161-2.365-24.1-11.158-24.6-13.061-.576-2.2-10.48-26.375-10.48-26.375Z" transform="translate(-391.094 -12.432)" fill="#263238"/>
        <path id="Trazado_237408" data-name="Trazado 237408" d="M664.133,434.381l-27.71-14.648.374,1.075a4.138,4.138,0,0,0,1.809,2.212c2.268,1.332,8.612,4.872,22.935,11.513a2.748,2.748,0,0,0,2.592-.152" transform="translate(-390.404 -10.119)" fill="#455a64"/>
        <g id="Grupo_165486" data-name="Grupo 165486" transform="translate(246.382 399.555)" opacity="0.6">
          <g id="Grupo_165485" data-name="Grupo 165485">
            <g id="Grupo_165484" data-name="Grupo 165484" clip-path="url(#clip-path-14)">
              <path id="Trazado_237409" data-name="Trazado 237409" d="M638.756,410.446a1.664,1.664,0,0,1,1.144,1.9,1.6,1.6,0,0,1-1.877,1.151,1.755,1.755,0,0,1-1.2-2.022,1.661,1.661,0,0,1,2.086-.98" transform="translate(-636.761 -410.376)" fill="#fff"/>
            </g>
          </g>
        </g>
        <path id="Trazado_237410" data-name="Trazado 237410" d="M653.23,425.238a5.936,5.936,0,0,1,4.262-4.319c0-.07-.389-.156-1.012-.033a4.388,4.388,0,0,0-3.3,3.341c-.115.625-.024,1.013.046,1.012" transform="translate(-389.151 -10.037)" fill="#fff"/>
        <path id="Trazado_237411" data-name="Trazado 237411" d="M656,427.724c.159.068.686-1.04,1.866-1.872a22.784,22.784,0,0,1,2.365-1.181,3.055,3.055,0,0,0-2.71.7c-1.341.957-1.677,2.327-1.521,2.35" transform="translate(-388.938 -9.756)" fill="#fff"/>
        <path id="Trazado_237412" data-name="Trazado 237412" d="M648.689,422.34a14.131,14.131,0,0,1,6.142-5.269,7.521,7.521,0,0,0-6.142,5.269" transform="translate(-389.486 -10.321)" fill="#fff"/>
        <path id="Trazado_237413" data-name="Trazado 237413" d="M645.754,415.131c.12.128,1.318-.944,3.118-1.644,1.79-.726,3.4-.765,3.4-.942a6.829,6.829,0,0,0-6.514,2.585" transform="translate(-389.705 -10.669)" fill="#fff"/>
        <path id="Trazado_237414" data-name="Trazado 237414" d="M643.328,408.2a8.73,8.73,0,0,1,6.855-2.123c.023-.068-.364-.289-1.066-.424a5.994,5.994,0,0,0-5.148,1.594c-.5.507-.7.91-.641.953" transform="translate(-389.887 -11.181)" fill="#fff"/>
        <path id="Trazado_237415" data-name="Trazado 237415" d="M646.146,405.408a2.322,2.322,0,0,0-.3-.971,7.06,7.06,0,0,0-1.636-2.247,3.126,3.126,0,0,0-1.758-.97,1.106,1.106,0,0,0-1.1.642,1.8,1.8,0,0,0,0,1.284,3.887,3.887,0,0,0,4.4,2.278,4.508,4.508,0,0,0,3.408-3.683,1.56,1.56,0,0,0-.358-1.254,1.084,1.084,0,0,0-1.26-.17,3.855,3.855,0,0,0-1.369,1.449,7.894,7.894,0,0,0-1.045,2.573,2.421,2.421,0,0,0-.085,1.012A12.551,12.551,0,0,1,646.524,402a3.584,3.584,0,0,1,1.224-1.234.576.576,0,0,1,.687.088,1.067,1.067,0,0,1,.187.837,4.023,4.023,0,0,1-2.991,3.16,3.376,3.376,0,0,1-3.764-1.879,1.307,1.307,0,0,1-.037-.9.6.6,0,0,1,.6-.363,2.829,2.829,0,0,1,1.5.793,10.411,10.411,0,0,1,2.212,2.906" transform="translate(-390.043 -11.585)" fill="#fff"/>
        <path id="Trazado_237416" data-name="Trazado 237416" d="M518.933,154.319l10.259,10.6.416,9.227L517.7,176.88h-.606l-.77-5.956-6.863-9.124Z" transform="translate(-399.93 -35.992)" fill="#ae7461"/>
        <path id="Trazado_237417" data-name="Trazado 237417" d="M515.6,154.527A62.524,62.524,0,1,1,531.247,99.61,62.058,62.058,0,0,1,515.6,154.527m-85.432-.166a58.334,58.334,0,1,0-17.294-31.139,57.889,57.889,0,0,0,17.294,31.139" transform="translate(-407.575 -46.352)" fill="#455a64"/>
        <path id="Trazado_237418" data-name="Trazado 237418" d="M515.6,154.527A62.524,62.524,0,1,1,531.247,99.61,62.058,62.058,0,0,1,515.6,154.527m-85.432-.166a58.334,58.334,0,1,0-17.294-31.139,57.889,57.889,0,0,0,17.294,31.139" transform="translate(-407.575 -46.352)" fill="#263238"/>
        <path id="Trazado_237419" data-name="Trazado 237419" d="M517.029,151.731a62.524,62.524,0,1,1,15.646-54.918,62.054,62.054,0,0,1-15.646,54.918m-85.432-.166A58.334,58.334,0,1,0,414.3,120.426,57.894,57.894,0,0,0,431.6,151.566" transform="translate(-407.468 -46.562)" fill="#455a64"/>
        <path id="Trazado_237420" data-name="Trazado 237420" d="M579.454,223.436l1.988-1.923c1.773-1.716.778-5.637-1.081-7.541l-69.785-72.13-9.331,9.028,69.681,72.022c2.352,2.308,6.246,2.754,8.528.545" transform="translate(-400.547 -36.817)" fill="#455a64"/>
        <path id="Trazado_237421" data-name="Trazado 237421" d="M514.6,149.958a1.644,1.644,0,0,0-1.413-.376,2.745,2.745,0,0,0-1.106.772,12.655,12.655,0,0,0-3.6,8.751c0,1.387.366,2.977,1.6,3.608l1.4-.812c.435-.56,1.733-1.5,1.9-2.187.726-2.9-.315-2.777,1.5-7.8a1.734,1.734,0,0,0-.292-1.953" transform="translate(-400.004 -36.516)" fill="#ae7461"/>
        <path id="Trazado_237422" data-name="Trazado 237422" d="M514.041,153.92a6.881,6.881,0,0,1,1.388-1.829,2.015,2.015,0,0,1,1.846-.551c.967.3,1.438,1.7,1.328,2.993a11.269,11.269,0,0,1-1.2,3.683q-1.722,3.736-3.448,7.474l-.668-.491a.944.944,0,0,1-1.489-.328,3.963,3.963,0,0,1-.328-2.035,19.5,19.5,0,0,1,2.574-8.915" transform="translate(-399.78 -36.321)" fill="#ae7461"/>
        <path id="Trazado_237423" data-name="Trazado 237423" d="M515.552,161.1A17.5,17.5,0,0,1,519,156.474a4.25,4.25,0,0,1,1.6-1.217,1.507,1.507,0,0,1,1.8.529,2.082,2.082,0,0,1-.244,1.833,85.616,85.616,0,0,1-5.934,10.42l-2.061-2.076c-.935-1.686.591-3.111,1.385-4.865" transform="translate(-399.599 -35.97)" fill="#ae7461"/>
        <path id="Trazado_237424" data-name="Trazado 237424" d="M569.764,183.167l-1.892-.4-9.9-8.439-5.419-4.552a3.3,3.3,0,0,0-1.587-.731l-5.362-.9a3.049,3.049,0,0,0,1.6,3.679l2.939,1.521,2.69,3.179-.344.688s-17.625,2.735-18.726,4.079a1.833,1.833,0,0,0,.489,2.812,2.854,2.854,0,0,0,1.345.121s-.856,2.078,1.711,3.789c0,0-1.957,2.567,1.466,3.789a5.523,5.523,0,0,0,2.934,2.567c1.956.612,12.469,1.834,13.569,1.834s12.636.018,12.636.018l2.537.415Z" transform="translate(-398.142 -34.593)" fill="#ae7461"/>
        <path id="Trazado_237425" data-name="Trazado 237425" d="M535.062,183.17a14.054,14.054,0,0,0,4.874.262,19.509,19.509,0,0,0,4.824-.716,24.106,24.106,0,0,0-4.858.162,46.67,46.67,0,0,0-4.839.291" transform="translate(-398.01 -33.378)" fill="#6f4439"/>
        <path id="Trazado_237426" data-name="Trazado 237426" d="M537.031,186.642c0,.078.458.141,1.192.239s1.751.235,2.9.306a25.093,25.093,0,0,0,2.923-.063,4.645,4.645,0,0,0,1.2-.108c.022-.08-.446-.234-1.2-.284-.756-.071-1.782-.026-2.9-.1s-2.153-.152-2.906-.144-1.218.078-1.217.153" transform="translate(-397.862 -33.006)" fill="#6f4439"/>
        <path id="Trazado_237427" data-name="Trazado 237427" d="M538.07,190.091a20.862,20.862,0,0,0,4.752.637,11.335,11.335,0,0,1,3.253.5c.776.293,1.131.71,1.2.647.053-.026-.216-.575-1.039-1a8.609,8.609,0,0,0-3.373-.7,20.878,20.878,0,0,0-4.794-.085" transform="translate(-397.784 -32.658)" fill="#6f4439"/>
        <path id="Trazado_237428" data-name="Trazado 237428" d="M593.561,131.472s7.45,1.286,13.1,12.385c3.122,6.136,17.712,43.035,18.578,46.27,3.7,13.843-3.462,22.766-10.359,23.372-7.592.667-46.856-12-46.856-12l-.867-16.776,35.817,5.438-17.208-33.4s-.66-22.246,7.8-25.287" transform="translate(-395.602 -37.885)" fill="#a3314f"/>
        <path id="Trazado_237429" data-name="Trazado 237429" d="M612.565,195.234A6.107,6.107,0,0,0,611.6,193a15.105,15.105,0,0,0-9.389-6.7,6.1,6.1,0,0,0-2.426-.184c-.007.1.917.163,2.332.564a17.037,17.037,0,0,1,9.156,6.533c.838,1.208,1.2,2.06,1.291,2.022" transform="translate(-393.153 -32.984)" fill="#263238"/>
        <path id="Trazado_237430" data-name="Trazado 237430" d="M605.064,210.212a.587.587,0,0,1-.185-.025l-.536-.115c-.476-.1-1.162-.3-2.062-.548-1.791-.518-4.4-1.316-7.676-2.361-6.56-2.093-15.828-5.154-26.723-8.839l-.165-.057-.01-.175c-.253-4.827-.529-10.089-.817-15.577l-.018-.343.34.055,8.811,1.426,27.01,4.408-.264.366-11.9-23.289-3.335-6.621-.865-1.762a4.412,4.412,0,0,1-.273-.619,4.049,4.049,0,0,1,.346.582l.935,1.728L591.141,165c2.958,5.682,7.132,13.7,12.075,23.195l.232.445-.5-.081-27.019-4.354-8.811-1.431.321-.288c.274,5.489.538,10.752.779,15.58l-.174-.231,26.653,9.03,7.627,2.5c.889.269,1.57.5,2.034.625l.526.156a.652.652,0,0,1,.175.067" transform="translate(-395.623 -35.594)" fill="#263238"/>
        <path id="Trazado_237431" data-name="Trazado 237431" d="M593.909,132.1c.053.088-1.014.7-2.5,1.981a21.239,21.239,0,0,0-7.132,13.129c-.265,1.941-.2,3.169-.3,3.173a2.65,2.65,0,0,1-.126-.858,13.728,13.728,0,0,1,.036-2.362,18.533,18.533,0,0,1,.645-3.451,19.77,19.77,0,0,1,4.085-7.519,18.463,18.463,0,0,1,2.544-2.419,13.658,13.658,0,0,1,1.962-1.315,2.585,2.585,0,0,1,.788-.361" transform="translate(-394.352 -38.193)" fill="#263238"/>
      </g>
    </g>
    <g id="Grupo_876258" data-name="Grupo 876258" transform="translate(316.283 2907.74)">
      <path id="Trazado_237212" data-name="Trazado 237212" d="M50.039,334.4c-.691-14.585,13.315-31.093,13.315-31.093C61.239,321.417,50.039,334.4,50.039,334.4" transform="translate(1.055 11.915)" fill="#ced371"/>
      <g id="Grupo_876258-2" data-name="Grupo 876258">
        <path id="Trazado_237208" data-name="Trazado 237208" d="M53.764,355.634A24.157,24.157,0,0,1,60.028,339.8c1.9,7.948-6.264,15.839-6.264,15.839" transform="translate(1.134 13.349)" fill="#ced371"/>
        <path id="Trazado_237209" data-name="Trazado 237209" d="M62.672,350.79a23.172,23.172,0,0,1,16.768-.472c-6.4,4.938-16.768.472-16.768.472" transform="translate(1.321 13.709)" fill="#ced371"/>
        <path id="Trazado_237210" data-name="Trazado 237210" d="M63.693,346.266A19.159,19.159,0,0,1,65.975,333c2.745,5.821-2.281,13.265-2.281,13.265" transform="translate(1.336 13.082)" fill="#ced371"/>
        <path id="Trazado_237211" data-name="Trazado 237211" d="M29.242,327.889c13.295,3.6,20.427,15.367,20.427,15.367-11.364.007-20.427-15.367-20.427-15.367" transform="translate(0.616 12.881)" fill="#ced371"/>
        <path id="Trazado_237213" data-name="Trazado 237213" d="M50.081,293.255a39.59,39.59,0,0,1-5.036,20.892c-1.978-9.382,5.036-20.892,5.036-20.892" transform="translate(0.942 11.521)" fill="#ced371"/>
        <path id="Trazado_237214" data-name="Trazado 237214" d="M45.016,322.212c-10.477-1.144-16.177-11.753-16.177-11.753,12.671,3.612,16.177,11.753,16.177,11.753" transform="translate(0.608 12.196)" fill="#ced371"/>
        <path id="Trazado_237215" data-name="Trazado 237215" d="M22.55,364.81a23.188,23.188,0,0,1,16.472-3.229c-5.532,5.927-16.472,3.229-16.472,3.229" transform="translate(0.476 14.19)" fill="#ced371"/>
        <path id="Trazado_237216" data-name="Trazado 237216" d="M49.284,369.28a15.564,15.564,0,0,1-7.04,8.072c.448-4.92,7.04-8.072,7.04-8.072" transform="translate(0.891 14.507)" fill="#ced371"/>
        <path id="Trazado_237217" data-name="Trazado 237217" d="M48.078,367.788a18.318,18.318,0,0,1-12.531,2.276c4.034-4.279,12.531-2.276,12.531-2.276" transform="translate(0.75 14.43)" fill="#ced371"/>
        <path id="Trazado_237218" data-name="Trazado 237218" d="M53.3,389.787a.737.737,0,0,1-.02-.217c0-.173-.008-.381-.013-.636q0-.9-.005-2.444c.01-1.061.01-2.359-.021-3.866s-.028-3.222-.106-5.117c-.09-3.792-.354-8.3-.735-13.3-.427-4.995-1.022-10.475-1.842-16.2-1.656-11.456-3.918-21.693-5.736-29.049-.916-3.677-1.689-6.645-2.253-8.687q-.4-1.492-.626-2.36c-.061-.247-.11-.45-.151-.617a.8.8,0,0,1-.037-.215.73.73,0,0,1,.083.2c.053.163.117.361.2.6q.262.859.711,2.335c.618,2.028,1.441,4.985,2.4,8.655a274.024,274.024,0,0,1,5.879,29.064c.823,5.736,1.406,11.228,1.809,16.235.357,5.009.588,9.528.636,13.327.057,1.9.038,3.617.037,5.125s-.02,2.808-.059,3.869q-.052,1.545-.083,2.444c-.013.255-.025.464-.034.635a.751.751,0,0,1-.028.216" transform="translate(0.881 12.063)" fill="#9ea257"/>
        <path id="Trazado_237219" data-name="Trazado 237219" d="M34.233,356.955c.074-.109,4.308,2.716,9.457,6.308s9.266,6.594,9.193,6.7-4.307-2.715-9.458-6.308-9.265-6.594-9.192-6.7" transform="translate(0.722 14.022)" fill="#9ea257"/>
        <path id="Trazado_237220" data-name="Trazado 237220" d="M52.5,359.094a3.909,3.909,0,0,1,.65-.724l1.886-1.849,6.3-6.011,6.3-6.01q1.118-1.068,1.908-1.822a3.817,3.817,0,0,1,.74-.628,3.865,3.865,0,0,1-.611.76c-.413.47-1.032,1.127-1.805,1.932-1.55,1.607-3.743,3.773-6.209,6.117s-4.732,4.427-6.394,5.912c-.83.742-1.509,1.336-1.987,1.737a3.815,3.815,0,0,1-.773.586" transform="translate(1.107 13.438)" fill="#9ea257"/>
        <path id="Trazado_237221" data-name="Trazado 237221" d="M21.06,350.3s10.828-.21,15.407,8.465A19.371,19.371,0,0,1,21.06,350.3" transform="translate(0.444 13.762)" fill="#ced371"/>
        <path id="Trazado_237222" data-name="Trazado 237222" d="M35.542,346.048s8.817,6.4,7.413,16.144a19.942,19.942,0,0,1-7.413-16.144" transform="translate(0.749 13.594)" fill="#ced371"/>
        <path id="Trazado_237223" data-name="Trazado 237223" d="M81.319,330.873s-3.479,12.336-14.532,14.553a22.972,22.972,0,0,1,14.532-14.553" transform="translate(1.408 12.998)" fill="#ced371"/>
        <path id="Trazado_237224" data-name="Trazado 237224" d="M30.832,286.745s13.813,9.171,12.285,24.089a30.321,30.321,0,0,1-12.285-24.089" transform="translate(0.65 11.265)" fill="#ced371"/>
        <path id="Trazado_237225" data-name="Trazado 237225" d="M76.256,365.239a5.447,5.447,0,0,1-.9.733c-.6.439-1.448,1.1-2.478,1.928a62.833,62.833,0,0,0-7.481,7.152,63.512,63.512,0,0,0-6.188,8.338c-.7,1.132-1.252,2.063-1.617,2.714a5.482,5.482,0,0,1-.619.986,5.457,5.457,0,0,1,.457-1.074c.317-.681.825-1.642,1.5-2.8a53.362,53.362,0,0,1,13.748-15.582c1.063-.8,1.946-1.421,2.577-1.814a5.359,5.359,0,0,1,1-.579" transform="translate(1.201 14.348)" fill="#9ea257"/>
        <path id="Trazado_237226" data-name="Trazado 237226" d="M64.094,374.687a24.3,24.3,0,0,1,3.171-16.766c1.486,10.455-3.171,16.766-3.171,16.766" transform="translate(1.344 14.061)" fill="#ced371"/>
        <path id="Trazado_237227" data-name="Trazado 237227" d="M73.19,369.176a16.861,16.861,0,0,1,12.058-1.9c-6.67,3.6-12.058,1.9-12.058,1.9" transform="translate(1.544 14.413)" fill="#ced371"/>
        <path id="Trazado_237228" data-name="Trazado 237228" d="M33.34,387.765l5.183,34.666H68.634l6.988-34.165Z" transform="translate(0.703 15.233)" fill="#645454"/>
        <path id="Trazado_237229" data-name="Trazado 237229" d="M71.338,409.15c0,.1-7.716.18-17.231.18s-17.233-.08-17.233-.18,7.714-.18,17.233-.18,17.231.08,17.231.18" transform="translate(0.777 16.066)" fill="#fafafa"/>
        <path id="Trazado_237230" data-name="Trazado 237230" d="M71.457,407.51c0,.1-7.767.18-17.347.18s-17.349-.08-17.349-.18,7.765-.18,17.349-.18,17.347.081,17.347.18" transform="translate(0.775 16.002)" fill="#fafafa"/>
        <path id="Trazado_237231" data-name="Trazado 237231" d="M71.4,405.657c0,.1-7.768.18-17.348.18s-17.349-.08-17.349-.18,7.766-.18,17.349-.18,17.348.08,17.348.18" transform="translate(0.774 15.929)" fill="#fafafa"/>
        <path id="Trazado_237232" data-name="Trazado 237232" d="M41.834,419.55a56.164,56.164,0,0,1-1.5-8.791,28.262,28.262,0,0,1,.923,4.365,28.279,28.279,0,0,1,.576,4.426" transform="translate(0.851 16.137)" fill="#fafafa"/>
        <path id="Trazado_237233" data-name="Trazado 237233" d="M43.821,419.186a102.64,102.64,0,0,1-.57-8.531,34.6,34.6,0,0,1,.57,8.531" transform="translate(0.911 16.133)" fill="#fafafa"/>
        <path id="Trazado_237234" data-name="Trazado 237234" d="M47.487,419.195a35.322,35.322,0,0,1-1.013-8.8,39,39,0,0,1,.58,4.391,38.953,38.953,0,0,1,.433,4.409" transform="translate(0.979 16.122)" fill="#fafafa"/>
        <path id="Trazado_237235" data-name="Trazado 237235" d="M50.041,419.375a36,36,0,0,1-.284-8.892,38.816,38.816,0,0,1,.22,4.444,38.788,38.788,0,0,1,.064,4.448" transform="translate(1.046 16.125)" fill="#fafafa"/>
        <path id="Trazado_237236" data-name="Trazado 237236" d="M54.583,419.183a50.594,50.594,0,0,1-.281-8.434,25.22,25.22,0,0,1,.318,4.211,25.5,25.5,0,0,1-.037,4.223" transform="translate(1.144 16.136)" fill="#fafafa"/>
        <path id="Trazado_237237" data-name="Trazado 237237" d="M57.9,419.369a53.775,53.775,0,0,1,.069-8.71,53.777,53.777,0,0,1-.069,8.71" transform="translate(1.218 16.133)" fill="#fafafa"/>
        <path id="Trazado_237238" data-name="Trazado 237238" d="M61.006,418.937a58.72,58.72,0,0,1,.865-9.071,58.718,58.718,0,0,1-.865,9.071" transform="translate(1.286 16.102)" fill="#fafafa"/>
        <path id="Trazado_237239" data-name="Trazado 237239" d="M65.019,418.445a24.2,24.2,0,0,1,1.626-7.608,35.233,35.233,0,0,1-.774,3.812,34.969,34.969,0,0,1-.852,3.8" transform="translate(1.371 16.14)" fill="#fafafa"/>
        <path id="Trazado_237240" data-name="Trazado 237240" d="M29.956,381.16v6.486a2.532,2.532,0,0,0,2.509,2.555h43.6a2.532,2.532,0,0,0,2.509-2.555V381.16Z" transform="translate(0.632 14.974)" fill="#645454"/>
        <path id="Trazado_237241" data-name="Trazado 237241" d="M33.658,389.859l.362,2.065,40.233,2.918,1.019-4.983Z" transform="translate(0.71 15.315)" fill="#574242"/>
      </g>
    </g>
  </g>
</svg>
