<svg xmlns="http://www.w3.org/2000/svg" xmlns:xlink="http://www.w3.org/1999/xlink" width="155.182" height="155.183" viewBox="0 0 155.182 155.183">
  <defs>
    <filter id="Elipse_5222" x="0" y="0" width="155.182" height="155.183" filterUnits="userSpaceOnUse">
      <feOffset dy="6" input="SourceAlpha"/>
      <feGaussianBlur stdDeviation="5" result="blur"/>
      <feFlood flood-opacity="0.329"/>
      <feComposite operator="in" in2="blur"/>
      <feComposite in="SourceGraphic"/>
    </filter>
    <clipPath id="clip-path">
      <rect id="Rectángulo_324964" data-name="Rectángulo 324964" width="76.012" height="76.024" fill="none"/>
    </clipPath>
  </defs>
  <g id="Grupo_876561" data-name="Grupo 876561" transform="translate(-1081 -2121)">
    <g transform="matrix(1, 0, 0, 1, 1081, 2121)" filter="url(#Elipse_5222)">
      <circle id="Elipse_5222-2" data-name="Elipse 5222" cx="62.591" cy="62.591" r="62.591" transform="translate(15 9)" fill="#ffb500"/>
    </g>
    <g id="Grupo_876386" data-name="Grupo 876386" transform="translate(1117 2154.58)">
      <g id="Grupo_876385" data-name="Grupo 876385" clip-path="url(#clip-path)">
        <path id="Trazado_613897" data-name="Trazado 613897" d="M33.463,68.665a3.744,3.744,0,0,1-1.986,6.045,4.557,4.557,0,0,1-.985.081c-3.676.006-7.353-.031-11.029.014a25.243,25.243,0,0,1-9.192-1.6c-.115-.043-.232-.082-.463-.163,0,.592.006,1.111,0,1.631-.014.881-.44,1.341-1.294,1.345q-3.6.017-7.2,0A1.178,1.178,0,0,1,0,74.687Q0,66.222,0,57.758a1.191,1.191,0,0,1,1.365-1.35q3.484-.01,6.97,0c1.062,0,1.462.41,1.469,1.481a1.193,1.193,0,0,0,0,.305c.061.219-.188.538.169.653s.556-.136.749-.387c1.5-1.936,2.959-3.9,4.508-5.8a18.8,18.8,0,0,0,4.009-8.038A3.691,3.691,0,0,1,22.566,41.7a3.778,3.778,0,0,1,3.926,2.435,8.93,8.93,0,0,0,.477,1.12V1.73c0-1.39.322-1.716,1.693-1.716Q44.133.013,59.6,0a2.178,2.178,0,0,1,1.686.687q7.021,7.062,14.08,14.085a2.014,2.014,0,0,1,.641,1.55Q75.991,41.676,76,67.032c0,1.276-.355,1.633-1.625,1.633H33.463" fill="#040506"/>
        <path id="Trazado_613898" data-name="Trazado 613898" d="M34.18,62.534a3.9,3.9,0,0,0-.625-3.463c-.144-.181-.072-.295.024-.464,1.391-2.457.825-4.344-1.707-5.724a1.309,1.309,0,0,1-.071-1.375c.47-.37,1.024-.195,1.544-.232.7-.049.752-.1.751-1s-.053-.951-.751-1c-.52-.039-1.075.137-1.546-.236a4.052,4.052,0,0,1-.015-2.408c.451-.407,1.007-.225,1.521-.258.729-.048.785-.1.791-.955.006-.939-.048-1-.774-1.048-.515-.035-1.069.142-1.53-.245a3.662,3.662,0,0,1,.055-2.478,2.259,2.259,0,0,1,1.341-.2q15.509-.008,31.019,0c.255,0,.51,0,.766,0,.882-.021.969-.11.972-.969,0-.9-.081-.984-1.106-.985q-12.447,0-24.892,0c-2.3,0-4.6,0-6.893,0a2.056,2.056,0,0,1-1.192-.19,3.313,3.313,0,0,1-.026-2.542,2.31,2.31,0,0,1,1.413-.207q15.476-.009,30.949-.005c.281,0,.562.007.843,0,.795-.027.884-.116.9-.883.025-.97-.066-1.069-1.1-1.069q-11.186-.006-22.369,0-4.712,0-9.423,0a2.043,2.043,0,0,1-1.191-.19,3.309,3.309,0,0,1-.027-2.542,2.317,2.317,0,0,1,1.413-.207q15.463-.009,30.927,0c.255,0,.51,0,.765,0,.922-.019,1.012-.11,1-1.013-.007-.868-.087-.941-1.15-.941q-15.771,0-31.54-.006a2.361,2.361,0,0,1-1.415-.2,1.709,1.709,0,0,1-.214-1.1q-.007-12.4,0-24.794a1.405,1.405,0,0,1,.25-1.086q5.171-.014,10.341-.024c5.311,0,10.623.01,15.935-.017.584,0,.7.154.7.715-.026,4.137-.015,8.274-.013,12.412,0,1.2.4,1.6,1.6,1.6,4.162,0,8.325.009,12.487-.01.49,0,.634.112.634.622q-.022,22.831-.013,45.664c0,.1-.016.2-.024.3a1.1,1.1,0,0,1-.856.243q-3.893.015-7.785,0a1.46,1.46,0,0,1-.738-.148c-.228-.556.292-.48.523-.549a9.371,9.371,0,0,0,3.227-1.7A8.429,8.429,0,0,0,69.308,50.27,8.377,8.377,0,1,0,55.881,60.287a8.84,8.84,0,0,0,4.431,3c.25.078.731-.011.619.532A1.746,1.746,0,0,1,59.892,64Q48.978,64,38.066,64a6.32,6.32,0,0,1-3.214-.868,1.358,1.358,0,0,1-.672-.6" fill="#fff"/>
        <path id="Trazado_613899" data-name="Trazado 613899" d="M9.832,68.665c-.008-2.3-.009-4.593-.032-6.889,0-.363.1-.532.47-.466a2.271,2.271,0,0,0,2.337-1.2c1.729-2.3,3.523-4.56,5.294-6.833a19.125,19.125,0,0,0,3.683-7.8,1.433,1.433,0,0,1,1.27-1.315c.653-.079,1.221.382,1.458,1.21a7.061,7.061,0,0,1-.519,4.692c-.43,1.057-.988,2.062-1.482,3.093-.577,1.2-.07,2.02,1.26,2.024,2.246,0,4.492,0,6.737,0,.938,0,1.485.4,1.554,1.126.066.695-.408,1.159-1.357,1.33a1.177,1.177,0,0,0-1.079,1.185,1.2,1.2,0,0,0,1.086,1.257c.923.164,1.371.581,1.353,1.258-.017.66-.451,1.05-1.333,1.2a1.227,1.227,0,0,0,.029,2.446c.854.141,1.3.566,1.3,1.229s-.456,1.086-1.307,1.227a1.2,1.2,0,0,0-1.136,1.212c-.006.682.407,1.118,1.19,1.237.5.076.948.211,1.106.77.189.4-.014.569-.373.643a4.525,4.525,0,0,1-.916.044c-3.6,0-7.2.039-10.8-.01a23.169,23.169,0,0,1-8.984-2.012,1.357,1.357,0,0,1-.811-.659" fill="#f5aa7d"/>
        <path id="Trazado_613900" data-name="Trazado 613900" d="M31.876,36.777v2.479a2.894,2.894,0,0,1,0,2.425v2.478a2.894,2.894,0,0,1,0,2.425v2.479a2.894,2.894,0,0,1,0,2.425q0,.7,0,1.394c-.428-.051-.855-.137-1.284-.148-1.167-.029-1.167-.016-1.167-1.151q0-24.135-.017-48.269c0-.7.167-.945.868-.86a15.61,15.61,0,0,0,1.606.035q0,13.48,0,26.959a2.894,2.894,0,0,1,0,2.425v2.479a2.894,2.894,0,0,1,0,2.425" fill="#a6adae"/>
        <path id="Trazado_613901" data-name="Trazado 613901" d="M64.053,63.631c.185.195.427.127.647.127q4.412,0,8.824,0c0,.787.281,1.787-.1,2.3-.36.49-1.426.149-2.179.15q-18.063.015-36.127.014c-.494,0-.9.035-.857-.665a1.187,1.187,0,0,0-.253-.786c-.723-.823-.39-1.529.169-2.235a8.741,8.741,0,0,0,2.881,1.144c.278.021.555.079.832.079q11.179.008,22.36,0c.245,0,.515.085.728-.126.465-.349.978-.086,1.46-.077.535.01,1.094-.27,1.612.077" fill="#a6adae"/>
        <path id="Trazado_613902" data-name="Trazado 613902" d="M61.291,4.406,71.61,14.724h-.643c-2.957,0-5.914-.016-8.87.014-.611.006-.831-.118-.822-.783.037-3.008.016-6.016.016-9.024Z" fill="#48585f"/>
        <path id="Trazado_613903" data-name="Trazado 613903" d="M3.684,58.882c1.07-.008,2.141,0,3.21-.032.378-.01.469.132.468.486q-.027,6.5-.031,13c-.569.429-1.23.237-1.85.244-2.05.025-2.051.01-2.051-2.06q0-5.2,0-10.4a1.64,1.64,0,0,1,.25-1.239" fill="#7e8e92"/>
        <path id="Trazado_613904" data-name="Trazado 613904" d="M9.832,68.665a21.716,21.716,0,0,0,8.15,2.3c4.4.329,8.81.054,13.215.151.338.008.547-.08.521-.46a1.18,1.18,0,0,1-1.2,1.676c-1.122.026-2.244.007-3.366.007-2.678,0-5.355.008-8.033,0a23.568,23.568,0,0,1-8.348-1.588c-.759-.288-1.122-.665-.972-1.477a4.269,4.269,0,0,0,.029-.61" fill="#e49671"/>
        <path id="Trazado_613905" data-name="Trazado 613905" d="M3.684,58.882c0,4.229.006,8.458-.017,12.688,0,.583.131.821.761.786.965-.054,1.935-.017,2.9-.019.007.05.018.1.02.152.031,1.079.031,1.079-1.014,1.079-1.124,0-2.247-.015-3.371.008-.4.008-.522-.122-.521-.522q.018-6.819,0-13.637c0-.423.1-.622.552-.563.226.029.458.02.687.028" fill="#61747b"/>
        <path id="Trazado_613906" data-name="Trazado 613906" d="M26.969,48.255c0,1.362-.007,2.724.006,4.086,0,.292-.078.41-.384.392-.4-.023-.794-.005-1.287-.005a17.316,17.316,0,0,0,1.665-4.473" fill="#fdfdfd"/>
        <path id="Trazado_613907" data-name="Trazado 613907" d="M51.484,12.206a4.413,4.413,0,0,1-.262,1.811,2.074,2.074,0,0,0,.146,1.737c1.2,2.638,2.353,5.3,3.546,7.937a1.307,1.307,0,0,1-1.728,1.9,6.288,6.288,0,0,0-2.518-.753c-.772.106-1.252,1.119-1.894,1.7a1.243,1.243,0,0,1-2.193-.584c-.67-1.947-1.312-3.9-1.97-5.855-.083-.247-.057-.575-.467-.588s-.405.308-.489.559c-.65,1.927-1.292,3.858-1.95,5.782-.445,1.3-1.372,1.508-2.363.544-.565-.55-1.069-1.393-1.731-1.549s-1.477.385-2.226.622c-.194.062-.387.126-.577.2a1.191,1.191,0,0,1-1.4-.317,1.222,1.222,0,0,1-.169-1.422c.9-2.018,1.8-4.041,2.695-6.061.124-.279.226-.57.376-.834a5.39,5.39,0,0,0,.559-3.961c-.867-4.437,3.437-8.8,7.928-8.225a7.366,7.366,0,0,1,6.683,7.36" fill="#040506"/>
        <path id="Trazado_613908" data-name="Trazado 613908" d="M64.053,63.631a9.157,9.157,0,0,1-3.072,0,8.594,8.594,0,1,1,9.8-10.76c1.308,4.948-1.585,9.573-6.731,10.76" fill="#040506"/>
        <path id="Trazado_613909" data-name="Trazado 613909" d="M31.876,31.874V29.449q16.888-.006,33.776-.022c.428,0,.549.109.554.545.026,1.916.041,1.916-1.856,1.915l-32.474-.013" fill="#040506"/>
        <path id="Trazado_613910" data-name="Trazado 613910" d="M31.876,36.777V34.352q16.888-.006,33.776-.022c.428,0,.549.109.554.545.026,1.916.041,1.916-1.856,1.915l-32.474-.013" fill="#040506"/>
        <path id="Trazado_613911" data-name="Trazado 613911" d="M31.876,41.681V39.256q16.888-.006,33.776-.022c.428,0,.549.109.554.545.026,1.916.041,1.916-1.856,1.915l-32.474-.013" fill="#040506"/>
        <path id="Trazado_613912" data-name="Trazado 613912" d="M46.578,44.146c3.063,0,6.125.011,9.188-.011.488,0,.639.108.636.62-.01,1.843.012,1.843-1.853,1.843-5.692,0-11.383-.009-17.075.013-.559,0-.727-.112-.715-.7.036-1.765.007-1.766,1.779-1.766Z" fill="#040506"/>
        <path id="Trazado_613913" data-name="Trazado 613913" d="M44.745,51.5c-2.45,0-4.9-.014-7.349.012-.493.005-.637-.116-.634-.624.01-1.84-.011-1.84,1.855-1.84,4.466,0,8.932.011,13.4-.014.564,0,.725.12.713.7-.035,1.762-.006,1.763-1.781,1.763Z" fill="#040506"/>
        <path id="Trazado_613914" data-name="Trazado 613914" d="M31.876,46.585V44.16c.178,0,.356-.012.534-.013,2.016-.006,2.005-.006,1.924,1.99-.015.363-.1.486-.472.469-.661-.031-1.324-.017-1.986-.021" fill="#040506"/>
        <path id="Trazado_613915" data-name="Trazado 613915" d="M69.866,41.694c-1.219,0-1.219,0-1.219-1.232s0-1.22,1.232-1.22,1.219,0,1.219,1.232,0,1.22-1.232,1.22" fill="#040506"/>
        <path id="Trazado_613916" data-name="Trazado 613916" d="M69.827,31.887c-1.181,0-1.181,0-1.181-1.195,0-1.257,0-1.257,1.271-1.257,1.181,0,1.181,0,1.181,1.195,0,1.257,0,1.257-1.271,1.257" fill="#040506"/>
        <path id="Trazado_613917" data-name="Trazado 613917" d="M31.876,51.488V49.063c.178,0,.356-.012.534-.013,2.016-.006,2.005-.006,1.924,1.99-.015.363-.1.486-.472.469-.661-.031-1.324-.017-1.986-.021" fill="#040506"/>
        <path id="Trazado_613918" data-name="Trazado 613918" d="M71.1,35.576c0,1.215,0,1.215-1.237,1.215-1.215,0-1.215,0-1.215-1.238,0-1.214,0-1.214,1.237-1.214,1.215,0,1.215,0,1.215,1.237" fill="#040506"/>
        <path id="Trazado_613919" data-name="Trazado 613919" d="M44.093,17.041a4.883,4.883,0,0,1-4.864-4.868,4.9,4.9,0,0,1,9.8,0,4.881,4.881,0,0,1-4.937,4.871" fill="#e6a41e"/>
        <path id="Trazado_613920" data-name="Trazado 613920" d="M48.109,18.406c1.29-1.039,1.292-1.04,1.959.462.51,1.147,1.014,2.3,1.553,3.519-.662-.089-1.215-.451-1.832-.264-.243-.006-.349-.19-.433-.369-.451-.954-.862-1.926-1.254-2.9a.6.6,0,0,1,.007-.443" fill="#dd625b"/>
        <path id="Trazado_613921" data-name="Trazado 613921" d="M38.463,22.13a3.142,3.142,0,0,0-1.866.346c.764-1.718,1.461-3.278,2.149-4.841.119-.269.248-.181.4-.054q.5.413,1,.823c.087.567-.266,1-.449,1.488-.212.565-.48,1.107-.709,1.665-.1.246-.184.539-.529.573" fill="#dd625b"/>
        <path id="Trazado_613922" data-name="Trazado 613922" d="M38.463,22.13c.7-1.181,1.081-2.5,1.687-3.726,1.238.6,1.237.6.812,1.879-.342,1.022-.679,2.046-1.033,3.114L38.463,22.13" fill="#d42a1f"/>
        <path id="Trazado_613923" data-name="Trazado 613923" d="M48.109,18.406c.579,1.231.98,2.541,1.68,3.717l-1.456,1.283c-.452-1.363-.877-2.677-1.327-3.983-.1-.29-.1-.462.222-.584a9.208,9.208,0,0,0,.881-.433" fill="#d42a1f"/>
        <path id="Trazado_613924" data-name="Trazado 613924" d="M56.515,54.241a6.062,6.062,0,0,1,5.5-5.171,6.159,6.159,0,0,1,6.328,4.273,6.065,6.065,0,0,1-4.893,7.837c-3.628.558-7.49-3.279-6.938-6.939" fill="#6fb38b"/>
        <path id="Trazado_613925" data-name="Trazado 613925" d="M56.515,54.241c-.327,3.486,3.455,7.267,6.939,6.939a5.993,5.993,0,0,1-6.165-2.857,5.542,5.542,0,0,1-.774-4.082" fill="#3e8759"/>
        <path id="Trazado_613926" data-name="Trazado 613926" d="M44.139,8.737a3.433,3.433,0,0,1,3.526,3.525,3.535,3.535,0,1,1-7.07-.018,3.432,3.432,0,0,1,3.544-3.507" fill="#ffe57d"/>
        <path id="Trazado_613927" data-name="Trazado 613927" d="M61.223,55.753c1.208-1.509,2.417-2.993,3.591-4.5.31-.4.528-.538.935-.124s1.156.711,1.244,1.159c.09.466-.6.924-.963,1.378q-1.8,2.281-3.637,4.541a1.257,1.257,0,0,1-2.134.131c-.659-.641-1.293-1.307-1.957-1.943-.261-.25-.257-.4-.007-.678,1.3-1.428,1.29-1.436,2.681-.147a3.051,3.051,0,0,0,.247.186" fill="#040506"/>
      </g>
    </g>
  </g>
</svg>
