<svg xmlns="http://www.w3.org/2000/svg" xmlns:xlink="http://www.w3.org/1999/xlink" width="155.183" height="155.183" viewBox="0 0 155.183 155.183">
  <defs>
    <filter id="Elipse_5222" x="0" y="0" width="155.183" height="155.183" filterUnits="userSpaceOnUse">
      <feOffset dy="6" input="SourceAlpha"/>
      <feGaussianBlur stdDeviation="5" result="blur"/>
      <feFlood flood-opacity="0.329"/>
      <feComposite operator="in" in2="blur"/>
      <feComposite in="SourceGraphic"/>
    </filter>
    <clipPath id="clip-path">
      <rect id="Rectángulo_324966" data-name="Rectángulo 324966" width="82.181" height="82.144" transform="translate(0 0)" fill="none"/>
    </clipPath>
  </defs>
  <g id="Grupo_876563" data-name="Grupo 876563" transform="translate(6887 9593)">
    <g transform="matrix(1, 0, 0, 1, -6887, -9593)" filter="url(#Elipse_5222)">
      <circle id="Elipse_5222-2" data-name="Elipse 5222" cx="62.591" cy="62.591" r="62.591" transform="translate(15 9)" fill="#ffb500"/>
    </g>
    <g id="Grupo_876390" data-name="Grupo 876390" transform="translate(-6850.499 -9562.48)">
      <g id="Grupo_876389" data-name="Grupo 876389" clip-path="url(#clip-path)">
        <path id="Trazado_613957" data-name="Trazado 613957" d="M75.924,82.144c-1.817-.594-3.015-2-4.3-3.285Q62.19,69.42,52.761,59.978c-.393-.4-.615-.432-1.093-.1a32.069,32.069,0,0,1-20.409,5.862,32.467,32.467,0,0,1-20.1-8.178,1.442,1.442,0,0,1-.523-1.884,1.191,1.191,0,0,1,1.823-.449,12.459,12.459,0,0,1,1.3,1.06,30.429,30.429,0,0,0,16.852,6.746,34.809,34.809,0,0,0,7.1-.281,29.424,29.424,0,0,0,14.5-6.586A29.489,29.489,0,0,0,62.849,37.078a29.282,29.282,0,0,0-6.64-23.429A29.212,29.212,0,0,0,36.757,2.924a20.065,20.065,0,0,0-5.743-.179A29.5,29.5,0,0,0,10.8,12.3,29.267,29.267,0,0,0,2.96,28.824,29.835,29.835,0,0,0,9.111,51.548c.648.854.558,1.452-.223,2.049-.956.385-1.295.294-1.922-.508A32.4,32.4,0,0,1,.243,36.851a32.889,32.889,0,0,1,64.508-12.14c2.49,9.626.765,18.646-4.823,26.891-.334.492-.316.743.1,1.159C63.9,56.6,67.747,60.468,71.614,64.31a1.5,1.5,0,0,1,.44,1.92,1.256,1.256,0,0,1-2.086.181c-.636-.568-1.215-1.2-1.82-1.8-1.129-1.126-1.125-1.124-2.284.028-.492.489-.958,1-1.5,1.444-.078.072-.153.148-.224.228-.609.688-.611.69.024,1.325q3.673,3.675,7.348,7.348c.714.713.716.71,1.438-.011.743-.727,1.449-1.491,2.215-2.192.479-.439.432-.763-.016-1.176A13.212,13.212,0,0,1,73.7,70.119a1.256,1.256,0,0,1,.146-1.926,1.335,1.335,0,0,1,1.914.269q2.479,2.51,4.99,4.989a6.513,6.513,0,0,1,1.429,2.6v1.925a4.706,4.706,0,0,1-4.171,4.171Z" fill="#040506"/>
        <path id="Trazado_613958" data-name="Trazado 613958" d="M8.889,53.6c.623-.858.636-1.176.005-1.988a29.426,29.426,0,0,1-6.225-15.17A29.8,29.8,0,0,1,9.8,13.122,29.987,29.987,0,0,1,28.3,2.782a11.1,11.1,0,0,1,2.706-.223c.016.446-.379.446-.64.569A29.991,29.991,0,0,0,21.4,9.321a1.871,1.871,0,0,0-.482.63c-.9.709-1.945,1.2-2.878,1.871a25.391,25.391,0,0,0-10.2,15.047,24.853,24.853,0,0,0,1.4,16.222,25.544,25.544,0,0,0,15.5,14.267,2.593,2.593,0,0,1,.939.432,21.783,21.783,0,0,0,5.272,2.95,26.513,26.513,0,0,0,6.466,1.977.506.506,0,0,1,.341.184,24.048,24.048,0,0,1-6.127.426A30.451,30.451,0,0,1,16.163,58.32a34.126,34.126,0,0,1-3.433-2.625c-.846-.725-1.224-.714-2.095-.019A7.774,7.774,0,0,0,8.889,53.6" fill="#f0e5e2"/>
        <path id="Trazado_613959" data-name="Trazado 613959" d="M73.847,68.192a1.329,1.329,0,0,0,.209,2.032c.542.549,1.082,1.1,1.642,1.632.262.248.319.423.022.7-.889.838-1.752,1.7-2.626,2.558-.429.1-.612-.256-.849-.481-2.656-2.53-5.092-5.276-7.695-7.859-.206-.206-.535-.4-.33-.794.805-.818,1.623-1.624,2.407-2.462.291-.311.461-.29.745.007.831.868,1.691,1.709,2.544,2.555.812.806,1.241.832,2.138.146a6.214,6.214,0,0,0,1.793,1.963" fill="#d7cbc5"/>
        <path id="Trazado_613960" data-name="Trazado 613960" d="M37.762,62.9A19.6,19.6,0,0,1,31.8,61.3,28.029,28.029,0,0,1,26,58.314c-.175-.119-.387-.192-.43-.437.425-.266.836-.038,1.237.06a24.441,24.441,0,0,0,15.864-1.195c9.066-3.942,14.424-10.884,15.826-20.7a24.732,24.732,0,0,0-2.921-15.489A1.713,1.713,0,0,0,53.7,19.512a6.592,6.592,0,0,1-1.617-2.417,1.583,1.583,0,0,0-.4-1.892A25.776,25.776,0,0,0,22.53,9.282c-.521.226-1.007.622-1.64.509a6.885,6.885,0,0,1,2.05-2.2,30.841,30.841,0,0,1,7.9-4.865c.067-.027.11-.11.165-.167a17.936,17.936,0,0,1,5.184.055A29.716,29.716,0,0,1,51.976,9.171,29.753,29.753,0,0,1,62.94,27.918,30.4,30.4,0,0,1,43.316,61.506a22.516,22.516,0,0,1-5.554,1.4" fill="#f6f0ee"/>
        <path id="Trazado_613961" data-name="Trazado 613961" d="M74.774,77c.913-.934,1.836-1.86,2.733-2.809.241-.255.369-.165.556.034.329.35.687.674,1.013,1.026a2.64,2.64,0,0,1-1.536,4.358,1.717,1.717,0,0,1-1.018-.7A10.757,10.757,0,0,1,74.774,77" fill="#d7cac5"/>
        <path id="Trazado_613962" data-name="Trazado 613962" d="M64.22,65.984a.631.631,0,0,0,.208.417q4.171,4.244,8.341,8.489a2.3,2.3,0,0,0,.325.228,6.082,6.082,0,0,0-.42.476c-.3.42-.537.334-.875-.007q-4.085-4.124-8.207-8.208c-.309-.306-.4-.512-.015-.8.231-.176.43-.4.643-.594" fill="#bfb2ad"/>
        <path id="Trazado_613963" data-name="Trazado 613963" d="M59.859,61.728c.835-.853,1.676-1.7,2.5-2.563.219-.229.362-.3.619-.028.638.677,1.3,1.328,1.971,1.975.232.224.3.386.027.643-.9.856-1.788,1.735-2.68,2.6a12.788,12.788,0,0,1-2.423-2.334.27.27,0,0,1-.015-.3" fill="#bfb2ad"/>
        <path id="Trazado_613964" data-name="Trazado 613964" d="M58.793,55.014c.61.593,1.215,1.191,1.833,1.776.229.216.317.381.039.644-.909.859-1.8,1.74-2.693,2.613a2.576,2.576,0,0,1-1.469-2.51,4.231,4.231,0,0,1,2.29-2.523" fill="#d7cbc5"/>
        <path id="Trazado_613965" data-name="Trazado 613965" d="M58.793,55.014a7.734,7.734,0,0,0-1.713,1.751,1.777,1.777,0,0,0,.165,2.447,3.434,3.434,0,0,1,.727.835c-.157.179-.32.352-.467.538-.239.3-.436.281-.7,0-.738-.772-1.489-1.534-2.267-2.265-.335-.315-.258-.478.052-.739a21.667,21.667,0,0,0,2.835-2.823c.418-.51.716-.644,1.121-.05.074.108.167.2.251.3" fill="#bfb2ad"/>
        <path id="Trazado_613966" data-name="Trazado 613966" d="M59.859,61.728,62.3,64.36c-.139.158-.287.308-.413.476-.268.357-.493.374-.813.022a19.436,19.436,0,0,0-1.695-1.689c-.455-.392-.487-.678.008-1.023a5.055,5.055,0,0,0,.475-.418" fill="#a99c9c"/>
        <path id="Trazado_613967" data-name="Trazado 613967" d="M74.774,77l2.766,2.609a2.223,2.223,0,0,1-2.145-.481,6.336,6.336,0,0,1-.7-.657c-.766-.763-.764-.764.075-1.471" fill="#beb1ac"/>
        <path id="Trazado_613968" data-name="Trazado 613968" d="M53.685,19.444c1.038-.322,1.411-.173,1.953.782,8.219,14.478.34,33.374-15.7,37.7a26,26,0,0,1-13.974.005,3.214,3.214,0,0,0-.395-.06,26.186,26.186,0,0,1-10.817-6.407C8.891,45.576,6.2,38.461,7.095,30.187c.976-9.043,5.669-15.725,13.537-20.219.09-.051.172-.118.257-.177a27.712,27.712,0,0,1,8.092-2.6,25.723,25.723,0,0,1,21.041,6.128,26.833,26.833,0,0,1,2.009,1.954c.654.683.664,1.09.147,1.914a1.093,1.093,0,0,1-1.593.257,4.746,4.746,0,0,1-.955-.851A22.239,22.239,0,0,0,36.176,9.771a22.608,22.608,0,0,0-19.4,6.29q-.87.826-1.689,1.709A22.915,22.915,0,0,0,9.7,30.471,22.691,22.691,0,0,0,16.343,49.29a11.95,11.95,0,0,0,1.939,1.787,23.052,23.052,0,0,0,12.2,5.041,22.6,22.6,0,0,0,12.7-2.234,23.464,23.464,0,0,0,13.11-21.618,23.11,23.11,0,0,0-2.9-10.653c-.591-1.077-.534-1.65.294-2.169" fill="#040506"/>
        <path id="Trazado_613969" data-name="Trazado 613969" d="M14.969,17.665a22.121,22.121,0,0,1,12.41-7.677c8.821-1.962,16.439.38,22.782,6.828.779.793,1.115.862,2.017.377a17.817,17.817,0,0,1,1.507,2.252c-.672.663-.523,1.318-.1,2.083A23.494,23.494,0,0,1,41.4,54.857c-8.2,3.133-15.909,1.849-22.963-3.365a2.792,2.792,0,0,1-.28-.275,29.469,29.469,0,0,1-6.572-16.632,31.042,31.042,0,0,1,2.378-15.194,15.7,15.7,0,0,1,1-1.726" fill="#79c7d9"/>
        <path id="Trazado_613970" data-name="Trazado 613970" d="M14.969,17.665a39.855,39.855,0,0,0-2.48,6.973,32.2,32.2,0,0,0-.688,9.99A29.786,29.786,0,0,0,15.266,46.48,29.457,29.457,0,0,0,17.9,50.66c.13.171.288.317.261.557a21.435,21.435,0,0,1-6.937-9.131C7.744,33.307,9,25.175,14.84,17.754a.547.547,0,0,1,.129-.089" fill="#5abcd1"/>
        <path id="Trazado_613971" data-name="Trazado 613971" d="M39.208,20.689c.553.159.809.641,1.146,1.039a8.621,8.621,0,0,0,.618.606c.073.353-.18.531-.393.731A9.214,9.214,0,0,1,39,24.155a1.25,1.25,0,0,0,.036,2.3,5.509,5.509,0,0,1,2.947,2.988c.5,1.111,1.664,1.069,2.314.022.253-.409.345-.981.96-1.072a14.5,14.5,0,0,1,1.455,2.525,2.591,2.591,0,0,0-.169,2.4c1.086,4.269-.1,8.046-2.789,11.377a13.584,13.584,0,0,1-8.783,5,2.021,2.021,0,0,1-.872.021,14.772,14.772,0,0,1-9.007-11.9A11.352,11.352,0,0,1,26.122,31.1a45.653,45.653,0,0,1,6.75-9.9,24.489,24.489,0,0,1,2.012-2.175c.252-.234.474-.519.861-.536a2.188,2.188,0,0,1,1.306,1.1,1.985,1.985,0,0,0,2.157,1.1" fill="#d2e9ef"/>
        <path id="Trazado_613972" data-name="Trazado 613972" d="M39.208,20.689c-.971.428-1.3.318-1.929-.529a8.669,8.669,0,0,0-1.466-1.543,10.055,10.055,0,0,1-1.9-1.7,1.341,1.341,0,0,0-2.114.011A66.293,66.293,0,0,0,21.542,29.408a18.865,18.865,0,0,0-1.566,3.154A11.282,11.282,0,0,0,21.2,42.7a13.006,13.006,0,0,0,11.594,6.67,4.4,4.4,0,0,1,1.261.181,13.3,13.3,0,0,0,10.825-6.832c1.845-3.141,2.554-6.525,1.227-10.1a1.27,1.27,0,0,1,.611-1.7c.948-.184,1.4.078,1.737,1.05,1.473,4.294.662,8.332-1.564,12.117A16.136,16.136,0,0,1,30.714,51.9a16.372,16.372,0,0,1-13.8-13,14.032,14.032,0,0,1,1.91-10.05A61.549,61.549,0,0,1,28.61,16.432q.783-.8,1.589-1.586a3.663,3.663,0,0,1,5.246-.03c1.252,1.2,2.463,2.452,3.666,3.7.783.815.78,1.222.1,2.169" fill="#040506"/>
        <path id="Trazado_613973" data-name="Trazado 613973" d="M45.26,28.392a3.021,3.021,0,0,0-.739,1.113,1.5,1.5,0,0,1-1.432.96,1.454,1.454,0,0,1-1.361-1.05,4.367,4.367,0,0,0-2.708-2.736,1.358,1.358,0,0,1-.953-1.253,1.417,1.417,0,0,1,.812-1.435,5.13,5.13,0,0,0,2.093-1.657,2.609,2.609,0,0,0,.742-1.111,1.52,1.52,0,0,1,1.353-.967,1.455,1.455,0,0,1,1.409.88A6.216,6.216,0,0,0,47.377,24a1.484,1.484,0,0,1-.035,2.716,4.671,4.671,0,0,0-2.082,1.674" fill="#040506"/>
        <path id="Trazado_613974" data-name="Trazado 613974" d="M34.052,49.553a13.862,13.862,0,0,1-14.9-11.974,12.087,12.087,0,0,1,1.985-7.9A64.1,64.1,0,0,1,30.89,17.542c1.787-1.846,2.16-1.836,3.881-.02.346.366.695.73,1.042,1.094-.373.007-.548.309-.764.532A53.252,53.252,0,0,0,26.964,29.8c-3.063,5.377-1.855,11.113,1.528,15.44a16.411,16.411,0,0,0,5.56,4.316" fill="#a8d9e6"/>
        <path id="Trazado_613975" data-name="Trazado 613975" d="M43.217,26.965a7.9,7.9,0,0,0-1.431-1.507c-.253-.183-.208-.328.024-.475.023-.014.038-.04.061-.051.572-.269.767-1.291,1.38-1.11.506.15.862.887,1.368,1.277.246.189.2.322-.026.482a8.424,8.424,0,0,0-1.376,1.384" fill="#ffda5b"/>
      </g>
    </g>
  </g>
</svg>
