<svg xmlns="http://www.w3.org/2000/svg" xmlns:xlink="http://www.w3.org/1999/xlink" width="155.183" height="155.183" viewBox="0 0 155.183 155.183">
  <defs>
    <filter id="Elipse_5222" x="0" y="0" width="155.183" height="155.183" filterUnits="userSpaceOnUse">
      <feOffset dy="6" input="SourceAlpha"/>
      <feGaussianBlur stdDeviation="5" result="blur"/>
      <feFlood flood-opacity="0.329"/>
      <feComposite operator="in" in2="blur"/>
      <feComposite in="SourceGraphic"/>
    </filter>
    <clipPath id="clip-path">
      <rect id="Rectángulo_324967" data-name="Rectángulo 324967" width="63.927" height="77.956" fill="none"/>
    </clipPath>
  </defs>
  <g id="Grupo_876564" data-name="Grupo 876564" transform="translate(6557 9593)">
    <g transform="matrix(1, 0, 0, 1, -6557, -9593)" filter="url(#Elipse_5222)">
      <circle id="Elipse_5222-2" data-name="Elipse 5222" cx="62.591" cy="62.591" r="62.591" transform="translate(15 9)" fill="#ffb500"/>
    </g>
    <g id="Grupo_876392" data-name="Grupo 876392" transform="translate(-6508.464 -9560.387)">
      <g id="Grupo_876391" data-name="Grupo 876391" transform="translate(0 0)" clip-path="url(#clip-path)">
        <path id="Trazado_613976" data-name="Trazado 613976" d="M62.872,63.616a1.222,1.222,0,0,1,1.049,1.354c0,3.384.014,6.769-.007,10.155a3.008,3.008,0,0,1-2.107,2.831H2.133A3.362,3.362,0,0,1,0,74.427q.042-35.6.019-71.21A2.909,2.909,0,0,1,2.047.106a2.6,2.6,0,0,1,.823-.1q3.194,0,6.39,0c.925,0,1.225.265,1.416,1.216.038.816-.313,1.137-1.414,1.292-1.827.043-3.653,0-5.479.021-1.09.011-1.222.147-1.25,1.229-.007.228,0,.456,0,.684v69.1c0,1.876,0,1.876,1.89,1.876H59.59c1.818,0,1.812,0,1.821-1.8.015-3.018.02-6.035.049-9.054.283-.928.6-1.142,1.411-.952" transform="translate(0 0.001)" fill="#040506"/>
        <path id="Trazado_613977" data-name="Trazado 613977" d="M61.821,63.511a1.278,1.278,0,0,0-1.244.795c-.116,1.8-.021,3.6-.05,5.394-.012.823-.071.892-.906.932-.253.011-.507.006-.76.006q-20.5,0-41.005,0a4.054,4.054,0,0,1-1.432-.113c-.4-.242-.327-.65-.332-1.016-.017-1.259-.015-2.519-.006-3.779a2.922,2.922,0,0,0-2.066-3.079,10.8,10.8,0,0,0-2.568-.106c-.759-.028-1.519,0-2.278-.01-.823-.016-.982-.173-1.014-.971a2.557,2.557,0,0,1,.078-.9c.191-.411.578-.355.923-.359,1.24-.015,2.482,0,3.722-.008,2.165-.018,3.206-1.068,3.218-3.245.007-1.115.017-2.229,0-3.342a1.768,1.768,0,0,1,.726-1.5c.986-.794,1.895-1.678,2.873-2.481a4.475,4.475,0,0,0,.54-.535c.438-.51.475-.967.095-1.349a.9.9,0,0,0-1.3-.024c-.8.585-1.494,1.291-2.253,1.922-.1.08-.186.172-.276.261-.645.635-1.306,1.125-2.244.486a2.529,2.529,0,0,0-.883-.213c-1.367-.138-2.737-.024-4.106-.061-.945-.026-1.161-.254-1.11-1.194.037-.7.206-.886.935-.9,1.242-.024,2.485,0,3.729-.009a2.381,2.381,0,0,0,.9-.094,2.893,2.893,0,0,0,2.361-3.241c.006-1.215.016-2.43,0-3.645a2.8,2.8,0,0,0-3.06-3.087c-1.24-.025-2.481.006-3.721-.011-.367-.006-.776.072-1.037-.314a2.82,2.82,0,0,1-.122-1.126q0-16.57,0-33.139a1.641,1.641,0,0,1,.243-1.232A1.289,1.289,0,0,0,9.625,1.121c.609,0,1.216-.015,1.824.006a.73.73,0,0,0,.717-.311c.48,1.051,1.366,1.145,2.394,1.143q14.861-.037,29.723-.011a2.552,2.552,0,0,1,1.41.183A1.667,1.667,0,0,1,45.922,3.3c.008,2.715,0,5.429.006,8.144.009,3.211,1.911,5.113,5.12,5.121,2.664.008,5.327,0,7.99,0,1.609,0,1.628.02,1.628,1.6q0,20.281,0,40.562a7.059,7.059,0,0,0,.035,1.136c.112.553.68.714.969,1.114a8.827,8.827,0,0,0,.15,2.538" transform="translate(1.051 0.106)" fill="#f8f4f3"/>
        <path id="Trazado_613978" data-name="Trazado 613978" d="M61.209,61.078a1.449,1.449,0,0,1-1.087-.785,2.684,2.684,0,0,1-.05-.906q-.005-20.774.007-41.548c0-.717-.21-1.4-.216-2.11a.507.507,0,0,0-.526-.532,7.131,7.131,0,0,0-.76-.026q-4.033,0-8.066,0c-2.5,0-3.546-1.061-3.55-3.582,0-2.639,0-5.277,0-7.914,0-1.059-.009-1.061-1.02-1.144a1.189,1.189,0,0,1-.716-.212c-1.191-.008-2.384-.024-3.575-.024q-14.233,0-28.466,0c-1.065,0-1.4-.313-1.478-1.37A1.259,1.259,0,0,1,13.085,0Q30.656.019,48.226,0a1.593,1.593,0,0,1,1.21.5q6.206,6.22,12.425,12.424a1.792,1.792,0,0,1,.553,1.354q-.012,22.63-.008,45.262c0,.988-.262,1.314-1.2,1.537" transform="translate(1.512 0)" fill="#040506"/>
        <path id="Trazado_613979" data-name="Trazado 613979" d="M17.058,70.224q21.726.005,43.451.02c.566,0,.749-.155.735-.728-.036-1.521-.017-3.043-.008-4.565,0-.27-.091-.562.124-.8q-.014,5.024-.025,10.046c0,1.185-.029,1.215-1.17,1.215H3.232c-1.117,0-1.162-.043-1.162-1.145V3.168c0-1.1.04-1.14,1.168-1.137q2.967.008,5.935.024V37.648c-.215.294-.563.316-.867.428a2.556,2.556,0,0,0-1.8,2.467c-.027,1.544-.037,3.089,0,4.633a2.523,2.523,0,0,0,2.666,2.607c1.494.019,2.988,0,4.482.009.343,0,.719-.073.995.237-.263.227-.58.123-.872.125-1.337.011-2.675.035-4.011-.007-.714-.021-.6.429-.6.847s-.123.873.594.85c1.259-.042,2.521-.017,3.783-.008.268,0,.559-.088.8.123-.274.314-.65.236-.994.239-1.317.012-2.633-.006-3.95.008A2.613,2.613,0,0,0,6.5,53.126q-.012,2.014,0,4.026a2.634,2.634,0,0,0,2.012,2.856c.234.087.5.12.661.344,0,1.809,0,1.809,1.815,1.809,1.084,0,2.168,0,3.252,0,.244,0,.51-.075.718.135-.28.3-.654.23-1,.233-1.622.011-3.244-.006-4.866.009a2.494,2.494,0,0,0-2.586,2.586c-.023,1.469-.026,2.939,0,4.409A2.541,2.541,0,0,0,9.317,72.3c1.52,0,3.041-.03,4.561.01a2.673,2.673,0,0,0,2.831-1.725c.065-.16.131-.338.349-.357" transform="translate(0.267 0.263)" fill="#f6f0ee"/>
        <path id="Trazado_613980" data-name="Trazado 613980" d="M34.4,13.6a9.809,9.809,0,0,1,1.579,2.02,2.943,2.943,0,0,0,.638,2.534,14.741,14.741,0,0,1,1.19,2.205,7.505,7.505,0,0,1-.2,6.485,9.333,9.333,0,0,1-7.192,5.5,3.258,3.258,0,0,1-1.435-.021,10.712,10.712,0,0,1-5.5-7.973,8.632,8.632,0,0,1,1.142-5.486,35.115,35.115,0,0,1,4.963-6.808c.311-.35.592-.781,1.135-.83.541.114.822.559,1.151.933.233.264.479.524.691.8A2.09,2.09,0,0,0,34.4,13.6" transform="translate(3.022 1.45)" fill="#a8d9e6"/>
        <path id="Trazado_613981" data-name="Trazado 613981" d="M29.65,32.653a9.273,9.273,0,0,0,9.146-7.54,7.818,7.818,0,0,0-.968-5.244c-.367-.663-.755-1.317-1.185-1.939a1.39,1.39,0,0,1,.024-1.864c.982-.368,1.332-.261,1.909.6a14.144,14.144,0,0,1,2.463,5.243,10.425,10.425,0,0,1-2.555,8.952,11,11,0,0,1-11.468,3.808c-4.673-1.093-7.564-4.17-8.726-8.828a9.705,9.705,0,0,1,1.243-7.289A44.025,44.025,0,0,1,27.708,8.519a2.743,2.743,0,0,1,3.8.044c1.258,1.178,2.465,2.41,3.6,3.706a1.263,1.263,0,0,1-.018,1.778,1.385,1.385,0,0,1-1.86-.412,14.015,14.015,0,0,0-1.758-1.847,4.765,4.765,0,0,1-1.323-1.121c-.351-.335-.725-.411-1.069-.058-3.012,3.084-5.995,6.2-7.864,10.159-1.285,2.72-.714,5.317.879,7.7A8.664,8.664,0,0,0,29,32.465a1.129,1.129,0,0,1,.646.187" transform="translate(2.329 1.005)" fill="#040506"/>
        <path id="Trazado_613982" data-name="Trazado 613982" d="M8.691,55.192c-2.075-.3-2.893-1.248-2.893-3.355,0-1.393-.009-2.788,0-4.181a2.749,2.749,0,0,1,2.822-2.83c1.748-.018,3.5-.017,5.245-.025a2.231,2.231,0,0,1,1.15.339c.432.333.708.224,1.078-.119.967-.893,1.976-1.74,2.974-2.6.684-.591,1.317-.6,1.8-.042.462.54.393,1.147-.251,1.723-1.112,1-2.227,2-3.383,2.943a1.563,1.563,0,0,0-.661,1.406c.047,1.163.016,2.331.012,3.5A2.9,2.9,0,0,1,13.4,55.161q-2.356.012-4.711.03" transform="translate(0.749 5.422)" fill="#040506"/>
        <path id="Trazado_613983" data-name="Trazado 613983" d="M35.977,58.923H51.728a5.314,5.314,0,0,1,.684.011,1.076,1.076,0,0,1,1.011,1.133,1.1,1.1,0,0,1-.945,1.122,2.788,2.788,0,0,1-.607.019q-15.9,0-31.807,0a2.854,2.854,0,0,1-.606-.016,1.092,1.092,0,0,1-.969-1.172,1.073,1.073,0,0,1,1.054-1.09,6.581,6.581,0,0,1,.684-.008H35.977" transform="translate(2.388 7.611)" fill="#040506"/>
        <path id="Trazado_613984" data-name="Trazado 613984" d="M35.971,37.194H51.643c.254,0,.508-.006.761.015a1.034,1.034,0,0,1,1,.967,1.084,1.084,0,0,1-.71,1.206,2.043,2.043,0,0,1-.9.106q-15.862,0-31.725,0a4.093,4.093,0,0,1-.456-.006,1.185,1.185,0,0,1-1.142-1.189A1.139,1.139,0,0,1,19.691,37.2c2.891-.012,5.781-.007,8.672-.007h7.608" transform="translate(2.387 4.805)" fill="#050506"/>
        <path id="Trazado_613985" data-name="Trazado 613985" d="M35.9,50.327H20.224a6.537,6.537,0,0,1-.759-.02,1.053,1.053,0,0,1-.974-1,1.069,1.069,0,0,1,.687-1.153,2.062,2.062,0,0,1,.9-.125q15.9,0,31.8,0a1.969,1.969,0,0,1,.821.112,1.077,1.077,0,0,1,.715,1.2,1.036,1.036,0,0,1-1,.968c-.252.02-.507.015-.76.016H35.9" transform="translate(2.387 6.205)" fill="#050606"/>
        <path id="Trazado_613986" data-name="Trazado 613986" d="M14.175,43.955c-1.825,0-3.648,0-5.473-.014a2.755,2.755,0,0,1-2.9-2.9c-.007-1.343.069-2.691-.018-4.029a2.991,2.991,0,0,1,2.91-3.436l4.7.034a2.9,2.9,0,0,1,3.189,3.2c0,1.291,0,2.581,0,3.872a2.926,2.926,0,0,1-2.412,3.271" transform="translate(0.746 4.337)" fill="#040506"/>
        <path id="Trazado_613987" data-name="Trazado 613987" d="M16.577,63.339c-.623,1.792-1.392,2.334-3.32,2.335-1.5,0-2.989.011-4.484,0A2.759,2.759,0,0,1,5.8,62.686c0-1.5-.009-2.99,0-4.484a2.677,2.677,0,0,1,2.6-2.8c2.022-.094,4.05-.084,6.075.017a3.057,3.057,0,0,1,2.116,3.295c-.041,1.542-.014,3.086-.016,4.63" transform="translate(0.748 7.148)" fill="#040506"/>
        <path id="Trazado_613988" data-name="Trazado 613988" d="M41.389,2.056c1.952-.1,1.952-.1,1.952,1.841q0,3.841,0,7.682c0,2.064,1.061,3.113,3.144,3.117,2.942,0,5.883.026,8.822-.017.74-.01.971.132.97.936q-.042,21.563-.018,43.127c0,.431.018.862.027,1.292-.245-.289-.13-.635-.13-.952q-.01-20.742.012-41.483c0-.767-.181-.986-.963-.972-2.891.05-5.784.02-8.675.02a4.907,4.907,0,0,1-5.142-5.151V2.056" transform="translate(5.347 0.261)" fill="#f5efee"/>
        <path id="Trazado_613989" data-name="Trazado 613989" d="M45.154,3.537l8.635,8.631c-.09.143-.315.032-.495.032-2.406.009-4.813-.012-7.219.018-.675.009-.946-.169-.936-.9.037-2.582.015-5.166.015-7.785" transform="translate(5.831 0.457)" fill="#f8f4f3"/>
        <path id="Trazado_613990" data-name="Trazado 613990" d="M29.384,32.388a9.3,9.3,0,0,1-9.159-7.435,7.733,7.733,0,0,1,.865-5.194,39.174,39.174,0,0,1,6.941-8.886c1.365-1.4,1.2-1.375,2.56-.014.212.213.41.442.614.663-.577.117-.866.611-1.2,1a41.112,41.112,0,0,0-4.679,6.416,9.009,9.009,0,0,0,.114,9.435A10.374,10.374,0,0,0,28.935,32c.168.111.367.182.449.39" transform="translate(2.596 1.27)" fill="#79c7d9"/>
        <path id="Trazado_613991" data-name="Trazado 613991" d="M13.425,46.523c-.711.626-1.284,1.118-1.841,1.626-.2.185-.323.194-.563.014-.684-.514-1.32-.467-1.737.056s-.311,1.134.3,1.736c1.581,1.547,1.686,1.549,3.329.076.317-.285.643-.561,1.1-.958,0,.974.014,1.794-.006,2.612-.011.447-.322.593-.727.593q-2.359,0-4.718,0c-.543,0-.759-.263-.751-.806.02-1.395.017-2.79,0-4.185-.006-.551.228-.775.777-.769,1.542.016,3.085.006,4.832.006" transform="translate(1.009 6.009)" fill="#efe5e1"/>
        <path id="Trazado_613992" data-name="Trazado 613992" d="M10.941,41.385c-.811,0-1.622-.008-2.432,0-.481.006-.691-.219-.69-.69.006-1.444.01-2.89,0-4.333,0-.482.215-.708.679-.709q2.432-.005,4.865,0a.586.586,0,0,1,.657.656c0,1.47.007,2.939,0,4.408,0,.46-.235.682-.718.67-.786-.02-1.571-.006-2.357-.006" transform="translate(1.01 4.606)" fill="#f0e5e1"/>
        <path id="Trazado_613993" data-name="Trazado 613993" d="M10.933,57.411c.785,0,1.57.014,2.354-.006.47-.011.728.174.731.65,0,1.468.007,2.937,0,4.4a.575.575,0,0,1-.655.648q-2.431-.015-4.86,0c-.483,0-.685-.213-.682-.689q.012-2.165,0-4.329c0-.48.206-.691.685-.683.81.012,1.62,0,2.43,0" transform="translate(1.01 7.416)" fill="#f0e5e2"/>
      </g>
    </g>
  </g>
</svg>
