<svg id="Grupo_876465" data-name="Grupo 876465" xmlns="http://www.w3.org/2000/svg" xmlns:xlink="http://www.w3.org/1999/xlink" width="69.189" height="65.9" viewBox="0 0 69.189 65.9">
  <defs>
    <clipPath id="clip-path">
      <rect id="Rectángulo_324991" data-name="Rectángulo 324991" width="69.189" height="65.9" transform="translate(0 0)" fill="none"/>
    </clipPath>
  </defs>
  <g id="Grupo_876464" data-name="Grupo 876464" clip-path="url(#clip-path)">
    <path id="Trazado_614632" data-name="Trazado 614632" d="M19.808,41.874a1.135,1.135,0,0,1,.294-1.609c.257-.218.5-.45.752-.678a2.677,2.677,0,0,0,1.234-2.526c-.222-2.22,2.015-3.8,4.256-3.264a.638.638,0,0,0,.778-.249c1.517-1.839,3.058-3.658,4.588-5.485a.694.694,0,0,0,.061-.17,2.6,2.6,0,0,1-1.717-1.8c-.172-.461-.364-.914-.554-1.368a2.853,2.853,0,0,1,.7-3.442c.433-.4.415-.661-.032-.973a.812.812,0,0,1-.144-.143c-.609-.742-1.1-1.192-2.245-.552-1.456.816-3.324-.017-4.352-1.57a3.437,3.437,0,0,1,.4-4.337q6.327-6.37,12.7-12.7a3.433,3.433,0,0,1,4.6-.24c1.651,1.332,2.085,3.2,1.044,4.82-.283.44-.194.658.143.922a2.292,2.292,0,0,1,.192.19c.351.348.654.883,1.069.992s.665-.55,1.057-.8a2.8,2.8,0,0,1,2.627-.33c.709.273,1.411.563,2.114.854a1.711,1.711,0,0,1,1.048.9A5.2,5.2,0,0,0,51.9,10.2a1.134,1.134,0,0,1,.23,1.615.946.946,0,0,1-1.558.147c-.517-.415-.79-.238-1.171.144Q42.146,19.384,34.876,26.64c-.576.576-.575.579,0,1.156.523.525,1.045,1.051,1.576,1.568.578.6,1.171,1.18,1.76,1.767.518.515.524.516,1.063-.023q2.386-2.38,4.767-4.765l9.723-9.722c.6-.6.6-.6.122-1.288s-.454-1.1.083-1.558a1.117,1.117,0,0,1,1.669.177,5.088,5.088,0,0,0,1.934,1.515.626.626,0,0,1,.323.236c.9,1.394,1.77,2.811,1.558,4.576a2.652,2.652,0,0,1-1,1.636c-.294.26-.4.469-.018.726a1.247,1.247,0,0,1,.238.238c.626.749,1.126,1.267,2.309.591,1.407-.8,3.206-.017,4.276,1.471a3.471,3.471,0,0,1-.151,4.248,8.241,8.241,0,0,1-.6.638Q59.24,35.1,53.96,40.374a5.838,5.838,0,0,1-.584.453c.24.3.455.195.633.195,3.646.008,7.293.079,10.936-.023,2.021-.056,3.481.548,4.244,2.492v1.485a3.091,3.091,0,0,1-3.208,2.735,1.113,1.113,0,0,0-1.06.663,10.881,10.881,0,0,0-1.226,4.718c-.034.982-.358,1.358-1.276,1.5-.846-.236-1.08-.515-1.134-1.353-.056-.873-.062-.883-.955-.889q-5.9-.035-11.8-.021c-.773-.2-1.159-.636-1.121-1.273a1.236,1.236,0,0,1,1.286-1.127c1.23-.067,2.463-.024,3.694-.023,1.791,0,3.583-.022,5.373.011,1.078,0,2.158-.008,3.237,0a.806.806,0,0,0,.9-.626,8.785,8.785,0,0,1,.413-1.07c.16-.362.038-.487-.336-.485-1.057,0-2.114.009-3.172,0-.2,0-.405.024-.607.024-10.586-.006-21.171.012-31.755-.007-2.3-.152-3.039.228-4.313,2.227a19.915,19.915,0,0,1,2.1-.066c5.2-.04,10.4-.012,15.594-.015.068,0,.135,0,.2.008a1.3,1.3,0,0,1,1.351,1.078c.079.623-.288,1.074-1.075,1.325-5.926.028-11.853.006-17.78.013-1.579,0-1.772.222-1.574,1.815a12.645,12.645,0,0,0,.966,4.31c.157.348.286.723.749.779,7.737.021,15.472,0,23.207.008,3.305,0,6.611-.038,9.916.015,2.024.032,4.034-.265,6.057-.172.419.019.585-.116.428-.556A1.166,1.166,0,0,1,62.73,57.1a1.225,1.225,0,0,1,1.762.545,3.261,3.261,0,0,1,.266.544,1.38,1.38,0,0,0,1.349.976,3.225,3.225,0,0,1,3.082,2.694v1.486a3.5,3.5,0,0,1-2.723,2.492,5.181,5.181,0,0,1-.872.058q-21.065,0-42.129,0a3.256,3.256,0,0,1-3.594-3.319c-.022-.319-.123-.387-.39-.363-.044,0-.091-.005-.135,0-2.143.33-3.308-.831-4.042-2.651-.232-.576-.466-1.15-.716-1.764-1.97,2.136-3.912,4.231-5.841,6.338A5.023,5.023,0,0,1,4.959,65.9,4.837,4.837,0,0,1,.423,62.872a4.608,4.608,0,0,1,.987-5.287c1.483-1.5,3.079-2.9,4.632-4.335Q11.1,48.577,16.16,43.91c.5-.459.987-.709,1.6-.23a1,1,0,0,1,.048,1.728c-.615.559-1.188,1.162-1.813,1.708-1.488,1.3-2.91,2.668-4.367,4-2.2,2.013-4.371,4.062-6.587,6.06-.649.586-1.276,1.2-1.921,1.789A2.736,2.736,0,0,0,2.614,62.3a2.692,2.692,0,0,0,4.3.51c2.189-2.348,4.36-4.712,6.541-7.067q1.784-1.927,3.565-3.857c2.074-2.24,4.153-4.475,6.211-6.73.665-.73,1.334-1.458,2.018-2.17.326-.339.324-.585-.017-.9-.448-.408-.861-.854-1.269-1.3-.368-.451-.71-.387-1.131-.025-.477.41-.873.9-1.381,1.277-.7.512-1.229.45-1.641-.167" fill="#040506"/>
    <path id="Trazado_614633" data-name="Trazado 614633" d="M53.971,13.775a1.132,1.132,0,0,0,.25,1.663c.372.312.45.527.04.934q-7.578,7.527-15.107,15.1c-.328.33-.5.357-.822,0-.627-.7-1.3-1.356-1.961-2.03.058-.289.293-.446.48-.634q7.776-7.781,15.557-15.555a1.277,1.277,0,0,1,.579-.446,5.2,5.2,0,0,1,.984.965" fill="#f79220"/>
    <path id="Trazado_614634" data-name="Trazado 614634" d="M52.987,12.81c-.112.138-.213.288-.338.414Q44.693,21.186,36.73,29.143c-.11.11-.239.2-.359.3C35.682,28.772,35,28.092,34.3,27.43c-.193-.182-.214-.311-.006-.475a2.151,2.151,0,0,0,.192-.19q7.533-7.531,15.058-15.072c.364-.365.57-.411.941-.011.569.613.915.607,1.646.134q.427.5.858.994" fill="#fcb159"/>
    <path id="Trazado_614635" data-name="Trazado 614635" d="M19.808,41.874a1.1,1.1,0,0,0,1.7-.082,12.7,12.7,0,0,0,1.264-1.186c.5-.591.891-.481,1.3.061.185.329-.086.5-.261.678-2,2.039-3.888,4.178-5.832,6.267-2.755,2.96-5.486,5.943-8.233,8.911C8.3,58.089,6.858,59.665,5.41,61.232a3.931,3.931,0,0,1-2.416,1.237c-.18.025-.357.066-.508-.079a2.779,2.779,0,0,1,.489-3.51c3.11-2.888,6.248-5.747,9.372-8.62q2.677-2.463,5.344-4.939c.583-.545.581-.961.07-1.642a9.419,9.419,0,0,0,2.047-1.805" fill="#752e24"/>
    <path id="Trazado_614636" data-name="Trazado 614636" d="M40.287,52.155c.7-.223,1.024-.64.929-1.183s-.526-.858-1.254-.858q-7.571,0-15.142,0c-.246,0-.492-.014-.738-.021a.213.213,0,0,1-.025-.3,16.387,16.387,0,0,1,2.184-2.223c.157-.008.314-.023.471-.023H58.447c.157,0,.314.016.471.024a10.022,10.022,0,0,1-1.077,2.522c-3,.008-6.009.023-9.013.018a1.117,1.117,0,0,0-1.231.714c-.219.634.142,1.128.93,1.339,1.661.1,3.324.022,4.987.041,1.146.013,2.294.028,3.44-.009.532-.016.672.216.655.68a12.165,12.165,0,0,0,1.085,5.639c.341.738.253.845-.553.845q-17.44,0-34.88,0a2.19,2.19,0,0,0-.8.049c-.336.108-.365-.192-.453-.368a10.636,10.636,0,0,1-1.186-4.709c-.163-1.433.444-2.127,1.863-2.127q8.434,0,16.869,0a2,2,0,0,0,.735-.046" fill="#d9c8c3"/>
    <path id="Trazado_614637" data-name="Trazado 614637" d="M22.865,63.756a1.125,1.125,0,0,1-.949-1.311,1.161,1.161,0,0,1,1.21-1.027c.134-.007.269,0,.4,0H62.911c.2,0,.4.022.6.033a1.813,1.813,0,0,1,.311,2.029.62.62,0,0,1-.549.332c-.18,0-.36,0-.54,0q-19.571,0-39.141,0a1.659,1.659,0,0,1-.731-.055" fill="#dd266f"/>
    <path id="Trazado_614638" data-name="Trazado 614638" d="M29.754,43.789a5.744,5.744,0,0,1,3.592-.72q14.682.025,29.364.011c.269,0,.539.015.808.024a1.735,1.735,0,0,1,0,2.39c-.157.007-.314.021-.471.022h-34.3c-.157,0-.314-.014-.471-.022a3.417,3.417,0,0,1,1.483-1.7" fill="#dd266f"/>
    <path id="Trazado_614639" data-name="Trazado 614639" d="M2.486,62.39a4.921,4.921,0,0,0,3.673-2.213c.544-.714,1.228-1.3,1.824-1.979,1.384-1.562,2.852-3.048,4.273-4.577,2.214-2.383,4.434-4.761,6.62-7.169,1.6-1.76,3.193-3.524,4.843-5.237.152-.159.359-.287.354-.548.5.512.993,1.036,1.509,1.533.248.239.257.4.013.662q-2.6,2.775-5.171,5.574-4.465,4.851-8.924,9.707c-1.476,1.6-3.008,3.148-4.454,4.774a2.846,2.846,0,0,1-4.56-.527" fill="#59251e"/>
    <path id="Trazado_614640" data-name="Trazado 614640" d="M32.2,40.988a2.542,2.542,0,0,0-.052-1.314.733.733,0,0,1,.318-.949q2.579-2.122,5.119-4.291c.33-.282.5-.306.623.141a.883.883,0,0,0,.167.29c.8,1.03,2.063,1.218,3.164,1.664a2.773,2.773,0,0,0,3.259-.955c.23-.254.4-.3.623-.008a1.914,1.914,0,0,0,.333.334c.749.612,1.318,1.175.529,2.245-.457.62-.27,1.5.108,2.843Z" fill="#fff"/>
    <path id="Trazado_614641" data-name="Trazado 614641" d="M26.813,17.828a2,2,0,0,1-1.79-1.15,1.394,1.394,0,0,1,.4-1.643Q31.653,8.816,37.877,2.594a1.4,1.4,0,0,1,2.094-.12,1.522,1.522,0,0,1,.316,2.25,4.36,4.36,0,0,1-.451.5q-5.889,5.893-11.781,11.783a2.371,2.371,0,0,1-1.242.821" fill="#752e24"/>
    <path id="Trazado_614642" data-name="Trazado 614642" d="M63.8,27.014a1.258,1.258,0,0,1-.433,1.039Q57.131,34.278,50.9,40.505a1.622,1.622,0,0,1-2.29-2.294q6.176-6.186,12.362-12.361a1.445,1.445,0,0,1,1.695-.473A1.647,1.647,0,0,1,63.8,27.014" fill="#59251e"/>
    <path id="Trazado_614643" data-name="Trazado 614643" d="M57.438,19.476a1.173,1.173,0,0,1-.39.971q-6.917,6.915-13.827,13.836a.979.979,0,0,1-1.047.268c-.64-.2-1.258-.474-1.883-.724-.328-.132-.321-.334-.091-.564l.285-.287L55.7,17.761c.111-.111.22-.224.336-.331.266-.245.492-.3.653.117a17.469,17.469,0,0,1,.748,1.929" fill="#59251e"/>
    <path id="Trazado_614644" data-name="Trazado 614644" d="M31.261,23.539a1.361,1.361,0,0,1,.543-.952l9.549-9.547c1.384-1.385,2.776-2.762,4.148-4.159a.961.961,0,0,1,1.017-.36c.658.221,1.3.5,1.938.768.254.105.264.284.1.48-.1.119-.217.228-.328.339L32.9,25.433c-.586.585-.667.569-.966-.186-.232-.583-.459-1.169-.671-1.708" fill="#752e24"/>
    <path id="Trazado_614645" data-name="Trazado 614645" d="M22.459,59.408c.3-.235.652-.127.978-.127q17.184-.009,34.368,0c.158,0,.316-.013.472,0,.505.049.509-.145.312-.534a10.66,10.66,0,0,1-1.166-4.585,4.889,4.889,0,0,1,0-1.388c.13-.515-.26-.5-.62-.5q-3.78.007-7.562,0c-.239,0-.5.081-.712-.108,4.179-.005,8.358-.005,12.538-.022.38,0,.466.143.421.475a4.385,4.385,0,0,0-.022.538c-.008.864.229,1.138,1.111,1.291a11.188,11.188,0,0,0,.408,2.667c-1,.614-.578,1.4-.141,2.259h-4.7q-16.729,0-33.461,0c-.741,0-1.482.025-2.223.038" fill="#c3b3ae"/>
    <path id="Trazado_614646" data-name="Trazado 614646" d="M58.382,25.512c-.1.116-.177.222-.269.314q-4.725,4.728-9.449,9.457c-.219.221-.373.262-.6.011a9.106,9.106,0,0,0-1-1c-.431-.351-.432-.587-.018-.993,2.407-2.366,4.783-4.764,7.17-7.151.7-.7,1.41-1.392,2.1-2.1.241-.251.4-.277.649-.007.378.416.791.8,1.187,1.2.077.077.143.165.238.274" fill="#923d32"/>
    <path id="Trazado_614647" data-name="Trazado 614647" d="M32.12,19.315c-.113-.1-.216-.187-.311-.281-.367-.364-.713-.754-1.1-1.09-.333-.286-.268-.466.015-.748q4.67-4.639,9.308-9.31c.323-.326.508-.307.792.016.415.471,1.206.905,1.211,1.361s-.759.92-1.2,1.364q-4.125,4.134-8.258,8.259c-.142.143-.292.278-.451.429" fill="#ab483e"/>
    <path id="Trazado_614648" data-name="Trazado 614648" d="M32.171,30.786c.383-.464.708-1.215,1.165-1.307.421-.084.833.7,1.251,1.1.536.512,1.032,1.067,1.582,1.562.369.331.327.551-.029.845-1.483,1.228-2.94,2.488-4.434,3.7-.991.806-1.013.782-1.956-.166-.189-.19-.361-.4-.541-.6.191-.5.65-.778,1-1.147.519-.552,1.07-1.073,1.6-1.612.79-.8.849-1.111.416-2.126a.8.8,0,0,1-.053-.26" fill="#59251e"/>
    <path id="Trazado_614649" data-name="Trazado 614649" d="M22.865,63.756q4.994-.008,9.989-.013,14.785,0,29.569,0c1.3,0,1.722-.6,1.293-1.866a3.944,3.944,0,0,0-.2-.427c.831-.009,1.663-.04,2.493-.019a1.173,1.173,0,0,1,1.15,1.1,1.212,1.212,0,0,1-.993,1.252,3.7,3.7,0,0,1-.737.054q-20.921.008-41.843.007a1.147,1.147,0,0,1-.72-.091" fill="#db0c56"/>
    <path id="Trazado_614650" data-name="Trazado 614650" d="M26.77,40.393c-.769-.753-1.555-1.49-2.3-2.265a1.381,1.381,0,0,1-.029-1.945,1.4,1.4,0,0,1,1.947-.1c.794.725,1.524,1.519,2.281,2.284a1.978,1.978,0,0,1-1.9,2.027" fill="#aa483e"/>
    <path id="Trazado_614651" data-name="Trazado 614651" d="M57.842,50.089a8.557,8.557,0,0,1,1.076-2.522H62.76c-.284.779-.579,1.526-.822,2.289-.089.279-.255.258-.455.257l-3.641-.024" fill="#c2b2ae"/>
    <path id="Trazado_614652" data-name="Trazado 614652" d="M18.828,55.771a15.756,15.756,0,0,0,1.442,4.356c-.755,0-1.376,0-2,0a.531.531,0,0,1-.479-.305,6.4,6.4,0,0,1-.894-1.852.508.508,0,0,1,.128-.551,12.51,12.51,0,0,1,1.286-1.435c.146-.123.274-.308.514-.215" fill="#dd266f"/>
    <path id="Trazado_614653" data-name="Trazado 614653" d="M63.515,45.494a2.611,2.611,0,0,0,0-2.39c.8-.007,1.611-.032,2.416-.017a1.221,1.221,0,0,1,1.226,1.172,1.236,1.236,0,0,1-1.229,1.25c-.8.023-1.61-.008-2.416-.015" fill="#dc0c56"/>
    <path id="Trazado_614654" data-name="Trazado 614654" d="M32.171,30.786a1.465,1.465,0,0,1-.088,2.335c-.95.945-1.915,1.874-2.874,2.81-.811-.679-.829-.694-.2-1.444,1.041-1.245,2.109-2.468,3.165-3.7" fill="#742e24"/>
    <path id="Trazado_614655" data-name="Trazado 614655" d="M26.77,40.393a2.625,2.625,0,0,0,1.9-2.027c.37.355.767.687,1.1,1.07a1.446,1.446,0,0,1,.008,2,1.384,1.384,0,0,1-2.039-.033c-.343-.317-.648-.675-.971-1.014" fill="#923d32"/>
    <path id="Trazado_614656" data-name="Trazado 614656" d="M26.241,47.566a18.574,18.574,0,0,1-1.8,1.983c-.157.152-.359.283-.36.542H21.7c.8-.867,1.516-1.646,2.23-2.43.146-.16.328-.117.5-.116.6,0,1.206.013,1.809.021" fill="#c2b2ae"/>
    <path id="Trazado_614657" data-name="Trazado 614657" d="M18.828,55.771a7.769,7.769,0,0,0-1.928,2.2c-.029-.033-.071-.06-.085-.1-.647-1.776-.649-1.778.638-3.193.368-.4.752-.795,1.217-1.285.059.88.108,1.628.158,2.375" fill="#dc0c56"/>
    <path id="Trazado_614658" data-name="Trazado 614658" d="M29.754,43.789l-1.483,1.7H25.952c.525-.575,1-1.087,1.463-1.609a.418.418,0,0,1,.489-.095,3.7,3.7,0,0,0,1.85,0" fill="#dc0c56"/>
    <path id="Trazado_614659" data-name="Trazado 614659" d="M40.287,52.155c-.235.2-.517.11-.777.11q-8.22.009-16.44.005c-1.5,0-2.13.576-2.25,2.061a.593.593,0,0,1-.047-.125c-.251-2-.193-2.072,1.767-2.071q8.874.008,17.747.02" fill="#baaba6"/>
    <path id="Trazado_614660" data-name="Trazado 614660" d="M40.149,54.709q5.7,0,11.4,0a2.4,2.4,0,0,1,.731.069,1,1,0,0,1-.2,1.949,5.851,5.851,0,0,1-.607.014H28.664c-.838-.01-1.319-.381-1.314-1.016s.5-1.018,1.327-1.018q5.736,0,11.472,0" fill="#050506"/>
  </g>
</svg>
