<svg id="Grupo_876469" data-name="Grupo 876469" xmlns="http://www.w3.org/2000/svg" xmlns:xlink="http://www.w3.org/1999/xlink" width="64.681" height="68.869" viewBox="0 0 64.681 68.869">
  <defs>
    <clipPath id="clip-path">
      <rect id="Rectángulo_324992" data-name="Rectángulo 324992" width="64.682" height="68.869" fill="none"/>
    </clipPath>
  </defs>
  <g id="Grupo_876468" data-name="Grupo 876468" transform="translate(0 0)" clip-path="url(#clip-path)">
    <path id="Trazado_614661" data-name="Trazado 614661" d="M71.557,86.683c-1.318-.753-1.007-1.938-.745-3.053a1.152,1.152,0,0,0-.434-1.334,9.929,9.929,0,0,1-.961-.939,1.467,1.467,0,0,1-.341-1.552,1.343,1.343,0,0,1,1.277-1.026,2.618,2.618,0,0,0,2.885-2.048,1.363,1.363,0,0,1,1.394-.96,1.386,1.386,0,0,1,1.455.972,2.59,2.59,0,0,0,2.823,2.029,1.36,1.36,0,0,1,1.336,1.045,1.418,1.418,0,0,1-.457,1.641,2.523,2.523,0,0,0-1.125,3.175,1.665,1.665,0,0,1-.922,2.049H76.667a4.69,4.69,0,0,1-1.391-.632.911.911,0,0,0-1.118-.034,5.609,5.609,0,0,1-1.525.666Z" transform="translate(-16.219 -17.814)" fill="#040506"/>
    <path id="Trazado_614662" data-name="Trazado 614662" d="M55.351,86.678c-1.046-.621-1.288-1.069-.974-2.264a2.054,2.054,0,0,0-.8-2.6,2.329,2.329,0,0,1-.522-.519,1.543,1.543,0,0,1,.914-2.535.887.887,0,0,1,.2-.017,2.387,2.387,0,0,0,2.686-1.895A1.458,1.458,0,0,1,57.973,75.8a1.377,1.377,0,0,1,1.722.816A2.787,2.787,0,0,0,62.7,78.782a1.507,1.507,0,0,1,.877,2.543,2.886,2.886,0,0,0-1.171,3.657c.252.77-.389,1.293-1.007,1.7h-.94A4.746,4.746,0,0,1,58.886,86a.963.963,0,0,0-1.01-.005,6.876,6.876,0,0,1-1.584.683Z" transform="translate(-12.384 -17.808)" fill="#040506"/>
    <path id="Trazado_614663" data-name="Trazado 614663" d="M39,86.683c-1.037-.653-1.257-1.023-.947-2.207a2.179,2.179,0,0,0-.891-2.744,1.742,1.742,0,0,1-.337-.327,1.466,1.466,0,0,1-.39-1.595,1.4,1.4,0,0,1,1.342-1.039,2.542,2.542,0,0,0,2.79-1.974,1.54,1.54,0,0,1,2.9,0,2.548,2.548,0,0,0,2.79,1.97,1.4,1.4,0,0,1,1.343,1.039,1.3,1.3,0,0,1-.4,1.579,2.793,2.793,0,0,0-1.122,3.544c.256.806-.351,1.359-1.028,1.751h-.941a7.505,7.505,0,0,1-1.642-.712.873.873,0,0,0-.885,0,7.5,7.5,0,0,1-1.641.712Z" transform="translate(-8.544 -17.814)" fill="#040506"/>
    <path id="Trazado_614664" data-name="Trazado 614664" d="M41.053,89.709c.6-.326,1.212-.641,1.805-.982a.486.486,0,0,1,.553,0c.6.34,1.206.656,1.811.981Z" transform="translate(-9.652 -20.839)" fill="#fdfcfd"/>
    <path id="Trazado_614665" data-name="Trazado 614665" d="M57.4,89.708c.6-.328,1.2-.641,1.788-.991a.544.544,0,0,1,.617.045c.586.319,1.176.631,1.765.945Z" transform="translate(-13.495 -20.839)" fill="#fdfdfd"/>
    <path id="Trazado_614666" data-name="Trazado 614666" d="M73.753,89.7a17.19,17.19,0,0,1,1.832-1.026.348.348,0,0,1,.38-.007A14.44,14.44,0,0,1,77.787,89.7Z" transform="translate(-17.339 -20.834)" fill="#fdfdfd"/>
    <path id="Trazado_614667" data-name="Trazado 614667" d="M34.213,55.291c-.3.865-.532,1.031-1.481,1.033-2.2,0-4.393.013-6.589-.009-.436,0-.559.109-.555.551.022,2.331,0,4.662.015,6.993a1.7,1.7,0,0,1-.945,1.771,1.64,1.64,0,0,1-1.929-.51c-.965-.9-1.97-1.763-2.929-2.673-.338-.32-.545-.38-.915-.024-.986.945-2.026,1.834-3.032,2.76a1.6,1.6,0,0,1-1.885.444,1.64,1.64,0,0,1-.9-1.723c.021-1.479-.01-2.959.015-4.438.008-.486-.061-.6-.579-.432A9.452,9.452,0,0,1,.314,52.263a9.2,9.2,0,0,1,2.579-9.1.863.863,0,0,0,.294-.97,26.422,26.422,0,0,1-.776-6.713c-.017-2.4.013-4.8-.011-7.2A2.731,2.731,0,0,1,4.08,25.568c4.637-2.284,9.251-4.613,13.881-6.911a.857.857,0,0,0,.568-.9c-.024-3.766-.014-7.532-.013-11.3,0-1.414.474-1.885,1.889-1.886.74,0,1.481-.023,2.219.009.4.018.483-.123.471-.492-.026-.828-.019-1.659-.005-2.488A1.461,1.461,0,0,1,24.723,0H63.046a1.423,1.423,0,0,1,1.627,1.525c.01.179,0,.359,0,.538q0,23.806,0,47.614a2.991,2.991,0,0,1-.106,1.131,1.523,1.523,0,0,1-1.559.941c-.807.006-1.614.019-2.42-.006-.379-.011-.51.1-.5.49.028.761.014,1.524.008,2.286-.011,1.269-.532,1.8-1.8,1.8q-10.051.008-20.1,0c-.883,0-1.118-.185-1.412-1.032-.135-.647.26-.951.772-1.158a3.46,3.46,0,0,1,1.328-.14q8.8,0,17.6,0c.224,0,.448-.01.672,0,.454.017.656-.194.642-.645-.008-.246,0-.493,0-.74q0-16.3,0-32.6a8.834,8.834,0,0,1,.026-1.075A1.284,1.284,0,0,1,58.957,17.7c.876.047,1.212.36,1.287,1.209.03.336.017.672.017,1.008q0,14.049,0,28.1c0,1.384-.233,1.436,1.519,1.4.382-.009.581-.172.589-.565,0-.246.01-.493.01-.739V3.473c0-1.236,0-1.238-1.272-1.238H29.391a7.339,7.339,0,0,1-.87-.018c-.849.017-1.7.012-2.549,0-.47,0-.676.164-.693.662-.051,1.488-.068,1.486,1.409,1.488.6,0,1.207-.011,1.811.006a10.3,10.3,0,0,1,1.075-.018H57.589c.336,0,.672-.011,1.007.015A1.6,1.6,0,0,1,60.251,6.1q.034,3.863,0,7.728c-.01,1.026-.348,1.371-1.281,1.421a1.312,1.312,0,0,1-1.145-1.488c-.034-1.5-.008-3-.012-4.5,0-.582-.014-1.166,0-1.747.014-.521-.22-.734-.725-.707-.245.013-.493,0-.739,0H25.032a8.548,8.548,0,0,1-.939-.018c-.893.011-1.788.017-2.683,0-.525-.011-.705.211-.7.718q.013,5.133,0,10.267a1,1,0,0,0,.642.991c.926.447,1.84.919,2.762,1.376,1.524.759,3.056,1.505,4.566,2.292a4.431,4.431,0,0,0,2.123.509q9.411-.024,18.82-.008a3.437,3.437,0,0,1,1.262.132,1.185,1.185,0,0,1,.854,1.225A1.209,1.209,0,0,1,50.6,25.338a8.376,8.376,0,0,1-.94.02c-4.973,0-9.945,0-14.955.043a3.214,3.214,0,0,1,1.632,1.829c.151.389.495.406.841.408,1.165,0,2.33,0,3.5,0a5.66,5.66,0,0,1,.738.024,1.065,1.065,0,0,1,1.057.944,1.208,1.208,0,0,1-.789,1.334,2.474,2.474,0,0,1-.927.122c-1.165,0-2.33-.007-3.495.005-.727.008-.79.083-.808.822-.031,1.319-.031,1.32,1.317,1.32q6.016,0,12.032,0a3.771,3.771,0,0,1,1,.07,1.168,1.168,0,0,1,0,2.285,4.01,4.01,0,0,1-1.069.071q-6.151,0-12.3.007c-.317,0-.773-.142-.9.25a2.379,2.379,0,0,0,.041,1.706c.133.287.525.18.808.18q4.571.009,9.141,0c1.165,0,2.33,0,3.495,0a2.848,2.848,0,0,1,.8.076,1.207,1.207,0,0,1,.9,1.192,1.22,1.22,0,0,1-1.055,1.132,6.042,6.042,0,0,1-.873.026H37.3c-1.058,0-1.066,0-1.227,1.03-.176,1.114-.4,1.124.961,1.118a5.371,5.371,0,0,1,1.536.112,1.146,1.146,0,0,1,.945,1.336c-.073.606-.452.935-1.167.965-.805.034-1.613.021-2.419.008a.859.859,0,0,0-.948.667c-.119.385-.3.75-.441,1.126-.119.311-.014.47.32.483.224.009.448.008.672.008H49.777a6.269,6.269,0,0,1,.873.026,1.22,1.22,0,0,1,1.072,1.116,1.159,1.159,0,0,1-.9,1.185,4.016,4.016,0,0,1-1.2.1c-5.153,0-10.307.015-15.459-.013a1.919,1.919,0,0,0-1.794.889,22.324,22.324,0,0,1-4.2,4.625c.961.017,1.775,0,2.589.01a20.661,20.661,0,0,1,2.283.038c.822.1,1.183.508,1.169,1.248" transform="translate(0 0)" fill="#040506"/>
    <path id="Trazado_614668" data-name="Trazado 614668" d="M31.318,8.634c.223-.008.447-.021.67-.021q16.315,0,32.631-.016c.612,0,.767.151.756.758-.04,2.149,0,4.3-.023,6.447a1.236,1.236,0,0,0,.975,1.389.343.343,0,0,1,.243.353,11.2,11.2,0,0,1,0,1.908.343.343,0,0,1-.244.353c-.827.317-.967.535-.967,1.525q0,17.077.015,34.156c0,.626-.113.812-.782.809-6.341-.03-12.682-.018-19.023-.017-.961,0-1.16.145-1.465,1.032H41.524c-.307-.889-.5-1.031-1.466-1.033-1.648,0-3.3,0-5.1,0,.955-.928,1.839-1.7,2.625-2.576a21.95,21.95,0,0,0,2.308-2.963.882.882,0,0,1,.866-.454q8.336.018,16.67.006a1.983,1.983,0,0,0,.795-.083.944.944,0,0,0,.649-1.052.921.921,0,0,0-.871-.87,6.588,6.588,0,0,0-.738-.017c-5.087,0-10.172-.008-15.259.01-.581,0-.731-.118-.414-.641a4.559,4.559,0,0,0,.3-.672c.522-1.3.522-1.3,1.95-1.3.605,0,1.211.018,1.814-.008a1,1,0,1,0,.037-2.006c-.782-.041-1.568-.026-2.351-.014-.323.005-.427-.06-.347-.417a17.541,17.541,0,0,0,.291-1.853c.037-.327.226-.329.464-.327.561,0,1.121,0,1.68,0H57.389a5.487,5.487,0,0,0,.6-.011.931.931,0,0,0,.877-.866.944.944,0,0,0-.581-1.032,1.845,1.845,0,0,0-.856-.113c-4.436,0-8.873-.008-13.309.011-.482,0-.7-.078-.613-.612a6.878,6.878,0,0,0,.027-1.074c0-.893,0-.893.861-.893H57.373a4.543,4.543,0,0,0,.6-.011.99.99,0,0,0,.9-1.063.959.959,0,0,0-.953-.94c-.178-.016-.358-.005-.538-.005-4.413,0-8.828-.01-13.242.014-.512,0-.669-.132-.611-.629.074-.637-.275-1.495.138-1.861.354-.315,1.191-.095,1.815-.1.963-.006,1.927,0,2.89,0a1.367,1.367,0,0,0,.89-.233.961.961,0,0,0,.333-1.14.93.93,0,0,0-.985-.652l-4.571,0c-.236,0-.5.07-.555-.3a2.539,2.539,0,0,0-1.726-1.968,2.818,2.818,0,0,1-.343-.2c-.015-.009-.016-.039-.057-.146H57.335c1.085,0,1.567-.324,1.547-1.034-.02-.691-.487-1-1.533-1q-9.78,0-19.561.01a3.093,3.093,0,0,1-1.467-.355c-1.663-.854-3.333-1.693-5-2.539a1.465,1.465,0,0,1-.22-.962q0-5.879,0-11.757a1.249,1.249,0,0,1,.215-.955" transform="translate(-7.311 -2.021)" fill="#d8eff9"/>
    <path id="Trazado_614669" data-name="Trazado 614669" d="M75.15,80.966a10.13,10.13,0,0,0,.929-1.6c.435.551.532,1.242,1.064,1.648.556.423,1.256.261,1.97.548a2.534,2.534,0,0,0-1.06,3.471c-.768-.215-1.271-.737-1.963-.756a1.348,1.348,0,0,1,.026-1.026,1.425,1.425,0,0,0-.547-1.578c-.207-.171-.6-.285-.419-.708" transform="translate(-17.657 -18.659)" fill="#ffb800"/>
    <path id="Trazado_614670" data-name="Trazado 614670" d="M74.517,81.457c.083.452.543.549.811.825a1.234,1.234,0,0,1,.389,1.13c-.073.455-.172.9-.259,1.358-.677.03-1.17.516-1.927.782a2.537,2.537,0,0,0-1.123-3.48c.778-.272,1.53-.168,2.11-.614" transform="translate(-17.023 -19.15)" fill="#e9a800"/>
    <path id="Trazado_614671" data-name="Trazado 614671" d="M58.748,81.024a10.136,10.136,0,0,0,1.069-1.772,2.643,2.643,0,0,0,2.969,2.2c-1.207.932-1.778,2.014-1.03,3.545-.819-.215-1.321-.745-2.013-.749a1.69,1.69,0,0,1,.06-1.044,1.257,1.257,0,0,0-.428-1.425,1.682,1.682,0,0,1-.627-.756" transform="translate(-13.812 -18.632)" fill="#feb800"/>
    <path id="Trazado_614672" data-name="Trazado 614672" d="M58.112,81.569A5.823,5.823,0,0,1,59.223,82.6a.666.666,0,0,1,.185.719c-.14.48-.2.982-.3,1.475a7.507,7.507,0,0,0-1.875.776,2.6,2.6,0,0,0-1.188-3.5,10.06,10.06,0,0,0,2.068-.5" transform="translate(-13.176 -19.177)" fill="#e9a800"/>
    <path id="Trazado_614673" data-name="Trazado 614673" d="M42.6,80.886l.922-1.639a2.694,2.694,0,0,0,2.991,2.227,2.654,2.654,0,0,0-1.117,3.5c-.736-.182-1.2-.672-1.842-.721a.777.777,0,0,1-.074-.821,1.5,1.5,0,0,0-.542-1.765c-.225-.174-.518-.395-.337-.779" transform="translate(-10.003 -18.631)" fill="#feb800"/>
    <path id="Trazado_614674" data-name="Trazado 614674" d="M41.943,81.39a.808.808,0,0,0,.435.636,1.62,1.62,0,0,1,.591,2.075,3.22,3.22,0,0,0-.073.654c-.7-.018-1.214.5-1.989.755a2.569,2.569,0,0,0-1.172-3.467c.835-.252,1.612-.162,2.207-.653" transform="translate(-9.342 -19.135)" fill="#e9a800"/>
    <path id="Trazado_614675" data-name="Trazado 614675" d="M27.644,36.211c.317-.8.216-1.151-.459-1.584a10.345,10.345,0,0,0-15.739,7.619,9.627,9.627,0,0,0,.3,3.785c.183.606.014.758-.546.7-.133-.014-.268-.008-.4-.011a1.271,1.271,0,0,1-.329-.787,19.888,19.888,0,0,1-.284-3.062c-.016-3.192-.008-6.383,0-9.575a1.575,1.575,0,0,1,.208-1.092q4.242-2.142,8.484-4.284c.8-.4,1.6-.792,2.393-1.206a.86.86,0,0,1,.875-.016Q29.116,30.2,36.1,33.68a.751.751,0,0,1,.5.77c-.054,3.068.063,6.138-.087,9.206A20.08,20.08,0,0,1,30.233,57.54c-.626.608-1.291,1.176-1.939,1.761a2.3,2.3,0,0,1-.216.151c-.167-.2-.091-.405-.092-.591-.006-2.084.025-4.168-.02-6.251a1.873,1.873,0,0,1,.7-1.6,10.255,10.255,0,0,0,2.406-12.022c-.406-.856-.654-.987-1.576-.827-.066.014-.149.021-.187-.027-.544-.651-1.15-1.248-1.664-1.923" transform="translate(-2.393 -6.25)" fill="#ffb800"/>
    <path id="Trazado_614676" data-name="Trazado 614676" d="M67.684,18.4a8.231,8.231,0,0,0,0-2.614c.9-.239,1.059-.435,1.06-1.345q.007-3.8,0-7.59c0-1.178-.5-1.662-1.684-1.662q-14.606,0-29.21,0c-.246,0-.492-.014-.737-.021a3.312,3.312,0,0,1,0-2.511c.223-.008.447-.021.67-.021q16.4,0,32.8-.016c.592,0,.723.141.722.726q-.028,23.126,0,46.25c0,.616-.172.769-.741.711s-1.353.177-1.686-.119c-.389-.345-.125-1.139-.125-1.736q-.013-14.286-.007-28.571c0-1.057-.13-1.235-1.061-1.479" transform="translate(-8.667 -0.615)" fill="#fff0d6"/>
    <path id="Trazado_614677" data-name="Trazado 614677" d="M29.648,38.829a9.463,9.463,0,0,1,1.851,1.95,1.2,1.2,0,0,0-.3,1.651A8.3,8.3,0,0,1,25.421,54.15a5.238,5.238,0,0,1-.73.064,2.377,2.377,0,0,1-2.011-.488,9.464,9.464,0,0,1-3.971-7.516A9.16,9.16,0,0,1,20.4,40.642a8.549,8.549,0,0,1,2.51-2.49,1.559,1.559,0,0,1,1.369-.379,7.021,7.021,0,0,1,3.753,1.15,1.173,1.173,0,0,0,1.617-.095" transform="translate(-4.397 -8.868)" fill="#5ea31f"/>
    <path id="Trazado_614678" data-name="Trazado 614678" d="M22.864,69.6a9.926,9.926,0,0,0,1.488-6.271c-.051-.486-.146-.967-.229-1.5a10.34,10.34,0,0,0,4.384-.754c.276-.113.373-.012.366.258,0,.089,0,.179,0,.269V77.439c-1.063-.96-2-1.8-2.93-2.647a1.849,1.849,0,0,0-1.365-.609,1.66,1.66,0,0,0-1.069.487c-.2.178-.415.337-.623.5a.915.915,0,0,1-.221-.741c-.013-1.309-.008-2.617,0-3.926a2.387,2.387,0,0,1,.2-.9" transform="translate(-5.327 -14.348)" fill="#de1c30"/>
    <path id="Trazado_614679" data-name="Trazado 614679" d="M11.162,55.583a7.493,7.493,0,0,1,7.557,6.984,7.575,7.575,0,0,1-6.289,7.878,5.175,5.175,0,0,1-1.267.047A5.96,5.96,0,0,1,8.645,68.5a.327.327,0,0,1-.024-.479,6.42,6.42,0,0,0,1.838-.792,1.306,1.306,0,0,1,1.511-.023,8.848,8.848,0,0,0,.95.5,1.3,1.3,0,0,0,1.893-1.254,7.047,7.047,0,0,0-.225-1.391,1.007,1.007,0,0,1,.31-1.033c.288-.281.593-.548.873-.838a1.3,1.3,0,0,0-.661-2.273,4.394,4.394,0,0,0-.992-.164,1.354,1.354,0,0,1-1.312-.964,6.41,6.41,0,0,0-.395-.779,1.27,1.27,0,0,0-2.373.012c-.125.212-.226.438-.337.658a1.848,1.848,0,0,1-2.425,1.059c-.226-.243-.112-.506-.018-.749a8.847,8.847,0,0,1,2.956-3.946,3.058,3.058,0,0,1,.948-.464" transform="translate(-1.68 -13.066)" fill="#1563ac"/>
    <path id="Trazado_614680" data-name="Trazado 614680" d="M9.378,33.932c0,2.82.022,5.64,0,8.46a33.024,33.024,0,0,0,.412,6.056,11.064,11.064,0,0,0-2.875.86c-.35.175-.439.1-.519-.267a19.544,19.544,0,0,1-.5-3.847c-.039-3-.024-6-.034-8.994,0-.3-.007-.566.333-.725,1.068-.5,2.126-1.027,3.187-1.542" transform="translate(-1.377 -7.977)" fill="#e9a800"/>
    <path id="Trazado_614681" data-name="Trazado 614681" d="M30.325,8.636l0,13.674c-1.035-.509-2.066-1.027-3.109-1.518a.534.534,0,0,1-.34-.571q.009-5.57,0-11.141c0-.322.046-.487.43-.475,1.005.032,2.012.023,3.018.031" transform="translate(-6.319 -2.023)" fill="#bee3f7"/>
    <path id="Trazado_614682" data-name="Trazado 614682" d="M23.264,37.768a1.79,1.79,0,0,0-.992.33,9.3,9.3,0,0,0-.965,15.089,3.1,3.1,0,0,0,2.371,1.022,5.1,5.1,0,0,1-2.253-.011c-.228-.024-.273-.212-.363-.354a9.525,9.525,0,0,0-5.481-4.173.8.8,0,0,1-.552-.506,8.344,8.344,0,0,1,5.848-11.247,5.908,5.908,0,0,1,2.386-.148" transform="translate(-3.384 -8.862)" fill="#4d9c23"/>
    <path id="Trazado_614683" data-name="Trazado 614683" d="M7.574,68.058a5.136,5.136,0,0,0,1.632,1.777,10.344,10.344,0,0,0,.915.657A7.479,7.479,0,0,1,9.185,55.6a6.567,6.567,0,0,1,.935-.017,8.985,8.985,0,0,0-3.576,4.043,2.472,2.472,0,0,0-.314,1.079c.006.165-.127.214-.237.284-.973.623-1.07,1.346-.3,2.23a1.017,1.017,0,0,1,.33.559,8.95,8.95,0,0,0,.538,2.363c-.123.881.508,1.365,1.011,1.916" transform="translate(-0.638 -13.065)" fill="#0056a3"/>
    <path id="Trazado_614684" data-name="Trazado 614684" d="M22.186,72.24q.011,2.786.022,5.571l-2.435,2.277V78.493c0-1.117,0-2.233,0-3.349a.669.669,0,0,1,.253-.641,11.4,11.4,0,0,0,2.162-2.263" transform="translate(-4.648 -16.983)" fill="#d80522"/>
    <path id="Trazado_614685" data-name="Trazado 614685" d="M36.154,2.634V5.145c-.96.008-1.921,0-2.881.028-.317.008-.466-.084-.418-.412a.641.641,0,0,0,0-.067c.015-.668-.218-1.537.114-1.947.348-.429,1.252-.1,1.912-.132.423-.019.848.01,1.272.018" transform="translate(-7.709 -0.593)" fill="#ffddb4"/>
    <path id="Trazado_614686" data-name="Trazado 614686" d="M47.628,26.295H36.946c-.2,0-.4.011-.6-.009a.934.934,0,0,1-.932-.948.959.959,0,0,1,.834-1.048,1.868,1.868,0,0,1,.468-.016H58.546a3.526,3.526,0,0,1,.4.005,1.015,1.015,0,0,1,.947,1.026.984.984,0,0,1-.981.981c-.447.024-.9.009-1.343.009H47.628" transform="translate(-8.324 -5.705)" fill="#040506"/>
    <path id="Trazado_614687" data-name="Trazado 614687" d="M49,15.588q3.292,0,6.583,0a1.31,1.31,0,0,1,.95.234,1,1,0,0,1-.282,1.7,2.26,2.26,0,0,1-.861.1H42.559a4.59,4.59,0,0,1-.47-.008,1.022,1.022,0,0,1-1.035-1.082.981.981,0,0,1,1.095-.934c2.284-.013,4.568,0,6.852-.005" transform="translate(-9.651 -3.664)" fill="#050607"/>
    <path id="Trazado_614688" data-name="Trazado 614688" d="M58.913,56.436c-1.319,0-2.638,0-3.957,0-.867,0-1.307-.34-1.32-.987s.44-1.039,1.276-1.043c2.683-.009,5.365,0,8.048,0a1.083,1.083,0,0,1,1.192.77.947.947,0,0,1-.443,1.1,1.42,1.42,0,0,1-.839.163q-1.978,0-3.957,0" transform="translate(-12.61 -12.789)" fill="#070809"/>
    <path id="Trazado_614689" data-name="Trazado 614689" d="M61.4,36.356c.871,0,1.742-.01,2.614,0a1.011,1.011,0,1,1,.045,2.013q-2.647.038-5.294,0a1.011,1.011,0,0,1-1.084-1.03c0-.6.406-.973,1.105-.984.871-.014,1.742,0,2.614,0" transform="translate(-13.56 -8.546)" fill="#050607"/>
    <path id="Trazado_614690" data-name="Trazado 614690" d="M28.673,46.1a1.064,1.064,0,0,1-.382.851c-1.362,1.363-2.716,2.731-4.088,4.084a1.031,1.031,0,0,1-1.643.007q-1.443-1.407-2.851-2.849c-.536-.548-.56-1.076-.113-1.534a1.029,1.029,0,0,1,1.546.092c.646.62,1.284,1.25,1.9,1.9.259.275.41.281.678.005q1.544-1.591,3.133-3.138a1.02,1.02,0,0,1,1.7.1.838.838,0,0,1,.119.482" transform="translate(-4.533 -10.607)" fill="#040606"/>
    <path id="Trazado_614691" data-name="Trazado 614691" d="M6.641,64.525c-.07-.084-.134-.174-.21-.252-1.133-1.135-.944-2.2.5-2.824.487-.054.974-.122,1.462-.157a.608.608,0,0,0,.547-.414c.2-.424.4-.848.626-1.257a1.409,1.409,0,0,1,2.6-.035A2.592,2.592,0,0,0,14.8,61.5a1.274,1.274,0,0,1,1.212,1,1.331,1.331,0,0,1-.464,1.567,2.29,2.29,0,0,0-.94,2.913,1.323,1.323,0,0,1-.567,1.527,1.247,1.247,0,0,1-1.563.082,2.343,2.343,0,0,0-3.174.009,1.43,1.43,0,0,1-1.031.2,1.574,1.574,0,0,1-1.119-1.87.949.949,0,0,1-.064-.457,1.863,1.863,0,0,0-.451-1.949" transform="translate(-1.339 -13.809)" fill="#040506"/>
    <path id="Trazado_614692" data-name="Trazado 614692" d="M6.92,66.3A1.287,1.287,0,0,1,7.586,68a5.949,5.949,0,0,0-.151.711A4.526,4.526,0,0,1,6.92,66.3" transform="translate(-1.619 -15.588)" fill="#1460a7"/>
    <path id="Trazado_614693" data-name="Trazado 614693" d="M11.35,63.786a5.89,5.89,0,0,0,.9-1.438,2.24,2.24,0,0,0,2.588,1.778c-1.1.822-1.546,1.719-.989,3.01l-1.3-.584c-.291-.026-.557-.107-.434-.476a1.568,1.568,0,0,0-.606-1.876.384.384,0,0,1-.158-.414" transform="translate(-2.665 -14.658)" fill="#feb700"/>
    <path id="Trazado_614694" data-name="Trazado 614694" d="M10.844,64.228a2.887,2.887,0,0,0,.353.392,1.4,1.4,0,0,1,.589,1.77c-.095.238-.093.515.255.6a3.087,3.087,0,0,0-1.958.643,2.176,2.176,0,0,0-.9-2.941,7.944,7.944,0,0,0,1.659-.467" transform="translate(-2.159 -15.1)" fill="#e8a700"/>
  </g>
</svg>
