<svg xmlns="http://www.w3.org/2000/svg" xmlns:xlink="http://www.w3.org/1999/xlink" width="155.183" height="155.183" viewBox="0 0 155.183 155.183">
  <defs>
    <filter id="Elipse_5222" x="0" y="0" width="155.183" height="155.183" filterUnits="userSpaceOnUse">
      <feOffset dy="6" input="SourceAlpha"/>
      <feGaussianBlur stdDeviation="5" result="blur"/>
      <feFlood flood-opacity="0.329"/>
      <feComposite operator="in" in2="blur"/>
      <feComposite in="SourceGraphic"/>
    </filter>
    <clipPath id="clip-path">
      <rect id="Rectángulo_325007" data-name="Rectángulo 325007" width="70.847" height="86.089" fill="none"/>
    </clipPath>
  </defs>
  <g id="Grupo_876523" data-name="Grupo 876523" transform="translate(-5503.045 10828.599)">
    <g transform="matrix(1, 0, 0, 1, 5503.04, -10828.6)" filter="url(#Elipse_5222)">
      <circle id="Elipse_5222-2" data-name="Elipse 5222" cx="62.591" cy="62.591" r="62.591" transform="translate(15 9)" fill="#ffb500"/>
    </g>
    <g id="Grupo_876504" data-name="Grupo 876504" transform="translate(5547.5 -10795.383)">
      <g id="Grupo_876503" data-name="Grupo 876503" transform="translate(0 0)" clip-path="url(#clip-path)">
        <path id="Trazado_615077" data-name="Trazado 615077" d="M.788,18.584q0-1.033,0-2.066a5.792,5.792,0,0,0,0-4.811c-.077-.673.161-1.371-.166-2.023a2.4,2.4,0,0,0,.6-1.87c-.036-1.074-.015-2.151-.006-3.227a1.871,1.871,0,0,1,.208-1.068A2.317,2.317,0,0,1,2.9,2.889a7.451,7.451,0,0,1,1.287-.055H53.61a7.6,7.6,0,0,1,1.795.143,1.537,1.537,0,0,1,.96.518,2.6,2.6,0,0,1,.208,1.423q.005,30.2,0,60.408a6.583,6.583,0,0,1-.017.686c-.076.747-.243.872-1,.744a2.564,2.564,0,0,0-.677-.1c-1.426.154-2.176-.8-2.937-1.754-.377-.47-.2-.906.046-1.351A19.893,19.893,0,0,0,53.6,60.041,14.006,14.006,0,0,0,41.568,41.858a13.594,13.594,0,0,0-11.91,4.662,2.435,2.435,0,0,1-1.959.86q-4.469-.029-8.938,0c-.42,0-1.129-.177-1.137.4s.7.432,1.125.437c2.463.02,4.927.009,7.391.009.286,0,.574-.009.859.011.9.064,1.094.335.677,1.15a15.133,15.133,0,0,0-1.439,4.568,17.8,17.8,0,0,0-.095,2.4c-.027,1.133-.182,1.307-1.3,1.318-1.947.018-3.9,0-5.844.006a5.428,5.428,0,0,0-.772.019c-.269.039-.655.007-.637.4.015.358.379.386.659.41.715.06,1.432.024,2.148.026,1.6.006,3.208.018,4.812-.005a1.272,1.272,0,0,1,1.412,1.052c1.8,5.768,5.674,9.244,11.653,10.181A13.367,13.367,0,0,0,47.438,67.9c1.273-.767,1.3-.746,2.4.3a3.005,3.005,0,0,1,1.152,2.285,3.585,3.585,0,0,0,.562,1.7c.25.455.087.7-.4.767a6.454,6.454,0,0,1-.943.04H10.5c-.229,0-.458-.01-.687-.008-.72.006-1.03-.361-1.033-1.064-.005-1.26.009-2.52-.007-3.781a2.416,2.416,0,0,0-2.708-2.706c-1.231-.02-2.464.018-3.7-.015-.923-.025-1.1-.217-1.151-1.116-.018-.344-.008-.687-.008-1.031q0-21.354.006-42.706a3.413,3.413,0,0,0-.432-1.974" transform="translate(-0.092 -0.417)" fill="#fff"/>
        <path id="Trazado_615078" data-name="Trazado 615078" d="M1.416,3.2c-.01,1.688-.033,3.377-.024,5.066,0,.617-.188,1-.862,1A.908.908,0,0,1,0,8.289C.019,6.458,0,4.626.015,2.794A2.694,2.694,0,0,1,2.677.007C2.847,0,3.02,0,3.192,0H54.466a2.806,2.806,0,0,1,3.162,2.175,8.416,8.416,0,0,1,.248,2.631q0,30.351-.028,60.7a3.9,3.9,0,0,0,1.433,3.377,3.264,3.264,0,0,1,1.079,1.31q2.935,2.958,5.869,5.916c.442.447.86.917,1.289,1.376,1.712,2,.357,5.488-2.357,5.99a2.975,2.975,0,0,1-2.9-.564c-2.052-1.778-3.862-3.8-5.815-5.685-.286-.275-.58-.543-.87-.814a4.5,4.5,0,0,1-1.841-1.5,2.881,2.881,0,0,0-2.346-.973q-20.819.033-41.64.014a2.84,2.84,0,0,1-1.668-.266q-3.9-3.864-7.8-7.726c-.362-.357-.267-.792-.267-1.21q-.006-17.808,0-35.617,0-4.892,0-9.784c0-.539.014-1.047.688-1.185.744.2.693.785.693,1.374q-.008,22.084-.022,44.168c0,.8.136,1.1,1.005,1.044,1.255-.086,2.52-.032,3.781-.02a2.632,2.632,0,0,1,2.81,2.78c.014,1.4.018,2.807-.005,4.21-.007.433.1.658.567.589a2.432,2.432,0,0,1,.344,0H51.491a5.3,5.3,0,0,1-.9-3.17c.024-.54-.738-.82-1.076-1.272-.554-.739-1.007-.85-1.912-.281a14.232,14.232,0,0,1-21.3-8.356c-.2-.742-.511-.908-1.212-.9-2.2.042-4.412.015-6.617.015-.2,0-.4.008-.6,0-.474-.024-.878-.173-.845-.74.03-.512.407-.625.855-.624,2.378.005,4.756-.02,7.133.017.635.01.836-.131.791-.8a13.872,13.872,0,0,1,1.728-7.679,2.554,2.554,0,0,0,.135-.31c.008-.021-.013-.055-.046-.175H18.4a5.579,5.579,0,0,1-.686-.014c-.408-.054-.722-.245-.7-.712s.325-.638.756-.638l3.7,0c2.178,0,4.354-.014,6.532.011a1.388,1.388,0,0,0,1.169-.528c4.072-4.555,9.139-6.133,14.974-4.441,5.789,1.68,9.16,5.768,10.128,11.691a13.5,13.5,0,0,1-2.182,9.828c-.382.579-.377.931.161,1.329a3.491,3.491,0,0,1,.606.607,1.738,1.738,0,0,0,1.76.784c.546-.1,1.039.259,1.656.341v-.79q0-30.806,0-61.612c0-.228-.027-.455-.042-.683-.342-1.378-1.3-1.641-2.595-1.64q-24.751.043-49.5.02c-.086,0-.173.007-.258,0A2.047,2.047,0,0,0,1.416,3.2" transform="translate(0 0)" fill="#26224f"/>
        <path id="Trazado_615082" data-name="Trazado 615082" d="M.7,13.242a.944.944,0,0,1,.7,1.093c-.035.873-.037,1.75,0,2.623a.951.951,0,0,1-.7,1.095A.9.9,0,0,1,0,17.039c.031-.932.015-1.866.005-2.8-.005-.5.14-.886.69-1" transform="translate(0 -1.951)" fill="#272250"/>
        <path id="Trazado_615083" data-name="Trazado 615083" d="M1.659,3.438C1.6,2.077,2.024,1.62,3.394,1.62q25.691,0,51.38,0c1.373,0,1.789.462,1.7,1.829a3.1,3.1,0,0,0-1.945-.5Q29.031,2.932,3.537,2.939a3.691,3.691,0,0,0-1.878.5" transform="translate(-0.244 -0.238)" fill="#fdfcfd"/>
        <path id="Trazado_615084" data-name="Trazado 615084" d="M7.4,57.775a1.158,1.158,0,0,1,1,.386c.536.556,1.111,1.077,1.63,1.648.348.382.6.42.962.014.495-.554,1.033-1.072,1.575-1.583a1.536,1.536,0,0,1,2.09-.128,1.536,1.536,0,0,1-.133,2.091c-.511.541-1.027,1.081-1.583,1.575-.412.366-.356.62.021.962.53.479,1.028,1,1.521,1.514a1.4,1.4,0,0,1,.161,2.057,1.353,1.353,0,0,1-2.051-.045,20.565,20.565,0,0,1-1.585-1.571c-.344-.377-.6-.428-.964-.02-.5.554-1.033,1.073-1.576,1.582A1.391,1.391,0,1,1,6.532,64.28c.512-.54,1.033-1.073,1.582-1.576.355-.326.373-.564.009-.9-.587-.546-1.142-1.125-1.686-1.714a1.326,1.326,0,0,1-.279-1.582A1.177,1.177,0,0,1,7.4,57.775" transform="translate(-0.885 -8.511)" fill="#e45d8c"/>
        <path id="Trazado_615085" data-name="Trazado 615085" d="M35.979,18.449h14.6c.229,0,.459,0,.687.012a.609.609,0,0,1,.593.62.587.587,0,0,1-.454.65,3.5,3.5,0,0,1-.845.082q-14.645.005-29.29,0c-.172,0-.344.008-.515-.006-.438-.035-.81-.182-.8-.7s.358-.663.818-.662q2.706.005,5.412,0h9.792" transform="translate(-2.941 -2.718)" fill="#272250"/>
        <path id="Trazado_615086" data-name="Trazado 615086" d="M35.958,30.545h14.6c.229,0,.459,0,.687.01a.61.61,0,0,1,.61.6.625.625,0,0,1-.511.7,3.133,3.133,0,0,1-.766.054q-14.688,0-29.376,0a3.032,3.032,0,0,1-.683-.037.633.633,0,0,1-.564-.734.616.616,0,0,1,.627-.585c.229-.015.458-.01.687-.01H35.958" transform="translate(-2.94 -4.501)" fill="#272250"/>
        <path id="Trazado_615087" data-name="Trazado 615087" d="M35.985,42.641h14.6c.229,0,.459,0,.687.013a.608.608,0,0,1,.587.625.589.589,0,0,1-.46.646,3.545,3.545,0,0,1-.846.079q-14.645.005-29.29,0c-.171,0-.344.009-.515-.006-.439-.037-.807-.189-.792-.708s.367-.656.824-.655q2.963.005,5.927,0h9.277" transform="translate(-2.941 -6.283)" fill="#272250"/>
        <path id="Trazado_615088" data-name="Trazado 615088" d="M6.029,38.165a1.221,1.221,0,0,1,.722-1.183,1.327,1.327,0,0,1,1.46.113,13.2,13.2,0,0,1,1.258,1.036c.43.4.7.512,1.085-.113.744-1.219,1.585-2.379,2.394-3.557.606-.882,1.386-1.115,2.1-.645s.824,1.276.218,2.176c-1.165,1.732-2.332,3.463-3.521,5.179-.755,1.09-1.488,1.183-2.508.358-.868-.7-1.727-1.414-2.589-2.121a1.433,1.433,0,0,1-.622-1.243" transform="translate(-0.888 -4.948)" fill="#156eb7"/>
        <path id="Trazado_615089" data-name="Trazado 615089" d="M7.237,13.063c.986-.038,1.449.678,2.042,1.135.845.652.823.68,1.411-.182.789-1.158,1.568-2.323,2.372-3.471a1.386,1.386,0,1,1,2.291,1.536q-1.808,2.713-3.667,5.393a1.44,1.44,0,0,1-2.392.329q-1.4-1.138-2.778-2.3a1.343,1.343,0,0,1-.391-1.635,1.18,1.18,0,0,1,1.111-.807" transform="translate(-0.884 -1.444)" fill="#156eb7"/>
        <path id="Trazado_615090" data-name="Trazado 615090" d="M44.755,75.717a12.988,12.988,0,1,1,.075-25.976,12.988,12.988,0,1,1-.075,25.976" transform="translate(-4.682 -7.33)" fill="#146eb7"/>
        <path id="Trazado_615091" data-name="Trazado 615091" d="M73.181,93.605a2.323,2.323,0,0,1-1.794-.746c-3.215-3.22-6.445-6.427-9.648-9.66a2.416,2.416,0,0,1-.092-3.531,2.453,2.453,0,0,1,3.536.022q4.883,4.832,9.719,9.71a2.346,2.346,0,0,1,.565,2.757,2.292,2.292,0,0,1-2.287,1.448" transform="translate(-8.978 -11.631)" fill="#195c80"/>
        <path id="Trazado_615092" data-name="Trazado 615092" d="M8.035,82.605l-5-5.008c1.365,0,2.764-.062,4.152.033a1.049,1.049,0,0,1,.846,1.143c.005,1.253,0,2.5,0,3.831" transform="translate(-0.447 -11.432)" fill="#e45d8c"/>
        <path id="Trazado_615093" data-name="Trazado 615093" d="M60.944,77.695c-1.266,1.268-1.365,1.252-2.407-.074-.464-.591.253-.615.413-.894.137-.244.338-.569.719-.176.4.409.848.765,1.276,1.143" transform="translate(-8.603 -11.253)" fill="#58bced"/>
        <path id="Trazado_615094" data-name="Trazado 615094" d="M45.111,51.94A11.108,11.108,0,0,1,56.235,63.074,11.14,11.14,0,1,1,45.111,51.94" transform="translate(-5.003 -7.654)" fill="#26224f"/>
        <path id="Trazado_615095" data-name="Trazado 615095" d="M55.1,63.373a9.794,9.794,0,1,1-9.7-9.836,9.8,9.8,0,0,1,9.7,9.836" transform="translate(-5.234 -7.889)" fill="#59beef"/>
        <path id="Trazado_615096" data-name="Trazado 615096" d="M45.5,69.3a10.485,10.485,0,0,1-6.883-3.214,2.221,2.221,0,0,1,.157-3.233c4.587-4.017,9.042-4.052,13.646.02a2.178,2.178,0,0,1,.126,3.226A10.408,10.408,0,0,1,45.5,69.3" transform="translate(-5.598 -8.816)" fill="#26224f"/>
        <path id="Trazado_615097" data-name="Trazado 615097" d="M44.638,67.993a9.135,9.135,0,0,1-4.744-2.535.84.84,0,0,1,0-1.3A9.185,9.185,0,0,1,44.8,61.582c.174-.049.35-.108.446.124-.132.379-.519.413-.8.576a2.917,2.917,0,0,0-.337,4.837c.284.223.685.32.809.723-.038.151-.112.236-.278.15" transform="translate(-5.833 -9.068)" fill="#fefeff"/>
        <path id="Trazado_615098" data-name="Trazado 615098" d="M48,61.581a9.139,9.139,0,0,1,4.925,2.577.833.833,0,0,1,0,1.3A9.119,9.119,0,0,1,48.162,68c-.159.079-.237,0-.28-.142.067-.292.338-.367.543-.512,2.143-1.507,1.97-4.055-.351-5.241-.2-.1-.449-.135-.524-.4.1-.229.276-.163.448-.119" transform="translate(-7.007 -9.068)" fill="#fefefe"/>
        <path id="Trazado_615099" data-name="Trazado 615099" d="M47.726,61.561l-.408.163a.817.817,0,0,1-1.209.009l-.405-.171a3.193,3.193,0,0,1,2.022,0" transform="translate(-6.735 -9.047)" fill="#e4e2e9"/>
        <path id="Trazado_615100" data-name="Trazado 615100" d="M47.631,68.889l.231.166a3.9,3.9,0,0,1-2.351,0l.228-.175a3.065,3.065,0,0,1,1.892.01" transform="translate(-6.706 -10.128)" fill="#fdfdfd"/>
        <path id="Trazado_615101" data-name="Trazado 615101" d="M47.3,67.864a3.9,3.9,0,0,1-1.892-.01A3.139,3.139,0,0,1,43.3,64.769a3.071,3.071,0,0,1,2.455-2.979l1.209-.009a3.2,3.2,0,0,1,2.549,2.859c.113,1.375-.644,2.479-2.207,3.226" transform="translate(-6.38 -9.104)" fill="#156eb7"/>
        <path id="Trazado_615102" data-name="Trazado 615102" d="M48.381,63.418c.668.079,1.056.434,1.033,1.06a.935.935,0,0,1-1.008.946.924.924,0,0,1-.987-1.04.978.978,0,0,1,.962-.965" transform="translate(-6.987 -9.345)" fill="#f9fcfe"/>
      </g>
    </g>
  </g>
</svg>
