<svg xmlns="http://www.w3.org/2000/svg" xmlns:xlink="http://www.w3.org/1999/xlink" width="115" height="115.019" viewBox="0 0 115 115.019">
  <defs>
    <clipPath id="clip-path">
      <rect id="Rectángulo_325009" data-name="Rectángulo 325009" width="115" height="115.019" fill="none"/>
    </clipPath>
  </defs>
  <g id="Grupo_876507" data-name="Grupo 876507" clip-path="url(#clip-path)">
    <path id="Trazado_615154" data-name="Trazado 615154" d="M59.729,72.843H10.75c-2.163,0-2.7-.523-2.7-2.65V10.31c0-2.086.541-2.637,2.585-2.639,1.437,0,2.874-.036,4.311.014.648.023.8-.2.784-.808-.039-1.555-.021-3.113-.01-4.669C15.735.694,16.4.013,17.9.006c2.833-.011,5.668,0,8.5,0h74.726c2.245,0,2.755.5,2.756,2.709,0,1.4.037,2.8-.016,4.191-.024.66.214.8.814.78,1.475-.037,2.953-.016,4.43-.011,1.825,0,2.438.61,2.438,2.428q0,15.69,0,31.379,0,14.43,0,28.863c0,1.9-.594,2.5-2.486,2.5H59.729" transform="translate(3.447 0)" fill="#1b1818"/>
    <path id="Trazado_615155" data-name="Trazado 615155" d="M34.5,87.52c0,.96.016,1.718,0,2.475a1.844,1.844,0,0,1-1.986,2.031q-7.606.028-15.212,0a1.846,1.846,0,0,1-1.962-2.056C15.279,88.2,15.279,88.2,13.5,88.2q-5.571,0-11.141,0C.63,88.2,0,87.563,0,85.815Q0,72.878,0,59.939c0-1.8.618-2.406,2.456-2.408,3.953,0,7.907-.029,11.858.021.845.01,1.058-.208,1.041-1.047-.047-2.343.453-2.809,2.752-2.809q7.006,0,14.014,0c1.742,0,2.368.631,2.378,2.369a15.021,15.021,0,0,1-.014,1.915c-.11.9.326.851.957.691,2.812-.714,5.642-1.364,8.441-2.125a14.772,14.772,0,0,1,7.9.01q13.927,3.757,27.871,7.455A7.2,7.2,0,0,1,83.64,66.49c.471.607.8.605,1.434.237q8.82-5.143,17.684-10.211a7.688,7.688,0,1,1,7.535,13.4q-9.6,5.58-19.229,11.108-6.152,3.551-12.3,7.107a14.3,14.3,0,0,1-7.393,2c-9.023-.034-18.048-.069-27.07.017A16.9,16.9,0,0,1,35.7,88.1c-.341-.188-.7-.341-1.2-.584" transform="translate(0 22.98)" fill="#1b1818"/>
    <path id="Trazado_615156" data-name="Trazado 615156" d="M16.154,54.444c-.013-1.875-.037-3.751-.037-5.626Q16.111,26.357,16.09,3.9c0-1,.236-1.234,1.232-1.231q18.024.058,36.049.01c.764,0,1.1.079,1.1.992q-.047,24.915-.024,49.827c0,.16-.023.318-.034.477a4.647,4.647,0,0,1-3.913.484c-.608-1.312-1.689-1.586-3.043-1.579q-12.115.056-24.229-.006c-1.452-.01-2.575.3-3.243,1.668a5.047,5.047,0,0,1-3.83-.1" transform="translate(6.886 1.142)" fill="#8abbe7"/>
    <path id="Trazado_615157" data-name="Trazado 615157" d="M58.655,65.569q-23.3,0-46.6.021c-.992,0-1.341-.154-1.339-1.272q.064-27.494,0-54.989c0-1.087.294-1.321,1.322-1.291,2.537.073,2.539.021,2.539,2.56V59c0,2.185.558,2.736,2.763,2.736H100c2.189,0,2.747-.56,2.747-2.755q0-24.8-.029-49.6c0-1.138.34-1.372,1.389-1.342,2.472.071,2.473.021,2.473,2.506q0,26.836.023,53.671c0,1.067-.233,1.382-1.351,1.379q-23.3-.06-46.6-.027" transform="translate(4.586 3.439)" fill="#004291"/>
    <path id="Trazado_615158" data-name="Trazado 615158" d="M45.683,53.25c-.013-2.275-.037-4.549-.037-6.826Q45.64,25.164,45.619,3.9c0-.992.228-1.237,1.228-1.232,10.1.041,20.2.026,30.3.027.358,0,.717.026,1.075.039a4.876,4.876,0,0,1,.061,3.848,3.182,3.182,0,0,1-1.972.317q-11.68.013-23.358.006a7.425,7.425,0,0,0-1.789.1,1.455,1.455,0,0,0-.017,2.866,7.085,7.085,0,0,0,1.789.109q11.68,0,23.358.006a3.273,3.273,0,0,1,1.978.31,5.568,5.568,0,0,1,.037,3.921,3.132,3.132,0,0,1-2.076.344q-11.656.017-23.313.007a6.971,6.971,0,0,0-1.785.11,1.421,1.421,0,0,0-1.188,1.449,1.407,1.407,0,0,0,1.217,1.419,6.7,6.7,0,0,0,1.666.1q11.416,0,22.834,0a4.292,4.292,0,0,1,2,.227,4.1,4.1,0,0,1-.7,4.157,5.069,5.069,0,0,1-2.011.193q-10.96.009-21.92.006a9.929,9.929,0,0,0-1.674.064,1.456,1.456,0,0,0-1.411,1.5c.007.918.621,1.327,1.457,1.459a10.1,10.1,0,0,0,1.555.056q10.48,0,20.961,0a5.6,5.6,0,0,1,1.9.153c.184.093.383.234.324.443-.378,1.355-.543,2.809-1.695,3.823a5.657,5.657,0,0,1-1.9.157q-9.87.006-19.737,0a6.79,6.79,0,0,0-1.668.1,1.424,1.424,0,0,0-1.205,1.435,1.41,1.41,0,0,0,1.188,1.445,6.385,6.385,0,0,0,1.666.1q8.793,0,17.584,0a6.026,6.026,0,0,1,1.782.127.484.484,0,0,1,.326.74c-.714,1.339-1.281,2.8-2.709,3.6a8.518,8.518,0,0,1-1.9.106c-5.139,0-10.278-.006-15.418.006-2.162,0-2.6.44-2.6,2.587-.013,3.387,0,6.773-.006,10.16A5.36,5.36,0,0,1,49.7,52.1a4.447,4.447,0,0,1-4.014,1.149" transform="translate(19.523 1.142)" fill="#b0d2f1"/>
    <path id="Trazado_615159" data-name="Trazado 615159" d="M77.033,21.821a13.016,13.016,0,0,0,.717-3.757c.187-.31.528-.307.821-.4A1.557,1.557,0,0,0,79.8,16.262a1.6,1.6,0,0,0-.93-1.632c-.237-.131-.515-.207-.65-.478q0-1.876,0-3.756c2.186-1.369,2.186-2.54,0-3.911V2.729c1.675-.013,3.351,0,5.026-.05.577-.017.807.166.731.74a4.4,4.4,0,0,0,0,.6q0,27.423.024,54.848c0,1.077-.25,1.361-1.347,1.358q-17.9-.066-35.8,0c-.992,0-1.285-.224-1.234-1.231.1-1.911.051-3.828.064-5.743l3.754-.96c.461.388.378.935.41,1.442.107,1.8.538,2.218,2.355,2.256.877.019,1.755.006,2.633.006H76.631a12.656,12.656,0,0,0,1.435-.033,1.616,1.616,0,0,0,1.674-1.674,19.338,19.338,0,0,0,.033-2.035c0-4.031.01-8.064,0-12.095-.006-2.158-.431-2.57-2.615-2.586-1.836-.011-3.673.011-5.509-.01-.545-.007-1.134.086-1.564-.4A31.824,31.824,0,0,0,72.476,33.4c.391-.464.938-.364,1.441-.374,1.312-.027,2.625.027,3.935-.026,1.2-.049,1.873-.633,1.879-1.558s-.671-1.449-1.872-1.574c-1.077-.113-2.226.347-3.229-.383q.718-1.876,1.437-3.751c.471-.527,1.105-.324,1.676-.357,1.3-.076,1.989-.577,2.031-1.535.04-.927-.537-1.468-1.778-1.662-.347-.053-.725-.017-.964-.358" transform="translate(19.521 1.146)" fill="#8abbe7"/>
    <path id="Trazado_615160" data-name="Trazado 615160" d="M16.155,39.067h3.758c1.071,1.558,2.652,1.585,4.332,1.575q11.042-.064,22.08,0c1.684.01,3.26-.027,4.328-1.585,1.237-.283,2.532-.086,3.758-.458.011,1.755-.017,3.511.054,5.263.034.805-.238.981-1,.977-5.5-.03-11.009-.016-16.514-.016-6.581,0-13.163-.02-19.744.021-.9.006-1.165-.211-1.112-1.114.089-1.551.047-3.109.06-4.664" transform="translate(6.885 16.519)" fill="#4a8ccc"/>
    <path id="Trazado_615161" data-name="Trazado 615161" d="M46.949,84.6c-3.831,0-7.67-.13-11.494.039a17.737,17.737,0,0,1-9.613-2.256,2.661,2.661,0,0,1-1.712-2.772c.107-5.825.057-11.654.027-17.482,0-.718.2-1.032.905-1.2,3.289-.784,6.577-1.572,9.843-2.448,2.817-.755,5.442.08,8.092.79,8.261,2.21,16.514,4.452,24.781,6.643,1.836.487,3.277,1.339,3.577,3.357.427,2.876-2.126,4.952-5.081,4.167Q55.21,70.492,44.152,67.516a2.366,2.366,0,0,0-1.631-.034,1.834,1.834,0,0,0-1.2,1.886,1.873,1.873,0,0,0,1.515,1.786c7.684,2.059,15.355,4.172,23.064,6.132a7.525,7.525,0,0,0,9.286-7.24,1.328,1.328,0,0,1,.8-1.285c6.08-3.486,12.14-7.007,18.218-10.5a3.89,3.89,0,0,1,5.509,1.274,3.823,3.823,0,0,1-1.639,5.315q-15.923,9.217-31.863,18.4A10.016,10.016,0,0,1,61.079,84.6c-4.711-.013-9.42,0-14.13,0" transform="translate(10.326 24.666)" fill="#f5aa9c"/>
    <path id="Trazado_615162" data-name="Trazado 615162" d="M13.43,71.6c0-4.709.027-9.42-.024-14.13-.01-.924.264-1.12,1.137-1.105,3.151.054,6.306.043,9.459.006.72-.009.948.166.947.922q-.041,14.43,0,28.859c0,.763-.237.928-.951.92-3.151-.036-6.306-.049-9.457.006-.88.016-1.142-.191-1.132-1.108.05-4.789.023-9.58.023-14.369" transform="translate(5.737 24.122)" fill="#0f55a2"/>
    <path id="Trazado_615163" data-name="Trazado 615163" d="M12.267,82.032c-2.95.013-5.9.013-8.849.05-.575.009-.743-.174-.741-.744Q2.7,70.57,2.677,59.8c0-.57.164-.751.741-.744,2.949.037,5.9.037,8.849.05a2.038,2.038,0,0,1,.384,1.582q.017,9.879,0,19.759a2.038,2.038,0,0,1-.384,1.582" transform="translate(1.146 25.274)" fill="#4a8ccc"/>
    <path id="Trazado_615164" data-name="Trazado 615164" d="M9.393,82.029V59.106a1.127,1.127,0,0,1,.119-.017c1.8-.071,1.8-.071,1.8,1.674V80.254c0,1.875,0,1.875-1.921,1.775" transform="translate(4.02 25.278)" fill="#256ab3"/>
    <path id="Trazado_615165" data-name="Trazado 615165" d="M28.953,8.721c0-.63-.021-1.021,0-1.409a1.862,1.862,0,0,1,1.888-1.918q3.83-.066,7.661,0a1.886,1.886,0,0,1,1.939,1.993c.02.357,0,.715,0,1.071.11.016.21.06.244.03,2.066-1.812,2.432-1.8,4.411.18Q47.05,10.612,49,12.559c1.521,1.525,1.536,2.27.086,3.808-.1.107-.2.218-.316.344.327.284.653.149.947.159a2.012,2.012,0,0,1,2.232,2.32c.013,2.195.006,4.391,0,6.586,0,1.958-.6,2.562-2.549,2.6-.188,0-.377.021-.717.04.376.418.67.724.94,1.05a1.779,1.779,0,0,1-.024,2.582q-2.7,2.8-5.5,5.5a1.776,1.776,0,0,1-2.582-.02c-.3-.253-.577-.538-.86-.805-.077.06-.18.1-.177.143.147,2.47-.8,3.15-3.246,3.027-1.671-.084-3.351-.016-5.026-.016-2.816,0-3.151-.314-3.3-3.1-.071,0-.17-.03-.21,0-1.989,1.772-2.43,1.761-4.325-.129q-1.992-1.986-3.978-3.978c-1.508-1.512-1.516-2.253-.057-3.8.1-.107.2-.217.33-.364-3.216-.5-3.216-.5-3.216-3.773q0-2.575,0-5.149c0-2.122.54-2.667,2.669-2.716.15,0,.3-.026.48-.041-.1-.471-.5-.648-.741-.938a1.9,1.9,0,0,1,.007-2.773Q22.5,10.425,25.2,7.79a1.889,1.889,0,0,1,2.77,0c.268.233.517.488.985.934" transform="translate(7.467 2.294)" fill="#1b1818"/>
    <path id="Trazado_615166" data-name="Trazado 615166" d="M34.029,36.054H21.81c-.238,0-.478,0-.718,0-1.421-.024-2.278-.73-2.295-1.892s.841-1.916,2.242-1.939c.678-.011,1.358,0,2.036,0H46.793c1.746,0,2.636.637,2.656,1.889s-.894,1.943-2.6,1.945q-6.409,0-12.817,0" transform="translate(8.044 13.787)" fill="#1b1818"/>
    <path id="Trazado_615167" data-name="Trazado 615167" d="M49.508,39.49c-.468,1.574-.924,1.929-2.536,1.931q-12.832,0-25.663,0c-1.618,0-2.079-.358-2.542-1.922.428-1.531.89-1.908,2.428-1.908q12.937-.006,25.873,0c1.539,0,1.989.363,2.44,1.9" transform="translate(8.031 16.086)" fill="#1b1818"/>
    <path id="Trazado_615168" data-name="Trazado 615168" d="M68.937,26.822q3.825.019,7.65.04c1.7.01,2.408.69,2.41,2.37q.013,7.175,0,14.349c0,1.765-.685,2.445-2.458,2.446q-12.794,0-25.587,0c-2.006,0-2.613-.62-2.622-2.643,0-.477-.024-.954-.039-1.432q.021-6.267.04-12.536c.007-1.933.628-2.552,2.576-2.556l18.028-.039" transform="translate(20.667 11.479)" fill="#1b1818"/>
    <path id="Trazado_615169" data-name="Trazado 615169" d="M77.067,5.345c1.085.18,1.863.74,1.892,1.9.031,1.219-.758,1.813-1.892,2.013L51.242,9.218c-2.016,0-2.962-.643-2.916-1.979.044-1.292.927-1.852,2.916-1.855l25.824-.039" transform="translate(20.681 2.288)" fill="#1b1818"/>
    <path id="Trazado_615170" data-name="Trazado 615170" d="M77.065,10.714c1.371.381,2.015,1.1,1.908,2.132-.114,1.1-.85,1.645-2.383,1.781l-25.346-.04c-2.016,0-2.962-.64-2.917-1.976.043-1.294.925-1.855,2.914-1.858q12.914-.017,25.824-.039" transform="translate(20.681 4.585)" fill="#1b1818"/>
    <path id="Trazado_615171" data-name="Trazado 615171" d="M75.873,16.084c.433.016.868.007,1.3.05a1.9,1.9,0,0,1-.019,3.805c-.745.06-1.5.041-2.245.057l-23.67-.041c-1.983,0-2.872-.568-2.912-1.862-.041-1.338.9-1.969,2.92-1.972l24.626-.037" transform="translate(20.681 6.883)" fill="#1b1818"/>
    <path id="Trazado_615172" data-name="Trazado 615172" d="M73.47,21.451c1.148.014,2.3.011,3.446.047a1.916,1.916,0,1,1-.011,3.82c-1.862.039-3.726.034-5.588.047l-20.2-.04a8.432,8.432,0,0,1-1.075-.019,1.9,1.9,0,0,1-1.712-1.959,1.861,1.861,0,0,1,1.715-1.835,6.915,6.915,0,0,1,1.075-.02l22.347-.041" transform="translate(20.682 9.18)" fill="#1b1818"/>
    <path id="Trazado_615173" data-name="Trazado 615173" d="M19.941,75.326q0,2.892-1.911,2.9c-1.275.006-1.923-.97-1.923-2.89,0-.16,0-.32,0-.48.024-1.465.805-2.4,1.968-2.362,1.127.041,1.839.938,1.865,2.35,0,.159,0,.318,0,.478" transform="translate(6.893 31.025)" fill="#1a1818"/>
    <path id="Trazado_615174" data-name="Trazado 615174" d="M31.681,32.481c0-.6.021-1.2-.006-1.8A1.762,1.762,0,0,0,30.5,29.028a1.805,1.805,0,0,0-2.008.346c-.8.78-1.631,1.535-2.368,2.372-.514.583-.811.477-1.315-.023-2.063-2.043-2.086-2.029-.019-4.088.852-.85,1.891-1.649,1.291-3.053-.58-1.358-1.853-1.147-3-1.14h-.12c-3.057,0-3.167-.146-2.785-3.261.061-.5.264-.581.681-.575,1.117.013,2.235-.007,3.351.006A1.845,1.845,0,0,0,26.1,18.42a1.91,1.91,0,0,0-.5-2.192c-.747-.718-1.434-1.506-2.215-2.185-.587-.51-.478-.81.021-1.315,2.049-2.066,2.038-2.091,4.094-.016.848.855,1.648,1.892,3.05,1.291,1.354-.581,1.147-1.855,1.138-3.007v-.12c0-3.052.153-3.167,3.263-2.782.5.061.58.267.574.683-.013,1.117.009,2.235-.006,3.353a1.84,1.84,0,0,0,1.191,1.892,1.914,1.914,0,0,0,2.192-.5c.748-.774,1.552-1.5,2.276-2.295.441-.486.7-.4,1.141.019,2.2,2.085,2.216,2.076.1,4.178-.854.848-1.895,1.644-1.291,3.049.583,1.357,1.855,1.147,3.006,1.138h.12c3.052,0,3.167.154,2.783,3.264-.061.5-.268.578-.683.574-1.118-.013-2.236.007-3.353-.007A1.843,1.843,0,0,0,41.1,24.63a1.912,1.912,0,0,0,.5,2.192c.775.747,1.5,1.549,2.3,2.272.488.443.394.7-.02,1.141-2.085,2.2-2.078,2.219-4.177.1-.848-.854-1.645-1.893-3.05-1.292-1.358.581-1.145,1.855-1.138,3.006v.12c0,3.059-.144,3.167-3.261,2.785-.5-.061-.588-.263-.575-.68.017-.6,0-1.2,0-1.8Z" transform="translate(8.566 3.397)" fill="#dc091d"/>
    <path id="Trazado_615175" data-name="Trazado 615175" d="M62.638,29.54c3.468,0,6.938.024,10.405-.019.788-.01,1,.214.985.991q-.064,4.785,0,9.57c.013.8-.238.978-1,.975q-10.525-.043-21.051,0c-.788,0-1-.214-.985-.991q.064-4.785,0-9.57c-.013-.8.238-.984,1-.975,3.548.039,7.1.017,10.645.017" transform="translate(21.822 12.634)" fill="#ffc000"/>
    <path id="Trazado_615176" data-name="Trazado 615176" d="M25.505,19.149a5.747,5.747,0,1,1,5.626,5.775,5.762,5.762,0,0,1-5.626-5.775" transform="translate(10.915 5.747)" fill="#1b1818"/>
    <path id="Trazado_615177" data-name="Trazado 615177" d="M30.01,19.937a1.913,1.913,0,1,1,2-1.788,1.944,1.944,0,0,1-2,1.788" transform="translate(12.064 6.896)" fill="#ffbe00"/>
  </g>
</svg>
