<svg id="Grupo_876510" data-name="Grupo 876510" xmlns="http://www.w3.org/2000/svg" xmlns:xlink="http://www.w3.org/1999/xlink" width="100.59" height="115.019" viewBox="0 0 100.59 115.019">
  <defs>
    <clipPath id="clip-path">
      <rect id="Rectángulo_325010" data-name="Rectángulo 325010" width="100.59" height="115.018" fill="none"/>
    </clipPath>
  </defs>
  <g id="Grupo_876509" data-name="Grupo 876509" transform="translate(0 0)" clip-path="url(#clip-path)">
    <path id="Trazado_615178" data-name="Trazado 615178" d="M98.823,78.139c1.281.273,1.743.776,1.744,2.048.009,10.031.024,20.063-.009,30.094a4.65,4.65,0,0,1-4.887,4.735q-45.36,0-90.724,0A4.677,4.677,0,0,1,.012,110.1Q0,75.346.019,40.59A11.427,11.427,0,0,1,9.386,29.217c.671-.139.706-.475.7-1.008q-.018-6.233-.005-12.465A5.348,5.348,0,0,1,15.7,10.112c1.272,0,2.545-.025,3.817.012.538.015.706-.142.689-.687-.037-1.271-.015-2.545-.011-3.817A5.346,5.346,0,0,1,23.929.237c.133-.051.3-.033.3-.237H75.447c4.406,4.409,8.762,8.868,13.25,13.192A5.41,5.41,0,0,1,90.537,17.7c-.143,3.474-.023,6.959-.056,10.44-.007.724.165.967.938,1.129a11.593,11.593,0,0,1,9.117,11.18c.1,10.4.037,20.809.031,31.214,0,1.265-.451,1.752-1.747,2.058a1.525,1.525,0,0,1-1.839-1.285,6.789,6.789,0,0,1-.1-1.672q0-12.32-.008-24.642a2.452,2.452,0,0,0-.292-1.719,1.717,1.717,0,0,0-1.284-.277q-39.36,0-78.721.012c-3.667,0-7.335.005-11,.032-1.791.012-1.864.072-1.864,1.8q-.006,31.277,0,62.556c0,.3,0,.6.025.9.125,1.453.514,1.842,1.959,1.856,3.556.033,7.112-.024,10.666.029.6-.059,1.2-.02,1.8-.02q37.9,0,75.79,0c2.732,0,2.928-.19,2.929-2.931q.008-13.643,0-27.287A6.5,6.5,0,0,1,97,79.282a1.445,1.445,0,0,1,1.823-1.143" transform="translate(0 0)" fill="#040506"/>
    <path id="Trazado_615179" data-name="Trazado 615179" d="M94.83,67.03c-1.415.357-1.683.732-1.684,2.434q0,14.316,0,28.631c0,.374.009.75-.023,1.122a1.3,1.3,0,0,1-1.38,1.319c-.186.009-.374,0-.561,0H13.157c-.261,0-.522-.023-.783-.035a1.109,1.109,0,0,1-.556-1.032c-.043-.485-.029-.972-.029-1.459V35.238c0-2.426,0-2.426,2.427-2.426q38.738,0,77.476.005a3.262,3.262,0,0,1,1.331.09,2.107,2.107,0,0,1,.116,1.2q.012,13.025.007,26.05c0,1.7.256,2.055,1.682,2.45q0,2.209,0,4.419" transform="translate(3.993 11.11)" fill="#ffc472"/>
    <path id="Trazado_615180" data-name="Trazado 615180" d="M18.208,10.115c1.233-.012,2.466-.033,3.7-.035,11.372,0,22.743.011,34.115-.023.9,0,1.106.242,1.086,1.1-.059,2.43-.029,4.862-.019,7.3a5.48,5.48,0,0,0,5.782,5.75c2.469.007,4.936.02,7.406-.011.661-.009.977.062.967.874-.052,3.7-.028,7.407-.016,11.111,0,.526.036.885-.723.884q-26.427-.046-52.855-.04A.646.646,0,0,1,17.54,37a4.105,4.105,0,0,1-.062-3.388,3.351,3.351,0,0,1,2.07-.3q20.031-.012,40.063-.007c.525,0,1.048.02,1.57-.029.751-.072,1.449-.316,1.645-1.117s-.348-1.236-.985-1.566a3.562,3.562,0,0,0-1.765-.21q-20.315-.006-40.632,0c-2.23,0-2.732-.718-2.055-2.917.044-.143.009.044.056-.1a2.983,2.983,0,0,1,2.052-.347Q36.054,27,52.606,27.011a6.754,6.754,0,0,0,1.786-.1c.613-.166,1.107-.5,1.107-1.225s-.493-1.054-1.111-1.218a6.935,6.935,0,0,0-1.787-.106q-16.553,0-33.105-.005a3.5,3.5,0,0,1-1.971-.272,1.932,1.932,0,0,1-.333-1.382c-.011-3.51-.019-7.021,0-10.532.007-.835.058-1.673,1.015-2.052" transform="translate(5.796 3.407)" fill="#d3e8f9"/>
    <path id="Trazado_615181" data-name="Trazado 615181" d="M96.146,32.935q-14.479.008-28.958.015-25.311,0-50.622-.021c-1.023,0-1.316.261-1.315,1.3q.046,32.442.024,64.884a2.356,2.356,0,0,0,.221,1.416q-5.669.018-11.339.039A1.381,1.381,0,0,1,2.58,99.091c-.016-.336-.011-.673-.011-1.011q0-31.952,0-63.907c0-1.663-.118-1.412,1.455-1.412q45.427-.01,90.852,0c.419,0,.889-.2,1.266.174" transform="translate(0.87 11.081)" fill="#ffb351"/>
    <path id="Trazado_615182" data-name="Trazado 615182" d="M25.52,2.559c.261-.012.522-.036.783-.036q18.642,0,37.282-.02c.811,0,1.08.151,1.056,1.023-.068,2.431-.032,4.866-.023,7.3a5.51,5.51,0,0,0,5.832,5.83c2.434.013,4.868.028,7.3-.015.728-.012,1.028.1,1.023.94q-.056,10.557,0,21.114c0,.727-.177.955-.92.928q-2.468-.086-4.94,0c-.756.028-.916-.221-.912-.936.032-4.379,0-8.76.029-13.139a2.576,2.576,0,0,0-.817-1.987q-6.727-6.693-13.416-13.423a2.826,2.826,0,0,0-2.185-.889q-14.654.034-29.309.012c-.411,0-.822-.024-1.232-.036a1.234,1.234,0,0,1-.323-.916c-.024-1.364-.063-2.73.023-4.093a2.064,2.064,0,0,1,.751-1.659" transform="translate(8.373 0.848)" fill="#61c2e7"/>
    <path id="Trazado_615183" data-name="Trazado 615183" d="M19.933,27.4c-.007,2.644-.007,2.644,2.605,2.644q20.287,0,40.572.007c.434,0,.9-.141,1.3.171-.5.561-1.173.406-1.786.407q-10.892.02-21.786.008H19.167a12.549,12.549,0,0,0-1.347.036c-.714.075-1.21.39-1.257,1.171s.442,1.142,1.111,1.332a10.5,10.5,0,0,0,1.56.163,1.068,1.068,0,0,1,.7.308q0,1.675,0,3.348c-3.062.015-6.122.009-9.184.058-.645.009-.71-.253-.708-.787.013-8,0-15.99.016-23.986a2.016,2.016,0,0,1,2.142-2.2c2.8-.017,5.6.015,8.4.027a2.8,2.8,0,0,0-.683,2.06c.025,3.929.013,7.859.013,11.788-.627.578-1.412.25-2.119.361A1.408,1.408,0,0,0,16.49,25.46a1.252,1.252,0,0,0,.695,1.386,2.743,2.743,0,0,0,1.295.216c.5.035,1.051-.123,1.454.339" transform="translate(3.402 3.414)" fill="#a6d3f3"/>
    <path id="Trazado_615184" data-name="Trazado 615184" d="M27.935,2.553C27.107,4.73,27.626,7,27.484,9.22c-3.059.012-6.117.008-9.175.052-.629.009-.735-.225-.72-.775.035-1.268-.007-2.537.016-3.806a2.025,2.025,0,0,1,2.162-2.167c2.723-.012,5.445.017,8.168.029" transform="translate(5.958 0.854)" fill="#31b6e6"/>
    <path id="Trazado_615185" data-name="Trazado 615185" d="M9.2,28.306c0,1.044-.028,2.091.011,3.134.021.566-.123.786-.736.771q-2.574-.058-5.149,0c-.623.013-.726-.209-.7-.779a8.2,8.2,0,0,1,5.865-7.018c.557-.142.734-.05.718.534-.031,1.118-.009,2.238-.009,3.358" transform="translate(0.887 8.251)" fill="#f99409"/>
    <path id="Trazado_615186" data-name="Trazado 615186" d="M67.6,24.377a8.113,8.113,0,0,1,6.555,7.042c.029.561-.05.8-.685.785-1.715-.04-3.433-.027-5.149-.005-.491.007-.74-.075-.732-.659.029-2.384.012-4.769.012-7.162" transform="translate(22.897 8.259)" fill="#f99409"/>
    <path id="Trazado_615187" data-name="Trazado 615187" d="M57.349,19.7c.149.134.576.411.064.426a61.755,61.755,0,0,1-6.259-.063A1.877,1.877,0,0,1,49.5,17.983c-.029-1.972-.008-3.945-.008-5.915,1.586,1.51,3.156,3,4.725,4.494a13.22,13.22,0,0,1,.06,1.783c0,.862.382,1.321,1.287,1.3a10.443,10.443,0,0,1,1.783.055" transform="translate(16.765 4.089)" fill="#7abbe9"/>
    <path id="Trazado_615188" data-name="Trazado 615188" d="M61.968,12.556c-.9.013-1.791.063-2.684.032a2.1,2.1,0,0,1-2.232-2.26c-.032-1.937-.008-3.876-.008-5.8L61.529,8.77a12.588,12.588,0,0,1,.439,3.786" transform="translate(19.322 1.534)" fill="#19b1eb"/>
    <path id="Trazado_615189" data-name="Trazado 615189" d="M60.838,11.482c-.652-1.2-.43-2.509-.439-3.786q1.787,1.9,3.565,3.786Z" transform="translate(20.452 2.607)" fill="#2eb5e4"/>
    <path id="Trazado_615190" data-name="Trazado 615190" d="M56.227,18.559c-.869.511-1.8.194-2.707.2-.276,0-.446-.284-.509-.54a3.931,3.931,0,0,1,.086-2.79l3.13,3.134" transform="translate(17.887 5.226)" fill="#a3d0f0"/>
    <path id="Trazado_615191" data-name="Trazado 615191" d="M52.974,53.7h4.418c.991,1.3,2.359,1.486,3.886,1.461,3.512-.059,7.026-.032,10.538-.012,1.656.009,1.905.25,1.908,1.878q.018,12.67,0,25.34c0,.582.078,1.224-.542,1.613a3.744,3.744,0,0,1-1.441.139q-12.836,0-25.672,0c-1.848,0-2.554-1.058-1.921-2.829a.985.985,0,0,1,.918-.689,12.866,12.866,0,0,1,1.344-.033q9.585,0,19.171,0a3.6,3.6,0,0,0,1.544-.171c.718-.273,1.293-.688,1.159-1.554-.142-.922-.877-1.138-1.667-1.183-1.046-.062-2.093-.024-3.139-.024q-8.689,0-17.379-.008c-.621,0-1.285.129-1.815-.365a1.488,1.488,0,0,1-.208-.633c-.249-1.925.108-2.344,2.03-2.346q9.846-.006,19.695,0a3.25,3.25,0,0,0,1.537-.186,1.331,1.331,0,0,0,.959-1.463c-.126-.8-.758-1.046-1.446-1.189a8.732,8.732,0,0,0-1.783-.1q-9.452,0-18.9-.005a2.81,2.81,0,0,1-1.838-.307A3.38,3.38,0,0,1,44.3,68.3a2.53,2.53,0,0,1,1.822-.34q9.577-.016,19.155-.007c.447,0,.9.015,1.343-.021.743-.059,1.453-.236,1.644-1.078.21-.916-.379-1.367-1.137-1.664a3.611,3.611,0,0,0-1.55-.171c-6.627,0-13.253.005-19.878-.008-1.337,0-1.605-.256-1.647-1.415-.047-1.352.266-1.676,1.722-1.679q9.995-.016,19.991-.007a3.15,3.15,0,0,0,1.54-.2c.656-.311,1.171-.739.972-1.552A1.575,1.575,0,0,0,66.673,59c-.447-.04-.9-.025-1.344-.025q-9.581,0-19.161-.007a2.852,2.852,0,0,1-1.843-.3,4.5,4.5,0,0,1-.056-3.123,1.621,1.621,0,0,1,1.341-.378c1.26-.02,2.522-.058,3.778.005A3.682,3.682,0,0,0,52.974,53.7" transform="translate(14.878 18.19)" fill="#d3e8f9"/>
    <path id="Trazado_615192" data-name="Trazado 615192" d="M55.564,54.13c-.324,1.315-.751,1.687-2.075,1.71-2.165.039-4.33.048-6.493.07a2.025,2.025,0,0,1-1.482.375c-1.42.013-2.841.009-4.261,0-.751,0-1.088.317-1.09,1.071,0,1.159,0,2.317,0,3.477q0,10.71,0,21.419c0,1.822.019,1.786,1.779,1.852,10.866.4,21.734.191,32.6.237a2.374,2.374,0,0,0,1.21-.1c.3-.319.145-.712.145-1.064.011-8.715-.005-17.432.028-26.148,0-.908-.2-1.218-1.162-1.2-4.15.052-8.3.027-12.455.02-1.525,0-1.921-.308-2.324-1.714A1.874,1.874,0,0,1,62.1,52.423c4.454,0,8.908-.035,13.362.017a3.626,3.626,0,0,1,3.829,3.919q.022,13.758,0,27.516a3.68,3.68,0,0,1-3.927,3.936q-17.575.01-35.15,0A3.621,3.621,0,0,1,36.3,83.99q-.05-13.87,0-27.739a3.546,3.546,0,0,1,3.7-3.8c4.528-.066,9.058-.028,13.587-.017a1.768,1.768,0,0,1,1.981,1.7" transform="translate(12.288 17.756)" fill="#050506"/>
    <path id="Trazado_615193" data-name="Trazado 615193" d="M18.417,28.556c-.708-.02-1.419-.016-2.126-.067a1.666,1.666,0,0,1-1.756-1.766c.032-.989.633-1.558,1.778-1.6,1.046-.035,2.094-.005,3.142-.005l43.433.007a1.691,1.691,0,0,1,1.3,1.948c-.135.953-.9,1.422-2.224,1.422Q46.98,28.5,31.995,28.5c-4.526,0-9.051.033-13.578.052" transform="translate(4.924 8.507)" fill="#050607"/>
    <path id="Trazado_615194" data-name="Trazado 615194" d="M18.412,23.887c-.746-.013-1.491,0-2.236-.044a1.678,1.678,0,0,1,0-3.355c.744-.04,1.49-.031,2.236-.044q8.466.02,16.932.036,9.76.008,19.515,0c1.41,0,2.25.878,1.949,2.068-.266,1.042-1.058,1.311-2.062,1.308q-9.926-.028-19.85-.008-8.244.008-16.484.035" transform="translate(4.923 6.926)" fill="#040506"/>
    <path id="Trazado_615195" data-name="Trazado 615195" d="M74.887,83.376c-.278.39-.685.19-1.024.19-11.293.011-22.585-.005-33.876.028-.956,0-1.171-.282-1.169-1.193q.048-13.125,0-26.252c0-.908.189-1.236,1.155-1.19,2.051.1,4.107.066,6.161.087q0,1.572,0,3.146c-.325.382-.817.323-1.232.466a1.293,1.293,0,0,0-1.035,1.4c.067.771.576,1.08,1.287,1.146.447.04.9.029,1.344.029q10.479,0,20.959.008c.615,0,1.285-.158,1.8.371-.388.34-.859.19-1.293.191-6.888.009-13.776.032-20.664-.02-1.079-.008-1.19.414-1.2,1.311-.013.926.254,1.206,1.2,1.2,6.813-.037,13.627-.023,20.44-.013.434,0,.9-.15,1.3.178-.475.513-1.107.375-1.687.376q-10.426.018-20.851.008a11.232,11.232,0,0,0-1.455.043,1.184,1.184,0,0,0-1.173,1.137,1.28,1.28,0,0,0,.934,1.366c.439.181.984.088,1.331.51q0,1.343.005,2.684a2.176,2.176,0,0,1-1.123.463c-.781.214-1.272.641-1.146,1.521s.8.983,1.5,1.012c.411.016.823.008,1.234.009q10.44,0,20.88.008c.61,0,1.289-.169,1.782.406-.4.307-.865.167-1.3.167q-10.181.014-20.363.007c-1.475,0-1.477,0-1.477,1.528,0,.372,0,.746,0,1.119-.316.394-.81.333-1.225.477a1.293,1.293,0,0,0-1.039,1.4c.063.771.57,1.083,1.283,1.15.447.041.9.029,1.344.029q10.37,0,20.739.009c.615,0,1.287-.161,1.8.375-.395.328-.864.177-1.3.178-6.809.009-13.618.042-20.426-.024-1.217-.012-1.234.553-1.19,1.422.04.8-.23,1.57,1.162,1.561,9.2-.063,18.407-.028,27.61-.025" transform="translate(13.15 18.618)" fill="#a6d3f3"/>
    <path id="Trazado_615196" data-name="Trazado 615196" d="M68.1,60.8H44.88c-.375,0-.75.011-1.122-.017A1.507,1.507,0,0,1,42.229,59.3a1.568,1.568,0,0,1,1.3-1.81,8.315,8.315,0,0,1,1.445-.119l20.4.047c.635,0,1.271.005,1.905,0a1.754,1.754,0,0,1,1.984,1.266A1.663,1.663,0,0,1,68.1,60.8" transform="translate(14.302 19.437)" fill="#050506"/>
    <path id="Trazado_615197" data-name="Trazado 615197" d="M44.977,65.5l-.894-.04c-1.189-.055-1.9-.728-1.868-1.769.032-1.008.7-1.6,1.882-1.6q9.535-.01,19.071,0c1.57,0,3.139-.019,4.71-.028a1.658,1.658,0,0,1,1.446,1.928c-.1.952-.839,1.467-2.042,1.469q-10.539.008-21.075,0c-.411,0-.821.025-1.23.039" transform="translate(14.301 21.024)" fill="#040506"/>
    <path id="Trazado_615198" data-name="Trazado 615198" d="M67.877,74.73,44.994,74.7c-.336,0-.673.011-1.009,0a1.622,1.622,0,0,1-1.77-1.6,1.688,1.688,0,0,1,1.756-1.763c.335-.021.671-.029,1.005-.043l21.3.04c.337,0,.673,0,1.009,0,1.206.017,1.943.517,2.043,1.47a1.666,1.666,0,0,1-1.447,1.929" transform="translate(14.301 24.152)" fill="#040506"/>
    <path id="Trazado_615199" data-name="Trazado 615199" d="M68.11,70.049q-11.949.018-23.9.031c-1.3,0-1.967-.573-2-1.616s.619-1.663,1.878-1.766c.3-.025.593-.046.889-.068,2.462.021,4.924.055,7.385.06,4.742.011,9.484,0,14.226,0,.261,0,.522-.007.783,0,.93.037,1.707.321,1.918,1.354a1.642,1.642,0,0,1-1.183,2" transform="translate(14.301 22.573)" fill="#060708"/>
  </g>
</svg>
