<svg xmlns="http://www.w3.org/2000/svg" xmlns:xlink="http://www.w3.org/1999/xlink" width="71.65" height="73.068" viewBox="0 0 71.65 73.068">
  <defs>
    <clipPath id="clip-path">
      <rect id="Rectángulo_324982" data-name="Rectángulo 324982" width="71.65" height="73.068" transform="translate(0 0)" fill="none"/>
    </clipPath>
  </defs>
  <g id="Grupo_876432" data-name="Grupo 876432" transform="translate(0 0)">
    <g id="Grupo_876431" data-name="Grupo 876431" clip-path="url(#clip-path)">
      <path id="Trazado_614396" data-name="Trazado 614396" d="M51.1,73.068c-.957-.848-.686-2.083-.986-3.138a.95.95,0,0,1-.011-.142c-.227-1.817-.383-1.994-2.117-2.547-.288-.092-.444.053-.634.191-.923.668-1.843,1.34-2.772,2a1.217,1.217,0,0,1-1.883-.141q-1.42-1.4-2.824-2.825a1.24,1.24,0,0,1-.149-1.888c.664-.927,1.329-1.852,2.014-2.762a.844.844,0,0,0,.1-.83,2.293,2.293,0,0,0-2.548-1.946,12.292,12.292,0,0,1-2.24-.371,1.062,1.062,0,0,1-.954-1.138c-.01-1.475-.006-2.949,0-4.424a1.087,1.087,0,0,1,.983-1.191c1.1-.189,2.195-.377,3.3-.531a1.318,1.318,0,0,0,1.07-.807,2.074,2.074,0,0,0-.379-2.75,17.646,17.646,0,0,1-1.39-1.893,1.184,1.184,0,0,1,.118-1.72q1.475-1.5,2.977-2.975A1.148,1.148,0,0,1,44.48,41.1c.953.667,1.91,1.33,2.828,2.043a.71.71,0,0,0,.951.072.5.5,0,0,1,.19-.1c1.282-.183,1.583-1.077,1.656-2.193.047-.731.193-1.456.309-2.182a1.237,1.237,0,0,1,1.445-1.217q2-.008,3.995,0c.951,0,1.258.244,1.435,1.207.2,1.072.368,2.15.508,3.23.058.453.289.631.668.863a2.2,2.2,0,0,0,3-.424A14.156,14.156,0,0,1,63.24,41.1a1.164,1.164,0,0,1,1.669.088q1.56,1.517,3.077,3.078a1.136,1.136,0,0,1,.113,1.607c-.711.979-1.41,1.968-2.13,2.941a.572.572,0,0,0-.065.767.743.743,0,0,1,.148.32c.169,1.255,1.028,1.564,2.127,1.632.731.046,1.457.19,2.182.309.98.16,1.285.531,1.286,1.536,0,1.332.006,2.664,0,4a1.138,1.138,0,0,1-1.086,1.324c-1.07.2-2.149.37-3.228.522a1.264,1.264,0,0,0-1.021.747,2.142,2.142,0,0,0,.412,2.874,22.55,22.55,0,0,1,1.346,1.837,1.164,1.164,0,0,1-.092,1.667q-1.524,1.554-3.077,3.078a1.145,1.145,0,0,1-1.61.111c-.963-.694-1.937-1.373-2.882-2.09a.908.908,0,0,0-.9-.1,2.213,2.213,0,0,0-1.89,2.5,11.345,11.345,0,0,1-.272,1.826,1.743,1.743,0,0,1-.824,1.4Z" fill="#040506"/>
      <path id="Trazado_614397" data-name="Trazado 614397" d="M24.27,73.068a1.954,1.954,0,0,1-.71-1.937c.029-.544.171-1.208-.078-1.6s-.972-.14-1.483-.2a18.863,18.863,0,0,1-9.29-3.4A12.132,12.132,0,0,1,9.03,50.612c.282-.552.6-1.066,1.308-1.02.739.048,1,.6,1.177,1.236a9.719,9.719,0,0,0,5.213,6.663,15.747,15.747,0,0,0,6.423,1.337c.371.01.431-.125.422-.445-.019-.665,0-1.331-.007-2a1.2,1.2,0,0,1,.656-1.17,1.166,1.166,0,0,1,1.323.178q4.882,3.577,9.765,7.156a1.161,1.161,0,0,1,.108,1.942q-5.133,4.3-10.292,8.576Z" fill="#040506"/>
      <path id="Trazado_614398" data-name="Trazado 614398" d="M19.415,49.207c-.357,0-.713.006-1.07,0a3.172,3.172,0,0,1-3.306-3.323,1.156,1.156,0,0,0-.615-1.188,3.02,3.02,0,0,1-1.4-2.929.842.842,0,0,0-.489-.886,3.03,3.03,0,0,1-1.53-2.859,21.1,21.1,0,0,0-1-7.29A17.654,17.654,0,0,0,8.1,26.858C3.383,19.5,7.579,9.283,16.462,7.212A13.293,13.293,0,0,1,32.416,18.039a12.385,12.385,0,0,1-1.734,8.725,19.063,19.063,0,0,0-2.964,11.08,3.163,3.163,0,0,1-1.606,3.1c-.306.173-.288.4-.274.655a3.239,3.239,0,0,1-1.783,3.356c-.409.211-.208.6-.211.895a3.176,3.176,0,0,1-1.714,2.98,3.409,3.409,0,0,1-1.645.376c-.357,0-.713,0-1.07,0" fill="#040506"/>
      <path id="Trazado_614399" data-name="Trazado 614399" d="M48.355,28.143c0,.428.031.859-.006,1.283a1.167,1.167,0,0,1-1.915.912q-5.325-3.876-10.615-7.8c-.734-.543-.689-1.322.086-1.977,2.142-1.81,4.3-3.6,6.448-5.4,1.293-1.083,2.594-2.157,3.88-3.249a1.246,1.246,0,0,1,1.426-.324,1.27,1.27,0,0,1,.7,1.294c0,.665.029,1.333-.012,2-.027.442.113.536.547.561a20.733,20.733,0,0,1,9.369,2.55,13.339,13.339,0,0,1,6.88,9.29,12.672,12.672,0,0,1-1.4,8.525,1.154,1.154,0,0,1-1.151.692,1.2,1.2,0,0,1-1.073-.99,12.747,12.747,0,0,0-2.278-4.764,10.88,10.88,0,0,0-6.731-3.772c-1.167-.232-2.355-.281-3.534-.411-.5-.054-.693.067-.626.587a7.906,7.906,0,0,1,.008,1h0" fill="#040506"/>
      <path id="Trazado_614400" data-name="Trazado 614400" d="M11.418,6.44a1.066,1.066,0,0,1-.777,1.068,1.026,1.026,0,0,1-1.264-.39c-.568-.9-1.114-1.817-1.589-2.766a1.012,1.012,0,0,1,.4-1.319.989.989,0,0,1,1.369.037,12.814,12.814,0,0,1,1.861,3.158.577.577,0,0,1,0,.212" fill="#050607"/>
      <path id="Trazado_614401" data-name="Trazado 614401" d="M28.411,7.562a1.1,1.1,0,0,1-1-1.563c.46-.93,1-1.827,1.545-2.707a1.144,1.144,0,0,1,1.962,1.159c-.472.9-1,1.771-1.531,2.637a1.042,1.042,0,0,1-.976.474" fill="#060607"/>
      <path id="Trazado_614402" data-name="Trazado 614402" d="M38.715,11.629a1.076,1.076,0,0,1-.541,1.014c-.813.482-1.626.967-2.459,1.414a1.126,1.126,0,0,1-1.593-.42,1.11,1.11,0,0,1,.459-1.585c.785-.484,1.583-.95,2.4-1.378a1.128,1.128,0,0,1,1.735.955" fill="#050607"/>
      <path id="Trazado_614403" data-name="Trazado 614403" d="M1.253,10.505a1.578,1.578,0,0,1,.64.223c.737.428,1.48.844,2.21,1.284a1.189,1.189,0,0,1,.522,1.632,1.152,1.152,0,0,1-1.658.374q-1.215-.663-2.4-1.384a1.073,1.073,0,0,1-.517-1.287,1.141,1.141,0,0,1,1.2-.842" fill="#060607"/>
      <path id="Trazado_614404" data-name="Trazado 614404" d="M18.226,2.57c0-.5-.033-1,.008-1.492A1.1,1.1,0,0,1,19.33,0a1.113,1.113,0,0,1,1.2,1.059c.047.994.044,1.993,0,2.987a1.14,1.14,0,0,1-1.181,1.087,1.112,1.112,0,0,1-1.108-1.071c-.044-.494-.009-.994-.009-1.492h0" fill="#050607"/>
      <path id="Trazado_614405" data-name="Trazado 614405" d="M43.9,43.542c.135.091.3.193.449.3.809.583,1.628,1.154,2.422,1.758a1.349,1.349,0,0,0,1.647.122,10.194,10.194,0,0,1,2.558-1.054A1.26,1.26,0,0,0,52,43.537c.158-1.079.375-2.149.513-3.23.053-.411.214-.518.589-.5.639.033,1.415-.184,1.883.106.5.309.315,1.17.431,1.79.1.558.188,1.122.27,1.685a1.4,1.4,0,0,0,1.124,1.3,9.513,9.513,0,0,1,2.493,1.03,1.345,1.345,0,0,0,1.647-.1c.832-.632,1.705-1.211,2.529-1.853.346-.27.556-.236.828.073.422.48,1.131.876,1.244,1.409.108.507-.606,1-.947,1.51-.357.532-.736,1.051-1.125,1.561a1.26,1.26,0,0,0-.113,1.465,12.159,12.159,0,0,1,1.075,2.551,1.566,1.566,0,0,0,1.511,1.179c.941.119,1.873.3,2.813.428.437.059.581.254.586.7.022,1.868.037,1.868-1.82,2.2-.677.12-1.353.247-2.031.356a1.14,1.14,0,0,0-.958.846,17.444,17.444,0,0,1-1.188,2.816,1.28,1.28,0,0,0,.129,1.466c.638.858,1.235,1.747,1.89,2.591.287.37.215.579-.088.884-1.339,1.35-1.33,1.36-2.88.246q-.781-.562-1.559-1.129a1.235,1.235,0,0,0-1.464-.081,10.44,10.44,0,0,1-2.621,1.09,1.376,1.376,0,0,0-1.071,1.265c-.151,1.008-.317,2.015-.45,3.025-.057.432-.226.619-.687.583-.615-.048-1.365.18-1.815-.1-.472-.293-.292-1.124-.411-1.717-.135-.674-.245-1.353-.351-2.033a1.145,1.145,0,0,0-.9-.992,12.083,12.083,0,0,1-2.756-1.136,1.244,1.244,0,0,0-1.461.12c-.858.638-1.74,1.244-2.593,1.889a.526.526,0,0,1-.833-.051c-1.427-1.4-1.439-1.386-.275-2.986.364-.5.718-1.006,1.088-1.5a1.236,1.236,0,0,0,.1-1.462,10.462,10.462,0,0,1-1.11-2.688,1.373,1.373,0,0,0-1.308-1.025c-.984-.154-1.965-.327-2.954-.443-.454-.054-.615-.227-.583-.679.044-.615-.172-1.357.1-1.816.295-.49,1.124-.3,1.717-.42.65-.129,1.306-.233,1.961-.335a1.225,1.225,0,0,0,1.072-1A10.429,10.429,0,0,1,44.327,49.8a1.277,1.277,0,0,0-.1-1.523c-.625-.837-1.2-1.713-1.852-2.53-.316-.4-.261-.634.088-.939.375-.328.709-.7,1.065-1.052.1-.1.183-.226.381-.21" fill="#6f6371"/>
      <path id="Trazado_614406" data-name="Trazado 614406" d="M11.789,61.656a9.367,9.367,0,0,1-1.606-7.449c.3.013.3.261.378.4,1.989,3.617,5.171,5.465,9.122,6.183a30.618,30.618,0,0,0,4.673.382c1.112.029,1.491-.364,1.5-1.474,0-.353,0-.707,0-1.226l7.032,5.148-6.737,5.588c-.393-.024-.224-.332-.224-.506,0-1.837-.2-1.623-1.747-1.694a17.766,17.766,0,0,1-10.744-3.695c-.614-.5-1.061-1.142-1.643-1.661" fill="#7bbe9e"/>
      <path id="Trazado_614407" data-name="Trazado 614407" d="M11.789,61.656A10.7,10.7,0,0,1,13.6,63.224a17.331,17.331,0,0,0,8,3.408,15.035,15.035,0,0,0,3.733.293c.565-.038.66.2.668.7.009.526-.179,1.083.147,1.583-.064.127-.168.185-.268.068-.05-.058-.022-.182-.029-.277-.131-1.734-.258-1.854-2.035-1.9a16.823,16.823,0,0,1-9.506-2.869,8.623,8.623,0,0,1-2.52-2.573" fill="#56ab76"/>
      <path id="Trazado_614408" data-name="Trazado 614408" d="M24.411,35.088c-1.823.114-1.823.114-1.823-1.668,0-2.876.014-5.754-.013-8.63-.005-.532.128-.7.67-.675a6.286,6.286,0,0,0,1.915-.078,3.944,3.944,0,0,0-1.235-7.767,3.983,3.983,0,0,0-3.631,3.82c-.008.142-.005.285-.005.428-.006,1.383-.006,1.366-1.4,1.333-.389-.009-.469-.133-.471-.493a7.986,7.986,0,0,0-.124-2.2,3.942,3.942,0,0,0-7.721,1.5,3.922,3.922,0,0,0,3.873,3.472c.541.01,1.253-.233,1.577.1.357.365.109,1.083.111,1.645.013,2.877-.008,5.754.019,8.631,0,.507-.132.655-.63.618-.732-.053-1.642.219-2.154-.126-.489-.33-.27-1.32-.4-2.015A19.457,19.457,0,0,0,10.49,26.37a12.447,12.447,0,0,1-1.98-5.193A10.93,10.93,0,0,1,19.681,9.225a9.564,9.564,0,0,1,4.3,1.053A11.529,11.529,0,0,1,29.2,19.021a11.966,11.966,0,0,1-1.994,7.918A17.526,17.526,0,0,0,24.6,34.565a.777.777,0,0,1-.189.523" fill="#ffd960"/>
      <path id="Trazado_614409" data-name="Trazado 614409" d="M24.411,35.088a16.639,16.639,0,0,1,2.439-7.919,14.384,14.384,0,0,0,2.012-4.6,11.986,11.986,0,0,0-2.069-9.419,19.176,19.176,0,0,0-2.809-2.873,10.534,10.534,0,0,1,6.137,8.1,9.945,9.945,0,0,1-1.459,7.29,19.688,19.688,0,0,0-3.1,9.053c-.025.309-.14.423-.437.4-.236-.02-.474-.021-.711-.03" fill="#ffc44e"/>
      <path id="Trazado_614410" data-name="Trazado 614410" d="M20.288,29.685c0,1.613-.014,3.227.009,4.839.007.44-.078.612-.57.605-1.3-.018-1.3.009-1.3-1.292,0-3.013.011-6.026-.012-9.039,0-.505.082-.7.647-.684,1.225.039,1.226,0,1.226,1.23v4.341" fill="#ffd960"/>
      <path id="Trazado_614411" data-name="Trazado 614411" d="M13.96,38.977a.546.546,0,0,1-.536-.444c-.11-.174-.045-.371-.07-.555-.057-.414.13-.523.526-.522q4.949.02,9.9,0c.5,0,.707.189.7.654,0,.441-.019.917-.629.913-3.3-.017-6.593.073-9.889-.044" fill="#e5e9ed"/>
      <path id="Trazado_614412" data-name="Trazado 614412" d="M22.267,42.931c-1.99.009-3.98.027-5.97.022a1.02,1.02,0,0,1-.95-1.4c.088-.271.287-.2.459-.2q3.234.008,6.467.027a1.4,1.4,0,0,1-.006,1.549" fill="#c6c7cd"/>
      <path id="Trazado_614413" data-name="Trazado 614413" d="M16.138,20.8a2.761,2.761,0,0,0,0,.427c.08.494-.1.689-.611.626-.351-.044-.713,0-1.069-.012a1.62,1.62,0,0,1-1.614-1.642,1.643,1.643,0,0,1,3.286-.041c.013.213,0,.428,0,.642" fill="#ffd960"/>
      <path id="Trazado_614414" data-name="Trazado 614414" d="M23.675,21.836c-1.089,0-1.089,0-1.087-1.07a3.513,3.513,0,0,1,.087-.989,1.66,1.66,0,0,1,1.842-1.212,1.641,1.641,0,0,1,1.36,1.733,1.608,1.608,0,0,1-1.49,1.535c-.236.019-.475,0-.712,0" fill="#ffd960"/>
      <path id="Trazado_614415" data-name="Trazado 614415" d="M19.473,45.245c.449,0,.9-.03,1.347.012.249.023.68-.24.706.3s.049,1.153-.624,1.248a10.049,10.049,0,0,1-2.969-.007c-.657-.1-.56-.722-.558-1.213,0-.544.427-.313.679-.331.471-.032.946-.009,1.419-.009" fill="#a1a2a7"/>
      <path id="Trazado_614416" data-name="Trazado 614416" d="M13.96,38.977c3.186-.012,6.371-.033,9.557-.027.537,0,.759-.136.772-.717s-.2-.711-.741-.707c-3.043.023-6.087.011-9.131.011-.973,0-.973,0-.993,1-.323-1.01-.243-1.138.721-1.137,3.515,0,7.031,0,10.547.024.24,0,.683-.258.717.278.034.516.107,1.1-.577,1.284a3.585,3.585,0,0,1-.917.08q-4.739.008-9.478,0c-.163,0-.335.035-.477-.088" fill="#c1c1c8"/>
      <path id="Trazado_614417" data-name="Trazado 614417" d="M22.267,42.931l.006-1.549a.931.931,0,0,1,.349-.02c.322.113.918-.349.924.45.006.781-.267,1.118-1,1.144a2.222,2.222,0,0,1-.281-.025" fill="#a1a2a6"/>
      <path id="Trazado_614418" data-name="Trazado 614418" d="M46.006,27.155l-5.042-3.693q-1.149-.842-2.3-1.686c-.181-.133-.36-.234-.076-.469,2.424-2.014,4.841-4.037,7.418-6.19,0,.484-.006.8,0,1.113.024,1.061.423,1.445,1.48,1.466a19.414,19.414,0,0,1,10,2.537,10.828,10.828,0,0,1,5.55,8.844,10.469,10.469,0,0,1-.267,2.816c-.159-.014-.194-.138-.245-.238a12.906,12.906,0,0,0-9.663-6.966,26.817,26.817,0,0,0-5.527-.443,1.177,1.177,0,0,0-1.331,1.235c-.032.509-.006,1.023-.006,1.674" fill="#e44d5e"/>
      <path id="Trazado_614419" data-name="Trazado 614419" d="M46.091,55.3a7.783,7.783,0,1,1,7.776,7.778A7.733,7.733,0,0,1,46.091,55.3" fill="#040506"/>
      <path id="Trazado_614420" data-name="Trazado 614420" d="M48.392,55.263A5.473,5.473,0,0,1,53.885,49.8a5.495,5.495,0,1,1-5.493,5.459" fill="#e7ecef"/>
    </g>
  </g>
</svg>
