<svg xmlns="http://www.w3.org/2000/svg" xmlns:xlink="http://www.w3.org/1999/xlink" width="61.397" height="61.417" viewBox="0 0 61.397 61.417">
  <defs>
    <clipPath id="clip-path">
      <rect id="Rectángulo_324969" data-name="Rectángulo 324969" width="61.397" height="61.417" fill="none"/>
    </clipPath>
  </defs>
  <g id="Grupo_876395" data-name="Grupo 876395" transform="translate(0 0)">
    <g id="Grupo_876395-2" data-name="Grupo 876395" transform="translate(0 0)" clip-path="url(#clip-path)">
      <path id="Trazado_614052" data-name="Trazado 614052" d="M27.1,64.645a7.09,7.09,0,0,0-1.906-.236,29.91,29.91,0,0,1-6.842-1.319,7.089,7.089,0,0,1-1.908-.968,2.542,2.542,0,0,1,.22-4.372,9.253,9.253,0,0,1,2.829-.895,7.9,7.9,0,0,0,1.028-.292A.593.593,0,0,0,20.98,56a.643.643,0,0,0-.43-.531,5.057,5.057,0,0,0-1.731-.414,60.7,60.7,0,0,0-6.528-.122,54.515,54.515,0,0,1-8.243-.485A7.144,7.144,0,0,1,1.24,53.5,2.342,2.342,0,0,1,.006,51.273a2.185,2.185,0,0,1,1.4-1.856,11.724,11.724,0,0,1,3.922-.956c2.573-.314,5.176-.346,7.73-.834a4.107,4.107,0,0,0,.463-.111c.334-.1.764-.149.755-.618-.008-.447-.423-.522-.756-.645a10.239,10.239,0,0,0-1.639-.313,7.836,7.836,0,0,1-2.051-.6,2.376,2.376,0,0,1-.284-4.309,10.2,10.2,0,0,1,4.363-1.312,39.184,39.184,0,0,1,5.853-.365c.3,0,.4-.028.338-.391a10.24,10.24,0,0,1,1.213-6.8c1.278-2.272,2.6-4.519,3.893-6.784a.965.965,0,0,1,1.3-.51.9.9,0,0,1,.485,1.365c-.271.578-.636,1.107-.951,1.662-.978,1.718-1.975,3.426-2.96,5.139a8.76,8.76,0,0,0,13.69,10.618,8.632,8.632,0,0,0,1.652-10.413c-2.4-4.351-4.949-8.624-7.44-12.926a.673.673,0,0,0-.3-.348,8.251,8.251,0,0,0-.8,1.285,3.215,3.215,0,0,1-.635.865.813.813,0,0,1-1.161-.015.944.944,0,0,1-.188-1.371c.65-1.094,1.267-2.209,1.912-3.3.5-.842,1.278-.854,1.765-.015,2.862,4.941,5.734,9.877,8.561,14.839a10.54,10.54,0,0,1,1.123,7.108c1.281-.017,2.554.017,3.825.119a21.371,21.371,0,0,1,5.571.962,5.289,5.289,0,0,1,1.418.748,2.33,2.33,0,0,1-.12,3.931,7.326,7.326,0,0,1-3.232.942,4.523,4.523,0,0,0-1.045.228c-.294.111-.547.258-.559.616-.014.39.3.514.575.587a21.672,21.672,0,0,0,3.18.5,54.328,54.328,0,0,1,7.883.961,3.569,3.569,0,0,1,2.638,1.91v1.2a2.235,2.235,0,0,1-1.255,1.632,8.58,8.58,0,0,1-3.53,1.028c-.7.07-1.011-.168-1.232-.843.013-.868.2-1.106,1.017-1.278a11.384,11.384,0,0,0,2.1-.487,2.517,2.517,0,0,0,.635-.332c.248-.2.226-.4-.02-.587a1.778,1.778,0,0,0-.6-.265,15,15,0,0,0-2.823-.5c-2.339-.28-4.7-.328-7.026-.716a6.632,6.632,0,0,1-2.327-.743,2.315,2.315,0,0,1,.137-4.173,5.94,5.94,0,0,1,.932-.409c.84-.252,1.711-.35,2.566-.531.445-.1.978-.177,1.024-.742s-.5-.67-.893-.808a13.772,13.772,0,0,0-3.141-.654,46.72,46.72,0,0,0-5.612-.341c-.447,0-.613.257-.783.6a10.543,10.543,0,0,1-7.3,5.973,10.739,10.739,0,0,1-11.514-4.41,9.488,9.488,0,0,1-.951-1.662.707.707,0,0,0-.725-.5,35.085,35.085,0,0,0-8.2.821,3.629,3.629,0,0,0-1.111.436.556.556,0,0,0,.019,1.038,3.511,3.511,0,0,0,1.322.359,8.909,8.909,0,0,1,2.852.867,2.6,2.6,0,0,1,1.1,1.067,2.185,2.185,0,0,1-.863,3,8.46,8.46,0,0,1-3.2.918c-2.1.283-4.216.355-6.316.606-.774.093-1.543.21-2.3.377a4.039,4.039,0,0,0-.8.255c-.2.091-.436.194-.445.439s.228.36.425.455a7.7,7.7,0,0,0,2.429.616c1.248.152,2.5.224,3.757.3,3.075.185,6.15.029,9.223.114a8.544,8.544,0,0,1,3.328.669A3.009,3.009,0,0,1,22.689,54.9a2.306,2.306,0,0,1-.7,2.991,6.64,6.64,0,0,1-2.6,1.018,6.175,6.175,0,0,0-1.488.443c-.667.347-.7.866-.064,1.276a6.406,6.406,0,0,0,1.744.782,32.1,32.1,0,0,0,6.193,1.035c1.87.149,3.741.266,5.618.232a53.263,53.263,0,0,0,7.511-.59,17.917,17.917,0,0,0,3.981-1.019,2.366,2.366,0,0,0,.946-.609.582.582,0,0,0-.129-1,4.189,4.189,0,0,0-1.515-.527,9.168,9.168,0,0,1-2.051-.631,2.476,2.476,0,0,1-1.656-2.623A2.733,2.733,0,0,1,39.6,53.924a7.4,7.4,0,0,1,3.91-.955c2.634-.05,5.269-.014,7.9-.015a1.168,1.168,0,0,1,1.186.527,1.428,1.428,0,0,1,.153.516c-.176.807-.532,1.1-1.446,1.1-2.378.015-4.756,0-7.134.007a13.237,13.237,0,0,0-2.439.258,2.107,2.107,0,0,0-.783.289c-.368.244-.363.493.021.727A3.14,3.14,0,0,0,42,56.694a9.731,9.731,0,0,1,2.623.816,2.749,2.749,0,0,1,.314,4.845,11.415,11.415,0,0,1-4.174,1.587,27.828,27.828,0,0,1-5.942.644c-.174,0-.36-.057-.523.059h-.359a.156.156,0,0,0-.24,0h-.959c-.223-.127-.466-.032-.7-.062H29.591c-.269.029-.547-.063-.808.062h-.84a.156.156,0,0,0-.24,0Z" transform="translate(0 -3.229)" fill="#040506"/>
      <path id="Trazado_614053" data-name="Trazado 614053" d="M36.517,75.9H39.16c.038.027.05.053.036.079s-.026.039-.039.039H36.52c-.039-.026-.052-.052-.04-.078s.024-.04.037-.04" transform="translate(-7.018 -14.604)" fill="#0f1012"/>
      <path id="Trazado_614054" data-name="Trazado 614054" d="M36.356,75.9c0,.04,0,.078,0,.118H35.64c.208-.225.477-.078.716-.118" transform="translate(-6.857 -14.602)" fill="#1f1f23"/>
      <path id="Trazado_614055" data-name="Trazado 614055" d="M39.8,76.019c0-.04,0-.078,0-.118.2.031.431-.089.6.118Z" transform="translate(-7.657 -14.603)" fill="#1f1f23"/>
      <path id="Trazado_614056" data-name="Trazado 614056" d="M34.3,76.02c.08-.176.16-.148.24,0Z" transform="translate(-6.6 -14.603)" fill="#737076"/>
      <path id="Trazado_614057" data-name="Trazado 614057" d="M41.727,76.02c.08-.147.16-.178.24,0Z" transform="translate(-8.028 -14.603)" fill="#747277"/>
      <path id="Trazado_614058" data-name="Trazado 614058" d="M33.278,22.77c.769.258,1,.174,1.417-.527.384-.649.761-1.3,1.133-1.945.191-.015.208.14.26.229,2.522,4.36,5.079,8.7,7.545,13.093a8.909,8.909,0,1,1-16.6,5.46,8.523,8.523,0,0,1,1.026-5.311c1.271-2.232,2.563-4.452,3.843-6.679.434-.753.4-.965-.214-1.551a17.084,17.084,0,0,0,1.588-2.77" transform="translate(-5.189 -3.906)" fill="#70c7e9"/>
      <path id="Trazado_614059" data-name="Trazado 614059" d="M44.235,14.882a4.873,4.873,0,0,1,.691-2.621q1.84-3.209,3.7-6.408c.508-.874,1.291-.877,1.8,0,1.241,2.133,2.5,4.258,3.692,6.416a5.006,5.006,0,0,1-.411,5.824,4.955,4.955,0,0,1-5.417,1.907,5.16,5.16,0,0,1-4.007-4.334,4.959,4.959,0,0,1-.042-.777" transform="translate(-8.51 -1)" fill="#040506"/>
      <path id="Trazado_614060" data-name="Trazado 614060" d="M33.306,6.967a3.951,3.951,0,0,1-2.518,3.763,3.991,3.991,0,0,1-4.334-.972,3.9,3.9,0,0,1-.65-4.486c.867-1.61,1.8-3.184,2.73-4.758a.9.9,0,0,1,1.637.024q1.377,2.338,2.7,4.706a3.207,3.207,0,0,1,.43,1.723" transform="translate(-4.88 0)" fill="#040506"/>
      <path id="Trazado_614061" data-name="Trazado 614061" d="M39.409,68.03a39.26,39.26,0,0,1-6.55.593,50.567,50.567,0,0,1-11.14-.813A11.37,11.37,0,0,1,18.335,66.7c-.368-.205-.821-.4-.749-.964.067-.526.477-.7.907-.829.82-.239,1.65-.443,2.466-.691A5.006,5.006,0,0,0,22,63.776a2.218,2.218,0,0,0,.031-3.973,7.772,7.772,0,0,0-3.746-.858c-3.252-.14-6.51.061-9.763-.127a24.168,24.168,0,0,1-4.8-.6,5.632,5.632,0,0,1-.942-.363c-.25-.117-.539-.264-.525-.588.013-.3.308-.388.539-.5a7.035,7.035,0,0,1,2.247-.574c2.418-.266,4.842-.483,7.261-.736a9.177,9.177,0,0,0,2.941-.724A2.079,2.079,0,0,0,16.6,52.856a2.168,2.168,0,0,0-1.171-2.009,7.63,7.63,0,0,0-2.884-.9,4.7,4.7,0,0,1-1.493-.395.69.69,0,0,1-.038-1.3,7.65,7.65,0,0,1,2.788-.816,43.415,43.415,0,0,1,6.8-.5.672.672,0,0,1,.734.481,10.424,10.424,0,0,0,8.506,6.335,10.549,10.549,0,0,0,11.023-6.222.856.856,0,0,1,.969-.6,41.476,41.476,0,0,1,5.607.384A1.581,1.581,0,0,1,48.618,49.6a1.733,1.733,0,0,1-.808.737l-.818.34a11.278,11.278,0,0,1-2.2.527,3.738,3.738,0,0,0-1.388.513,1.143,1.143,0,0,0,.178,2.088,6.874,6.874,0,0,0,2.017.521,5.015,5.015,0,0,1,1.152.288,15.962,15.962,0,0,0,5.4,1.085c1.347.136,2.7.255,4.044.382a1.3,1.3,0,0,1,.319,2.324,4.924,4.924,0,0,1-2.505,1.037c-.337.052-.7.251-1.031-.024A.989.989,0,0,0,52,58.88c-2.673.024-5.346.015-8.018.069a8,8,0,0,0-3.956.951,6.166,6.166,0,0,1-1.582.269,5.2,5.2,0,0,0-1.635.557,1.257,1.257,0,0,0,.065,2.206,6.384,6.384,0,0,0,1.651.523,8.5,8.5,0,0,1,1.942.59,1.937,1.937,0,0,1,1.32,1.942,2.2,2.2,0,0,1-1.634,1.81c-.237.094-.493.149-.738.233" transform="translate(-0.434 -9.03)" fill="#b0def2"/>
      <path id="Trazado_614062" data-name="Trazado 614062" d="M47.458,71.118c.431-.285.942-.409,1.366-.719a1.7,1.7,0,0,0-.218-3.069A7.678,7.678,0,0,0,46.56,66.7a7.364,7.364,0,0,1-1.759-.553,1.225,1.225,0,0,1-.714-1.206,1.277,1.277,0,0,1,.69-1.282,6.507,6.507,0,0,1,3.293-.675,2.93,2.93,0,0,0-.9,1.3,2.144,2.144,0,0,0,.935,2.443,7.563,7.563,0,0,0,2.5.923c.443.112.888.218,1.319.368.4.14.775.336.813.846s-.348.7-.678.895a10.713,10.713,0,0,1-3.252,1.125c-.444.1-.9.153-1.349.228" transform="translate(-8.482 -12.119)" fill="#94d4ee"/>
      <path id="Trazado_614063" data-name="Trazado 614063" d="M56.375,55.5a10.008,10.008,0,0,1-3.243-.655,1.189,1.189,0,0,1-.859-.975,1.42,1.42,0,0,1,.633-1.384,7.2,7.2,0,0,1,2.772-.8,2.174,2.174,0,0,1,.937-.128,3.137,3.137,0,0,0-1.127,1.266c-.419,1.063-.2,1.772.888,2.671" transform="translate(-10.056 -9.916)" fill="#94d4ee"/>
      <path id="Trazado_614064" data-name="Trazado 614064" d="M65.065,61.593a7.068,7.068,0,0,0,3.059-.826,1.377,1.377,0,0,0,.158-2.511,10.614,10.614,0,0,1,3.247.677c.25.1.577.2.565.533-.01.3-.295.45-.546.579a9.114,9.114,0,0,1-2.576.689c-.779.145-.913.29-.956,1.089-.955-.053-1.9.128-2.854.135l-.1-.364" transform="translate(-12.519 -11.209)" fill="#94d3ee"/>
      <path id="Trazado_614065" data-name="Trazado 614065" d="M58.576,50.425c.163-.245.452-.363.6-.635a1.49,1.49,0,0,0-.57-2.133c-.13-.085-.263-.166-.395-.248a11.649,11.649,0,0,1,3.532.783c.352.14.713.328.7.792-.01.491-.394.7-.779.787-1.022.246-2.058.439-3.088.653" transform="translate(-11.199 -9.122)" fill="#94d3ee"/>
      <path id="Trazado_614066" data-name="Trazado 614066" d="M38.11,49.827c-.059,0-.22.01-.378,0a.88.88,0,0,1-.146-1.73c.387-.082.795-.06,1.183-.136a5.219,5.219,0,0,0,3.507-2.37c.409-.627.9-.8,1.383-.507s.537.861.119,1.517a7.034,7.034,0,0,1-5.668,3.226" transform="translate(-7.104 -8.648)" fill="#040506"/>
      <path id="Trazado_614067" data-name="Trazado 614067" d="M49.947,8.549c1.077,1.873,2.122,3.612,3.087,5.393a3.427,3.427,0,0,1-.879,4.264,3.537,3.537,0,0,1-4.326.063,3.375,3.375,0,0,1-1.018-4.176c.967-1.845,2.046-3.63,3.135-5.544" transform="translate(-8.94 -1.645)" fill="#b0def2"/>
      <path id="Trazado_614068" data-name="Trazado 614068" d="M29.8,3.409c.649,1.126,1.272,2.164,1.853,3.225a2.1,2.1,0,0,1-.529,2.739,2.2,2.2,0,0,1-2.656.023,2.119,2.119,0,0,1-.571-2.732c.55-1.012,1.148-2,1.725-2.995.037-.065.084-.124.178-.26" transform="translate(-5.314 -0.656)" fill="#70c7e9"/>
    </g>
  </g>
</svg>
