<svg xmlns="http://www.w3.org/2000/svg" xmlns:xlink="http://www.w3.org/1999/xlink" width="61.397" height="52.234" viewBox="0 0 61.397 52.234">
  <defs>
    <clipPath id="clip-path">
      <rect id="Rectángulo_324971" data-name="Rectángulo 324971" width="61.397" height="52.234" fill="none"/>
    </clipPath>
  </defs>
  <g id="Grupo_876399" data-name="Grupo 876399" transform="translate(0 0)">
    <g id="Grupo_876398" data-name="Grupo 876398" transform="translate(0 0.001)" clip-path="url(#clip-path)">
      <path id="Trazado_614095" data-name="Trazado 614095" d="M0,13.046a3.214,3.214,0,0,1,1.118-1.158c.154-.08.21-.369.287-.572q1.76-4.646,3.513-9.3A2.721,2.721,0,0,1,7.817.008c2.915,0,5.83,0,8.745,0,.565,0,1.031.123,1.223.727.13.734-.095,1.089-.8,1.266a4.144,4.144,0,0,1-1.009.083c-1.911,0-3.822,0-5.733,0-.776,0-.822.046-.822.8,0,1.135-.01,2.269-.013,3.4.021.359,0,.718.005,1.078.019.695.117.807.8.818,1.1.018,2.2-.018,3.295.015A1.121,1.121,0,0,1,14.77,9.341c-.2.715-.5.974-1.213.986-1.332.021-2.664.008-4,.005a2.518,2.518,0,0,1-.756-.148A2.827,2.827,0,0,1,7.152,7.257c-.027-1.417,0-2.835-.011-4.251a.978.978,0,0,0-.1-.659,1.347,1.347,0,0,0-.374.662c-1,2.61-1.979,5.227-2.97,7.839-.242.637-.19.708.518.709,2.375,0,4.75-.007,7.126.005.938.005,1.25.219,1.508.966-.032.876-.335,1.173-1.284,1.179-2.515.016-5.028,0-7.543.005-.419,0-.838-.006-1.258,0a.762.762,0,0,0-.74,1.161.4.4,0,0,0,.374.244,4.6,4.6,0,0,0,.6.018h7.9a6.949,6.949,0,0,1,.778.021,1.141,1.141,0,0,1,1.164,1.349c-.178.685-.707.8-1.3.8q-3.566.006-7.133,0c-1.3,0-1.324,0-1.229,1.3.192,2.628.442,5.251.678,7.875.217,2.426.418,4.853.636,7.279.151,1.67.287,3.341.439,5.012a2.147,2.147,0,0,1-.029.832.923.923,0,0,1-1.19.651,1.1,1.1,0,0,1-.753-1.028c-.17-2.124-.371-4.246-.561-6.369q-.336-3.78-.671-7.559-.267-3.036-.526-6.072c-.053-.616-.1-1.232-.147-1.847a.669.669,0,0,0-.327-.591A2.417,2.417,0,0,1,0,15.8Z" transform="translate(0 -0.001)" fill="#040506"/>
      <path id="Trazado_614096" data-name="Trazado 614096" d="M46.592,51.283a3.772,3.772,0,0,1-2.682.947q-8.829-.017-17.656,0a3.8,3.8,0,0,1-2.686-.934c-.645-.323-.787-.961-.976-1.567s-.1-1.27-.245-1.893c-.264-3.5-.6-7-.905-10.491-.3-3.378-.591-6.756-.9-10.132-.259-2.8-.477-5.6-.737-8.4a2.847,2.847,0,0,0-.909-2.537,5.125,5.125,0,0,1-.034-3.514,1.1,1.1,0,0,1,.348-.473c.79-.448.963-1.265,1.25-2.015a9.628,9.628,0,0,0,.376-.984c.793-2.1,1.592-4.2,2.379-6.3.183-.456.345-.921.526-1.377a1.186,1.186,0,0,1,.549-.669A3.043,3.043,0,0,1,26.7,0c1.035.021,2.071,0,3.105.008.691.008.947.237,1.1.92.207.538-.146.772-.542.963a3.451,3.451,0,0,1-1.473.185c-.634.014-.7.066-.7.681,0,1.438-.015,2.876,0,4.315.015.159.011.319.012.478,0,.424.228.611.636.62.139,0,.279.01.419.01q5.833,0,11.665,0c.984,0,1.039-.061,1.045-1.056.008-1.376-.018-2.752.012-4.128-.04-.915-.04-.918-.955-.918q-3.192,0-6.383,0a2.583,2.583,0,0,1-1.17-.172c-.4-.194-.713-.452-.566-.97.183-.714.432-.925,1.166-.927Q38.881,0,43.7.005a2.927,2.927,0,0,1,2.178.943,1.574,1.574,0,0,1,.663,1c.12.351.275.689.4,1.039q1.19,3.147,2.386,6.291c.135.326.227.669.368.993.29.749.455,1.569,1.249,2.015a1.131,1.131,0,0,1,.35.474,5.125,5.125,0,0,1-.028,3.511,2.889,2.889,0,0,0-.913,2.531c-.287,3.179-.549,6.359-.838,9.538-.268,2.939-.523,5.88-.787,8.82q-.4,4.439-.767,8.882-.076.9-.15,1.789c-.155.62-.05,1.274-.245,1.888s-.32,1.247-.968,1.569" transform="translate(-4.38 0)" fill="#040506"/>
      <path id="Trazado_614097" data-name="Trazado 614097" d="M56.617,53.641c.184-2.265.361-4.53.553-6.794.215-2.523.445-5.044.668-7.567q.4-4.5.795-9c.176-1.965.361-3.93.541-5.9a1.046,1.046,0,0,1,.791-.189q5.5-.007,10.994,0a1.768,1.768,0,0,1,.705.091c.325.223.246.553.21.861-.076.667-.1,1.338-.188,2a1.554,1.554,0,0,0,.795,1.792q-.074,1.011-.148,2.022c-1.077.251-1.059,1.11-1.138,1.961-.275,2.942-.517,5.887-.783,8.83-.225,2.505-.431,5.013-.651,7.519-.109,1.253-.189,2.509-.345,3.758a1.1,1.1,0,0,1-.163.569,1.066,1.066,0,0,1-.839.233q-5.535.01-11.069,0a.9.9,0,0,1-.727-.2" transform="translate(-13.357 -5.709)" fill="#ffed77"/>
      <path id="Trazado_614098" data-name="Trazado 614098" d="M15.56,21.236a2.439,2.439,0,0,1,.9,2.414,1.081,1.081,0,0,1-.8.176c-1.1.006-2.2.022-3.294,0A3.084,3.084,0,0,0,9.207,27c.1,1.833.279,3.658.433,5.486q.264,3.129.543,6.258.265,2.979.526,5.959c.144,1.609.288,3.218.419,4.827.036.438.073.875.138,1.309a2.019,2.019,0,0,0,2.157,1.887c1.577.012,3.154,0,4.731.005a1.329,1.329,0,0,1,.864.166,1.446,1.446,0,0,1,.095.7,4,4,0,0,0,.964,2.67c-.568,0-1.138.011-1.705,0a.584.584,0,0,0-.556.242c-.319-.993-1.11-1.032-1.969-1.025-2.531.021-5.064.01-7.595.006-1.3,0-1.776-.455-1.915-1.763-.179-1.684-.306-3.373-.449-5.06-.057-.669-.2-1.179-.968-1.268a.313.313,0,0,1-.193-.132A9.951,9.951,0,0,0,4.6,45.223c.915-.146,1.138-.456,1.054-1.38-.32-3.577-.627-7.154-.944-10.731-.3-3.418-.6-6.836-.933-10.252-.053-.549.02-.753.649-.744,2.655.039,5.312.01,7.968.022.541,0,.99-.1,1.216-.65.055-.2.158-.371.388-.384a2.717,2.717,0,0,1,1.559.132" transform="translate(-0.889 -4.968)" fill="#d8eff9"/>
      <path id="Trazado_614099" data-name="Trazado 614099" d="M72.563,23.238c-.884-.183-1.061-.418-.993-1.3q.125-1.63.245-3.26a.883.883,0,0,1-.1-.687c.044-.587-.018-.672-.6-.679-1.433-.016-2.868,0-4.3-.006-1.235,0-2.47.024-3.7-.012-.8-.024-1.086-.335-1.14-1.143a1.141,1.141,0,0,1,1.116-.986,6.124,6.124,0,0,1,.837-.029c2.716,0,5.432,0,8.147,0,.712,0,.793-.111.778-.8-.009-.423-.18-.622-.608-.623-.7,0-1.4,0-2.1,0-2.3,0-4.593.009-6.889-.006-.8,0-1.02-.165-1.273-.828.017-.873.377-1.27,1.271-1.312,1.017-.048,2.036-.014,3.055-.016,1.418,0,2.835,0,4.254,0,.768,0,.8-.053.531-.783-.049-.131-.1-.259-.145-.392-.024-.061-.045-.124-.067-.185C70,7.8,69.075,5.435,68.187,3.054A1.853,1.853,0,0,0,67.6,2.17c-.077,2.084-.013,4.043-.04,6a2.406,2.406,0,0,1-1.686,2.053,2.373,2.373,0,0,1-.941.111c-1.232,0-2.466.012-3.7-.005-.72-.01-1.022-.28-1.184-1A1.142,1.142,0,0,1,61.323,8.2c1.018-.033,2.036-.005,3.055-.011.959-.006,1.029-.074,1.035-1.012.008-1.4-.013-2.8.009-4.193-.04-.9-.04-.9-.97-.9q-2.921,0-5.842,0a2.455,2.455,0,0,1-1-.138c-.439-.191-.732-.48-.621-1.012.245-.747.469-.918,1.251-.919q4.4,0,8.808,0A2.718,2.718,0,0,1,69.907,2q1.782,4.706,3.558,9.413a1.252,1.252,0,0,0,.528.675,1.724,1.724,0,0,1,.837,1.556c-.008.48-.021.96,0,1.438a1.858,1.858,0,0,1-.808,1.758.653.653,0,0,0-.255.568c-.134,1.53-.278,3.06-.377,4.593a1.211,1.211,0,0,1-.831,1.238" transform="translate(-13.44 -0.002)" fill="#040506"/>
      <path id="Trazado_614100" data-name="Trazado 614100" d="M69.544,55.631q.5-5.751,1.006-11.5c.287-3.279.567-6.558.866-9.835.1-1.065.326-1.261,1.265-1.233a1.125,1.125,0,0,1,.591,1.25C72.945,37.9,72.637,41.5,72.32,45.1c-.356,4.032-.706,8.066-1.075,12.1a3.161,3.161,0,0,1-3.189,2.822c-2.935.034-5.87.015-8.805.007-.691,0-.94-.226-1.112-.918-.158-.548.172-.818.6-1.013a2.488,2.488,0,0,1,1.062-.133q3.893,0,7.787,0c1.284,0,1.591-.274,1.7-1.54a2.192,2.192,0,0,1,.264-.785" transform="translate(-13.706 -7.799)" fill="#050506"/>
      <path id="Trazado_614101" data-name="Trazado 614101" d="M4.864,55.348c.941-.093,1.248.194,1.322,1.144q.221,2.831.488,5.657c.079.851.638,1.284,1.63,1.286,2.692.006,5.384,0,8.076,0,.14,0,.28,0,.419,0,.861.018,1.123.281,1.154,1.152a1.056,1.056,0,0,1-1.13.692c-2.891,0-5.783.013-8.674-.008A3.2,3.2,0,0,1,4.857,62.12c-.147-1.887-.316-3.771-.5-5.653a1.062,1.062,0,0,1,.5-1.119" transform="translate(-1.027 -13.054)" fill="#050607"/>
      <path id="Trazado_614102" data-name="Trazado 614102" d="M68.871,62.6c-.031.416-.047.833-.094,1.246-.1.86-.633,1.3-1.615,1.3-2.826.006-5.65,0-8.476,0-.8,0-1.035.19-1.222.925l-2.22-.021A4,4,0,0,0,56.2,63.4a1.438,1.438,0,0,1,.1-.694q6.032,0,12.063.01a.875.875,0,0,0,.515-.111" transform="translate(-13.034 -14.769)" fill="#ffe543"/>
      <path id="Trazado_614103" data-name="Trazado 614103" d="M35.809,1.221c.228.742.45.916,1.248.918,2.395.005,4.789,0,7.183,0,.827,0,.828,0,.818.82,0,.1-.013.2-.02.3a1.238,1.238,0,0,1-.915.174q-4.755.008-9.51,0a7.638,7.638,0,0,0-.9.037,1.748,1.748,0,0,0-1.557,1.21c-.249.672-.494,1.348-.764,2.013-.1.243-.125.562-.467.636-.007-1.609-.008-3.218-.026-4.827,0-.293.1-.378.381-.368.476.017.954.01,1.43,0a.973.973,0,0,0,1.1-.923l2,.005" transform="translate(-7.291 -0.287)" fill="#95b71f"/>
      <path id="Trazado_614104" data-name="Trazado 614104" d="M22.742,1.163a17.364,17.364,0,0,0-.949,2.046,1.305,1.305,0,0,1-.863.162c-1.933,0-3.866,0-5.8,0a1.9,1.9,0,0,0-2.191,1.518c-.154.41-.319.817-.488,1.221-.078.187-.1.449-.4.449-.011-1.391-.017-2.783-.04-4.174-.006-.4.27-.313.488-.313,2.308,0,4.617,0,6.925,0,.88,0,1.132-.249,1.191-1.114.192.289.489.2.754.2.456.009.912,0,1.368.006" transform="translate(-2.835 -0.226)" fill="#8ed1ed"/>
      <path id="Trazado_614105" data-name="Trazado 614105" d="M56.362,1.212c.248.769.462.928,1.3.93,2.193,0,4.385,0,6.578,0,.861,0,.741-.151.754.757a3.508,3.508,0,0,1-.028.356,1.083,1.083,0,0,1-.793.19q-4.064.007-8.13,0a1.164,1.164,0,0,1-.8-.187,17.987,17.987,0,0,0-.938-2.029l2.056-.022" transform="translate(-12.812 -0.286)" fill="#fccf00"/>
      <path id="Trazado_614106" data-name="Trazado 614106" d="M12.058,7.255c.27-.658.561-1.309.806-1.976a1.881,1.881,0,0,1,1.929-1.386q3.5,0,7,.009-1.111,3.209-2.4,6.349a2.265,2.265,0,0,1-1.91-.006c-.129-.725-.39-.954-1.111-.957-1.176,0-2.353,0-3.529,0-.724,0-.82-.1-.821-.838,0-.4.021-.8.034-1.193" transform="translate(-2.837 -0.919)" fill="#bee4f7"/>
      <path id="Trazado_614107" data-name="Trazado 614107" d="M17.206,10.879a3.724,3.724,0,0,1-1.542,2.405,2.588,2.588,0,0,1-1.6.122c-.21-.019-.274-.194-.325-.368a1.091,1.091,0,0,0-1.192-.694c-2.6.008-5.194-.011-7.791.016-.532.006-.533-.144-.374-.561C5.479,8.943,6.556,6.08,7.639,3.218a1.95,1.95,0,0,1,.175-.377c.108-.163.236-.384.45-.325s.108.308.11.468c.008,1.678.034,3.357,0,5.035a2.612,2.612,0,0,0,1.431,2.6.687.687,0,0,0,.6.2c1.473,0,2.947.035,4.418-.015.572-.019,1.142-.137,1.721-.108a.89.89,0,0,1,.67.183" transform="translate(-1.013 -0.592)" fill="#d8eff9"/>
      <path id="Trazado_614108" data-name="Trazado 614108" d="M13.28,16.291c.195.319.511.231.8.236.375.007.75.007,1.125.009a5.888,5.888,0,0,0,.021,3.575c-.459,0-.919.022-1.378.009a.606.606,0,0,0-.569.242c-.024-.9-.293-1.162-1.2-1.163-3.058,0-6.115-.011-9.172.009-.441,0-.575-.095-.565-.555.029-1.245.005-1.245,1.253-1.245q4.257,0,8.513,0c.892,0,1.138-.245,1.177-1.116" transform="translate(-0.551 -3.844)" fill="#bee3f6"/>
      <path id="Trazado_614109" data-name="Trazado 614109" d="M18.891,13.167q-3.366,0-6.733,0c-.25,0-.517.053-.721-.16-.008-.008,0-.038.006-.053a.2.2,0,0,1,.042-.042,32.194,32.194,0,0,0,5.056.119c.468.008.721-.365.8-.822l1.909.006a2.83,2.83,0,0,1-.364.955" transform="translate(-2.698 -2.88)" fill="#edf4fa"/>
      <path id="Trazado_614110" data-name="Trazado 614110" d="M50.874,24.765c-.18,2.225-.353,4.45-.541,6.674-.176,2.085-.366,4.17-.551,6.254q-.336,3.781-.672,7.564c-.179,2.045-.341,4.092-.533,6.136a16.083,16.083,0,0,1-.238,2.256,1.09,1.09,0,0,1-.8.185q-6.677,0-13.355,0a2.509,2.509,0,0,1-2.567-2.4c-.251-2.6-.434-5.209-.7-7.809a1.43,1.43,0,0,1,.047-.65c.156-.287.366-.175.554-.056a3.746,3.746,0,0,0,2.121.5q1.615-.015,3.23,0c.69.008.713.045.544.686a.713.713,0,0,0,.2.817.691.691,0,0,0,.889-.015,9.729,9.729,0,0,0,1.785-1.922.666.666,0,0,0-.095-.882c-.5-.566-1.053-1.088-1.562-1.65a.671.671,0,0,0-.918-.158.761.761,0,0,0-.293.947c.174.633.147.681-.5.689-1.2.015-2.392.018-3.589,0-1.144-.016-1.539-.659-1.045-1.681.19-.394.256-.777-.121-1.083s-.7-.142-1.015.138c-.125.112-.241.288-.459.175a2.973,2.973,0,0,1-.247-1.4c-.287-3.26-.6-6.518-.859-9.779a3.53,3.53,0,0,1,3.8-4.1q8.206,0,16.413,0a4.5,4.5,0,0,1,.717.028c.306.049.484.188.352.53" transform="translate(-6.977 -5.711)" fill="#b8ca55"/>
      <path id="Trazado_614111" data-name="Trazado 614111" d="M49.24,24.349c.012-.329-.18-.387-.461-.379-.519.015-1.038,0-1.557,0-5.19,0-10.381.041-15.57-.02a3.506,3.506,0,0,0-3.512,4.235c.168,1.136.236,2.287.342,3.432.157,1.7.323,3.4.457,5.1.062.789.1,1.579.232,2.359.139.186,0,.347-.066.5a2.34,2.34,0,0,0,.221,2.336c.095.147.232.287.14.489-.048,1.217.2,2.414.253,3.626.045,1.128.216,2.251.32,3.377.055.593.069,1.191.132,1.783a2.318,2.318,0,0,0,2.271,2.048q7.131,0,14.263,0c.054,2.161-.5,2.475-2.385,2.46-5.672-.044-11.344-.015-17.017-.016-1.443,0-1.845-.435-1.946-1.874-.147-2.107-.364-4.21-.549-6.315-.176-2.006-.345-4.012-.521-6.019-.184-2.105-.376-4.209-.56-6.314q-.264-3.01-.519-6.019c-.176-2.046-.326-4.1-.547-6.136-.055-.51.095-.559.519-.557,3.216.012,6.431.006,9.646.006q7.969,0,15.938-.008c.51,0,.808.045.618.672-.12.4.04.838-.143,1.237" transform="translate(-5.344 -5.294)" fill="#a1bc1c"/>
      <path id="Trazado_614112" data-name="Trazado 614112" d="M20.647,53.7c-1.976,0-3.952.016-5.927.008a2.194,2.194,0,0,1-1.991-1.837c-.123-.862-.177-1.734-.259-2.6-.161-1.7-.25-3.4-.458-5.09-.138-1.12-.166-2.254-.264-3.38-.143-1.618-.325-3.231-.451-4.85-.073-.949-.184-1.9-.243-2.843-.115-1.841-.4-3.671-.385-5.521a3.164,3.164,0,0,1,3.111-3.13c1.437-.005,2.874,0,4.311,0,.2,2.223.415,4.445.614,6.668q.4,4.466.791,8.935c.217,2.463.437,4.924.645,7.387.177,2.085.339,4.171.508,6.256" transform="translate(-2.517 -5.768)" fill="#eef5fb"/>
      <path id="Trazado_614113" data-name="Trazado 614113" d="M30.93,7.964c.345-.867.74-1.718,1.023-2.606a1.957,1.957,0,0,1,2.175-1.465c3.637-.01,7.273,0,10.91,0,.007,1.577.01,3.154.023,4.732,0,.489-.232.668-.7.667q-6.38-.009-12.76,0c-.471,0-.721-.174-.692-.668.013-.219.015-.439.023-.658" transform="translate(-7.291 -0.918)" fill="#a1bc1c"/>
      <path id="Trazado_614114" data-name="Trazado 614114" d="M48.615,10.864a9.013,9.013,0,0,1,.58,1.454H23.063c.529-1.4,1.044-2.766,1.561-4.132q.949-2.5,1.9-5.007a2.073,2.073,0,0,1,.2-.43c.1-.148.249-.306.439-.242s.092.279.093.421c.008,1.676.054,3.356-.01,5.03a2.544,2.544,0,0,0,1.827,2.789c.175.149.382.066.572.066,3.647.005,7.293,0,10.94.007,2.39.008,4.775-.195,7.167-.113a1.329,1.329,0,0,1,.863.157" transform="translate(-5.441 -0.588)" fill="#a1bc1c"/>
      <path id="Trazado_614115" data-name="Trazado 614115" d="M35.766,17.746c4.593,0,9.186.008,13.779-.011.5,0,.645.144.633.639-.028,1.163,0,1.164-1.161,1.164q-13.539,0-27.078.013c-.573,0-.753-.13-.726-.718.05-1.085.013-1.087,1.075-1.087H35.766" transform="translate(-5.004 -4.184)" fill="#b8c955"/>
      <path id="Trazado_614116" data-name="Trazado 614116" d="M55.533,3.895l9.72,0q.015,2.391.031,4.781c0,.468-.252.62-.683.617-1.215-.008-2.431-.005-3.646,0-.73,0-.986.225-1.115.951a2.214,2.214,0,0,1-1.906.01q-1.289-3.143-2.4-6.353" transform="translate(-13.101 -0.918)" fill="#ffe300"/>
      <path id="Trazado_614117" data-name="Trazado 614117" d="M63.074,16.65c.147.669.633.782,1.223.781,3.014-.008,6.029.011,9.042-.016.542,0,.714.126.69.685-.046,1.106-.013,1.108-1.139,1.108-2.874,0-5.749,0-8.623,0-.6,0-1.061.165-1.2.824a1.877,1.877,0,0,1-1.924.092,5.911,5.911,0,0,0,.018-3.57,1.881,1.881,0,0,1,1.909.1" transform="translate(-14.426 -3.855)" fill="#ffed77"/>
      <path id="Trazado_614118" data-name="Trazado 614118" d="M60.865,21.258a6.138,6.138,0,0,0,1.924-.092c.109.791.338.993,1.191.994,2.675,0,5.349.02,8.024-.013.574-.007.743.161.631.7-.057.272-.079.552-.117.829H59.96a2.438,2.438,0,0,1,.9-2.415" transform="translate(-14.144 -4.994)" fill="#ffe543"/>
      <path id="Trazado_614119" data-name="Trazado 614119" d="M62.6,15.9a6.283,6.283,0,0,0-1.909-.1,4,4,0,0,1-1.561-2.4,2.809,2.809,0,0,1,1.861-.142c.275.028.55.069.828.076,2.975.078,5.945-.18,8.921-.112a3.817,3.817,0,0,1,.776.042l.656,1.595H70.226c-2.156,0-4.313,0-6.47,0-.8,0-1.073.255-1.158,1.039" transform="translate(-13.949 -3.108)" fill="#ffe544"/>
      <path id="Trazado_614120" data-name="Trazado 614120" d="M52.149,3.848Q53.558,7.289,54.78,10.8c.119.42-.217.287-.384.289-1.365.011-2.73.015-4.095,0-.18,0-.442.158-.552-.151a2.489,2.489,0,0,0,1.565-2.552c-.034-1.51,0-3.021.011-4.532a.6.6,0,0,1,.824,0" transform="translate(-11.737 -0.87)" fill="#b8ca55"/>
      <path id="Trazado_614121" data-name="Trazado 614121" d="M71.407,13.037c-.194.211-.449.122-.678.122q-5.854.014-11.709.014a3.639,3.639,0,0,1-.345-.965l1.906-.01a.947.947,0,0,0,1.076.857c1.255-.032,2.512-.019,3.768,0a8.4,8.4,0,0,0,.936-.118c1.453-.153,2.91-.05,4.364-.074a.972.972,0,0,1,.68.179Z" transform="translate(-13.843 -2.878)" fill="#ffed77"/>
      <path id="Trazado_614122" data-name="Trazado 614122" d="M45.3,13.131c.147.15.335.1.509.1,1.333,0,2.666.005,4,0,.2,0,.464.1.523-.233a.386.386,0,0,1,.13.346q-9.626.006-19.253.01a2.461,2.461,0,0,1-.289-.028c-.009,0-.023-.031-.022-.046a.168.168,0,0,1,.024-.054q6.809,0,13.618,0a5.884,5.884,0,0,0,.762-.1" transform="translate(-7.29 -3.066)" fill="#b5c84d"/>
      <path id="Trazado_614123" data-name="Trazado 614123" d="M52.623,3.568l-.824,0a5.294,5.294,0,0,1-.016-.592c.012-.162-.108-.411.1-.468.23-.064.4.132.5.338a1.8,1.8,0,0,1,.248.719" transform="translate(-12.211 -0.59)" fill="#9eb91c"/>
      <path id="Trazado_614124" data-name="Trazado 614124" d="M73.777,11.035q-2.269,0-4.539,0c-.173,0-.364.05-.5-.109A2.512,2.512,0,0,0,70.2,9.111c.081-1.583.01-3.167.039-4.751,0-.219-.105-.5.209-.613a.52.52,0,0,1,.673.213c.917,2.346,1.84,4.691,2.658,7.075" transform="translate(-16.216 -0.874)" fill="#ffed77"/>
      <path id="Trazado_614125" data-name="Trazado 614125" d="M71.567,3.675c-.763-.245-.818-.206-.818.585,0,1.312,0,2.625,0,3.937,0,.211.07.441-.1.628,0-1.947.006-3.894.018-5.84,0-.164-.108-.414.1-.478.24-.074.4.148.5.342a8.672,8.672,0,0,1,.309.825" transform="translate(-16.665 -0.589)" fill="#f2d53d"/>
      <path id="Trazado_614126" data-name="Trazado 614126" d="M31.344,47.331a2.7,2.7,0,0,1-.295-3.323c.183-.2.3-.473.579-.587a.872.872,0,0,1,.95.144.855.855,0,0,1,.255.977,2.506,2.506,0,0,1-.228.418c-.4.715-.105,1.286.722,1.3,1.453.024,2.908.007,4.362.007,0-.066.015-.113,0-.141-.394-.64-.379-1.093.052-1.43s.876-.254,1.4.3c.455.477.914.95,1.364,1.431a.919.919,0,0,1,.02,1.42c-.457.5-.927.993-1.4,1.48-.494.509-1.007.6-1.417.27s-.406-.827.039-1.524H33.313a3.079,3.079,0,0,1-1.969-.74" transform="translate(-7.221 -10.226)" fill="#040506"/>
      <path id="Trazado_614127" data-name="Trazado 614127" d="M34.206,37.138c.646-1.036,1.258-1.99,1.844-2.96a2.623,2.623,0,0,1,2.661-1.446,2.883,2.883,0,0,1,2.311,1.932.811.811,0,0,1-.352,1.138.847.847,0,0,1-1.168-.249c-.168-.221-.29-.478-.46-.7a.759.759,0,0,0-1.3.037c-.691,1.07-1.352,2.157-2.032,3.247.929.053,1.327.32,1.352.891s-.355.881-1.289,1.037c-.549.092-1.1.2-1.642.3a.912.912,0,0,1-1.219-.714q-.309-1.151-.561-2.317a.9.9,0,0,1,.666-1.057c.482-.142.861.112,1.188.855" transform="translate(-7.627 -7.719)" fill="#040506"/>
      <path id="Trazado_614128" data-name="Trazado 614128" d="M44.351,40.676c-.392.725-.778.961-1.238.786a.822.822,0,0,1-.6-.973c.169-.855.354-1.709.588-2.548a.825.825,0,0,1,1.04-.578c.724.128,1.443.277,2.162.428.642.134.94.471.893.985-.045.5-.407.779-1.057.823-.076.005-.152.018-.295.037.641,1.049,1.274,2.055,1.875,3.078a2.526,2.526,0,0,1-.543,3.336,2.566,2.566,0,0,1-1.53.592.883.883,0,0,1-.97-.775.837.837,0,0,1,.772-1c.887-.192,1.09-.641.621-1.41-.555-.914-1.122-1.822-1.712-2.777" transform="translate(-10.024 -8.81)" fill="#040506"/>
    </g>
  </g>
</svg>
