<svg xmlns="http://www.w3.org/2000/svg" xmlns:xlink="http://www.w3.org/1999/xlink" width="57.846" height="57.817" viewBox="0 0 57.846 57.817">
  <defs>
    <clipPath id="clip-path">
      <rect id="Rectángulo_324968" data-name="Rectángulo 324968" width="57.846" height="57.817" fill="none"/>
    </clipPath>
  </defs>
  <g id="Grupo_876394" data-name="Grupo 876394" transform="translate(0 0)">
    <g id="Grupo_876393" data-name="Grupo 876393" transform="translate(0 0)" clip-path="url(#clip-path)">
      <path id="Trazado_613994" data-name="Trazado 613994" d="M57.8,42.473q0,.956,0,1.913a.859.859,0,0,1-.679.171c-2.865,0-5.731,0-8.6.006a1.722,1.722,0,0,1-1.37-.605,1.684,1.684,0,0,0-2.511-.136,2.173,2.173,0,0,1-1.695.748c-.442-.032-.373.3-.368.581a3.05,3.05,0,1,1-6.092.143c0-.729,0-.732-.707-.733-2.465,0-4.931-.017-7.395.007A2.958,2.958,0,0,1,25.6,43.126a.964.964,0,0,0-.84-.492A3,3,0,0,1,23.037,42a1.645,1.645,0,0,0-1.068-.327c-.7.01-.875.11-1.109.774a2.94,2.94,0,0,1-1.648,1.881,3.248,3.248,0,0,1-1.29.233q-2.616-.006-5.231,0a.883.883,0,0,0-.607.09,4.245,4.245,0,0,1,.681,2.193,3.582,3.582,0,0,1-2.674,3.381A3.544,3.544,0,0,1,6.17,48.572,3.492,3.492,0,0,1,6.648,44.4a4.281,4.281,0,0,1,.585-.517c.272-.2.424-.439.233-.769a.706.706,0,0,0-.858-.379,1.629,1.629,0,0,0-.275.119c-.92.438-1.27.365-1.932-.4a1.665,1.665,0,0,0-2.082-.593.957.957,0,0,1-1.3-.328c-.152-.16-.271-.347-.41-.516-.259-.316-.306-.6.084-.85.3-.189.265-.374.045-.628-.527-.608-.517-.715.053-1.288,1.086-1.093,2.174-2.182,3.324-3.322-1.126,0-2.2,0-3.268,0-.254,0-.527.055-.74-.154q0-.957,0-1.915a.712.712,0,0,1,.559-.166c.834,0,1.669-.018,2.5.01a1.139,1.139,0,0,1,.048-1.649,1.117,1.117,0,0,1,1.483.031,1.143,1.143,0,0,1,0,1.634c.724-.071,1.466-.007,2.278-.039a1.218,1.218,0,0,1-.237-1.134,1.07,1.07,0,0,1,.424-.568,1.117,1.117,0,0,1,1.342.069c.453.383.5.909.128,1.637.744.022,1.482-.021,2.256.028a1.129,1.129,0,0,1-.356-.835,1.069,1.069,0,0,1,.353-.8,1.119,1.119,0,0,1,1.438-.051c.476.376.531.921.139,1.659.751.013,1.48-.005,2.214.013-.412-.678-.377-1.257.1-1.654a1.111,1.111,0,0,1,1.481.055,1.123,1.123,0,0,1-.01,1.593c.77,0,1.518-.01,2.267,0-.4-.71-.359-1.271.12-1.661a1.115,1.115,0,0,1,1.481.072,1.132,1.132,0,0,1-.014,1.587c.752,0,1.487-.007,2.308,0a1.15,1.15,0,0,1-.32-.942,1.067,1.067,0,0,1,.494-.789A1.1,1.1,0,0,1,23.918,32.7c.743-.04,1.484-.013,2.324-.021a1.165,1.165,0,0,1-.309-.947,1.069,1.069,0,0,1,.5-.784,1.114,1.114,0,0,1,1.382.157,1.134,1.134,0,0,1-.028,1.584c.795-.008,1.579-.032,2.336.012a1.108,1.108,0,0,1,1.319-1.767c.564.336.661.9.3,1.742.759.019,1.516-.025,2.284.031a1.082,1.082,0,0,1-.139-1.55,1.117,1.117,0,0,1,1.472-.183c.527.369.6.969.169,1.691.788.04,1.554-.016,2.316.034a1.1,1.1,0,0,1-.1-1.555,1.116,1.116,0,0,1,1.474-.159c.526.379.585.975.169,1.7.741-.005,1.482-.016,2.279.007a1.109,1.109,0,0,1,.106-1.709,1.113,1.113,0,0,1,1.473.165A1.051,1.051,0,0,1,43.1,32.7c.786-.035,1.549-.006,2.318-.021-.367-.767-.3-1.306.187-1.676a1.114,1.114,0,0,1,1.435.085c.429.413.438.956.007,1.6.754-.008,1.489-.005,2.234,0-.376-.728-.333-1.256.12-1.64a1.118,1.118,0,0,1,1.438,0c.445.382.49.905.11,1.624.771.045,1.525-.019,2.252.037a1.139,1.139,0,0,1,.008-1.625,1.116,1.116,0,0,1,1.482-.031,1.143,1.143,0,0,1,.044,1.654c.834-.039,1.669-.016,2.5-.016a.711.711,0,0,1,.56.166q0,.957,0,1.915c-.194.2-.446.151-.681.153-1.021.006-2.043,0-3.064,0a1.076,1.076,0,0,0-.829.271c-2.012,2-4.016,4.017-6.078,6.073a4.362,4.362,0,0,1,1.269.746c.294.249.511.056.721-.154q1.486-1.489,2.974-2.975,1.7-1.7,3.4-3.4c.6-.6.763-.591,1.38.012.877.857.878.923-.006,1.806-1.658,1.656-3.311,3.316-5.022,5.016,1.637,0,3.236-.008,4.834.006.368,0,.765-.119,1.1.149" transform="translate(-0.027 -7.831)" fill="#040506"/>
      <path id="Trazado_613995" data-name="Trazado 613995" d="M1.068,44.989a2.922,2.922,0,0,1,.345.326c.174.226.317.251.589.1a1.841,1.841,0,0,1,2.576.6,1.011,1.011,0,0,0,1.628.307.937.937,0,0,1,1.513.435.568.568,0,0,1-.256.795A3.329,3.329,0,0,0,6.012,51.46,3.385,3.385,0,0,0,9.49,53.775a3.39,3.39,0,0,0,2.22-5.669c.113-.189.291-.1.43-.1,1.944-.007,3.888,0,5.832-.005a2.6,2.6,0,0,0,2.686-1.883,1.474,1.474,0,0,1,2.449-.67,2.6,2.6,0,0,0,1.77.627.83.83,0,0,1,.827.482,2.691,2.691,0,0,0,2.624,1.452c2.645-.026,5.291-.006,7.937-.011.333,0,.524-.035.435.468a2.88,2.88,0,1,0,5.673.005c-.086-.491.086-.512.429-.467a1.881,1.881,0,0,0,1.695-.676,1.812,1.812,0,0,1,2.833.183,1.219,1.219,0,0,0,1.03.494C51.506,48,54.653,48,57.8,48q0,4.938,0,9.875a2.3,2.3,0,0,1-.891-1.258c.358-.7.344-.691-.188-1.258a2.679,2.679,0,0,0-3.243-.815.95.95,0,0,1-.914-.122c-.408-.254-.795-.541-1.2-.792a2.443,2.443,0,0,0-2.411-.166c-.746.341-1.482.709-2.2,1.1a2.461,2.461,0,0,0-1.2,1.514c-.066.22-.016.608-.39.554-.3-.042-.373-.362-.349-.626a3.4,3.4,0,0,0-.821-2.32,2.582,2.582,0,0,0-3.336-.895c-.887.418-1.754.882-2.636,1.31-.6.29-.674.3-1-.3a3.546,3.546,0,0,0-5.772-.573,5.377,5.377,0,0,1-3.818,2.154,2.781,2.781,0,0,0-1.574.7.734.734,0,0,1-.892.072,4.847,4.847,0,0,0-3.5-.408.6.6,0,0,1-.749-.333c-.721-1.385-2.075-1.762-3.428-2.054a2.578,2.578,0,0,0-2.405.82l-.212.212c-1.018,1.014-1.1,1.03-2.4.477a2.815,2.815,0,0,0-3.31.823c-.389.483-.739,1-1.126,1.483-.4.509-.563.506-.963.01a3.549,3.549,0,0,0-5.133-.431c-.226.2-.415.438-.647.626-.4.327-.468.664-.1,1.055A2.776,2.776,0,0,1,.11,60.049q0-6.805,0-13.611a2.106,2.106,0,0,1,.424-1.154c.148-.152.262-.369.535-.295" transform="translate(-0.028 -11.442)" fill="#ae7749"/>
      <path id="Trazado_613996" data-name="Trazado 613996" d="M.105,21.53v-4.82a.991.991,0,0,1,.741-.169q8.654-.006,17.308,0c.3,0,.736-.106.828.28s-.309.561-.6.725a2.518,2.518,0,0,1-1.393.3A4.2,4.2,0,0,0,13.481,19.5c-.409.465-.076.706.2,1s.573.534.949.122c.081-.088.177-.163.256-.253a2.669,2.669,0,0,1,2.3-.947,3.622,3.622,0,0,0,2.518-.8,4.279,4.279,0,0,0,1.118-1.469c.1-.19.165-.451.423-.458.276-.007.318.269.4.462a3.51,3.51,0,0,0,3.193,2.269,2.733,2.733,0,0,1,1.86.977.871.871,0,0,0,1.548-.36.447.447,0,0,0-.147-.483,4.215,4.215,0,0,0-3.173-1.714,1.841,1.841,0,0,1-1.3-.548.514.514,0,0,1-.209-.529c.069-.2.285-.192.463-.211a5.756,5.756,0,0,1,.6-.013q16.167,0,32.333,0a1.377,1.377,0,0,1,.981.168v4.82a.853.853,0,0,1-.617.186c-.2.01-.4.005-.6.005q-27.629,0-55.257,0c-.41,0-.848.108-1.218-.186" transform="translate(-0.027 -4.206)" fill="#d37b51"/>
      <path id="Trazado_613997" data-name="Trazado 613997" d="M57.8,31.528H54.411c.6-.664.668-1.227.236-1.654a.978.978,0,0,0-1.356-.007c-.441.428-.371,1.005.216,1.633H50.575c.2-.265.478-.467.5-.816a.968.968,0,0,0-1.645-.807c-.426.426-.357.98.216,1.63H46.7c.248-.265.511-.48.532-.837a.968.968,0,0,0-1.7-.738c-.377.443-.284.983.3,1.553H42.849a1.148,1.148,0,0,0,.533-1.01.966.966,0,0,0-1.667-.576c-.409.435-.327,1,.259,1.593H39.052c.563-.632.632-1.189.2-1.616a.981.981,0,0,0-1.357-.01c-.443.429-.374,1.007.239,1.658H35.157c.614-.653.684-1.23.239-1.659a.98.98,0,0,0-1.356.011c-.428.427-.359.986.216,1.631H31.307c.241-.265.506-.478.528-.835a.967.967,0,0,0-1.695-.741c-.378.443-.285.986.3,1.554H27.464a1.173,1.173,0,0,0,.525-1.008.966.966,0,0,0-1.666-.579c-.41.435-.329,1,.259,1.594H23.662c.559-.634.628-1.187.2-1.613a.98.98,0,0,0-1.357-.012c-.444.428-.375,1.009.216,1.634H19.789c.588-.629.657-1.2.214-1.632a.98.98,0,0,0-1.356.009c-.429.426-.36.99.216,1.631H15.917c.234-.265.5-.476.524-.833a.968.968,0,0,0-1.694-.744c-.38.443-.286.988.3,1.554H12.079a1.2,1.2,0,0,0,.515-1.005.966.966,0,0,0-1.665-.582c-.412.435-.33,1,.292,1.628H8.239c.6-.688.658-1.272.187-1.687a.984.984,0,0,0-1.313.027c-.447.428-.377,1.011.215,1.634H4.4c.585-.629.653-1.2.212-1.63a.98.98,0,0,0-1.356.006c-.432.427-.362.993.238,1.654H.106V25.747c.277-.231.611-.151.925-.154.7-.007,1.4-.032,2.1.013.467.03.5.136.254.541-.39.626-.167,1.263.467,1.327a.722.722,0,0,0,.723-.336.787.787,0,0,0-.026-.9c-.338-.55-.3-.628.359-.639.7-.012,1.4-.029,2.1.012.371.022.537.163.239.519a.8.8,0,0,0-.082,1.048.766.766,0,0,0,1.021.194.779.779,0,0,0,.224-1.106c-.344-.6-.317-.657.365-.667s1.364-.031,2.044.011c.478.031.514.132.262.537-.343.552-.258,1.058.223,1.27a.728.728,0,0,0,.883-.166.769.769,0,0,0,.065-1c-.346-.584-.312-.647.394-.657.661-.008,1.323-.027,1.984.01.517.029.559.127.282.558a.928.928,0,0,0-.192.675.73.73,0,0,0,.573.625.717.717,0,0,0,.763-.232.763.763,0,0,0,.1-.9c-.359-.732-.358-.738.488-.742.6,0,1.2-.02,1.8.009.551.026.6.124.306.579a.8.8,0,0,0-.03,1,.727.727,0,0,0,.968.215.763.763,0,0,0,.347-.98,1.779,1.779,0,0,0-.261-.4c-.157-.212-.074-.359.154-.378a14.931,14.931,0,0,1,2.639,0c.223.021.315.163.154.378a2.078,2.078,0,0,0-.206.3.746.746,0,0,0,.155.982.713.713,0,0,0,.989.017.742.742,0,0,0,.183-.977c-.352-.729-.35-.737.506-.74.6,0,1.2-.022,1.8.008.544.027.579.116.291.587a.794.794,0,0,0,.143,1.167.722.722,0,0,0,.943-.06.761.761,0,0,0,.119-1.036c-.336-.59-.3-.653.4-.664.661-.01,1.323-.026,1.983.008.513.026.558.128.281.556a.94.94,0,0,0-.2.673.768.768,0,0,0,1.33.4.764.764,0,0,0,.1-.9c-.347-.729-.341-.743.5-.748.6,0,1.2-.02,1.8.007.547.025.595.123.3.579a.788.788,0,0,0,.045,1.092.7.7,0,0,0,.937.094.74.74,0,0,0,.3-.945,1.524,1.524,0,0,0-.257-.4c-.16-.216-.068-.358.155-.378a14.923,14.923,0,0,1,2.639,0c.229.019.311.167.154.379a2.185,2.185,0,0,0-.209.294.748.748,0,0,0,.15.983.71.71,0,0,0,.988.017.738.738,0,0,0,.186-.975c-.34-.71-.33-.734.456-.74.621-.006,1.243-.021,1.863.007.546.024.581.113.284.582a.79.79,0,0,0,.236,1.228.727.727,0,0,0,.884-.154.768.768,0,0,0,.086-.995c-.335-.593-.3-.653.4-.667.641-.013,1.283-.019,1.924,0,.588.02.623.1.309.6a.789.789,0,0,0,.072,1.087.743.743,0,0,0,.945.065.787.787,0,0,0,.153-1.162c-.29-.474-.255-.569.287-.59.741-.028,1.483-.031,2.224,0,.369.018.541.156.234.512a.794.794,0,0,0-.1,1.046.767.767,0,0,0,1.018.211.786.786,0,0,0,.243-1.1c-.338-.611-.313-.665.374-.677s1.364-.03,2.044.01c.47.027.52.144.248.532a.844.844,0,0,0-.127.951.714.714,0,0,0,.635.391.723.723,0,0,0,.7-.381.8.8,0,0,0-.042-.854c-.33-.555-.29-.64.362-.646.861-.008,1.724-.038,2.584.021a.448.448,0,0,1,.265.13Z" transform="translate(-0.027 -6.507)" fill="#9c542d"/>
      <path id="Trazado_613998" data-name="Trazado 613998" d="M.08,8.659c0-.618-.224-1.405.073-1.805.281-.38,1.12-.11,1.713-.112,3.186-.012,6.373-.016,9.559.006a.686.686,0,0,0,.779-.532,3.008,3.008,0,0,0-.965-3.346c-.61-.487-.747-.863-.5-1.368s.658-.626,1.39-.455a8.242,8.242,0,0,1,1.577.547,8.393,8.393,0,0,1,1.484.893c.095-.579.172-1.085.262-1.588a.953.953,0,0,1,1.4-.806,5.948,5.948,0,0,1,3.5,3.255c.049.106.048.242.215.312A8.128,8.128,0,0,1,24.775.3,4.353,4.353,0,0,1,25.989,0a.9.9,0,0,1,.892.488.929.929,0,0,1-.075,1.068c-.2.271-.429.521-.644.78.21.2.318.02.435-.061a8.5,8.5,0,0,1,2.885-1.265.981.981,0,0,1,1.27.5.984.984,0,0,1-.4,1.3,2.97,2.97,0,0,0-1.039,3.474.633.633,0,0,0,.7.47c3.888-.016,7.776-.01,11.663-.01,5.17,0,10.341.008,15.511-.013.5,0,.671.11.612.616a13.177,13.177,0,0,0-.029,1.32.889.889,0,0,1-.674.192c-.38.012-.761.005-1.142.005q-27.328,0-54.657-.005c-.409,0-.848.11-1.215-.192" transform="translate(0 0)" fill="#040506"/>
      <path id="Trazado_613999" data-name="Trazado 613999" d="M57.8,25.151H54.411c.6.663.669,1.227.234,1.654a.975.975,0,0,1-1.356,0c-.439-.428-.37-1,.214-1.632H50.566c.218.264.488.472.511.824a.968.968,0,0,1-1.649.795c-.419-.425-.351-.958.215-1.628H46.682c.253.254.5.458.542.792a.969.969,0,0,1-1.658.823c-.412-.435-.33-1,.29-1.628H42.872c.592.663.66,1.22.23,1.648a.977.977,0,0,1-1.356.009c-.442-.429-.374-1.005.215-1.633H39.027c.208.263.48.47.5.818a.968.968,0,0,1-1.647.8c-.423-.426-.354-.969.215-1.629H35.136a1.192,1.192,0,0,1,.544,1.087.969.969,0,0,1-1.658.529c-.417-.438-.336-1,.292-1.63H31.331c.6.688.658,1.27.184,1.687a.981.981,0,0,1-1.312-.028c-.446-.429-.377-1.01.214-1.634H27.484c.591.626.659,1.2.212,1.633a.98.98,0,0,1-1.312.029c-.472-.416-.416-1,.172-1.672H23.6c.259.262.515.483.538.842a.968.968,0,0,1-1.659.775c-.421-.439-.341-1,.294-1.632H19.79c.6.7.652,1.268.182,1.684a.98.98,0,0,1-1.355-.066c-.4-.435-.319-.989.256-1.592h-2.93c.585.627.653,1.2.211,1.629A.974.974,0,0,1,14.8,26.8c-.43-.427-.362-.988.213-1.63h-2.95c.248.262.508.479.531.836a.968.968,0,0,1-1.7.737c-.377-.443-.284-.982.3-1.552H8.28c.561.667.615,1.228.15,1.644a.981.981,0,0,1-1.356-.061c-.4-.435-.322-.992.258-1.592H4.4c.578.626.647,1.2.207,1.625a.974.974,0,0,1-1.356,0c-.434-.427-.365-.995.236-1.654H.105q0-.957,0-1.915H57.8q0,.957,0,1.915" transform="translate(-0.026 -5.911)" fill="#040506"/>
      <path id="Trazado_614000" data-name="Trazado 614000" d="M57.8,16.045H23.429A1.553,1.553,0,0,0,24.938,17c1.607-.016,2.588,1.008,3.575,2.046a.217.217,0,0,1-.007.356,1.142,1.142,0,0,0-.084.086c-1.021,1.153-1.026,1.157-2.139.075a1.984,1.984,0,0,0-1.323-.621,3.659,3.659,0,0,1-3.592-2.74.665.665,0,0,0-.1-.142c-.218.081-.205.286-.273.438a3.6,3.6,0,0,1-3.418,2.4,3.306,3.306,0,0,0-2.929,1.286c-.293.388-.51.339-.834,0-.954-.989-.957-.963,0-1.937a4.1,4.1,0,0,1,3.311-1.246,1.96,1.96,0,0,0,1.906-.962H.105q0-.958,0-1.918a.894.894,0,0,1,.674-.193c.381-.011.762,0,1.143,0q27.328,0,54.657,0c.409,0,.848-.11,1.215.193l0,1.918" transform="translate(-0.027 -3.54)" fill="#040506"/>
      <path id="Trazado_614001" data-name="Trazado 614001" d="M57.794,67.745l0,5.06a1.372,1.372,0,0,1-.98.181q-4.419.009-8.838,0-23.359,0-46.718,0A1.694,1.694,0,0,1,.1,72.8l0-6.026A9.125,9.125,0,0,1,1.093,68.3a.575.575,0,0,1-.117.274c-.306.384-.123.625.24.8a3.111,3.111,0,0,0,2.5.239,1.2,1.2,0,0,1,1.661.446,2.987,2.987,0,0,0,3.46.992,10.572,10.572,0,0,0,1.312-.436c2.519-1.063,5.221-1.166,7.875-1.526a.749.749,0,0,1,.755.38A4.282,4.282,0,0,0,22,71.347a6.417,6.417,0,0,0,4.849-1.32,1.056,1.056,0,0,1,.925-.3,4.178,4.178,0,0,0,.96.019,2.209,2.209,0,0,1,1.486.488,6.022,6.022,0,0,0,2.662,1.045,2.415,2.415,0,0,0,2.282-.95,15.507,15.507,0,0,1,1.115-1.415c.5-.49.719-.479,1.173.047a10.215,10.215,0,0,0,2.373,2.019,4.391,4.391,0,0,0,4.987-.089,1.794,1.794,0,0,1,1.521-.272,3.4,3.4,0,0,0,3.125-.834c.092-.078.175-.165.261-.249.877-.861.876-.86,1.862-.183a2.048,2.048,0,0,0,1.122.387c1.183.022,2.365.025,3.547,0,.611-.013.676-.116.6-.725a2.046,2.046,0,0,1,.941-1.268" transform="translate(-0.026 -16.989)" fill="#6e6e6e"/>
      <path id="Trazado_614002" data-name="Trazado 614002" d="M57.8,13.542H.107V11.615H57.8v1.927" transform="translate(-0.027 -2.955)" fill="#628836"/>
      <path id="Trazado_614003" data-name="Trazado 614003" d="M.089,74.857c.16,0,.321-.01.48-.01H57.3c.16,0,.32.007.48.01-.006.617.215,1.407-.084,1.8-.283.374-1.122.107-1.715.107q-27.621.01-55.242.016c-.522,0-.758-.093-.681-.664a10.741,10.741,0,0,0,.025-1.26" transform="translate(-0.013 -19.041)" fill="#040506"/>
      <path id="Trazado_614004" data-name="Trazado 614004" d="M73.782,43.833H67.5c.222-.232.351-.373.487-.508,1.728-1.729,3.449-3.464,5.191-5.178.3-.3.3-.459,0-.754-1.014-1-1-1.01-2.022.01-2.025,2.026-4.057,4.046-6.07,6.084-.276.279-.443.365-.746.039a3.3,3.3,0,0,0-1.4-.81c-.006-.21.177-.289.292-.4,1.937-1.944,3.885-3.877,5.813-5.83a1.113,1.113,0,0,1,.892-.357c1.282.017,2.564,0,3.847,0v7.706" transform="translate(-16.011 -9.19)" fill="#d37b51"/>
      <path id="Trazado_614005" data-name="Trazado 614005" d="M73.844,65.569c-.18.466-.673.718-.825,1.2a.238.238,0,0,1-.267-.19c-.187-.529-.582-.638-1.093-.621-.78.027-1.561.016-2.341,0a1.406,1.406,0,0,1-1.442-1.647,3.529,3.529,0,0,0-3.94-4.1,2.927,2.927,0,0,1-.358.037c-.368-.016-.486-.244-.295-.566a.84.84,0,0,1,.293-.3,18.437,18.437,0,0,1,2.2-1.1.863.863,0,0,1,.8.119c.344.206.677.429,1,.66a2.541,2.541,0,0,0,2.553.362,1.009,1.009,0,0,1,1.253.274c.46.564.937.808,1.589.326a6.3,6.3,0,0,1,.874,1.22l0,4.324" transform="translate(-16.076 -14.814)" fill="#54616d"/>
      <path id="Trazado_614006" data-name="Trazado 614006" d="M1.045,66.951C.493,66.624.35,66.032.108,65.5l0-1.183c.16-.58.622-1,.832-1.552a.157.157,0,0,1,.167.007c.692.5.691.5,1.281-.089a6.829,6.829,0,0,1,.521-.5,1.9,1.9,0,0,1,3.044,1.049.91.91,0,0,1-.092.808A18.37,18.37,0,0,1,4.244,66.2a1.826,1.826,0,0,1-2.079.488.574.574,0,0,0-.755.127.3.3,0,0,1-.365.133" transform="translate(-0.027 -15.714)" fill="#3e4650"/>
      <path id="Trazado_614007" data-name="Trazado 614007" d="M1.067,42.739c-.574.315-.705.922-.959,1.449q0-4.03,0-8.059H4.522c-1.11,1.1-2.1,2.075-3.088,3.054-.256.254-.492.531-.769.759-.3.251-.262.445.02.66.237.18.468.368.716.564-.939.734-.939.734-.334,1.573" transform="translate(-0.027 -9.191)" fill="#d37b51"/>
      <path id="Trazado_614008" data-name="Trazado 614008" d="M53.55,43.83c1.307-1.308,2.52-2.518,3.727-3.733.171-.173.371-.115.563-.116a2.872,2.872,0,0,0,2.927-3.46c-.07-.373.037-.4.333-.392,1,.01,2,0,3.006,0,.048.221-.137.286-.236.385-2.32,2.328-4.65,4.647-6.964,6.98a1.036,1.036,0,0,1-.84.339c-.793-.023-1.586-.007-2.516-.007" transform="translate(-13.623 -9.191)" fill="#d37b51"/>
      <path id="Trazado_614009" data-name="Trazado 614009" d="M41.676,36.263c-.655.635-1.317,1.263-1.965,1.906q-2.065,2.05-4.111,4.116c-.218.22-.357.344-.666.088a2.494,2.494,0,0,0-1.806-.473c-.048-.226.133-.3.235-.4,1.678-1.686,3.366-3.363,5.039-5.054a.972.972,0,0,1,.784-.324c.8.021,1.6.007,2.4.007l.092.132" transform="translate(-8.426 -9.19)" fill="#d37b51"/>
      <path id="Trazado_614010" data-name="Trazado 614010" d="M22.647,43.776c2.51-2.509,4.961-4.958,7.408-7.411a.67.67,0,0,1,.518-.237c.859.012,1.719,0,2.582,0,.04.223-.142.288-.241.388-1.356,1.364-2.724,2.715-4.072,4.087a1,1,0,0,1-.837.343,5.172,5.172,0,0,0-1.258.031,2.456,2.456,0,0,0-1.972,1.655c-.374,1.092-.193,1.315-2.129,1.139" transform="translate(-5.761 -9.191)" fill="#d37b51"/>
      <path id="Trazado_614011" data-name="Trazado 614011" d="M11.108,36.131l-5.1,5.084c-.126.125-.227.265-.455.142A3.849,3.849,0,0,0,3.4,40.947c-.005-.242.184-.32.3-.436,1.341-1.35,2.694-2.687,4.027-4.044a1.027,1.027,0,0,1,.837-.343c.793.024,1.587.007,2.539.007" transform="translate(-0.866 -9.19)" fill="#d37b51"/>
      <path id="Trazado_614012" data-name="Trazado 614012" d="M18.4,36.134a2.108,2.108,0,0,1-1.8,1.005,2.733,2.733,0,0,0-2.522,2.788,1.26,1.26,0,0,1-.438,1.039c-.616.573-1.2,1.176-1.787,1.783-.207.215-.339.268-.561.01a3.029,3.029,0,0,0-1.63-.861c1.925-1.92,3.782-3.772,5.637-5.626a.487.487,0,0,1,.377-.14c.878,0,1.754,0,2.724,0" transform="translate(-2.458 -9.192)" fill="#d37b51"/>
      <path id="Trazado_614013" data-name="Trazado 614013" d="M53.121,36.644a3.165,3.165,0,0,0,.491,2.218c.163.224.007.321-.117.445q-2.208,2.209-4.413,4.419a.73.73,0,0,1-.577.239c-.84-.012-1.681,0-2.62,0,.462-.506.746-1.012,1.535-.986A2.777,2.777,0,0,0,50.2,40.194a1.351,1.351,0,0,1,.463-1.089c.794-.758,1.553-1.552,2.455-2.461" transform="translate(-11.673 -9.322)" fill="#d37b51"/>
      <path id="Trazado_614014" data-name="Trazado 614014" d="M27.407,36.132,23.124,40.42a3.353,3.353,0,0,0-.556-2.137c-.146-.2.058-.286.159-.388.5-.514,1.022-1.017,1.526-1.534a.661.661,0,0,1,.519-.233c.859.011,1.718,0,2.636,0" transform="translate(-5.728 -9.191)" fill="#d37b51"/>
      <path id="Trazado_614015" data-name="Trazado 614015" d="M38.307,45.021l4.2-4.208a3.051,3.051,0,0,0,.535,2.033c.147.2-.022.289-.127.4-.521.526-1.049,1.047-1.571,1.572a.541.541,0,0,1-.406.211c-.893-.007-1.786,0-2.635,0" transform="translate(-9.745 -10.383)" fill="#d37b51"/>
      <path id="Trazado_614016" data-name="Trazado 614016" d="M11.866,50.333a1.44,1.44,0,1,1-1.457,1.391,1.487,1.487,0,0,1,1.457-1.391" transform="translate(-2.648 -12.805)" fill="#54606d"/>
      <path id="Trazado_614017" data-name="Trazado 614017" d="M51.1,36.125c-.547.544-1,.984-1.438,1.43a.236.236,0,0,1-.359.045,3.011,3.011,0,0,0-2.129-.5c.456-.59.825-1.087,1.644-1a21.8,21.8,0,0,0,2.282.016" transform="translate(-12.002 -9.183)" fill="#d37b51"/>
      <path id="Trazado_614018" data-name="Trazado 614018" d="M14.94,45.819a4.967,4.967,0,0,0,.454-.391c.57-.622,1.079-1.331,2.062-.561.323.253.812.134,1.322.141-.462.524-.778,1.059-1.584.975A21.254,21.254,0,0,0,15,45.968l-.063-.149" transform="translate(-3.801 -11.329)" fill="#d37b51"/>
      <path id="Trazado_614019" data-name="Trazado 614019" d="M19.095,40.011a.957.957,0,1,1-.941.966.99.99,0,0,1,.941-.966" transform="translate(-4.618 -10.179)" fill="#54606c"/>
      <path id="Trazado_614020" data-name="Trazado 614020" d="M52.67,49.044a.957.957,0,1,1-.966.942.978.978,0,0,1,.966-.942" transform="translate(-13.153 -12.477)" fill="#54606c"/>
      <path id="Trazado_614021" data-name="Trazado 614021" d="M59.12,36.142a.957.957,0,1,1-.963.966,1.014,1.014,0,0,1,.963-.966" transform="translate(-14.795 -9.195)" fill="#54606d"/>
      <path id="Trazado_614022" data-name="Trazado 614022" d="M47.512,40.013a.957.957,0,1,1-.968.96,1.012,1.012,0,0,1,.968-.96" transform="translate(-11.841 -10.179)" fill="#54606d"/>
      <path id="Trazado_614023" data-name="Trazado 614023" d="M1.179,65.019a.913.913,0,0,0,.373-.377c.127-.19.265-.28.5-.144,1.245.732,2.148-.11,2.859-1.054.239-.317.435-.667.667-.989.522-.72.543-1.042.086-1.717a1.745,1.745,0,0,0-1.77-.731,2.688,2.688,0,0,0-1.268.857c-.851.822-.594.978-1.548-.024-.6-.583-.579-.568-.016-1.171a4.194,4.194,0,0,1,3.15-1.625A3.532,3.532,0,0,1,7.16,59.5c.251.337.374.374.619.01.346-.514.731-1,1.109-1.5A2.934,2.934,0,0,1,12.7,57.19c.789.415,1.071.394,1.684-.265.823-.886,1.741-1.66,3.017-1.382,1.44.314,2.921.689,3.622,2.242.111.248.236.239.466.177a4.79,4.79,0,0,1,3.715.428c.174.1.332.213.538.029,1-.9,2.3-.951,3.527-1.2a1.051,1.051,0,0,0,.632-.364,21.654,21.654,0,0,1,1.778-1.789,3.64,3.64,0,0,1,5.6,1.045c.223.4.378.432.75.232.863-.463,1.745-.893,2.626-1.32a2.714,2.714,0,0,1,3.63.966,3.291,3.291,0,0,1,.791,2.444.423.423,0,0,0,.334.52,2.89,2.89,0,0,1,1.969-2.493c.5-.208.972-.471,1.451-.72a2.637,2.637,0,0,1,2.888.189,7.03,7.03,0,0,1,.6.4,1.5,1.5,0,0,0,1.7.268,2.349,2.349,0,0,1,2.411.494,7.141,7.141,0,0,1,.564.541c.668.666.667.667.06,1.357-.766.69-.784.707-1.482-.037a1.127,1.127,0,0,0-1.467-.362,2.156,2.156,0,0,1-2.375-.353,2.294,2.294,0,0,0-3.25-.163c-.256.186-.57.292-.837.467-.167.109-.334.3-.236.5.086.172.284.022.433,0a3.707,3.707,0,0,1,4.263,4.339,1.229,1.229,0,0,0,1.121,1.391c.9.013,1.807.054,2.7-.015a.836.836,0,0,1,1,.672,1.777,1.777,0,0,0,.169.311c.3.84.23.945-.72.956-1.122.013-2.244,0-3.366,0a2.226,2.226,0,0,1-1.768-.751c-.34-.4-.541-.3-.828.024a7.031,7.031,0,0,1-.907.875,3.546,3.546,0,0,1-3.333.668.921.921,0,0,0-.93.154,4.693,4.693,0,0,1-5.793-.04,8.976,8.976,0,0,1-2.144-2c-.245-.368-.506-.159-.686.051-.39.456-.743.943-1.108,1.42a2.663,2.663,0,0,1-3.249.942,6.369,6.369,0,0,1-2.45-1.218c-.182-.184-.412-.117-.626-.125-.5-.017-1-.007-1.5-.047a.469.469,0,0,0-.426.141,5.864,5.864,0,0,1-3.586,1.473,4.837,4.837,0,0,1-4.98-2.033c-.113-.151-.206-.264-.432-.233-1.625.218-3.257.378-4.874.637a30.678,30.678,0,0,0-4.231,1.31,3.328,3.328,0,0,1-4.116-1.426c-.2-.3-.34-.265-.609-.146A3.619,3.619,0,0,1,1.1,66.217c-.433-.234-.624-.468-.169-.863a1.782,1.782,0,0,0,.245-.336" transform="translate(-0.161 -13.783)" fill="#040506"/>
      <path id="Trazado_614024" data-name="Trazado 614024" d="M36.823,53.216a2.885,2.885,0,1,1-2.9-2.885,2.871,2.871,0,0,1,2.9,2.885" transform="translate(-7.9 -12.804)" fill="#040506"/>
      <path id="Trazado_614025" data-name="Trazado 614025" d="M69.421,30.315A.96.96,0,1,1,70.4,29.4a.944.944,0,0,1-.975.917" transform="translate(-17.42 -7.224)" fill="#080606"/>
      <path id="Trazado_614026" data-name="Trazado 614026" d="M64.245,28.394a.961.961,0,1,1-.932.959.943.943,0,0,1,.932-.959" transform="translate(-16.107 -7.224)" fill="#080606"/>
      <path id="Trazado_614027" data-name="Trazado 614027" d="M74.593,28.394a.96.96,0,1,1-.957.933.942.942,0,0,1,.957-.933" transform="translate(-18.733 -7.224)" fill="#080606"/>
      <path id="Trazado_614028" data-name="Trazado 614028" d="M59.12,30.315a.96.96,0,1,1,.953-.939.941.941,0,0,1-.953.939" transform="translate(-14.794 -7.224)" fill="#080606"/>
      <path id="Trazado_614029" data-name="Trazado 614029" d="M54.911,29.34a.96.96,0,1,1-.945-.946.944.944,0,0,1,.945.946" transform="translate(-13.481 -7.224)" fill="#080606"/>
      <path id="Trazado_614030" data-name="Trazado 614030" d="M49.75,29.361a.96.96,0,1,1-.924-.967.945.945,0,0,1,.924.967" transform="translate(-12.168 -7.223)" fill="#080606"/>
      <path id="Trazado_614031" data-name="Trazado 614031" d="M44.588,29.378a.961.961,0,1,1-.906-.985.943.943,0,0,1,.906.985" transform="translate(-10.854 -7.223)" fill="#080606"/>
      <path id="Trazado_614032" data-name="Trazado 614032" d="M38.463,28.394a.961.961,0,1,1-.958.932.942.942,0,0,1,.958-.932" transform="translate(-9.541 -7.224)" fill="#080606"/>
      <path id="Trazado_614033" data-name="Trazado 614033" d="M33.287,30.315a.96.96,0,1,1,.977-.915.944.944,0,0,1-.977.915" transform="translate(-8.228 -7.224)" fill="#080606"/>
      <path id="Trazado_614034" data-name="Trazado 614034" d="M28.138,28.394a.96.96,0,1,1-.957.933.942.942,0,0,1,.957-.933" transform="translate(-6.915 -7.224)" fill="#080606"/>
      <path id="Trazado_614035" data-name="Trazado 614035" d="M22.989,30.315a.96.96,0,1,1,.953-.939.941.941,0,0,1-.953.939" transform="translate(-5.602 -7.224)" fill="#080606"/>
      <path id="Trazado_614036" data-name="Trazado 614036" d="M18.78,29.376a.961.961,0,1,1-.908-.983.947.947,0,0,1,.908.983" transform="translate(-4.289 -7.223)" fill="#080606"/>
      <path id="Trazado_614037" data-name="Trazado 614037" d="M13.618,29.352a.96.96,0,1,1-.933-.958.944.944,0,0,1,.933.958" transform="translate(-2.976 -7.224)" fill="#080606"/>
      <path id="Trazado_614038" data-name="Trazado 614038" d="M8.457,29.336a.961.961,0,1,1-.949-.942.945.945,0,0,1,.949.942" transform="translate(-1.663 -7.224)" fill="#080606"/>
      <path id="Trazado_614039" data-name="Trazado 614039" d="M2.332,30.315a.96.96,0,0,1,0-1.921.96.96,0,1,1,0,1.921" transform="translate(-0.349 -7.224)" fill="#080606"/>
      <path id="Trazado_614040" data-name="Trazado 614040" d="M31.071,4.106a7.2,7.2,0,0,0-.125,2.083c.011.119.016.239.024.359.055.931-.224,1.234-1.134,1.234-1.212,0-1.217,0-.748-1.123a5.91,5.91,0,0,1,1.983-2.553" transform="translate(-7.326 -1.045)" fill="#74a43f"/>
      <path id="Trazado_614041" data-name="Trazado 614041" d="M23.031,3.35a4.24,4.24,0,0,1,1.708,3.084,4.131,4.131,0,0,1,.066.475c.006.227.275.567-.1.652-.344.08-.8.2-.933-.408a2.163,2.163,0,0,0-.4-.93,2.869,2.869,0,0,1-.347-2.874" transform="translate(-5.803 -0.853)" fill="#74a540"/>
      <path id="Trazado_614042" data-name="Trazado 614042" d="M34.1,8.172a6.58,6.58,0,0,1,1.842-2.533,5.089,5.089,0,0,0,.081,2.305c.07.271-.148.224-.295.225-.516.005-1.033,0-1.629,0" transform="translate(-8.674 -1.435)" fill="#73a43f"/>
      <path id="Trazado_614043" data-name="Trazado 614043" d="M19.128,5.843a5.512,5.512,0,0,1,1.761,2.381c-.588,0-1.117-.006-1.645,0-.23,0-.331-.057-.263-.308a5.335,5.335,0,0,0,.147-2.075" transform="translate(-4.823 -1.487)" fill="#73a43f"/>
      <path id="Trazado_614044" data-name="Trazado 614044" d="M9.977,67.34a1.288,1.288,0,0,1-1.257-.752,1.353,1.353,0,0,1,.13-1.475q1.6-2.144,3.2-4.279c.144-.192.283-.39.441-.57a.95.95,0,0,1,1.341-.226,3.05,3.05,0,0,0,3.923-.589c.181-.212.391-.4.594-.6a.985.985,0,0,1,1.215-.183c.666.337,1.589.333,1.789,1.3a1.023,1.023,0,0,1-.167.746,3.28,3.28,0,0,0-.35,2.759c.331,1.152-.089,1.7-1.288,1.8a29.7,29.7,0,0,0-8.755,1.858,1.84,1.84,0,0,1-.816.2" transform="translate(-2.178 -14.892)" fill="#54616d"/>
      <path id="Trazado_614045" data-name="Trazado 614045" d="M43.066,66.776a4.167,4.167,0,0,0,1.614-2.947c.026-.243.143-.314.329-.426a7.518,7.518,0,0,0,3.366-3.6.731.731,0,0,1,.382-.423q1.722-.851,3.439-1.713a.882.882,0,0,1,1.191.136c.593.68.7,1.148.381,1.669q-1.5,2.418-3.02,4.828c-.435.688-.731.752-1.429.365a2.756,2.756,0,0,0-3.612.868c-.205.271-.4.55-.605.819-.771,1-.793,1-2.036.426" transform="translate(-10.956 -14.628)" fill="#30363d"/>
      <path id="Trazado_614046" data-name="Trazado 614046" d="M29.658,61.61a2.208,2.208,0,0,1,1.428.432A14.752,14.752,0,0,1,32.533,63.2a2.626,2.626,0,0,1,.862,2.813,2.668,2.668,0,0,1-2.1,2,5.656,5.656,0,0,1-2.414.233,3.049,3.049,0,0,1-1.191-.536c-.711-.527-.737-.694-.38-1.49a3.059,3.059,0,0,0,.228-2.038c-.412-1.7.324-2.581,2.124-2.572" transform="translate(-6.889 -15.672)" fill="#3e4650"/>
      <path id="Trazado_614047" data-name="Trazado 614047" d="M41.015,63.66a5.913,5.913,0,0,1-.009,1.016,2.145,2.145,0,0,1-2.278,1.789c-.339,0-.772.113-.992-.052-.266-.2.037-.611.053-.933a4.574,4.574,0,0,0-1.252-3.564c-.444-.455-.205-.591.2-.69a15.33,15.33,0,0,1,1.989-.4,2.1,2.1,0,0,1,2.31,2c.021.278,0,.559,0,.839h-.025" transform="translate(-9.234 -15.471)" fill="#54606d"/>
      <path id="Trazado_614048" data-name="Trazado 614048" d="M53.785,67.934A3.512,3.512,0,0,0,55.3,66.385c.68-1.106,1.4-2.189,2.052-3.308.259-.444.434-.4.734-.072a2.794,2.794,0,0,1,.795,2.63,4.773,4.773,0,0,0-.126.644,2.863,2.863,0,0,1-4.966,1.654" transform="translate(-13.683 -15.964)" fill="#54606d"/>
      <path id="Trazado_614049" data-name="Trazado 614049" d="M64.4,63.238a1.7,1.7,0,0,1,1.393.925,1.581,1.581,0,0,1-.117,1.855,20.572,20.572,0,0,1-1.646,1.659,1.617,1.617,0,0,1-.531.263c-.242.1-.533.21-.742.034s.018-.448.064-.664a7.167,7.167,0,0,0,.223-3.19c-.111-.476.5-.884,1.356-.881" transform="translate(-15.941 -16.088)" fill="#3e4650"/>
      <path id="Trazado_614050" data-name="Trazado 614050" d="M46.485,58.633A1.8,1.8,0,0,1,46,59.743q-.593.6-1.188,1.191c-.188.189-.289.228-.382-.1a3.981,3.981,0,0,0-1.637-2.3c-.116-.077-.349-.172-.148-.356.51-.467.881-1.1,1.61-1.307a1.772,1.772,0,0,1,2.235,1.761" transform="translate(-10.828 -14.451)" fill="#3e464f"/>
      <path id="Trazado_614051" data-name="Trazado 614051" d="M34.587,54.829a.957.957,0,1,1,.965-.964,1.015,1.015,0,0,1-.965.964" transform="translate(-8.558 -13.461)" fill="#54606d"/>
    </g>
  </g>
</svg>
