<svg id="Grupo_876461" data-name="Grupo 876461" xmlns="http://www.w3.org/2000/svg" xmlns:xlink="http://www.w3.org/1999/xlink" width="63.081" height="63.081" viewBox="0 0 63.081 63.081">
  <defs>
    <clipPath id="clip-path">
      <rect id="Rectángulo_324990" data-name="Rectángulo 324990" width="63.081" height="63.081" fill="none"/>
    </clipPath>
  </defs>
  <g id="Grupo_876460" data-name="Grupo 876460" transform="translate(0 0)" clip-path="url(#clip-path)">
    <path id="Trazado_614614" data-name="Trazado 614614" d="M3.383,0H46.464a4.15,4.15,0,0,1,3.5,4.428q0,8.333,0,16.667a1.372,1.372,0,0,0,.057.667c.245-.055.356-.267.513-.417,1.714-1.647,3.289-3.437,5.1-4.979a4.684,4.684,0,0,1,7.193,1.587,10.055,10.055,0,0,1,.252,1.248v1.6a4.35,4.35,0,0,1-1.569,2.888c-3.571,3.563-7.126,7.143-10.713,10.689a2.558,2.558,0,0,0-.837,1.994c.026,7.464.016,14.928.013,22.393a4.3,4.3,0,0,1-1.794,3.6,3.6,3.6,0,0,1-2.24.719q-21.01-.005-42.018,0A3.891,3.891,0,0,1,0,59.127Q0,31.721,0,4.315C0,1.847,1,.569,3.383,0" transform="translate(0 0)" fill="#040506"/>
    <path id="Trazado_614615" data-name="Trazado 614615" d="M24.307,59.893c-.186-.9-.565-1.227-1.466-1.227-3.917,0-7.836-.01-11.752.011-.478,0-.6-.114-.6-.6q.02-23.535,0-47.071c0-.463.091-.614.588-.606,1.969.033,3.938.021,5.907.007.357,0,.519.036.546.475a3.764,3.764,0,0,0,3.6,3.458q6.829.044,13.66,0a3.779,3.779,0,0,0,3.635-3.5c.024-.343.11-.442.454-.439q3.077.023,6.154,0c.369,0,.424.127.424.454q-.013,10.8,0,21.6a.8.8,0,0,1-.319.685,7.254,7.254,0,0,0-2.048,3c-.917,2.182-1.91,4.331-2.88,6.49a1.283,1.283,0,0,0,1.795,1.779c1.122-.522,2.26-1.007,3.445-1.53V49.1c0,3.015-.01,6.03.011,9.045,0,.435-.108.534-.536.532-3.939-.018-7.877-.012-11.815-.01-.9,0-1.282.325-1.465,1.227a4.455,4.455,0,0,1-2.3.129c-.266-.091-.312-.352-.42-.563a1.048,1.048,0,0,0-1.894-.015c-.11.209-.154.471-.417.572a4.381,4.381,0,0,1-2.314-.123" transform="translate(-3.057 -3.031)" fill="#fff"/>
    <path id="Trazado_614616" data-name="Trazado 614616" d="M22.288,57.869h2.423c.178.1.21.293.293.453a1.06,1.06,0,0,0,1.913,0c.082-.16.116-.354.294-.453h2.423A1.3,1.3,0,0,0,31.164,59.1q6.585,0,13.171,0c1.131,0,1.567-.429,1.567-1.549q0-8.615-.009-17.231c0-.422.089-.658.519-.812.644-.232,1.256-.554,1.952-.869v.647q0,10.092,0,20.185c0,1.459-.631,2.092-2.087,2.092H5.657c-1.463,0-2.1-.629-2.1-2.08V5.513A1.774,1.774,0,0,1,5.57,3.47c3.118,0,6.236.009,9.354-.011.445,0,.623.081.58.563-.056.608.2,1.432-.108,1.78-.356.4-1.193.118-1.82.123-2.031.015-4.062,0-6.093.006A1.277,1.277,0,0,0,6.021,7.4q0,25.109,0,50.217c0,1.035.458,1.486,1.5,1.487q6.618,0,13.233,0a1.307,1.307,0,0,0,1.53-1.233" transform="translate(-1.037 -1.008)" fill="#689fd6"/>
    <path id="Trazado_614617" data-name="Trazado 614617" d="M31.908,3.47c2.479,0,4.959.01,7.438-.01.415,0,.558.077.548.526-.032,1.454-.007,2.91-.014,4.364a1.379,1.379,0,0,1-1.523,1.518q-6.486.007-12.971,0a1.38,1.38,0,0,1-1.518-1.524c-.006-1.455.019-2.91-.013-4.364-.011-.457.147-.522.553-.519,2.5.018,5,.009,7.5.009" transform="translate(-6.951 -1.008)" fill="#aecfef"/>
    <path id="Trazado_614618" data-name="Trazado 614618" d="M59.411,28.388V7.569c0-1.246-.4-1.636-1.662-1.636-2.42,0-4.84-.015-7.259.013-.477,0-.6-.135-.561-.582a11.646,11.646,0,0,0,0-1.475c-.014-.31.063-.426.4-.424,3.281.013,6.562,0,9.843.015a1.713,1.713,0,0,1,1.694,1.859q.006,5.2,0,10.4c0,3.219,0,6.438.007,9.658a1.069,1.069,0,0,1-.347.861c-.681.651-1.331,1.335-2.122,2.136" transform="translate(-14.547 -1.009)" fill="#689fd6"/>
    <path id="Trazado_614619" data-name="Trazado 614619" d="M61.549,40.747c3.626-3.623,7.224-7.214,10.811-10.815.237-.239.365-.211.582.013.756.78,1.523,1.55,2.307,2.3.227.218.186.327-.012.524q-5.27,5.253-10.524,10.521c-.21.211-.34.281-.585.029-.841-.866-1.707-1.707-2.58-2.574" transform="translate(-17.935 -8.673)" fill="#ffb146"/>
    <path id="Trazado_614620" data-name="Trazado 614620" d="M81.641,25.32a2.035,2.035,0,0,1,2.035,1.155,1.884,1.884,0,0,1-.265,2.123c-.753.94-.762.935-1.6.1-.6-.592-1.176-1.2-1.788-1.776-.264-.247-.231-.393.01-.633.517-.515,1.029-1.009,1.608-.969" transform="translate(-23.264 -7.377)" fill="#e45165"/>
    <path id="Trazado_614621" data-name="Trazado 614621" d="M61.128,50.4c-1.12.5-2.1.946-3.093,1.38a.893.893,0,0,1-.6.15c.386-.875.762-1.733,1.142-2.589.427-.963.423-.957,1.179-.215.423.415.868.807,1.375,1.275" transform="translate(-16.735 -14.16)" fill="#8390a4"/>
    <path id="Trazado_614622" data-name="Trazado 614622" d="M15.37,25.951c0-1.21,0-2.421,0-3.631,0-1.021.444-1.475,1.445-1.476q3.723,0,7.447,0c1,0,1.446.456,1.446,1.475q0,3.693,0,7.384c0,1.019-.446,1.476-1.446,1.477q-3.723,0-7.447,0c-1,0-1.443-.457-1.446-1.476,0-1.251,0-2.5,0-3.754" transform="translate(-4.478 -6.073)" fill="#040506"/>
    <path id="Trazado_614623" data-name="Trazado 614623" d="M25.71,45.107c0,1.251,0,2.5,0,3.754a1.255,1.255,0,0,1-1.434,1.426q-3.754,0-7.508,0a1.244,1.244,0,0,1-1.395-1.4q-.006-3.785,0-7.57a1.228,1.228,0,0,1,1.37-1.363q3.785-.009,7.57,0a1.246,1.246,0,0,1,1.4,1.4c.006,1.251,0,2.5,0,3.754" transform="translate(-4.478 -11.64)" fill="#040506"/>
    <path id="Trazado_614624" data-name="Trazado 614624" d="M20.479,69.4c-1.21,0-2.421,0-3.631,0-1.02,0-1.475-.446-1.477-1.446q0-3.723,0-7.446c0-1,.454-1.445,1.475-1.446q3.693,0,7.385,0c1.02,0,1.476.445,1.477,1.445q.005,3.723,0,7.446c0,1-.456,1.445-1.475,1.447-1.251,0-2.5,0-3.754,0" transform="translate(-4.478 -17.208)" fill="#040506"/>
    <path id="Trazado_614625" data-name="Trazado 614625" d="M38.228,67.474a1.312,1.312,0,0,1,.451-.973c.481-.476.938-.979,1.445-1.426.341-.3.288-.485-.018-.763-.5-.454-.973-.941-1.441-1.429a1.24,1.24,0,1,1,1.75-1.741c.518.5,1.029,1,1.521,1.524.218.232.356.253.584.009.489-.525,1-1.029,1.519-1.526A1.24,1.24,0,1,1,45.8,62.877c-.48.505-.962,1.013-1.482,1.474-.326.288-.263.457.018.716.5.458.969.945,1.438,1.433a1.243,1.243,0,1,1-1.752,1.74c-.515-.5-1.026-1-1.519-1.526-.2-.217-.335-.218-.54,0-.539.562-1.089,1.115-1.655,1.65a1.179,1.179,0,0,1-1.366.235,1.167,1.167,0,0,1-.714-1.122" transform="translate(-11.138 -17.684)" fill="#040506"/>
    <path id="Trazado_614626" data-name="Trazado 614626" d="M40.26,30.508a1.424,1.424,0,0,1-.947-.426c-.854-.857-1.717-1.7-2.564-2.567a1.243,1.243,0,1,1,1.745-1.748c.488.468.977.937,1.431,1.438.254.281.4.276.664,0q2.107-2.152,4.256-4.264a1.235,1.235,0,0,1,2.166.5,1.182,1.182,0,0,1-.362,1.175q-2.73,2.749-5.475,5.481a1.41,1.41,0,0,1-.913.4" transform="translate(-10.571 -6.555)" fill="#040506"/>
    <path id="Trazado_614627" data-name="Trazado 614627" d="M37.525,44.4a1.554,1.554,0,0,1,.971.472c.472.484.973.942,1.427,1.441.252.278.394.283.664.007q2.107-2.153,4.256-4.265a1.235,1.235,0,0,1,2.166.5,1.18,1.18,0,0,1-.359,1.176q-2.73,2.749-5.48,5.477a1.2,1.2,0,0,1-1.806.023c-.916-.881-1.808-1.786-2.7-2.693a1.2,1.2,0,0,1-.268-1.413,1.258,1.258,0,0,1,1.127-.726" transform="translate(-10.57 -12.122)" fill="#040506"/>
    <path id="Trazado_614628" data-name="Trazado 614628" d="M35.909,79.739c-.188.829-.625,1.249-1.281,1.232-.636-.017-1.037-.422-1.219-1.232.167-.808.568-1.211,1.219-1.227.677-.016,1.108.4,1.281,1.227" transform="translate(-9.735 -22.878)" fill="#050607"/>
    <path id="Trazado_614629" data-name="Trazado 614629" d="M18.842,27.024c0-.778.012-1.556-.006-2.333-.006-.293.084-.384.38-.381q2.333.019,4.667,0c.293,0,.384.084.381.379q-.019,2.333,0,4.667c0,.293-.084.384-.379.381q-2.333-.019-4.667,0c-.293,0-.389-.083-.382-.379.018-.777.006-1.555.006-2.333" transform="translate(-5.488 -7.083)" fill="#c9cf46"/>
    <path id="Trazado_614630" data-name="Trazado 614630" d="M24.257,46.158c0,.758-.015,1.515.007,2.272.009.322-.086.417-.411.414q-2.3-.024-4.606,0c-.321,0-.417-.086-.413-.411q.024-2.3,0-4.606c0-.321.086-.417.411-.413q2.3.024,4.606,0c.321,0,.423.085.413.411-.023.777-.007,1.555-.007,2.333" transform="translate(-5.488 -12.65)" fill="#c9cf46"/>
    <path id="Trazado_614631" data-name="Trazado 614631" d="M18.842,65.174c0-.757.012-1.515-.006-2.272-.006-.295.087-.383.381-.381q2.333.019,4.666,0c.294,0,.383.087.381.381q-.019,2.332,0,4.665c0,.295-.087.383-.381.381q-2.333-.018-4.666,0c-.295,0-.388-.086-.381-.381.018-.8.006-1.6.006-2.394" transform="translate(-5.489 -18.218)" fill="#e45165"/>
  </g>
</svg>
