<svg id="Grupo_876472" data-name="Grupo 876472" xmlns="http://www.w3.org/2000/svg" xmlns:xlink="http://www.w3.org/1999/xlink" width="71.725" height="72.541" viewBox="0 0 71.725 72.541">
  <defs>
    <clipPath id="clip-path">
      <rect id="Rectángulo_324993" data-name="Rectángulo 324993" width="71.725" height="72.541" fill="none"/>
    </clipPath>
  </defs>
  <g id="Grupo_876471" data-name="Grupo 876471" transform="translate(0 0)" clip-path="url(#clip-path)">
    <path id="Trazado_614695" data-name="Trazado 614695" d="M4.3,72.541a13.062,13.062,0,0,1-1.414-.575A5.069,5.069,0,0,1,.047,67.637c-.022-.329-.025-.66-.025-.99Q.021,41.8,0,16.958a6.565,6.565,0,0,1,2.093-5.023C5.488,8.626,8.823,5.254,12.157,1.883A5.938,5.938,0,0,1,16.626.015C28.4.046,40.166.075,51.935,0a5.486,5.486,0,0,1,5.607,5.587c-.056,4.505-.02,9.012-.007,13.519a1.334,1.334,0,0,1-.711,1.343c-1.21.207-1.618-.129-1.623-1.416-.015-4.285,0-8.571-.006-12.856a7.721,7.721,0,0,0-.039-1.058A2.951,2.951,0,0,0,52.1,2.381c-2.024-.028-4.049-.011-6.073-.005q-14.436.015-28.873.005c-1.441,0-1.442,0-1.442,1.433,0,2.619-.093,5.243.026,7.857a4.036,4.036,0,0,1-4.127,4.163q-3.963,0-7.926,0c-1.28,0-1.281,0-1.281,1.288q0,24.813-.008,49.626a3.1,3.1,0,0,0,1.831,3.21,3.846,3.846,0,0,0,1.6.232q8.67,0,17.338,0,11.393,0,22.785,0c2.1.038,4.2.047,6.3,0A2.989,2.989,0,0,0,55.2,67.175c.031-.471-.025-.946.043-1.414a1.025,1.025,0,0,1,1.168-1.017c.9.239,1.086.511,1.127,1.417a6.167,6.167,0,0,1-1.367,4.651,6.819,6.819,0,0,1-2.879,1.729Z" transform="translate(0 0)" fill="#040506"/>
    <path id="Trazado_614696" data-name="Trazado 614696" d="M61.992,26.436a4.892,4.892,0,0,1,3.571,1.852,1.943,1.943,0,0,0,2.055.574,4.242,4.242,0,0,1,5.314,2.944,6.919,6.919,0,0,1,.2,1.18,1.886,1.886,0,0,0,1.278,1.707,4.34,4.34,0,0,1,2.128,6.561,1.886,1.886,0,0,0,.011,2.2,4.328,4.328,0,0,1-2.1,6.516,1.962,1.962,0,0,0-1.333,1.823,4.211,4.211,0,0,1-3.37,4.081c-.444.111-.286.433-.287.677-.011,2.925,0,5.849-.01,8.774a2.344,2.344,0,0,1-1.9,2.522,2.22,2.22,0,0,1-1.677-.366c-1.105-.671-2.2-1.355-3.308-2.024-.183-.111-.329-.324-.592-.262a3.39,3.39,0,0,1-1.12.844c-.786.523-1.616.975-2.405,1.493a2.5,2.5,0,0,1-2.8.178,2.538,2.538,0,0,1-1.227-2.393c0-2.667-.025-5.334.017-8,.012-.809-.126-1.391-1.021-1.545a1.5,1.5,0,0,1-.318-.151,4.526,4.526,0,0,1-2.34-3.726,2.074,2.074,0,0,0-1.406-1.851,4.45,4.45,0,0,1-2.761-3.576,3.7,3.7,0,0,1,.5-2.581,2.663,2.663,0,0,0,.025-3.029,4.291,4.291,0,0,1,1.9-6,2.868,2.868,0,0,0,1.822-2.518A4.1,4.1,0,0,1,53,29.113a4,4,0,0,1,3.187-.473,2.148,2.148,0,0,0,2.356-.673,4.427,4.427,0,0,1,2.4-1.517,2.145,2.145,0,0,1,1.046-.014" transform="translate(-5.579 -3.162)" fill="#040506"/>
    <path id="Trazado_614697" data-name="Trazado 614697" d="M62.687,23.567a4.981,4.981,0,0,0-3.543,1.9,1.719,1.719,0,0,1-1.851.578,4.755,4.755,0,0,0-3.539.334,1.443,1.443,0,0,1-.217-1.079c-.01-3.184,0-6.368-.011-9.55a1.059,1.059,0,0,1,.4-.787,2.219,2.219,0,0,0,.629-1.725,19.925,19.925,0,0,1,.007-2.316,3.736,3.736,0,0,0-.934-2.906,10.329,10.329,0,0,1-.065-1.895,4.753,4.753,0,0,0-1.029-3.144.562.562,0,0,1-.193-.5c2.1-.007,4.193-.044,6.289-.011a3.141,3.141,0,0,1,3.028,3.329c.01,4.549,0,9.1.005,13.647,0,1.039.371,1.369,1.43,1.306a.673.673,0,0,0-.43.749c.04.69.017,1.384.019,2.076" transform="translate(-6.274 -0.293)" fill="#def1fc"/>
    <path id="Trazado_614698" data-name="Trazado 614698" d="M53.758,59.4a1.349,1.349,0,0,0,.388.145c1.281.062,1.192.941,1.181,1.855-.032,2.643,0,5.284-.017,7.926a2.29,2.29,0,0,0,3.618,2.059c1.244-.749,2.437-1.587,3.741-2.238q.007,1.356.012,2.713a1.227,1.227,0,0,0-1.027,1.44,6.223,6.223,0,0,1-.085,1.754,3.08,3.08,0,0,1-2.879,2.463c-2.115.035-4.23,0-6.345-.008a.689.689,0,0,1,.222-.572,4.84,4.84,0,0,0,.973-3.176q0-6.607,0-13.214c0-.39-.09-.809.214-1.148" transform="translate(-6.274 -7.121)" fill="#def1fc"/>
    <path id="Trazado_614699" data-name="Trazado 614699" d="M47.776,52.575c0,4.735-.012,9.468.007,14.2a5.023,5.023,0,0,1-1.42,3.908c-.235.008-.471.022-.706.022-13.212,0-26.425-.021-39.637.026a3.416,3.416,0,0,1-3.587-3.592c.051-16.71.028-33.419.028-50.128,0-1.139,0-1.139,1.169-1.139q4.07,0,8.14,0a3.727,3.727,0,0,0,4.075-4.088c.007-2.88.012-5.759-.009-8.638,0-.5.107-.71.658-.71q14.9.028,29.8.022a.391.391,0,0,1,.07.011,5.086,5.086,0,0,1,1.415,4.2c-.019.448-.015.9-.021,1.344a9,9,0,0,1-1.673-.122q-10.532.028-21.066.012a2.481,2.481,0,0,0-1.5.3A2.063,2.063,0,0,0,22.51,9.965c0,1.178-.024,2.357.005,3.535a2.032,2.032,0,0,0,1.677,2.075,6.731,6.731,0,0,0,2.179.07c.6-.052.836-.555,1.162-.947a5.618,5.618,0,0,1,2.833,0,1.937,1.937,0,0,0,2,.992q6.667-.036,13.336,0a6.892,6.892,0,0,1,1.881-.1c.277.178.188.46.189.706q.005,5.036,0,10.076a4.61,4.61,0,0,0-2.139,3.768,2.065,2.065,0,0,1-1.487,1.8,4.156,4.156,0,0,0-2.671,3.527,3.831,3.831,0,0,0,.613,2.625,2.4,2.4,0,0,1,0,2.77,4.166,4.166,0,0,0,2,6.112,2.343,2.343,0,0,1,1.587,2.186,4.375,4.375,0,0,0,2.1,3.417" transform="translate(-0.292 -0.292)" fill="#f1f6fb"/>
    <path id="Trazado_614700" data-name="Trazado 614700" d="M4.4,13.971l9.5-9.5c.129.07.024.283.025.447q.012,3.612,0,7.222c0,1.267-.53,1.82-1.8,1.828-2.569.017-5.139.005-7.728.005" transform="translate(-0.527 -0.535)" fill="#da6a74"/>
    <path id="Trazado_614701" data-name="Trazado 614701" d="M61.785,30.246a2.6,2.6,0,0,1,1.42-1.209,2.092,2.092,0,0,1,2.294.7,4.3,4.3,0,0,0,4.618,1.508,2.028,2.028,0,0,1,2.633,1.886,4.386,4.386,0,0,0,2.9,3.977,2.04,2.04,0,0,1,1.02,3.045,4.391,4.391,0,0,0-.008,4.978,2.04,2.04,0,0,1-.993,3.054,4.417,4.417,0,0,0-2.926,4.038,1.991,1.991,0,0,1-2.47,1.864A4.55,4.55,0,0,0,65.4,55.649a2.048,2.048,0,0,1-3.167-.033c-.158-.173-.293-.366-.438-.55.146-.422.553-.557.874-.774a13.511,13.511,0,0,0,3.192-3.035c.794-.461,1.717-.626,2.5-1.141a8.729,8.729,0,0,0-1.643-15.7,2.148,2.148,0,0,1-.7-.323,15.589,15.589,0,0,0-3.872-3.434.688.688,0,0,1-.356-.417" transform="translate(-7.407 -3.47)" fill="#ffc44e"/>
    <path id="Trazado_614702" data-name="Trazado 614702" d="M60.274,30.423a13.976,13.976,0,0,1,4.284,3.727c-.278.231-.584.1-.88.066A8.695,8.695,0,1,0,62.129,51.5a9.393,9.393,0,0,0,1.765-.072.536.536,0,0,1,.529.11,9.068,9.068,0,0,1-2.239,2.384,18.439,18.439,0,0,1-1.9,1.325,4.647,4.647,0,0,0-4.277-1A2.056,2.056,0,0,1,53.4,52.295a4.256,4.256,0,0,0-2.85-3.91,2.057,2.057,0,0,1-1.021-3.1,4.381,4.381,0,0,0,0-4.914,2.042,2.042,0,0,1,.948-3.066A4.363,4.363,0,0,0,53.41,33.3a2.047,2.047,0,0,1,2.653-1.878,4.576,4.576,0,0,0,4.211-1" transform="translate(-5.896 -3.647)" fill="#ffd767"/>
    <path id="Trazado_614703" data-name="Trazado 614703" d="M68.654,64.733c0,1.438,0,2.877-.005,4.315,0,.2.114.458-.119.573-.187.092-.341-.109-.5-.2-1.085-.661-2.171-1.32-3.245-2a2.372,2.372,0,0,0-2.775.013c-1.088.7-2.206,1.355-3.3,2.046-.444.281-.591.223-.588-.334q.028-4.457,0-8.914c0-.492.195-.564.581-.482a2.43,2.43,0,0,1,1.314.771c2.108,2.276,4.709,2.267,6.784,0a2.615,2.615,0,0,1,.475-.418c.379-.253.84-.516,1.246-.313.319.159.119.649.123.987.018,1.32.008,2.641.008,3.961" transform="translate(-6.968 -7.158)" fill="#e79d38"/>
    <path id="Trazado_614704" data-name="Trazado 614704" d="M30.248,15.483c-.24.863-.518,1.1-1.38,1.1a9.117,9.117,0,0,1-2.042-.077,2.262,2.262,0,0,1-1.866-2.178c-.042-1.153-.033-2.309-.015-3.464a2.312,2.312,0,0,1,2.528-2.485q7.53-.009,15.06,0c2.05,0,4.1.011,6.15-.006a3.59,3.59,0,0,1,1.771.357,2.771,2.771,0,0,1,1.037,2.47,20,20,0,0,0,0,2.527,2.727,2.727,0,0,1-1.211,2.586,5.052,5.052,0,0,1-1.8.287c-4.645-.011-9.291-.005-13.937-.007-1.009,0-1.3-.216-1.51-1.1a.967.967,0,0,1,.819-1.156,4.473,4.473,0,0,1,1.057-.061q6.5,0,13.011,0c1.149,0,1.19-.043,1.194-1.19,0-.542-.01-1.084,0-1.626.01-.516-.228-.732-.729-.7-.165.01-.33,0-.5,0H28.59c-.236,0-.471,0-.707.013a.491.491,0,0,0-.532.526c-.027.8-.023,1.6,0,2.4.01.378.209.544.576.564.448.025.9-.02,1.342.045a1.015,1.015,0,0,1,.98,1.186" transform="translate(-2.989 -1.003)" fill="#040506"/>
    <path id="Trazado_614705" data-name="Trazado 614705" d="M30.527,15.762a1.146,1.146,0,0,0-1.355-1.031.626.626,0,0,1-.07,0c-1.748-.017-1.758-.017-1.744-1.732.006-.7-.3-1.621.115-2.056.448-.473,1.382-.151,2.1-.152,6.441-.012,12.881,0,19.322-.02.582,0,.785.136.746.738a20.4,20.4,0,0,0,0,2.477c.035.6-.17.761-.755.759-4.152-.022-8.3-.012-12.456-.012-.613,0-1.228.014-1.84,0a1.115,1.115,0,0,0-1.274,1.033H30.527" transform="translate(-3.268 -1.281)" fill="#bfdaf4"/>
    <path id="Trazado_614706" data-name="Trazado 614706" d="M23.725,39.83q-6.683,0-13.366,0c-.973,0-1.513-.741-1.13-1.513a1.1,1.1,0,0,1,.9-.606,3.7,3.7,0,0,1,.495-.01q13.154,0,26.308,0a1.974,1.974,0,0,1,.767.076,1,1,0,0,1,.7,1.164.943.943,0,0,1-.943.876c-.422.029-.848.013-1.273.013H23.725" transform="translate(-1.091 -4.519)" fill="#050506"/>
    <path id="Trazado_614707" data-name="Trazado 614707" d="M23.77,46.205c4.432,0,8.864.005,13.3-.007a1.2,1.2,0,0,1,1.276.672,1.071,1.071,0,0,1-.828,1.447,3.726,3.726,0,0,1-.635.017H10.64c-.165,0-.331.011-.495,0A1.116,1.116,0,0,1,9.1,47.274a1.055,1.055,0,0,1,1.09-1.061c1.367-.019,2.735-.009,4.1-.009H23.77" transform="translate(-1.091 -5.538)" fill="#040506"/>
    <path id="Trazado_614708" data-name="Trazado 614708" d="M23.82,54.687q6.47,0,12.94,0a5.171,5.171,0,0,1,.775.032.934.934,0,0,1,.863.952.943.943,0,0,1-.728,1.064,2.871,2.871,0,0,1-.767.085q-13.153.007-26.306,0a2.525,2.525,0,0,1-.764-.1,1.036,1.036,0,0,1,.2-2.013c.257-.026.518-.025.777-.025H23.82" transform="translate(-1.093 -6.556)" fill="#050607"/>
    <path id="Trazado_614709" data-name="Trazado 614709" d="M23.725,29.241q6.647,0,13.294,0c.911,0,1.34.3,1.378.965a.959.959,0,0,1-.839,1.116,4.554,4.554,0,0,1-.842.058q-12.94,0-25.881,0a4,4,0,0,1-.98-.089.949.949,0,0,1-.738-1,.967.967,0,0,1,.822-1,4.122,4.122,0,0,1,.774-.049q6.506,0,13.011,0" transform="translate(-1.093 -3.505)" fill="#070708"/>
    <path id="Trazado_614710" data-name="Trazado 614710" d="M17.038,67.116q3.252,0,6.5,0c.851,0,1.306.365,1.32,1.031s-.5,1.1-1.349,1.1q-6.5.005-13,0c-.87,0-1.389-.4-1.406-1.055s.492-1.072,1.363-1.074q3.287-.005,6.574,0" transform="translate(-1.091 -8.046)" fill="#050506"/>
    <path id="Trazado_614711" data-name="Trazado 614711" d="M65,52.012a9.77,9.77,0,0,1-5.6-.528,8.908,8.908,0,0,1,2.154-16.993,11.112,11.112,0,0,1,3.583.136,9.313,9.313,0,0,1,5.382,4.056,8.914,8.914,0,0,1-5.2,13.2,2.839,2.839,0,0,0-.318.131" transform="translate(-6.476 -4.124)" fill="#040506"/>
    <path id="Trazado_614712" data-name="Trazado 614712" d="M67.432,48.822a6.741,6.741,0,1,1-.018-10.48,6.349,6.349,0,0,1,1.007,3.034,14.22,14.22,0,0,1-.3,5.929,3.072,3.072,0,0,1-.69,1.516" transform="translate(-6.767 -4.417)" fill="#e79d38"/>
    <path id="Trazado_614713" data-name="Trazado 614713" d="M68.926,49.027a14.568,14.568,0,0,0-.018-10.48,6.7,6.7,0,0,1,.018,10.48" transform="translate(-8.261 -4.621)" fill="#e3911c"/>
  </g>
</svg>
