<svg xmlns="http://www.w3.org/2000/svg" xmlns:xlink="http://www.w3.org/1999/xlink" width="61.397" height="61.381" viewBox="0 0 61.397 61.381">
  <defs>
    <clipPath id="clip-path">
      <rect id="Rectángulo_324972" data-name="Rectángulo 324972" width="61.397" height="61.381" fill="none"/>
    </clipPath>
  </defs>
  <g id="Grupo_876401" data-name="Grupo 876401" transform="translate(0 0)">
    <g id="Grupo_876400" data-name="Grupo 876400" transform="translate(0 0)" clip-path="url(#clip-path)">
      <path id="Trazado_614129" data-name="Trazado 614129" d="M42.866,0h.239a.916.916,0,0,0,.718,0H46.1c.584.121,1.186.049,1.77.167a16.583,16.583,0,0,1,8.187,4.217,16.762,16.762,0,0,1,5.034,8.8,18.936,18.936,0,0,1,.229,5.3A15.692,15.692,0,0,1,56.194,29.1a16.529,16.529,0,0,1-10.023,4.618,16.87,16.87,0,0,1-7.859-1.1c-.4-.154-.558-.061-.547.363.057,2.212-.126,4.428.112,6.637a13.636,13.636,0,0,0,1.311,4.517,5.2,5.2,0,0,1-2.958,7.2,5.068,5.068,0,0,1-1.111.223c-.605.066-.654.133-.536.715a9.689,9.689,0,0,1,.193,2.08,2.967,2.967,0,0,1-1.354,2.589,1.132,1.132,0,0,0-.574,1.084,3.515,3.515,0,0,1-.6,2.095,2.708,2.708,0,0,1-2.425,1.26c-4.528-.014-9.057-.005-13.585-.005q-3.233,0-6.464,0A2.865,2.865,0,0,1,6.792,58.4a1.637,1.637,0,0,0-.762-1.54,3.278,3.278,0,0,1-1.25-3.294c.048-.415.106-.831.184-1.243.117-.621.063-.7-.558-.765a4.994,4.994,0,0,1-2.571-1.039A4.5,4.5,0,0,1,0,47.425V45.509a7.208,7.208,0,0,1,.679-2.142A12.616,12.616,0,0,0,1.741,38.2q-.019-4.751.005-9.5a.907.907,0,0,0-.65-1.035A1.654,1.654,0,0,1,0,26.227V23.234a2.021,2.021,0,0,1,2.153-1.675c.579-.047.728-.3.8-.8A14.958,14.958,0,0,1,16.007,7.875a.775.775,0,0,0,.739-.572,2.281,2.281,0,0,1,2.294-1.585,12.367,12.367,0,0,1,1.5,0A2.341,2.341,0,0,1,22.82,7.335a.72.72,0,0,0,.7.529,13.973,13.973,0,0,1,4.96,1.473c.606.3.638.281.958-.317A16.831,16.831,0,0,1,40.922.2c.641-.15,1.3-.072,1.944-.2" transform="translate(0 0)" fill="#040506"/>
      <path id="Trazado_614130" data-name="Trazado 614130" d="M0,28.694a2.151,2.151,0,0,0,1.725,1.45c.356.038.213.335.213.521.01,2.132.008,4.264.006,6.4,0,1.256-.005,2.511-.007,3.767a12.925,12.925,0,0,1-.975,4.813C.65,46.423.321,47.2,0,47.976V28.694" transform="translate(0 -2.467)" fill="#fff"/>
      <path id="Trazado_614131" data-name="Trazado 614131" d="M47.878,0a.534.534,0,0,1-.718,0Z" transform="translate(-4.054 0)" fill="#1e1f23"/>
      <path id="Trazado_614132" data-name="Trazado 614132" d="M47.337,2.192A14.814,14.814,0,1,1,32.468,16.83,14.775,14.775,0,0,1,47.337,2.192" transform="translate(-2.791 -0.189)" fill="#ea695c"/>
      <path id="Trazado_614133" data-name="Trazado 614133" d="M20.536,30.285c3.751,0,7.5.009,11.253-.012.476,0,.59.129.587.594-.022,2.753,0,5.507-.013,8.261a8.889,8.889,0,0,1-8.939,8.97q-2.9.019-5.806,0a8.929,8.929,0,0,1-8.965-8.968c-.013-2.753.008-5.507-.013-8.261,0-.46.1-.6.584-.6,3.77.022,7.541.012,11.312.012" transform="translate(-0.743 -2.603)" fill="#efc5a4"/>
      <path id="Trazado_614134" data-name="Trazado 614134" d="M10.25,47.719c-.313.232-.6.439-.879.653A9.577,9.577,0,0,0,6.7,51.4a1.148,1.148,0,0,1-1.221.675,3.11,3.11,0,0,1-2.984-1.714,2.835,2.835,0,0,1-.025-2.6,17.191,17.191,0,0,0,1.684-8.04c-.057-2.951,0-5.9-.024-8.854,0-.477.133-.605.6-.6,1.35.021,1.35,0,1.35,1.343,0,2.413-.007,4.826,0,7.238a11.124,11.124,0,0,0,2.506,7.244,10.985,10.985,0,0,0,1.661,1.624" transform="translate(-0.186 -2.603)" fill="#535b66"/>
      <path id="Trazado_614135" data-name="Trazado 614135" d="M36.426,32.494c.642.451,1.2.847,1.77,1.241.227.158.158.392.159.6,0,1.955.016,3.91,0,5.865a16.277,16.277,0,0,0,1.608,7.518,3.032,3.032,0,0,1-1.387,4.247,4.922,4.922,0,0,1-2.173.281c-.229,0-.287-.184-.372-.337a10.278,10.278,0,0,0-3.351-3.675c-.375-.248-.333-.38-.035-.643a10.723,10.723,0,0,0,3.595-6.313,10.42,10.42,0,0,0,.186-1.839q0-3.142,0-6.284v-.662" transform="translate(-2.786 -2.794)" fill="#535b66"/>
      <path id="Trazado_614136" data-name="Trazado 614136" d="M17.261,16.744c0,1.775-.016,3.55.011,5.325.007.473-.082.656-.608.643-1.348-.036-1.349-.008-1.349-1.377,0-1.475.005-2.951,0-4.428a1.969,1.969,0,0,0-2.013-2.12c-.637-.026-1.276-.024-1.914,0a1.971,1.971,0,0,0-2.031,2.105c-.015,1.735-.024,3.471.007,5.205.01.509-.145.634-.634.612-.895-.041-1.8-.038-2.691,0-.459.019-.594-.108-.528-.565A12.95,12.95,0,0,1,16.829,10.913c.356-.046.441.041.439.387-.014,1.815-.006,3.63-.006,5.445" transform="translate(-0.472 -0.938)" fill="#ffe495"/>
      <path id="Trazado_614137" data-name="Trazado 614137" d="M30.409,27.954H29.72q-13.408,0-26.816.012c-.55,0-.762-.091-.739-.7.051-1.3.015-1.3,1.317-1.3q12.66,0,25.32-.009a.736.736,0,0,1,.813.489c.207.489.491.945.792,1.513" transform="translate(-0.186 -2.231)" fill="#ffcc59"/>
      <path id="Trazado_614138" data-name="Trazado 614138" d="M24.887,16.794c0-1.834.007-3.668-.007-5.5,0-.335.066-.447.428-.4a13.829,13.829,0,0,1,4.8,1.536c.338.185.512.352.352.782-.178.478-.111,1.124-.413,1.459s-.946.065-1.439.128a1.987,1.987,0,0,0-1.759,2.125c-.014,1.734-.016,3.469.005,5.2.005.426-.076.589-.548.582-1.414-.021-1.414,0-1.414-1.43V16.794" transform="translate(-2.139 -0.936)" fill="#ffe495"/>
      <path id="Trazado_614139" data-name="Trazado 614139" d="M22.51,15.6c0,2.132-.008,4.265.007,6.4,0,.376-.08.515-.49.516-1.464,0-1.464.022-1.464-1.44,0-3.946.007-7.892-.01-11.838,0-.449.086-.609.575-.6,1.381.032,1.382.007,1.382,1.4V15.6" transform="translate(-1.767 -0.743)" fill="#ffcc59"/>
      <path id="Trazado_614140" data-name="Trazado 614140" d="M11.54,51.407c0,2.783,0,5.407,0,8.031,0,.256-.083.355-.342.351-.9-.013-1.792.008-2.687-.021a.874.874,0,0,1-.915-.9,8.881,8.881,0,0,1,3.94-7.459" transform="translate(-0.653 -4.42)" fill="#afc96a"/>
      <path id="Trazado_614141" data-name="Trazado 614141" d="M31.47,51.527a8.835,8.835,0,0,1,2.984,3.488,8.489,8.489,0,0,1,.85,3.627c.005.781-.324,1.137-1.106,1.151s-1.595-.006-2.393.008c-.3.005-.425-.066-.423-.395.013-2.573.009-5.146.014-7.719,0-.034.03-.068.074-.16" transform="translate(-2.698 -4.43)" fill="#afc96a"/>
      <path id="Trazado_614142" data-name="Trazado 614142" d="M25.417,51.9c-1.364,1.2-2.634,2.308-3.9,3.425-.17.15-.292.218-.5.034-1.276-1.131-2.565-2.248-3.942-3.451,2.819.043,5.513.056,8.342-.007" transform="translate(-1.468 -4.462)" fill="#efc4a4"/>
      <path id="Trazado_614143" data-name="Trazado 614143" d="M13.856,20.243c0,.857-.015,1.716.007,2.572.008.345-.111.431-.444.439-1.505.034-1.505.045-1.505-1.458,0-1.336.016-2.673-.009-4.008-.007-.4.117-.493.5-.492,1.451,0,1.451-.012,1.451,1.451v1.5" transform="translate(-1.023 -1.487)" fill="#ffcc59"/>
      <path id="Trazado_614144" data-name="Trazado 614144" d="M17.065,58.434c.856,0,1.71.009,2.566-.005.277,0,.366.073.381.365.081,1.594.091,1.593-1.484,1.593-1.333,0-2.665-.01-4,.007-.356,0-.476-.094-.483-.467-.027-1.493-.041-1.493,1.467-1.493h1.551" transform="translate(-1.207 -5.023)" fill="#9cbe54"/>
      <path id="Trazado_614145" data-name="Trazado 614145" d="M25.695,58.434c.818,0,1.636.015,2.453-.007.36-.009.518.049.517.474,0,1.485.016,1.486-1.48,1.486-1.317,0-2.633-.01-3.95.005-.361,0-.526-.057-.53-.483-.014-1.476-.032-1.476,1.434-1.476h1.556" transform="translate(-1.952 -5.023)" fill="#9cbe54"/>
      <path id="Trazado_614146" data-name="Trazado 614146" d="M17.029,64.714c-.856,0-1.711-.01-2.567.005-.308.005-.4-.1-.417-.41-.071-1.549-.081-1.548,1.468-1.548,1.354,0,2.706.01,4.059-.007.336,0,.431.089.437.43.027,1.531.039,1.531-1.488,1.531H17.029" transform="translate(-1.205 -5.395)" fill="#afc96a"/>
      <path id="Trazado_614147" data-name="Trazado 614147" d="M25.682,64.713c-.836,0-1.672-.017-2.506.007-.375.012-.463-.123-.47-.479-.023-1.482-.036-1.482,1.415-1.482,1.353,0,2.7.016,4.056-.01.4-.008.485.124.485.5,0,1.462.01,1.462-1.43,1.462h-1.55" transform="translate(-1.951 -5.395)" fill="#afc96a"/>
      <path id="Trazado_614148" data-name="Trazado 614148" d="M14.058,52.164l4.185,3.653a6.369,6.369,0,0,1-1.5.067c-.755.015-1.51.005-2.266,0-.194,0-.419.043-.418-.271,0-1.1,0-2.207,0-3.452" transform="translate(-1.208 -4.485)" fill="#afc86a"/>
      <path id="Trazado_614149" data-name="Trazado 614149" d="M28.811,52.163c0,1.248,0,2.355,0,3.464,0,.219-.111.261-.3.261-1.268,0-2.536,0-3.959,0l4.253-3.724" transform="translate(-2.111 -4.485)" fill="#afc96a"/>
      <path id="Trazado_614150" data-name="Trazado 614150" d="M29.211,20.292c0-.856.033-1.714-.012-2.568-.027-.511.277-.406.565-.421s.469.011.445.406a15.682,15.682,0,0,0,.611,5.128c.1.342.03.4-.3.416-1.309.052-1.309.061-1.309-1.228V20.292" transform="translate(-2.51 -1.488)" fill="#ffcc59"/>
      <path id="Trazado_614151" data-name="Trazado 614151" d="M10.682,62.757c1.028,0,1.028,0,1.028.943,0,1.069-.172,1.207-1.219.982-.6-.128-1.124-1.37-.728-1.82.232-.264.642-.051.919-.105" transform="translate(-0.827 -5.393)" fill="#edc3a3"/>
      <path id="Trazado_614152" data-name="Trazado 614152" d="M32.381,62.757c.02,0,.044-.007.059,0,.3.156.9-.388.914.41.023,1.068-.23,1.478-.979,1.536-.983.077-.983.077-.983-.889v-.059c0-1,0-1,.989-1" transform="translate(-2.699 -5.392)" fill="#efc5a4"/>
      <path id="Trazado_614153" data-name="Trazado 614153" d="M53.889,21.324c-.6,0-1.2.022-1.8-.008-.382-.019-.47.126-.463.483.02,1.078-.009,2.155.01,3.232a3.022,3.022,0,0,1-3.215,3.212c-.6-.039-1.2,0-1.8-.009a2.865,2.865,0,0,1-2.9-2.748c-.066-1.174-.046-2.354-.019-3.53.012-.483-.1-.664-.619-.643-1.057.04-2.115.021-3.172.01a2.938,2.938,0,0,1-3.129-3.147c-.006-.6-.012-1.2,0-1.8a2.965,2.965,0,0,1,3.063-2.99c1.117-.018,2.235-.022,3.352.006.406.01.507-.125.5-.508-.023-1.077-.017-2.154-.005-3.232a2.94,2.94,0,0,1,2.94-3.168,14.17,14.17,0,0,1,2.211.023,2.947,2.947,0,0,1,2.78,3.026q.03,1.675,0,3.352c-.009.379.083.517.49.506,1.076-.028,2.153-.016,3.23-.007a2.993,2.993,0,0,1,3.187,3,12.663,12.663,0,0,1-.043,2.39,2.858,2.858,0,0,1-2.573,2.5c-.674.054-1.356.009-2.033.009v.033" transform="translate(-3.162 -0.555)" fill="#040506"/>
      <path id="Trazado_614154" data-name="Trazado 614154" d="M27.249,41.122a6.947,6.947,0,0,1-2.394,4.6A6.069,6.069,0,0,1,15.2,42.531c-.39-1.409-.39-1.409,1.052-1.409h11Z" transform="translate(-1.287 -3.535)" fill="#040506"/>
      <path id="Trazado_614155" data-name="Trazado 614155" d="M30.718,36.437a3.03,3.03,0,0,0-.418,0c-.4.058-.563-.059-.652-.5a1.939,1.939,0,0,0-3.788.036c-.088.4-.261.516-.64.465a5.508,5.508,0,0,0-.717-.005c-.759,0-.779-.024-.649-.757a3.976,3.976,0,0,1,7.858.369c.025.273-.028.418-.338.391-.218-.019-.438,0-.657,0" transform="translate(-2.046 -2.792)" fill="#050506"/>
      <path id="Trazado_614156" data-name="Trazado 614156" d="M17.726,36.437a4.632,4.632,0,0,0-.478,0c-.345.037-.488-.055-.568-.449a1.945,1.945,0,0,0-3.809,0c-.083.354-.21.5-.579.456a5.674,5.674,0,0,0-.717-.005c-.829,0-.848-.023-.693-.821a3.974,3.974,0,0,1,7.842.441c.027.288-.044.408-.343.384-.218-.017-.438,0-.657,0" transform="translate(-0.929 -2.792)" fill="#050506"/>
      <path id="Trazado_614157" data-name="Trazado 614157" d="M42.782,15.589c.877,0,1.757-.022,2.633.01.387.014.457-.117.453-.472-.018-1.716-.01-3.432-.007-5.148,0-.993.335-1.325,1.328-1.328.518,0,1.037-.013,1.556,0a.989.989,0,0,1,1.062,1.1c.007,1.776.017,3.552-.008,5.328-.006.428.117.526.531.521,1.735-.024,3.472-.012,5.207-.009.839,0,1.2.357,1.208,1.193q.008.777,0,1.556c-.01.824-.382,1.2-1.217,1.2-1.736.006-3.472.017-5.207-.009-.424-.006-.526.109-.521.526.026,1.736.014,3.472.01,5.208,0,.833-.357,1.185-1.21,1.2-.5.01-1,.009-1.5,0-.873-.014-1.239-.377-1.24-1.243-.005-1.717-.022-3.433.011-5.149.009-.466-.133-.55-.563-.543-1.7.026-3.392.013-5.088.009-.918,0-1.274-.354-1.286-1.259-.006-.519-.012-1.038,0-1.557a1.019,1.019,0,0,1,1.15-1.134c.9-.006,1.8,0,2.694,0" transform="translate(-3.347 -0.744)" fill="#e0e4e9"/>
      <path id="Trazado_614158" data-name="Trazado 614158" d="M24.765,43.324a3.972,3.972,0,0,1-3.576,1.925,3.928,3.928,0,0,1-3.323-1.925Z" transform="translate(-1.536 -3.725)" fill="#e9685b"/>
    </g>
  </g>
</svg>
