<svg xmlns="http://www.w3.org/2000/svg" xmlns:xlink="http://www.w3.org/1999/xlink" width="55.567" height="67.762" viewBox="0 0 55.567 67.762">
  <defs>
    <clipPath id="clip-path">
      <rect id="Rectángulo_324970" data-name="Rectángulo 324970" width="55.567" height="67.762" fill="none"/>
    </clipPath>
  </defs>
  <g id="Grupo_876397" data-name="Grupo 876397" transform="translate(0 0)">
    <g id="Grupo_876396" data-name="Grupo 876396" transform="translate(0 0)" clip-path="url(#clip-path)">
      <path id="Trazado_614069" data-name="Trazado 614069" d="M54.65,55.3a1.062,1.062,0,0,1,.912,1.177c0,2.942.012,5.884-.006,8.827a2.615,2.615,0,0,1-1.832,2.461H1.854A2.923,2.923,0,0,1,0,64.695Q.037,33.746.017,2.8A2.529,2.529,0,0,1,1.779.093,2.258,2.258,0,0,1,2.5.009q2.777,0,5.554,0c.8,0,1.065.231,1.231,1.057.033.71-.272.988-1.229,1.123-1.588.037-3.175,0-4.762.019-.947.01-1.062.128-1.087,1.068-.006.2,0,.4,0,.595V63.933c0,1.63,0,1.63,1.643,1.63H51.8c1.58,0,1.575,0,1.583-1.568.013-2.624.018-5.246.042-7.87.246-.807.521-.992,1.227-.827" transform="translate(0 0)" fill="#040506"/>
      <path id="Trazado_614070" data-name="Trazado 614070" d="M54.8,55.313A1.11,1.11,0,0,0,53.718,56c-.1,1.562-.019,3.126-.043,4.689-.011.716-.062.775-.787.81-.22.01-.441,0-.661,0q-17.822,0-35.643,0a3.524,3.524,0,0,1-1.245-.1c-.347-.21-.285-.565-.289-.883-.015-1.094-.013-2.19,0-3.285a2.54,2.54,0,0,0-1.8-2.677,9.39,9.39,0,0,0-2.232-.092c-.66-.025-1.32,0-1.98-.009-.716-.014-.854-.15-.881-.844a2.223,2.223,0,0,1,.068-.784c.166-.357.5-.308.8-.312,1.078-.013,2.157,0,3.235-.007,1.882-.016,2.787-.929,2.8-2.821.006-.969.015-1.937,0-2.905a1.537,1.537,0,0,1,.631-1.307c.857-.69,1.647-1.459,2.5-2.156a3.889,3.889,0,0,0,.469-.465c.381-.444.413-.84.082-1.173a.783.783,0,0,0-1.13-.021c-.694.508-1.3,1.122-1.958,1.671-.084.07-.162.149-.239.227-.56.552-1.136.978-1.95.422a2.2,2.2,0,0,0-.768-.186c-1.189-.12-2.379-.021-3.569-.053-.822-.023-1.009-.221-.965-1.037.032-.612.179-.77.813-.782,1.08-.021,2.16,0,3.241-.008a2.07,2.07,0,0,0,.783-.081,2.515,2.515,0,0,0,2.052-2.817c0-1.056.014-2.112,0-3.168a2.43,2.43,0,0,0-2.66-2.683c-1.078-.022-2.156,0-3.234-.01-.319,0-.674.063-.9-.273a2.451,2.451,0,0,1-.106-.979q0-14.4,0-28.805A1.427,1.427,0,0,1,8.356,2.03a1.12,1.12,0,0,0,1.075-.949c.529,0,1.057-.013,1.585,0a.635.635,0,0,0,.623-.27c.417.914,1.188,1,2.081.993q12.918-.032,25.836-.01a2.219,2.219,0,0,1,1.226.159,1.449,1.449,0,0,1,.2,1.013c.007,2.36,0,4.719,0,7.079a4.093,4.093,0,0,0,4.45,4.451c2.315.007,4.631,0,6.945,0,1.4,0,1.415.018,1.415,1.389q0,17.629,0,35.258a6.136,6.136,0,0,0,.03.987c.1.481.591.62.842.969a7.672,7.672,0,0,0,.131,2.206" transform="translate(-0.15 -0.015)" fill="#f8f4f3"/>
      <path id="Trazado_614071" data-name="Trazado 614071" d="M54.736,53.091a1.26,1.26,0,0,1-.945-.682,2.333,2.333,0,0,1-.043-.787q0-18.057.006-36.115c0-.623-.183-1.217-.187-1.834a.441.441,0,0,0-.457-.462,6.2,6.2,0,0,0-.661-.023q-3.505,0-7.011,0c-2.17,0-3.082-.923-3.086-3.113,0-2.294,0-4.587,0-6.879,0-.921-.008-.923-.886-.994a1.033,1.033,0,0,1-.622-.185c-1.035-.007-2.072-.021-3.107-.021q-12.371,0-24.743,0c-.926,0-1.215-.272-1.285-1.191A1.094,1.094,0,0,1,12.9,0Q28.178.016,43.45,0A1.385,1.385,0,0,1,44.5.436q5.394,5.406,10.8,10.8a1.558,1.558,0,0,1,.481,1.177q-.01,19.671-.007,39.343c0,.859-.228,1.142-1.041,1.336" transform="translate(-0.216 0)" fill="#040506"/>
      <path id="Trazado_614072" data-name="Trazado 614072" d="M15.1,61.307q18.885,0,37.769.018c.492,0,.651-.134.639-.633-.031-1.322-.015-2.645-.007-3.968,0-.235-.08-.489.108-.7q-.012,4.367-.022,8.733c0,1.03-.026,1.056-1.017,1.056H3.08c-.971,0-1.01-.037-1.01-1V3.019c0-.957.034-.991,1.015-.988q2.579.007,5.159.021V32.99c-.186.255-.49.275-.754.372a2.222,2.222,0,0,0-1.563,2.145c-.024,1.342-.032,2.685,0,4.027A2.193,2.193,0,0,0,8.247,41.8c1.3.017,2.6,0,3.9.008.3,0,.625-.064.865.206-.229.2-.5.107-.758.109-1.162.01-2.325.03-3.486-.006-.62-.019-.519.373-.518.736s-.107.759.516.739c1.094-.036,2.192-.015,3.288-.007.233,0,.486-.077.694.107-.239.273-.565.205-.864.208-1.144.011-2.289,0-3.433.007A2.271,2.271,0,0,0,5.92,46.444q-.01,1.751,0,3.5A2.289,2.289,0,0,0,7.67,52.426c.2.076.432.1.574.3,0,1.572,0,1.572,1.577,1.572.942,0,1.885,0,2.827,0,.212,0,.444-.065.624.118-.243.264-.568.2-.869.2-1.409.01-2.82,0-4.229.008a2.168,2.168,0,0,0-2.248,2.248c-.02,1.277-.023,2.555,0,3.833a2.209,2.209,0,0,0,2.443,2.4c1.321,0,2.643-.027,3.964.009a2.323,2.323,0,0,0,2.461-1.5c.057-.139.114-.293.3-.31" transform="translate(-0.038 -0.037)" fill="#f6f0ee"/>
      <path id="Trazado_614073" data-name="Trazado 614073" d="M8.313,53.463C6.509,53.2,5.8,52.378,5.8,50.546c0-1.211-.008-2.423,0-3.635a2.39,2.39,0,0,1,2.453-2.46c1.519-.016,3.04-.015,4.559-.022a1.939,1.939,0,0,1,1,.294c.376.29.615.194.937-.1.84-.776,1.718-1.513,2.585-2.26.595-.513,1.144-.522,1.561-.036.4.469.342,1-.218,1.5-.967.868-1.936,1.734-2.941,2.558a1.358,1.358,0,0,0-.574,1.222c.041,1.011.014,2.026.011,3.039a2.52,2.52,0,0,1-2.765,2.794q-2.048.01-4.095.027" transform="translate(-0.107 -0.776)" fill="#040506"/>
      <path id="Trazado_614074" data-name="Trazado 614074" d="M33.69,58.922H47.381a4.619,4.619,0,0,1,.595.01.935.935,0,0,1,.878.984.952.952,0,0,1-.822.976,2.423,2.423,0,0,1-.528.017H19.857a2.481,2.481,0,0,1-.527-.014.95.95,0,0,1-.842-1.019.933.933,0,0,1,.916-.947A5.719,5.719,0,0,1,20,58.922H33.69" transform="translate(-0.342 -1.089)" fill="#040506"/>
      <path id="Trazado_614075" data-name="Trazado 614075" d="M33.684,37.194H47.306c.221,0,.442,0,.662.013a.9.9,0,0,1,.873.84.942.942,0,0,1-.617,1.048,1.776,1.776,0,0,1-.779.092H19.867a3.556,3.556,0,0,1-.4,0,1.03,1.03,0,0,1-.992-1.034.99.99,0,0,1,1.054-.949c2.513-.011,5.025-.006,7.538-.006h6.613" transform="translate(-0.342 -0.687)" fill="#050506"/>
      <path id="Trazado_614076" data-name="Trazado 614076" d="M33.619,50.026H20a5.682,5.682,0,0,1-.66-.018.915.915,0,0,1-.847-.869.929.929,0,0,1,.6-1,1.792,1.792,0,0,1,.778-.109h27.64a1.711,1.711,0,0,1,.714.1.936.936,0,0,1,.621,1.046.9.9,0,0,1-.873.841c-.219.018-.441.013-.661.014H33.619" transform="translate(-0.342 -0.888)" fill="#050606"/>
      <path id="Trazado_614077" data-name="Trazado 614077" d="M13.076,42.6c-1.586,0-3.171,0-4.757-.012A2.4,2.4,0,0,1,5.8,40.062c-.006-1.167.06-2.339-.016-3.5a2.6,2.6,0,0,1,2.529-2.987L12.4,33.6a2.523,2.523,0,0,1,2.772,2.786c0,1.122,0,2.244,0,3.366a2.543,2.543,0,0,1-2.1,2.843" transform="translate(-0.107 -0.62)" fill="#040506"/>
      <path id="Trazado_614078" data-name="Trazado 614078" d="M15.166,62.292a2.516,2.516,0,0,1-2.886,2.03c-1.3,0-2.6.01-3.9,0A2.4,2.4,0,0,1,5.8,61.725c0-1.3-.008-2.6,0-3.9a2.327,2.327,0,0,1,2.26-2.438c1.758-.081,3.521-.073,5.281.015a2.657,2.657,0,0,1,1.839,2.864c-.035,1.341-.012,2.682-.014,4.024" transform="translate(-0.107 -1.023)" fill="#040506"/>
      <path id="Trazado_614079" data-name="Trazado 614079" d="M41.389,2.051c1.7-.089,1.7-.089,1.7,1.6q0,3.339,0,6.677a2.417,2.417,0,0,0,2.733,2.709c2.557,0,5.114.023,7.669-.015.643-.009.844.115.843.814q-.037,18.743-.016,37.487c0,.375.016.749.024,1.123-.213-.251-.113-.552-.113-.827q-.009-18.029.011-36.058c0-.666-.157-.857-.837-.845-2.513.043-5.027.018-7.541.018a4.266,4.266,0,0,1-4.47-4.478v-8.2" transform="translate(-0.765 -0.037)" fill="#f5efee"/>
      <path id="Trazado_614080" data-name="Trazado 614080" d="M45.152,3.537l7.506,7.5c-.079.125-.274.027-.43.027-2.092.008-4.183-.011-6.275.016-.587.008-.823-.147-.814-.779.032-2.245.013-4.49.013-6.767" transform="translate(-0.834 -0.065)" fill="#f8f4f3"/>
      <path id="Trazado_614081" data-name="Trazado 614081" d="M12.691,46.522c-.618.544-1.116.972-1.6,1.413-.177.161-.281.169-.49.012-.595-.447-1.147-.406-1.51.049s-.27.985.265,1.509c1.374,1.345,1.465,1.347,2.894.066.276-.247.558-.488.954-.832,0,.847.012,1.56,0,2.27-.01.389-.28.515-.632.515h-4.1c-.472,0-.66-.229-.653-.7.018-1.212.015-2.425,0-3.637,0-.479.2-.673.675-.668,1.341.014,2.681,0,4.2,0" transform="translate(-0.144 -0.86)" fill="#efe5e1"/>
      <path id="Trazado_614082" data-name="Trazado 614082" d="M10.533,40.635c-.7,0-1.409-.007-2.114,0-.418,0-.6-.19-.6-.6,0-1.255.009-2.512,0-3.766,0-.419.186-.615.59-.616q2.114,0,4.228,0a.509.509,0,0,1,.571.57c0,1.278.006,2.555,0,3.832,0,.4-.2.593-.624.582-.683-.018-1.365,0-2.048,0" transform="translate(-0.145 -0.659)" fill="#f0e5e1"/>
      <path id="Trazado_614083" data-name="Trazado 614083" d="M10.526,57.41c.682,0,1.364.012,2.046,0,.408-.01.633.151.635.565,0,1.276.006,2.553,0,3.829a.5.5,0,0,1-.569.563q-2.113-.013-4.224,0c-.42,0-.6-.186-.593-.6q.01-1.882,0-3.763c0-.417.179-.6.6-.594.7.011,1.408,0,2.112,0" transform="translate(-0.145 -1.061)" fill="#f0e5e2"/>
      <path id="Trazado_614084" data-name="Trazado 614084" d="M35.277,22.961a7.427,7.427,0,1,1-9.319-7.083,6.675,6.675,0,0,1,1.613-.235c.129,0,.206-.012.166-.173-.065-.253-.115-.51-.174-.765-.015-.066-.04-.112-.132-.088a5.939,5.939,0,0,1-4.082-.6,7.3,7.3,0,0,1-4.195-5.635c-.15-.857-.309-1.713-.47-2.568-.087-.464.121-.713.588-.651,1.412.186,2.822.4,4.235.571a6.329,6.329,0,0,1,3.215,1.277c.133.1.169.008.224-.073a8.3,8.3,0,0,1,3.686-3.005A4.953,4.953,0,0,1,32.691,3.4a.492.492,0,0,1,.533.4A7.6,7.6,0,0,1,30.7,11.959a12.428,12.428,0,0,1-1.547,1.065.6.6,0,0,0-.267.292,2.029,2.029,0,0,1-.462.666.253.253,0,0,0-.057.312,5.92,5.92,0,0,1,.284,1.241c.015.133.065.148.181.168a7.333,7.333,0,0,1,6.163,5.324,6.014,6.014,0,0,1,.284,1.935" transform="translate(-0.345 -0.063)" fill="#040506"/>
      <path id="Trazado_614085" data-name="Trazado 614085" d="M24.373,17.825a6.347,6.347,0,0,1,4.19-1.03,6.421,6.421,0,0,1,2.669.87c-.305.3-.6.584-.891.87a2.1,2.1,0,0,0-.664,1.612c.01.527,0,1.055,0,1.582a2.063,2.063,0,0,0,.623,1.518c.4.4.8.8,1.2,1.2a1.138,1.138,0,0,1,.364.823,2.076,2.076,0,0,0,.637,1.487c.069.071.14.141.212.212.418.42.418.42-.027.826a1.161,1.161,0,0,1-.495.215,6.99,6.99,0,0,1-6.308-1.565c-.119-.1-.194-.239-.313-.339-.208-.239-.411-.484-.624-.717a.444.444,0,0,1-.1-.5.432.432,0,0,1,.439-.262c.682,0,1.364,0,2.047,0a1.3,1.3,0,0,0,1.251-.758,3.6,3.6,0,0,0,.45-1.041,1.292,1.292,0,0,0-.365-1.149q-.515-.527-1.044-1.04a1.318,1.318,0,0,0-.959-.383c-.9,0-1.8,0-2.7,0a.461.461,0,0,1-.338-.068c-.078-.089-.041-.189-.025-.285a6.942,6.942,0,0,1,.566-1.771,2.866,2.866,0,0,1,.214-.307" transform="translate(-0.436 -0.31)" fill="#69c6f1"/>
      <path id="Trazado_614086" data-name="Trazado 614086" d="M27.928,13.276a6.937,6.937,0,0,0-2.195-2.411A7.252,7.252,0,0,0,24.27,10.1c-.158-.062-.221-.036-.278.118-.224.607-.228.608.349.875a6.051,6.051,0,0,1,2.768,2.525c.106.183.058.227-.126.273a3.485,3.485,0,0,1-1.512-.079A6.454,6.454,0,0,1,20.3,9.342a18.282,18.282,0,0,1-.52-2.522,2.754,2.754,0,0,0-.078-.427c-.088-.237.031-.232.2-.208,1.024.139,2.047.281,3.072.412a7.068,7.068,0,0,1,2.057.463,5.24,5.24,0,0,1,3.219,4.264,3.512,3.512,0,0,1-.027,1.406,1.352,1.352,0,0,1-.292.547" transform="translate(-0.364 -0.114)" fill="#c5cf58"/>
      <path id="Trazado_614087" data-name="Trazado 614087" d="M33.717,26.638c-.209-.215-.416-.407-.6-.62a1.07,1.07,0,0,1-.251-.7,2.054,2.054,0,0,0-.617-1.464q-.593-.6-1.2-1.2a1.194,1.194,0,0,1-.372-.9c0-.564,0-1.128,0-1.691A1.088,1.088,0,0,1,31,19.278c.319-.324.647-.639.96-.968.11-.116.173-.1.284,0a6.531,6.531,0,0,1,1.614,8.068c-.041.08-.086.158-.142.261" transform="translate(-0.567 -0.337)" fill="#a9c350"/>
      <path id="Trazado_614088" data-name="Trazado 614088" d="M24.241,24.209a1.371,1.371,0,0,0,.174,2.011,4.857,4.857,0,0,1,1.294,3.332A6.539,6.539,0,0,1,22,20.5c.062-.129.116-.157.24-.065.2.145.41.266.61.408a2.474,2.474,0,0,0,.67.343,1.466,1.466,0,0,1,.1.664A7.4,7.4,0,0,0,24.188,24a.625.625,0,0,1,.053.21" transform="translate(-0.394 -0.376)" fill="#8ebc69"/>
      <path id="Trazado_614089" data-name="Trazado 614089" d="M30.556,5.057a6.971,6.971,0,0,1,1.905-.748c.134-.037.163.043.18.135a6.635,6.635,0,0,1-2.12,6.674,9.765,9.765,0,0,1-1.088.817.736.736,0,0,1-.111.05,6.733,6.733,0,0,0-.186-1.492.313.313,0,0,1,.056-.25A9.131,9.131,0,0,1,31.2,7.828c.131-.11.153-.184.02-.292a.646.646,0,0,1-.091-.1c-.355-.44-.354-.439-.777-.043A10.92,10.92,0,0,0,28.737,9.3a8.308,8.308,0,0,0-.809-1.264c-.272-.334-.269-.341-.007-.708a6.38,6.38,0,0,1,1.212-1.316c.044.127-.047.2-.107.292a2.423,2.423,0,0,0-.34.649c-.111.359.022.553.4.54a2.137,2.137,0,0,0,1.84-1.127,2.018,2.018,0,0,0,.268-.738c.059-.379-.086-.543-.467-.529-.064,0-.128.01-.176-.046" transform="translate(-0.513 -0.079)" fill="#aac34d"/>
      <path id="Trazado_614090" data-name="Trazado 614090" d="M24.282,24.224a3.336,3.336,0,0,1-.483-1.2,5.949,5.949,0,0,1-.234-1.824c1,0,2,.014,3,.01a.668.668,0,0,1,.527.222c.294.309.6.611.9.908a.475.475,0,0,1,.1.614c-.51,1.012-.294.874-1.357.881-.427,0-.855.016-1.282,0a1.628,1.628,0,0,0-1.179.394" transform="translate(-0.436 -0.392)" fill="#a9c350"/>
      <path id="Trazado_614091" data-name="Trazado 614091" d="M25.6,26.281c.42.311.8.667,1.25.948a6.924,6.924,0,0,0,2.893,1.02,7.023,7.023,0,0,0,2.973-.28,6.329,6.329,0,0,1-3.584,1.965,6.194,6.194,0,0,1-2.306.009c-.117-.021-.18-.039-.176-.176a5.908,5.908,0,0,0-1.05-3.486" transform="translate(-0.473 -0.486)" fill="#50b7e8"/>
      <path id="Trazado_614092" data-name="Trazado 614092" d="M30.572,5.071c.662-.091.84.113.674.774a2.316,2.316,0,0,1-2.151,1.744c-.432-.007-.591-.222-.467-.637a4.207,4.207,0,0,1,.522-.921,5.722,5.722,0,0,1,1.422-.961" transform="translate(-0.528 -0.093)" fill="#edf2d9"/>
      <path id="Trazado_614093" data-name="Trazado 614093" d="M24.355,17.845a8.692,8.692,0,0,0-.664,1.859c-.035.167-.061.336-.091.5-.287-.186-.572-.377-.863-.556-.133-.081-.139-.145-.044-.269a6.207,6.207,0,0,1,1.663-1.538" transform="translate(-0.418 -0.33)" fill="#50b7e8"/>
      <path id="Trazado_614094" data-name="Trazado 614094" d="M22.913,8.708a2.767,2.767,0,0,1-2.2-1.011,1.259,1.259,0,0,1-.231-.4.415.415,0,0,1,.175-.542,1.715,1.715,0,0,1,.968-.223,4.054,4.054,0,0,1,2.481.751c.036.027.074.054.107.083.515.448.446.857-.19,1.12a2.825,2.825,0,0,1-1.11.22" transform="translate(-0.378 -0.12)" fill="#edf2d9"/>
    </g>
  </g>
</svg>
