<svg xmlns="http://www.w3.org/2000/svg" xmlns:xlink="http://www.w3.org/1999/xlink" width="73.214" height="73.227" viewBox="0 0 73.214 73.227">
  <defs>
    <clipPath id="clip-path">
      <rect id="Rectángulo_324980" data-name="Rectángulo 324980" width="73.214" height="73.227" fill="none"/>
    </clipPath>
  </defs>
  <g id="Grupo_876428" data-name="Grupo 876428" transform="translate(0 0)">
    <g id="Grupo_876416" data-name="Grupo 876416" transform="translate(0 0)" clip-path="url(#clip-path)">
      <path id="Trazado_614347" data-name="Trazado 614347" d="M58.1,53.111a3.751,3.751,0,0,1-4.406,1.631V55.6c0,5.643-.01,11.284.014,16.927,0,.566-.126.7-.7.7Q26.855,73.2.7,73.227c-.568,0-.7-.13-.7-.7Q.025,36.614,0,.7C0,.13.134,0,.7,0Q26.855.026,53.008,0c.574,0,.7.139.7.7q-.03,14.41-.007,28.822c0,.379-.213.933.143,1.107.453.221.735-.322,1.028-.613q3.731-3.711,7.446-7.436c.86-.86,1.4-.864,2.259-.016Q66.2,24.178,67.811,25.8a1.278,1.278,0,0,1,0,2.1q-2.363,2.382-4.75,4.738c-.288.282-.334.432-.045.763q2.808,3.214,5.559,6.476a1.018,1.018,0,0,0,.909.4c.761-.025,1.525-.011,2.287-.007,1.016.006,1.438.416,1.439,1.42q.005,7.7,0,15.4c0,1.273-.759,1.778-1.964,1.3-1.573-.623-3.144-1.251-4.708-1.9a4.467,4.467,0,0,0-1.91-.374c-1.04.037-2.086-.033-3.125.023a1.819,1.819,0,0,1-1.789-.882c-.485-.733-1.054-1.412-1.616-2.154" transform="translate(0 0)" fill="#040506"/>
      <path id="Trazado_614348" data-name="Trazado 614348" d="M46.758,50.919a3.8,3.8,0,0,0,4.88,4.222v.687c0,4.88-.01,9.76.015,14.64,0,.565-.126.706-.7.7q-23.713-.027-47.426,0c-.573,0-.7-.138-.7-.7q.025-33.474,0-66.947c0-.581.151-.7.709-.7q23.713.025,47.426,0c.59,0,.692.164.691.714q-.027,13.725,0,27.449c0,.527-.125.736-.663.847-2.23.463-4.445,1-6.674,1.473a1.394,1.394,0,0,0-1.237,1.229c-.273,1.494-.6,2.978-.888,4.47a.935.935,0,0,1-.591.781,3.574,3.574,0,0,0-1.1,5.831c.348.361.32.529-.022.817-2.656,2.233-3.916,5.443-5.747,8.253a.6.6,0,0,0-.135.349c.232,1.431-1.131,1.876-1.74,2.777-.313.462-.885.348-1.3.017a11.493,11.493,0,0,1-.957-.977,1.13,1.13,0,0,0-1.843.035c-1.053,1.488-1.735,1.545-3,0a1.186,1.186,0,0,0-1.361-.4c-.656.19-1.327.329-1.994.476a6.378,6.378,0,0,1-.739.06c1.214-1.759,1.74-3.556.844-5.532a5.672,5.672,0,0,0-3.038-3.142c-2.636-1.066-5.889.378-7.275,3.231-1.272,2.617-.695,5.452,3.1,7.308a30.581,30.581,0,0,1-4.9,2.225c-.462.162-.624.309-.43.858.617,1.745.587,1.762,2.3,1.086a33.4,33.4,0,0,0,5.932-3.049,2.031,2.031,0,0,1,1.2-.358,17.375,17.375,0,0,0,4.378-.472.91.91,0,0,1,.952.206,3.48,3.48,0,0,0,4.707.338.438.438,0,0,1,.585.025,3.619,3.619,0,0,0,5.358-1c.428-.572.821-1.285,1.789-1.046.214.053.517-.169.753-.309q2.777-1.651,5.539-3.325a4.685,4.685,0,0,0,.828-.662c.793-.778,1.57-1.573,2.48-2.491" transform="translate(-0.384 -0.385)" fill="#fff"/>
      <path id="Trazado_614349" data-name="Trazado 614349" d="M67.481,40.242c2.01,2.339,4.022,4.626,5.962,6.972a2.414,2.414,0,0,0,2.141,1c1.728-.062,1.729-.017,1.729,1.691V61.013c-1.018-.406-1.991-.753-2.929-1.179a7.134,7.134,0,0,0-3.454-.676,5.712,5.712,0,0,1-2.694-.1c-.735-.366-1.165-1.355-1.714-2.084-1.708-2.27-3.417-4.539-5.106-6.824a1.667,1.667,0,0,0-1.475-.745c-3.454.02-6.907.006-10.36.014a1.453,1.453,0,0,1-1.239-.447,1.113,1.113,0,0,1-.18-1.274,1.3,1.3,0,0,1,1.309-.725c2.819,0,5.647-.139,8.453.048a5.393,5.393,0,0,0,4.884-2.043c1.43-1.672,3.09-3.148,4.673-4.734" transform="translate(-6.54 -5.479)" fill="#ffcd6d"/>
      <path id="Trazado_614350" data-name="Trazado 614350" d="M57.1,43.581c3.479-3.475,6.8-6.793,10.123-10.121.255-.256.447-.3.673,0,.015.02.036.035.053.054.46.533,1.352.925,1.336,1.552-.012.488-.8.967-1.268,1.432-2.169,2.177-4.357,4.337-6.508,6.532a1.692,1.692,0,0,1-1.4.562c-.93-.041-1.864-.011-3.009-.011" transform="translate(-7.775 -4.528)" fill="#054b73"/>
      <path id="Trazado_614351" data-name="Trazado 614351" d="M22.277,61.063a5.6,5.6,0,0,1-2.369,3.477c-.023.009-.047.035-.067.033a5.164,5.164,0,0,1-3.526-1.706,2.279,2.279,0,0,1-.137-2.7c.777-1.581,2.522-2.528,3.876-2.091a3.466,3.466,0,0,1,2.224,2.987" transform="translate(-2.152 -7.893)" fill="#f3f0df"/>
      <path id="Trazado_614352" data-name="Trazado 614352" d="M58.074,39.19C56.289,40.959,54.668,42.6,53,44.2c-.455.434-1.112.161-1.678.155-.164,0-.1-.2-.073-.314.2-1.044.416-2.085.626-3.128a.571.571,0,0,1,.509-.481c1.826-.388,3.649-.791,5.692-1.238" transform="translate(-6.973 -5.336)" fill="#faab37"/>
      <path id="Trazado_614353" data-name="Trazado 614353" d="M53.538,53.677c-1.45,1.454-2.77,2.774-4.086,4.1-.181.182-.336.2-.506,0a1.263,1.263,0,0,0-.108-.107c-1.629-1.481-1.6-1.449-.09-3.049a2.558,2.558,0,0,1,2.3-.961,24.619,24.619,0,0,0,2.488.016" transform="translate(-6.483 -7.304)" fill="#044b73"/>
      <path id="Trazado_614354" data-name="Trazado 614354" d="M58.946,56.306c0,.711.015,1.423,0,2.134a1.221,1.221,0,1,1-2.431-.012c-.018-.838.007-1.677-.01-2.515a.955.955,0,0,1,.31-.805c.432-.392.839-.814,1.24-1.238a.691.691,0,0,1,.771-.158c.239.079.116.352.12.536.014.686.005,1.372.005,2.058" transform="translate(-7.692 -7.306)" fill="#faab37"/>
      <path id="Trazado_614355" data-name="Trazado 614355" d="M62.157,54.655c.786,1.046,1.422,1.933,2.106,2.781a1.583,1.583,0,0,1,.33,1.2,1.263,1.263,0,0,1-1.247,1.275,1.225,1.225,0,0,1-1.182-1.254c-.028-1.262-.008-2.525-.008-4" transform="translate(-8.462 -7.442)" fill="#f69821"/>
      <path id="Trazado_614356" data-name="Trazado 614356" d="M75.058,30.823c-.152.16-.267.29-.392.41-.489.469-.95,1.263-1.479,1.312-.555.052-.955-.853-1.481-1.274-.414-.332-.422-.591-.006-.935a10.08,10.08,0,0,0,1.073-1.066c.267-.3.465-.39.772-.034.378.438.815.825,1.223,1.238.1.1.185.222.289.348" transform="translate(-9.72 -3.949)" fill="#43a1dc"/>
      <path id="Trazado_614357" data-name="Trazado 614357" d="M43.227,62.056c.639-1.071,1.279-2.141,1.947-3.259l1.42,1.458-3.226,1.936-.142-.135" transform="translate(-5.885 -8.006)" fill="#429fdb"/>
      <path id="Trazado_614358" data-name="Trazado 614358" d="M29.726,22.744a8.54,8.54,0,1,1,8.552-8.47,8.551,8.551,0,0,1-8.552,8.47" transform="translate(-2.886 -0.772)" fill="#040506"/>
      <path id="Trazado_614359" data-name="Trazado 614359" d="M30.985,30.7c-5.845,0-11.689-.01-17.534.015-.592,0-.757-.141-.743-.74.04-1.714.011-1.714,1.735-1.714q17.038,0,34.075-.017c.665,0,.845.145.822.819C49.287,30.7,49.325,30.7,47.68,30.7Z" transform="translate(-1.73 -3.845)" fill="#040506"/>
      <path id="Trazado_614360" data-name="Trazado 614360" d="M18.055,36.348c-3.43,0-6.86-.015-10.289.015-.566,0-.718-.125-.707-.7.035-1.753.007-1.753,1.773-1.753,6.479,0,12.958.01,19.436-.016.631,0,.8.139.784.779-.048,1.676-.015,1.677-1.7,1.677Z" transform="translate(-0.961 -4.615)" fill="#040506"/>
      <path id="Trazado_614361" data-name="Trazado 614361" d="M32.21,39.558c3.43,0,6.86.012,10.29-.013.523,0,.68.109.672.656-.026,1.8,0,1.8-1.8,1.8-6.479,0-12.958-.007-19.437.014-.579,0-.765-.12-.75-.733.042-1.72.011-1.721,1.729-1.721h9.3" transform="translate(-2.884 -5.384)" fill="#040506"/>
      <path id="Trazado_614362" data-name="Trazado 614362" d="M43.912,36.349c-2.668,0-5.335-.01-8,.009-.442,0-.6-.071-.6-.568,0-1.881-.023-1.881,1.873-1.881,4.852,0,9.705.008,14.558-.012.511,0,.688.089.68.647-.025,1.8,0,1.8-1.8,1.8H43.912" transform="translate(-4.807 -4.615)" fill="#040506"/>
      <path id="Trazado_614363" data-name="Trazado 614363" d="M15.584,47.646c-2.643,0-5.284-.011-7.926.01-.454,0-.6-.086-.6-.574,0-1.875-.021-1.875,1.878-1.875,4.852,0,9.7.008,14.557-.013.519,0,.682.1.675.653-.025,1.8,0,1.8-1.8,1.8Z" transform="translate(-0.961 -6.153)" fill="#040506"/>
      <path id="Trazado_614364" data-name="Trazado 614364" d="M35.145,47.647c-1.626,0-3.252-.013-4.876.009-.428.006-.612-.048-.613-.559,0-1.89-.027-1.889,1.864-1.889,2.82,0,5.639.011,8.458-.012.5,0,.7.067.689.638-.024,1.813,0,1.813-1.788,1.813Z" transform="translate(-4.037 -6.154)" fill="#040506"/>
      <path id="Trazado_614365" data-name="Trazado 614365" d="M11.988,39.559c1.448,0,2.9.012,4.343-.009.386-.005.508.089.517.5C16.892,42,16.906,42,14.97,42c-2.438,0-4.876-.012-7.314.011-.458,0-.6-.093-.6-.577,0-1.874-.02-1.874,1.879-1.874h3.048" transform="translate(-0.961 -5.385)" fill="#040506"/>
      <path id="Trazado_614366" data-name="Trazado 614366" d="M50.473,77.572c0,1.146,0,1.146-1.141,1.146-1.3,0-1.3,0-1.3-1.294,0-1.146,0-1.146,1.141-1.146,1.3,0,1.3,0,1.3,1.294" transform="translate(-6.54 -10.386)" fill="#040506"/>
      <path id="Trazado_614367" data-name="Trazado 614367" d="M54.967,76.278c1.155,0,1.155,0,1.155,1.133,0,1.307,0,1.307-1.285,1.307-1.155,0-1.155,0-1.155-1.133,0-1.307,0-1.307,1.285-1.307" transform="translate(-7.309 -10.386)" fill="#040506"/>
      <path id="Trazado_614368" data-name="Trazado 614368" d="M76.369,54.041c-1.016.266-1.753-.306-2.4-1.272-.842-1.264-1.8-2.454-2.728-3.658-.253-.327-.3-.518.094-.761.536-.333,1.045-1.012,1.55-1,.387.012.752.865,1.12,1.348.385.5.788,1,1.139,1.523.592.886,1.188,1.718,2.464,1.383.276-.073.426.061.4.371-.019.2,0,.406,0,.609,0,1.455,0,1.455-1.637,1.455" transform="translate(-9.673 -6.447)" fill="#050506"/>
      <path id="Trazado_614369" data-name="Trazado 614369" d="M24.026,14.518a6.1,6.1,0,1,1,5.948,6.17,6.141,6.141,0,0,1-5.948-6.17" transform="translate(-3.271 -1.156)" fill="#ea7685"/>
    </g>
  </g>
</svg>
