<svg xmlns="http://www.w3.org/2000/svg" xmlns:xlink="http://www.w3.org/1999/xlink" width="54.968" height="63.081" viewBox="0 0 54.968 63.081">
  <defs>
    <clipPath id="clip-path">
      <rect id="Rectángulo_324989" data-name="Rectángulo 324989" width="54.968" height="63.081" fill="none"/>
    </clipPath>
  </defs>
  <g id="Grupo_876457" data-name="Grupo 876457" transform="translate(0 0)">
    <g id="Grupo_876456" data-name="Grupo 876456" transform="translate(0 0)" clip-path="url(#clip-path)">
      <path id="Trazado_614591" data-name="Trazado 614591" d="M23.3,0c.16.21.415.119.62.184a5.073,5.073,0,0,1,3.128,2.593.692.692,0,0,0,.748.436c1.334-.022,2.669-.012,4-.008.779,0,1.115.335,1.134,1.12a11.824,11.824,0,0,1-.007,1.416c-.049.519.081.692.652.683,2.545-.038,5.094.052,7.637-.039a3.583,3.583,0,0,1,3.686,3.65c-.05,3.633-.013,7.268-.013,10.9q0,9.732-.006,19.465c0,.423.045.6.565.671a11.063,11.063,0,0,1,.059,21.9,10.837,10.837,0,0,1-10.129-3.906,1.1,1.1,0,0,0-.934-.42c-10.225.01-20.45-.022-30.675.034A3.7,3.7,0,0,1,0,54.907q.056-22.39,0-44.781a3.639,3.639,0,0,1,3.733-3.74c2.563.09,5.133.012,7.7.031.412,0,.585-.067.549-.522a15,15,0,0,1-.006-1.662.963.963,0,0,1,1.045-1.026q2.095-.015,4.189,0a.571.571,0,0,0,.618-.35A4.961,4.961,0,0,1,21.51.09c.027,0,.045-.059.068-.09Z" transform="translate(0 0)" fill="#040506"/>
      <path id="Trazado_614592" data-name="Trazado 614592" d="M23.3,60.278q-4.987.01-9.975.02-4.342.005-8.683,0a1.554,1.554,0,0,1-1.78-1.763q0-22.385,0-44.77A1.552,1.552,0,0,1,4.641,12c2.566,0,5.132.008,7.7-.01.392,0,.543.084.51.5-.038.489-.013.984-.008,1.477.008.876.361,1.234,1.228,1.236q4.619.014,9.236.021a.525.525,0,0,1,.17.383,47.15,47.15,0,0,1-.051,4.9c-.161.323-.473.271-.751.286a2.025,2.025,0,0,0-.9.168.793.793,0,0,0-.494.718.776.776,0,0,0,.561.729,2.732,2.732,0,0,0,.9.152c.24.014.5-.011.656.244a14.646,14.646,0,0,1,.012,3.514c-.156.29-.441.253-.7.267a2.18,2.18,0,0,0-.9.148.8.8,0,0,0-.531.754.783.783,0,0,0,.575.718,2.831,2.831,0,0,0,.9.147c.24.013.5-.007.647.256a7.18,7.18,0,0,1,.082,1.96,20.812,20.812,0,0,1-.071,3.129c-.146.3-.431.267-.691.281a2.447,2.447,0,0,0-.954.182.746.746,0,0,0,.017,1.41,2.477,2.477,0,0,0,.9.172c.258.016.543-.029.715.246a14.646,14.646,0,0,1,.011,3.514c-.156.289-.441.253-.7.266a2.18,2.18,0,0,0-.9.148.8.8,0,0,0-.531.754.783.783,0,0,0,.575.718,2.831,2.831,0,0,0,.9.147c.24.013.5-.007.647.256a7.18,7.18,0,0,1,.082,1.96,20.727,20.727,0,0,1-.071,3.13c-.147.3-.432.265-.692.279a2.4,2.4,0,0,0-.844.119.823.823,0,0,0-.6.77.789.789,0,0,0,.619.748,2.922,2.922,0,0,0,.844.13c.24.013.5-.012.655.244a14.616,14.616,0,0,1,.012,3.515c-.175.311-.486.252-.763.267a1.943,1.943,0,0,0-.894.176.784.784,0,0,0-.475.73.77.77,0,0,0,.526.692,2.563,2.563,0,0,0,.9.166c.258.016.545-.024.7.267a18.351,18.351,0,0,1,.084,2.885c.018.573.01,1.149,0,1.723a.911.911,0,0,1-.193.691" transform="translate(-0.865 -3.618)" fill="#fff"/>
      <path id="Trazado_614593" data-name="Trazado 614593" d="M32.139,60.28q0-2.705,0-5.41a1.2,1.2,0,0,1,.881-.177c1.868-.007,3.737,0,5.6,0a2.556,2.556,0,0,0,1.088-.161.756.756,0,0,0,0-1.4,2.556,2.556,0,0,0-1.088-.161c-1.868,0-3.736,0-5.6,0a1.2,1.2,0,0,1-.881-.177q0-1.862,0-3.724a1.269,1.269,0,0,1,.885-.167c1.868-.006,3.735,0,5.6,0a2.555,2.555,0,0,0,1.087-.162.756.756,0,0,0,0-1.4,2.576,2.576,0,0,0-1.087-.16c-1.868,0-3.735,0-5.6,0A1.2,1.2,0,0,1,32.14,47V41.686a1.4,1.4,0,0,1,1-.182q5.754-.008,11.509,0a3.264,3.264,0,0,0,1.1-.114.761.761,0,0,0,0-1.479,3.245,3.245,0,0,0-1.1-.114q-5.754,0-11.509,0a1.4,1.4,0,0,1-1-.182q0-1.862,0-3.724a1.468,1.468,0,0,1,1.007-.171q5.753-.008,11.5,0a3.245,3.245,0,0,0,1.1-.115.761.761,0,0,0,0-1.478,3.246,3.246,0,0,0-1.1-.115q-5.752,0-11.5,0a1.468,1.468,0,0,1-1.007-.171q0-2.662,0-5.325a1.392,1.392,0,0,1,1-.182q5.754-.008,11.509,0a3.265,3.265,0,0,0,1.1-.114.761.761,0,0,0,0-1.479,3.263,3.263,0,0,0-1.1-.115q-5.754,0-11.509,0a1.389,1.389,0,0,1-1-.182q0-1.861,0-3.723a1.474,1.474,0,0,1,1.008-.172q5.753-.008,11.506,0a3.263,3.263,0,0,0,1.1-.115.761.761,0,0,0,0-1.479,3.282,3.282,0,0,0-1.1-.113q-5.754,0-11.506,0a1.4,1.4,0,0,1-1-.182v-5.41l9.178-.02c1.011,0,1.307-.3,1.311-1.32,0-.513.014-1.027,0-1.54-.01-.274.09-.349.353-.348,2.731.008,5.463-.007,8.194.016A1.426,1.426,0,0,1,52.6,13.538c.01,2.2,0,4.395,0,6.592q0,11.953.008,23.9c0,.432-.073.589-.563.67a11.008,11.008,0,0,0-9.389,9.322,10.551,10.551,0,0,0,.631,5.618c.074.188.148.376.249.634Z" transform="translate(-9.699 -3.62)" fill="#f5f5f5"/>
      <path id="Trazado_614594" data-name="Trazado 614594" d="M62.746,61.56a9.056,9.056,0,0,1,1.293,18.031,5.194,5.194,0,0,1-1.281.079.812.812,0,0,1-.186-.628c0-1.593-.037-3.185.019-4.776a1.31,1.31,0,0,1,.436-.785c1.644-1.828,3.42-3.527,5.15-5.271a4.032,4.032,0,0,0,.421-.446.871.871,0,0,0-.063-1.172.831.831,0,0,0-1.114.094c-.51.474-.989.98-1.482,1.471-.885.882-1.757,1.778-2.659,2.641-.175.168-.434.6-.67.017-.1-1.292-.034-2.585-.044-3.876-.013-1.5-.006-3,0-4.493a1.341,1.341,0,0,1,.183-.885" transform="translate(-18.878 -18.574)" fill="#54a3dc"/>
      <path id="Trazado_614595" data-name="Trazado 614595" d="M58.926,61.566q.006,4.757.012,9.513a3.027,3.027,0,0,1-1.353,1.491c-.233.17-.455-.089-.628-.259-.775-.76-1.537-1.533-2.305-2.3a2.239,2.239,0,0,0-.459-.406.771.771,0,0,0-1.056.138.742.742,0,0,0,.02,1.057c1.087,1.253,2.308,2.377,3.468,3.56.651.663,1.023.608,1.739-.031.164-.146.3-.351.556-.341l.017,5.685a9.078,9.078,0,0,1-1.359-18.052,9.8,9.8,0,0,1,1.347-.058" transform="translate(-15.058 -18.58)" fill="#7abbe9"/>
      <path id="Trazado_614596" data-name="Trazado 614596" d="M32.048,2.847a3.2,3.2,0,0,1,3.072,2.211c.331.9.431.976,1.378.977,1.189,0,2.378.011,3.567-.006.364-.006.508.094.5.482-.021,1.168-.017,2.337,0,3.506,0,.347-.114.462-.46.459-2.685-.015-5.371-.016-8.057-.021a1.09,1.09,0,0,1-.189-.817q-.008-2.987,0-5.974a1.087,1.087,0,0,1,.189-.817" transform="translate(-9.614 -0.859)" fill="#413844"/>
      <path id="Trazado_614597" data-name="Trazado 614597" d="M28.461,2.847v7.608c-2.666,0-5.334,0-8,.022-.375,0-.5-.111-.492-.489.02-1.169.018-2.339,0-3.508-.006-.356.126-.456.466-.451,1.21.015,2.421.006,3.631.006.9,0,1.091-.134,1.384-.982a3.145,3.145,0,0,1,3.009-2.206" transform="translate(-6.027 -0.859)" fill="#554c56"/>
      <path id="Trazado_614598" data-name="Trazado 614598" d="M11.485,66.08c0-.924-.006-1.847,0-2.77.006-.7.337-1.105,1.028-1.115q2.862-.041,5.725,0a.963.963,0,0,1,1.008,1.078q.015,2.8,0,5.6a.963.963,0,0,1-1.005,1.081q-2.861.048-5.725,0c-.693-.01-1.024-.415-1.03-1.114-.008-.923,0-1.847,0-2.77" transform="translate(-3.465 -18.764)" fill="#050506"/>
      <path id="Trazado_614599" data-name="Trazado 614599" d="M11.485,28.263c0-.9-.006-1.806,0-2.708a.974.974,0,0,1,1.086-1.113q2.8-.024,5.6,0c.726.007,1.07.391,1.074,1.133q.01,2.739,0,5.478a1.011,1.011,0,0,1-1.126,1.157q-2.769.031-5.54,0c-.76-.01-1.092-.4-1.1-1.176-.006-.923,0-1.847,0-2.77" transform="translate(-3.465 -7.373)" fill="#050506"/>
      <path id="Trazado_614600" data-name="Trazado 614600" d="M11.485,47.206c0-.923-.006-1.847,0-2.77a.974.974,0,0,1,1.088-1.112q2.8-.023,5.6,0c.726.007,1.069.391,1.072,1.135q.01,2.74,0,5.478c0,.738-.34,1.139-1.066,1.15q-2.83.041-5.662,0c-.693-.01-1.026-.415-1.033-1.111-.008-.923,0-1.847,0-2.77" transform="translate(-3.465 -13.072)" fill="#050506"/>
      <path id="Trazado_614601" data-name="Trazado 614601" d="M31.181,24.366c.634.011,1.269.031,1.9.031q5.534,0,11.069,0a3,3,0,0,1,.85.089.971.971,0,0,1-.057,1.84,3.079,3.079,0,0,1-.732.061q-6.18.005-12.36,0c-.224,0-.448.024-.672.037-.408-.015-.816-.018-1.223-.047a.972.972,0,0,1-1-.952.96.96,0,0,1,.936-1.01c.425-.047.856-.041,1.284-.059" transform="translate(-8.74 -7.354)" fill="#060707"/>
      <path id="Trazado_614602" data-name="Trazado 614602" d="M31.181,32.66c.634.011,1.269.031,1.9.031q5.535,0,11.069,0a2.972,2.972,0,0,1,.85.09.881.881,0,0,1,.633.943.868.868,0,0,1-.633.882,3,3,0,0,1-.85.091q-6.15.008-12.3.006c-.224,0-.448.02-.672.031-.408-.015-.818-.011-1.223-.05a.99.99,0,1,1,0-1.981c.406-.037.816-.034,1.223-.048" transform="translate(-8.74 -9.857)" fill="#060707"/>
      <path id="Trazado_614603" data-name="Trazado 614603" d="M31.181,51.543c.634.011,1.269.031,1.9.031q5.535,0,11.069,0a2.975,2.975,0,0,1,.85.09.881.881,0,0,1,.633.943.87.87,0,0,1-.633.882,3,3,0,0,1-.85.091q-6.15.008-12.3.006c-.224,0-.448.02-.672.031-.408-.015-.818-.011-1.223-.05a.99.99,0,1,1,0-1.981c.406-.037.816-.034,1.223-.048" transform="translate(-8.74 -15.555)" fill="#060707"/>
      <path id="Trazado_614604" data-name="Trazado 614604" d="M31.182,43.264c.511.013,1.021.036,1.533.037q5.749,0,11.5,0a3.116,3.116,0,0,1,.732.059.868.868,0,0,1,.691.9.879.879,0,0,1-.691.958,2.966,2.966,0,0,1-.731.061q-6.179.005-12.359,0c-.224,0-.448.024-.672.037-.408-.015-.816-.017-1.223-.047a.982.982,0,1,1,0-1.964c.406-.029.815-.031,1.223-.046" transform="translate(-8.74 -13.057)" fill="#060708"/>
      <path id="Trazado_614605" data-name="Trazado 614605" d="M31.181,62.132q3.409.017,6.817.036a3.43,3.43,0,0,1,.79.075.967.967,0,0,1-.058,1.87A4.008,4.008,0,0,1,38,64.16q-3.408.024-6.816.04c-.408-.015-.816-.018-1.223-.048a.971.971,0,0,1-1-.952.959.959,0,0,1,.936-1.01c.425-.047.856-.041,1.284-.059" transform="translate(-8.74 -18.751)" fill="#060707"/>
      <path id="Trazado_614606" data-name="Trazado 614606" d="M31.181,70.426q3.409.017,6.818.036a3.553,3.553,0,0,1,.79.075.866.866,0,0,1,.692.9.881.881,0,0,1-.692.959,3.318,3.318,0,0,1-.79.075q-3.409.024-6.818.036c-.408-.015-.818-.011-1.223-.05a.99.99,0,1,1,0-1.981c.406-.037.816-.034,1.223-.048" transform="translate(-8.74 -21.254)" fill="#060707"/>
      <path id="Trazado_614607" data-name="Trazado 614607" d="M60.156,76.015c-.253.238-.5.488-.76.711a.92.92,0,0,1-1.378-.015q-1.895-1.847-3.742-3.744a.948.948,0,0,1,.01-1.377.975.975,0,0,1,1.426.057c.9.876,1.786,1.755,2.652,2.658.265.277.42.29.67,0,.357-.419.757-.8,1.139-1.2l4.3-4.305a1.413,1.413,0,0,1,.685-.5.928.928,0,0,1,1.068.413.941.941,0,0,1-.137,1.234c-.586.6-1.186,1.194-1.773,1.8q-2.085,2.133-4.163,4.272" transform="translate(-16.292 -20.604)" fill="#040506"/>
      <path id="Trazado_614608" data-name="Trazado 614608" d="M16.881,65.05c.63-.051,1.416-.263,1.844.067.383.3.076,1.114.117,1.7a1.24,1.24,0,0,1,0,.184c-.043.585.266,1.4-.118,1.7-.429.329-1.214.114-1.845.068a.777.777,0,0,1-.187-.508q-.035-1.351,0-2.7a.808.808,0,0,1,.189-.508" transform="translate(-5.032 -19.597)" fill="#ffc44e"/>
      <path id="Trazado_614609" data-name="Trazado 614609" d="M16.166,65.08q0,1.859,0,3.717c-.489.011-.979,0-1.466.038-.349.026-.4-.137-.392-.429q.02-1.469,0-2.939c0-.3.049-.454.4-.429.487.036.976.03,1.465.042" transform="translate(-4.317 -19.627)" fill="#ffd960"/>
      <path id="Trazado_614610" data-name="Trazado 614610" d="M16.881,27.283c.63-.051,1.416-.263,1.844.067.383.3.076,1.114.117,1.7a1.24,1.24,0,0,1,0,.184c-.043.585.266,1.4-.118,1.7-.429.329-1.214.114-1.845.068a.777.777,0,0,1-.187-.508q-.035-1.351,0-2.7a.808.808,0,0,1,.189-.508" transform="translate(-5.032 -8.199)" fill="#ffc44e"/>
      <path id="Trazado_614611" data-name="Trazado 614611" d="M16.166,27.313q0,1.859,0,3.717c-.489.011-.979,0-1.466.038-.349.026-.4-.137-.392-.429q.02-1.469,0-2.939c0-.3.049-.454.4-.429.487.036.976.03,1.465.042" transform="translate(-4.317 -8.23)" fill="#ffd960"/>
      <path id="Trazado_614612" data-name="Trazado 614612" d="M16.881,46.166c.63-.051,1.416-.263,1.844.067.383.3.076,1.114.117,1.7a1.24,1.24,0,0,1,0,.184c-.043.585.266,1.4-.118,1.7-.429.329-1.214.114-1.845.068a.777.777,0,0,1-.187-.508q-.035-1.351,0-2.7a.808.808,0,0,1,.189-.508" transform="translate(-5.032 -13.898)" fill="#ffc44e"/>
      <path id="Trazado_614613" data-name="Trazado 614613" d="M16.166,46.2q0,1.859,0,3.717c-.489.011-.979,0-1.466.038-.349.026-.4-.137-.392-.429q.02-1.469,0-2.939c0-.3.049-.454.4-.429.487.036.976.03,1.465.042" transform="translate(-4.317 -13.928)" fill="#ffd960"/>
    </g>
  </g>
</svg>
