<svg xmlns="http://www.w3.org/2000/svg" xmlns:xlink="http://www.w3.org/1999/xlink" width="127" height="131" viewBox="0 0 127 131">
  <defs>
    <filter id="Elipse_5224" x="0" y="0" width="127" height="131" filterUnits="userSpaceOnUse">
      <feOffset dy="3" input="SourceAlpha"/>
      <feGaussianBlur stdDeviation="3" result="blur"/>
      <feFlood flood-opacity="0.161"/>
      <feComposite operator="in" in2="blur"/>
      <feComposite in="SourceGraphic"/>
    </filter>
    <clipPath id="clip-path">
      <rect id="Rectángulo_324997" data-name="Rectángulo 324997" width="71.272" height="71.251" transform="translate(0 0.001)" fill="none"/>
    </clipPath>
  </defs>
  <g id="Grupo_876482" data-name="Grupo 876482" transform="translate(-736.948 -5247)">
    <g transform="matrix(1, 0, 0, 1, 736.95, 5247)" filter="url(#Elipse_5224)">
      <ellipse id="Elipse_5224-2" data-name="Elipse 5224" cx="54.5" cy="56.5" rx="54.5" ry="56.5" transform="translate(9 6)" fill="#fff4d9"/>
    </g>
    <g id="Grupo_876481" data-name="Grupo 876481" transform="translate(764.312 5278)">
      <g id="Grupo_876480" data-name="Grupo 876480" clip-path="url(#clip-path)">
        <path id="Trazado_614796" data-name="Trazado 614796" d="M71.272,66.417c-.232.126-.151.379-.21.567a5.916,5.916,0,0,1-9.774,2.6c-4.295-4.166-8.487-8.437-12.71-12.676a2.273,2.273,0,0,1-.286-3.079c.184-.279.18-.406-.054-.627-.65-.616-1.291-1.242-1.9-1.9-.279-.3-.447-.249-.743-.027a27.627,27.627,0,0,1-12.566,5.331,27.8,27.8,0,0,1-20.119-4.317A27.79,27.79,0,0,1,.354,32.81a28.5,28.5,0,0,1,51.8-20.244.962.962,0,0,0,.921.465c4.641-.013,9.283.031,13.923-.025a4.04,4.04,0,0,1,4.273,2.807v1.555A3.466,3.466,0,0,1,67.56,20.4c-3.416.016-6.832,0-10.248,0-.212,0-.424,0-.636.008-.365.012-.509.174-.413.544.267,1.027.487,2.064.653,3.111.077.485.4.582.817.583,1.107,0,2.214,0,3.322,0,2.1,0,4.193-.014,6.289.006a4.132,4.132,0,0,1,3.113,1.273,3.494,3.494,0,0,1,.815,1.756v1.555a3.514,3.514,0,0,1-3.718,3.031c-3.156.015-6.313,0-9.47.005-1.045,0-1.042.007-1.224,1.013-.146.811-.319,1.617-.525,2.416-.192.744-.142.814.635.816q5.053.01,10.107,0a4.341,4.341,0,0,1,3.438,1.339,3.374,3.374,0,0,1,.757,1.7v1.555a3.586,3.586,0,0,1-3.82,3.008c-4.612.01-9.224,0-13.835,0a2.283,2.283,0,0,0-2.1,1.537.47.47,0,0,0,.137.509c.537.561,1.1,1.1,1.638,1.657a.586.586,0,0,0,.769.077,2.568,2.568,0,0,1,3.245.663q6.015,6.063,12.078,12.078a5.784,5.784,0,0,1,1.89,3.507Z" fill="#040506"/>
        <path id="Trazado_614797" data-name="Trazado 614797" d="M36.5,53.277a23.256,23.256,0,0,1-9.726,1.229A25.242,25.242,0,0,1,13.133,49.5,25.2,25.2,0,0,1,2.865,32.81C1.4,23.616,4.143,15.736,10.872,9.33A24.97,24.97,0,0,1,25.047,2.643,25.208,25.208,0,0,1,36.531,3.67a2.538,2.538,0,0,1,.256.115A26.664,26.664,0,0,1,50.769,19.023c.114.3.284.619-.016.92-.293-.036-.346-.288-.438-.5a24.179,24.179,0,0,0-5.641-8.124,23.088,23.088,0,0,0-13.2-6.2A23.069,23.069,0,0,0,19.9,6.581a23.5,23.5,0,0,0-7.916,5.194,22.822,22.822,0,0,0-6.058,10.21A23.073,23.073,0,0,0,7.765,39.509a23.118,23.118,0,0,0,12.81,11.135,22.626,22.626,0,0,0,6.831,1.337,23.384,23.384,0,0,0,11.106-2.153,22.289,22.289,0,0,0,5.75-3.8,23.892,23.892,0,0,0,5.748-7.788.788.788,0,0,1,.292-.388.214.214,0,0,1,.271.11c.129.323-.045.591-.159.872a26.759,26.759,0,0,1-5.791,8.857A23.321,23.321,0,0,1,36.5,53.277" fill="#8d8d8d"/>
        <path id="Trazado_614798" data-name="Trazado 614798" d="M36.5,53.277c1.155-.714,2.4-1.278,3.529-2.033A27.471,27.471,0,0,0,50.41,38.425a2.617,2.617,0,0,0,.1-.409c.024-.74.568-1.374.437-2.147.342-1.345.683-2.687.9-4.062a22.717,22.717,0,0,0-.5-9.092,15.322,15.322,0,0,1-.366-1.58,1.4,1.4,0,0,0-.218-1.022.184.184,0,0,1,.016-.18,7.556,7.556,0,0,0-.929-2.711,27,27,0,0,0-6.936-9.327,26.641,26.641,0,0,0-5.1-3.516,3.259,3.259,0,0,1-1.025-.594,20.024,20.024,0,0,1,5.6,2.588A25.194,25.194,0,0,1,53.78,21.914a25.416,25.416,0,0,1-4.82,22.793,25.337,25.337,0,0,1-11.919,8.444,4.9,4.9,0,0,1-.542.126" fill="#5e5e5e"/>
        <path id="Trazado_614799" data-name="Trazado 614799" d="M64.884,68.705a3.115,3.115,0,0,1-2.116-1c-1.826-1.8-3.628-3.63-5.455-5.433-.274-.271-.32-.43-.018-.721,1.236-1.192,2.448-2.41,3.669-3.618.346-.2.529.087.716.27,1.259,1.239,2.532,2.465,3.743,3.75a4.968,4.968,0,0,1,.174,6.426c-.186.226-.379.428-.713.323" fill="#e02d2a"/>
        <path id="Trazado_614800" data-name="Trazado 614800" d="M66.176,41.526H53.906L54.9,39.3c.235-.168.5-.082.751-.083q4.895-.009,9.787,0c.438,0,.969-.185,1.177.464a1.766,1.766,0,0,1-.436,1.848" fill="#6b7b82"/>
        <path id="Trazado_614801" data-name="Trazado 614801" d="M66.178,17.782q-5.381.006-10.759.017a.571.571,0,0,1-.646-.385c-.229-.587-.51-1.154-.769-1.729.013-.314.258-.218.42-.219q5.75-.007,11.5,0a.621.621,0,0,1,.6.274,1.852,1.852,0,0,1-.349,2.047" fill="#6b7b81"/>
        <path id="Trazado_614802" data-name="Trazado 614802" d="M64.884,68.705a3.481,3.481,0,0,0,1.57-2.749,4.875,4.875,0,0,0-1.668-4.419c-1.106-1.017-2.134-2.119-3.2-3.179-.179-.177-.321-.42-.621-.422.976-1.081.976-1.082,1.988-.069,1.662,1.664,3.353,3.3,4.976,5a3.469,3.469,0,0,1-1.466,5.711,2.333,2.333,0,0,1-1.578.125" fill="#b90b16"/>
        <path id="Trazado_614803" data-name="Trazado 614803" d="M66.177,29.653c-2.882,0-5.764,0-8.646.023-.456,0-.555-.154-.529-.569.036-.56.013-1.123.016-1.685.21-.161.454-.082.68-.083q3.87-.009,7.74,0c.437,0,.969-.185,1.175.464a1.772,1.772,0,0,1-.436,1.848" fill="#6c7b81"/>
        <path id="Trazado_614804" data-name="Trazado 614804" d="M55.3,60.138c-.231-.037-.324-.216-.45-.342-.4-.4-1.061-.781-1.1-1.22-.044-.456.679-.82,1.07-1.218,1.121-1.141,2.276-2.25,3.38-3.408.353-.371.553-.353.86.018.357.431,1.068.823,1.065,1.226s-.682.825-1.078,1.224q-1.665,1.678-3.342,3.345c-.132.132-.272.255-.4.375" fill="#b90b16"/>
        <path id="Trazado_614805" data-name="Trazado 614805" d="M56.005,52.712c-1.268,1.288-2.539,2.573-3.8,3.869-.206.211-.368.272-.563.013a.867.867,0,0,0-.1-.1c-1.328-1.267-1.331-1.27-.031-2.563.933-.928,1.875-1.846,2.813-2.769a3.428,3.428,0,0,1,1.681,1.551" fill="#e02d2a"/>
        <path id="Trazado_614806" data-name="Trazado 614806" d="M50.192,51.737c-.076-.063-.169-.13-.249-.21-.6-.594-1.184-1.2-1.794-1.783-.251-.239-.212-.384.011-.624,1.294-1.392,1.288-1.4,2.617-.09,1.135,1.116,1.137,1.118-.02,2.261-.162.16-.286.373-.565.446" fill="#6b7b82"/>
        <path id="Trazado_614807" data-name="Trazado 614807" d="M66.178,17.782a1.815,1.815,0,0,0,.3-.852c.076-1.285-.025-1.4-1.308-1.4q-5.185,0-10.372.005c-.267,0-.571-.113-.794.151-.094-.1-.136-.23.022-.266a2.871,2.871,0,0,1,.63-.03q6.275.009,12.548.025a3.117,3.117,0,0,1,.7.066,1.165,1.165,0,0,1,.967,1.272,1.1,1.1,0,0,1-1.139,1.031c-.514.038-1.033,0-1.55,0" fill="#434a4e"/>
        <path id="Trazado_614808" data-name="Trazado 614808" d="M66.176,41.526a3.2,3.2,0,0,0,.264-.572c.316-1.286-.007-1.693-1.33-1.69Q60,39.277,54.9,39.3c.153-.275.418-.167.635-.167q5.931,0,11.863.021c.905,0,1.491.5,1.476,1.247-.015.709-.567,1.134-1.5,1.141-.4,0-.8-.008-1.2-.012" fill="#434b4f"/>
        <path id="Trazado_614809" data-name="Trazado 614809" d="M66.177,29.653a1.782,1.782,0,0,0,.3-.849c.078-1.286-.027-1.41-1.3-1.407q-4.082.009-8.163.025c.121-.271.366-.162.556-.162q4.908,0,9.815.02a1.352,1.352,0,0,1,1.387.771,1.024,1.024,0,0,1-.142,1.123,1.269,1.269,0,0,1-1.045.49c-.471,0-.941-.007-1.412-.011" fill="#434b4e"/>
        <path id="Trazado_614810" data-name="Trazado 614810" d="M56.005,52.712l-1.681-1.551c.885-1.027.885-1.027,1.807-.111.847.842.847.842-.126,1.662" fill="#b80b16"/>
        <path id="Trazado_614811" data-name="Trazado 614811" d="M51.062,20.9a25.636,25.636,0,0,1,1.232,8.168,25.627,25.627,0,0,1-1.223,6.968,4.009,4.009,0,0,1-.689,1.839,23.857,23.857,0,0,1-8.207,10.044A23.393,23.393,0,0,1,27.694,52.19,23.717,23.717,0,0,1,19.629,6.507a23.5,23.5,0,0,1,26.285,5.808,23.345,23.345,0,0,1,4.57,7.076c.079.188.086.419.288.542a.215.215,0,0,0,.032.129,1.3,1.3,0,0,1,.258.837" fill="#040506"/>
        <path id="Trazado_614812" data-name="Trazado 614812" d="M50.382,37.873q.345-.92.689-1.838a3.194,3.194,0,0,1-.567,1.981c-.04-.048-.081-.095-.122-.143" fill="#7f7e7e"/>
        <path id="Trazado_614813" data-name="Trazado 614813" d="M51.062,20.9a1.823,1.823,0,0,1-.258-.837c.341.2.49.46.258.837" fill="#757575"/>
        <path id="Trazado_614814" data-name="Trazado 614814" d="M34.945,48.8a20.48,20.48,0,0,1-17.571-2.145,20.416,20.416,0,0,1-9.95-15.138A21.238,21.238,0,0,1,24.233,7.584a20.991,20.991,0,0,1,10.44.467,1.546,1.546,0,0,1,.248.123,18.476,18.476,0,0,1,5.955,4.044,2.108,2.108,0,0,1,.324.37c.191.291.187.475-.236.468-2.157-.037-4.315.068-6.471-.055A6.574,6.574,0,0,0,30.9,10.818a5.737,5.737,0,0,0-5.489,1.808,1.234,1.234,0,0,1-1.02.453c-1.86-.012-3.721-.042-5.578.026a3.4,3.4,0,0,0-3.241,2.9,3.526,3.526,0,0,0,2.328,3.96,4.063,4.063,0,0,0,1.381.227c1.742-.009,3.484,0,5.226-.008a.978.978,0,0,1,.8.313,5.785,5.785,0,0,0,8.9-.042.736.736,0,0,1,.6-.271q5.578.023,11.157.029a8.783,8.783,0,0,1,1.26,4.658c-.587.015-1.174.022-1.761.047a.712.712,0,0,1-.594-.3,5.8,5.8,0,0,0-8.765-.138A1.348,1.348,0,0,1,35,24.922q-10.141-.014-20.282,0a3.65,3.65,0,0,0-3.79,2.458,3.6,3.6,0,0,0,3.586,4.679q10.248.012,20.494-.006a1.375,1.375,0,0,1,1.145.488,5.763,5.763,0,0,0,8.212.3,2.325,2.325,0,0,1,2.093-.787c.255.034.516.022.774.031a.563.563,0,0,1,.1.527,18.815,18.815,0,0,1-.989,3.648.822.822,0,0,1-.388.475l-9.531.038a3.8,3.8,0,0,0-.565,0,2.515,2.515,0,0,1-2.276-.869,5.8,5.8,0,0,0-8.206.468,1.06,1.06,0,0,1-.9.4c-1.929,0-3.867-.082-5.786.069a3.379,3.379,0,0,0-3.164,3.706,3.543,3.543,0,0,0,3.582,3.363c1.788.031,3.578.016,5.367,0a1.083,1.083,0,0,1,.9.4,5.827,5.827,0,0,0,8.723-.014.868.868,0,0,1,.694-.39c2.165.025,4.33.026,6.5.034.08.349-.2.507-.39.693a17.027,17.027,0,0,1-5.806,4.03.242.242,0,0,0-.155.126" fill="#1595d6"/>
        <path id="Trazado_614815" data-name="Trazado 614815" d="M24.271,29.665q-4.77,0-9.539,0a1.929,1.929,0,0,1-.833-.1,1.11,1.11,0,0,1-.733-1.165,1.05,1.05,0,0,1,.827-1.016,3.162,3.162,0,0,1,.836-.09c6.312-.005,12.625,0,18.937-.017.6,0,.905.1.751.764a1.657,1.657,0,0,0-.014.353c-.014,1.271-.013,1.271-1.329,1.271h-8.9" fill="#6b7b82"/>
        <path id="Trazado_614816" data-name="Trazado 614816" d="M46.983,39.156a17.854,17.854,0,0,1-1.372,2.118.708.708,0,0,1-.677.268c-2.921,0-5.841-.01-8.761.005-.417,0-.625-.08-.533-.544a3.427,3.427,0,0,0,.024-.634c0-1.213,0-1.213,1.189-1.213h10.13Z" fill="#6c7b81"/>
        <path id="Trazado_614817" data-name="Trazado 614817" d="M47.031,17.794H37.856c-.611,0-1.223-.01-1.834,0-.3.006-.441-.1-.383-.409.009-.046,0-.094.008-.141.079-.579-.263-1.344.1-1.694.393-.379,1.163-.118,1.768-.121,2.374-.014,4.749.015,7.123-.02a1.261,1.261,0,0,1,1.263.665c.317.543.69,1.053,1.13,1.716" fill="#6c7b81"/>
        <path id="Trazado_614818" data-name="Trazado 614818" d="M39.88,31.943A3.493,3.493,0,0,1,40.171,25a3.3,3.3,0,0,1,1.407,2.112,4.737,4.737,0,0,1-.787,4.332c-.212.3-.449.623-.911.5" fill="#ffd300"/>
        <path id="Trazado_614819" data-name="Trazado 614819" d="M29.277,43.817a3.491,3.491,0,0,1,.154-6.95,2.9,2.9,0,0,1,1.4,1.938,4.688,4.688,0,0,1-.593,4.293c-.227.335-.46.727-.964.719" fill="#ffd300"/>
        <path id="Trazado_614820" data-name="Trazado 614820" d="M29.138,20.069a3.493,3.493,0,0,1,.293-6.935,2.565,2.565,0,0,1,1.307,1.68,4.765,4.765,0,0,1-.766,4.915c-.217.27-.445.5-.834.34" fill="#ffd300"/>
        <path id="Trazado_614821" data-name="Trazado 614821" d="M29.138,20.069c.319.01.464-.206.665-.42a4.733,4.733,0,0,0-.255-6.342.876.876,0,0,1-.117-.173A3.442,3.442,0,0,1,33.269,16.5a3.534,3.534,0,0,1-3.732,3.676,2.129,2.129,0,0,1-.4-.1" fill="#ffb100"/>
        <path id="Trazado_614822" data-name="Trazado 614822" d="M29.277,43.817a4.579,4.579,0,0,0,.457-6.571c-.111-.118-.2-.253-.3-.379a3.215,3.215,0,0,1,3.358,1.689,3.325,3.325,0,0,1-.166,3.837,3.23,3.23,0,0,1-3.346,1.424" fill="#ffb100"/>
        <path id="Trazado_614823" data-name="Trazado 614823" d="M39.88,31.943a3.641,3.641,0,0,0,1.7-3.105A5.066,5.066,0,0,0,40.171,25a3.223,3.223,0,0,1,3.334,1.754,3.294,3.294,0,0,1-.245,3.833,3.243,3.243,0,0,1-3.38,1.356" fill="#ffb100"/>
        <path id="Trazado_614824" data-name="Trazado 614824" d="M21.262,41.539c-.682,0-1.364.012-2.045,0a1.243,1.243,0,0,1-1.332-1.171,1.2,1.2,0,0,1,1.3-1.2c1.434-.023,2.868,0,4.3-.013.349,0,.466.1.381.455a3.193,3.193,0,0,0,.005,1.536c.084.336-.053.406-.351.4-.752-.011-1.5,0-2.257,0" fill="#6c7b81"/>
        <path id="Trazado_614825" data-name="Trazado 614825" d="M21.3,17.794c-.7,0-1.408.009-2.111,0a1.219,1.219,0,0,1-1.3-1.112,1.155,1.155,0,0,1,1.179-1.227c1.5-.046,3-.017,4.5-.025.3,0,.367.143.3.4a2.494,2.494,0,0,0-.05,1.255c.154.607-.01.776-.62.723-.629-.054-1.266-.012-1.9-.012" fill="#6b7b81"/>
        <path id="Trazado_614826" data-name="Trazado 614826" d="M45.959,36.735a20.115,20.115,0,0,0,1.276-4.65c.632-.008,1.265,0,1.9-.031.382-.02.429.16.369.462a22.78,22.78,0,0,1-1.123,3.9.473.473,0,0,1-.521.353c-.632-.02-1.264-.021-1.9-.029" fill="#0066af"/>
        <path id="Trazado_614827" data-name="Trazado 614827" d="M47.229,24.872a21.413,21.413,0,0,0-1.26-4.658c2.807.05,2.061-.632,3,2.122.224.659.349,1.352.519,2.029.092.37.006.567-.436.54-.606-.037-1.215-.024-1.823-.033" fill="#0066af"/>
        <path id="Trazado_614828" data-name="Trazado 614828" d="M48.021,29.653c-.539,0-1.2.189-1.586-.053s.006-.92-.051-1.414c-.1-.892-.07-.9.83-.9.7,0,1.408.018,2.111-.007.39-.014.53.137.576.515.217,1.792.149,1.868-1.88,1.855" fill="#6b7b81"/>
        <path id="Trazado_614829" data-name="Trazado 614829" d="M34.493,13h6.823a17.627,17.627,0,0,0-3.063-2.742,37.21,37.21,0,0,0-3.331-2.085A18.919,18.919,0,0,1,41.444,11.5c.576.431,1.114.913,1.811,1.49-.84.039-1.5.092-2.163.1-2.067.011-4.134.005-6.2,0-.138,0-.285.026-.4-.089" fill="#0066ae"/>
        <path id="Trazado_614830" data-name="Trazado 614830" d="M34.945,48.8a9.951,9.951,0,0,1,1.845-1.1A19.527,19.527,0,0,0,41.3,43.951h1.936A20.567,20.567,0,0,1,34.945,48.8" fill="#0066ae"/>
      </g>
    </g>
  </g>
</svg>
