<svg xmlns="http://www.w3.org/2000/svg" xmlns:xlink="http://www.w3.org/1999/xlink" width="155.182" height="155.182" viewBox="0 0 155.182 155.182">
  <defs>
    <filter id="Elipse_5221" x="0" y="0" width="155.182" height="155.182" filterUnits="userSpaceOnUse">
      <feOffset dy="6" input="SourceAlpha"/>
      <feGaussianBlur stdDeviation="5" result="blur"/>
      <feFlood flood-opacity="0.329"/>
      <feComposite operator="in" in2="blur"/>
      <feComposite in="SourceGraphic"/>
    </filter>
    <clipPath id="clip-path">
      <rect id="Rectángulo_325003" data-name="Rectángulo 325003" width="76.153" height="76.15" fill="none"/>
    </clipPath>
  </defs>
  <g id="Grupo_876519" data-name="Grupo 876519" transform="translate(-733.053 -872.401)">
    <g transform="matrix(1, 0, 0, 1, 733.05, 872.4)" filter="url(#Elipse_5221)">
      <circle id="Elipse_5221-2" data-name="Elipse 5221" cx="62.591" cy="62.591" r="62.591" transform="translate(15 9)" fill="#ffb500"/>
    </g>
    <g id="Grupo_876496" data-name="Grupo 876496" transform="translate(772.235 910.026)">
      <g id="Grupo_876495" data-name="Grupo 876495" transform="translate(0 0)" clip-path="url(#clip-path)">
        <path id="Trazado_614977" data-name="Trazado 614977" d="M63.422,11.295a1.361,1.361,0,0,1,1.547-1.136c3.225.022,6.45.007,9.674.012,1.052,0,1.487.435,1.487,1.484q0,21.334,0,42.663c0,1.1-.424,1.527-1.524,1.529-2,0-4.006,0-6.248,0,.718.693,1.306,1.237,1.867,1.807a1.3,1.3,0,0,1,0,2.125Q65.016,65,59.795,70.212c-.8.8-1.414.773-2.239-.051q-3.4-3.39-6.778-6.792a.766.766,0,0,0-1.012-.224c-.9.42-2.192.54-2.66,1.232s-.151,1.934-.156,2.935c-.008,2.406,0,4.81,0,7.216,0,1.216-.4,1.62-1.594,1.62q-7.3,0-14.589,0c-1.164,0-1.577-.406-1.579-1.554,0-3.145-.018-6.291.014-9.436.006-.6-.105-.954-.737-1.143a13.618,13.618,0,0,1-2.034-.852.807.807,0,0,0-1.085.218c-2.187,2.223-4.4,4.421-6.608,6.627-1.048,1.048-1.547,1.054-2.578.024Q11.111,64.984,6.065,59.937c-.956-.958-.953-1.492.02-2.465,2.223-2.225,4.44-4.456,6.683-6.661a.81.81,0,0,0,.215-1.085,19.7,19.7,0,0,1-.908-2.181c-.166-.492-.433-.6-.919-.592-3.2.022-6.4.013-9.6.011C.411,46.963,0,46.551,0,45.39q0-7.334,0-14.67C0,29.62.425,29.2,1.535,29.2c3.223,0,6.45-.013,9.674.009a.758.758,0,0,0,.858-.567c.335-.937,1.114-1.908.992-2.764s-1.266-1.466-1.967-2.175c-1.69-1.713-3.4-3.4-5.1-5.108-.851-.854-.853-1.44,0-2.293q5.126-5.133,10.262-10.259c.89-.891,1.47-.9,2.351-.019,2.228,2.222,4.466,4.434,6.661,6.686a.932.932,0,0,0,1.278.228,15.158,15.158,0,0,1,2.04-.841.777.777,0,0,0,.614-.9c-.025-3.2-.014-6.4-.012-9.594,0-1.17.4-1.581,1.549-1.582q7.336,0,14.67,0c1.14,0,1.543.417,1.543,1.59,0,2.536-.038,5.074.024,7.611.018.8-.193,1.1-.977.953a1.135,1.135,0,0,0-.314.022c-1.063.43-1.495.166-1.511-.974-.026-1.8,0-3.593-.011-5.391-.006-.956-.072-1.018-1.052-1.025-1.613-.011-3.225.013-4.835-.011-1.821-.058-3.645.006-5.467-.034-.65-.015-.883.221-.878.873.022,2.827.013,5.655.008,8.482,0,1.363-.231,1.7-1.477,2.214-1.321.54-2.645,1.071-3.949,1.652a1.914,1.914,0,0,1-2.365-.473c-1.968-1.99-3.955-3.965-5.938-5.944-.74-.738-.776-.738-1.508-.008q-3.591,3.587-7.176,7.176c-.706.708-.708.754-.014,1.448q2.883,2.891,5.772,5.776c1.087,1.091,1.155,1.446.55,2.881-.524,1.241-1.067,2.474-1.548,3.733a1.939,1.939,0,0,1-2.047,1.392c-2.827-.032-5.654-.013-8.482-.009-.951,0-1,.046-1,.97,0,1.77-.019,3.541.015,5.313.026,1.663,0,3.325.015,4.988.008.88.076.953.947.956,2.507.011,5.016-.011,7.524.014.478.006.576-.129.48-.594a23.2,23.2,0,0,1-.554-4.471,1.743,1.743,0,0,1,.192-1.072,4.223,4.223,0,0,1,2.439-.121c.388.189.331.562.355.9a25.433,25.433,0,0,0,2.261,9.327A23.993,23.993,0,0,0,26.12,58.742a23.028,23.028,0,0,0,12.489,3.217,23.785,23.785,0,0,0,15.166-5.9c-2.136,0-4.091,0-6.046.008-3.141-.012-6.285.027-9.425-.008-7.411-.085-12.928-3.442-16.322-9.972a17.1,17.1,0,0,1-.47-15.014,17.463,17.463,0,0,1,5.853-7.435c1.074-.8,1.2-.775,1.977.342.1.157.2.306.295.47.415.748.4.936-.308,1.447A14.792,14.792,0,0,0,25.74,29.55a14.487,14.487,0,0,0-2.222,4.958c-.167.729-.093.807.684.828a1.181,1.181,0,0,1,.159,0,4.856,4.856,0,0,0,4.955-2,29.868,29.868,0,0,1,2.892-2.928A1.8,1.8,0,0,0,32.789,29q-.03-1.663,0-3.328c.024-1.213.543-1.734,1.751-1.754,1.11-.018,2.219-.022,3.326,0a1.72,1.72,0,0,0,1.406-.577c.483-.524,1-1.012,1.5-1.519.4-.377.754-.815,1.186-1.15a2.4,2.4,0,0,0,.956-2.489c-.032-.921-.044-1.84-.006-2.757a1.526,1.526,0,0,1,1.67-1.68,14.526,14.526,0,0,1,4.074.2c.29.09.427-.133.592-.3,1.234-1.233,2.459-2.474,3.709-3.69a1.115,1.115,0,0,0,.343-.906c-.017-1.241-.009-2.485-.007-3.726.006-1.093.428-1.505,1.542-1.512.026,0,.052,0,.078,0,1.4-.011,2.956.359,4.15-.142S61.117,1.839,62.075.816A2.4,2.4,0,0,1,64.015,0c3.78.039,7.559.026,11.336.006.566,0,.819.065.8.741-.051,1.807-.014,1.808-1.859,1.808-3.2,0-6.4.011-9.594-.013a1.511,1.511,0,0,0-1.229.523Q62.445,4.172,61.34,5.2A1.286,1.286,0,0,0,60.9,6.3c.038.87.025,1.744.032,2.615a1.838,1.838,0,0,1,.2.994,1.548,1.548,0,0,1-1.692,1.742c-1.132.034-2.266.019-3.4,0a1.806,1.806,0,0,0-1.408.582c-1.031,1.054-2.077,2.1-3.128,3.131a1.658,1.658,0,0,0-.525,1.267q.012,1.738,0,3.478a1.577,1.577,0,0,1-1.034,1.615,16.769,16.769,0,0,1-3.436.067,2.59,2.59,0,0,0-2.453,1.05c-.866.85-1.709,1.728-2.584,2.568a1.934,1.934,0,0,0-.633,1.551c.025,1,.013,2.007,0,3.01-.015,1.483-.517,1.977-2.021,2-.871.009-1.747.05-2.614-.011a2.632,2.632,0,0,0-2.229.937c-1.459,1.528-2.993,2.983-4.465,4.5a2.807,2.807,0,0,1-2.253.931c-1.108-.041-2.22-.025-3.329,0-.764.014-.865.149-.782.911a19.909,19.909,0,0,0,.508,2.884.911.911,0,0,0,.986.811q3.685-.011,7.369,0c.541,0,.757-.243.756-.769,0-1.214-.014-2.429,0-3.645.022-1.389.54-1.915,1.932-1.925,2.377-.019,4.755,0,7.132-.007,1.025,0,1.077-.053,1.079-1.071.006-1.9,0-3.8.006-5.7.008-1.608.49-2.1,2.077-2.1,2.033-.009,4.066,0,6.1-.006,2.212-.04,1.942.329,1.966-1.97.006-.393-.019-.787.006-1.181-.021-.873-.033-1.744-.012-2.614.035-1.28.567-1.832,1.854-1.851,2.349-.031,4.7,0,7.048-.012,1.234,0,1.241-.008,1.242-1.224,0-2.138,0-4.274,0-6.412a1.594,1.594,0,0,1,.225-1.137" transform="translate(0 0)" fill="#040506"/>
        <path id="Trazado_614978" data-name="Trazado 614978" d="M42.218,20.184a1.609,1.609,0,0,0,.815-1.576c-.044-1.211.006-2.425-.021-3.636a1.2,1.2,0,0,1,.406-.966q1.78-1.741,3.523-3.522a1.28,1.28,0,0,1,1.031-.438c1.186.028,2.373.012,3.558.009,1.246,0,1.638-.4,1.644-1.655,0-.29.015-.579.022-.869l2.492,2.382c.007,2.826,0,5.652.035,8.476.007.58-.291.553-.686.551q-3.923-.011-7.844,0c-1.245,0-1.628.4-1.634,1.666,0,.872-.015,1.743-.024,2.614a.246.246,0,0,1-.227-.011c-1.091-.9-2.033-1.966-3.113-2.881-.032-.026-.007-.095.024-.143" transform="translate(7.733 1.381)" fill="#c62f16"/>
        <path id="Trazado_614979" data-name="Trazado 614979" d="M42.8,13.56c-1.215.007-2.429.018-3.645.02-1.547,0-1.865.316-1.87,1.832,0,.872-.017,1.743-.025,2.615a1.37,1.37,0,0,1-1.076.009,25.56,25.56,0,0,0-2.98-.388c-1.117-.1-1.239-.2-1.241-1.355-.009-3.983,0-7.966,0-11.949,0-.448-.009-.9.007-1.344a1.094,1.094,0,0,1,.239-.813c1.922-.008,3.845,0,5.766-.038.528-.011.594.2.59.648-.019,2,.031,4-.028,6-.022.781.161,1.132.976.977a1.235,1.235,0,0,1,.314.021c.012.819-.264,1.825.116,2.4s1.411.705,2.155,1.033c.237.1.47.217.7.325" transform="translate(5.858 0.394)" fill="#c62f16"/>
        <path id="Trazado_614980" data-name="Trazado 614980" d="M37.671,2.187c0,4.777.017,9.553-.011,14.329,0,.688.166.889.873.9a17.08,17.08,0,0,1,4.191.614,2.09,2.09,0,0,1-.848,2.245,16.122,16.122,0,0,0-1.3,1.231,3.539,3.539,0,0,1-1.1.033,15.858,15.858,0,0,0-9.547,1.85,1.765,1.765,0,0,1-1.1.372c-.786-1.061-.814-1.1-1.9-.221-5.77,4.682-8.179,10.73-6.554,17.981,1.668,7.441,6.538,11.948,13.991,13.625a15.693,15.693,0,0,0,3.46.318c3.17-.007,6.34.009,9.512.018-.045.428-.425.508-.716.648a19.214,19.214,0,0,1-13.189,1.6c-8.839-2.144-14.14-7.791-16-16.679a13.849,13.849,0,0,1-.262-2.36c-.019-.574-.235-.809-.812-.786-.633.027-1.269.008-1.9,0a1.333,1.333,0,0,1-.908-.2H11.046a1.551,1.551,0,0,1-1.052.239q-3.39.007-6.779,0a1.358,1.358,0,0,1-1.041-.256c-.008-1.9,0-3.806-.039-5.706-.012-.544.175-.647.672-.645,3.013.021,6.026-.015,9.038.025a1.654,1.654,0,0,0,1.809-1.174c.554-1.45,1.166-2.88,1.783-4.306a1.5,1.5,0,0,0-.372-1.854c-2.162-2.136-4.293-4.3-6.461-6.433-.4-.393-.479-.6-.031-1.044q4.017-3.944,7.961-7.96c.443-.45.652-.37,1.045.031,2.111,2.147,4.264,4.256,6.375,6.407a1.582,1.582,0,0,0,1.986.4c1.373-.607,2.771-1.151,4.157-1.728,1.085-.451,1.233-.677,1.233-1.837,0-3.012.011-6.024-.009-9.037,0-.5.1-.684.644-.672,1.9.043,3.8.03,5.706.038" transform="translate(0.391 0.394)" fill="#e3462c"/>
        <path id="Trazado_614981" data-name="Trazado 614981" d="M55.761,31.047c0-6.5.009-13-.015-19.5,0-.641.125-.846.806-.83,2.059.051,4.12.036,6.181.007.519-.007.654.136.653.653q-.021,19.656,0,39.309c0,.6-.214.67-.725.663-2.06-.026-4.122-.035-6.182,0-.594.012-.737-.144-.735-.736.022-6.526.014-13.051.014-19.576" transform="translate(10.22 1.966)" fill="#639aff"/>
        <path id="Trazado_614982" data-name="Trazado 614982" d="M54.8,34.593c0,4.807-.013,9.613.015,14.42,0,.628-.167.785-.781.773-2.059-.04-4.12-.027-6.179-.006-.477.006-.683-.065-.682-.627q.028-14.617,0-29.235c0-.5.136-.617.619-.611,2.112.026,4.226.033,6.338,0,.577-.009.682.177.679.711-.02,4.86-.012,9.719-.012,14.577" transform="translate(8.648 3.539)" fill="#548aff"/>
        <path id="Trazado_614983" data-name="Trazado 614983" d="M11.782,32.2c1.031,0,2.064.026,3.092-.026.62-.031.724.214.747.779A20.252,20.252,0,0,0,32.691,52.206,20,20,0,0,0,45.32,50.155a1.942,1.942,0,0,0,.252-.182h6.519a15.768,15.768,0,0,1-2.642,2.13,23.669,23.669,0,0,1-14.343,4.161A24.094,24.094,0,0,1,12.248,36.679a32.955,32.955,0,0,1-.466-4.48" transform="translate(2.16 5.898)" fill="#c62f16"/>
        <path id="Trazado_614984" data-name="Trazado 614984" d="M46.217,37.214c0,3.542-.019,7.085.017,10.626.007.647-.2.775-.793.764-2.061-.034-4.124-.03-6.185,0-.506.007-.665-.117-.664-.648q.027-10.785,0-21.57c0-.538.172-.648.67-.643,2.087.025,4.176.03,6.263,0,.547-.008.71.122.706.69-.027,3.595-.014,7.19-.014,10.785" transform="translate(7.075 4.719)" fill="#4976f2"/>
        <path id="Trazado_614985" data-name="Trazado 614985" d="M39.5,54.085v6.863c0,.74-.009,1.479,0,2.218.007.335-.033.538-.458.537q-5.9-.02-11.8,0c-.448,0-.432-.252-.432-.56,0-2.852.015-5.7-.011-8.555,0-.517.233-.48.568-.4a26.262,26.262,0,0,0,6.833.625,30.249,30.249,0,0,0,5.3-.724" transform="translate(4.913 9.916)" fill="#c62f16"/>
        <path id="Trazado_614986" data-name="Trazado 614986" d="M13.932,43.931c.12.16.218.276.3.4A26.877,26.877,0,0,0,22.405,52.5c.434.278.385.433.066.749q-3.014,2.984-5.995,6c-.295.3-.466.291-.759,0q-4.075-4.106-8.184-8.18c-.328-.324-.3-.506.011-.815,1.993-1.967,3.967-3.954,5.949-5.932.127-.127.27-.238.438-.385" transform="translate(1.338 8.054)" fill="#c62f16"/>
        <path id="Trazado_614987" data-name="Trazado 614987" d="M37.639,40.27V46.6c0,.306.089.64-.44.618-2.21-.092-4.427.137-6.638-.138-.459-.057-.543-.208-.542-.621q.02-6.294,0-12.587c0-.467.092-.638.6-.63q3.206.044,6.412,0c.482-.006.627.116.62.612-.028,2.137-.012,4.275-.012,6.412" transform="translate(5.503 6.095)" fill="#486be0"/>
        <path id="Trazado_614988" data-name="Trazado 614988" d="M59.478,49.987c.017.235-.142.318-.249.425Q55.117,54.533,51,58.655c-.3.306-.475.272-.757-.014q-2.982-3.012-6-5.994c-.331-.328-.34-.486.08-.749a25.2,25.2,0,0,0,5.213-4.35,1.093,1.093,0,0,1,.9-.357c1.9.014,3.8.018,5.7,0a1.2,1.2,0,0,1,.97.4c.654.69,1.338,1.35,2.009,2.025.128.129.247.266.348.375" transform="translate(8.068 8.651)" fill="#c62f16"/>
        <path id="Trazado_614989" data-name="Trazado 614989" d="M2.173,32.179l8.873.018a26.231,26.231,0,0,0,.7,6.331H7.529c-1.581,0-3.162-.012-4.743.008-.441.006-.663-.056-.651-.588.04-1.922.03-3.846.038-5.769" transform="translate(0.391 5.9)" fill="#c62f16"/>
        <path id="Trazado_614990" data-name="Trazado 614990" d="M21.019,38.618c2.639,0,5.14.007,7.641-.007.39,0,.486.136.484.5q-.021,2.851,0,5.7c0,.493-.144.5-.55.335a15.466,15.466,0,0,1-7.575-6.532" transform="translate(3.853 7.079)" fill="#3b57c4"/>
        <path id="Trazado_614991" data-name="Trazado 614991" d="M44.215,24.566a16.025,16.025,0,0,0-7.087-5.235,2.284,2.284,0,0,1,2.306-1.108c1.231.1,2.473.011,3.71,0a40.456,40.456,0,0,1,3.317,3.035c.008.943,0,1.887.033,2.829.018.441-.166.529-.553.509-.575-.032-1.15-.024-1.726-.033" transform="translate(6.807 3.339)" fill="#e3462c"/>
        <path id="Trazado_614992" data-name="Trazado 614992" d="M49.718,6.666c0,1.248,0,1.248-1.211,1.248-1.328,0-1.328,0-1.328-1.29,0-1.248,0-1.248,1.212-1.248,1.327,0,1.327,0,1.327,1.29" transform="translate(8.65 0.986)" fill="#fda100"/>
        <path id="Trazado_614993" data-name="Trazado 614993" d="M39.795,16.492c-1.193,0-1.193,0-1.193-1.188,0-1.35,0-1.35,1.345-1.35,1.193,0,1.193,0,1.193,1.188,0,1.35,0,1.35-1.345,1.35" transform="translate(7.077 2.558)" fill="#fda100"/>
        <path id="Trazado_614994" data-name="Trazado 614994" d="M32.562,23.808c0,1.263,0,1.263-1.276,1.263s-1.263,0-1.263-1.274,0-1.264,1.276-1.264,1.263,0,1.263,1.276" transform="translate(5.504 4.131)" fill="#fda100"/>
      </g>
    </g>
  </g>
</svg>
