<svg xmlns="http://www.w3.org/2000/svg" xmlns:xlink="http://www.w3.org/1999/xlink" width="155.182" height="155.182" viewBox="0 0 155.182 155.182">
  <defs>
    <filter id="Elipse_5220" x="0" y="0" width="155.182" height="155.182" filterUnits="userSpaceOnUse">
      <feOffset dy="6" input="SourceAlpha"/>
      <feGaussianBlur stdDeviation="5" result="blur"/>
      <feFlood flood-opacity="0.329"/>
      <feComposite operator="in" in2="blur"/>
      <feComposite in="SourceGraphic"/>
    </filter>
    <clipPath id="clip-path">
      <rect id="Rectángulo_325002" data-name="Rectángulo 325002" width="77.03" height="77.906" fill="none"/>
    </clipPath>
  </defs>
  <g id="Grupo_876518" data-name="Grupo 876518" transform="translate(-359.045 -872.401)">
    <g transform="matrix(1, 0, 0, 1, 359.04, 872.4)" filter="url(#Elipse_5220)">
      <circle id="Elipse_5220-2" data-name="Elipse 5220" cx="62.591" cy="62.591" r="62.591" transform="translate(15 9)" fill="#ffb500"/>
    </g>
    <g id="Grupo_876494" data-name="Grupo 876494" transform="translate(402 907.298)">
      <g id="Grupo_876493" data-name="Grupo 876493" transform="translate(0 0)" clip-path="url(#clip-path)">
        <path id="Trazado_614958" data-name="Trazado 614958" d="M4.622,77.906A14.026,14.026,0,0,1,3.1,77.289,5.444,5.444,0,0,1,.05,72.639c-.024-.354-.026-.709-.026-1.063Q.022,44.894,0,18.212a7.051,7.051,0,0,1,2.248-5.394c3.646-3.554,7.228-7.175,10.808-10.8a6.377,6.377,0,0,1,4.8-2.007C30.5.049,43.136.08,55.776,0A5.892,5.892,0,0,1,61.8,6c-.06,4.839-.022,9.679-.008,14.518a1.432,1.432,0,0,1-.764,1.442c-1.3.222-1.737-.139-1.743-1.521-.016-4.6,0-9.2-.007-13.807A8.292,8.292,0,0,0,59.235,5.5a3.169,3.169,0,0,0-3.28-2.941c-2.174-.03-4.348-.011-6.522-.006q-15.5.016-31.009.006c-1.547,0-1.548,0-1.548,1.539,0,2.813-.1,5.631.028,8.438A4.335,4.335,0,0,1,12.473,17q-4.256,0-8.513,0c-1.374,0-1.376,0-1.376,1.384q0,26.648-.009,53.3a3.326,3.326,0,0,0,1.966,3.447,4.13,4.13,0,0,0,1.716.25q9.311,0,18.621,0,12.236,0,24.471,0c2.253.041,4.509.05,6.761,0a3.21,3.21,0,0,0,3.169-3.242c.033-.506-.026-1.016.046-1.519a1.1,1.1,0,0,1,1.254-1.092c.966.257,1.166.549,1.21,1.522a6.623,6.623,0,0,1-1.468,4.994,7.323,7.323,0,0,1-3.092,1.857Z" transform="translate(0 0)" fill="#040506"/>
        <path id="Trazado_614959" data-name="Trazado 614959" d="M63.135,26.44a5.253,5.253,0,0,1,3.835,1.989,2.087,2.087,0,0,0,2.207.616,4.555,4.555,0,0,1,5.707,3.162,7.428,7.428,0,0,1,.215,1.268,2.025,2.025,0,0,0,1.372,1.833,4.661,4.661,0,0,1,2.286,7.047,2.026,2.026,0,0,0,.012,2.362,4.648,4.648,0,0,1-2.252,7,2.107,2.107,0,0,0-1.431,1.958,4.522,4.522,0,0,1-3.619,4.383c-.476.119-.307.465-.308.727-.012,3.141,0,6.282-.01,9.423A2.517,2.517,0,0,1,69.1,70.911a2.384,2.384,0,0,1-1.8-.393c-1.187-.72-2.365-1.455-3.553-2.174-.2-.119-.354-.348-.636-.282a3.641,3.641,0,0,1-1.2.906c-.844.561-1.735,1.047-2.583,1.6a2.685,2.685,0,0,1-3.01.191A2.726,2.726,0,0,1,55,68.193c0-2.864-.026-5.728.018-8.592.013-.869-.135-1.493-1.1-1.66a1.606,1.606,0,0,1-.341-.163,4.86,4.86,0,0,1-2.513-4,2.227,2.227,0,0,0-1.51-1.988,4.779,4.779,0,0,1-2.965-3.84,3.97,3.97,0,0,1,.538-2.772,2.86,2.86,0,0,0,.026-3.253,4.609,4.609,0,0,1,2.036-6.447,3.08,3.08,0,0,0,1.957-2.7,4.4,4.4,0,0,1,2.328-3.456,4.3,4.3,0,0,1,3.423-.508,2.306,2.306,0,0,0,2.53-.723,4.755,4.755,0,0,1,2.58-1.63,2.3,2.3,0,0,1,1.123-.015" transform="translate(-2.55 -1.445)" fill="#040506"/>
        <path id="Trazado_614960" data-name="Trazado 614960" d="M63.452,25.129a5.35,5.35,0,0,0-3.805,2.037,1.846,1.846,0,0,1-1.988.621,5.106,5.106,0,0,0-3.8.359,1.55,1.55,0,0,1-.233-1.159c-.01-3.42,0-6.839-.012-10.256a1.137,1.137,0,0,1,.433-.845,2.383,2.383,0,0,0,.676-1.853,21.4,21.4,0,0,1,.008-2.487,4.012,4.012,0,0,0-1-3.121,11.093,11.093,0,0,1-.07-2.035,5.1,5.1,0,0,0-1.1-3.376.6.6,0,0,1-.207-.541c2.251-.008,4.5-.047,6.754-.012a3.374,3.374,0,0,1,3.252,3.575c.01,4.886,0,9.771.006,14.656,0,1.116.4,1.47,1.536,1.4a.722.722,0,0,0-.461.8c.043.741.018,1.486.021,2.23" transform="translate(-2.867 -0.134)" fill="#def1fc"/>
        <path id="Trazado_614961" data-name="Trazado 614961" d="M53.863,59.4a1.449,1.449,0,0,0,.417.156c1.375.066,1.28,1.01,1.268,1.992-.034,2.838,0,5.675-.018,8.513a2.459,2.459,0,0,0,3.886,2.211c1.337-.8,2.617-1.7,4.017-2.4q.007,1.456.013,2.914a1.318,1.318,0,0,0-1.1,1.546,6.683,6.683,0,0,1-.092,1.884,3.308,3.308,0,0,1-3.092,2.646c-2.271.038-4.543,0-6.814-.009a.74.74,0,0,1,.238-.614,5.2,5.2,0,0,0,1.044-3.411q0-7.1,0-14.191c0-.419-.1-.869.23-1.233" transform="translate(-2.868 -3.255)" fill="#def1fc"/>
        <path id="Trazado_614962" data-name="Trazado 614962" d="M51.129,56.283c0,5.085-.013,10.169.008,15.253a5.4,5.4,0,0,1-1.525,4.2c-.252.009-.506.024-.758.024-14.189,0-28.379-.023-42.568.028a3.669,3.669,0,0,1-3.853-3.857c.055-17.946.03-35.891.03-53.835,0-1.223,0-1.223,1.255-1.223q4.371,0,8.742,0c2.769,0,4.371-1.607,4.376-4.39.008-3.093.013-6.184-.009-9.277,0-.541.115-.763.707-.763q16,.03,32,.024a.42.42,0,0,1,.076.012,5.462,5.462,0,0,1,1.52,4.507c-.021.481-.016.963-.023,1.443a9.666,9.666,0,0,1-1.8-.131Q38,8.322,26.688,8.306a2.664,2.664,0,0,0-1.609.324A2.216,2.216,0,0,0,24,10.521c0,1.265-.026,2.531.006,3.8a2.183,2.183,0,0,0,1.8,2.229,7.229,7.229,0,0,0,2.34.075c.647-.056.9-.6,1.248-1.017a6.033,6.033,0,0,1,3.043,0,2.08,2.08,0,0,0,2.148,1.065q7.16-.038,14.322,0a7.4,7.4,0,0,1,2.02-.109c.3.191.2.494.2.758q.006,5.409,0,10.821a4.951,4.951,0,0,0-2.3,4.046,2.218,2.218,0,0,1-1.6,1.928,4.464,4.464,0,0,0-2.869,3.787,4.114,4.114,0,0,0,.658,2.82,2.58,2.58,0,0,1,0,2.975,4.474,4.474,0,0,0,2.151,6.564,2.516,2.516,0,0,1,1.7,2.348,4.7,4.7,0,0,0,2.252,3.669" transform="translate(-0.133 -0.133)" fill="#f1f6fb"/>
        <path id="Trazado_614963" data-name="Trazado 614963" d="M4.4,14.673,14.6,4.468c.139.075.026.3.026.48q.013,3.879,0,7.756c0,1.361-.569,1.955-1.928,1.963-2.759.018-5.519.006-8.3.006" transform="translate(-0.241 -0.245)" fill="#da6a74"/>
        <path id="Trazado_614964" data-name="Trazado 614964" d="M61.785,30.342a2.792,2.792,0,0,1,1.525-1.3,2.247,2.247,0,0,1,2.463.748,4.621,4.621,0,0,0,4.96,1.619,2.178,2.178,0,0,1,2.828,2.026,4.71,4.71,0,0,0,3.117,4.271,2.19,2.19,0,0,1,1.1,3.27,4.715,4.715,0,0,0-.008,5.346A2.191,2.191,0,0,1,76.7,49.6a4.744,4.744,0,0,0-3.143,4.337,2.138,2.138,0,0,1-2.653,2,4.887,4.887,0,0,0-5.234,1.682,2.2,2.2,0,0,1-3.4-.035C62.1,57.4,61.953,57.2,61.8,57c.157-.453.594-.6.939-.831a14.51,14.51,0,0,0,3.428-3.259c.853-.5,1.844-.672,2.68-1.225a9.375,9.375,0,0,0-1.765-16.859,2.307,2.307,0,0,1-.753-.347,16.743,16.743,0,0,0-4.158-3.688.739.739,0,0,1-.383-.448" transform="translate(-3.385 -1.586)" fill="#ffc44e"/>
        <path id="Trazado_614965" data-name="Trazado 614965" d="M61.094,30.423a15.009,15.009,0,0,1,4.6,4c-.3.249-.627.112-.945.071a9.338,9.338,0,1,0-1.664,18.559,10.087,10.087,0,0,0,1.9-.078.576.576,0,0,1,.568.118,9.739,9.739,0,0,1-2.4,2.561,19.8,19.8,0,0,1-2.039,1.423A4.991,4.991,0,0,0,56.513,56a2.208,2.208,0,0,1-2.8-2.091,4.571,4.571,0,0,0-3.061-4.2,2.209,2.209,0,0,1-1.1-3.324,4.7,4.7,0,0,0,0-5.277,2.193,2.193,0,0,1,1.018-3.293,4.685,4.685,0,0,0,3.146-4.307,2.2,2.2,0,0,1,2.849-2.017,4.914,4.914,0,0,0,4.523-1.071" transform="translate(-2.695 -1.667)" fill="#ffd767"/>
        <path id="Trazado_614966" data-name="Trazado 614966" d="M69.432,65.1c0,1.544,0,3.09-.006,4.634,0,.21.122.492-.128.615-.2.1-.367-.117-.532-.217-1.165-.71-2.332-1.418-3.485-2.147A2.547,2.547,0,0,0,62.3,68c-1.168.753-2.369,1.456-3.545,2.2-.477.3-.635.239-.631-.359q.03-4.787,0-9.573c0-.528.209-.606.624-.518a2.61,2.61,0,0,1,1.411.828c2.264,2.444,5.057,2.435,7.286,0a2.809,2.809,0,0,1,.51-.449c.407-.272.9-.554,1.338-.337.342.171.128.7.132,1.061.02,1.418.008,2.837.008,4.254" transform="translate(-3.185 -3.272)" fill="#e79d38"/>
        <path id="Trazado_614967" data-name="Trazado 614967" d="M30.641,16.01c-.258.926-.556,1.184-1.482,1.178a9.791,9.791,0,0,1-2.193-.083,2.429,2.429,0,0,1-2-2.339c-.045-1.238-.035-2.48-.016-3.72a2.483,2.483,0,0,1,2.715-2.669q8.087-.01,16.173,0c2.2,0,4.4.012,6.605-.007a3.856,3.856,0,0,1,1.9.384A2.976,2.976,0,0,1,53.455,11.4a21.483,21.483,0,0,0,0,2.714,2.929,2.929,0,0,1-1.3,2.777,5.426,5.426,0,0,1-1.93.308c-4.989-.012-9.979-.006-14.967-.008-1.083,0-1.391-.232-1.622-1.184a1.039,1.039,0,0,1,.88-1.241,4.8,4.8,0,0,1,1.135-.065q6.986,0,13.973,0c1.234,0,1.278-.046,1.283-1.278,0-.582-.01-1.164,0-1.747.01-.554-.245-.786-.783-.755-.177.01-.354,0-.532,0H28.861c-.253,0-.506,0-.759.014a.527.527,0,0,0-.572.565c-.029.861-.025,1.721,0,2.582.01.406.225.584.618.606.481.026.964-.022,1.441.048a1.09,1.09,0,0,1,1.053,1.273" transform="translate(-1.366 -0.458)" fill="#040506"/>
        <path id="Trazado_614968" data-name="Trazado 614968" d="M30.768,16.137a1.231,1.231,0,0,0-1.455-1.107.672.672,0,0,1-.076,0c-1.877-.018-1.888-.018-1.872-1.86.007-.756-.319-1.741.124-2.208.481-.508,1.484-.162,2.256-.164,6.917-.013,13.834,0,20.751-.022.625,0,.843.147.8.792a21.905,21.905,0,0,0,0,2.66c.038.64-.182.818-.811.815-4.459-.024-8.919-.013-13.378-.013-.659,0-1.319.015-1.976,0a1.2,1.2,0,0,0-1.369,1.11H30.768" transform="translate(-1.493 -0.585)" fill="#bfdaf4"/>
        <path id="Trazado_614969" data-name="Trazado 614969" d="M24.806,39.988q-7.177,0-14.355,0c-1.045,0-1.625-.8-1.214-1.625a1.177,1.177,0,0,1,.961-.65,3.976,3.976,0,0,1,.531-.01q14.127,0,28.253,0a2.12,2.12,0,0,1,.823.081,1.075,1.075,0,0,1,.747,1.251,1.013,1.013,0,0,1-1.013.94c-.454.031-.911.014-1.367.014H24.806" transform="translate(-0.499 -2.065)" fill="#050506"/>
        <path id="Trazado_614970" data-name="Trazado 614970" d="M24.855,46.206c4.76,0,9.519.006,14.279-.008a1.285,1.285,0,0,1,1.371.721,1.151,1.151,0,0,1-.889,1.554,4,4,0,0,1-.682.018H10.754c-.177,0-.355.012-.531,0A1.2,1.2,0,0,1,9.1,47.354a1.133,1.133,0,0,1,1.17-1.139c1.468-.021,2.937-.009,4.4-.009H24.855" transform="translate(-0.499 -2.531)" fill="#040506"/>
        <path id="Trazado_614971" data-name="Trazado 614971" d="M24.908,54.687q6.949,0,13.9,0a5.554,5.554,0,0,1,.833.034,1,1,0,0,1,.926,1.023,1.013,1.013,0,0,1-.782,1.143,3.083,3.083,0,0,1-.823.092q-14.126.007-28.251,0a2.712,2.712,0,0,1-.82-.1,1.113,1.113,0,0,1,.213-2.162c.276-.027.556-.026.835-.026H24.908" transform="translate(-0.5 -2.996)" fill="#050607"/>
        <path id="Trazado_614972" data-name="Trazado 614972" d="M24.806,29.241q7.139,0,14.277,0c.978,0,1.439.327,1.48,1.037a1.03,1.03,0,0,1-.9,1.2,4.891,4.891,0,0,1-.9.062q-13.9,0-27.795,0a4.294,4.294,0,0,1-1.052-.1,1.019,1.019,0,0,1-.792-1.072A1.038,1.038,0,0,1,10,29.3a4.427,4.427,0,0,1,.831-.053q6.987,0,13.973,0" transform="translate(-0.5 -1.602)" fill="#070708"/>
        <path id="Trazado_614973" data-name="Trazado 614973" d="M17.625,67.116q3.492,0,6.983,0c.914,0,1.4.392,1.418,1.107S25.492,69.4,24.577,69.4q-6.983.006-13.966,0c-.935,0-1.492-.425-1.509-1.133s.528-1.151,1.464-1.153q3.53-.006,7.06,0" transform="translate(-0.499 -3.677)" fill="#050506"/>
        <path id="Trazado_614974" data-name="Trazado 614974" d="M65.815,53.315a10.492,10.492,0,0,1-6.015-.567A9.567,9.567,0,0,1,62.113,34.5a11.933,11.933,0,0,1,3.848.147A10,10,0,0,1,71.741,39a9.573,9.573,0,0,1-5.584,14.174,3.049,3.049,0,0,0-.341.141" transform="translate(-2.96 -1.885)" fill="#040506"/>
        <path id="Trazado_614975" data-name="Trazado 614975" d="M68.244,49.708a7.24,7.24,0,1,1-.019-11.255,6.818,6.818,0,0,1,1.081,3.258,15.272,15.272,0,0,1-.321,6.368,3.3,3.3,0,0,1-.741,1.629" transform="translate(-3.093 -2.019)" fill="#e79d38"/>
        <path id="Trazado_614976" data-name="Trazado 614976" d="M68.927,49.8a15.645,15.645,0,0,0-.019-11.255c3.623,2.711,3.633,8.65.019,11.255" transform="translate(-3.776 -2.112)" fill="#e3911c"/>
      </g>
    </g>
  </g>
</svg>
