<svg xmlns="http://www.w3.org/2000/svg" xmlns:xlink="http://www.w3.org/1999/xlink" width="155.183" height="155.183" viewBox="0 0 155.183 155.183">
  <defs>
    <filter id="Elipse_5221" x="0" y="0" width="155.183" height="155.183" filterUnits="userSpaceOnUse">
      <feOffset dy="6" input="SourceAlpha"/>
      <feGaussianBlur stdDeviation="5" result="blur"/>
      <feFlood flood-opacity="0.329"/>
      <feComposite operator="in" in2="blur"/>
      <feComposite in="SourceGraphic"/>
    </filter>
    <clipPath id="clip-path">
      <rect id="Rectángulo_325006" data-name="Rectángulo 325006" width="77.542" height="77.546" fill="none"/>
    </clipPath>
  </defs>
  <g id="Grupo_876522" data-name="Grupo 876522" transform="translate(-5154.053 10828.599)">
    <g transform="matrix(1, 0, 0, 1, 5154.05, -10828.6)" filter="url(#Elipse_5221)">
      <circle id="Elipse_5221-2" data-name="Elipse 5221" cx="62.591" cy="62.591" r="62.591" transform="translate(15 9)" fill="#ffb500"/>
    </g>
    <g id="Grupo_876502" data-name="Grupo 876502" transform="translate(5198 -10792.67)">
      <g id="Grupo_876501" data-name="Grupo 876501" transform="translate(0 0)" clip-path="url(#clip-path)">
        <path id="Trazado_615053" data-name="Trazado 615053" d="M0,38.734V1.759C0,.336.329,0,1.72,0H55.814c1.39,0,1.72.339,1.72,1.76q0,11.96-.015,23.92c0,.683.163.761.819.691a16.524,16.524,0,0,1,11.842,3.135A17.031,17.031,0,0,1,77.5,45.089a17.4,17.4,0,0,1-14.347,15.9,14.532,14.532,0,0,1-5.045.157c-.639-.106-.58.237-.58.647q.009,7,0,13.993c0,1.42-.333,1.761-1.719,1.761H1.72c-1.388,0-1.72-.339-1.72-1.76V38.734" transform="translate(0 0)" fill="#040506"/>
        <path id="Trazado_615054" data-name="Trazado 615054" d="M2.955,72.97c-.009-.26-.025-.52-.025-.78q0-34.2-.018-68.4c0-.707.171-.88.878-.879q24.194.033,48.388.018c.259,0,.52.016.78.026a1.333,1.333,0,0,1,.249,1.032q.009,11.672,0,23.344a1.568,1.568,0,0,1-.254,1.039,17.491,17.491,0,0,0-9.45,11.487,15.088,15.088,0,0,0-.532,4.943c.038.58-.147.667-.674.666-6.2-.02-12.4,0-18.6-.026-.59,0-.788.117-.771.749.044,1.765.013,1.766,1.773,1.766,5.993,0,11.986.009,17.979-.015.544,0,.771.143.872.675.115.6.334,1.187.527,1.841h-.9c-6.488,0-12.976.012-19.464-.018-.672,0-.8.184-.788.814.044,1.7.014,1.706,1.754,1.706q9.966,0,19.933-.01a1.056,1.056,0,0,1,1.057.563,17.646,17.646,0,0,0,7.286,6.525,4.1,4.1,0,0,1,.018,2.981,2.382,2.382,0,0,1-1.37.195q-13.322.006-26.645,0c-.26,0-.521,0-.782,0-.892.022-.982.115-.984,1,0,.915.083,1,1.135,1q13.556.006,27.113.007a2.745,2.745,0,0,1,1.527.193A3.4,3.4,0,0,1,53,68a2.355,2.355,0,0,1-1.442.212q-13.327.009-26.654,0c-.26,0-.521-.006-.782,0-.814.027-.9.115-.924.9-.027,1.008.061,1.1,1.195,1.1q13.405,0,26.811.007a3.37,3.37,0,0,1,1.762.189.992.992,0,0,1-.007,1.106,2.781,2.781,0,0,1-2.208,1.663,5.644,5.644,0,0,1-.858.038q-14.414,0-28.826-.006c-.446,0-.955.14-1.291-.333a5.879,5.879,0,0,0,.425-2.968q0-4.727,0-9.453c0-.26,0-.521,0-.781-.034-1.119-.348-1.446-1.452-1.469-.91-.019-1.823-.005-2.734-.005-2.89,0-5.78-.006-8.671,0-1.363,0-1.657.3-1.66,1.654-.009,3.749.008,7.5-.015,11.249A4.855,4.855,0,0,0,6.1,72.828c-.02.106-.071.219-.168.238a4.914,4.914,0,0,1-2.977-.1" transform="translate(-0.427 -0.427)" fill="#f0efef"/>
        <path id="Trazado_615055" data-name="Trazado 615055" d="M61.641,62.341a13.883,13.883,0,0,1-6.76-5.99A14.963,14.963,0,0,1,65.515,33.913a14.339,14.339,0,0,1,12.59,4,15.173,15.173,0,0,1,1.457,13.709C77.475,57.553,73.168,61.11,67.038,62.4a10.116,10.116,0,0,1-5.4-.061" transform="translate(-7.742 -4.947)" fill="#a82323"/>
        <path id="Trazado_615056" data-name="Trazado 615056" d="M52.95,77.8V75.269a2.941,2.941,0,0,1,0-2.468q0-1.472,0-2.945c.384.154.766.309,1.151.46,1.353.532,1.354.532,1.354,1.967,0,4.114-.012,8.229.014,12.341,0,.548-.131.681-.679.68q-25.582-.023-51.163,0c-.588,0-.773-.14-.714-.724s.029-1.195.038-1.793a14.673,14.673,0,0,0,3.1-.132,1.268,1.268,0,0,1,.757-.119q6.122.009,12.244,0a1.276,1.276,0,0,1,.757.118c.245.223.545.13.821.13q14.821.006,29.641,0a2.523,2.523,0,0,0,2.676-2.517,2.941,2.941,0,0,1,0-2.468" transform="translate(-0.426 -10.247)" fill="#dae2f2"/>
        <path id="Trazado_615057" data-name="Trazado 615057" d="M63.164,63.062c.858-.065,1.694.181,2.558.152a16.385,16.385,0,0,0,10.463-3.988,15.83,15.83,0,0,0,5.428-9.7,15.433,15.433,0,0,0-1.507-9.752,2.978,2.978,0,0,1-.479-1.142,14.112,14.112,0,0,1,4.5,8.6,14.926,14.926,0,0,1-8.743,15.908,14.607,14.607,0,0,1-11.962.081,1.962,1.962,0,0,1-.258-.157" transform="translate(-9.265 -5.667)" fill="#891818"/>
        <path id="Trazado_615058" data-name="Trazado 615058" d="M61.558,28.359l0-25.415c.8,0,1.823-.292,2.346.091.5.365.148,1.453.149,2.221.012,7.154,0,14.308.02,21.461,0,.516-.106.776-.641.919a17.421,17.421,0,0,0-1.876.723" transform="translate(-9.03 -0.417)" fill="#dae2f2"/>
        <path id="Trazado_615059" data-name="Trazado 615059" d="M30.678,40.884c-.782,0-1.563-.009-2.345,0-.729.011-1.292-.329-1.35-1.025a3.018,3.018,0,0,0-2.453-2.881,2.041,2.041,0,0,0-1.973.148c-1.755,1.128-1.779,1.092-3.272-.4-.847-.846-1.7-1.69-2.541-2.542-.683-.691-.823-1.186-.245-1.923a2.9,2.9,0,0,0,.309-3.435,2.369,2.369,0,0,0-1.9-1.566c-1.578-.294-1.718-.532-1.718-2.134,0-1.355.013-2.709,0-4.064-.01-.794.326-1.358,1.115-1.435a2.909,2.909,0,0,0,2.737-2.3,2.062,2.062,0,0,0-.2-2.238,6.5,6.5,0,0,1-.442-.733,1.222,1.222,0,0,1,.183-1.634q1.727-1.754,3.482-3.481a1.138,1.138,0,0,1,1.626-.148,3.022,3.022,0,0,0,3.783.271C26.147,9,26.626,8.722,26.7,7.932a5.85,5.85,0,0,1,.26-1.056,1.253,1.253,0,0,1,1.3-1.014c1.614,0,3.231.006,4.845,0,.7,0,1.261.334,1.3.982.107,1.7,1.052,2.479,2.576,2.953a1.818,1.818,0,0,0,1.757-.12c1.865-1.184,1.886-1.153,3.458.419.811.811,1.625,1.616,2.43,2.431.72.728.859,1.208.26,1.986a2.926,2.926,0,0,0-.31,3.368,2.4,2.4,0,0,0,1.957,1.606c1.548.311,1.675.54,1.675,2.095,0,1.381-.009,2.761,0,4.142a1.209,1.209,0,0,1-1.085,1.385,2.97,2.97,0,0,0-2.781,2.352,2.028,2.028,0,0,0,.192,2.165,8.381,8.381,0,0,1,.439.734,1.242,1.242,0,0,1-.191,1.7q-1.7,1.723-3.426,3.426a1.133,1.133,0,0,1-1.621.187,3.033,3.033,0,0,0-3.848-.268A1.864,1.864,0,0,0,34.7,38.773c-.471,2.12-.515,2.11-2.692,2.11H30.678" transform="translate(-1.934 -0.86)" fill="#040506"/>
        <path id="Trazado_615060" data-name="Trazado 615060" d="M13.4,46.9c1.98,0,3.96,0,5.94,0,1.079,0,1.53.44,1.531,1.5q.006,6.017,0,12.035c0,1.015-.461,1.471-1.479,1.473q-6.018.006-12.036,0c-1.027,0-1.489-.452-1.49-1.46q-.008-6.057,0-12.114A1.26,1.26,0,0,1,7.3,46.906c2.032-.009,4.064,0,6.1,0" transform="translate(-0.86 -6.88)" fill="#040506"/>
        <path id="Trazado_615061" data-name="Trazado 615061" d="M20.245,82.3a2.721,2.721,0,0,1-.991.137q-5.888-.008-11.777,0a2.721,2.721,0,0,1-.991-.136,1.588,1.588,0,0,1-.634-1.421c.016-3.959.007-7.917.009-11.875,0-1.164.423-1.579,1.6-1.58q5.9,0,11.8,0c1.178,0,1.606.419,1.607,1.579,0,3.959-.007,7.916.009,11.875a1.6,1.6,0,0,1-.634,1.422" transform="translate(-0.859 -9.89)" fill="#040506"/>
        <path id="Trazado_615062" data-name="Trazado 615062" d="M56.38,73.3v2.468l-27.194.017h-.938c-2.074,0-2.066,0-1.888-2.111.026-.3.1-.43.4-.392a1.959,1.959,0,0,0,.235,0l29.148,0c.078,0,.156.01.234.015" transform="translate(-3.856 -10.749)" fill="#040506"/>
        <path id="Trazado_615063" data-name="Trazado 615063" d="M56.38,79.166v2.468l-27.35.017h-.782c-2.074,0-2.066,0-1.888-2.111.026-.3.1-.43.4-.392a1.956,1.956,0,0,0,.235,0l29.148,0c.078,0,.156.01.234.015" transform="translate(-3.856 -11.609)" fill="#040506"/>
        <path id="Trazado_615064" data-name="Trazado 615064" d="M65.968,41.444c-.025-2.76.928-4.174,2.824-4.685a3.739,3.739,0,0,1,4.668,3.5A59.055,59.055,0,0,1,72.77,47.4c-.107,1.034-.261,2.063-.4,3.093a2.67,2.67,0,0,1-5.314-.005c-.4-3.173-.866-6.337-1.087-9.043" transform="translate(-9.676 -5.374)" fill="#040506"/>
        <path id="Trazado_615065" data-name="Trazado 615065" d="M73.462,60.934a3.751,3.751,0,1,1-3.669-3.769,3.747,3.747,0,0,1,3.669,3.769" transform="translate(-9.675 -8.386)" fill="#050506"/>
        <path id="Trazado_615066" data-name="Trazado 615066" d="M42.758,14.342a10.177,10.177,0,0,1-.638,1.058,1.879,1.879,0,0,0-.055,2.432,7.947,7.947,0,0,1,1.085,2.658,1.744,1.744,0,0,0,1.522,1.441c1.472.317,1.467.342,1.467,1.793,0,1.6,0,1.617-1.552,1.96a1.674,1.674,0,0,0-1.422,1.353,9.651,9.651,0,0,1-1.216,2.94A1.7,1.7,0,0,0,42,32c.835,1.307.806,1.325-.3,2.435-1.033,1.031-1.058,1.071-2.248.287a1.871,1.871,0,0,0-2.3-.015,7.661,7.661,0,0,1-2.58,1.072,1.851,1.851,0,0,0-1.588,1.656c-.273,1.384-.319,1.376-1.707,1.376-1.64,0-1.659,0-2.027-1.562a1.684,1.684,0,0,0-1.364-1.413,9.079,9.079,0,0,1-2.869-1.184,1.791,1.791,0,0,0-2.162.063c-1.225.794-1.247.759-2.257-.249-1.131-1.127-1.155-1.143-.305-2.5a1.666,1.666,0,0,0,.042-1.958A8.645,8.645,0,0,1,19.172,27.3a1.918,1.918,0,0,0-1.691-1.655c-1.368-.269-1.357-.323-1.357-1.721,0-1.605,0-1.623,1.581-2.009a1.69,1.69,0,0,0,1.4-1.381,8.721,8.721,0,0,1,1.149-2.8,1.833,1.833,0,0,0-.044-2.231c-.792-1.207-.754-1.231.271-2.251,1.122-1.118,1.139-1.144,2.5-.281a1.668,1.668,0,0,0,1.958.021,8.958,8.958,0,0,1,2.788-1.178,1.827,1.827,0,0,0,1.547-1.607c.3-1.42.333-1.412,1.76-1.412,1.588,0,1.6,0,1.994,1.6a1.645,1.645,0,0,0,1.318,1.364,9.693,9.693,0,0,1,2.944,1.209,1.719,1.719,0,0,0,2.026-.02c1.334-.845,1.358-.822,2.492.33a4.333,4.333,0,0,1,.951,1.065" transform="translate(-2.365 -1.29)" fill="#818181"/>
        <path id="Trazado_615067" data-name="Trazado 615067" d="M8.819,58.583c-.009-2.755-.011-5.51-.031-8.265,0-.371.118-.492.49-.49,2.755.02,5.51.023,8.264.032a1.223,1.223,0,0,1,.25.951c.009,2.026.018,4.052,0,6.079-.014,1.41-.532,1.928-1.942,1.941-2.026.019-4.052.01-6.079,0a1.227,1.227,0,0,1-.951-.25" transform="translate(-1.289 -7.309)" fill="#c62926"/>
        <path id="Trazado_615068" data-name="Trazado 615068" d="M8.82,58.584c2.42,0,4.839.009,7.259,0,1.033,0,1.468-.435,1.469-1.469,0-2.42,0-4.84-.005-7.259a1.377,1.377,0,0,1,.155-.019c1.1-.033,1.1-.033,1.1,1.039,0,2.758-.015,5.517.012,8.275.005.548-.149.7-.7.7-2.706-.027-5.413-.013-8.119-.013-1.241,0-1.241,0-1.177-1.257" transform="translate(-1.291 -7.31)" fill="#a51d1d"/>
        <path id="Trazado_615069" data-name="Trazado 615069" d="M8.819,79.1c-.009-2.755-.011-5.51-.031-8.265,0-.371.118-.492.49-.49,2.755.02,5.51.023,8.264.032a1.223,1.223,0,0,1,.25.951c.009,2.026.018,4.052,0,6.079-.014,1.41-.532,1.928-1.942,1.941-2.026.019-4.052.01-6.079,0a1.227,1.227,0,0,1-.951-.25" transform="translate(-1.289 -10.319)" fill="#c62926"/>
        <path id="Trazado_615070" data-name="Trazado 615070" d="M8.82,79.1c2.42,0,4.839.009,7.259,0,1.033,0,1.468-.435,1.469-1.469,0-2.42,0-4.84-.005-7.259a1.377,1.377,0,0,1,.155-.019c1.1-.033,1.1-.033,1.1,1.039,0,2.758-.015,5.517.012,8.275.005.548-.149.7-.7.7-2.706-.027-5.413-.013-8.119-.013-1.241,0-1.241,0-1.177-1.257" transform="translate(-1.291 -10.32)" fill="#a51d1d"/>
        <path id="Trazado_615071" data-name="Trazado 615071" d="M70.216,50.729a16.154,16.154,0,0,1-.689-3.7c-.235-1.639-.41-3.286-.6-4.931a7.328,7.328,0,0,1-.033-1.169,1.326,1.326,0,0,1,1.254-1.343,1.287,1.287,0,0,1,1.223,1.366c-.052,1.241-.166,2.481-.311,3.714-.23,1.953-.509,3.9-.77,5.849a1.069,1.069,0,0,1-.078.213" transform="translate(-10.105 -5.807)" fill="#383838"/>
        <path id="Trazado_615072" data-name="Trazado 615072" d="M71.384,61.336a1.242,1.242,0,1,1-2.484-.017A1.4,1.4,0,0,1,70.112,60.1a1.385,1.385,0,0,1,1.271,1.231" transform="translate(-10.106 -8.817)" fill="#383738"/>
        <path id="Trazado_615073" data-name="Trazado 615073" d="M32.211,16.124a8.755,8.755,0,1,1-8.758,8.787,8.738,8.738,0,0,1,8.758-8.787" transform="translate(-3.44 -2.365)" fill="#040506"/>
        <path id="Trazado_615074" data-name="Trazado 615074" d="M17.414,53.471c-.052.327-.3.462-.474.641-1.038,1.055-1.066,1.079-.019,2.055.494.459.539.727.019,1.214-1.218,1.141-1.21,1.19-2.35.02-.4-.413-.617-.343-.98.028-1.112,1.137-1.091,1.083-2.243.038-.606-.55-.561-.862.013-1.382.98-.887.978-.955-.025-1.871-.544-.5-.6-.8-.02-1.327,1.173-1.079,1.161-1.133,2.3.034.4.41.614.351.98-.024,1.121-1.146,1.137-1.131,2.285.026.182.183.355.375.517.547" transform="translate(-1.602 -7.635)" fill="#050506"/>
        <path id="Trazado_615075" data-name="Trazado 615075" d="M17.525,74.255c-.288.224-.608.49-.946.73-.639.453-.629.824-.023,1.364,1,.893.965.935.009,1.891l-.055.055c-.772.771-.772.771-1.52.023-.87-.87-.87-.87-1.733-.008-.755.755-.755.755-1.519-.009-1.016-1.015-1.04-1.041.043-2.056.472-.443.489-.7.009-1.149-1.095-1.027-1.07-1.054-.008-2.115.718-.718.718-.718,1.465.03.873.873.873.873,1.733.013.761-.76.768-.767,1.518,0a4.309,4.309,0,0,1,1.027,1.229" transform="translate(-1.609 -10.627)" fill="#050506"/>
        <path id="Trazado_615076" data-name="Trazado 615076" d="M38.889,25.317a6.252,6.252,0,1,1-6.241-6.262,6.277,6.277,0,0,1,6.241,6.262" transform="translate(-3.87 -2.795)" fill="#f0efef"/>
      </g>
    </g>
  </g>
</svg>
