<svg xmlns="http://www.w3.org/2000/svg" xmlns:xlink="http://www.w3.org/1999/xlink" width="155.182" height="155.182" viewBox="0 0 155.182 155.182">
  <defs>
    <filter id="Elipse_5222" x="0" y="0" width="155.182" height="155.182" filterUnits="userSpaceOnUse">
      <feOffset dy="6" input="SourceAlpha"/>
      <feGaussianBlur stdDeviation="5" result="blur"/>
      <feFlood flood-opacity="0.329"/>
      <feComposite operator="in" in2="blur"/>
      <feComposite in="SourceGraphic"/>
    </filter>
    <clipPath id="clip-path">
      <rect id="Rectángulo_325004" data-name="Rectángulo 325004" width="75.85" height="75.859" transform="translate(0 0)" fill="none"/>
    </clipPath>
  </defs>
  <g id="Grupo_876520" data-name="Grupo 876520" transform="translate(-1082.045 -872.401)">
    <g transform="matrix(1, 0, 0, 1, 1082.04, 872.4)" filter="url(#Elipse_5222)">
      <circle id="Elipse_5222-2" data-name="Elipse 5222" cx="62.591" cy="62.591" r="62.591" transform="translate(15 9)" fill="#ffb500"/>
    </g>
    <g id="Grupo_876498" data-name="Grupo 876498" transform="translate(1124.62 912)">
      <g id="Grupo_876497" data-name="Grupo 876497" clip-path="url(#clip-path)">
        <path id="Trazado_614995" data-name="Trazado 614995" d="M75.029,75.859H.74a1.154,1.154,0,0,1-.74-.74V63.725a5.493,5.493,0,0,1,4.313-4.53c1.016-.3,2.057-.516,3.081-.792,1.4-.377,1.686-1.39.7-2.459a7.115,7.115,0,0,1-1.953-4.59c-.087-1.573-.234-3.142-.3-4.718-.046-1.144-.137-1.2-1.262-1.2-1.011,0-2.022,0-3.033,0A1.418,1.418,0,0,1,0,44.34v-18.5c.407-2.563,2.071-3.911,4.435-4.572A4.015,4.015,0,0,0,6.9,20.079a1.34,1.34,0,0,1,1.024-.351c.677-.045.887-.376.668-1.017a2.281,2.281,0,0,0-.575-.76,7.06,7.06,0,0,1-1.884-4.39q-.213-2.8-.379-5.6A7.465,7.465,0,0,1,12.706,0a7.783,7.783,0,0,1,5.525,1.63A7.29,7.29,0,0,1,20.9,6.66a32.973,32.973,0,0,1-.2,5.384,18.156,18.156,0,0,1-.232,2.5,7.527,7.527,0,0,1-1.8,3.508,1.787,1.787,0,0,0-.511.8c-.133.626.025.841.674.88a1.163,1.163,0,0,1,.645.128,3.524,3.524,0,0,0,2.344.45q3.848,0,7.693,0c.87,0,.908-.042.912-.928.008-1.775-.022-3.55.014-5.325.021-1.063.512-1.517,1.556-1.534a1.418,1.418,0,0,1,1.1,1.544q0,2.7,0,5.4c0,.482.111.813.693.807.479,0,.744-.163.746-.679q0-1.22,0-2.441,0-5.472,0-10.946a7.337,7.337,0,0,1,.028-.961,1.242,1.242,0,0,1,1.18-1.208A6.548,6.548,0,0,1,36.705,4H69.769c.123,0,.247,0,.37,0,1.359.022,1.722.368,1.723,1.717q.011,10.8,0,21.6c0,1.3-.445,1.755-1.758,1.857-.394.031-.789.02-1.183.02H34.748c-.271,0-.543,0-.814,0-.463,0-.828.079-.827.676,0,.579.374.609.793.614.271,0,.543,0,.814,0H65.263c.345,0,.69-.011,1.035.012.894.06,1.229.344,1.492,1.251a1.35,1.35,0,0,1-1.4,1.4c-.246.021-.493.014-.74.014H32.581c-.173,0-.345,0-.518,0A1.53,1.53,0,0,1,30.438,31.6c-.049-.59-.024-1.183-.016-1.774,0-.47-.2-.665-.666-.664q-3.107.006-6.214,0c-.714,0-.688.465-.687.953q0,5.7,0,11.391c0,.617,0,1.233,0,1.85-.011,1.285-.224,1.609-1.449,2.076a.651.651,0,0,0-.467.662c-.066,1.624-.225,3.243-.293,4.865a7.491,7.491,0,0,1-1.972,4.973,2.931,2.931,0,0,0-.335.394A1.277,1.277,0,0,0,19,58.3c1.052.355,2.142.578,3.22.838a5.814,5.814,0,0,1,3.011,1.631c.293.315.478.281.772-.014a6.063,6.063,0,0,1,2.879-1.587c1.051-.266,2.1-.561,3.158-.784a1.314,1.314,0,0,0,.671-2.3,7.139,7.139,0,0,1-2.1-4.921c-.1-1.869-.254-3.734-.341-5.6-.045-.983-.173-1.961-.145-2.95a5.046,5.046,0,0,1,4.852-4.839c1.06-.02,2.121-.014,3.181,0a7.612,7.612,0,0,1,7.33,7.377c0,2.24-.2,4.476-.417,6.706a6.539,6.539,0,0,1-1.982,4.2,1.333,1.333,0,0,0,.676,2.352c1.014.206,2.009.5,3.016.746a6.184,6.184,0,0,1,2.909,1.535c.382.367.635.317.978-.032a5.549,5.549,0,0,1,2.7-1.456c1.076-.271,2.162-.505,3.224-.826a1.3,1.3,0,0,0,.633-2.284,7.894,7.894,0,0,1-2.108-5.372c-.063-1.868-.292-3.73-.277-5.606a7.481,7.481,0,0,1,5.447-7.044A7.592,7.592,0,0,1,68.549,40.9a8.007,8.007,0,0,1,1.414,5.6c-.167,1.588-.238,3.192-.317,4.789a7.316,7.316,0,0,1-1.965,4.667c-.973,1.086-.682,2.077.721,2.457,1.118.3,2.26.52,3.363.878a5.793,5.793,0,0,1,3.688,3.188,4.612,4.612,0,0,1,.384,1.94c.008,3.378-.007,6.756.013,10.134a1.189,1.189,0,0,1-.821,1.314" fill="#040506"/>
        <path id="Trazado_614996" data-name="Trazado 614996" d="M64.668,10.289l-3.846.017c-1.048,0-1.623.391-1.584,1.12a1.194,1.194,0,0,0,1.525,1.1,3.22,3.22,0,0,1,.453.027c-.972.789-1.835,1.495-2.7,2.193-1.228.988-2.472,1.956-3.686,2.962-.38.315-.618.319-.967-.052-.844-.9-1.733-1.754-2.606-2.625-.8-.8-1.251-.824-2.171-.133-2.343,1.759-4.691,3.513-7.026,5.283a1.515,1.515,0,0,1-1.006.343c-1.159-.022-2.319-.033-3.477,0-.5.017-.606-.156-.605-.624.017-4.242.024-8.484,0-12.726,0-.619.159-.769.772-.767,7.5.022,15,.012,22.493.016,1.479,0,2.958.021,4.436.032a.891.891,0,0,1,.227.6q.042,1.314,0,2.628a.763.763,0,0,1-.223.6" fill="#80b34b"/>
        <path id="Trazado_614997" data-name="Trazado 614997" d="M70.526,31.884l-2.883-.019c-.326-.994-.524-1.137-1.6-1.137q-16.2,0-32.405-.01c-.254,0-.684.2-.747-.2A2.725,2.725,0,0,1,32.947,29c.1-.213.454-.092.692-.092q7.879-.007,15.758,0H69.816c1.63,0,1.866-.241,1.866-1.894q0-10.542,0-21.084c0-1.521-.224-1.741-1.771-1.741H36.47c-1.49,0-1.731.237-1.731,1.7,0,4.611-.013,9.222.015,13.833,0,.638-.133.93-.8.806a1.142,1.142,0,0,0-.369,0c-.556.083-.757-.1-.744-.7.044-1.923,0-3.847.025-5.77a1.206,1.206,0,0,0-1.1-1.4q0-1.455,0-2.909A2.6,2.6,0,0,0,32.623,7.3c-.048-1.182-.013-2.366-.012-3.55,0-1.611.066-1.677,1.648-1.677q8.691,0,17.38,0,10.28,0,20.56,0c1.52,0,1.59.069,1.59,1.575q0,12.868,0,25.735c0,.2,0,.395-.009.592-.05.763-.222.992-1,.966a2.47,2.47,0,0,0-2.259.942" fill="#e75028"/>
        <path id="Trazado_614998" data-name="Trazado 614998" d="M25.619,69.762a1.133,1.133,0,0,0-1.1,1.3c.007.69-.017,1.381.007,2.071.014.379-.1.5-.5.515-1.389.045-1.388.061-1.388-1.305,0-1.036.006-2.071,0-3.106-.006-.768-.4-1.217-1.061-1.237a1.091,1.091,0,0,0-1.154,1.228c-.012,1.281-.023,2.564.008,3.845.011.458-.12.576-.576.574q-6.469-.025-12.941,0c-.525,0-.6-.195-.589-.641.024-1.232.012-2.465.006-3.7a1.182,1.182,0,0,0-.8-1.275A1.081,1.081,0,0,0,4.1,69.154c-.033,1.281-.036,2.564,0,3.845.014.524-.15.664-.663.653-1.215-.024-1.215,0-1.215-1.181q0-3.662,0-7.321a3.4,3.4,0,0,1,2.757-3.59c1.185-.313,2.379-.591,3.564-.908a2.483,2.483,0,0,1,1.373.164,11.713,11.713,0,0,0,6.9-.012,3.26,3.26,0,0,1,2.018.016c.841.267,1.707.455,2.564.667,2.269.562,3.086,1.575,3.125,3.888.016.974.181,1.2,1.1,1.476a4.281,4.281,0,0,1,0,2.911" fill="#e03246"/>
        <path id="Trazado_614999" data-name="Trazado 614999" d="M25.619,69.762q0-1.455,0-2.911c.894-.26,1.126-.555,1.143-1.454.047-2.4.8-3.333,3.145-3.924.285-.072.574-.14.85-.239a8.157,8.157,0,0,1,5.175-.106c1.979.575,3.953.063,5.893-.423a2.022,2.022,0,0,1,1.08.018c1.207.331,2.433.6,3.639.927A3.221,3.221,0,0,1,49,64.852c.016,2.735-.009,5.471.019,8.206.005.516-.18.6-.632.592-1.193-.014-1.193,0-1.193-1.2,0-1.035.008-2.07,0-3.1C47.18,68.48,46.769,68,46.061,68c-.728,0-1.1.435-1.107,1.34-.01,1.257-.018,2.514.006,3.771.008.42-.125.54-.542.538q-6.544-.02-13.087,0c-.444,0-.529-.161-.523-.558.021-1.257.016-2.514,0-3.771-.007-.891-.4-1.333-1.126-1.321-.7.011-1.1.489-1.109,1.365-.008,1.232-.018,2.464.007,3.7.009.427-.07.6-.555.594-1.266-.01-1.266.018-1.266-1.279,0-.419.008-.838,0-1.257-.022-.848-.3-1.172-1.143-1.356" fill="#a7a095"/>
        <path id="Trazado_615000" data-name="Trazado 615000" d="M62.36,73.64c-2.1,0-4.192-.03-6.287.018-.646.015-.767-.188-.743-.778.048-1.182.02-2.367.013-3.55,0-.863-.418-1.336-1.136-1.325-.686.01-1.077.469-1.081,1.3-.006,1.282-.014,2.564.006,3.846.006.372-.084.5-.484.506-1.411.025-1.41.044-1.41-1.362,0-2.342,0-4.684,0-7.026a3.453,3.453,0,0,1,2.935-3.753c.334-.081.673-.147,1-.258a8.4,8.4,0,0,1,5.318-.128c1.95.583,3.9.054,5.819-.418a2.17,2.17,0,0,1,1.153.021c1.205.333,2.431.591,3.635.926a3.281,3.281,0,0,1,2.449,3.219c.013,2.736-.008,5.473.015,8.21,0,.46-.117.573-.572.57-1.316-.012-1.316.011-1.317-1.309,0-1.036.013-2.072,0-3.107-.014-.806-.385-1.215-1.062-1.231-.695-.017-1.138.425-1.154,1.238-.026,1.257-.037,2.515.006,3.771.018.539-.159.643-.661.637-2.145-.028-4.29-.012-6.435-.012" fill="#12b0eb"/>
        <path id="Trazado_615001" data-name="Trazado 615001" d="M64.668,10.289l0-3.828c1.427-.011,2.856-.01,4.283-.041.4-.008.492.15.491.519q-.012,9.57,0,19.141c0,.405-.1.555-.533.555q-9.682-.018-19.364,0c-.426,0-.479-.151-.415-.516.076-.434.1-.878.142-1.318a1.416,1.416,0,0,1,.988-.2c2.114,0,4.229,0,6.343,0a7.517,7.517,0,0,0,7.845-7.107,1.5,1.5,0,0,1,.206-.845,1.367,1.367,0,0,0,.916-1.484c-.042-1.122-.041-2.249,0-3.371a1.373,1.373,0,0,0-.9-1.5" fill="#6eaa35"/>
        <path id="Trazado_615002" data-name="Trazado 615002" d="M16.551,27.543c1.414.4,1.694.25,2.152-1.111.352-1.047.725-2.089,1.04-3.147a.675.675,0,0,1,.787-.553q9.871.021,19.745,0c.449,0,.6.109.583.574a22.411,22.411,0,0,0,0,2.513c.043.637-.126.825-.8.821-5-.033-10.008-.018-15.012-.018-1.011,0-2.021-.009-3.032,0-1.152.013-1.6.47-1.6,1.63,0,4.04,0,8.08,0,12.268-.293-.378-.494-.665-.724-.926a4.1,4.1,0,0,0-2.358-1.428c-.721-.123-.812-.451-.8-1.08.032-2.908.014-5.817.014-8.726v-.819" fill="#0070a2"/>
        <path id="Trazado_615003" data-name="Trazado 615003" d="M10.212,27.511c0,3.385,0,6.71,0,10.036,0,.227.014.424-.3.479a5.116,5.116,0,0,0-3.575,2.52V35.27c0-1.257.009-2.514,0-3.77-.008-.922-.425-1.4-1.165-1.386-.719.016-1.075.45-1.077,1.375-.007,3.6,0,7.195-.01,10.792,0,.241.153.643-.21.688A3.086,3.086,0,0,1,2.284,42.9c-.075-.031-.061-.316-.061-.484q0-7.687,0-15.375A3.306,3.306,0,0,1,4.7,23.762c.589-.171,1.2-.267,1.781-.464.394-.133.515.006.621.345.292.937.608,1.867.917,2.8.443,1.336.816,1.529,2.189,1.069" fill="#0070a2"/>
        <path id="Trazado_615004" data-name="Trazado 615004" d="M13.354,40.2c.838,0,1.676,0,2.514,0a2.563,2.563,0,0,1,2.786,2.815c-.032,1.206-.127,2.41-.183,3.615a1.576,1.576,0,0,1-.386.934c-.9,1.139-1.852,2.24-2.865,3.285a1.467,1.467,0,0,1-.1.108,5.971,5.971,0,0,1-3.656-.147c-1.024-1.068-1.98-2.194-2.9-3.351a1.128,1.128,0,0,1-.279-.665c-.072-1.3-.188-2.6-.24-3.906a2.6,2.6,0,0,1,2.575-2.683c.911-.025,1.824-.005,2.736-.005" fill="#006187"/>
        <path id="Trazado_615005" data-name="Trazado 615005" d="M64.652,16.643A7.739,7.739,0,0,1,56.8,24.812c-2.509-.031-5.019-.009-7.529-.011-.168-2.064-.168-2.064,1.844-2.064.345,0,.69.01,1.034,0a1.077,1.077,0,0,0,1.129-1.1,1.089,1.089,0,0,0-1.2-1.112c-1.847-.014-3.694-.005-5.542-.005h-1.2l4.46-3.371c.293-.222.44.019.609.188q1.359,1.358,2.718,2.716c.856.852,1.256.861,2.211.094q3.825-3.075,7.657-6.139c.071-.057.156-.1.35-.213,0,.521,0,.95,0,1.378,0,1.04.262,1.329,1.314,1.472" fill="#80b34b"/>
        <path id="Trazado_615006" data-name="Trazado 615006" d="M36.839,40.2a8.216,8.216,0,0,1,2.459.209A5.273,5.273,0,0,1,43.04,46a3.456,3.456,0,0,1-.948,2.225c-.795.838-1.539,1.725-2.305,2.591a.829.829,0,0,1-.686.347c-.811-.025-1.625-.025-2.436,0a.868.868,0,0,1-.687-.348c-1.027-1.063-1.98-2.189-2.9-3.347a.908.908,0,0,1-.245-.518c-.087-1.374-.231-2.747-.266-4.122A2.57,2.57,0,0,1,35.111,40.2c.516-.023,1.034,0,1.728,0" fill="#e75028"/>
        <path id="Trazado_615007" data-name="Trazado 615007" d="M62.252,51.152c-1.054.355-1.878-.3-2.595-1.237-.343-.449-.743-.854-1.112-1.283a4.88,4.88,0,0,1-.687-5.691,5.136,5.136,0,0,1,9.55,1.249,10.148,10.148,0,0,1,.046,2.8.97.97,0,0,1-.274.506c-.891,1.052-1.784,2.1-2.694,3.137-.473.537-.489.523-2.234.523" fill="#006187"/>
        <path id="Trazado_615008" data-name="Trazado 615008" d="M10.21,16.672a4.263,4.263,0,0,1-1.6-3.036c-.156-1.493-.233-2.995-.307-4.495a2.685,2.685,0,0,1,3.776-2.625,2.166,2.166,0,0,0,2.56-.028c.068-.052.191-.035.287-.05.326-.015.356.252.361.452a16.338,16.338,0,0,1-.274,3.654c-.249.22-.453-.009-.67-.075-.74-.224-1.244.078-1.249.843-.007.66-.1,1.188-.784,1.49a.717.717,0,0,0-.361.818.9.9,0,0,0,.656.719c.276.093.59.026.845.207.033.039.068.088.056.128a3.875,3.875,0,0,1-3.292,2" fill="#fee8df"/>
        <path id="Trazado_615009" data-name="Trazado 615009" d="M10.21,16.672a5.2,5.2,0,0,0,3.257-2.086.262.262,0,0,1,.17-.289c1.276-.652,1.335-1.794,1.222-3.01-.02-.227-.217-.455-.008-.686a34.911,34.911,0,0,0,.232-3.851c-.005-.106-.106-.208-.161-.312a2.671,2.671,0,0,1,3.5,2.818c-.146,1.591-.146,3.2-.382,4.778a4.348,4.348,0,0,1-3.111,3.6,4.459,4.459,0,0,1-4.717-.964" fill="#fcd6c5"/>
        <path id="Trazado_615010" data-name="Trazado 615010" d="M60.24,53.393c1.3-.005,2.6-.029,3.906-.006a1.7,1.7,0,0,0,1.3-.535c.562-.548,1.184-1.034,1.729-1.5a4.038,4.038,0,0,1-.592,1.96,2.781,2.781,0,0,1-.74.994c-1.6,1.032-1.3,2.519-1.036,4,.05.28.082.461-.267.523a7.247,7.247,0,0,1-3.277.145.761.761,0,0,1-.2-.538,13.738,13.738,0,0,1,.227-3.878c.155-.556.172-.9-.552-.858-.2.011-.463,0-.5-.309" fill="#faac72"/>
        <path id="Trazado_615011" data-name="Trazado 615011" d="M18.083,51.62a3.673,3.673,0,0,1-1.425,2.818c-1.2.848-1.183,1.954-1.043,3.146.149,1.27.176,1.254-1.134,1.426a5.208,5.208,0,0,1-2.2-.033.687.687,0,0,1-.194-.467,13.966,13.966,0,0,1,.238-4.186c.136-.441.111-.639-.415-.612-.244.013-.566.054-.657-.314,1.224,0,2.449-.045,3.672,0a1.915,1.915,0,0,0,1.669-.712c.409-.486.867-.931,1.3-1.394.288-.015.223.166.185.332" fill="#e6897b"/>
        <path id="Trazado_615012" data-name="Trazado 615012" d="M35.825,53.4c1.255-.007,2.511-.038,3.765-.009a1.706,1.706,0,0,0,1.423-.614c.485-.549,1-1.07,1.636-1.741a3.927,3.927,0,0,1-1.38,3.3c-1.473,1.087-1.289,2.463-.991,3.9.088.425.046.548-.372.617a6.644,6.644,0,0,1-3.061.127.676.676,0,0,1-.191-.467,16.437,16.437,0,0,1,.17-4.1c.131-.489.006-.684-.494-.7-.2-.006-.463,0-.505-.31" fill="#f39d8e"/>
        <path id="Trazado_615013" data-name="Trazado 615013" d="M12.432,33.866c0-1.182.014-2.364-.008-3.545-.007-.38.1-.5.491-.508,1.387-.034,1.387-.052,1.387,1.32,0,2.068-.018,4.136.012,6.2.007.521-.145.664-.659.653-1.223-.024-1.223,0-1.223-1.243V33.866" fill="#f99e27"/>
        <path id="Trazado_615014" data-name="Trazado 615014" d="M43.074,24.488c.079-.491-.283-1.3.141-1.647.356-.294,1.128-.091,1.716-.1.518-.007,1.035.011,1.553-.006.317-.01.507.041.493.43-.026.763.012,1.528-.02,2.291a1.077,1.077,0,0,1-1.154,1.16c-.762.028-1.529-.007-2.291.017-.374.012-.457-.148-.444-.482.021-.517.006-1.035.006-1.664" fill="#fdc593"/>
        <path id="Trazado_615015" data-name="Trazado 615015" d="M16.135,21.246c.026.194-.129.253-.245.331-.734.492-1.48.966-2.2,1.476a.484.484,0,0,1-.654-.012c-.441-.311-.9-.6-1.348-.9-1.185-.788-1.172-.782-.616-2.113.1-.243.172-.2.36-.15a7.361,7.361,0,0,0,3.858.008c.133-.035.319-.156.359.063a4.408,4.408,0,0,0,.487,1.3" fill="#f8c0b2"/>
        <path id="Trazado_615016" data-name="Trazado 615016" d="M35.825,53.4c.336.228.714.077,1.071.112.258.025.464.089.333.4-.708,1.649-.252,3.383-.384,5.074a2.144,2.144,0,0,1-.367,0c-1.038-.161-1-.159-.865-1.2a11.192,11.192,0,0,0,.025-1.989c-.025-.477-.4-.762-.746-1.048a4.684,4.684,0,0,1-1.777-3.7c.642.674,1.18,1.233,1.71,1.8a1.485,1.485,0,0,0,1,.561" fill="#f8c0b2"/>
        <path id="Trazado_615017" data-name="Trazado 615017" d="M11.254,53.4c.47.279,1.013,0,1.549.186-.8,1.75-.442,3.59-.52,5.393a1.271,1.271,0,0,1-.221.012c-1.09-.148-1.075-.147-.972-1.215.05-.514.017-1.035.044-1.552a1.6,1.6,0,0,0-.707-1.448,4.621,4.621,0,0,1-1.844-3.455c.533.467,1.147.987,1.739,1.531a1.6,1.6,0,0,0,.932.548" fill="#ed9e90"/>
        <path id="Trazado_615018" data-name="Trazado 615018" d="M60.24,53.393a.274.274,0,0,0,.057.046c.473.22,1.174-.195,1.431.222.207.335-.252.876-.334,1.363a31.073,31.073,0,0,0-.126,3.952,1.522,1.522,0,0,1-.294,0c-1.033-.182-1.045-.186-.857-1.183a8.715,8.715,0,0,0,.068-1.767,1.472,1.472,0,0,0-.646-1.188A4.811,4.811,0,0,1,57.6,51.064c.977.714,1.457,1.927,2.642,2.329" fill="#fcc592"/>
        <path id="Trazado_615019" data-name="Trazado 615019" d="M9.468,4.265c1.644-2.55,5.831-2.571,7.836-.022a4.732,4.732,0,0,0-2.132-.13,6.527,6.527,0,0,1-3.634,0,4.3,4.3,0,0,0-2.07.156" fill="#ffb230"/>
        <path id="Trazado_615020" data-name="Trazado 615020" d="M13.306,27.58c-.549.079-.912.065-.906-.7.005-.743.513-.85.96-.971s.9.478.954,1.017c.094.935-.574.606-1.008.655" fill="#fbae2e"/>
        <path id="Trazado_615021" data-name="Trazado 615021" d="M11.078,24.437c-1.251.707-1.1,1.054-1.606-.957a6.152,6.152,0,0,1,1.606.957" fill="#1c7ca8"/>
        <path id="Trazado_615022" data-name="Trazado 615022" d="M15.655,24.422l1.6-1.051c.127.282-.046.474-.108.673-.355,1.144-.363,1.141-1.488.378" fill="#1d7eab"/>
        <path id="Trazado_615023" data-name="Trazado 615023" d="M18.083,51.62c-.055-.114-.032-.272-.185-.332.039-.126.182-.265.242-.193a.41.41,0,0,1-.057.525" fill="#9d5f55"/>
        <path id="Trazado_615024" data-name="Trazado 615024" d="M70.526,31.884c.2-.894.512-1.146,1.416-1.156,1.607-.018,1.607-.018,1.607-1.6q0-13.012.015-26.026c0-.639-.135-.811-.8-.809q-19.558.033-39.117,0c-.635,0-.834.126-.813.8.055,1.748.021,3.5.017,5.249,0,.891-.211,1.153-1.087,1.394-.865-.187-1.129-.492-1.131-1.349q-.006-3.4,0-6.805A1.3,1.3,0,0,1,32.125.1q21.08,0,42.159,0c1.023,0,1.483.461,1.483,1.486q0,14.94,0,29.88c0,1.027-.453,1.482-1.475,1.492-.814.007-1.628-.018-2.441.007a1.151,1.151,0,0,1-1.325-1.077" fill="#040506"/>
        <path id="Trazado_615025" data-name="Trazado 615025" d="M13.388,65.421a13.017,13.017,0,0,1-3.1-.354,1.055,1.055,0,0,1-.84-1.325,1.093,1.093,0,0,1,1.338-.836,12.684,12.684,0,0,0,5.192-.009,1.126,1.126,0,0,1,1.317.794,1.086,1.086,0,0,1-.8,1.365,12.738,12.738,0,0,1-3.1.365" fill="#060506"/>
        <path id="Trazado_615026" data-name="Trazado 615026" d="M37.863,65.427a13.7,13.7,0,0,1-2.987-.34,1.127,1.127,0,0,1-.94-1.344,1.146,1.146,0,0,1,1.43-.821,12.74,12.74,0,0,0,5.054-.005,1.142,1.142,0,0,1,1.416.845,1.112,1.112,0,0,1-.891,1.312,13.545,13.545,0,0,1-3.082.353" fill="#060606"/>
        <path id="Trazado_615027" data-name="Trazado 615027" d="M62.4,65.406a12.37,12.37,0,0,1-3-.327,1.1,1.1,0,1,1,.505-2.137,13.413,13.413,0,0,0,4.993,0,1.1,1.1,0,1,1,.505,2.138,12.426,12.426,0,0,1-3,.325" fill="#040506"/>
        <path id="Trazado_615028" data-name="Trazado 615028" d="M14.85,10.6a4.11,4.11,0,0,1,.07,2.577,2.2,2.2,0,0,1-1.453,1.408,5.871,5.871,0,0,1-.807,0,1.056,1.056,0,0,1-.944-.894.922.922,0,0,1,.508-1.114c.558-.2.642-.532.6-1.035a1.145,1.145,0,0,1,2.027-.94" fill="#060607"/>
      </g>
    </g>
  </g>
</svg>
