<svg xmlns="http://www.w3.org/2000/svg" xmlns:xlink="http://www.w3.org/1999/xlink" width="113" height="113" viewBox="0 0 113 113">
  <defs>
    <clipPath id="clip-path">
      <rect id="Rectángulo_325011" data-name="Rectángulo 325011" width="65.15" height="65.009" fill="none"/>
    </clipPath>
  </defs>
  <g id="Grupo_876513" data-name="Grupo 876513" transform="translate(-1006 -3710.76)">
    <g id="Trazado_613727" data-name="Trazado 613727" transform="translate(1006 3710.76)" fill="#ffd265">
      <path d="M 56.5 111 C 49.14166641235352 111 42.00450134277344 109.5593032836914 35.28675079345703 106.7179336547852 C 32.05783462524414 105.3522186279297 28.94338417053223 103.661735534668 26.02993392944336 101.6934356689453 C 23.14363288879395 99.74349975585938 20.42941665649414 97.50405120849609 17.96268272399902 95.03731536865234 C 15.49594974517822 92.57057952880859 13.25650024414062 89.85636901855469 11.30656623840332 86.97006988525391 C 9.338266372680664 84.05661773681641 7.647783279418945 80.94216918945312 6.282066822052002 77.71324920654297 C 3.440700054168701 70.99549865722656 2 63.85833358764648 2 56.5 C 2 49.14166641235352 3.440700054168701 42.00450134277344 6.282066822052002 35.28675079345703 C 7.647783279418945 32.05783462524414 9.338266372680664 28.94338417053223 11.30656623840332 26.02993392944336 C 13.25650024414062 23.14363288879395 15.49594974517822 20.42941665649414 17.96268272399902 17.96268272399902 C 20.42941665649414 15.49594974517822 23.14363288879395 13.25650024414062 26.02993392944336 11.30656623840332 C 28.94338417053223 9.338266372680664 32.05783462524414 7.647783279418945 35.28675079345703 6.282066822052002 C 42.00450134277344 3.440700054168701 49.14166641235352 2 56.5 2 C 63.85833358764648 2 70.99549865722656 3.440700054168701 77.71324920654297 6.282066822052002 C 80.94216918945312 7.647783279418945 84.05661773681641 9.338266372680664 86.97006988525391 11.30656623840332 C 89.85636901855469 13.25650024414062 92.57057952880859 15.49594974517822 95.03731536865234 17.96268272399902 C 97.50405120849609 20.42941665649414 99.74349975585938 23.14363288879395 101.6934356689453 26.02993392944336 C 103.661735534668 28.94338417053223 105.3522186279297 32.05783462524414 106.7179336547852 35.28675079345703 C 109.5593032836914 42.00450134277344 111 49.14166641235352 111 56.5 C 111 63.85833358764648 109.5593032836914 70.99549865722656 106.7179336547852 77.71324920654297 C 105.3522186279297 80.94216918945312 103.661735534668 84.05661773681641 101.6934356689453 86.97006988525391 C 99.74349975585938 89.85636901855469 97.50405120849609 92.57057952880859 95.03731536865234 95.03731536865234 C 92.57057952880859 97.50405120849609 89.85636901855469 99.74349975585938 86.97006988525391 101.6934356689453 C 84.05661773681641 103.661735534668 80.94216918945312 105.3522186279297 77.71324920654297 106.7179336547852 C 70.99549865722656 109.5593032836914 63.85833358764648 111 56.5 111 Z" stroke="none"/>
      <path d="M 56.5 4 C 49.41078186035156 4 42.53574371337891 5.387542724609375 36.06585693359375 8.124069213867188 C 29.81467437744141 10.76808929443359 24.19969177246094 14.55409240722656 19.37689208984375 19.37689208984375 C 14.55409240722656 24.19969177246094 10.76808929443359 29.81467437744141 8.124069213867188 36.06585693359375 C 5.387542724609375 42.53574371337891 4 49.41078186035156 4 56.5 C 4 63.58921813964844 5.387542724609375 70.46425628662109 8.124069213867188 76.93414306640625 C 10.76808929443359 83.18532562255859 14.55409240722656 88.80030822753906 19.37689208984375 93.62310791015625 C 24.19969177246094 98.44590759277344 29.81467437744141 102.2319107055664 36.06585693359375 104.8759307861328 C 42.53574371337891 107.6124572753906 49.41078186035156 109 56.5 109 C 63.58921813964844 109 70.46425628662109 107.6124572753906 76.93414306640625 104.8759307861328 C 83.18532562255859 102.2319107055664 88.80030822753906 98.44590759277344 93.62310791015625 93.62310791015625 C 98.44590759277344 88.80030822753906 102.2319107055664 83.18532562255859 104.8759307861328 76.93414306640625 C 107.6124572753906 70.46425628662109 109 63.58921813964844 109 56.5 C 109 49.41078186035156 107.6124572753906 42.53574371337891 104.8759307861328 36.06585693359375 C 102.2319107055664 29.81467437744141 98.44590759277344 24.19969177246094 93.62310791015625 19.37689208984375 C 88.80030822753906 14.55409240722656 83.18532562255859 10.76808929443359 76.93414306640625 8.124069213867188 C 70.46425628662109 5.387542724609375 63.58921813964844 4 56.5 4 M 56.5 0 C 87.70408630371094 0 113 25.29590606689453 113 56.5 C 113 87.70408630371094 87.70408630371094 113 56.5 113 C 25.29590606689453 113 0 87.70408630371094 0 56.5 C 0 25.29590606689453 25.29590606689453 0 56.5 0 Z" stroke="none" fill="#fff"/>
    </g>
    <g id="Grupo_876512" data-name="Grupo 876512" transform="translate(1032.627 3735.456)">
      <g id="Grupo_876511" data-name="Grupo 876511" transform="translate(0 0)" clip-path="url(#clip-path)">
        <path id="Trazado_615200" data-name="Trazado 615200" d="M50.606,27.824a4.813,4.813,0,0,1,.38-.495c1.571-1.578,3.133-3.169,4.727-4.723a5.511,5.511,0,0,1,9.364,3.057,5.311,5.311,0,0,1-1.61,4.766c-1.959,1.963-3.915,3.929-5.889,5.877-.3.3-.4.471-.107.885a7.986,7.986,0,0,1,1.191,6.229c-.56,3.26-1.025,6.535-1.531,9.8a7.406,7.406,0,0,1-.135.837c-.5,1.82.356,3.456.715,5.151.379,1.783.865,3.543,1.329,5.306.1.367.067.489-.352.488q-7.173-.019-14.347,0c-.465,0-.5-.142-.362-.526s.211-.8.311-1.2c.063-.251.038-.427-.3-.384a3.72,3.72,0,0,1-.458,0c-10.176,0-20.352-.02-30.528.026a2.35,2.35,0,0,1-2.413-2.438c.063-5.786.021-11.573.035-17.36a1.383,1.383,0,0,0-.508-1.169c-2.179-1.919-4.361-3.837-6.473-5.828a10.657,10.657,0,0,1-3.3-10.218c.6-3.338,1.245-6.67,1.787-10.017A10.523,10.523,0,0,0,1.8,12.867C1.353,9.589.871,6.314.4,3.039Q.215,1.747.016.455C-.03.156,0,0,.393,0q7.6.022,15.2,0c.445,0,.435.2.39.5-.25,1.679-.48,3.363-.753,5.038-.089.549-.056.777.624.776,8.342-.027,16.683-.015,25.025-.026a1.3,1.3,0,0,1,1.022.416q4.036,4.071,8.109,8.1a1.435,1.435,0,0,1,.454,1.14c-.016,3.712-.009,7.424-.009,11.136v.631l.153.1" transform="translate(0 0)" fill="#040506"/>
        <path id="Trazado_615201" data-name="Trazado 615201" d="M20.364,22.682a7.584,7.584,0,0,0-2.576-4.57.925.925,0,0,1-.365-.9c.309-2.024.608-4.05.882-6.079.046-.339.16-.413.478-.413q12.15.013,24.3,0c.44,0,.425.2.423.513q-.012,2.816,0,5.633a2.093,2.093,0,0,0,2.24,2.25c1.856,0,3.712.015,5.568-.009.43-.005.592.062.59.55q-.033,6.091,0,12.183a.876.876,0,0,1-.34.789c-.579.43-.863,1.224-1.819,1.183-1.7-.071-3.406-.023-5.108-.019a3.163,3.163,0,0,0-3.037,2.066,3.128,3.128,0,0,0,1,3.532c.034.029.068.055.1.085.34.323,1.038.5,1.006.91-.028.368-.6.7-.936,1.036-1.218,1.222-2.428,2.452-3.663,3.654a4.55,4.55,0,0,0-1.056,1.541c-.851,2.045-1.737,4.075-2.607,6.112a2.812,2.812,0,0,0,3.831,3.786c2.036-.87,4.071-1.747,6.114-2.6.135-.057.371-.362.491.048a7.149,7.149,0,0,0,3.247,3.952.808.808,0,0,1,.39,1.06c-.34,1.213-.63,2.441-.924,3.666-.085.354-.212.517-.635.516q-15.588-.023-31.177,0c-.43,0-.535-.112-.534-.537q.018-13.166,0-26.33c0-.336.047-.53.416-.671a3.131,3.131,0,0,0,2.028-2.384c.581-2.79,1.115-5.59,1.668-8.385.333.182.284.512.286.8.008,1.316.026,2.632-.006,3.949.03.414.019.829.015,1.243,0,.43.171.654.617.645.218,0,.437,0,.655,0q4.976,0,9.95,0c.892,0,.937-.041.938-.911q.006-8.314,0-16.627c0-.869-.047-.91-.938-.911q-5.106,0-10.212,0c-.99,0-1.007.024-1.01,1.039,0,.283.006.567-.014.851.033,2.336.014,4.672.007,7.007,0,.275.028.581-.279.753" transform="translate(-3.531 -2.33)" fill="#e0e4e9"/>
        <path id="Trazado_615202" data-name="Trazado 615202" d="M11.246,44.263c-2.113-1.93-4.205-3.654-6.074-5.6-2.245-2.331-2.668-5.214-2.02-8.335.574-2.77,1.045-5.562,1.527-8.348.078-.452.247-.553.67-.551q3.537.028,7.072,0a1.064,1.064,0,0,1,.8.32A6.087,6.087,0,0,1,15.4,25.445a9.085,9.085,0,0,1-.344,2.97q-.647,3.263-1.308,6.526a1.255,1.255,0,1,1-2.5-.235c-.009-2.139-.018-4.279.009-6.417.006-.468-.124-.574-.578-.569-1.531.02-1.531,0-1.531,1.5,0,1.834.009,3.667,0,5.5a3.335,3.335,0,0,0,1.747,3.071c.223.133.363.236.361.534-.016,1.921-.009,3.841-.009,5.936" transform="translate(-0.625 -4.661)" fill="#efc5a4"/>
        <path id="Trazado_615203" data-name="Trazado 615203" d="M21.508,23.79a2.873,2.873,0,0,0,.075-1.036q.015-3.365.02-6.731a1.146,1.146,0,0,1,.867-.205q4.351-.009,8.7,0c.962,0,1.1.142,1.1,1.1q.012,6.445,0,12.89c0,.96-.142,1.1-1.1,1.1q-4.351.013-8.7,0a1.146,1.146,0,0,1-.867-.206q-.008-1.993-.02-3.986a1.639,1.639,0,0,0-.085-.772,7.033,7.033,0,0,0,.009-2.159" transform="translate(-4.675 -3.439)" fill="#65b699"/>
        <path id="Trazado_615204" data-name="Trazado 615204" d="M67.905,48.887a5.982,5.982,0,0,1,.968,4.665c-.6,3.651-1.144,7.314-1.693,10.974-.069.454-.2.648-.723.638-2.006-.038-4.016-.02-6.023-.011a1.209,1.209,0,0,1-.84-.261c-.5-.416-1.056-.774-1.555-1.2a4.026,4.026,0,0,1-1.495-4.071q.775-3.971,1.583-7.935c.167-.829.689-1.279,1.358-1.209.717.075,1.145.622,1.146,1.495.005,2.117.014,4.234-.007,6.351,0,.42.1.546.533.544,1.572-.007,1.572.011,1.572-1.589,0-.939,0-1.877,0-2.816a.729.729,0,0,1,.185-.592c1.657-1.643,3.3-3.3,4.991-4.986" transform="translate(-12.276 -10.631)" fill="#efc5a4"/>
        <path id="Trazado_615205" data-name="Trazado 615205" d="M3.083,2.728H14.257c-.4,2.8-.789,5.579-1.184,8.354-.178,1.249-.371,2.5-.538,3.746-.045.336-.154.465-.523.461-2.225-.02-4.45-.033-6.674.008-.514.009-.507-.284-.551-.59-.328-2.26-.646-4.522-.966-6.783l-.737-5.2" transform="translate(-0.67 -0.593)" fill="#ea695c"/>
        <path id="Trazado_615206" data-name="Trazado 615206" d="M52.509,57.5c-.891-.9-1.686-1.7-2.481-2.494-.662-.664-1.316-1.337-2-1.985-.265-.254-.351-.4-.035-.715q6.268-6.231,12.5-12.5c.3-.3.445-.258.716.018,1.344,1.371,2.71,2.721,4.067,4.08.175.175.432.3.113.615-1.5,1.466-2.971,2.952-4.457,4.428-.026.025-.081.021-.148.036a3.374,3.374,0,0,0-6.623.225c-.536,2.707-1.081,5.411-1.657,8.291" transform="translate(-10.393 -8.61)" fill="#ffcc59"/>
        <path id="Trazado_615207" data-name="Trazado 615207" d="M69.379,78.608H59.507c.447-1.8.929-3.55,1.3-5.327.158-.754.434-1,1.218-.964,1.764.072,3.532.017,5.3.03.181,0,.447-.149.532.193.5,2.012,1.009,4.023,1.522,6.069" transform="translate(-12.94 -15.725)" fill="#65b699"/>
        <path id="Trazado_615208" data-name="Trazado 615208" d="M75.036,29.474a3.353,3.353,0,0,1,3.01,2,3.154,3.154,0,0,1-.464,3.546c-.642.766-1.4,1.43-2.1,2.153-.207.216-.336.178-.527-.016Q72.839,35.018,70.7,32.9c-.239-.237-.185-.37.026-.574.675-.651,1.32-1.332,2-1.976a3.394,3.394,0,0,1,2.309-.878" transform="translate(-15.34 -6.409)" fill="#98a2af"/>
        <path id="Trazado_615209" data-name="Trazado 615209" d="M72.836,40.248c-.135.144-.241.278-.366.389-.435.386-.781,1.133-1.277,1.108-.426-.021-.825-.7-1.224-1.093-1.067-1.06-2.119-2.136-3.2-3.183-.279-.27-.348-.442-.014-.712.469-.378.816-1.168,1.328-1.144.441.02.855.724,1.27,1.136q1.578,1.567,3.146,3.143c.1.1.2.216.335.355" transform="translate(-14.468 -7.744)" fill="#ffe495"/>
        <path id="Trazado_615210" data-name="Trazado 615210" d="M53.757,12.858l4.616,4.622c-1.421,0-2.873-.006-4.324,0-.365,0-.29-.241-.291-.444q0-2.092,0-4.183" transform="translate(-11.689 -2.796)" fill="#ea695c"/>
        <path id="Trazado_615211" data-name="Trazado 615211" d="M46.008,58.78c.067.059.167.137.256.226,1.141,1.139,2.275,2.284,3.424,3.414.263.258.284.409-.1.519a.446.446,0,0,0-.06.025c-.6.246-1.253.765-1.787.662s-.957-.823-1.427-1.273c-.048-.045-.095-.09-.139-.139-.394-.434-1.149-.79-1.14-1.276a5.978,5.978,0,0,1,.772-1.976c.031-.071.023-.182.2-.182" transform="translate(-9.794 -12.782)" fill="#98a2af"/>
        <path id="Trazado_615212" data-name="Trazado 615212" d="M55.909,42.879c-1,.981-1.866,1.829-2.722,2.691-.189.19-.329.226-.545.05-.37-.3-.771-.567-1.139-.871a.979.979,0,0,1-.375-1.1,1.016,1.016,0,0,1,1.017-.767c1.19-.014,2.38,0,3.762,0" transform="translate(-11.108 -9.324)" fill="#efc5a4"/>
        <path id="Trazado_615213" data-name="Trazado 615213" d="M45.065,65.889c-.322.138-.7.3-1.07.459a.634.634,0,0,1-.76-.2.6.6,0,0,1-.117-.717c.163-.352.306-.713.466-1.089l1.481,1.546" transform="translate(-9.361 -13.992)" fill="#97a1ae"/>
        <path id="Trazado_615214" data-name="Trazado 615214" d="M21.61,30.159c3.291,0,6.584-.016,9.875.009.5,0,.6-.138.6-.614q-.028-6.737,0-13.472c0-.477-.1-.618-.6-.614-3.291.023-6.584.009-9.875.008,0-.673-.239-1.531.086-1.965.308-.412,1.221-.118,1.866-.121,3.34-.013,6.679.006,10.019-.018.495,0,.6.122.6.606q-.028,8.84,0,17.68c0,.484-.107.61-.6.607q-5.7-.034-11.394,0c-.481,0-.659-.1-.606-.6s.022-1,.028-1.5" transform="translate(-4.681 -2.89)" fill="#040506"/>
        <path id="Trazado_615215" data-name="Trazado 615215" d="M33.694,73.567c-.808,0-1.615.006-2.423,0a2.079,2.079,0,0,1-2.043-1.436c-.161-.426-.31-.858-.443-1.294-.065-.214-.188-.362-.4-.372-.248-.012-.379.152-.448.391-.091.312-.212.616-.326.92a2.71,2.71,0,0,1-4.777.623c-.4-.545-.758-1.117-1.132-1.679-.1-.149-.2-.308-.405-.259-.232.055-.275.237-.273.454.006.742-.016,1.484.01,2.226.012.346-.1.428-.436.436-1.668.037-1.668.048-1.668-1.618,0-.415-.006-.83,0-1.244A2.381,2.381,0,0,1,20.59,68.45a2.329,2.329,0,0,1,2.634.793c.423.552.793,1.146,1.177,1.726.176.266.371.509.724.463.378-.049.521-.337.622-.671a6.389,6.389,0,0,1,.384-1.038,2.372,2.372,0,0,1,2.194-1.391,2.406,2.406,0,0,1,2.269,1.379,3.2,3.2,0,0,1,.176.42c.495,1.338.494,1.338,1.958,1.338,1.179,0,2.357.011,3.536-.006.336,0,.491.034.5.441.026,1.662.042,1.661-1.628,1.661H33.694" transform="translate(-4.116 -14.857)" fill="#040506"/>
        <path id="Trazado_615216" data-name="Trazado 615216" d="M28.305,44.971c-2.947,0-5.894-.008-8.841.009-.405,0-.553-.073-.55-.523.01-1.582-.009-1.582,1.578-1.582q8.349,0,16.7-.011c.466,0,.629.077.618.591-.034,1.516-.006,1.517-1.515,1.517Z" transform="translate(-4.113 -9.321)" fill="#040506"/>
        <path id="Trazado_615217" data-name="Trazado 615217" d="M47.659,31.576c-2.248,0-4.5-.015-6.745.012-.465.006-.574-.119-.567-.574.02-1.535,0-1.535,1.559-1.535,4.169,0,8.339.01,12.507-.013.519,0,.645.135.633.641-.031,1.468-.009,1.469-1.494,1.469H47.659" transform="translate(-8.774 -6.407)" fill="#040506"/>
        <path id="Trazado_615218" data-name="Trazado 615218" d="M24.1,50.33c-1.571,0-3.143-.011-4.714.009-.365,0-.469-.092-.473-.466-.021-1.639-.034-1.639,1.583-1.639,2.793,0,5.587.009,8.38-.009.421,0,.543.1.541.532-.009,1.574.009,1.574-1.585,1.574H24.1" transform="translate(-4.113 -10.487)" fill="#040506"/>
        <path id="Trazado_615219" data-name="Trazado 615219" d="M24.1,55.688c-1.571,0-3.143-.012-4.714.009-.369,0-.466-.1-.47-.469-.02-1.636-.033-1.636,1.586-1.636,2.793,0,5.587.009,8.38-.01.426,0,.539.109.537.536-.009,1.571.009,1.571-1.587,1.571H24.1" transform="translate(-4.113 -11.651)" fill="#040506"/>
        <path id="Trazado_615220" data-name="Trazado 615220" d="M52.578,26.217c-1.222,0-2.444-.012-3.665.007-.363.005-.53-.033-.531-.477,0-1.627-.024-1.627,1.6-1.627,2.073,0,4.147.02,6.219-.014.509-.009.6.144.594.615-.026,1.5-.005,1.5-1.531,1.5H52.578" transform="translate(-10.521 -5.242)" fill="#040506"/>
        <path id="Trazado_615221" data-name="Trazado 615221" d="M43.569,18.765c.894,0,1.789.013,2.683-.007.313-.007.393.088.4.4.068,1.7.077,1.7-1.582,1.7-1.419,0-2.837-.013-4.255.009-.369.005-.466-.1-.471-.468-.02-1.637-.034-1.637,1.584-1.637h1.636" transform="translate(-8.773 -4.079)" fill="#040506"/>
        <path id="Trazado_615222" data-name="Trazado 615222" d="M38.211,48.234c.894,0,1.789.013,2.683-.007.314-.007.392.088.4.4.067,1.7.077,1.7-1.583,1.7-1.419,0-2.837-.013-4.255.009-.369.005-.466-.1-.47-.468-.02-1.637-.034-1.637,1.584-1.637h1.636" transform="translate(-7.608 -10.487)" fill="#040506"/>
        <path id="Trazado_615223" data-name="Trazado 615223" d="M42.433,26.22h-.524c-1.74,0-1.733,0-1.575-1.774.023-.257.1-.329.344-.327q1.767.015,3.533,0c.261,0,.357.09.324.339a.462.462,0,0,0,0,.066c.081,1.7.081,1.7-1.578,1.7Z" transform="translate(-8.757 -5.245)" fill="#040506"/>
        <path id="Trazado_615224" data-name="Trazado 615224" d="M42.459,35.907c0,1.031,0,1.031-1,1.031-1.1,0-1.1,0-1.1-1.067,0-1.03,0-1.03,1-1.03,1.1,0,1.1,0,1.1,1.066" transform="translate(-8.777 -7.576)" fill="#040506"/>
        <path id="Trazado_615225" data-name="Trazado 615225" d="M46.771,34.841c1.046,0,1.046,0,1.046,1.05s0,1.046-1.05,1.046-1.046,0-1.046-1.05,0-1.046,1.05-1.046" transform="translate(-9.942 -7.576)" fill="#040506"/>
        <path id="Trazado_615226" data-name="Trazado 615226" d="M53.174,35.923c0,1.013,0,1.013-1.017,1.013-1.079,0-1.079,0-1.079-1.082,0-1.014,0-1.014,1.017-1.014,1.079,0,1.079,0,1.079,1.083" transform="translate(-11.107 -7.576)" fill="#040506"/>
      </g>
    </g>
  </g>
</svg>
