<svg xmlns="http://www.w3.org/2000/svg" xmlns:xlink="http://www.w3.org/1999/xlink" width="113" height="113" viewBox="0 0 113 113">
  <defs>
    <clipPath id="clip-path">
      <rect id="Rectángulo_325012" data-name="Rectángulo 325012" width="60.451" height="69.961" fill="none"/>
    </clipPath>
  </defs>
  <g id="Grupo_876516" data-name="Grupo 876516" transform="translate(-488 -3710.76)">
    <g id="Trazado_613726" data-name="Trazado 613726" transform="translate(488 3710.76)" fill="#ffd265">
      <path d="M 56.5 111 C 49.14166641235352 111 42.00450134277344 109.5593032836914 35.28675079345703 106.7179336547852 C 32.05783462524414 105.3522186279297 28.94338417053223 103.661735534668 26.02993392944336 101.6934356689453 C 23.14363288879395 99.74349975585938 20.42941665649414 97.50405120849609 17.96268272399902 95.03731536865234 C 15.49594974517822 92.57057952880859 13.25650024414062 89.85636901855469 11.30656623840332 86.97006988525391 C 9.338266372680664 84.05661773681641 7.647783279418945 80.94216918945312 6.282066822052002 77.71324920654297 C 3.440700054168701 70.99549865722656 2 63.85833358764648 2 56.5 C 2 49.14166641235352 3.440700054168701 42.00450134277344 6.282066822052002 35.28675079345703 C 7.647783279418945 32.05783462524414 9.338266372680664 28.94338417053223 11.30656623840332 26.02993392944336 C 13.25650024414062 23.14363288879395 15.49594974517822 20.42941665649414 17.96268272399902 17.96268272399902 C 20.42941665649414 15.49594974517822 23.14363288879395 13.25650024414062 26.02993392944336 11.30656623840332 C 28.94338417053223 9.338266372680664 32.05783462524414 7.647783279418945 35.28675079345703 6.282066822052002 C 42.00450134277344 3.440700054168701 49.14166641235352 2 56.5 2 C 63.85833358764648 2 70.99549865722656 3.440700054168701 77.71324920654297 6.282066822052002 C 80.94216918945312 7.647783279418945 84.05661773681641 9.338266372680664 86.97006988525391 11.30656623840332 C 89.85636901855469 13.25650024414062 92.57057952880859 15.49594974517822 95.03731536865234 17.96268272399902 C 97.50405120849609 20.42941665649414 99.74349975585938 23.14363288879395 101.6934356689453 26.02993392944336 C 103.661735534668 28.94338417053223 105.3522186279297 32.05783462524414 106.7179336547852 35.28675079345703 C 109.5593032836914 42.00450134277344 111 49.14166641235352 111 56.5 C 111 63.85833358764648 109.5593032836914 70.99549865722656 106.7179336547852 77.71324920654297 C 105.3522186279297 80.94216918945312 103.661735534668 84.05661773681641 101.6934356689453 86.97006988525391 C 99.74349975585938 89.85636901855469 97.50405120849609 92.57057952880859 95.03731536865234 95.03731536865234 C 92.57057952880859 97.50405120849609 89.85636901855469 99.74349975585938 86.97006988525391 101.6934356689453 C 84.05661773681641 103.661735534668 80.94216918945312 105.3522186279297 77.71324920654297 106.7179336547852 C 70.99549865722656 109.5593032836914 63.85833358764648 111 56.5 111 Z" stroke="none"/>
      <path d="M 56.5 4 C 49.41078186035156 4 42.53574371337891 5.387542724609375 36.06585693359375 8.124069213867188 C 29.81467437744141 10.76808929443359 24.19969177246094 14.55409240722656 19.37689208984375 19.37689208984375 C 14.55409240722656 24.19969177246094 10.76808929443359 29.81467437744141 8.124069213867188 36.06585693359375 C 5.387542724609375 42.53574371337891 4 49.41078186035156 4 56.5 C 4 63.58921813964844 5.387542724609375 70.46425628662109 8.124069213867188 76.93414306640625 C 10.76808929443359 83.18532562255859 14.55409240722656 88.80030822753906 19.37689208984375 93.62310791015625 C 24.19969177246094 98.44590759277344 29.81467437744141 102.2319107055664 36.06585693359375 104.8759307861328 C 42.53574371337891 107.6124572753906 49.41078186035156 109 56.5 109 C 63.58921813964844 109 70.46425628662109 107.6124572753906 76.93414306640625 104.8759307861328 C 83.18532562255859 102.2319107055664 88.80030822753906 98.44590759277344 93.62310791015625 93.62310791015625 C 98.44590759277344 88.80030822753906 102.2319107055664 83.18532562255859 104.8759307861328 76.93414306640625 C 107.6124572753906 70.46425628662109 109 63.58921813964844 109 56.5 C 109 49.41078186035156 107.6124572753906 42.53574371337891 104.8759307861328 36.06585693359375 C 102.2319107055664 29.81467437744141 98.44590759277344 24.19969177246094 93.62310791015625 19.37689208984375 C 88.80030822753906 14.55409240722656 83.18532562255859 10.76808929443359 76.93414306640625 8.124069213867188 C 70.46425628662109 5.387542724609375 63.58921813964844 4 56.5 4 M 56.5 0 C 87.70408630371094 0 113 25.29590606689453 113 56.5 C 113 87.70408630371094 87.70408630371094 113 56.5 113 C 25.29590606689453 113 0 87.70408630371094 0 56.5 C 0 25.29590606689453 25.29590606689453 0 56.5 0 Z" stroke="none" fill="#fff"/>
    </g>
    <g id="Grupo_876515" data-name="Grupo 876515" transform="translate(519 3733)">
      <g id="Grupo_876514" data-name="Grupo 876514" transform="translate(0 0)" clip-path="url(#clip-path)">
        <path id="Trazado_615227" data-name="Trazado 615227" d="M.927,52.713V51.345c.56-.732.56-.732,0-1.465V48.512a2.9,2.9,0,0,0,.514-1.926Q1.425,24.82,1.433,3.053c0-1.627,0-1.628,1.658-1.628H35.015c1.492,0,1.51.018,1.511,1.488q0,4.247,0,8.495c0,.259-.008.52.013.778.09,1.153.6,1.668,1.758,1.688,1.745.031,3.492.008,5.237.009,1.416,0,2.832,0,4.248,0,1.1.005,1.2.11,1.2,1.23q.008,4.955,0,9.91,0,13.379,0,26.757c0,.413.173,1.007-.226,1.182-.461.2-.744-.377-1.051-.673-.883-.851-1.741-1.729-2.608-2.6a5.992,5.992,0,0,0-.916-.777,1.413,1.413,0,0,0-1.933.112c-.107.092-.2.2-.31.291-.609.546-.862.554-1.447.007q-.722-.678-1.4-1.4c-.531-.564-.543-.782-.025-1.392a16.522,16.522,0,0,0,3.327-5.954c2.046-6.839.689-12.9-4.268-18.1A16.877,16.877,0,0,0,28.031,17.34a17.336,17.336,0,0,0-13.782,3.79A17.1,17.1,0,0,0,7.7,33.394a17.3,17.3,0,0,0,4.876,13.918A17.2,17.2,0,0,0,23.855,52.76a17.275,17.275,0,0,0,12.473-3.633c1.321-1.021,1.194-1.409,2.721.171.279.288.563.571.846.855a.753.753,0,0,1-.017,1.223c-.136.131-.267.267-.389.411a1.442,1.442,0,0,0,.015,2.046c.984,1.051,2.021,2.05,3.045,3.061a1.12,1.12,0,0,0,.976.293,1.816,1.816,0,0,1,1.11,1.018c-.03,1.029.046,1.112.991,1.071a1.421,1.421,0,0,1,1.055,1.292,1.862,1.862,0,0,0,.732,1.17C49.218,63.577,48.987,63,49,65.609c0,.566.011,1.131-.015,1.7a.733.733,0,0,1-.8.79c-.259.009-.518.014-.777.014H2.932c-1.458,0-1.518-.059-1.519-1.5,0-3.937-.009-7.874.007-11.811a3.4,3.4,0,0,0-.493-2.082" transform="translate(-0.136 -0.209)" fill="#ecebeb"/>
        <path id="Trazado_615228" data-name="Trazado 615228" d="M.791,52.5c.622.148.682.614.682,1.147-.006,4.41.011,8.82-.02,13.228,0,.627.153.773.775.772q22.849-.028,45.7,0c.578,0,.771-.125.742-.724-.05-1.059-.029-2.122-.006-3.182a1.054,1.054,0,0,0-.36-.863c-.565-.534-1.094-1.107-1.66-1.64a.815.815,0,0,1-.185-1.181c.365-.462.767-.385,1.166-.063a10.7,10.7,0,0,1,.81.788q3.35,3.348,6.7,6.7a2.137,2.137,0,0,0,2.283.742A2.036,2.036,0,0,0,58.373,65a5.75,5.75,0,0,0-.488-.511L43.837,50.436c-.712-.712-.714-.712-1.428,0-.5.5-1,1-1.5,1.5-.647.651-.647.671.022,1.344.847.853,1.713,1.687,2.543,2.557.483.505.476.779.048,1.239a.882.882,0,0,1-1.248-.2c-.967-1-1.966-1.97-2.943-2.961a1.689,1.689,0,0,1,0-2.66,2.026,2.026,0,0,1,.252-.247c.434-.317.459-.587.02-.965A18.587,18.587,0,0,1,37.949,48.4c-.3-.331-.474-.288-.791-.015a17.741,17.741,0,0,1-12.247,4.434A18.043,18.043,0,1,1,43.141,32a17.666,17.666,0,0,1-4.225,14.632c-.275.322-.293.492.029.783.595.537,1.16,1.109,1.7,1.7.3.324.526.424.816.019a2.77,2.77,0,0,1,.349-.351,1.688,1.688,0,0,1,2.659,0c1.179,1.156,2.339,2.331,3.5,3.5.182.183.336.394.5.59.285-.218.177-.447.177-.637q.01-18.861.02-37.721c0-.534-.132-.654-.656-.65-3.279.026-6.558.015-9.837.012-1.351,0-1.943-.581-1.946-1.932-.006-3.279-.017-6.558.012-9.836.005-.571-.163-.688-.7-.688q-16.667.024-33.332-.006c-.677,0-.748.228-.747.8q.02,22.4.014,44.8c0,.559.024,1.112-.681,1.292C.235,48.264.019,47.926,0,47.41c0-.118,0-.235,0-.354V2.117A2.158,2.158,0,0,1,.386.58,1.634,1.634,0,0,1,1.693,0Q19.209.01,36.724,0a1.218,1.218,0,0,1,.93.4Q43.678,6.434,49.72,12.452a1.449,1.449,0,0,1,.38,1.153q-.006,8.033,0,16.065,0,12-.012,23.991a1.568,1.568,0,0,0,.515,1.229c2.849,2.822,5.674,5.669,8.517,8.5a3.9,3.9,0,0,1,1.305,3.352,3.612,3.612,0,0,1-6.03,2.232c-1.322-1.243-2.582-2.554-3.869-3.836-.1-.1-.2-.187-.427-.394,0,1.107,0,2.082,0,3.056,0,1.138-.138,1.278-1.244,1.278H1.3C.193,69.077,0,68.9,0,67.83q0-7.077,0-14.154C0,53.1.035,52.562.791,52.5" transform="translate(0 0)" fill="#040506"/>
        <path id="Trazado_615229" data-name="Trazado 615229" d="M.8,58.222a.739.739,0,0,1,.658.7.747.747,0,0,1-.658.769c-.461-.031-.763-.269-.763-.735s.3-.7.763-.73" transform="translate(-0.005 -8.551)" fill="#0f0f10"/>
        <path id="Trazado_615230" data-name="Trazado 615230" d="M5.076,35.276q0-14.579,0-29.159c0-.786.305-1.107.84-.9a.562.562,0,0,1,.435.572c-.009.212,0,.424,0,.636V63.046c0,1,0,1,.979,1H39.675c.189,0,.378,0,.566,0a.606.606,0,0,1,.654.6.629.629,0,0,1-.536.777,3.383,3.383,0,0,1-.7.039q-16.668,0-33.335,0c-1.17,0-1.246-.076-1.246-1.237V35.276" transform="translate(-0.746 -0.757)" fill="#fff"/>
        <path id="Trazado_615231" data-name="Trazado 615231" d="M50.441,65.626a.851.851,0,0,0-.206-1.188C49.27,63.5,48.34,62.53,47.37,61.6c-.358-.344-.363-.576,0-.917.739-.694,1.467-1.4,2.148-2.152.4-.437.64-.426,1.058,0q5.9,5.952,11.848,11.866c.95.95,1.908,1.895,2.847,2.856a2.228,2.228,0,0,1,.557,2.285A2.044,2.044,0,0,1,64.1,77.016a2.28,2.28,0,0,1-2.088-.783c-2.448-2.455-4.908-4.9-7.35-7.359-.393-.4-.77-.61-1.29-.264l-.971-.961a.222.222,0,0,1-.059-.249c.12-.545-.106-.788-.653-.758a.685.685,0,0,1-.339-.036l-.915-.979" transform="translate(-6.918 -8.549)" fill="#e54632"/>
        <path id="Trazado_615232" data-name="Trazado 615232" d="M26.549,68.374H41.542a2.886,2.886,0,0,1,.564.013.7.7,0,0,1,.015,1.383,2.9,2.9,0,0,1-.634.02H11.713c-.166,0-.331.01-.495,0a.658.658,0,0,1-.682-.735.638.638,0,0,1,.666-.672c.188-.014.377,0,.566,0h14.78" transform="translate(-1.548 -10.041)" fill="#040506"/>
        <path id="Trazado_615233" data-name="Trazado 615233" d="M19.05,13.489q-3.677,0-7.353,0a2.555,2.555,0,0,1-.7-.071.623.623,0,0,1-.468-.7.612.612,0,0,1,.554-.627,4.126,4.126,0,0,1,.634-.034q7.316,0,14.634,0c.189,0,.378,0,.565.02a.633.633,0,0,1,.634.63.669.669,0,0,1-.59.754,2.944,2.944,0,0,1-.633.029q-3.641,0-7.282,0" transform="translate(-1.547 -1.77)" fill="#070708"/>
        <path id="Trazado_615234" data-name="Trazado 615234" d="M50.625,74.184c.376,0,.752,0,1.128,0a.617.617,0,0,1,.677.644.6.6,0,0,1-.582.735,19.981,19.981,0,0,1-2.392,0,.6.6,0,0,1-.572-.741.617.617,0,0,1,.684-.636c.353,0,.706,0,1.058,0" transform="translate(-7.179 -10.896)" fill="#fff"/>
        <path id="Trazado_615235" data-name="Trazado 615235" d="M52.059,68.021a.8.8,0,0,1,1.038.023.7.7,0,1,1-.992.988c-.331-.319-.226-.665-.046-1.011" transform="translate(-7.622 -9.964)" fill="#0f0c0b"/>
        <path id="Trazado_615236" data-name="Trazado 615236" d="M10.214,37.9a16.622,16.622,0,1,1,16.6,16.623A16.632,16.632,0,0,1,10.214,37.9" transform="translate(-1.5 -3.123)" fill="#e54632"/>
        <path id="Trazado_615237" data-name="Trazado 615237" d="M53.848,12.938c-2.966,0-6.074,0-9.183,0-.321,0-.473-.1-.472-.443.006-3.111,0-6.223,0-9.213l9.651,9.651" transform="translate(-6.491 -0.482)" fill="#696868"/>
        <path id="Trazado_615238" data-name="Trazado 615238" d="M34.349,27.3l1.094.781a.216.216,0,0,1,.064.117c.12.882.133.892,1.09.817L37.5,30A2.167,2.167,0,0,0,38,31.55a12.655,12.655,0,1,1-16.221-4.223,12.516,12.516,0,0,1,10.87-.282,2.647,2.647,0,0,0,1.7.251" transform="translate(-2.179 -3.81)" fill="#fff"/>
        <path id="Trazado_615239" data-name="Trazado 615239" d="M34.132,27.08c-.4.479-.84.351-1.329.129-4.726-2.142-9.261-1.78-13.31,1.476A11.709,11.709,0,0,0,15.18,41.233a11.761,11.761,0,0,0,9.731,9.35,12.289,12.289,0,0,0,14.578-9.7,12.006,12.006,0,0,0-2.044-9.723c-.312-.444-.608-.859-.157-1.376.514-.269.863-.09,1.2.355,6.066,8.075,1.321,20.069-8.588,21.9a13.912,13.912,0,1,1,3.648-26.082c.487.241.751.555.587,1.118" transform="translate(-1.962 -3.594)" fill="#040506"/>
        <path id="Trazado_615240" data-name="Trazado 615240" d="M40.124,29.337a.775.775,0,0,1-1.014.072.767.767,0,0,1-.142-1,.775.775,0,0,1,1.02-.082c.362.284.289.65.135,1.015" transform="translate(-5.706 -4.136)" fill="#0d0c0c"/>
        <path id="Trazado_615241" data-name="Trazado 615241" d="M32.04,39.514c1.032,1.018,2.086,2.03,3.11,3.073a2.575,2.575,0,0,1,.543,2.933,2.613,2.613,0,0,1-2.512,1.5,2.719,2.719,0,0,1-1.795-.878c-.864-.87-1.746-1.723-2.593-2.61-.306-.321-.487-.371-.821-.015-.839.894-1.721,1.748-2.594,2.609a2.585,2.585,0,1,1-3.62-3.668c.863-.872,1.717-1.752,2.608-2.6.327-.309.3-.473-.01-.768-.888-.846-1.745-1.724-2.606-2.6a2.594,2.594,0,1,1,3.64-3.674c.89.878,1.781,1.754,2.647,2.656.272.284.422.3.706.006.828-.872,1.691-1.711,2.544-2.559,1.252-1.246,2.766-1.345,3.873-.256s1.018,2.653-.253,3.929q-1.372,1.378-2.748,2.754a1.562,1.562,0,0,0-.119.165" transform="translate(-3.059 -4.687)" fill="#040506"/>
        <path id="Trazado_615242" data-name="Trazado 615242" d="M34.717,44.55a1.141,1.141,0,0,1-.671,1.184,1.06,1.06,0,0,1-1.286-.267c-1.025-1.008-2.037-2.03-3.054-3.046l-.451-.449A.785.785,0,0,0,27.979,42c-1.106,1.128-2.229,2.238-3.348,3.353a1.166,1.166,0,0,1-1.387.393,1.13,1.13,0,0,1-.306-1.959c1.072-1.1,2.164-2.17,3.246-3.256.688-.69.69-.938,0-1.629-1.047-1.054-2.1-2.1-3.149-3.153-.646-.652-.706-1.258-.2-1.786s1.194-.468,1.854.184c1.09,1.077,2.168,2.166,3.258,3.244.555.549.814.553,1.365.008,1.106-1.094,2.2-2.2,3.3-3.3a1.2,1.2,0,0,1,1.8-.145,1.222,1.222,0,0,1-.16,1.758c-1.025,1.041-2.063,2.071-3.1,3.1-.83.831-.832.956-.024,1.766l3.048,3.052c.288.287.561.582.528.91" transform="translate(-3.305 -4.936)" fill="#e54632"/>
      </g>
    </g>
  </g>
</svg>
