<svg xmlns="http://www.w3.org/2000/svg" xmlns:xlink="http://www.w3.org/1999/xlink" width="113" height="113" viewBox="0 0 113 113">
  <defs>
    <clipPath id="clip-path">
      <rect id="Rectángulo_325021" data-name="Rectángulo 325021" width="71.552" height="71.579" fill="none"/>
    </clipPath>
  </defs>
  <g id="Grupo_876566" data-name="Grupo 876566" transform="translate(-487.5 -7471)">
    <g id="Grupo_876565" data-name="Grupo 876565">
      <g id="Trazado_613726" data-name="Trazado 613726" transform="translate(487.5 7471)" fill="#ffd265">
        <path d="M 56.5 111 C 49.14166641235352 111 42.00450134277344 109.5593032836914 35.28675079345703 106.7179336547852 C 32.05783462524414 105.3522186279297 28.94338417053223 103.661735534668 26.02993392944336 101.6934356689453 C 23.14363288879395 99.74349975585938 20.42941665649414 97.50405120849609 17.96268272399902 95.03731536865234 C 15.49594974517822 92.57057952880859 13.25650024414062 89.85636901855469 11.30656623840332 86.97006988525391 C 9.338266372680664 84.05661773681641 7.647783279418945 80.94216918945312 6.282066822052002 77.71324920654297 C 3.440700054168701 70.99549865722656 2 63.85833358764648 2 56.5 C 2 49.14166641235352 3.440700054168701 42.00450134277344 6.282066822052002 35.28675079345703 C 7.647783279418945 32.05783462524414 9.338266372680664 28.94338417053223 11.30656623840332 26.02993392944336 C 13.25650024414062 23.14363288879395 15.49594974517822 20.42941665649414 17.96268272399902 17.96268272399902 C 20.42941665649414 15.49594974517822 23.14363288879395 13.25650024414062 26.02993392944336 11.30656623840332 C 28.94338417053223 9.338266372680664 32.05783462524414 7.647783279418945 35.28675079345703 6.282066822052002 C 42.00450134277344 3.440700054168701 49.14166641235352 2 56.5 2 C 63.85833358764648 2 70.99549865722656 3.440700054168701 77.71324920654297 6.282066822052002 C 80.94216918945312 7.647783279418945 84.05661773681641 9.338266372680664 86.97006988525391 11.30656623840332 C 89.85636901855469 13.25650024414062 92.57057952880859 15.49594974517822 95.03731536865234 17.96268272399902 C 97.50405120849609 20.42941665649414 99.74349975585938 23.14363288879395 101.6934356689453 26.02993392944336 C 103.661735534668 28.94338417053223 105.3522186279297 32.05783462524414 106.7179336547852 35.28675079345703 C 109.5593032836914 42.00450134277344 111 49.14166641235352 111 56.5 C 111 63.85833358764648 109.5593032836914 70.99549865722656 106.7179336547852 77.71324920654297 C 105.3522186279297 80.94216918945312 103.661735534668 84.05661773681641 101.6934356689453 86.97006988525391 C 99.74349975585938 89.85636901855469 97.50405120849609 92.57057952880859 95.03731536865234 95.03731536865234 C 92.57057952880859 97.50405120849609 89.85636901855469 99.74349975585938 86.97006988525391 101.6934356689453 C 84.05661773681641 103.661735534668 80.94216918945312 105.3522186279297 77.71324920654297 106.7179336547852 C 70.99549865722656 109.5593032836914 63.85833358764648 111 56.5 111 Z" stroke="none"/>
        <path d="M 56.5 4 C 49.41078186035156 4 42.53574371337891 5.387542724609375 36.06585693359375 8.124069213867188 C 29.81467437744141 10.76808929443359 24.19969177246094 14.55409240722656 19.37689208984375 19.37689208984375 C 14.55409240722656 24.19969177246094 10.76808929443359 29.81467437744141 8.124069213867188 36.06585693359375 C 5.387542724609375 42.53574371337891 4 49.41078186035156 4 56.5 C 4 63.58921813964844 5.387542724609375 70.46425628662109 8.124069213867188 76.93414306640625 C 10.76808929443359 83.18532562255859 14.55409240722656 88.80030822753906 19.37689208984375 93.62310791015625 C 24.19969177246094 98.44590759277344 29.81467437744141 102.2319107055664 36.06585693359375 104.8759307861328 C 42.53574371337891 107.6124572753906 49.41078186035156 109 56.5 109 C 63.58921813964844 109 70.46425628662109 107.6124572753906 76.93414306640625 104.8759307861328 C 83.18532562255859 102.2319107055664 88.80030822753906 98.44590759277344 93.62310791015625 93.62310791015625 C 98.44590759277344 88.80030822753906 102.2319107055664 83.18532562255859 104.8759307861328 76.93414306640625 C 107.6124572753906 70.46425628662109 109 63.58921813964844 109 56.5 C 109 49.41078186035156 107.6124572753906 42.53574371337891 104.8759307861328 36.06585693359375 C 102.2319107055664 29.81467437744141 98.44590759277344 24.19969177246094 93.62310791015625 19.37689208984375 C 88.80030822753906 14.55409240722656 83.18532562255859 10.76808929443359 76.93414306640625 8.124069213867188 C 70.46425628662109 5.387542724609375 63.58921813964844 4 56.5 4 M 56.5 0 C 87.70408630371094 0 113 25.29590606689453 113 56.5 C 113 87.70408630371094 87.70408630371094 113 56.5 113 C 25.29590606689453 113 0 87.70408630371094 0 56.5 C 0 25.29590606689453 25.29590606689453 0 56.5 0 Z" stroke="none" fill="#f9fbfc"/>
      </g>
      <g id="Grupo_876553" data-name="Grupo 876553" transform="translate(-74 -4)">
        <g id="Grupo_876550" data-name="Grupo 876550" transform="translate(582 7498)">
          <g id="Grupo_876549" data-name="Grupo 876549" transform="translate(0 0)" clip-path="url(#clip-path)">
            <path id="Trazado_615420" data-name="Trazado 615420" d="M44.864,70.354c-.654-.141-1.3.387-1.958.02a1.4,1.4,0,0,1-.345-.954q-1.609-12.48-3.216-24.961c-.371-2.879-.756-5.758-1.112-8.639-.114-.921-.158-.96-1.107-1.008-.944.018-1.888.029-2.829,0-.641-.02-.879.275-.953.864-.537,4.283-1.1,8.564-1.649,12.845q-1.158,9.009-2.323,18.015c-.127.985-.238,1.971-.378,2.953a1.55,1.55,0,0,1-.335.891c-.613.371-1.216-.153-1.827-.019-.693.019-.781-.355-.7-.954q1.1-8.534,2.2-17.067,1.069-8.312,2.14-16.624c.1-.813.022-.9-.814-.9-1.267-.005-2.534.025-3.8-.011a.982.982,0,0,0-1.132.884C23.484,40.6,22.205,45.5,20.941,50.408c-1.637,6.349-3.29,12.695-4.907,19.05a1.649,1.649,0,0,1-.453.918c-.07.251-.2.332-.471.24-.36-.12-.739-.177-1.111-.261-1.032-.154-1.07-.2-.8-1.238q4.055-15.875,8.182-31.729c.156-.6.312-1.2.453-1.806.16-.693.14-.711-.626-.782-1.688-.009-3.378.023-5.066-.015a1.042,1.042,0,0,0-1.149.8c-2.112,5.547-4.2,11.1-6.311,16.649Q5.741,59.959,2.81,67.692c-.393,1.032-.751,1.1-1.607.333-1.142-.475-1.14-.473-.717-1.6.251-.669.49-1.341.734-2.011a31.591,31.591,0,0,1,1.742-4.979C5.95,51.459,9.011,43.51,12,35.538c.261-.7.23-.739-.544-.744-.92-.006-1.838.02-2.757-.01a1.4,1.4,0,0,0-1.3.678c-1.455,2.072-2.936,4.128-4.409,6.188-.043.061-.084.123-.128.183-.617.827-1.034.818-1.656-.032C.22,41.034.22,41.036.949,40.007c.1-.14.182-.29.274-.435a22.787,22.787,0,0,1,2.257-3.4c.27-.413.57-.809.892-1.281a9.738,9.738,0,0,0-2-.1c-.387-.028-.8.108-1.145-.188-.008-.1-.023-.2-.023-.3.009-.668-.22-1.511.1-1.951.3-.416,1.2-.122,1.837-.125.361,0,.462-.108.454-.463-.024-.943-.031-1.888,0-2.832.013-.352-.144-.455-.42-.57A4.684,4.684,0,0,1,.005,23.649c0-1.516-.011-3.032,0-4.547A4.511,4.511,0,0,1,2.745,14.78a4.541,4.541,0,0,1,5.132.691c.373.307.547.34.939.013a4.534,4.534,0,0,1,5.129-.71A4.513,4.513,0,0,1,16.7,19.086c.02,1.565.006,3.131,0,4.7a4.666,4.666,0,0,1-3.085,4.544.642.642,0,0,0-.5.739c.038.868.031,1.739,0,2.608-.013.4.065.555.514.551,2.782-.022,5.564-.01,8.424-.01a5.211,5.211,0,0,1-.453-3.579c-.457,0-.877.011-1.3,0a1.129,1.129,0,0,1-1.214-1.2c-.017-1.192,0-2.385-.005-3.577A1.006,1.006,0,0,1,19.76,22.8c.49-.162.534-.466.528-.9-.02-1.789-.015-3.577-.006-5.366a4.593,4.593,0,0,1,4.576-4.592c.224,0,.448,0,.672,0,.677,0,.915-.351.717-1-.064-.21-.192-.186-.335-.187-.274,0-.547.006-.821,0a1.128,1.128,0,0,1-1.228-1.187q-.027-2.385,0-4.771a1.128,1.128,0,0,1,1.223-1.195,5.809,5.809,0,0,1,.744,0c.324.031.433-.083.421-.413-.024-.67-.02-1.342,0-2.013A1.089,1.089,0,0,1,27.417.016C28.461,0,29.5.036,30.547,0c.43-.015.489.16.472.516-.027.593.2,1.352-.087,1.738-.309.416-1.111.127-1.693.127-.457,0-.649.08-.63.6.017.455.088.7.6.614a2.644,2.644,0,0,1,.522,0A1.155,1.155,0,0,1,31.01,4.882q.015,2.273,0,4.547c-.005.887-.435,1.3-1.329,1.317a2.751,2.751,0,0,1-.447,0c-.469-.069-.637.085-.626.592.01.467.1.628.607.618,1.614-.036,3.231-.061,4.844.009.682.029.851-.258.987-.821.616-2.543,1.259-5.08,1.907-7.616.23-.9.538-1.126,1.463-1.126q6.3,0,12.6,0c1.083,0,1.466.388,1.466,1.478,0,2.883.011,5.765-.009,8.647,0,.466.088.639.6.621,1.242-.041,2.485,0,3.726-.02.346-.005.454.079.469.447.078,1.946.09,1.944-1.869,1.948-1.366,0-2.733.011-4.1.018a3.045,3.045,0,0,1-1.675.172,8.572,8.572,0,0,0-5.227,1.679,8.91,8.91,0,0,0-3.637,8.124c.022.369.188.543.557.539a6.52,6.52,0,0,1,.669.005c.536.048.738-.2.8-.721A8.8,8.8,0,0,1,44.6,20.915c.962-1.261,1.05-1.271,2.156-.151.758.946.748.939-.032,2.013a5.507,5.507,0,0,0-.529,6.1,5.464,5.464,0,0,0,5.187,3.132,5.764,5.764,0,0,0,.193-11.519,5.713,5.713,0,0,0-1.4.145c-1.1.219-1.147.191-1.609-.873-.039-.092-.084-.179-.123-.272-.422-1.132-.346-1.308.837-1.552.66-.135,1.333-.452,2.015-.052a8.281,8.281,0,0,1,6.751,3.46,1.188,1.188,0,0,0,.709.469c3.805,1.022,7.6,2.071,11.4,3.105,1.359.369,1.591.751,1.256,2.142-.3,1.245-.611,2.488-.907,3.735-.092.385-.187.613-.688.417-.566-.22-1.426-.1-1.7-.539s.21-1.144.323-1.742.6-1.329.318-1.736-1.116-.373-1.687-.59c-.509-.193-.64.053-.733.475-.188.841-.4,1.675-.6,2.515-.088.375-.172.635-.682.429-.565-.229-1.418-.159-1.7-.544s.214-1.133.313-1.731c.107-.646.658-1.4.318-1.874-.294-.407-1.161-.4-1.777-.572-.854-.235-1.71-.463-2.566-.692a.516.516,0,0,0-.127.01,8.567,8.567,0,0,1-2.339,7.595H58c3.9,0,7.8.013,11.7-.014.555,0,.742.122.683.686s-.027,1.141-.034,1.712c-.369.308-.809.167-1.22.186-.613.028-1.229-.017-1.964.032.8,1.226,1.625,2.3,2.4,3.411a4.9,4.9,0,0,1,.78,1.347,4.818,4.818,0,0,0,.533.8c.539.538.413.907-.223,1.211a1.761,1.761,0,0,0-.3.225c-.625.847-1.052.863-1.654.024-1.52-2.118-3.043-4.235-4.54-6.368a1.4,1.4,0,0,0-1.3-.677c-.918.031-1.837,0-2.757.01-.773.005-.8.047-.543.744,2.107,5.627,4.254,11.238,6.384,16.855,1.338,3.529,2.664,7.062,4.021,10.583a9.606,9.606,0,0,1,.38,1.431c.3.81.558,1.635.9,2.427.243.569.221.922-.473,1.027a1.8,1.8,0,0,0-.41.17c-.864.749-1.211.69-1.605-.342q-3.122-8.167-6.207-16.348-2.971-7.828-5.926-15.66c-.267-.714-.648-1-1.374-.875-1.614,0-3.229,0-4.843,0-.772,0-.843.085-.656.823q2.1,8.266,4.258,16.521,1.334,5.156,2.663,10.316c.574,2.211,1.172,4.417,1.7,6.639.251,1.047.224,1.086-.8,1.251-.374.083-.756.139-1.118.257-.274.089-.4.018-.475-.238a1.772,1.772,0,0,1-.471-.991c-2.225-8.757-4.515-17.5-6.758-26.251-.64-2.5-1.3-5-1.93-7.5a.944.944,0,0,0-1.094-.835c-1.265.032-2.532.006-3.8.01-.88,0-.952.076-.84.943q.614,4.763,1.23,9.525C43.2,52.1,44.1,58.912,44.959,65.733c.16,1.28.342,2.558.5,3.839.059.478-.055.78-.594.781" transform="translate(0 0)" fill="#040506"/>
            <path id="Trazado_615421" data-name="Trazado 615421" d="M12.248,62.98q2.162-8.413,4.323-16.828,2.343-9.095,4.684-18.192c.141-.551.312-.807.96-.78,1.562.065,3.129.027,4.694.017.388,0,.6-.022.527.539-.729,5.4-1.418,10.813-2.111,16.222q-1.072,8.373-2.131,16.747a8.9,8.9,0,0,1-.2,1.4c-.155.52-.008.773.5.859l-11.252.019" transform="translate(3.333 7.396)" fill="#5ca17a"/>
            <path id="Trazado_615422" data-name="Trazado 615422" d="M36.148,62.952c.291-.1.483-.195.429-.608Q35.243,52.326,33.949,42.3c-.649-5.011-1.277-10.023-1.923-15.1,1.932,0,3.839,0,5.748,0,.473,0,.384.4.447.64.766,2.893,1.508,5.793,2.256,8.691Q43.811,49.461,47.147,62.4c.05.192.084.388.125.581l-11.124-.024" transform="translate(8.716 7.401)" fill="#5ca17a"/>
            <path id="Trazado_615423" data-name="Trazado 615423" d="M.949,60.627c1.127.377,1.127.377,1.566-.78Q8.589,43.829,14.65,27.808a.788.788,0,0,1,.9-.621c1.786.042,3.573.029,5.36.037.207.256.079.525.013.777-1.078,4.09-2.119,8.188-3.175,12.283a2,2,0,0,1-.26.69c-.346.321-.528-.031-.743-.193-.391-.3-.623-.9-1.119-.917-.468-.013-.71.564-1.06.87a.625.625,0,0,1-.976.02c-.036-.034-.073-.067-.109-.1-1.117-1.009-1.175-1-2.128.154a.43.43,0,0,0,.034.693c.623.606,1.212,1.247,1.855,1.833a1.072,1.072,0,0,0,1.653-.011c.589-.533,1.114-1.133,1.7-1.668.181-.163.374-.552.709-.162a1.129,1.129,0,0,1-.041.655c-.543,2-1.011,4.017-1.566,6.013-.07.253-.084.548-.373.686-.267-.1-.253-.355-.252-.565,0-.6-.327-.64-.787-.514A4.632,4.632,0,0,0,12.334,48.8c-.6.544-.719.543-1.308.008a4.32,4.32,0,0,0-2.091-1.067c-.4-.083-.616.033-.641.468-.045.787-.1,1.539.921,1.82a1.663,1.663,0,0,1,.875.88,6.482,6.482,0,0,1,.3.678c.279.651.262,1.6,1.265,1.612,1.051.01,1.034-.973,1.313-1.647a3.16,3.16,0,0,1,.833-1.3,1.048,1.048,0,0,1,1.081-.319c.327.248.232.58.15.885-1.019,3.832-1.962,7.681-2.984,11.512a1.068,1.068,0,0,1-.365.628H8.569A16.193,16.193,0,0,0,9.612,60.6a2.38,2.38,0,0,1,1.4-1.265c.436-.172.69-1.649.366-1.985-.165-.173-.371-.108-.562-.066A4.117,4.117,0,0,0,8.73,58.378a.763.763,0,0,1-1.266,0A3.976,3.976,0,0,0,5.458,57.3c-.5-.112-.78-.018-.747.556a6.939,6.939,0,0,1,0,.745.7.7,0,0,0,.541.78A2.168,2.168,0,0,1,6.586,60.6a16.34,16.34,0,0,0,1.042,2.35c-2.058.009-4.117.01-6.175.033-.378,0-.537-.094-.516-.5.031-.618.011-1.239.013-1.86" transform="translate(0.254 7.398)" fill="#f8983e"/>
            <path id="Trazado_615424" data-name="Trazado 615424" d="M22.529,62.977q.935-7.226,1.868-14.452c.567-4.426,1.118-8.853,1.687-13.279.322-2.507.674-5.011.987-7.52.048-.387.134-.555.567-.538,1.116.039,2.234.025,3.351.033a1.155,1.155,0,0,1,.323.734q.458,3.463.893,6.928a.952.952,0,0,1-.019.294c-.122.394-.37.271-.56.093-.345-.324-.609-.224-.873.092-.062.075.02-.015-.051.053-1.052,1.014-1.072,1.033-2.075.008-.417-.427-.69-.411-1.085.009-1.079,1.142-1.018.8-.011,1.843.415.427.827.857,1.267,1.257a1.1,1.1,0,0,0,1.708,0c.388-.346.73-.743,1.117-1.092.21-.188.416-.472.763-.219a13.62,13.62,0,0,1,.515,4.193c-.163.3-.478.328-.757.417a4.27,4.27,0,0,0-1.866,1.042.773.773,0,0,1-1.273-.017,3.979,3.979,0,0,0-2.086-1.08c-.449-.089-.644.06-.658.528-.022.762-.076,1.471.913,1.757a1.884,1.884,0,0,1,1.05,1.2c.149.343.254.7.373,1.055.169.5.434.913,1.027.926.635.013.906-.422,1.088-.949a6.738,6.738,0,0,1,.513-1.318,1.8,1.8,0,0,1,1.716-1.094c.483.1.482.511.532.874.461,3.367.883,6.74,1.319,10.11q.469,3.616.929,7.235c.037.29.13.592-.1.854L31,62.967a2.19,2.19,0,0,1,1.151-2.249,1.493,1.493,0,0,0,.878-1.9c-.074-.38-.3-.411-.6-.349a4.457,4.457,0,0,0-2.1,1.047c-.634.566-.724.566-1.361,0a4.35,4.35,0,0,0-2.023-1.037c-.5-.107-.656.075-.688.565-.052.8.047,1.389.946,1.743a1.983,1.983,0,0,1,1.1,2.182l-5.776.01" transform="translate(6.131 7.399)" fill="#f8983e"/>
            <path id="Trazado_615425" data-name="Trazado 615425" d="M47.019,62.961c.688-.125.807-.44.622-1.149Q43.234,44.865,38.88,27.9c-.137-.533-.15-.738.509-.717,1.787.052,3.576.029,5.363.037.393.177.45.576.576.913,1.513,4.038,3.06,8.063,4.578,12.1a1.3,1.3,0,0,1,.144.717c-.265.313-.436.022-.611-.111-.411-.312-.662-.941-1.17-.973-.492-.029-.743.592-1.118.9a.608.608,0,0,1-.921-.008c-.036-.034-.073-.067-.109-.1-1.149-1.024-1.142-1.018-2.131.134-.229.266-.24.448.009.69.625.6,1.215,1.244,1.854,1.833a1.086,1.086,0,0,0,1.706-.028c.618-.575,1.2-1.189,1.8-1.784a1.192,1.192,0,0,1,.743-.453,6.432,6.432,0,0,1,.828,1.888c.458,1.178.915,2.357,1.357,3.54.12.321.3.639.125,1a1.871,1.871,0,0,1-.823.313,4.716,4.716,0,0,0-1.818.974c-.639.572-.742.572-1.368.015a4.149,4.149,0,0,0-1.955-1.015c-.631-.128-.717-.043-.758.62-.046.73-.015,1.341.88,1.623a2.127,2.127,0,0,1,1.181,1.455,10.749,10.749,0,0,0,.434,1.187.989.989,0,0,0,1.786,0,10.25,10.25,0,0,0,.436-1.186,2.452,2.452,0,0,1,1.513-1.63.752.752,0,0,0,.55-.85,1.045,1.045,0,0,1,.167-.78c.347-.025.383.277.464.485,1.028,2.6,2,5.213,2.986,7.826a.7.7,0,0,1,.032.506,1.512,1.512,0,0,1-.761.261,4.689,4.689,0,0,0-2.028,1.041c-.622.556-.717.553-1.366-.019a4.314,4.314,0,0,0-2.032-1.025c-.436-.088-.659.032-.664.511-.008.745-.131,1.491.891,1.759a1.678,1.678,0,0,1,.991,1.057,14.7,14.7,0,0,0,1.037,2.343l-5.164.008" transform="translate(10.561 7.398)" fill="#f8983e"/>
            <path id="Trazado_615426" data-name="Trazado 615426" d="M57.726,57.006c-1.111-2.883-2.231-5.76-3.329-8.647q-3.879-10.2-7.74-20.407c-.085-.226-.16-.457-.265-.754,1.533,0,2.992.01,4.451-.006.384-.005.494.27.662.5q2.273,3.179,4.543,6.357c.71.994.709.994,1.688.351.069,7.534.042,15.069-.01,22.6" transform="translate(12.626 7.4)" fill="#5ca17a"/>
            <path id="Trazado_615427" data-name="Trazado 615427" d="M.95,34.4c.983.641.982.641,1.687-.345,1.514-2.119,3.04-4.232,4.534-6.366a1.018,1.018,0,0,1,.971-.5c1.36.028,2.72.01,4.175.01l-2.13,5.615Q5.657,44.751,1.124,56.688a3.477,3.477,0,0,1-.162.323Q.951,49.388.942,41.764c0-2.454.005-4.909.008-7.363" transform="translate(0.256 7.399)" fill="#5ca17a"/>
            <path id="Trazado_615428" data-name="Trazado 615428" d="M42.619,14.563a10.517,10.517,0,0,0-2.311.318c-.589.123-.8.365-.457.93a1.48,1.48,0,0,1,.106.422,5.562,5.562,0,0,1-2,1.323c-.059-.047-.122-.088-.174-.139-.827-.819-.819-.814-1.541.087a8.409,8.409,0,0,0-1.965,4.958c-.017.351-.134.454-.481.477-1.916.126-1.915.135-1.913-1.8A8.979,8.979,0,0,1,40.831,12.2c.6,0,1.192.011,1.787.018v2.347" transform="translate(8.676 3.319)" fill="#740a2f"/>
            <path id="Trazado_615429" data-name="Trazado 615429" d="M12.978,48.806c.636-2.011,1.1-4.067,1.614-6.11a3.793,3.793,0,0,0,.3-1.36.176.176,0,0,1,.131-.232L18.611,27.22c1.16-.061,1.16-.061.873,1.048q-4.355,16.844-8.735,33.68c-.21.8.239.829.7,1l-2.061,0q1.576-6.112,3.152-12.223c.066-.26.232-.511-.033-.751a6.441,6.441,0,0,1,.473-1.17" transform="translate(2.554 7.402)" fill="#ce6b1a"/>
            <path id="Trazado_615430" data-name="Trazado 615430" d="M54.8,56.993,51.4,48.23c-.244-.2-.247-.5-.319-.77A36.277,36.277,0,0,0,49.579,43.3a8.506,8.506,0,0,0-.931-2.226l.008.008a29.389,29.389,0,0,0-1.329-3.752c-1.262-3.375-2.561-6.735-3.846-10.1.81-.186,1.192.131,1.494.934q5.971,15.892,12.019,31.758c.42,1.1.424,1.1,1.539.719,0,.317.006.635.006.953,0,1.443,0,1.443-1.486,1.371a1.535,1.535,0,0,1-.51-.8c-.578-1.5-1.126-3-1.693-4.5a1.421,1.421,0,0,1-.047-.665" transform="translate(11.833 7.395)" fill="#ce6b1a"/>
            <path id="Trazado_615431" data-name="Trazado 615431" d="M30.975,41.491a22.317,22.317,0,0,0-.609-4.323c-.015-.048-.034-.109-.006-.14a.8.8,0,0,0-.078-1.322.275.275,0,0,1-.06-.271c-.16-1.371-.31-2.743-.485-4.113s-.371-2.735-.558-4.1c1.482-.009,1.132-.28,1.32,1.1.683,4.959,1.3,9.927,1.939,14.893q.924,7.226,1.834,14.457c.225,1.77.461,3.538.691,5.306l-1.151-.02c-.342-2.542-.7-5.081-1.023-7.625-.323-2.52-.614-5.044-.926-7.567-.14-1.126-.309-2.248-.44-3.375-.036-.313-.226-.341-.453-.37a3.048,3.048,0,0,0,.005-2.525" transform="translate(7.941 7.4)" fill="#ce6b1a"/>
            <path id="Trazado_615432" data-name="Trazado 615432" d="M27.549,56.333a2.419,2.419,0,0,0-1.925-2.325c-.312-.062-.31-.244-.307-.477.006-.5.031-.994-.008-1.487-.033-.427.16-.511.518-.464A4.21,4.21,0,0,1,28.5,52.888c.313.345.476.35.793,0a4.228,4.228,0,0,1,2.673-1.312c.359-.047.572.038.514.464a2.871,2.871,0,0,0,0,.669c.08.752.019,1.287-.927,1.546-.921.252-1.151,1.2-1.306,2.075-.279.632-.547,1.245-1.422,1.212-.81-.032-.992-.659-1.273-1.212" transform="translate(6.887 14.034)" fill="#040506"/>
            <path id="Trazado_615433" data-name="Trazado 615433" d="M6.863,56.573a2.194,2.194,0,0,1-.929-1.529A2.347,2.347,0,0,0,4.068,53.07c-.309-.055-.319-.234-.314-.472.008-.5.031-.995-.006-1.488-.032-.421.149-.516.514-.469A4.284,4.284,0,0,1,6.99,52c.268.3.413.3.687,0a4.314,4.314,0,0,1,2.729-1.364c.366-.047.569.052.51.471a2.909,2.909,0,0,0,0,.6c.052.747.123,1.415-.936,1.613-.695.131-.957.857-1.172,1.516-.21.644-.318,1.361-1,1.738h-.94" transform="translate(1.019 13.778)" fill="#040506"/>
            <path id="Trazado_615434" data-name="Trazado 615434" d="M53.88,50.614c.276.15.094.431.182.635a4.577,4.577,0,0,1,.118.654c.158.913.061,1.116-.8,1.474a2.66,2.66,0,0,0-1.41,1.894c-.183.564-.318,1.174-1.046,1.3h-.941a2.257,2.257,0,0,1-.955-1.6A2.308,2.308,0,0,0,47.2,53.076c-.3-.056-.327-.221-.322-.467a13.461,13.461,0,0,0-.006-1.486c-.042-.49.215-.529.579-.475a4.262,4.262,0,0,1,2.6,1.293c.294.318.453.4.794.028a4.277,4.277,0,0,1,3.034-1.355" transform="translate(12.755 13.774)" fill="#040506"/>
            <path id="Trazado_615435" data-name="Trazado 615435" d="M50.061,56.441a2.347,2.347,0,0,0,.973-1.651,2.265,2.265,0,0,1,1.782-1.837c.323-.062.365-.234.357-.511-.013-.441.011-.884.019-1.327l2.069,5.332-5.2-.005" transform="translate(13.624 13.91)" fill="#f8973e"/>
            <path id="Trazado_615436" data-name="Trazado 615436" d="M56.075,32.171,52.438,27.2h3.637v4.975" transform="translate(14.271 7.401)" fill="#f8973e"/>
            <path id="Trazado_615437" data-name="Trazado 615437" d="M.96,27.2H4.6L.96,32.17V27.2" transform="translate(0.261 7.401)" fill="#f8973e"/>
            <path id="Trazado_615438" data-name="Trazado 615438" d="M39.807,11.26a12.562,12.562,0,0,0-3.6,2.908,11.586,11.586,0,0,0-2.624,8.012c.037,1.005.006,1.006-1.022,1.006-2.336,0-4.67-.009-7,.008a1.975,1.975,0,0,1-1.233-.383,4.6,4.6,0,0,0-5.3,0,2.89,2.89,0,0,1-1.832.374.259.259,0,0,1-.289-.164,1.34,1.34,0,0,1,.676-1.656c1.424-.574,2.839-1.169,4.273-1.716a1.4,1.4,0,0,0,1.013-1.528c-.037-1.018-.005-2.037-.01-3.056-.005-.991-.413-1.41-1.388-1.416-.944-.006-1.889-.029-2.832.009-.566.023-.606-.192-.472-.656a2.325,2.325,0,0,1,2.459-1.738q6.854-.006,13.711,0Z" transform="translate(4.577 3.064)" fill="#d1003b"/>
            <path id="Trazado_615439" data-name="Trazado 615439" d="M36.938,16.693a7.633,7.633,0,0,1,2-1.323c.253.864.707,1.1,1.665.9A5.773,5.773,0,0,1,47.3,20.354a5.954,5.954,0,0,1-5.455,7.667,5.683,5.683,0,0,1-5.48-3.174,5.508,5.508,0,0,1,.578-6.4c.57-.709.618-1.169-.005-1.754" transform="translate(9.69 4.182)" fill="#003754"/>
            <path id="Trazado_615440" data-name="Trazado 615440" d="M31.579,10.916C32.2,10.3,32.71,9.806,33.2,9.3c.176-.179.318-.214.485-.005a1.243,1.243,0,0,0,.159.158c.41.345.814,1.144,1.165,1.008.6-.229,1.019-.9,1.521-1.379.182-.174.083-.289-.051-.422-1.44-1.439-2.884-2.874-4.311-4.324-.257-.262-.4-.154-.589.05-.328.36-.667.711-1.1,1.168a5.312,5.312,0,0,1,.234-1.413c.048-.321.206-.382.5-.38q5.064.011,10.13,0c.36,0,.461.112.458.464C41.792,6.3,41.8,8.39,41.8,10.475c0,.224.036.447-.318.445-3.241-.006-6.483,0-9.9,0" transform="translate(8.296 1.021)" fill="#0083c4"/>
            <path id="Trazado_615441" data-name="Trazado 615441" d="M23.918,26.04a5.061,5.061,0,0,0,.469-3.528h2.244c3.179,0,6.358.008,9.537-.01a.681.681,0,0,1,.79.55,8.247,8.247,0,0,0,1.887,2.988Z" transform="translate(6.509 6.123)" fill="#fff"/>
            <path id="Trazado_615442" data-name="Trazado 615442" d="M11.085,22.276c0-.548-.034-.994.009-1.43.05-.486-.153-.612-.592-.561-.583.069-1.387-.266-1.7.141-.285.374-.061,1.136-.061,1.893A2.177,2.177,0,0,1,7.528,20.4q-.074-2.492-.005-4.989a2.37,2.37,0,0,1,4.735-.032c.055,1.661.034,3.327.005,4.989a2.191,2.191,0,0,1-1.178,1.9" transform="translate(2.038 3.574)" fill="#5ca17a"/>
            <path id="Trazado_615443" data-name="Trazado 615443" d="M5.46,22.307c0-.581-.018-1.043.006-1.5.019-.364-.06-.562-.481-.52-.612.061-1.4-.254-1.794.122s-.038,1.169-.163,1.843A2.068,2.068,0,0,1,1.9,20.363q-.067-2.456-.005-4.916a2.372,2.372,0,0,1,4.741-.023c.047,1.636.038,3.277,0,4.914A2.251,2.251,0,0,1,5.46,22.307" transform="translate(0.508 3.574)" fill="#5ca17a"/>
            <path id="Trazado_615444" data-name="Trazado 615444" d="M7.033,26.386c-.644,0-1.29-.018-1.932.008-.333.013-.42-.1-.413-.421.019-.967.024-1.934,0-2.9a.445.445,0,0,1,.379-.519c.813-.207,1.408-1.191,2.055-1.14.627.05,1.22.912,2,1.145a.454.454,0,0,1,.36.532c-.023.941-.032,1.884,0,2.824.014.417-.145.491-.51.477-.642-.024-1.289-.006-1.932-.006" transform="translate(1.274 5.827)" fill="#fff"/>
            <path id="Trazado_615445" data-name="Trazado 615445" d="M23.52,23.988a2.382,2.382,0,1,1-2.35-2.412,2.481,2.481,0,0,1,2.35,2.412" transform="translate(5.105 5.871)" fill="#003754"/>
            <path id="Trazado_615446" data-name="Trazado 615446" d="M21.784,7.082c-1.155,0-1.155,0-1.155-1.4,0-.99,0-.99,1.49-.988.9,0,.9,0,.9,1.509,0,.877,0,.877-1.23.877" transform="translate(5.614 1.278)" fill="#004f8e"/>
            <path id="Trazado_615447" data-name="Trazado 615447" d="M17.831,17.462c0-.272-.013-.5,0-.717.038-.56-.254-1.408.121-1.613a4.527,4.527,0,0,1,1.959-.106.371.371,0,0,1,.262.089A1.539,1.539,0,0,1,19.7,16.8c-.551.219-1.1.431-1.659.642a.98.98,0,0,1-.212.019" transform="translate(4.834 4.074)" fill="#f2cb53"/>
            <path id="Trazado_615448" data-name="Trazado 615448" d="M29.6,9.025q.445-1.74.887-3.474c.092.006.154-.009.181.015,1.369,1.224,1.366,1.223.067,2.525-.345.346-.676.7-1.013,1.057L29.6,9.025" transform="translate(8.056 1.51)" fill="#0081c2"/>
            <path id="Trazado_615449" data-name="Trazado 615449" d="M13.745,44.473c-.112.408.224,1-.473,1.17a1.828,1.828,0,0,0-1.5,1.277c-.176.459-.3.939-.489,1.393A1.223,1.223,0,0,1,9,48.323a10.159,10.159,0,0,1-.347-1.051,2.217,2.217,0,0,0-1.693-1.684c-.17-.038-.407-.018-.4-.326.015-.62,0-1.239.005-1.859,0-.379.3-.274.486-.254A3.907,3.907,0,0,1,9.62,44.338c.429.468.674.42,1.07-.022A4.1,4.1,0,0,1,12.9,43.18c.579-.139.976-.047.833.7a2.735,2.735,0,0,0,.017.593" transform="translate(1.786 11.735)" fill="#040506"/>
            <path id="Trazado_615450" data-name="Trazado 615450" d="M15.185,38.457l-.13.232c-.709.691-1.413,1.385-2.126,2.072a1.226,1.226,0,0,1-1.995.011c-.639-.623-1.242-1.285-1.9-1.883-.363-.327-.3-.518.027-.8.448-.389.817-1.081,1.3-1.159.447-.073.832.673,1.221,1.076.285.294.441.244.71-.017.4-.387.74-1.126,1.226-1.052.458.069.827.723,1.237,1.118.142.136.289.266.434.4" transform="translate(2.391 10.049)" fill="#050506"/>
            <path id="Trazado_615451" data-name="Trazado 615451" d="M12.519,32.822c1.119,0,1.119,0,1.119,1.117,0,1.268,0,1.268-1.265,1.268-1.121,0-1.121,0-1.121-1.117,0-1.268,0-1.268,1.266-1.268" transform="translate(3.063 8.932)" fill="#040506"/>
            <path id="Trazado_615452" data-name="Trazado 615452" d="M15.514,30.275c0,1.183,0,1.183-1.5,1.182-.885,0-.885,0-.885-1.5,0-.888,0-.888,1.574-.887.812,0,.812,0,.812,1.2" transform="translate(3.573 7.912)" fill="#040506"/>
            <path id="Trazado_615453" data-name="Trazado 615453" d="M32.476,46.4c.067.528.081,1.083-.838,1.23a1.6,1.6,0,0,0-1.123,1.195c-.154.468-.3.944-.489,1.4a1.219,1.219,0,0,1-2.254,0c-.156-.359-.251-.747-.373-1.121a2.146,2.146,0,0,0-1.659-1.625c-.318-.062-.458-.192-.429-.542a6.721,6.721,0,0,0,0-1.338c-.07-.607.248-.658.7-.57a4.338,4.338,0,0,1,2.519,1.318c.282.315.448.335.738.005a4.36,4.36,0,0,1,2.371-1.3c.57-.134,1-.081.845.69a4.108,4.108,0,0,0-.005.658" transform="translate(6.886 12.246)" fill="#040506"/>
            <path id="Trazado_615454" data-name="Trazado 615454" d="M32.029,38.434c.1.011.221-.011.285.041a2.624,2.624,0,0,1-.291,2.485,1.828,1.828,0,0,0-1.495,1.277c-.177.461-.3.941-.49,1.394a1.221,1.221,0,0,1-2.284,0c-.162-.385-.261-.8-.4-1.192a2.065,2.065,0,0,0-1.583-1.506c-.345-.069-.5-.214-.466-.59s.008-.743.008-1.116c0-.864.065-.908.938-.7a4.259,4.259,0,0,1,2.292,1.285c.256.288.4.331.684.015a4.455,4.455,0,0,1,2.8-1.392" transform="translate(6.887 10.457)" fill="#040506"/>
            <path id="Trazado_615455" data-name="Trazado 615455" d="M31.184,33.807a.645.645,0,0,0,.073.122c.776.823.776.823.07,1.611-.513.5-1.024,1-1.541,1.494a1.207,1.207,0,0,1-1.936.02c-.676-.653-1.326-1.334-2-1.983-.252-.242-.289-.425.005-.636a1,1,0,0,0,.107-.1c.426-.412.817-1.084,1.291-1.15.352-.048.828.674,1.221,1.081.234.244.415.319.648.017a4.158,4.158,0,0,1,.364-.37c.841-.84.841-.84,1.7-.1" transform="translate(6.979 9.03)" fill="#050506"/>
            <path id="Trazado_615456" data-name="Trazado 615456" d="M28.4,29.072c1.173,0,1.173,0,1.173,1.139,0,1.247,0,1.247-1.212,1.247-1.173,0-1.173,0-1.173-1.139,0-1.247,0-1.247,1.212-1.247" transform="translate(7.4 7.912)" fill="#040506"/>
            <path id="Trazado_615457" data-name="Trazado 615457" d="M50.926,43.122c.538.078.187.524.319.77a3.742,3.742,0,0,0-.019.519c.067.679.057,1.229-.86,1.355-.514.071-.856.57-1.067,1.067a9.342,9.342,0,0,0-.315.908c-.21.679-.421,1.348-1.32,1.362s-1.135-.644-1.35-1.326c-.051-.165-.106-.328-.155-.494a2.209,2.209,0,0,0-1.689-1.693c-.169-.038-.411-.013-.4-.323.014-.621-.008-1.242.008-1.862.01-.429.363-.271.557-.247a4.124,4.124,0,0,1,2.608,1.284c.3.322.457.394.8.024a4.265,4.265,0,0,1,2.893-1.345" transform="translate(11.992 11.732)" fill="#040506"/>
            <path id="Trazado_615458" data-name="Trazado 615458" d="M48.91,38.412a18.366,18.366,0,0,1-2.526,2.6,1.049,1.049,0,0,1-1.49-.064c-.759-.712-1.477-1.469-2.226-2.194-.214-.206-.191-.338.014-.53.452-.424.818-1.1,1.34-1.247.611-.172.887.682,1.334,1.055.279.23.408.22.66-.017.419-.391.751-1.147,1.285-1.064.459.073.824.731,1.234,1.127.122.12.256.226.384.34l-.009-.008" transform="translate(11.571 10.054)" fill="#050506"/>
            <path id="Trazado_615459" data-name="Trazado 615459" d="M42.5,31.457c-1.247,0-1.247,0-1.247-1.212,0-1.173,0-1.173,1.139-1.173,1.247,0,1.247,0,1.247,1.212,0,1.173,0,1.173-1.139,1.173" transform="translate(11.227 7.912)" fill="#040506"/>
            <path id="Trazado_615460" data-name="Trazado 615460" d="M44.258,35.207c-1.13,0-1.13,0-1.13-1.108,0-1.277,0-1.277,1.257-1.277,1.128,0,1.128,0,1.128,1.108,0,1.277,0,1.277-1.256,1.277" transform="translate(11.737 8.932)" fill="#040506"/>
            <path id="Trazado_615461" data-name="Trazado 615461" d="M29.579,15.9c0,1.813,0,1.8-1.833,1.772-.392-.006-.58-.07-.562-.522.034-.866.024-1.736,0-2.6-.009-.354.106-.453.462-.471,1.93-.1,1.93-.109,1.93,1.824" transform="translate(7.398 3.82)" fill="#040506"/>
            <path id="Trazado_615462" data-name="Trazado 615462" d="M25.828,15.9c0,1.81,0,1.8-1.838,1.767-.4-.008-.572-.087-.556-.528.032-.868.024-1.738,0-2.605-.009-.36.12-.447.467-.463,1.925-.1,1.925-.106,1.925,1.829" transform="translate(6.377 3.82)" fill="#040506"/>
            <path id="Trazado_615463" data-name="Trazado 615463" d="M41.09,24.978a3.577,3.577,0,1,1,3.568-3.6,3.555,3.555,0,0,1-3.568,3.6" transform="translate(10.207 4.85)" fill="#040506"/>
            <path id="Trazado_615464" data-name="Trazado 615464" d="M22.072,23.693a1.19,1.19,0,1,1-1.179-1.181,1.182,1.182,0,0,1,1.179,1.181" transform="translate(5.359 6.126)" fill="#0082c3"/>
            <path id="Trazado_615465" data-name="Trazado 615465" d="M41.76,20.91A1.19,1.19,0,1,1,40.592,19.7,1.216,1.216,0,0,1,41.76,20.91" transform="translate(10.718 5.36)" fill="#0081c2"/>
          </g>
        </g>
      </g>
    </g>
  </g>
</svg>
