<svg xmlns="http://www.w3.org/2000/svg" xmlns:xlink="http://www.w3.org/1999/xlink" width="206" height="159.708" viewBox="0 0 206 159.708">
  <defs>
    <clipPath id="clip-path">
      <rect id="Rectángulo_33803" data-name="Rectángulo 33803" width="206" height="151.803" fill="none"/>
    </clipPath>
    <clipPath id="clip-path-2">
      <path id="Trazado_114221" data-name="Trazado 114221" d="M.3,2.759c-1.314,7.66,1.895,33.3,5.079,32.666s8.312-27.905,7.5-31.659C12.468,1.879,8.358.275,5.993.031A5.961,5.961,0,0,0,5.381,0C3.135,0,.573,1.183.3,2.759" fill="none"/>
    </clipPath>
    <clipPath id="clip-path-3">
      <path id="Trazado_114198" data-name="Trazado 114198" d="M40.738,44.6c-1.395,1.741,6.714,22.661,8.812,23.081S177.757,52.152,178.806,50.472s1.469-21.613,0-23.5c-.075-.1-.5-.143-1.242-.143-13.7,0-135.234,15.779-136.826,17.769" transform="translate(-40.577 -26.828)" fill="none"/>
    </clipPath>
    <clipPath id="clip-path-5">
      <path id="Trazado_114205" data-name="Trazado 114205" d="M53.809,78.145c-1.483,1.483,6.4,23.712,8.656,24.76s113.256-19.934,114.1-21.4.923-22.89.293-23.939c-.017-.028-.119-.042-.3-.042-6.628,0-120.294,18.173-122.745,20.622" transform="translate(-53.625 -57.523)" fill="none"/>
    </clipPath>
    <clipPath id="clip-path-7">
      <path id="Trazado_114211" data-name="Trazado 114211" d="M70.388,113.313c-1.512,1.924,4.248,10.911,5.088,11.12s94.8-20.353,95.347-21.4,1.761-10.072,0-10.911a.692.692,0,0,0-.243-.027c-5.606,0-97.933,18.346-100.192,21.22" transform="translate(-70.136 -92.093)" fill="none"/>
    </clipPath>
    <clipPath id="clip-path-9">
      <path id="Trazado_114221-2" data-name="Trazado 114221" d="M.224,2.048C-.751,7.732,1.63,26.76,3.993,26.29S10.162,5.581,9.556,2.8C9.252,1.394,6.2.2,4.447.023A4.423,4.423,0,0,0,3.993,0C2.326,0,.425.878.224,2.048" fill="none"/>
    </clipPath>
    <clipPath id="clip-path-10">
      <path id="Trazado_114221-3" data-name="Trazado 114221" d="M.411,3.755C-1.377,14.18,2.99,49.075,7.324,48.213s11.312-37.978,10.2-43.087C16.968,2.557,11.375.375,8.156.042A8.112,8.112,0,0,0,7.324,0C4.266,0,.78,1.61.411,3.755" fill="none"/>
    </clipPath>
  </defs>
  <g id="Grupo_165394" data-name="Grupo 165394" transform="translate(10312.407 7576.409)">
    <g id="Grupo_165380" data-name="Grupo 165380" transform="translate(-10312.407 -7568.503)">
      <g id="Grupo_80144" data-name="Grupo 80144">
        <g id="Grupo_80143" data-name="Grupo 80143" clip-path="url(#clip-path)">
          <path id="Trazado_114159" data-name="Trazado 114159" d="M5.62,6.047s29.3-.472,31.4,2.466,21.266,59.82,21.266,59.82" transform="translate(0.696 0.745)" fill="none" stroke="#552a1a" stroke-linecap="round" stroke-miterlimit="10" stroke-width="4"/>
          <path id="Trazado_114160" data-name="Trazado 114160" d="M32.126,1.757c1.425,1.108,2.723,11.453.521,12.651s-27.591,2.159-30.109,0S-1.027,2.176,1.281.707,30.238.288,32.126,1.757" transform="translate(0 0)" fill="#b0b855"/>
          <path id="Trazado_114161" data-name="Trazado 114161" d="M97.044,127.877a9.232,9.232,0,1,1-9.232-9.232,9.232,9.232,0,0,1,9.232,9.232" transform="translate(9.731 14.693)" fill="#263347"/>
          <path id="Trazado_114162" data-name="Trazado 114162" d="M92.268,127.4a4.931,4.931,0,1,1-4.931-4.931,4.932,4.932,0,0,1,4.931,4.931" transform="translate(10.205 15.167)" fill="#ffc674"/>
          <path id="Trazado_114163" data-name="Trazado 114163" d="M89.241,127.1a2.2,2.2,0,1,1-2.2-2.2,2.205,2.205,0,0,1,2.2,2.2" transform="translate(10.506 15.467)" fill="#263347"/>
          <path id="Trazado_114164" data-name="Trazado 114164" d="M163.147,112.786a9.232,9.232,0,1,1-9.232-9.232,9.232,9.232,0,0,1,9.232,9.232" transform="translate(17.918 12.824)" fill="#263347"/>
          <path id="Trazado_114165" data-name="Trazado 114165" d="M158.371,112.312a4.931,4.931,0,1,1-4.931-4.931,4.932,4.932,0,0,1,4.931,4.931" transform="translate(18.391 13.298)" fill="#ffc674"/>
          <path id="Trazado_114166" data-name="Trazado 114166" d="M155.344,112.012a2.2,2.2,0,1,1-2.205-2.2,2.2,2.2,0,0,1,2.205,2.2" transform="translate(18.692 13.599)" fill="#263347"/>
          <path id="Trazado_114167" data-name="Trazado 114167" d="M64.239,32.8s-5.75-8.038-4.347-15.616c0,0,2.1-1.563,3.748.263,0,0-.862,9.226.6,15.353" transform="translate(7.39 2.051)" fill="#b0b855"/>
          <path id="Trazado_114168" data-name="Trazado 114168" d="M65.194,30.425c1.933-.4,3.7-5.769,7.66-9.157s14.385-.554,17.812,7.058,3.3,23.6.073,26.08-8.457,1.9-9.385,3.256-3.378,5.471-5.239,5.826-18.974-1.575-24.921-10.3-3.888-16.31.827-19.91,10.934-2.39,13.174-2.851" transform="translate(5.887 2.459)" fill="#b21b23"/>
          <path id="Trazado_114169" data-name="Trazado 114169" d="M55.648,33.441c-5.3,1.457-6.932,17.79,1.964,19.966S69.7,49.28,68.8,43.412s-5.9-11.962-13.149-9.971" transform="translate(6.354 4.094)" fill="#dd242d"/>
          <path id="Trazado_114170" data-name="Trazado 114170" d="M98.229,23.536s-1.082-11.96,2.485-17.416c0,0,3.567-.629,3.777,1.259Z" transform="translate(12.146 0.745)" fill="#b0b855"/>
          <path id="Trazado_114171" data-name="Trazado 114171" d="M99.843,20.473c1.359,1.473,10.6-5.246,16.472-2.938s11.541,16.6,5.245,27.182-12.379,11.846-14.9,10.9-5.455-2.413-7.974-.735-9.064,3.276-14.268-4.93S71.921,27.046,82.742,19c6.168-4.583,10.911-5.246,17.1,1.469" transform="translate(9.554 1.919)" fill="#dd1112"/>
          <path id="Trazado_114172" data-name="Trazado 114172" d="M91.8,20.342c-5.16-3.006-12.222,4.668-10.966,11.1s4.307,12.9,10.966,11.882,8.763-17.876,0-22.981" transform="translate(9.992 2.436)" fill="#e53c4c"/>
          <path id="Trazado_114173" data-name="Trazado 114173" d="M130.652,28.167s-3.384-9.285,0-16.209c0,0,2.439-.945,3.541,1.259,0,0-3.305,8.656-3.541,14.95" transform="translate(15.994 1.456)" fill="#b0b855"/>
          <path id="Trazado_114174" data-name="Trazado 114174" d="M132.782,25.338c1.969.136,5.115-4.564,9.836-6.767s14.006,3.324,15.265,11.577-3.148,23.622-6.924,25.144-8.656-.441-9.915.619-4.721,4.364-6.61,4.207-17.856-6.606-21.245-16.607.629-16.756,6.137-18.959,11.174.629,13.456.787" transform="translate(13.863 2.24)" fill="#b21b23"/>
          <path id="Trazado_114175" data-name="Trazado 114175" d="M122.4,26.359c-5.5-.018-11.449,15.28-3.463,19.762s12.748-.736,13.456-6.63-2.48-13.107-9.993-13.132" transform="translate(14.249 3.264)" fill="#dd242d"/>
          <path id="Trazado_114176" data-name="Trazado 114176" d="M89.506,52.866s-3.384-9.285,0-16.209c0,0,2.439-.945,3.541,1.259,0,0-3.305,8.656-3.541,14.95" transform="translate(10.898 4.515)" fill="#b0b855"/>
          <path id="Trazado_114177" data-name="Trazado 114177" d="M91.636,50.037c1.969.136,5.115-4.564,9.836-6.767s14.006,3.324,15.265,11.577-3.148,23.622-6.924,25.144-8.656-.441-9.915.619-4.721,4.364-6.61,4.207S75.433,78.211,72.043,68.21s.629-16.756,6.137-18.959,11.174.629,13.456.787" transform="translate(8.768 5.298)" fill="#b21b23"/>
          <path id="Trazado_114178" data-name="Trazado 114178" d="M81.257,51.058c-5.5-.018-11.449,15.28-3.463,19.762s12.748-.736,13.456-6.63-2.48-13.107-9.993-13.132" transform="translate(9.154 6.323)" fill="#dd242d"/>
          <path id="Trazado_114179" data-name="Trazado 114179" d="M118.067,46.906s1.082-11.96-2.485-17.416c0,0-3.567-.629-3.777,1.259Z" transform="translate(13.846 3.64)" fill="#b0b855"/>
          <path id="Trazado_114180" data-name="Trazado 114180" d="M120.944,43.843c-1.359,1.473-10.6-5.246-16.472-2.938S92.931,57.5,99.226,68.088s12.38,11.846,14.9,10.9,5.455-2.413,7.974-.735,9.064,3.276,14.268-4.93,12.5-22.909,1.679-30.951c-6.168-4.583-10.911-5.246-17.1,1.469" transform="translate(11.947 4.813)" fill="#dd1112"/>
          <path id="Trazado_114181" data-name="Trazado 114181" d="M125.653,43.712c5.16-3.006,12.222,4.668,10.966,11.1s-4.307,12.9-10.966,11.882-8.763-17.876,0-22.981" transform="translate(14.841 5.33)" fill="#e53c4c"/>
          <path id="Trazado_114182" data-name="Trazado 114182" d="M92.588,79.947s-1.082-11.96,2.485-17.416c0,0,3.567-.629,3.777,1.259Z" transform="translate(11.447 7.731)" fill="#b0b855"/>
          <path id="Trazado_114183" data-name="Trazado 114183" d="M94.2,76.884c1.359,1.473,10.6-5.246,16.472-2.938s11.541,16.6,5.245,27.182-12.379,11.846-14.9,10.9-5.455-2.413-7.974-.735-9.064,3.276-14.268-4.93S66.28,83.457,77.1,75.416c6.168-4.583,10.911-5.246,17.1,1.469" transform="translate(8.855 8.905)" fill="#dd1112"/>
          <path id="Trazado_114184" data-name="Trazado 114184" d="M86.16,76.753c-5.16-3.006-12.222,4.668-10.966,11.1s4.307,12.9,10.966,11.882,8.763-17.876,0-22.981" transform="translate(9.294 9.422)" fill="#e53c4c"/>
          <path id="Trazado_114185" data-name="Trazado 114185" d="M135.438,78.553s1.324-11.936,5.907-16.571c0,0,3.621.094,3.45,1.987Z" transform="translate(16.773 7.676)" fill="#b0b855"/>
          <path id="Trazado_114186" data-name="Trazado 114186" d="M137.632,75.657c1.036,1.715,11.428-3.028,16.725.406s8,18.562-.278,27.682-14.493,9.14-16.772,7.713-4.865-3.452-7.667-2.309-9.535,1.4-13-7.677-7.68-24.941,4.526-30.663c6.957-3.261,11.737-2.966,16.465,4.848" transform="translate(13.997 8.526)" fill="#dd1112"/>
          <path id="Trazado_114187" data-name="Trazado 114187" d="M129.65,74.033c-4.456-3.975-12.907,2.139-12.959,8.69s1.649,13.5,8.378,13.83,12.15-15.769,4.581-22.52" transform="translate(14.451 9.012)" fill="#e53c4c"/>
          <path id="Trazado_114188" data-name="Trazado 114188" d="M111.65,77.385s-3.384-9.285,0-16.209c0,0,2.439-.945,3.541,1.259,0,0-3.305,8.656-3.541,14.95" transform="translate(13.641 7.551)" fill="#b0b855"/>
          <path id="Trazado_114189" data-name="Trazado 114189" d="M113.78,74.556c1.969.136,5.115-4.564,9.836-6.767s14.006,3.324,15.265,11.577-3.148,23.622-6.924,25.144-8.656-.441-9.915.619-4.721,4.364-6.61,4.207S97.577,102.73,94.187,92.729s.629-16.756,6.137-18.959,11.174.629,13.456.787" transform="translate(11.51 8.335)" fill="#b21b23"/>
          <path id="Trazado_114190" data-name="Trazado 114190" d="M103.4,75.577c-5.5-.018-11.449,15.28-3.463,19.762s12.748-.736,13.456-6.63S110.914,75.6,103.4,75.577" transform="translate(11.896 9.36)" fill="#dd242d"/>
          <path id="Trazado_114191" data-name="Trazado 114191" d="M45.577,45.31c-1.176,1.955,37.176,87.567,38.732,87.778s10.308-1.195,10.579-3.568-36.3-84.981-36.931-86.45-11.331.494-12.38,2.241" transform="translate(5.641 5.27)" fill="#552a1a"/>
          <path id="Trazado_114192" data-name="Trazado 114192" d="M151.634,30.914c-2.41.965-7.666,85.488-5.461,86.117s8.71.394,9.968-1.062,8.184-82.871,7.765-84.759-9.124-1.553-12.272-.3" transform="translate(18.037 3.701)" fill="#552a1a"/>
          <g id="Grupo_80178" data-name="Grupo 80178" transform="translate(152.849 5.791) rotate(38)">
            <g id="Grupo_80159" data-name="Grupo 80159" transform="translate(0)">
              <g id="Grupo_80170" data-name="Grupo 80170" transform="translate(0 0)">
                <g id="Grupo_80171" data-name="Grupo 80171">
                  <path id="Trazado_114214" data-name="Trazado 114214" d="M3.18,14.6S-2.032,6.618.889,0c0,0,4.246,6.284,3.553,11.927,0,0,.889-5.893,5.553-8.467A17.178,17.178,0,0,1,4.707,14.869Z" transform="translate(2.717 0)" fill="#e2de85"/>
                  <path id="Trazado_114215" data-name="Trazado 114215" d="M6.254,12.434S-.692,6.616.056,1.693a21.367,21.367,0,0,1,6.3,8.564S5.02,3.787,7.745,0c0,0,2.914,5.977.21,10.525a9.69,9.69,0,0,1,6.621-4.218s-2.983,4.858-8.322,6.127" transform="translate(0 3.297)" fill="#b0b855"/>
                  <path id="Trazado_114216" data-name="Trazado 114216" d="M.3,2.76C.6,1.037,3.625-.214,5.992.031s6.476,1.848,6.886,3.736c.816,3.754-4.312,31.025-7.5,31.659S-1.012,10.42.3,2.76" transform="translate(1.138 13.664)" fill="#ed6f29"/>
                </g>
              </g>
            </g>
            <g id="Grupo_80160" data-name="Grupo 80160" transform="translate(1.138 13.663)" clip-path="url(#clip-path-2)">
              <path id="Trazado_114217" data-name="Trazado 114217" d="M8.628.075S3.577-.652,0,2.429" transform="translate(-0.342 5.008)" fill="none" stroke="#c9551b" stroke-linecap="round" stroke-miterlimit="10" stroke-width="2"/>
              <path id="Trazado_114218" data-name="Trazado 114218" d="M6.687.143A8.012,8.012,0,0,0,0,1.913" transform="translate(0.04 12.506)" fill="none" stroke="#c9551b" stroke-linecap="round" stroke-miterlimit="10" stroke-width="2"/>
              <path id="Trazado_114219" data-name="Trazado 114219" d="M4.791.1S2.559-.588,0,1.616" transform="translate(1.017 20.898)" fill="none" stroke="#c9551b" stroke-linecap="round" stroke-miterlimit="10" stroke-width="2"/>
              <path id="Trazado_114220" data-name="Trazado 114220" d="M3.447,0A4.749,4.749,0,0,0,0,1.745" transform="translate(1.905 27.463)" fill="none" stroke="#c9551b" stroke-linecap="round" stroke-miterlimit="10" stroke-width="2"/>
            </g>
          </g>
          <path id="Trazado_114193" data-name="Trazado 114193" d="M40.737,44.6c-1.394,1.742,6.715,22.662,8.813,23.081S177.756,52.152,178.806,50.472s1.469-21.613,0-23.5S42.416,42.5,40.737,44.6" transform="translate(5.025 3.322)" fill="#a2563c"/>
        </g>
      </g>
      <g id="Grupo_80146" data-name="Grupo 80146" transform="translate(45.603 30.15)">
        <g id="Grupo_80145" data-name="Grupo 80145" clip-path="url(#clip-path-3)">
          <path id="Trazado_114194" data-name="Trazado 114194" d="M36.074,49.636c9.5-3.065,19.486-3.665,29.269-5.3,10.753-1.8,21.568-3.153,32.369-4.612s21.522-3.256,32.237-5.252c10.691-1.989,21.431-3.89,32.3-4.584,2.659-.171,5.316-.244,7.964-.562,2.5-.3,4.976-.72,7.448-1.179a147.926,147.926,0,0,1,15.356-2.466q1.923-.15,3.851-.157a.562.562,0,0,0,0-1.124c-10.4.035-20.368,3.605-30.718,4.162-5.4.29-10.756.722-16.115,1.436S139.327,31.621,134,32.588c-10.766,1.957-21.5,3.96-32.34,5.471-10.794,1.5-21.619,2.8-32.386,4.5-5.081.8-10.163,1.537-15.257,2.247a127.5,127.5,0,0,0-14.726,2.719q-1.773.464-3.516,1.027c-.686.221-.392,1.306.3,1.083" transform="translate(-41.22 -27.129)" fill="#ff9149"/>
          <path id="Trazado_114195" data-name="Trazado 114195" d="M32.9,56.847c10.39-2.908,20.952-5.153,31.577-7.013,10.674-1.869,21.409-3.361,32.147-4.806s21.5-2.925,32.236-4.494c11.025-1.609,22.055-3.187,33.1-4.65,5.012-.664,10.018-1.082,15.061-1.436a99.218,99.218,0,0,0,14.719-1.834q1.8-.4,3.569-.946c.69-.212.4-1.3-.3-1.083-9.582,2.944-19.729,2.474-29.581,3.721-10.935,1.385-21.847,2.964-32.754,4.547-10.814,1.57-21.627,3.12-32.458,4.571-10.69,1.432-21.381,2.87-32.02,4.641S46.982,51.94,36.556,54.688q-1.981.523-3.955,1.076a.562.562,0,0,0,.3,1.083" transform="translate(-41.614 -26.366)" fill="#ff9149"/>
          <path id="Trazado_114196" data-name="Trazado 114196" d="M39.1,61.7c10.33-1.233,20.377-4.151,30.717-5.311,10.625-1.191,21.2-2.779,31.791-4.222,10.674-1.454,21.4-2.472,32.07-3.951,10.556-1.463,21.064-3.247,31.554-5.121,10.56-1.888,21.1-3.867,31.672-5.708q1.957-.342,3.915-.675c.711-.121.41-1.2-.3-1.085-10.528,1.8-21.027,3.757-31.537,5.656C158.5,43.173,148,45.006,137.453,46.548c-10.6,1.549-21.26,2.56-31.878,3.959-10.671,1.406-21.313,3.026-32,4.327-5.147.627-10.245,1.3-15.337,2.292-5.066.989-10.111,2.1-15.213,2.9q-1.961.308-3.93.545c-.709.084-.718,1.209,0,1.124" transform="translate(-40.827 -25.74)" fill="#ff9149"/>
          <path id="Trazado_114197" data-name="Trazado 114197" d="M41.252,65.66a4.994,4.994,0,0,1,1.8-.4c.864-.1,1.732-.146,2.6-.2,2.013-.117,4.028-.252,6.037-.433,5-.452,9.95-1.25,14.893-2.095,5.211-.891,10.415-1.8,15.645-2.581,5.213-.773,10.436-1.476,15.655-2.208,10.415-1.463,20.778-3.224,31.125-5.1,10.4-1.886,20.778-3.862,31.179-5.72,10.355-1.85,20.734-3.586,31.158-5q2.031-.276,4.065-.534c.708-.09.717-1.215,0-1.124-10.488,1.334-20.927,3.009-31.339,4.833-10.458,1.833-20.89,3.811-31.334,5.726s-20.888,3.784-31.393,5.3c-10.532,1.521-21.081,2.877-31.562,4.724-5.083.9-10.179,1.784-15.308,2.37-2.344.267-4.694.429-7.046.609-1.686.128-3.384.152-5.06.393a4.877,4.877,0,0,0-1.678.462c-.634.347-.067,1.317.568.97" transform="translate(-40.598 -25.164)" fill="#ff9149"/>
        </g>
      </g>
      <g id="Grupo_80148" data-name="Grupo 80148">
        <g id="Grupo_80147" data-name="Grupo 80147" clip-path="url(#clip-path)">
          <path id="Trazado_114199" data-name="Trazado 114199" d="M57.309,52.521a2.413,2.413,0,1,1-2.414-2.413,2.413,2.413,0,0,1,2.414,2.413" transform="translate(6.499 6.205)" fill="#e2de85"/>
          <path id="Trazado_114200" data-name="Trazado 114200" d="M157.723,39.89a2.413,2.413,0,1,1-2.413-2.413,2.413,2.413,0,0,1,2.413,2.413" transform="translate(18.935 4.641)" fill="#e2de85"/>
          <path id="Trazado_114201" data-name="Trazado 114201" d="M53.809,78.146c-1.483,1.483,6.4,23.711,8.656,24.76s113.256-19.935,114.1-21.4.923-22.889.293-23.939S56.328,75.628,53.809,78.146" transform="translate(6.641 7.124)" fill="#a2563c"/>
        </g>
      </g>
      <g id="Grupo_80150" data-name="Grupo 80150" transform="translate(60.266 64.647)">
        <g id="Grupo_80149" data-name="Grupo 80149" clip-path="url(#clip-path-5)">
          <path id="Trazado_114202" data-name="Trazado 114202" d="M47.5,84.15a74.071,74.071,0,0,0,14.172-1.443c2.4-.417,4.788-.861,7.189-1.243,2.44-.388,4.89-.642,7.343-.92,10.184-1.156,20.3-2.817,30.394-4.61s20.157-3.709,30.268-5.383c9.938-1.645,19.9-3.2,29.763-5.244a118.562,118.562,0,0,0,12.46-3.04c3.613-1.17,7.209-2.607,10.961-3.282a13.2,13.2,0,0,1,2.233-.225.562.562,0,0,0,0-1.124c-3.487.029-6.963,1.37-10.228,2.461-1.862.624-3.722,1.262-5.609,1.811-1.942.563-3.929.964-5.9,1.406-9.823,2.2-19.766,3.819-29.7,5.448-10.082,1.654-20.128,3.487-30.182,5.3-10.178,1.84-20.375,3.6-30.64,4.9-4.849.61-9.7,1.089-14.513,1.931a125.968,125.968,0,0,1-14.5,2.069q-1.757.1-3.515.064a.562.562,0,0,0,0,1.124" transform="translate(-54.45 -57.509)" fill="#ff9149"/>
          <path id="Trazado_114203" data-name="Trazado 114203" d="M47.874,92.219c4.319.091,8.531-1.108,12.615-2.387,2.145-.672,4.281-1.382,6.446-1.99A58.907,58.907,0,0,1,73.4,86.468c9.759-1.6,19.58-2.77,29.368-4.165,4.88-.695,9.752-1.445,14.6-2.329,4.772-.869,9.51-1.9,14.275-2.805,9.482-1.79,19-3.446,28.4-5.651q7.092-1.666,14.067-3.783c4.644-1.4,9.241-3,13.983-4.05q1.719-.381,3.461-.652c.713-.11.41-1.194-.3-1.085a96.552,96.552,0,0,0-13.982,3.632c-4.607,1.443-9.246,2.8-13.929,3.977-9.311,2.345-18.764,4.058-28.2,5.816-9.592,1.786-19.123,3.83-28.776,5.276-9.689,1.451-19.42,2.6-29.105,4.076-2.379.363-4.776.695-7.135,1.173a64.087,64.087,0,0,0-6.278,1.691c-4.216,1.316-8.449,2.869-12.863,3.363a23.751,23.751,0,0,1-3.11.142.562.562,0,0,0,0,1.124" transform="translate(-54.404 -56.976)" fill="#ff9149"/>
          <path id="Trazado_114204" data-name="Trazado 114204" d="M52.692,97.781C61.824,95.223,71.318,94.4,80.653,92.9q14.309-2.3,28.568-4.9c4.676-.854,9.366-1.672,14.018-2.647,4.583-.96,9.128-2.088,13.66-3.259,9.1-2.351,18.192-4.993,27.464-6.6,8.858-1.533,17.81-2.783,26.389-5.566q1.59-.516,3.157-1.106c.671-.252.38-1.338-.3-1.083-8.449,3.173-17.4,4.647-26.262,6.122C158.1,75.4,149.059,77.755,140,80.126c-4.529,1.185-9.063,2.358-13.629,3.393-4.608,1.046-9.257,1.879-13.9,2.743Q98.212,88.914,83.9,91.239c-4.7.766-9.4,1.463-14.11,2.126-4.675.657-9.351,1.364-13.951,2.444q-1.731.408-3.443.888a.562.562,0,0,0,.3,1.083" transform="translate(-53.827 -56.262)" fill="#ff9149"/>
        </g>
      </g>
      <g id="Grupo_80152" data-name="Grupo 80152">
        <g id="Grupo_80151" data-name="Grupo 80151" clip-path="url(#clip-path)">
          <path id="Trazado_114206" data-name="Trazado 114206" d="M155.576,69.816a2.413,2.413,0,1,1-2.413-2.413,2.413,2.413,0,0,1,2.413,2.413" transform="translate(18.669 8.347)" fill="#e2de85"/>
          <path id="Trazado_114207" data-name="Trazado 114207" d="M71.58,86.374a2.413,2.413,0,1,1-2.414-2.413,2.413,2.413,0,0,1,2.414,2.413" transform="translate(8.267 10.398)" fill="#e2de85"/>
          <path id="Trazado_114208" data-name="Trazado 114208" d="M70.388,113.313c-1.512,1.924,4.248,10.911,5.088,11.122s94.8-20.354,95.345-21.4,1.761-10.072,0-10.911S72.7,110.376,70.388,113.313" transform="translate(8.686 11.405)" fill="#a2563c"/>
        </g>
      </g>
      <g id="Grupo_80154" data-name="Grupo 80154" transform="translate(78.822 103.498)">
        <g id="Grupo_80153" data-name="Grupo 80153" clip-path="url(#clip-path-7)">
          <path id="Trazado_114209" data-name="Trazado 114209" d="M64.3,118.5c16.835-2.135,33.331-6.217,49.755-10.391,8.168-2.076,16.377-4.018,24.515-6.2,8.089-2.172,16.132-4.532,24.291-6.441,2.176-.509,4.363-1.025,6.563-1.415,1.646-.292,3.318-.439,4.979-.616,3.245-.345,6.834-.555,9.785-2.079.643-.332.075-1.3-.568-.97-2.611,1.347-5.828,1.56-8.7,1.87-1.531.165-3.064.311-4.589.524-1.726.239-3.43.627-5.13,1-8.1,1.785-16.071,4.08-24.067,6.264-8.028,2.194-16.124,4.117-24.187,6.169-8.166,2.078-16.333,4.16-24.55,6.025-9.287,2.107-18.647,3.938-28.1,5.137-.708.09-.717,1.215,0,1.124" transform="translate(-70.925 -92.313)" fill="#ff9149"/>
          <path id="Trazado_114210" data-name="Trazado 114210" d="M67.816,122.732c15.91-3.711,31.875-7.19,47.751-11.054,3.971-.967,7.923-2.034,11.91-2.929,3.884-.872,7.8-1.594,11.721-2.256,7.967-1.343,15.977-2.433,23.9-4.027,8.806-1.772,17.406-4.656,26.481-4.685a.562.562,0,0,0,0-1.124c-8.007.026-15.8,2.163-23.531,4.005-7.878,1.876-15.946,2.926-23.932,4.218-4.019.65-8.032,1.336-12.018,2.158-3.911.8-7.767,1.817-11.641,2.775-7.993,1.975-16.012,3.84-24.037,5.677-8.968,2.053-17.944,4.068-26.9,6.159-.7.164-.406,1.247.3,1.083" transform="translate(-70.51 -91.528)" fill="#ff9149"/>
        </g>
      </g>
      <g id="Grupo_80156" data-name="Grupo 80156">
        <g id="Grupo_80155" data-name="Grupo 80155" clip-path="url(#clip-path)">
          <path id="Trazado_114212" data-name="Trazado 114212" d="M153.428,99.08a2.413,2.413,0,1,1-2.413-2.413,2.413,2.413,0,0,1,2.413,2.413" transform="translate(18.403 11.971)" fill="#e2de85"/>
          <path id="Trazado_114213" data-name="Trazado 114213" d="M84.068,114.182a2.413,2.413,0,1,1-2.413-2.413,2.413,2.413,0,0,1,2.413,2.413" transform="translate(9.813 13.842)" fill="#e2de85"/>
        </g>
      </g>
    </g>
    <g id="Grupo_165381" data-name="Grupo 165381" transform="matrix(0.719, 0.695, -0.695, 0.719, -10184.095, -7564.916)">
      <g id="Grupo_80159-2" data-name="Grupo 80159" transform="translate(0 0)">
        <g id="Grupo_80170-2" data-name="Grupo 80170" transform="translate(0 0)">
          <g id="Grupo_80171-2" data-name="Grupo 80171">
            <path id="Trazado_114214-2" data-name="Trazado 114214" d="M2.36,10.836S-1.508,4.912.66,0C.66,0,3.811,4.664,3.3,8.851c0,0,.66-4.374,4.121-6.283a12.748,12.748,0,0,1-3.924,8.466Z" transform="translate(2.016 0)" fill="#e2de85"/>
            <path id="Trazado_114215-2" data-name="Trazado 114215" d="M4.641,9.227S-.513,4.91.042,1.257A15.856,15.856,0,0,1,4.721,7.612S3.725,2.81,5.747,0c0,0,2.163,4.435.156,7.81a7.191,7.191,0,0,1,4.913-3.13A11.056,11.056,0,0,1,4.641,9.227" transform="translate(0 2.447)" fill="#b0b855"/>
            <path id="Trazado_114216-2" data-name="Trazado 114216" d="M.224,2.048C.443.77,2.69-.159,4.447.023S9.252,1.394,9.556,2.8c.605,2.786-3.2,23.024-5.563,23.494S-.751,7.732.224,2.048" transform="translate(0.844 10.14)" fill="#ed6f29"/>
          </g>
        </g>
      </g>
      <g id="Grupo_80160-2" data-name="Grupo 80160" transform="translate(0.844 10.14)" clip-path="url(#clip-path-9)">
        <path id="Trazado_114217-2" data-name="Trazado 114217" d="M6.4.055A8.859,8.859,0,0,0,0,1.8" transform="translate(-0.254 3.716)" fill="none" stroke="#c9551b" stroke-linecap="round" stroke-miterlimit="10" stroke-width="2"/>
        <path id="Trazado_114218-2" data-name="Trazado 114218" d="M4.963.106A5.946,5.946,0,0,0,0,1.42" transform="translate(0.03 9.281)" fill="none" stroke="#c9551b" stroke-linecap="round" stroke-miterlimit="10" stroke-width="2"/>
        <path id="Trazado_114219-2" data-name="Trazado 114219" d="M3.555.076A3.967,3.967,0,0,0,0,1.2" transform="translate(0.755 15.509)" fill="none" stroke="#c9551b" stroke-linecap="round" stroke-miterlimit="10" stroke-width="2"/>
        <path id="Trazado_114220-2" data-name="Trazado 114220" d="M2.558,0A3.524,3.524,0,0,0,0,1.295" transform="translate(1.414 20.38)" fill="none" stroke="#c9551b" stroke-linecap="round" stroke-miterlimit="10" stroke-width="2"/>
      </g>
    </g>
    <g id="Grupo_165382" data-name="Grupo 165382" transform="matrix(0.719, 0.695, -0.695, 0.719, -10204.057, -7578.978)">
      <g id="Grupo_80159-3" data-name="Grupo 80159" transform="translate(0 0)">
        <g id="Grupo_80170-3" data-name="Grupo 80170" transform="translate(0 0)">
          <g id="Grupo_80171-3" data-name="Grupo 80171">
            <path id="Trazado_114214-3" data-name="Trazado 114214" d="M4.328,19.873S-2.765,9.007,1.21,0c0,0,5.779,8.553,4.836,16.233,0,0,1.21-8.021,7.558-11.523a23.378,23.378,0,0,1-7.2,15.526Z" transform="translate(3.698 0)" fill="#e2de85"/>
            <path id="Trazado_114215-3" data-name="Trazado 114215" d="M8.511,16.922S-.941,9,.077,2.3c0,0,6.079,4.69,8.581,11.655,0,0-1.826-8.806,1.883-13.959,0,0,3.966,8.134.286,14.324a13.188,13.188,0,0,1,9.011-5.74S15.777,15.2,8.511,16.922" transform="translate(0 4.488)" fill="#b0b855"/>
            <path id="Trazado_114216-3" data-name="Trazado 114216" d="M.411,3.756C.813,1.412,4.934-.292,8.155.042s8.813,2.515,9.371,5.085c1.11,5.109-5.868,42.224-10.2,43.087S-1.377,14.181.411,3.756" transform="translate(1.548 18.596)" fill="#ed6f29"/>
          </g>
        </g>
      </g>
      <g id="Grupo_80160-3" data-name="Grupo 80160" transform="translate(1.549 18.595)" clip-path="url(#clip-path-10)">
        <path id="Trazado_114217-3" data-name="Trazado 114217" d="M11.742.1S4.869-.888,0,3.306" transform="translate(-0.465 6.815)" fill="none" stroke="#c9551b" stroke-linecap="round" stroke-miterlimit="10" stroke-width="2"/>
        <path id="Trazado_114218-3" data-name="Trazado 114218" d="M9.1.195A10.9,10.9,0,0,0,0,2.6" transform="translate(0.055 17.021)" fill="none" stroke="#c9551b" stroke-linecap="round" stroke-miterlimit="10" stroke-width="2"/>
        <path id="Trazado_114219-3" data-name="Trazado 114219" d="M6.52.139S3.483-.8,0,2.2" transform="translate(1.384 28.442)" fill="none" stroke="#c9551b" stroke-linecap="round" stroke-miterlimit="10" stroke-width="2"/>
        <path id="Trazado_114220-3" data-name="Trazado 114220" d="M4.691,0A6.463,6.463,0,0,0,0,2.374" transform="translate(2.593 37.376)" fill="none" stroke="#c9551b" stroke-linecap="round" stroke-miterlimit="10" stroke-width="2"/>
      </g>
    </g>
  </g>
</svg>
