<svg xmlns="http://www.w3.org/2000/svg" xmlns:xlink="http://www.w3.org/1999/xlink" width="69.395" height="83.26" viewBox="0 0 69.395 83.26">
  <defs>
    <clipPath id="clip-path">
      <rect id="Rectángulo_324975" data-name="Rectángulo 324975" width="69.395" height="83.26" transform="translate(0 0)" fill="none"/>
    </clipPath>
  </defs>
  <g id="Grupo_876407" data-name="Grupo 876407" transform="translate(0 0)">
    <g id="Grupo_876406" data-name="Grupo 876406" clip-path="url(#clip-path)">
      <path id="Trazado_614205" data-name="Trazado 614205" d="M0,41.653V1.95C0,.4.369.034,1.942.034,22,.034,42.053.073,62.108,0a7.268,7.268,0,0,1,7.287,7.319c-.067,24.676-.033,49.354-.034,74.03,0,1.541-.378,1.911-1.95,1.911H1.956C.352,83.26,0,82.9,0,81.269V41.653" fill="#040506"/>
      <path id="Trazado_614206" data-name="Trazado 614206" d="M2.774,41.638q0-18.981-.018-37.961c0-.722.17-.888.889-.887q25.7.035,51.4.018A2.86,2.86,0,0,1,58.263,5.99c0,2.08,0,4.16,0,6.24,0,1.181.5,1.67,1.685,1.673,1.936.005,3.872.032,5.807-.015.672-.017.847.157.846.84q-.031,26.607-.016,53.215c0,3.929-.013,7.858.014,11.787,0,.584-.108.771-.739.771q-31.159-.028-62.321,0c-.68,0-.782-.2-.781-.817q.029-19.024.014-38.048" fill="#fff"/>
      <path id="Trazado_614207" data-name="Trazado 614207" d="M60.27,2.792a17.892,17.892,0,0,1,3.116.153,4.138,4.138,0,0,1,3.19,3.916c.036,1.239-.013,2.48.022,3.718.014.481-.165.567-.6.56-1.47-.023-2.941-.028-4.411,0-.476.01-.572-.158-.563-.593.026-1.267-.006-2.536.013-3.8a6.9,6.9,0,0,0-.772-3.952" fill="#dec8b4"/>
      <path id="Trazado_614208" data-name="Trazado 614208" d="M19.492,5.583A13.871,13.871,0,1,1,5.55,19.448,13.87,13.87,0,0,1,19.492,5.583" fill="#040506"/>
      <path id="Trazado_614209" data-name="Trazado 614209" d="M34.722,38.872c3.641,0,7.282-.005,10.923,0A1.381,1.381,0,0,1,47.16,40.1a1.4,1.4,0,0,1-1.123,1.521,2.8,2.8,0,0,1-.519.019q-10.836,0-21.672,0c-1.033,0-1.634-.509-1.647-1.363-.015-.886.6-1.407,1.687-1.408q5.418,0,10.836,0" fill="#040506"/>
      <path id="Trazado_614210" data-name="Trazado 614210" d="M34.709,44.421q5.461,0,10.923,0a1.411,1.411,0,0,1,1.363.736,1.291,1.291,0,0,1-.049,1.394A1.364,1.364,0,0,1,45.7,47.2q-11.01,0-22.019-.006a1.387,1.387,0,1,1,.015-2.765c3.669-.01,7.339,0,11.009,0" fill="#040506"/>
      <path id="Trazado_614211" data-name="Trazado 614211" d="M34.635,52.743c-3.641,0-7.282.006-10.923,0a1.389,1.389,0,1,1-.04-2.769c.058,0,.116,0,.173,0q10.836,0,21.672,0c1.033,0,1.634.509,1.646,1.364.013.884-.6,1.406-1.692,1.407q-5.418,0-10.836,0" fill="#040506"/>
      <path id="Trazado_614212" data-name="Trazado 614212" d="M34.678,58.292q-5.375,0-10.749,0c-1.11,0-1.719-.487-1.731-1.367s.6-1.4,1.69-1.4q10.794,0,21.586,0c1.087,0,1.7.523,1.689,1.408s-.623,1.363-1.736,1.364q-5.374,0-10.749,0" fill="#040506"/>
      <path id="Trazado_614213" data-name="Trazado 614213" d="M34.722,61.066c3.641,0,7.282-.005,10.923,0A1.381,1.381,0,0,1,47.16,62.3a1.4,1.4,0,0,1-1.123,1.521,2.8,2.8,0,0,1-.519.019q-10.836,0-21.672,0c-1.033,0-1.634-.509-1.647-1.363-.015-.886.6-1.407,1.687-1.408q5.418,0,10.836,0" fill="#040506"/>
      <path id="Trazado_614214" data-name="Trazado 614214" d="M48.536,77.711q-5.418,0-10.836,0c-1.023,0-1.626-.525-1.63-1.38A1.371,1.371,0,0,1,37.6,74.941c2.023-.012,4.046,0,6.068,0q7.845,0,15.691-.006a1.475,1.475,0,0,1,1.554.845c.434.981-.264,1.928-1.456,1.931-3.641.01-7.282,0-10.923,0" fill="#040506"/>
      <path id="Trazado_614215" data-name="Trazado 614215" d="M49.2,27.775c-3.41,0-6.819.005-10.229,0a1.391,1.391,0,0,1-.388-2.751A2.894,2.894,0,0,1,39.1,25q10.143,0,20.285,0c1.033,0,1.634.509,1.647,1.363.013.884-.6,1.407-1.692,1.408q-5.07,0-10.142,0" fill="#040506"/>
      <path id="Trazado_614216" data-name="Trazado 614216" d="M49.2,33.324c-3.41,0-6.819,0-10.229,0a1.391,1.391,0,0,1-.387-2.751,2.891,2.891,0,0,1,.519-.018q10.143,0,20.285,0c1.033,0,1.633.509,1.646,1.364.013.884-.6,1.406-1.692,1.407q-5.07,0-10.142,0" fill="#040506"/>
      <path id="Trazado_614217" data-name="Trazado 614217" d="M52.67,22.227q-3.294,0-6.588,0c-1.086,0-1.7-.524-1.688-1.409.013-.855.611-1.361,1.645-1.362q6.675-.007,13.349,0c1.034,0,1.634.508,1.647,1.363.014.884-.6,1.4-1.69,1.408q-3.338.006-6.675,0" fill="#040506"/>
      <path id="Trazado_614218" data-name="Trazado 614218" d="M54.13,69.389c1.762,0,3.525,0,5.287,0,1.018,0,1.623.534,1.619,1.391s-.609,1.378-1.632,1.379q-5.287.007-10.575,0c-1.04,0-1.639-.5-1.66-1.349-.023-.888.594-1.418,1.674-1.422,1.762,0,3.525,0,5.287,0" fill="#040506"/>
      <path id="Trazado_614219" data-name="Trazado 614219" d="M12.5,38.873c.9,0,1.791-.016,2.687,0a1.383,1.383,0,1,1,0,2.763q-2.73.029-5.46,0a1.38,1.38,0,1,1,0-2.76c.924-.025,1.849-.006,2.773-.006" fill="#050506"/>
      <path id="Trazado_614220" data-name="Trazado 614220" d="M12.436,47.195c-.867,0-1.734.012-2.6,0a1.374,1.374,0,0,1-1.51-1.411A1.359,1.359,0,0,1,9.8,44.426q2.686-.024,5.373,0a1.357,1.357,0,0,1,1.468,1.363,1.38,1.38,0,0,1-1.521,1.4c-.9.014-1.791,0-2.687,0" fill="#050506"/>
      <path id="Trazado_614221" data-name="Trazado 614221" d="M12.447,52.743c-.9,0-1.792.017-2.687-.005a1.383,1.383,0,1,1,.031-2.763q2.686-.025,5.374,0a1.387,1.387,0,1,1-.031,2.766c-.9.015-1.791,0-2.687,0" fill="#050506"/>
      <path id="Trazado_614222" data-name="Trazado 614222" d="M12.524,55.518c.867,0,1.733-.011,2.6,0a1.377,1.377,0,0,1,1.521,1.4,1.359,1.359,0,0,1-1.469,1.365q-2.687.026-5.373,0a1.387,1.387,0,1,1,.035-2.766c.9-.015,1.79,0,2.687,0" fill="#050506"/>
      <path id="Trazado_614223" data-name="Trazado 614223" d="M12.438,63.84c-.867,0-1.734.012-2.6,0a1.373,1.373,0,0,1-1.512-1.409A1.358,1.358,0,0,1,9.8,61.071q2.687-.024,5.373,0a1.359,1.359,0,0,1,1.47,1.362,1.379,1.379,0,0,1-1.519,1.4c-.9.014-1.791,0-2.687,0" fill="#050506"/>
      <path id="Trazado_614224" data-name="Trazado 614224" d="M58.233,41.643c-.491,0-.985.031-1.473-.008a1.353,1.353,0,0,1-1.269-1.385,1.331,1.331,0,0,1,1.285-1.364c.981-.04,1.965-.038,2.946,0a1.339,1.339,0,0,1,1.314,1.339,1.36,1.36,0,0,1-1.33,1.415c-.489.031-.982.006-1.473.005" fill="#050606"/>
      <path id="Trazado_614225" data-name="Trazado 614225" d="M58.3,44.423c.462,0,.926-.022,1.386.005a1.355,1.355,0,0,1,1.349,1.4,1.336,1.336,0,0,1-1.294,1.359c-.981.039-1.965.038-2.946,0a1.335,1.335,0,0,1-1.3-1.348,1.353,1.353,0,0,1,1.336-1.4c.489-.029.982-.006,1.473-.006" fill="#050606"/>
      <path id="Trazado_614226" data-name="Trazado 614226" d="M58.259,52.741c-.462,0-.925.02-1.386,0a1.359,1.359,0,0,1-1.381-1.365,1.339,1.339,0,0,1,1.345-1.394c.952-.033,1.907-.033,2.859,0a1.379,1.379,0,0,1,.036,2.755c-.489.033-.982.006-1.473.007" fill="#050606"/>
      <path id="Trazado_614227" data-name="Trazado 614227" d="M58.294,55.52c.462,0,.926-.021,1.386,0a1.38,1.38,0,0,1-.018,2.76c-.953.029-1.908.033-2.859,0a1.337,1.337,0,0,1-1.311-1.342,1.353,1.353,0,0,1,1.329-1.412c.489-.03.982-.006,1.473-.006" fill="#050606"/>
      <path id="Trazado_614228" data-name="Trazado 614228" d="M58.261,63.839c-.462,0-.925.019-1.386,0a1.36,1.36,0,0,1-1.383-1.364,1.34,1.34,0,0,1,1.344-1.4c.952-.033,1.907-.033,2.859,0a1.343,1.343,0,0,1,1.341,1.4,1.364,1.364,0,0,1-1.389,1.359c-.461.023-.924,0-1.386,0" fill="#050606"/>
      <path id="Trazado_614229" data-name="Trazado 614229" d="M30.517,19.481A11.1,11.1,0,1,1,19.494,8.357,11.162,11.162,0,0,1,30.517,19.481" fill="#ffe155"/>
      <path id="Trazado_614230" data-name="Trazado 614230" d="M23.579,16.5a1.394,1.394,0,0,1-1.268,1.563c-.818.066-1.357-.426-1.5-1.419a1.407,1.407,0,0,0-1.172-1.32,1.37,1.37,0,0,0-1.292,2.195,1.531,1.531,0,0,0,1.213.554,4.146,4.146,0,0,1,1.757,7.848.933.933,0,0,0-.551.759,1.372,1.372,0,0,1-2.69-.027.9.9,0,0,0-.573-.743,4.061,4.061,0,0,1-2.228-3.38,1.4,1.4,0,0,1,1.22-1.683,1.371,1.371,0,0,1,1.536,1.378,1.4,1.4,0,0,0,1.22,1.363,1.269,1.269,0,0,0,1.4-.783c.47-.966-.192-1.887-1.408-1.965a4.132,4.132,0,0,1-3.975-4.361,3.957,3.957,0,0,1,2.139-3.431,1.073,1.073,0,0,0,.682-.858,1.23,1.23,0,0,1,1.3-1.052A1.24,1.24,0,0,1,20.753,12.2c.075.5.342.649.7.85a4.125,4.125,0,0,1,2.13,3.445" fill="#040506"/>
    </g>
  </g>
</svg>
