<svg xmlns="http://www.w3.org/2000/svg" xmlns:xlink="http://www.w3.org/1999/xlink" width="84.329" height="84.324" viewBox="0 0 84.329 84.324">
  <defs>
    <clipPath id="clip-path">
      <rect id="Rectángulo_324976" data-name="Rectángulo 324976" width="84.329" height="84.324" transform="translate(0 0)" fill="none"/>
    </clipPath>
  </defs>
  <g id="Grupo_876409" data-name="Grupo 876409" transform="translate(0 0)">
    <g id="Grupo_876408" data-name="Grupo 876408" clip-path="url(#clip-path)">
      <path id="Trazado_614231" data-name="Trazado 614231" d="M84.329,75.984v1.151a3.759,3.759,0,0,1-1.086,1.7c-1.5,1.479-2.979,2.99-4.486,4.467a2.688,2.688,0,0,1-3.772.447,75.221,75.221,0,0,1-12.512-9.44c-.139-.127-.247-.3-.467-.344-.235.251-.12.565-.121.845-.011,2.411,0,4.823-.007,7.234a4.93,4.93,0,0,1-.061,1.065,1.383,1.383,0,0,1-1.382,1.172c-.192.011-.384,0-.576,0H1.882C.3,84.287.008,84,.008,82.43Q.008,42.068,0,1.705C0,.945.046.27.911,0H60.8a1.528,1.528,0,0,1,1.076,1.649c0,.356,0,.712,0,1.068q0,23.82-.02,47.64a2.425,2.425,0,0,0,1.21,2.37,25.129,25.129,0,0,1,3.18,2.327,1.606,1.606,0,0,1,.737,1.77c-.776,1.227-1.464,1.366-2.617.492-1.07-.811-2.156-1.6-3.245-2.381a.921.921,0,0,0-1.415.116q-2.229,2.3-4.532,4.532a.925.925,0,0,0-.15,1.407A71.125,71.125,0,0,0,66.311,73.762c1.513,1.352,3.105,2.6,4.719,3.825a.8.8,0,0,0,1.256-.107c1.835-1.842,3.647-3.707,5.556-5.472.378-.349.182-.623-.032-.925-1.154-1.635-2.453-3.153-3.747-4.676-1.511-1.777-3.241-3.34-4.855-5.015a1.427,1.427,0,0,1-.094-2.291c.852-.526,1.148-.525,1.9.1a49.374,49.374,0,0,1,6.191,6.421,72.954,72.954,0,0,1,6.631,9.254,10.257,10.257,0,0,1,.488,1.112" fill="#040506"/>
      <path id="Trazado_614232" data-name="Trazado 614232" d="M40.71,72.388c-1.022-.245-1.369-.111-1.891.785A16.652,16.652,0,0,1,26.856,81.52a15.2,15.2,0,0,1-2.7.225q-10.448-.012-20.9.01c-.572,0-.72-.131-.719-.713q.027-21.544.014-43.09v-.324A30.671,30.671,0,0,0,8.49,45.4c-.852,0-1.544,0-2.236,0-1.037,0-1.593.431-1.605,1.223-.013.819.515,1.243,1.561,1.245,1.591,0,3.181.011,4.772-.006a1.86,1.86,0,0,1,1.068.317c.932.589,1.895,1.131,3.015,1.791-1.613,0-3.027-.006-4.442,0-.886.006-1.453.48-1.464,1.2a1.317,1.317,0,0,0,1.427,1.274c.575.021,1.151,0,1.727,0q16.742,0,33.483-.016a1.3,1.3,0,0,1,1.305.718q2.1,3.567,4.28,7.087c.284.46.151.62-.247.865a17.147,17.147,0,0,1-9.221,2.468q-15.342-.026-30.685,0a6.616,6.616,0,0,0-1.064.057,1.2,1.2,0,0,0-.086,2.345,4.614,4.614,0,0,0,1.058.089q14.4.007,28.793,0c1.088,0,1.088,0,.9,1.091-.22,1.287-.115,1.533.885,2.079a5.354,5.354,0,0,1-1.006,3.158" fill="#fff"/>
      <path id="Trazado_614233" data-name="Trazado 614233" d="M50.051,25.893a25.221,25.221,0,0,1-2.038,9.948,10.3,10.3,0,0,0,2.4,12.093,22.048,22.048,0,0,0,3.618,2.4c1.189.729,2.382,1.453,3.594,2.142.447.254.44.415.086.761Q55.5,55.391,53.347,57.6c-.348.357-.5.354-.761-.085-1.02-1.747-2.089-3.466-3.111-5.212a10.3,10.3,0,0,0-8.347-5.36,9.728,9.728,0,0,0-4.882.843,23.96,23.96,0,0,1-11.83,2.067A23.069,23.069,0,0,1,9.505,42.9,23.217,23.217,0,0,1,2.577,25.323,23.747,23.747,0,0,1,49.557,21.4a24.249,24.249,0,0,1,.494,4.5" fill="#ffc545"/>
      <path id="Trazado_614234" data-name="Trazado 614234" d="M37.556,2.467h8.3c4.193,0,8.387.011,12.58-.013.56,0,.729.113.728.7q-.029,21.864-.017,43.728a17.221,17.221,0,0,1-.275,2.855c-.066.393-.122.542-.535.288-1.838-1.13-3.74-2.164-5.525-3.371a7.665,7.665,0,0,1-2.745-9.239A32.052,32.052,0,0,0,52.3,29.66,26.275,26.275,0,0,0,50.859,17c-.085-.231-.178-.458-.257-.689-.016-.045.015-.106.033-.206,1.607,0,3.222,0,4.837,0,1.159,0,1.582-.417,1.585-1.578q.012-4.191,0-8.384c0-1.227-.379-1.6-1.633-1.6q-6.783-.008-13.567.006A2.49,2.49,0,0,1,40.4,4.137c-.863-.564-1.777-1.05-2.845-1.67" fill="#fff"/>
      <path id="Trazado_614235" data-name="Trazado 614235" d="M66.7,57.053a7.212,7.212,0,0,0,2.5,2.167c-.624.857-.6,1.329.173,2.06A71.621,71.621,0,0,1,78.093,71.1c.3.414.317.639-.061,1.008-1.94,1.9-3.867,3.806-5.76,5.748-.424.435-.671.41-1.137.067A69.353,69.353,0,0,1,54.694,60.836c-.361-.533-.289-.8.138-1.218q2.533-2.463,5-5c.361-.37.61-.408,1.029-.092,1.224.922,2.482,1.8,3.724,2.7.916.662,1.336.631,2.12-.172" fill="#8c8b8a"/>
      <path id="Trazado_614236" data-name="Trazado 614236" d="M40.71,72.388q.5-1.58,1.006-3.158c1.152-.136,1.3-.323,1.58-1.776.088-.455-.122-1.01.195-1.346s.886-.131,1.34-.2a19.475,19.475,0,0,0,7.783-2.822c.293-.187.47-.259.709.089.618.9,1.258,1.79,1.932,2.65.261.332.166.55-.012.852A29.534,29.534,0,0,1,36.26,80.922c-.5.125-1.014.215-1.522.317a.985.985,0,0,1-.225-.022,19.169,19.169,0,0,0,6.444-6.8,1.377,1.377,0,0,0-.247-2.029" fill="#fff5d8"/>
      <path id="Trazado_614237" data-name="Trazado 614237" d="M42.07,81.741A33.56,33.56,0,0,0,55.951,70.219c.342-.494.666-1,.973-1.518.178-.3.3-.415.578-.079.468.571.964,1.119,1.468,1.66a.886.886,0,0,1,.181.684q0,5.094,0,10.189c0,.363.005.6-.5.6-5.53-.018-11.06-.011-16.59-.011" fill="#fff"/>
      <path id="Trazado_614238" data-name="Trazado 614238" d="M44.169,7.033h3.159c2.191,0,4.382.017,6.573-.012.538-.007.695.148.685.685-.032,1.779-.026,3.559,0,5.339.006.462-.126.613-.6.6-1.4-.029-2.794-.019-4.19,0a.7.7,0,0,1-.718-.4,27.778,27.778,0,0,0-4.907-6.215" fill="#72b78b"/>
      <path id="Trazado_614239" data-name="Trazado 614239" d="M2.556,14.91c0-4.082.007-8-.01-11.909,0-.433.123-.545.549-.543,3.914.016,7.829.009,11.768.083-1.745.752-3.1,2.392-5.332,2.033a19.786,19.786,0,0,0-3.444-.026C5.051,4.565,4.652,4.964,4.641,6c-.016,1.587-.018,3.174,0,4.761a2.137,2.137,0,0,1-.358,1.223c-.573.914-1.1,1.855-1.731,2.924" fill="#fff"/>
      <path id="Trazado_614240" data-name="Trazado 614240" d="M79.867,73.812a1.046,1.046,0,0,1,.193.151,3.6,3.6,0,0,1,.223.343c.425.7,1.183,1.4,1.18,2.1,0,.726-1.008,1.2-1.572,1.789-.949.988-1.946,1.93-2.9,2.916-.3.312-.531.38-.9.121-.605-.422-1.239-.8-1.87-1.187-.266-.162-.348-.291-.085-.551q2.744-2.721,5.47-5.46c.074-.075.161-.137.259-.22" fill="#ffc445"/>
      <path id="Trazado_614241" data-name="Trazado 614241" d="M37.921,49.918a6.3,6.3,0,0,1,4.94,0Z" fill="#f8edd1"/>
      <path id="Trazado_614242" data-name="Trazado 614242" d="M7.2,8.267c-.148-1.272-.148-1.272,1.068-1.2A6.467,6.467,0,0,1,7.2,8.267" fill="#6db487"/>
      <path id="Trazado_614243" data-name="Trazado 614243" d="M20.648,70.57q-7.274,0-14.546,0c-.705,0-1.246-.2-1.417-.947a1.217,1.217,0,0,1,1.178-1.522c.491-.035.986-.009,1.479-.009H34.626c.192,0,.383,0,.575,0,.883.027,1.415.5,1.416,1.249s-.529,1.219-1.423,1.221q-4.685.009-9.369,0H20.648" fill="#040506"/>
      <path id="Trazado_614244" data-name="Trazado 614244" d="M16.049,56.952q-4.848,0-9.7,0a2.92,2.92,0,0,1-.97-.1,1.091,1.091,0,0,1-.732-1.083A1.164,1.164,0,0,1,5.385,54.6a2.4,2.4,0,0,1,1.049-.128H25.743c.137,0,.274-.006.411,0,.869.046,1.424.56,1.4,1.293a1.264,1.264,0,0,1-1.4,1.183c-2.191.015-4.382.007-6.573.007H16.049" fill="#050606"/>
      <path id="Trazado_614245" data-name="Trazado 614245" d="M10.369,59.039c1.45,0,2.9-.005,4.35,0,.893,0,1.45.458,1.479,1.182.03.753-.557,1.281-1.472,1.283q-4.31.012-8.619,0c-.933,0-1.476-.493-1.456-1.279.019-.757.529-1.183,1.45-1.187,1.422-.007,2.845,0,4.268,0" fill="#040506"/>
      <path id="Trazado_614246" data-name="Trazado 614246" d="M45.7,26.255A19.415,19.415,0,1,1,26.4,6.783,19.364,19.364,0,0,1,45.7,26.255" fill="#040506"/>
      <path id="Trazado_614247" data-name="Trazado 614247" d="M45.08,41.491a1.324,1.324,0,0,1-.408.91c-.719.711-1.421,1.439-2.15,2.138a1.234,1.234,0,0,1-1.823.073,1.272,1.272,0,0,1,.085-1.827c.722-.746,1.466-1.47,2.2-2.2a1.205,1.205,0,0,1,1.369-.234,1.17,1.17,0,0,1,.722,1.138" fill="#050506"/>
      <path id="Trazado_614248" data-name="Trazado 614248" d="M64.215,60.653a3.252,3.252,0,0,1,2.338.847,48.226,48.226,0,0,1,3.87,3.68,3.626,3.626,0,0,1-5.08,5.165A34.982,34.982,0,0,1,61.46,66.22a3.253,3.253,0,0,1-.335-3.633,3.289,3.289,0,0,1,3.09-1.934" fill="#040506"/>
      <path id="Trazado_614249" data-name="Trazado 614249" d="M18.448,41.133a16.019,16.019,0,0,1-7.825-8.6A16.9,16.9,0,0,1,23.089,9.594a15.767,15.767,0,0,1,10.232,1.263,4.04,4.04,0,0,1,1.164,1.133,18.458,18.458,0,0,1,2.931,6,1.676,1.676,0,0,1,.106,1.194c-.4.251-.594-.109-.806-.311-.735-.7-1.43-1.438-2.162-2.14-.821-.788-1.356-.776-2.171.034-1.128,1.12-2.221,2.276-3.381,3.362-1.352,1.264-2.46,2.79-4.049,3.8-1.628-.962-2.68-2.546-4.069-3.767-.184-.162-.348-.348-.525-.52-.929-.9-1.448-.911-2.365,0q-2.046,2.023-4.069,4.069c-.819.831-.823,1.266-.011,2.081q4.962,4.977,9.941,9.938c.778.775,1.346.793,2.115.034,1.988-1.964,3.95-3.955,5.939-5.919a1.816,1.816,0,0,0,.452-1.887c0-.5.365-.771.679-1.051.576-.515.979-1.231,1.752-1.518a1.931,1.931,0,0,0,2.26-.679c.192-.213.406-.559.806-.3a3.859,3.859,0,0,1-.131,2.257A18.368,18.368,0,0,1,22.348,41.1a8.306,8.306,0,0,1-3.9.029" fill="#bee4f7"/>
      <path id="Trazado_614250" data-name="Trazado 614250" d="M18.448,41.133a19.164,19.164,0,0,0,9.581-2.069,17.881,17.881,0,0,0,9.6-13.137,7.064,7.064,0,0,0,.126-1.625c.031-.564.524-.8.845-1.14.93-1,.923-1.426.008-2.409-.429-.461-1.078-.761-1.177-1.487a14.74,14.74,0,0,0-2.141-5.7,19.085,19.085,0,0,0-1.965-2.71A16.175,16.175,0,0,1,42.009,19.9a16.908,16.908,0,0,1-12.79,22.984,15.775,15.775,0,0,1-10.771-1.746" fill="#8ed1ed"/>
      <path id="Trazado_614251" data-name="Trazado 614251" d="M68.89,67.68a1,1,0,0,1-.607.985,1.05,1.05,0,0,1-1.225-.137,41.312,41.312,0,0,1-3.6-3.8.908.908,0,0,1,.116-1.323.9.9,0,0,1,1.265-.078,41.153,41.153,0,0,1,3.854,3.662.936.936,0,0,1,.2.688" fill="#ffc445"/>
      <path id="Trazado_614252" data-name="Trazado 614252" d="M37.427,19.266c.486.506.969,1.016,1.46,1.518.868.887.863,1.442-.019,2.347-.377.386-.745.78-1.117,1.171-.312.292-.643.567-.932.88a1.391,1.391,0,0,1-2,.29,1.191,1.191,0,0,1-.132-1.9c.37-.4.73-.817,1.119-1.2.321-.315.357-.583.036-.9-.639-.641-1.281-1.277-1.918-1.92-.478-.482-.772-.1-1.086.211q-3.171,3.167-6.34,6.336c-1.389,1.388-1.908,1.384-3.326-.028-1.185-1.179-2.378-2.351-3.541-3.552-.4-.412-.694-.417-1.081,0-.558.6-1.14,1.187-1.745,1.743-.414.38-.334.652.029,1.012q3.8,3.764,7.561,7.558c.408.411.693.371,1.091-.016,1.55-1.511,3.011-3.109,4.525-4.655a3.021,3.021,0,0,1,.835-.655c.72-.343,1.093-.252,1.618.41a1.393,1.393,0,0,1-.288,1.908c-2.062,2.043-4.1,4.106-6.164,6.153a1.312,1.312,0,0,1-2.183.017q-5.091-5.078-10.172-10.164c-.792-.794-.786-1.361.017-2.168q2.2-2.213,4.419-4.411a1.284,1.284,0,0,1,2.123,0c1.386,1.364,2.771,2.73,4.121,4.129.42.435.657.516,1.132.027,2.216-2.276,4.48-4.506,6.728-6.751,1.044-1.044,1.522-1.034,2.594.027.874.865,1.756,1.721,2.635,2.581" fill="#040506"/>
      <path id="Trazado_614253" data-name="Trazado 614253" d="M32.465,27.915c-.889-.625-1.292-.6-2.067.17-1.69,1.681-3.381,3.363-5.048,5.068-.342.351-.522.386-.891.012Q20.5,29.156,16.493,25.2c-.353-.349-.382-.54,0-.889.785-.724,1.537-1.487,2.267-2.267.307-.328.481-.275.767.016,1.324,1.35,2.669,2.68,4.008,4.016,1.156,1.154,1.568,1.158,2.7.028,2.249-2.247,4.509-4.484,6.736-6.753.4-.409.626-.436,1.017,0,.659.732,1.364,1.426,2.089,2.095.383.354.462.6.022.963a13.245,13.245,0,0,0-1.05,1.043c-.719.736-.758,1.11-.221,2.023a15.248,15.248,0,0,0-2.356,2.442" fill="#72b78b"/>
    </g>
  </g>
</svg>
