<svg xmlns="http://www.w3.org/2000/svg" xmlns:xlink="http://www.w3.org/1999/xlink" width="84.59" height="84.576" viewBox="0 0 84.59 84.576">
  <defs>
    <clipPath id="clip-path">
      <rect id="Rectángulo_324977" data-name="Rectángulo 324977" width="84.59" height="84.576" transform="translate(0 0)" fill="none"/>
    </clipPath>
  </defs>
  <g id="Grupo_876411" data-name="Grupo 876411" transform="translate(0 0)">
    <g id="Grupo_876410" data-name="Grupo 876410" clip-path="url(#clip-path)">
      <path id="Trazado_614254" data-name="Trazado 614254" d="M22.771,0H53.957c2.411.146,4.063,1.546,5.584,3.258,1.22,1.375,2.465,2.737,3.783,4.023,1.063,1.039,2.085,2.118,3.037,3.254a7.78,7.78,0,0,1,1.859,5.087c.014,3.409,0,6.819,0,10.229,0,1.463,0,1.441,1.428,1.469a48.246,48.246,0,0,1,6.176.173,10.664,10.664,0,0,1,8.558,8.153,12.61,12.61,0,0,1,.172,2.377c.009,11.988-.05,23.977.032,35.965a10.661,10.661,0,0,1-6.942,10.127,8.48,8.48,0,0,1-2.915.445c-8.276.006-16.553-.02-24.829.016a9.629,9.629,0,0,1-7.5-3.533,9.774,9.774,0,0,1-2.553-6.625c0-.372.065-.814-.5-.882-.526-.064-.665.295-.87.689a3.936,3.936,0,0,0-.1,3.787c1.151,2.6-1.1,5.763-4,6.029-.329.031-.66.023-.99.023q-11.136,0-22.272,0a11.546,11.546,0,0,1-10.812-8.2c-.2-.69-.11-1.416-.306-2.1v-.33a8.1,8.1,0,0,0,.085-1.821C-.138,67.056,3.9,62.357,8.55,61.325c1.17-.259,1.17-.26,1.349-1.4a4.518,4.518,0,0,1,.751-2.073.942.942,0,0,0,0-1.2,4.693,4.693,0,0,1,4.079-7.24c1.19.087,1.2,0,1.2-1.264q0-19.836,0-39.671a8.78,8.78,0,0,1,1.935-5.82A6.71,6.71,0,0,1,22.771,0" fill="#040506"/>
      <path id="Trazado_614255" data-name="Trazado 614255" d="M0,71.613a.232.232,0,0,1,.142-.021c-.034.613.176,1.245-.142,1.836Z" fill="#727076"/>
      <path id="Trazado_614256" data-name="Trazado 614256" d="M38.336,65.855c-.191-.816-.841-1.472-1.025-2.192-.17-.665.789-1.31.969-2.125a4.442,4.442,0,0,0-.791-3.812c-.251-.332-.316-.513-.037-.885A4.467,4.467,0,0,0,34.3,49.632c-2.142-.114-4.286-.026-6.429-.047-1.54-.015-3.081-.034-4.62.012-.661.019-.9-.248-.9-.853,0-.247-.01-.495-.01-.742q0-21.781.007-43.561c0-.555-.163-1.178.407-1.6a6.484,6.484,0,0,1,1.794-.2q14.391.008,28.781-.012c.693,0,.934.118.921.881-.052,2.94-.022,5.882-.021,8.823,0,1.721.307,2.034,1.992,2.034,2.749,0,5.5.02,8.246-.015.57-.008.792.173.8.711.01.494.054.987.054,1.481,0,3.409-.017,6.818.012,10.226,0,.63-.133.831-.8.827q-6.968-.048-13.936-.011A10.423,10.423,0,0,0,40.53,34.9a11.2,11.2,0,0,0-.451,3.41q.014,13.317,0,26.636c0,.3-.018.6-.028.9a1.152,1.152,0,0,1-1.719,0" fill="#fff"/>
      <path id="Trazado_614257" data-name="Trazado 614257" d="M45.559,31.865a7.083,7.083,0,0,1,4.84-1.73c7.886-.009,15.772-.048,23.657.012a7.645,7.645,0,0,1,7.807,7.921q.041,18.01,0,36.02a7.311,7.311,0,0,1-2.946,6.122,2.847,2.847,0,0,1-1.279.251q-11.979,0-23.958,0a8.574,8.574,0,0,1-2.732-.541,1.346,1.346,0,0,1-.8-.545c.06-.487.466-.372.75-.391.683-.045,1.37,0,2.055-.022a2.425,2.425,0,0,0,2.568-2.6c.024-1.261.02-2.523,0-3.784a2.4,2.4,0,0,0-2.345-2.652,21.321,21.321,0,0,0-4.189,0c-1.449.135-2.1.808-2.477,2.326a17.524,17.524,0,0,0-.1,2.466c-.019.242.005.567-.256.641-.334.1-.46-.245-.565-.48a8.985,8.985,0,0,1-.81-3.679q-.03-18.049.007-36.1a5.11,5.11,0,0,1,.759-3.232" fill="#78b87e"/>
      <path id="Trazado_614258" data-name="Trazado 614258" d="M50.158,79.223a6.215,6.215,0,0,0,3.421.962c8.146.021,16.292.012,24.438.014.3,0,.6.008.9.012a6.772,6.772,0,0,1-4.661,1.765c-8.029.043-16.059.09-24.086-.011a7.754,7.754,0,0,1-7.6-7.93q-.012-17.984,0-35.966a7.441,7.441,0,0,1,2.981-6.2,19.3,19.3,0,0,0-.517,5.288q.024,16.969.013,33.94a9.94,9.94,0,0,0,1.069,4.347c.206-1.238-.088-2.3.2-3.324.337.257.27.635.275.979.017,1.12-.011,2.24.012,3.359A2.4,2.4,0,0,0,49,78.955c.4.032.832-.082,1.157.268" fill="#54a553"/>
      <path id="Trazado_614259" data-name="Trazado 614259" d="M22.749,2.841A1.693,1.693,0,0,0,22.6,3.8q0,22.375-.015,44.749c0,.741.174.983.95.972,3.3-.044,6.593-.021,9.889-.013.292,0,.608-.1.872.122-4.917,0-9.833,0-14.749.023-.544,0-.635-.2-.623-.675.028-1.07.009-2.142.009-3.213q0-18.829,0-37.659a5.022,5.022,0,0,1,3.812-5.267" fill="#e8e8e8"/>
      <path id="Trazado_614260" data-name="Trazado 614260" d="M14.852,63.865A7.227,7.227,0,0,1,20,64.739a8.509,8.509,0,0,1,4.672,8.4c-.46,4.217-2.968,7.087-6.813,7.964a5.972,5.972,0,0,1-3.17.066,7.4,7.4,0,0,1-3.094-2.973A10.524,10.524,0,0,1,13.1,65.055a5.118,5.118,0,0,1,1.751-1.19" fill="#e97000"/>
      <path id="Trazado_614261" data-name="Trazado 614261" d="M24.255,52.3q4.659,0,9.319,0c1.343,0,2.169.709,2.152,1.835a1.876,1.876,0,0,1-2.124,1.8q-9.318.006-18.637,0c-1.342,0-2.144-.706-2.134-1.852.011-1.106.8-1.779,2.1-1.78q4.66,0,9.319,0" fill="#f89124"/>
      <path id="Trazado_614262" data-name="Trazado 614262" d="M24.254,58.581c3.131,0,6.263-.005,9.394,0a1.931,1.931,0,0,1,1.972,1.2,1.782,1.782,0,0,1-1.676,2.424c-4.367.023-8.734.01-13.1.009a1,1,0,0,1-.4-.05,14.463,14.463,0,0,0-6.533-.942c-1.056.021-1.4-.56-.923-1.558a1.949,1.949,0,0,1,1.96-1.086q4.656.01,9.312,0" fill="#f38111"/>
      <path id="Trazado_614263" data-name="Trazado 614263" d="M14.852,63.865a12.209,12.209,0,0,0-3.28,3.512,10.265,10.265,0,0,0-.6,9.175,11.564,11.564,0,0,0,3.716,4.615c-3.037-.127-6.2-2.83-7.181-6.134A8.79,8.79,0,0,1,14.28,63.885a3.745,3.745,0,0,1,.572-.02" fill="#c15f07"/>
      <path id="Trazado_614264" data-name="Trazado 614264" d="M23.311,81.082a12.273,12.273,0,0,0,2.637-3.307c.139-.265.407-.236.655-.236,2.444,0,4.888-.01,7.332.01a1.655,1.655,0,0,1,1.726,1.442,1.716,1.716,0,0,1-1.322,2.058,2.8,2.8,0,0,1-.727.108q-4.984.011-9.968,0a2.046,2.046,0,0,1-.333-.077" fill="#9b4d0d"/>
      <path id="Trazado_614265" data-name="Trazado 614265" d="M24.308,64.89c3.3,0,6.407-.024,9.507.012a1.8,1.8,0,0,1,1.906,1.847A1.773,1.773,0,0,1,33.754,68.5c-2.226.011-4.452.006-6.68,0-.254,0-.546.1-.691-.272a12.97,12.97,0,0,0-2.075-3.34" fill="#e97000"/>
      <path id="Trazado_614266" data-name="Trazado 614266" d="M30.772,74.805c-1.015,0-2.03-.022-3.044.009-.534.017-.781-.125-.63-.695a8.018,8.018,0,0,0,.11-2.293c-.011-.4.072-.6.53-.594,2.084.021,4.168-.007,6.252.029a1.653,1.653,0,0,1,1.7,1.725,1.674,1.674,0,0,1-1.712,1.8c-1.068.038-2.139.009-3.208.009v.009" fill="#c15f07"/>
      <path id="Trazado_614267" data-name="Trazado 614267" d="M56.909,4.743l6.6,6.974H58.842c-1.933,0-1.933,0-1.933-1.964V4.743" fill="#e8e8e8"/>
      <path id="Trazado_614268" data-name="Trazado 614268" d="M38.336,65.855a2.287,2.287,0,0,0,1.719,0c.01,1.4.007,2.793.037,4.188.009.424-.117.594-.557.566a10.126,10.126,0,0,0-1.478,0c-.469.037-.589-.343-.8-.6-.23-.286.13-.423.246-.587a4.548,4.548,0,0,0,.83-3.565" fill="#f4f4f4"/>
      <path id="Trazado_614269" data-name="Trazado 614269" d="M3.593,71.46c-.217-.226-.867.4-.882-.348-.024-1.173.372-1.646,1.3-1.589.309.019.937-.376.917.388-.037,1.366-.211,1.549-1.331,1.549" fill="#bf5e08"/>
      <path id="Trazado_614270" data-name="Trazado 614270" d="M3.843,74.03c.273.056.73-.167.87.175a9.38,9.38,0,0,1,.38,1.668.187.187,0,0,1-.057.137,2.009,2.009,0,0,1-1.882-.378,4.482,4.482,0,0,1-.164-.464c-.342-1.121-.329-1.139.853-1.138" fill="#c15f07"/>
      <path id="Trazado_614271" data-name="Trazado 614271" d="M4.73,66.945a5.1,5.1,0,0,1,2.79-2.077c-.453.652-.864,1.341-1.375,1.946-.363.43-.928.061-1.415.131" fill="#bf5e08"/>
      <path id="Trazado_614272" data-name="Trazado 614272" d="M7.735,80.376a5.587,5.587,0,0,1-2.546-1.655c.9-.312,1.059-.266,1.558.393.322.426.658.842.988,1.262" fill="#b95b09"/>
      <path id="Trazado_614273" data-name="Trazado 614273" d="M36.375,41.179a4.267,4.267,0,0,1-3.159,4.479c-.338.118-.435.252-.409.564a2.362,2.362,0,0,1,0,.412,1.206,1.206,0,0,1-1.188,1.223,1.116,1.116,0,0,1-1.191-1.193c.036-.743-.268-.993-.921-1.115a3.943,3.943,0,0,1-1.613-.788,2.886,2.886,0,0,1-.837-.9,1.288,1.288,0,0,1,.312-1.7c.591-.448,1.031-.14,1.417.307a3.424,3.424,0,0,0,3.183,1.143,2.061,2.061,0,0,0,1.983-1.454,2.685,2.685,0,0,0-.823-2.915,7.943,7.943,0,0,0-1.906-.947c-.5-.211-1.02-.4-1.518-.624a3.892,3.892,0,0,1-2.472-4.14,3.686,3.686,0,0,1,2.724-3.524c.342-.111.5-.294.443-.66a2.148,2.148,0,0,1,0-.494,1.257,1.257,0,0,1,1.165-1.272,1.174,1.174,0,0,1,1.217,1.274c-.063.77.3.928.9,1a3.922,3.922,0,0,1,1.689.6A1.073,1.073,0,0,1,35.82,32a.992.992,0,0,1-1.517.443,4.533,4.533,0,0,0-3.34-.463,1.663,1.663,0,0,0-1.414,1.409,1.8,1.8,0,0,0,.864,1.977,19.22,19.22,0,0,0,2.644,1.115A4.618,4.618,0,0,1,36.2,39.794c.1.454.117.923.173,1.385" fill="#040506"/>
      <path id="Trazado_614274" data-name="Trazado 614274" d="M46.507,25.69q-4.99,0-9.98,0a3.65,3.65,0,0,1-.975-.105,1.213,1.213,0,0,1,.025-2.326,3.524,3.524,0,0,1,.894-.1q10.1-.008,20.208,0a3.416,3.416,0,0,1,.814.084,1.222,1.222,0,0,1-.026,2.373,4.017,4.017,0,0,1-.9.075q-5.031.007-10.062,0" fill="#070707"/>
      <path id="Trazado_614275" data-name="Trazado 614275" d="M38,19.484c-3.625,0-7.249.005-10.874,0a1.255,1.255,0,0,1-1.374-1.214A1.287,1.287,0,0,1,27.17,17c.054,0,.109,0,.164,0H48.753c1.01,0,1.581.468,1.57,1.266s-.571,1.218-1.612,1.219q-5.355,0-10.709,0" fill="#040506"/>
      <path id="Trazado_614276" data-name="Trazado 614276" d="M28.933,25.69c-.605,0-1.211.023-1.814-.007a1.308,1.308,0,0,1-1.365-1.254,1.29,1.29,0,0,1,1.352-1.265q1.854-.052,3.711,0c.9.022,1.4.522,1.377,1.3-.017.735-.5,1.174-1.364,1.232-.055,0-.11,0-.165,0H28.933" fill="#090807"/>
      <path id="Trazado_614277" data-name="Trazado 614277" d="M55.615,19.477c-.549,0-1.1.03-1.648-.007a1.158,1.158,0,0,1-1.154-1.164,1.179,1.179,0,0,1,1.112-1.289c1.125-.045,2.254-.045,3.378,0a1.168,1.168,0,0,1,1.106,1.288,1.142,1.142,0,0,1-1.146,1.164c-.547.039-1.1.008-1.648.008" fill="#050506"/>
      <path id="Trazado_614278" data-name="Trazado 614278" d="M59.075,44.593l-2.782-.012c-.441-.34-.629-.98-1.277-1.074a7.878,7.878,0,0,0-1.4-.048,1.091,1.091,0,0,1-1.138-.874,2.582,2.582,0,0,1-.149-.889c.111-1.589.024-3.181.063-4.771A1.882,1.882,0,0,1,53,35.37a2.636,2.636,0,0,1,1.215-.155q9.561,0,19.122,0c1.911,0,2.493.6,2.5,2.53.005,1.237.018,2.473-.006,3.709a2.013,2.013,0,0,1-2,2.173,9.849,9.849,0,0,1-1.153.033c-3.626,0-7.253.02-10.88-.012a2.966,2.966,0,0,0-2.727.945" fill="#2687cb"/>
      <path id="Trazado_614279" data-name="Trazado 614279" d="M55.275,43.364a1.383,1.383,0,0,1,1.017,1.217c-.266,1-.593,1.294-1.6,1.268a29.88,29.88,0,0,1-5.1-.138,3.979,3.979,0,0,1-3.232-3.839q-.059-2.513,0-5.027a4.045,4.045,0,0,1,3.6-3.864,10.027,10.027,0,0,1,1.148-.075Q62.274,32.9,73.443,32.9a4.407,4.407,0,0,1,3.982,1.868A3.64,3.64,0,0,1,78.1,36.6a30.282,30.282,0,0,1-.033,5.673,4.052,4.052,0,0,1-4.071,3.578c-4.451.03-8.9,0-13.353.016a1.469,1.469,0,0,1-1.565-1.269c.411-1.119.566-1.23,1.815-1.23q6.229,0,12.458,0c1.736,0,2.286-.539,2.291-2.245,0-1.32.024-2.641-.014-3.96a1.558,1.558,0,0,0-1.7-1.708q-10.4-.021-20.79,0a.775.775,0,0,0-.16.034c-.571.4-1.224.224-1.841.236-1.679.031-2.042.373-2.048,2.035,0,1.126-.007,2.252,0,3.378.01,1.385.529,1.957,1.924,2,1.423.044,2.835.24,4.26.234" fill="#040506"/>
      <path id="Trazado_614280" data-name="Trazado 614280" d="M78.272,69.067c0,2.034.006,4.069,0,6.1-.009,2.606-1.427,4.034-4.019,4.016a10.517,10.517,0,0,1-2.788-.136,3.53,3.53,0,0,1-2.647-3.372q-.024-6.639,0-13.278a3.183,3.183,0,0,1,2.672-3.182,13.4,13.4,0,0,1,3.861-.044,3.152,3.152,0,0,1,2.916,3.378c.027,2.171.007,4.343.007,6.515" fill="#040506"/>
      <path id="Trazado_614281" data-name="Trazado 614281" d="M66.984,74.478c0,.686.016,1.372,0,2.058a2.641,2.641,0,0,1-2.68,2.652c-1.371.023-2.744.02-4.115,0a2.536,2.536,0,0,1-2.648-2.4,35.9,35.9,0,0,1-.014-4.6,2.515,2.515,0,0,1,2.649-2.49c1.37-.057,2.746-.057,4.115,0a2.656,2.656,0,0,1,2.7,2.888c0,.631,0,1.262,0,1.893" fill="#040506"/>
      <path id="Trazado_614282" data-name="Trazado 614282" d="M62.144,68.627c-.631,0-1.262.01-1.894,0a2.606,2.606,0,0,1-2.733-2.5,38.8,38.8,0,0,1,0-4.524,2.567,2.567,0,0,1,2.67-2.48c1.344-.045,2.691-.05,4.033,0a2.665,2.665,0,0,1,2.759,2.913c.008,1.262.011,2.524,0,3.786A2.673,2.673,0,0,1,64.2,68.625c-.686.012-1.372,0-2.057,0" fill="#040506"/>
      <path id="Trazado_614283" data-name="Trazado 614283" d="M50.158,79.223l-1.149-.029a2.6,2.6,0,0,1-2.664-2.638c-.026-1.479-.014-2.96-.018-4.439A2.6,2.6,0,0,1,48.98,69.7c1.4-.058,2.8-.067,4.2,0a2.565,2.565,0,0,1,2.6,2.79c.008,1.346.012,2.691,0,4.037a2.608,2.608,0,0,1-2.652,2.659c-.988.023-1.976.022-2.964.032" fill="#040506"/>
      <path id="Trazado_614284" data-name="Trazado 614284" d="M46.342,63.839c0-.658-.01-1.317,0-1.976a2.594,2.594,0,0,1,2.649-2.741c1.37-.054,2.745-.051,4.115,0a2.6,2.6,0,0,1,2.67,2.806c.006,1.345.01,2.69,0,4.034a2.587,2.587,0,0,1-2.567,2.653c-1.426.043-2.855.039-4.28,0a2.59,2.59,0,0,1-2.581-2.638c-.017-.713,0-1.427,0-2.14" fill="#040506"/>
      <path id="Trazado_614285" data-name="Trazado 614285" d="M62.257,48.02c.687,0,1.375-.01,2.062,0a2.623,2.623,0,0,1,2.657,2.589q.051,2.144,0,4.289a2.532,2.532,0,0,1-2.5,2.554c-1.427.063-2.859.055-4.288.023a2.555,2.555,0,0,1-2.694-2.62c-.059-1.4-.062-2.806,0-4.206a2.616,2.616,0,0,1,2.86-2.631c.632,0,1.265,0,1.9,0" fill="#040506"/>
      <path id="Trazado_614286" data-name="Trazado 614286" d="M46.345,52.727c0-.715-.018-1.43,0-2.144a2.567,2.567,0,0,1,2.572-2.558q2.143-.033,4.289,0A2.571,2.571,0,0,1,55.772,50.6c.018,1.457.02,2.915,0,4.372a2.439,2.439,0,0,1-2.289,2.466c-1.618.073-3.244.072-4.862,0a2.416,2.416,0,0,1-2.264-2.4c-.029-.768-.005-1.539-.005-2.309h0" fill="#040506"/>
      <path id="Trazado_614287" data-name="Trazado 614287" d="M78.245,52.757c0,.8.045,1.6-.01,2.39a2.394,2.394,0,0,1-2.281,2.29c-1.618.067-3.244.068-4.862-.006a2.472,2.472,0,0,1-2.271-2.41c-.036-1.511-.04-3.025,0-4.536a2.577,2.577,0,0,1,2.517-2.458c1.457-.03,2.915-.026,4.372,0a2.542,2.542,0,0,1,2.534,2.422c.048.767.009,1.539.009,2.309h-.009" fill="#040506"/>
      <path id="Trazado_614288" data-name="Trazado 614288" d="M14.083,74.359a1.125,1.125,0,0,1,.8.467,1.524,1.524,0,0,0,1.08.534c.432.018.914.018,1.06-.545a.955.955,0,0,0-.449-1.2c-.435-.225-.9-.387-1.358-.578A3.008,3.008,0,0,1,13.031,70.6a2.889,2.889,0,0,1,1.562-3.236c.294-.148.266-.379.327-.6a1.267,1.267,0,0,1,1.22-1.044,1.173,1.173,0,0,1,1.227.9.793.793,0,0,0,.679.59,1.662,1.662,0,0,1,1.208.91,1.205,1.205,0,0,1-.215,1.311,1.1,1.1,0,0,1-1.347.307,3.029,3.029,0,0,0-1.593-.3c-.252.031-.5.068-.575.366a.563.563,0,0,0,.323.685,12.8,12.8,0,0,0,1.272.571,3.334,3.334,0,0,1,2.471,3.063A3.177,3.177,0,0,1,17.742,77.5c-.3.137-.277.381-.354.594a1.239,1.239,0,0,1-1.227.919,1.15,1.15,0,0,1-1.166-.872,1.015,1.015,0,0,0-.691-.71,2.311,2.311,0,0,1-1.482-1.438,1.282,1.282,0,0,1,1.261-1.632" fill="#050506"/>
      <path id="Trazado_614289" data-name="Trazado 614289" d="M55.275,43.364c-1.478,0-2.956.007-4.434-.009a1.757,1.757,0,0,1-2.006-2.009c0-1.369-.009-2.737,0-4.106A1.615,1.615,0,0,1,50.6,35.447c.792-.016,1.584.02,2.377.033a5.646,5.646,0,0,0-.349,2.641c-.04,1.2.051,2.394-.08,3.6-.118,1.078.373,1.491,1.45,1.516.424.009.875-.143,1.275.13" fill="#006eb8"/>
      <path id="Trazado_614290" data-name="Trazado 614290" d="M71.424,62.145c.077-.428.407-.47.747-.473.9-.007,1.808,0,2.712,0,.562,0,.875.246.873.835q-.018,6.121-.033,12.244a1.085,1.085,0,0,1-.861.412c-.877.037-1.754.042-2.63,0-.528-.026-.871-.231-.869-.851.016-4-.006-8,.016-12.006a.577.577,0,0,1,.045-.158" fill="#f38111"/>
      <path id="Trazado_614291" data-name="Trazado 614291" d="M71.424,62.145q.012,5.835.025,11.669c0,1.1,0,1.122,1.093,1.092a11.7,11.7,0,0,0,3.181-.158c.105,1.669-.146,1.941-1.789,1.942-2.641,0-2.643,0-2.644-2.645q0-5.516,0-11.031c0-.291-.1-.608.129-.869" fill="#e87000"/>
      <path id="Trazado_614292" data-name="Trazado 614292" d="M60.067,74.912c-.014-.845-.355-1.906.119-2.472.461-.55,1.547-.142,2.357-.178.6-.027,1.2.021,1.805.036a12.19,12.19,0,0,1,.078,2.362.368.368,0,0,1-.325.414,9.087,9.087,0,0,1-4.034-.162" fill="#336d34"/>
      <path id="Trazado_614293" data-name="Trazado 614293" d="M60.067,74.912c1.2,0,2.411-.016,3.616.009.487.01.7-.136.673-.651-.034-.656-.008-1.315-.008-1.972a17.989,17.989,0,0,1,.114,4.05c.006.368-.352.353-.629.353-1.041,0-2.082-.014-3.122.011-.485.012-.719-.134-.672-.651.035-.381.021-.766.028-1.149" fill="#2c612f"/>
      <path id="Trazado_614294" data-name="Trazado 614294" d="M60.067,64.352c-.014-.846-.354-1.906.118-2.474s1.547-.144,2.357-.181c.6-.027,1.2.021,1.806.036a12.221,12.221,0,0,1,.078,2.365.369.369,0,0,1-.322.416,9.071,9.071,0,0,1-4.037-.162" fill="#336d35"/>
      <path id="Trazado_614295" data-name="Trazado 614295" d="M60.067,64.352c1.206,0,2.413-.016,3.618.009.491.011.7-.141.672-.654-.034-.657-.008-1.316-.009-1.974a17.589,17.589,0,0,1,.12,4.05c.009.317-.291.351-.55.351-1.123,0-2.246-.009-3.368,0-.408,0-.525-.19-.508-.556.02-.41.018-.821.025-1.231" fill="#2c612f"/>
      <path id="Trazado_614296" data-name="Trazado 614296" d="M48.862,74.909c-.018-.842-.35-1.895.111-2.464s1.535-.169,2.339-.181c1.992-.03,1.993-.01,1.986,1.991,0,.218-.015.436-.023.654a.818.818,0,0,1-.585.242q-1.621.064-3.242,0a.825.825,0,0,1-.586-.242" fill="#336e35"/>
      <path id="Trazado_614297" data-name="Trazado 614297" d="M48.862,74.909h4.413c.077,2.223.066,1.745-1.684,1.789-.631.016-1.266-.036-1.893.015-.705.059-.947-.231-.866-.9.037-.3.022-.6.03-.9" fill="#2c612f"/>
      <path id="Trazado_614298" data-name="Trazado 614298" d="M48.863,64.349c.014-.863-.384-1.956.161-2.518.472-.488,1.557-.129,2.371-.137,1.907-.018,1.908-.005,1.9,1.918,0,.245-.016.491-.024.736a.8.8,0,0,1-.584.243q-1.62.064-3.24,0a.822.822,0,0,1-.585-.242" fill="#336e35"/>
      <path id="Trazado_614299" data-name="Trazado 614299" d="M48.863,64.349h4.409c.066,2.193.172,1.738-1.668,1.785-.632.016-1.268-.036-1.9.013-.691.054-.962-.208-.875-.892.039-.3.022-.6.031-.9" fill="#2c612f"/>
      <path id="Trazado_614300" data-name="Trazado 614300" d="M60.071,53.3c-.009-.741-.022-1.482-.026-2.222,0-.243-.033-.563.322-.551a23.09,23.09,0,0,1,4,.113,15.44,15.44,0,0,1,.067,2.355c.012.253-.11.461-.349.475a9.04,9.04,0,0,1-4.01-.17" fill="#336d34"/>
      <path id="Trazado_614301" data-name="Trazado 614301" d="M60.071,53.3c1.2,0,2.4-.022,3.594.011.545.015.719-.184.693-.71-.032-.652,0-1.307,0-1.96a19.851,19.851,0,0,1,.114,3.982c.012.412-.356.335-.615.337-.985.007-1.972-.037-2.954.017-.674.037-.971-.161-.868-.858a6.975,6.975,0,0,0,.031-.819" fill="#2d622f"/>
      <path id="Trazado_614302" data-name="Trazado 614302" d="M48.866,53.293c-.009-.736-.006-1.473-.034-2.209-.015-.409.112-.594.554-.585q1.678.033,3.357,0c.436-.007.574.171.559.584-.027.736-.024,1.473-.033,2.209a.9.9,0,0,1-.677.251q-1.524.045-3.048,0a.92.92,0,0,1-.678-.251" fill="#336d35"/>
      <path id="Trazado_614303" data-name="Trazado 614303" d="M48.866,53.293h4.4c.091,1.666.091,1.666-1.549,1.666-.707,0-1.418-.039-2.121.012-.621.046-.848-.174-.766-.781a8.9,8.9,0,0,0,.033-.9" fill="#2d622f"/>
      <path id="Trazado_614304" data-name="Trazado 614304" d="M75.711,50.657a17.9,17.9,0,0,1,.012,2.64.863.863,0,0,1-.6.244c-1.015.045-2.031.042-3.046,0-.486-.018-.755-.222-.72-.769.037-.574.015-1.152.006-1.729,0-.293.071-.479.408-.468,1.312.044,2.627-.1,3.937.079" fill="#f38111"/>
      <path id="Trazado_614305" data-name="Trazado 614305" d="M75.711,50.657c-1.179,0-2.358.019-3.536-.007-.5-.011-.73.1-.741.674-.037,1.973-.06,1.973,1.9,1.973h2.385c.105,1.67.105,1.67-1.534,1.67-.767,0-1.534-.013-2.3.005-.389.009-.607-.063-.6-.531.024-1.123,0-2.246,0-3.369,0-.237-.046-.573.311-.558a19.273,19.273,0,0,1,4.109.143" fill="#e97000"/>
    </g>
  </g>
</svg>
