<svg id="Grupo_876413" data-name="Grupo 876413" xmlns="http://www.w3.org/2000/svg" xmlns:xlink="http://www.w3.org/1999/xlink" width="89.195" height="89.269" viewBox="0 0 89.195 89.269">
  <defs>
    <clipPath id="clip-path">
      <rect id="Rectángulo_324978" data-name="Rectángulo 324978" width="89.195" height="89.269" transform="translate(0 0)" fill="none"/>
    </clipPath>
  </defs>
  <g id="Grupo_876412" data-name="Grupo 876412" clip-path="url(#clip-path)">
    <path id="Trazado_614306" data-name="Trazado 614306" d="M0,58.768a5.2,5.2,0,0,0,.387-1.544,10.566,10.566,0,0,1,2.771-4.741C5.114,50.536,7.07,48.59,9,46.622c.359-.366.544-.413.938-.014q4.837,4.9,9.736,9.734c.467.46.364.684-.041,1.079-1.623,1.58-3.216,3.192-4.815,4.8-1.021,1.023-1.03,1.658-.037,2.66,1.486,1.5,2.978,3,4.485,4.51a2.94,2.94,0,0,0,.458-1.1,10.292,10.292,0,0,1,8.745-7.429c2.74-.446,5.467-.976,8.194-1.5.215-.041.627.127.644-.375a.711.711,0,0,0-.4-.691,14.089,14.089,0,0,1-6.42-9.022c-.079-.344-.3-.429-.585-.535A5.732,5.732,0,0,1,25.8,42.868c0-3.427-.017-6.855.006-10.283C25.86,23.894,32.852,16,41.446,14.648A18.8,18.8,0,0,1,62.814,29.153a17.44,17.44,0,0,1,.437,3.618q.012,8.757,0,17.515a4.264,4.264,0,0,1-4.449,4.434c-1.794-.071-3.3.113-4.4,1.773a6.4,6.4,0,0,1-2.237,1.771.714.714,0,0,0-.425.761c.044.438.393.275.6.314,3.011.576,6.032,1.095,9.037,1.7a9.708,9.708,0,0,1,7.655,6.579c1.139,3.176,2.163,6.393,3.234,9.594a3.88,3.88,0,0,1,.1.556H41.634l2.222,2.1c-2.758,2.508-5.349,4.924-8.011,7.26A8.42,8.42,0,0,1,31.3,89.117c-.115.015-.229.021-.279.152H28.061a9.784,9.784,0,0,1-6.247-3.263q-9.3-9.237-18.538-18.53A10.28,10.28,0,0,1,0,60.859v-.871a.4.4,0,0,0,0-.523Z" fill="#040506"/>
    <path id="Trazado_614307" data-name="Trazado 614307" d="M0,59.465c.248.174.246.349,0,.523Z" fill="#747177"/>
    <path id="Trazado_614308" data-name="Trazado 614308" d="M67.008,28.854c.5-2.938.975-5.746,1.464-8.628-1.194,0-2.351,0-3.508,0A4.405,4.405,0,0,1,60.317,15.6c-.007-3.657.037-7.316-.015-10.973A4.537,4.537,0,0,1,64.957,0c6.531.091,13.063.03,19.6.032a4.318,4.318,0,0,1,4.616,4.536q.054,5.53,0,11.06a4.267,4.267,0,0,1-4.683,4.551,10.2,10.2,0,0,0-6.77,1.98c-3.216,2.208-6.595,4.179-9.907,6.248-.215.134-.442.247-.8.446" fill="#040506"/>
    <path id="Trazado_614309" data-name="Trazado 614309" d="M8.37,35.558l3.748-2.235c.433.715.835,1.418,1.278,2.094.217.332.116.477-.185.657q-3.8,2.27-7.588,4.564c-.33.2-.517.209-.743-.175Q2.633,36.648.327,32.869c-.24-.394-.121-.544.216-.729A15.671,15.671,0,0,0,2.106,31.2c.4-.282.569-.154.784.215.75,1.292,1.531,2.567,2.4,4.01a38.247,38.247,0,0,1,2.634-7.636C13.877,15.534,23.488,7.885,36.854,5.1a39,39,0,0,1,18.915.818c.585.168.777.35.511.913-.315.667-.193,1.735-.826,1.979-.54.209-1.353-.323-2.054-.491A37.388,37.388,0,0,0,8.373,35.145a2.243,2.243,0,0,0,0,.413" fill="#040506"/>
    <path id="Trazado_614310" data-name="Trazado 614310" d="M79.935,32.613c-.768,1.272-1.5,2.446-2.187,3.647-.246.431-.446.5-.858.21-.61-.43-1.648-.7-1.787-1.227s.612-1.277.993-1.918c1.182-1.989,2.386-3.964,3.553-5.962.262-.45.446-.518.916-.228,2.437,1.5,4.9,2.97,7.361,4.425.408.241.544.425.239.854-.432.611-.69,1.607-1.243,1.8s-1.264-.615-1.907-.983c-.718-.411-1.423-.844-2.23-1.324A46.349,46.349,0,0,1,84.4,38.817a39.86,39.86,0,0,1-.015,11.695A40.346,40.346,0,0,1,77,68.536c-1.124,1.552-1.089,1.51-2.62.372-.739-.549-.687-.883-.158-1.581a37.074,37.074,0,0,0,7.574-19.975,37.978,37.978,0,0,0-1.86-14.739" fill="#040506"/>
    <path id="Trazado_614311" data-name="Trazado 614311" d="M58.9,35.993a17.437,17.437,0,0,1-8.05-1.43,16.676,16.676,0,0,1-4.681-3.269c-.534-.531-1.068-1.446-1.624-1.462-.529-.016-1.1.9-1.629,1.426a16.142,16.142,0,0,1-7.37,4.24,16.944,16.944,0,0,1-4.741.475c-.444-.012-.682.058-.689.6-.013,1.154-.047,1.153-1.382,1.508.037-3.908-.346-7.816,1.393-11.543,3.912-8.385,14.391-11.809,22.135-7.15a2.354,2.354,0,0,1,.2.157c4.6,3.527,6.654,8.281,6.666,13.988a4.216,4.216,0,0,1-.232,2.46" fill="#cc8e56"/>
    <path id="Trazado_614312" data-name="Trazado 614312" d="M63.967,74.8c-1.218.014-2.436.039-3.653.04-6.908,0-13.817-.009-20.725.018a2.073,2.073,0,0,1-1.657-.7c-1.447-1.508-2.958-2.953-4.414-4.452-.364-.374-.56-.392-.956-.022-1.826,1.7-3.69,3.36-5.541,5.034a1.533,1.533,0,0,1-2.486-.066c-.826-.816-1.625-1.66-2.473-2.453a.815.815,0,0,1-.257-.981c.315-.9.586-1.811.924-2.7,1.155-3.036,3.512-4.416,6.606-4.884,2.743-.415,5.469-.949,8.194-1.474a1.178,1.178,0,0,1,1.224.353c1.727,1.762,3.5,3.483,5.215,5.251.424.436.656.444,1.085,0,1.655-1.71,3.368-3.364,5.027-5.07a1.417,1.417,0,0,1,1.586-.5c.941.263,1.94.3,2.882.6a40.977,40.977,0,0,1,6.991,3.843,5.422,5.422,0,0,1,2.194,3.73c.216,1.226.27,2.474.438,3.708a.86.86,0,0,1-.2.731" fill="#8dc6ab"/>
    <path id="Trazado_614313" data-name="Trazado 614313" d="M53.33,51.777c-2.669.013-5.338.054-8.007.019-.718-.01-.861.223-.852.884.029,2.068,0,2.068,2.081,2.068h5.435a10.661,10.661,0,0,1-4.548,2.45A11.459,11.459,0,0,1,33.175,48,40.331,40.331,0,0,1,33,41.392c-.01-.81-.245-1.8.128-2.38s1.45-.3,2.209-.471a18.741,18.741,0,0,0,8.6-4.3c.407-.361.635-.485,1.116-.054a17.944,17.944,0,0,0,9.006,4.387,3.958,3.958,0,0,1,.5.155,1.464,1.464,0,0,1,.26,1.066c.005,2.425.027,4.851-.008,7.276a11.856,11.856,0,0,1-.957,4.025,1.5,1.5,0,0,1-.519.677" fill="#fdd894"/>
    <path id="Trazado_614314" data-name="Trazado 614314" d="M29.713,86.347a6.827,6.827,0,0,1-5.094-2.017Q14.833,74.59,5.093,64.8A7.209,7.209,0,0,1,5.531,54.2c.293-.263.43-.239.681.015q2.945,2.969,5.913,5.913c.266.263.237.416.022.713a4.233,4.233,0,0,0,.452,5.952q4.976,5,9.979,9.978a4.22,4.22,0,0,0,5.944.455c.358-.267.516-.182.775.079q2.886,2.905,5.791,5.79c.237.236.453.4.093.761a7.33,7.33,0,0,1-5.468,2.493" fill="#e24257"/>
    <path id="Trazado_614315" data-name="Trazado 614315" d="M63.967,74.8c-.132-1.408-.208-2.823-.408-4.221-.354-2.477-1.974-3.937-4.1-5.022-1.672-.855-3.277-1.841-4.912-2.769a51.989,51.989,0,0,1,7.305,1.385,6.541,6.541,0,0,1,4.36,4.168c.729,1.942,1.313,3.939,2,5.9.171.49.07.612-.42.6-1.274-.028-2.549-.028-3.824-.039" fill="#50ab82"/>
    <path id="Trazado_614316" data-name="Trazado 614316" d="M32.933,73.3c.186.163.32.267.44.386,1.908,1.906,3.807,3.823,5.73,5.714.366.359.326.549-.025.889-1.359,1.318-1.347,1.332-2.662.017-1.621-1.62-3.229-3.254-4.87-4.853-.383-.374-.432-.6.012-.941.477-.365.905-.793,1.375-1.212" fill="#e24257"/>
    <path id="Trazado_614317" data-name="Trazado 614317" d="M58.9,35.993a23.54,23.54,0,0,0-.69-7.739,18.029,18.029,0,0,0-3.576-6.488,25.513,25.513,0,0,1-2.168-2.221A14.809,14.809,0,0,1,58.9,26.6a15.008,15.008,0,0,1,1.415,6.656c-.021,1.594,0,3.189,0,4.791-1.374-.273-1.374-.273-1.418-2.058" fill="#a56534"/>
    <path id="Trazado_614318" data-name="Trazado 614318" d="M9.182,50.4a.656.656,0,0,1,.674.248c1.953,1.947,3.9,3.9,5.859,5.841.31.306.265.466-.014.761-1.135,1.2-1.123,1.212-2.28.055C11.8,55.687,10.2,54.042,8.544,52.457c-.517-.495-.6-.8-.009-1.269a3.9,3.9,0,0,0,.647-.785" fill="#e24256"/>
    <path id="Trazado_614319" data-name="Trazado 614319" d="M53.33,51.777a16.029,16.029,0,0,0,1.242-7.33c-.084-1.9-.018-3.809-.018-5.714.144,0,.288,0,.432-.006.817-.052,1.056.312,1.032,1.131-.066,2.252-.029,4.508-.042,6.762a11.889,11.889,0,0,1-.965,4.185c-.322.841-.808,1.188-1.681.972" fill="#e7ae77"/>
    <path id="Trazado_614320" data-name="Trazado 614320" d="M40.336,59.873a14.466,14.466,0,0,0,7.988.11L44.4,63.924l-4.063-4.051" fill="#fdd894"/>
    <path id="Trazado_614321" data-name="Trazado 614321" d="M60.279,48.229c.164,3.341-.127,3.746-2.454,3.522.22-.894.515-1.767.8-2.624.2-.595,1.072-.485,1.651-.9" fill="#fefefe"/>
    <path id="Trazado_614322" data-name="Trazado 614322" d="M30.084,45.589c-1.971-1.1-1.63-4.071,0-4.72Z" fill="#f7d391"/>
    <path id="Trazado_614323" data-name="Trazado 614323" d="M58.91,40.843a2.758,2.758,0,0,1,0,4.785V40.843Z" fill="#fcd793"/>
    <path id="Trazado_614324" data-name="Trazado 614324" d="M70.963,23c.338-2,.644-3.822.962-5.708-2.317,0-4.577,0-6.837,0-1.369,0-1.834-.455-1.835-1.8q0-5.4,0-10.794c0-1.272.457-1.75,1.712-1.752q9.794-.01,19.587,0c1.189,0,1.705.517,1.708,1.693q.015,5.484,0,10.969c0,1.152-.561,1.676-1.722,1.689a.632.632,0,0,1-.087,0,10.436,10.436,0,0,0-8.135,2.319c-1.626,1.234-3.454,2.2-5.353,3.39" fill="#e7e8e9"/>
    <path id="Trazado_614325" data-name="Trazado 614325" d="M74.675,8.691c-2.609,0-5.219-.017-7.828.013-.6.007-.788-.151-.784-.77.011-2.15-.014-2.15,2.149-2.15,4.784,0,9.568.011,14.352-.014.615,0,.84.1.828.786-.037,2.134,0,2.135-2.106,2.135H74.675" fill="#050607"/>
    <path id="Trazado_614326" data-name="Trazado 614326" d="M71.881,14.452c-1.71,0-3.42-.019-5.128.011-.532.009-.683-.151-.689-.685-.028-2.24-.047-2.24,2.143-2.24,2.9,0,5.794.014,8.691-.013.553,0,.729.122.727.706,0,2.221.021,2.221-2.182,2.221H71.881" fill="#060607"/>
    <path id="Trazado_614327" data-name="Trazado 614327" d="M80.507,12.963c0-1.426,0-1.426,1.448-1.426,1.417,0,1.417,0,1.417,1.378,0,1.537,0,1.537-1.546,1.537-1.319,0-1.319,0-1.319-1.489" fill="#070708"/>
  </g>
</svg>
