<svg xmlns="http://www.w3.org/2000/svg" xmlns:xlink="http://www.w3.org/1999/xlink" width="397.895" height="46.881" viewBox="0 0 397.895 46.881">
  <defs>
    <clipPath id="clip-path">
      <rect id="Rect치ngulo_324994" data-name="Rect치ngulo 324994" width="52.218" height="46.881" fill="none"/>
    </clipPath>
  </defs>
  <g id="Grupo_876333" data-name="Grupo 876333" transform="translate(-180 -3159)">
    <rect id="Rect치ngulo_324910" data-name="Rect치ngulo 324910" width="366" height="40" transform="translate(180 3159)" fill="#a3314f"/>
    <g id="Grupo_876474" data-name="Grupo 876474" transform="translate(572 3156)">
      <g id="Grupo_876473" data-name="Grupo 876473" transform="translate(-46.322 3)" clip-path="url(#clip-path)">
        <path id="Trazado_614714" data-name="Trazado 614714" d="M26.11,0H47.96a4.017,4.017,0,0,1,4.256,4.274q0,16.08,0,32.16a4.046,4.046,0,0,1-4.267,4.281q-7.36,0-14.721-.008c-.408,0-.556.069-.54.517.038,1.075.026,2.154.008,3.231a2.191,2.191,0,0,1-1.793,2.391,2.541,2.541,0,0,1-1.975-.53q-1.255-.928-2.459-1.927a.483.483,0,0,0-.755.013c-.69.586-1.408,1.139-2.124,1.693a2.818,2.818,0,0,1-2.413.721,2.149,2.149,0,0,1-1.668-2.227c-.019-1.146-.021-2.291,0-3.436.008-.367-.1-.445-.453-.444q-7.437.018-14.874.007A4.025,4.025,0,0,1,.059,37.389,3.916,3.916,0,0,1,0,36.625Q0,20.365,0,4.106A3.976,3.976,0,0,1,4.106,0q11,0,22,0" transform="translate(0 0)" fill="#111325"/>
        <path id="Trazado_614715" data-name="Trazado 614715" d="M29.394,7.6H43.346c1.356,0,1.839.479,1.87,1.847a3,3,0,0,0,3.163,3.311c.188.013.376.022.563.041a1.475,1.475,0,0,1,1.49,1.506c.008.1.007.205.007.308q0,9,0,18a3.119,3.119,0,0,1-.03.511,1.446,1.446,0,0,1-1.487,1.342,8.827,8.827,0,0,0-1.121.085,2.824,2.824,0,0,0-2.559,2.962c-.007,1.627-.532,2.195-2.276,2.15-2.17-.056-4.342-.026-6.514,0-.438,0-.529-.134-.531-.547a5.624,5.624,0,0,1,.388-2.078,7.123,7.123,0,0,0-1.334-7.691,7.063,7.063,0,0,0-7.56-2.282,7.188,7.188,0,0,0-5.388,5.719,7.092,7.092,0,0,0,.576,4.736,5.054,5.054,0,0,1,.164,1.965c.016.212-.176.166-.3.166-2.479,0-4.958.015-7.437-.013a1.418,1.418,0,0,1-1.5-1.573,5.828,5.828,0,0,0-.149-1.32,2.9,2.9,0,0,0-2.924-2.256c-1.885-.108-2.162-.4-2.162-2.293q0-8.745,0-17.491A2.578,2.578,0,0,1,8.4,13.74a1.324,1.324,0,0,1,1.129-.915c.441-.05.89-.046,1.328-.117a2.935,2.935,0,0,0,2.649-3.069c.007-.12.005-.24.008-.359A1.5,1.5,0,0,1,15.237,7.6c1.778-.006,3.557,0,5.335,0h8.822" transform="translate(-3.259 -2.986)" fill="#ced5ee"/>
        <path id="Trazado_614716" data-name="Trazado 614716" d="M26.671,1.353H48.524a3.19,3.19,0,0,1,3.4,3.388q0,16.133,0,32.266a3.224,3.224,0,0,1-3.39,3.424c-4.942.006-9.883,0-14.825.012-.438,0-.564-.133-.535-.551a11.565,11.565,0,0,0,0-1.436c-.021-.365.114-.464.47-.462,2.291.014,4.582.01,6.873,0a4.589,4.589,0,0,0,1.019-.067A2.228,2.228,0,0,0,43.3,35.6a7.008,7.008,0,0,1,.045-.87,2.1,2.1,0,0,1,2.093-1.878c.153-.012.307-.012.461-.017,1.8-.059,2.624-.916,2.627-2.735q.005-3.693,0-7.387,0-5.232,0-10.465a3.32,3.32,0,0,0-.282-1.494,2.038,2.038,0,0,0-1.817-1.211c-.392-.025-.785-.049-1.174-.1A2.091,2.091,0,0,1,43.32,7.367a9.313,9.313,0,0,0-.082-1.123,2.222,2.222,0,0,0-2.186-1.919c-.069,0-.137,0-.205,0q-14.209,0-28.419,0A2.279,2.279,0,0,0,9.972,6.743a4.808,4.808,0,0,1-.083.966A2.013,2.013,0,0,1,8.071,9.444,4.983,4.983,0,0,1,7.1,9.53a2.245,2.245,0,0,0-2.356,2.452c-.015.7,0,1.4,0,2.1q0,8,0,16A3.862,3.862,0,0,0,4.9,31.3a2.209,2.209,0,0,0,2.195,1.527,8.73,8.73,0,0,1,.921.048,2.142,2.142,0,0,1,1.955,2.3,5.247,5.247,0,0,0,.085,1.069,2.119,2.119,0,0,0,2.112,1.739q3.667.035,7.335.007c.464,0,.6.128.558.573a7.525,7.525,0,0,0,0,1.281c.038.451-.083.6-.576.6-4.873-.021-9.746-.013-14.619-.012a5.1,5.1,0,0,1-.916-.084,3.129,3.129,0,0,1-2.589-3.056q-.006-16.415,0-32.83A3.151,3.151,0,0,1,4.563,1.354q11.054,0,22.109,0" transform="translate(-0.532 -0.532)" fill="#247dc3"/>
        <path id="Trazado_614717" data-name="Trazado 614717" d="M45.348,47.247a6.673,6.673,0,1,1-6.666-6.671,6.644,6.644,0,0,1,6.666,6.671" transform="translate(-12.583 -15.954)" fill="#ffb448"/>
        <path id="Trazado_614718" data-name="Trazado 614718" d="M45.008,64.728c.007,1.757.032,3.514.015,5.271-.012,1.289-.982,1.843-2.143,1.237a13.571,13.571,0,0,1-1.8-1.346c-.462-.35-.922-.7-1.364-1.078a.583.583,0,0,0-.858.011c-.862.7-1.738,1.376-2.608,2.063a2.578,2.578,0,0,1-1.134.554A1.211,1.211,0,0,1,33.6,70.287c-.089-1.262-.016-2.526-.037-3.79-.008-.478.015-.958-.007-1.436-.017-.367.138-.421.428-.293.437.194.84.455,1.285.638a10.053,10.053,0,0,0,8.859-.39c.272-.141.512-.43.881-.289" transform="translate(-13.193 -25.435)" fill="#e23e47"/>
        <path id="Trazado_614719" data-name="Trazado 614719" d="M44.992,62.729a16.9,16.9,0,0,1-2.633,1.2,10.342,10.342,0,0,1-7.125-.364,12.777,12.777,0,0,0-1.651-.787v5.509a.763.763,0,0,1-.068-.448q0-3.947.005-7.893c0-.079.009-.157.019-.34a7.573,7.573,0,0,0,11.452.009Z" transform="translate(-13.177 -23.437)" fill="#cf224a"/>
        <path id="Trazado_614720" data-name="Trazado 614720" d="M39.568,32.266H28.185c-.1,0-.205,0-.308,0-.293.006-.523-.09-.513-.422s.251-.41.539-.4c.069,0,.137,0,.205,0H51.08c.068,0,.137,0,.205,0,.289-.015.53.067.538.4s-.215.433-.513.424c-.12,0-.239,0-.359,0H39.568" transform="translate(-10.759 -12.363)" fill="#111325"/>
        <path id="Trazado_614721" data-name="Trazado 614721" d="M29.943,25.84H18.971a2.1,2.1,0,0,1-.459-.021.369.369,0,0,1-.3-.367.376.376,0,0,1,.306-.413,2.064,2.064,0,0,1,.459-.019H40.971a2.48,2.48,0,0,1,.409.01.4.4,0,0,1-.006.8,2.354,2.354,0,0,1-.409.01H29.943" transform="translate(-7.16 -9.836)" fill="#111325"/>
        <path id="Trazado_614722" data-name="Trazado 614722" d="M38.954,18.933h6.2a2.3,2.3,0,0,1,.41.011.4.4,0,0,1,.018.793,1.662,1.662,0,0,1-.408.016H32.719a3.211,3.211,0,0,1-.359-.005.391.391,0,0,1-.39-.4.386.386,0,0,1,.372-.411,2.969,2.969,0,0,1,.41-.008h6.2" transform="translate(-12.57 -7.443)" fill="#111325"/>
        <path id="Trazado_614723" data-name="Trazado 614723" d="M62.955,25.841c-.513,0-1.026,0-1.538,0-.3,0-.525-.11-.517-.427.008-.28.217-.4.5-.4q1.564.005,3.128,0c.279,0,.482.1.485.4,0,.328-.221.425-.517.422-.512,0-1.025,0-1.538,0" transform="translate(-23.945 -9.837)" fill="#111325"/>
        <path id="Trazado_614724" data-name="Trazado 614724" d="M20.044,31.447h1.278c.287,0,.462.146.452.431a.39.39,0,0,1-.445.388c-.886,0-1.772,0-2.658,0-.283,0-.464-.139-.453-.431.01-.265.188-.387.445-.388.46,0,.92,0,1.38,0" transform="translate(-7.163 -12.364)" fill="#111325"/>
        <path id="Trazado_614725" data-name="Trazado 614725" d="M56.208,12.783c-.16-.047-.428.1-.4-.234.027-.3.276-.176.434-.186s.41-.087.385.229-.289.117-.422.19" transform="translate(-21.943 -4.854)" fill="#191c33"/>
        <path id="Trazado_614726" data-name="Trazado 614726" d="M59.6,12.793c-.166-.06-.406.089-.41-.2,0-.353.275-.212.445-.227s.408-.07.376.24c-.034.329-.309.075-.411.189" transform="translate(-23.273 -4.855)" fill="#191c33"/>
        <path id="Trazado_614727" data-name="Trazado 614727" d="M62.959,12.35c.16.056.414-.11.434.208.021.334-.243.215-.393.211s-.407.135-.428-.178.239-.194.387-.24" transform="translate(-24.602 -4.856)" fill="#191c33"/>
        <path id="Trazado_614728" data-name="Trazado 614728" d="M66.376,12.782c-.138-.067-.4.123-.421-.2s.234-.232.4-.223.4-.124.425.191c.022.339-.245.177-.4.228" transform="translate(-25.932 -4.853)" fill="#191c33"/>
        <path id="Trazado_614729" data-name="Trazado 614729" d="M49.44,12.349c.184.042.439-.09.426.233s-.271.181-.419.185-.413.127-.4-.2.278-.144.4-.214" transform="translate(-19.284 -4.855)" fill="#191c33"/>
        <path id="Trazado_614730" data-name="Trazado 614730" d="M46.068,12.784c-.149-.055-.419.11-.4-.223.015-.31.266-.192.424-.2s.41-.1.4.218-.277.135-.418.2" transform="translate(-17.955 -4.854)" fill="#191c33"/>
        <path id="Trazado_614731" data-name="Trazado 614731" d="M52.864,12.792c-.169-.071-.437.108-.436-.221s.254-.209.412-.208.405-.116.41.206c0,.346-.278.126-.385.223" transform="translate(-20.614 -4.853)" fill="#191c33"/>
        <path id="Trazado_614732" data-name="Trazado 614732" d="M42.72,12.792c-.169-.071-.437.108-.436-.221s.254-.209.412-.208.405-.116.41.206c0,.346-.278.126-.385.223" transform="translate(-16.625 -4.853)" fill="#191c33"/>
        <path id="Trazado_614733" data-name="Trazado 614733" d="M39.29,12.347c.169.055.425-.1.434.218s-.254.2-.4.2-.408.136-.42-.186.255-.173.388-.233" transform="translate(-15.295 -4.855)" fill="#191c33"/>
        <path id="Trazado_614734" data-name="Trazado 614734" d="M35.924,12.784c-.149-.055-.419.11-.4-.223.015-.31.266-.192.424-.2s.41-.1.4.218-.277.135-.418.2" transform="translate(-13.966 -4.854)" fill="#191c33"/>
        <path id="Trazado_614735" data-name="Trazado 614735" d="M32.56,12.791c-.182-.056-.451.093-.422-.24.026-.3.275-.178.433-.187s.407-.089.388.228c-.021.34-.3.086-.4.2" transform="translate(-12.636 -4.854)" fill="#191c33"/>
        <path id="Trazado_614736" data-name="Trazado 614736" d="M19.03,54.8c.163.024.387-.063.375.216-.016.356-.3.175-.462.2-.136.018-.37.1-.359-.194.013-.359.3-.155.446-.219" transform="translate(-7.307 -21.545)" fill="#191c33"/>
        <path id="Trazado_614737" data-name="Trazado 614737" d="M22.413,55.232c-.167-.079-.434.114-.442-.211-.008-.355.275-.209.441-.218s.4-.1.394.217c-.01.34-.289.1-.393.212" transform="translate(-8.639 -21.539)" fill="#181a30"/>
        <path id="Trazado_614738" data-name="Trazado 614738" d="M25.763,54.785c.169.055.425-.1.434.218s-.254.2-.4.2-.408.136-.42-.186.255-.173.388-.233" transform="translate(-9.977 -21.541)" fill="#191c33"/>
        <path id="Trazado_614739" data-name="Trazado 614739" d="M29.2,55.231c-.16-.077-.424.113-.442-.206s.234-.232.4-.223.4-.124.425.191c.025.347-.256.157-.379.238" transform="translate(-11.307 -21.539)" fill="#191c33"/>
        <path id="Trazado_614740" data-name="Trazado 614740" d="M56.22,55.221c-.146-.059-.414.116-.41-.214,0-.314.256-.205.414-.205s.409-.114.407.208-.267.149-.411.211" transform="translate(-21.944 -21.54)" fill="#191c33"/>
        <path id="Trazado_614741" data-name="Trazado 614741" d="M59.585,54.788c.184.042.439-.09.426.234s-.271.18-.419.184-.413.127-.4-.2.278-.144.4-.214" transform="translate(-23.272 -21.542)" fill="#191c33"/>
        <path id="Trazado_614742" data-name="Trazado 614742" d="M62.983,55.221c-.146-.059-.414.117-.41-.214,0-.314.257-.205.414-.205s.408-.114.407.209-.267.148-.411.21" transform="translate(-24.603 -21.54)" fill="#191c33"/>
        <path id="Trazado_614743" data-name="Trazado 614743" d="M66.373,54.8c.161.036.416-.1.4.228s-.271.181-.419.184-.414.126-.4-.2c.012-.313.268-.163.418-.209" transform="translate(-25.932 -21.545)" fill="#191c33"/>
        <path id="Trazado_614744" data-name="Trazado 614744" d="M29.152,12.349c.184.042.439-.09.426.233s-.271.181-.419.185-.413.126-.4-.2.277-.144.4-.214" transform="translate(-11.307 -4.855)" fill="#191c33"/>
        <path id="Trazado_614745" data-name="Trazado 614745" d="M25.819,12.793c-.16-.077-.424.113-.442-.206s.234-.232.4-.223.4-.124.425.191c.025.347-.256.157-.379.238" transform="translate(-9.977 -4.853)" fill="#191c33"/>
        <path id="Trazado_614746" data-name="Trazado 614746" d="M22.379,12.782c-.149-.061-.418.117-.408-.214.01-.351.291-.187.456-.2s.406-.079.378.231-.289.112-.425.187" transform="translate(-8.639 -4.852)" fill="#181a30"/>
        <path id="Trazado_614747" data-name="Trazado 614747" d="M18.985,12.788c-.173-.05-.407.084-.4-.211.008-.358.286-.2.453-.214.148-.015.371-.076.37.2,0,.381-.319.109-.421.226" transform="translate(-7.307 -4.852)" fill="#191c33"/>
        <path id="Trazado_614748" data-name="Trazado 614748" d="M41.132,46.786a2.906,2.906,0,1,1-2.92,2.873,2.922,2.922,0,0,1,2.92-2.873" transform="translate(-15.024 -18.396)" fill="#111325"/>
        <path id="Trazado_614749" data-name="Trazado 614749" d="M41.675,52.309a2.08,2.08,0,1,1,2.082-2.086,2.074,2.074,0,0,1-2.082,2.086" transform="translate(-15.557 -18.932)" fill="#ced5ed"/>
      </g>
    </g>
  </g>
</svg>
