<svg id="Grupo_876476" data-name="Grupo 876476" xmlns="http://www.w3.org/2000/svg" xmlns:xlink="http://www.w3.org/1999/xlink" width="59.715" height="68.84" viewBox="0 0 59.715 68.84">
  <defs>
    <clipPath id="clip-path">
      <rect id="Rectángulo_324995" data-name="Rectángulo 324995" width="59.715" height="68.84" fill="none"/>
    </clipPath>
  </defs>
  <g id="Grupo_876475" data-name="Grupo 876475" clip-path="url(#clip-path)">
    <path id="Trazado_614750" data-name="Trazado 614750" d="M48.6,21.608c.861-1.356,1.717-2.715,2.584-4.067A3.681,3.681,0,0,1,56.52,16.3c.418.257.831.524,1.242.791a3.712,3.712,0,0,1,1.227,5.488q-3.109,4.926-6.23,9.845-2.127,3.366-4.238,6.743a13.67,13.67,0,0,1-1.986,3.407,5.148,5.148,0,0,0-.907,3.071c.042,5.6.02,11.2.018,16.8,0,1.844-.716,2.561-2.556,2.566-.986,0-1.971.011-2.957,0a3.567,3.567,0,0,1-.537.019H6.53c-.2,0-.4,0-.6-.011a2.184,2.184,0,0,1-2.094-2.064c-.022-.291-.014-.582-.014-.874V12.206c0-.179,0-.358,0-.537A2.187,2.187,0,0,1,6.129,9.338c1.567-.026,3.136-.005,4.7-.007.426,0,.851.005,1.277,0a.851.851,0,0,0,.784-1.315c-.124-.247-.355-.252-.576-.26-.649-.021-1.3-.008-1.948-.008-2.129,0-4.257-.008-6.385,0C2.7,7.755,2.251,8.2,2.237,9.5c-.017,1.524,0,3.047,0,4.57v50.2c0,2.038.295,2.335,2.325,2.335H39.236a5.286,5.286,0,0,1,.534.008c1.9-.007,3.8,0,5.706-.007,1.345-.006,1.771-.43,1.772-1.772q.007-10.54,0-21.081a4.649,4.649,0,0,1,.066-1.136,1.086,1.086,0,0,1,1.219-.939A1.236,1.236,0,0,1,49.554,43.1c-.011,7.328,0,14.655-.011,21.983a3.478,3.478,0,0,1-3.769,3.755q-21.042,0-42.083,0A3.447,3.447,0,0,1,0,65.159q0-28,0-56A3.43,3.43,0,0,1,3.643,5.5c3.048-.02,6.1-.01,9.143,0a.8.8,0,0,0,.8-.425,2.671,2.671,0,0,1,2.419-1.3c.673,0,1.345-.016,2.017,0,.331.011.5-.051.469-.435A3.08,3.08,0,0,1,20.571,0h8.336a3.072,3.072,0,0,1,2.135,3.377c-.027.337.106.413.417.4.693-.02,1.388-.013,2.081,0a2.647,2.647,0,0,1,2.406,1.319.777.777,0,0,0,.808.4c2.976-.009,5.954.059,8.928-.026A3.645,3.645,0,0,1,49.56,9.356c-.054,2.662-.009,5.326-.014,7.989,0,.937-.189,1.184-1.007,1.393a1,1,0,0,1-1.2-.775,3.327,3.327,0,0,1-.085-1c0-2.485,0-4.969,0-7.454,0-1.354-.417-1.765-1.764-1.772-1.88-.01-3.761.017-5.64-.013-.756.015-1.514,0-2.271.005-.906.007-.984.092-.941,1.006a.969.969,0,0,0,.1.45c.207.255.5.171.754.173,1.9.014,3.806-.02,5.709-.007,1.722.011,2.44.733,2.441,2.464q0,6.648,0,13.3a3.414,3.414,0,0,0,.029.733c.849-1.2,1.533-2.459,2.339-3.634.161-.235.267-.528.592-.6" fill="#040506"/>
    <path id="Trazado_614751" data-name="Trazado 614751" d="M40.2,64.827q1.575-.011,3.154-.02a1.9,1.9,0,0,0,2.129-2.1c.016-2.976,0-5.953,0-8.929V44.449a1.319,1.319,0,0,1,.141-.776q1.453-2.247,2.892-4.505.009,1.257.014,2.513c-.877.3-1.055.534-1.055,1.456,0,7.137-.034,14.275.021,21.412.015,1.957-.692,2.344-2.334,2.287-1.788-.062-3.577-.027-5.368-.034a12.436,12.436,0,0,1,.4-1.975" fill="#e9a039"/>
    <path id="Trazado_614752" data-name="Trazado 614752" d="M39.8,7.548c2.082-.007,4.163-.029,6.245-.014a1.412,1.412,0,0,1,1.433,1.587c.008,2.754,0,5.508,0,8.262,0,.879.233,1.167,1.058,1.355a23.283,23.283,0,0,0,.065,2.869q-1.5,2.375-2.99,4.746l-.126-.021v-.625q0-6.878,0-13.754c0-1.79-.626-2.419-2.408-2.419-2.013,0-4.025.009-6.038,0-.2,0-.448.125-.606-.123.391-.3.85-.173,1.283-.189.53-.02,1.062.007,1.593-.009.635-.019.767-.2.64-.834C39.9,8.1,39.7,7.853,39.8,7.548" fill="#e9a039"/>
    <path id="Trazado_614753" data-name="Trazado 614753" d="M31.765,50.064c-.711-.261-1.121.055-1.569.623-2.158,2.733-2.827,6.018-3.569,9.284-.188.826-.406,1.647-.556,2.48-.075.416-.336.337-.591.337q-4.537,0-9.075,0c-3.249,0-6.5-.012-9.746.014-.506,0-.619-.123-.618-.622q.021-25.007.005-50.012c0-.413.017-.623.546-.622q14.654.029,29.308.015c.089,0,.178.014.267.021a1.067,1.067,0,0,1,.213.821c.009,1.5.014,3,0,4.5-.009.908-.142,1.032-1.073,1.034-2.775.006-5.549,0-8.324,0a2.177,2.177,0,0,0-.924.1c-.446.159-.746.436-.653.946.1.545.532.682,1,.7,1.048.034,2.1.011,3.145.013,1.895,0,3.791,0,5.687.005.348,0,.724-.066,1.007.236a1.974,1.974,0,0,1,.137.987q0,9.537,0,19.076a3.13,3.13,0,0,1-.205,1.182l-3.093,4.965a1.148,1.148,0,0,0,.125,1.713,4.254,4.254,0,0,1-1.451,2.2" fill="#f3f2f2"/>
    <path id="Trazado_614754" data-name="Trazado 614754" d="M40.2,64.827a2.862,2.862,0,0,1-.4,1.975c-.223.007-.446.02-.671.02q-17.544,0-35.091,0c-1.538,0-2.018-.472-2.018-1.987q0-27.663,0-55.327c0-1.532.458-1.983,2.012-1.984,2.845,0,5.692.01,8.538-.01.452,0,.614.091.607.581-.018,1.439.006,1.439-1.426,1.439-1.882,0-3.765-.008-5.647,0a1.893,1.893,0,0,0-2.068,2.094q0,25.512,0,51.025a1.917,1.917,0,0,0,2.15,2.149H39.4c.267,0,.536.013.805.02" fill="#ffb23c"/>
    <path id="Trazado_614755" data-name="Trazado 614755" d="M36.184,41.182q-.007-9.525-.016-19.051,0-1.107,0-2.213c.244-.27.574-.208.88-.222a11.527,11.527,0,0,0,1.476-.043c.438-.075.766-.3.739-.8a.766.766,0,0,0-.742-.734,4.915,4.915,0,0,0-.805-.03c-3.563,0-7.125,0-10.688-.006-.368,0-.772.1-1.079-.224.212-.188.469-.109.707-.11,2.948-.005,5.9-.016,8.845.008.53,0,.689-.147.68-.679-.031-1.831-.013-3.663-.013-5.494,2.285-.008,4.57-.007,6.855-.031.37,0,.436.126.435.461q-.013,8.7,0,17.41a1.135,1.135,0,0,1-.173.633q-3.5,5.519-7,11.042a.41.41,0,0,1-.1.083" fill="#e5e5e5"/>
    <path id="Trazado_614756" data-name="Trazado 614756" d="M24.737,9.535c-2.979,0-5.959-.013-8.938.013-.508.005-.656-.125-.624-.628.046-.714.007-1.433.014-2.15s.241-.951.973-.96c.851-.009,1.7.012,2.554-.007a1.739,1.739,0,0,0,1.83-1.808c.019-.38.005-.761.006-1.142a.747.747,0,0,1,.832-.832c2.24-.009,4.481,0,6.721,0A.805.805,0,0,1,29,2.879c.019.357,0,.717.008,1.075A1.7,1.7,0,0,0,30.841,5.8c.828.018,1.658,0,2.487.007.776.008,1,.225,1.007,1,.01.716-.028,1.435.013,2.15.028.485-.149.589-.6.586-3-.019-6-.01-9.006-.01" fill="#b4c6d2"/>
    <path id="Trazado_614757" data-name="Trazado 614757" d="M36.03,58.755l7.318-11.439c.191.1.1.274.1.406.006,4.832,0,9.663.016,14.495,0,.472-.118.591-.587.584-2.236-.033-4.472-.026-6.708-.033a.65.65,0,0,1-.189-.485,29.044,29.044,0,0,1,.052-3.528" fill="#e5e5e5"/>
    <path id="Trazado_614758" data-name="Trazado 614758" d="M31.765,50.064l1.451-2.2c.854.256,1.088.158,1.632-.7q6.835-10.792,13.675-21.583c.148-.233.262-.7.5-.626a3.44,3.44,0,0,1,1.181.742c.158.138-.1.343-.2.5q-3.277,5.186-6.562,10.367Q37.67,45.677,31.89,54.794c-.125.2-.188.558-.441.523A3.808,3.808,0,0,1,30.19,54.9c-.21-.114.032-.369.123-.521.544-.9,1.113-1.782,1.665-2.676.442-.715.4-1.033-.213-1.642" fill="#e86673"/>
    <path id="Trazado_614759" data-name="Trazado 614759" d="M34.348,57.59a6.507,6.507,0,0,0-.676-.7c-.383-.3-.361-.543-.107-.944q9.077-14.292,18.108-28.612c.469-.746.752-.215,1.142-.036.467.215.51.435.218.9q-9,14.177-17.97,28.375c-.214.338-.458.656-.715,1.021" fill="#e86673"/>
    <path id="Trazado_614760" data-name="Trazado 614760" d="M54.37,17.725a1.529,1.529,0,0,1,.935.238c.529.335,1.071.65,1.587,1a1.6,1.6,0,0,1,.569,2.175c-.808,1.662-.808,1.663-2.372.678-.87-.548-1.731-1.111-2.61-1.645-.286-.174-.385-.32-.165-.622.263-.36.474-.759.733-1.122a1.482,1.482,0,0,1,1.323-.706" fill="#798a96"/>
    <path id="Trazado_614761" data-name="Trazado 614761" d="M28.05,62.773c.474-1.977.9-3.732,1.313-5.49.077-.328.19-.409.544-.313A5.133,5.133,0,0,1,32.562,58.7c.119.142.242.262.025.436-1.466,1.17-2.926,2.347-4.537,3.641" fill="#677884"/>
    <path id="Trazado_614762" data-name="Trazado 614762" d="M36.03,58.755c.237.216.131.5.133.754.012,1.086,0,2.173,0,3.259H31.343a61.594,61.594,0,0,0,4.687-4.013" fill="#f2f2f2"/>
    <path id="Trazado_614763" data-name="Trazado 614763" d="M55.343,24.438a7.131,7.131,0,0,1-.9,1.421c-.155.042-.238-.088-.343-.154-1.228-.772-2.448-1.56-3.684-2.32-.305-.187-.318-.323-.136-.624.7-1.147.682-1.154,1.788-.451.981.622,1.963,1.241,2.941,1.867.124.079.291.118.334.261" fill="#bddbe1"/>
    <path id="Trazado_614764" data-name="Trazado 614764" d="M39.8,7.548c.1.2.216.389.3.594.372.907.141,1.268-.8,1.268l-2.863,0c-.014-.51-.016-1.022-.046-1.531-.019-.318.14-.364.4-.359,1,.016,2,.018,3.005.026" fill="#ffb23b"/>
    <path id="Trazado_614765" data-name="Trazado 614765" d="M22.065,37.192c0,1.276.011,2.551,0,3.827a2.422,2.422,0,0,1-2.371,2.566q-4.059.1-8.121,0a2.466,2.466,0,0,1-2.411-2.551q-.033-3.859,0-7.721a2.534,2.534,0,0,1,2.591-2.6q3.859-.062,7.721,0a2.524,2.524,0,0,1,2.593,2.719c.008,1.253,0,2.507,0,3.76" fill="#040506"/>
    <path id="Trazado_614766" data-name="Trazado 614766" d="M15.666,46.914c1.276,0,2.552-.01,3.827,0a2.492,2.492,0,0,1,2.565,2.525q.027,3.927,0,7.855A2.492,2.492,0,0,1,19.6,59.81c-2.64.041-5.282.037-7.922,0a2.528,2.528,0,0,1-2.518-2.539q-.045-3.928,0-7.856a2.524,2.524,0,0,1,2.608-2.5c1.3-.011,2.6,0,3.894,0" fill="#040506"/>
    <path id="Trazado_614767" data-name="Trazado 614767" d="M22.065,20.981c0,1.276.01,2.552,0,3.827a2.524,2.524,0,0,1-2.619,2.618q-3.827.01-7.654,0A2.543,2.543,0,0,1,9.161,24.87q-.041-3.894,0-7.789a2.551,2.551,0,0,1,2.632-2.556q3.827-.013,7.654,0a2.53,2.53,0,0,1,2.614,2.629c.013,1.275,0,2.551,0,3.827" fill="#040506"/>
    <path id="Trazado_614768" data-name="Trazado 614768" d="M25.948,17.858q6.2.006,12.4.01c.607,0,1.06.186,1.184.825a.988.988,0,0,1-1.02,1.195c-.78.029-1.562.022-2.343.029-3.256-.007-6.513-.021-9.769-.018a1.183,1.183,0,0,1-1.228-.614c-.279-.584.026-1.119.778-1.427" fill="#050506"/>
    <path id="Trazado_614769" data-name="Trazado 614769" d="M30.259,36.059c-1.319,0-2.638.005-3.957,0-.8,0-1.224-.367-1.217-1.01a1.045,1.045,0,0,1,1.174-1.011q4.024-.013,8.048,0a1.067,1.067,0,0,1,1.166,1.035c-.009.59-.467.98-1.19.985-1.341.008-2.683,0-4.024,0" fill="#050606"/>
    <path id="Trazado_614770" data-name="Trazado 614770" d="M29.148,24.084c-.985,0-1.971.008-2.956,0a.979.979,0,0,1-1.106-.987,1.017,1.017,0,0,1,1.088-1.027q3.022-.024,6.046,0a1.029,1.029,0,0,1,1.117,1.009c.009.592-.453,1-1.166,1.007-1.007.008-2.015,0-3.023,0" fill="#050606"/>
    <path id="Trazado_614771" data-name="Trazado 614771" d="M29.192,38.268c.963,0,1.925-.008,2.888,0,.781.009,1.249.389,1.257.993s-.466,1.031-1.23,1.035q-2.92.015-5.842,0c-.733-.005-1.171-.4-1.18-1.006-.008-.619.409-1.006,1.152-1.019.985-.016,1.97,0,2.955,0" fill="#060607"/>
    <path id="Trazado_614772" data-name="Trazado 614772" d="M20.04,37.161c0,1.209-.018,2.418.008,3.627.012.581-.222.8-.792.8q-3.627-.021-7.254,0c-.617,0-.829-.261-.826-.849q.021-3.559,0-7.12c-.005-.635.246-.872.88-.867,2.373.021,4.746.006,7.119.01.784,0,.864.092.865.908,0,1.164,0,2.328,0,3.492" fill="#5ba78b"/>
    <path id="Trazado_614773" data-name="Trazado 614773" d="M15.651,48.937c1.208,0,2.416.012,3.624-.005.536-.008.772.2.77.75q-.018,3.692,0,7.382a.638.638,0,0,1-.731.737q-3.69,0-7.381,0c-.539,0-.755-.283-.753-.8q.008-3.657,0-7.314c0-.527.233-.765.779-.756,1.23.02,2.461.006,3.691.006" fill="#5ba78b"/>
    <path id="Trazado_614774" data-name="Trazado 614774" d="M20.04,21.02c0,1.208-.012,2.416,0,3.624.008.54-.217.773-.757.771q-3.658-.014-7.316,0c-.584,0-.8-.272-.793-.821q.01-3.624,0-7.248c0-.558.237-.812.809-.809q3.624.016,7.248,0c.616,0,.824.267.812.859-.026,1.208-.008,2.417-.008,3.624" fill="#5ba78b"/>
    <path id="Trazado_614775" data-name="Trazado 614775" d="M14.98,37.824c.628-.853,1.221-1.665,1.821-2.472.487-.655,1.01-.8,1.536-.44.554.381.6.953.111,1.632-.747,1.032-1.5,2.063-2.266,3.08a1.4,1.4,0,0,1-2.417.021c-.375-.473-.725-.966-1.066-1.464a1.032,1.032,0,0,1,.183-1.488,1.012,1.012,0,0,1,1.424.255c.228.271.433.561.674.876" fill="#040506"/>
    <path id="Trazado_614776" data-name="Trazado 614776" d="M14.977,53.66c.663-.9,1.3-1.759,1.937-2.616a1,1,0,0,1,1.039-.463,1.026,1.026,0,0,1,.8.73.981.981,0,0,1-.208.937c-.8,1.1-1.594,2.207-2.423,3.287a1.38,1.38,0,0,1-2.287.028,19.745,19.745,0,0,1-1.181-1.622A1,1,0,0,1,12.9,52.52a.954.954,0,0,1,1.367.221c.246.285.462.595.71.919" fill="#040506"/>
    <path id="Trazado_614777" data-name="Trazado 614777" d="M14.977,21.283c.665-.9,1.295-1.762,1.935-2.617a.992.992,0,0,1,1.04-.46,1.043,1.043,0,0,1,.8.734.926.926,0,0,1-.18.881c-.829,1.14-1.642,2.293-2.508,3.4a1.328,1.328,0,0,1-2.15.04,17.375,17.375,0,0,1-1.277-1.724,1,1,0,0,1,1.61-1.194c.25.282.464.595.728.937" fill="#040506"/>
  </g>
</svg>
