<svg xmlns="http://www.w3.org/2000/svg" xmlns:xlink="http://www.w3.org/1999/xlink" width="155.183" height="155.183" viewBox="0 0 155.183 155.183">
  <defs>
    <filter id="Elipse_5221" x="0" y="0" width="155.183" height="155.183" filterUnits="userSpaceOnUse">
      <feOffset dy="6" input="SourceAlpha"/>
      <feGaussianBlur stdDeviation="5" result="blur"/>
      <feFlood flood-opacity="0.329"/>
      <feComposite operator="in" in2="blur"/>
      <feComposite in="SourceGraphic"/>
    </filter>
    <clipPath id="clip-path">
      <rect id="Rectángulo_325014" data-name="Rectángulo 325014" width="77.086" height="78.518" fill="none"/>
    </clipPath>
  </defs>
  <g id="Grupo_876539" data-name="Grupo 876539" transform="translate(-8335.098 7397.969)">
    <g transform="matrix(1, 0, 0, 1, 8335.1, -7397.97)" filter="url(#Elipse_5221)">
      <circle id="Elipse_5221-2" data-name="Elipse 5221" cx="62.591" cy="62.591" r="62.591" transform="translate(15 9)" fill="#ffb500"/>
    </g>
    <g id="Grupo_876528" data-name="Grupo 876528" transform="translate(8380.645 -7363.393)">
      <g id="Grupo_876527" data-name="Grupo 876527" transform="translate(0 0)" clip-path="url(#clip-path)">
        <path id="Trazado_615267" data-name="Trazado 615267" d="M15.421,77.741a1.3,1.3,0,0,1-1.352.777c-2.213-.026-4.441.145-6.557-.753A11.436,11.436,0,0,1,.036,67.505c-.027-.33-.027-.664-.027-1q0-23.185-.01-46.37a11.581,11.581,0,0,1,4.164-9.3A11.078,11.078,0,0,1,11.45,8.129c.179,0,.358-.012.536,0a4.06,4.06,0,0,0,3.029-.844A7.061,7.061,0,0,1,20.093,6.02a2.308,2.308,0,0,0,2.465-1.282,9.855,9.855,0,0,1,7.158-4.6c.1-.015.2-.021.239-.139h2.913c.649.174,1.31.312,1.945.528A10.494,10.494,0,0,1,40.776,5.5a.851.851,0,0,0,.877.517,12.552,12.552,0,0,1,4.538.433A6.817,6.817,0,0,1,48.443,7.7a1.6,1.6,0,0,0,1.237.431,12.821,12.821,0,0,1,6.476,1.1,11.81,11.81,0,0,1,6.389,7.911c.545-.581,1.053-1.125,1.563-1.668.4-.428.823-.84,1.2-1.288a1.318,1.318,0,0,1,1.88-.367,1.2,1.2,0,0,1,.048,1.949c-.858.9-1.63,1.878-2.538,2.732-.614.577-.59.621.084,1.143.282.218.58.412.846.649.663.521,1.352,1.01,1.983,1.568.415.366.658.326.958-.136,1.372-2.123,2.766-4.232,4.15-6.348.489-.747,1-1.482,1.464-2.246a1.6,1.6,0,0,0-.757-2.562A1.55,1.55,0,0,0,71.753,11c-.462.434-.874.924-1.365,1.327a1.066,1.066,0,0,1-1.738-.188,1.241,1.241,0,0,1,.181-1.722c.411-.419.789-.871,1.211-1.279A4.137,4.137,0,0,1,75.485,8.8a4.072,4.072,0,0,1,.966,5.417c-1.032,1.665-2.131,3.289-3.239,4.99a5.859,5.859,0,0,1,1.9,1.238,4.919,4.919,0,0,1,.218,6.614c-2.386,3.057-4.819,6.079-7.165,9.167-1.278,1.681-2.751,2.86-4.986,2.705-.263-.018-.377.079-.362.344.011.178,0,.357,0,.536,0,8.914-.053,17.828.019,26.742a11.748,11.748,0,0,1-8.576,11.558,11.12,11.12,0,0,1-2.864.4q-16.092-.008-32.184,0c-1.022,0-1.261-.2-1.513-1.225a1.115,1.115,0,0,1,.965-1.236A5.548,5.548,0,0,1,19.81,76H50.93a9.075,9.075,0,0,0,9.242-7.747,7.056,7.056,0,0,0,.086-1.22q0-14.028,0-28.055a1.74,1.74,0,0,0-.087-.821c-.36.044-.457.341-.62.548q-6.041,7.682-12.066,15.374A6.369,6.369,0,0,1,43.4,56.559a4.855,4.855,0,0,1-2.416-.214,1.076,1.076,0,0,0-1.379.412c-.726.9-1.564.956-2.211.236a1.2,1.2,0,0,1-.21-1.48c.1-.194.3-.352.266-.62a1.374,1.374,0,0,0-.815-.086c-2.171-.009-4.344,0-6.515-.005a2.072,2.072,0,0,1-1.319-.3,1.308,1.308,0,0,1-.606-1.388,1.253,1.253,0,0,1,1.13-1,5.581,5.581,0,0,1,.918-.038c1.942,0,3.884-.013,5.826.008.561.005.806-.18.737-.757a6.635,6.635,0,0,1,1.776-5.045Q47.711,34.7,56.8,23.076a1.727,1.727,0,0,0,.369-1.488,3.553,3.553,0,0,1,1.873-3.7c.935-.492,1-.569.579-1.526a9.086,9.086,0,0,0-7.821-5.7c-.688-.078-.787.058-.589.7a7.981,7.981,0,0,1-7.829,10.314q-12,.018-23.991,0a8.036,8.036,0,0,1-8.172-7.786A8.023,8.023,0,0,1,11.6,11.4c.065-.244.3-.531-.081-.734a9.06,9.06,0,0,0-8.926,8.656q-.031,23.989,0,47.977a9.035,9.035,0,0,0,7.231,8.493,6.584,6.584,0,0,0,1.9.194c.788-.007,1.578-.026,2.365.009,1.142.048,1.592.653,1.337,1.75" transform="translate(0 0)" fill="#040506"/>
        <path id="Trazado_615268" data-name="Trazado 615268" d="M15.021,77.039c.035-1.13-.336-1.523-1.439-1.531-.759-.006-1.518-.017-2.277-.026a4,4,0,0,1-1.97-1.116A10.5,10.5,0,0,1,5.546,66.09q.039-23.629.013-47.258A10.413,10.413,0,0,1,9.8,10.466a3.281,3.281,0,0,1,1.5-.716c.754-.147.332.327.256.536a7.7,7.7,0,0,0,3.343,9.4,7.853,7.853,0,0,0,4.018,1.054c8.049.008,16.1.02,24.148,0a7.71,7.71,0,0,0,7.9-7.586,7.407,7.407,0,0,0-.738-3.415,9.383,9.383,0,0,1,9.461,6.567c.132.411.177.643-.386.815a3.311,3.311,0,0,0-2.277,4.032,1.136,1.136,0,0,1-.234,1.093Q47.445,34.131,38.1,46.021a6.1,6.1,0,0,0-1.467,4.962c.087.52-.051.576-.506.573-2.223-.02-4.446-.012-6.669-.008a1.766,1.766,0,0,0-.9.121,1.077,1.077,0,0,0-.6,1.21,1.123,1.123,0,0,0,1.193.971c1.2.023,2.4.008,3.6.008h4.936c-.252.347-.465.615-.652.9a1.105,1.105,0,0,0,.2,1.568,1.015,1.015,0,0,0,1.554-.147c.585-.973,1.214-.909,2.222-.662a5.388,5.388,0,0,0,5.806-2.162q6.228-7.912,12.43-15.844a2.807,2.807,0,0,1,.24-.3c.118-.115.174-.368.4-.282.18.071.209.269.194.459-.008.1,0,.2,0,.307q0,14.22,0,28.441a9.244,9.244,0,0,1-7.248,9.13,10.325,10.325,0,0,1-2.431.241q-15.716-.01-31.431-.017c-.854,0-1.436.231-1.673,1.088a3.943,3.943,0,0,0-2.276.456" transform="translate(0.401 0.702)" fill="#f1f6fb"/>
        <path id="Trazado_615269" data-name="Trazado 615269" d="M64.325,11.445c.833.557,1.229.518,1.912-.19.371-.384.724-.785,1.11-1.151a1.576,1.576,0,0,1,1.859-.39.636.636,0,0,1-.186.63c-2.567,3-4.971,6.138-7.5,9.173a.525.525,0,0,1-.317.2c-1.751-1.191-1.749-1.189-.335-2.682.594-.626,1.171-1.27,1.763-1.9.724-.768.766-1.1.232-2.005a8.2,8.2,0,0,0,1.459-1.686" transform="translate(4.325 0.69)" fill="#6da2d8"/>
        <path id="Trazado_615270" data-name="Trazado 615270" d="M31.457,2.3a7.772,7.772,0,0,1,6.227,4.591A1.955,1.955,0,0,0,39.795,8.2a20.6,20.6,0,0,1,3.44.062,5.369,5.369,0,0,1,.133,10.594,3.2,3.2,0,0,1-.381.013,1.8,1.8,0,0,1-.756.055c-7.121,0-14.242,0-21.363.015a2.067,2.067,0,0,1-1.616-.687,6.9,6.9,0,0,1-.312-9.04,2.3,2.3,0,0,1,2.168-1.018.912.912,0,0,0,.528-.05,1.871,1.871,0,0,0,.865-.969,2.475,2.475,0,0,1,1.672-.359,9.639,9.639,0,0,1,2.043.083c.488.338.073.634-.084.888a4.869,4.869,0,1,0,8.774,3.725,4.833,4.833,0,0,0-5.852-5.69,1.524,1.524,0,0,1-.9.083.221.221,0,0,1-.076-.328A7.072,7.072,0,0,1,31.457,2.3" transform="translate(1.258 0.166)" fill="#ffd767"/>
        <path id="Trazado_615271" data-name="Trazado 615271" d="M11.549,9.75A10.689,10.689,0,0,0,6.263,16.63a7.98,7.98,0,0,0-.24,1.885q.014,23.907.012,47.815c0,4.007,1.95,6.9,5.265,8.978.086.054.166.115.248.173A9.246,9.246,0,0,1,2.2,66.675c-.054-7.84-.019-15.682-.021-23.523q0-12.031,0-24.06A9.225,9.225,0,0,1,9.429,9.967a6.2,6.2,0,0,1,2.12-.218" transform="translate(0.157 0.702)" fill="#def1fc"/>
        <path id="Trazado_615272" data-name="Trazado 615272" d="M57.991,24.027c.968.747,1.927,1.509,2.911,2.234.387.284.374.48.086.847Q53.715,36.341,46.468,45.6c-.63.8-1.278,1.593-1.884,2.415-.244.331-.394.414-.761.124-1.335-1.053-1.342-1.032-.292-2.37q5.653-7.2,11.3-14.4c.77-.982.657-1.6-.365-2.157-.407-.025-.686-.179-.377-.6,1.1-1.5,2.279-2.95,3.433-4.412a.4.4,0,0,1,.471-.168" transform="translate(3.091 1.734)" fill="#da6970"/>
        <path id="Trazado_615273" data-name="Trazado 615273" d="M58.232,24.12a9.987,9.987,0,0,0-1.618,1.909c-.735.839-1.375,1.759-2.075,2.628-.261.324-.207.511.166.644a1.548,1.548,0,0,0-1.488.725Q47.311,37.6,41.38,45.158c-.338.433-.555.568-1.052.139-1.111-.96-1.145-.928-.262-2.054q7.908-10.091,15.81-20.189c.341-.437.561-.443.939-.1.449.412.941.776,1.415,1.161" transform="translate(2.85 1.641)" fill="#b94f5a"/>
        <path id="Trazado_615274" data-name="Trazado 615274" d="M21.964,7.745c-.089.043-.184.132-.268.122-1.475-.189-2.157.844-2.788,1.869a6.593,6.593,0,0,0,1.121,8.253,1.647,1.647,0,0,0,1.222.47q10.611-.016,21.223-.008c.28,0,.561.014.842.02a2.108,2.108,0,0,1-.978.105q-11.868,0-23.736-.006a5.383,5.383,0,0,1-5.687-6.2,5.254,5.254,0,0,1,4.538-4.5c1.5-.122,3.007-.092,4.511-.132" transform="translate(0.93 0.559)" fill="#ffc44e"/>
        <path id="Trazado_615275" data-name="Trazado 615275" d="M70,22.546a2.463,2.463,0,0,1-.627,1.617q-3.942,5.025-7.888,10.048a2.581,2.581,0,0,1-3.561.486c-.351-.247-.479-.448-.16-.846q2.2-2.746,4.349-5.532a.7.7,0,0,1,.71-.3,3.389,3.389,0,0,0,3.16-4.941.638.638,0,0,1,.046-.755c.481-.687.934-1.4,1.38-2.106a.564.564,0,0,1,.763-.267A2.631,2.631,0,0,1,70,22.546" transform="translate(4.161 1.437)" fill="#6da2d8"/>
        <path id="Trazado_615276" data-name="Trazado 615276" d="M61.114,19.705q1.985-2.488,3.971-4.977Q67.1,12.214,69.113,9.7a1.7,1.7,0,0,1,.926,2.627c-2.045,3.185-4.134,6.339-6.234,9.552l-2.691-2.177" transform="translate(4.416 0.701)" fill="#89b8e4"/>
        <path id="Trazado_615277" data-name="Trazado 615277" d="M26.085,7.062a25.276,25.276,0,0,0-3.927.12c1.314-3.415,5.566-5.729,8.956-4.873a9.768,9.768,0,0,0-3.355,3.585,3.375,3.375,0,0,1-1.674,1.169" transform="translate(1.601 0.154)" fill="#ffc44e"/>
        <path id="Trazado_615278" data-name="Trazado 615278" d="M58.842,20c1.585,1.229,3.181,2.445,4.749,3.7a1.112,1.112,0,0,1,.229,1.621,1.159,1.159,0,0,1-1.642.139c-1.561-1.219-3.1-2.464-4.65-3.7A1.447,1.447,0,0,1,58.842,20" transform="translate(4.154 1.445)" fill="#89b8e4"/>
        <path id="Trazado_615279" data-name="Trazado 615279" d="M39.763,46.055c1.024.788,2.051,1.574,3.071,2.369.14.109.35.187.17.468-1.275,1.992-3.47,2.345-4.9,1.3-.321-.449-.147-.921-.069-1.391A4.975,4.975,0,0,1,39.1,46.481c.17-.213.321-.471.661-.426" transform="translate(2.74 3.327)" fill="#ffd767"/>
        <path id="Trazado_615280" data-name="Trazado 615280" d="M39.857,46.158A5.27,5.27,0,0,0,38.2,50.29c-2.007-1.234-2.11-3.665-.211-5.659q.933.761,1.871,1.527" transform="translate(2.647 3.225)" fill="#ffc34e"/>
        <path id="Trazado_615281" data-name="Trazado 615281" d="M58.979,20.1a2.144,2.144,0,0,0-1.314,1.755c-.546-.411-1.11-.8-1.632-1.238a1.1,1.1,0,0,1-.2-1.564,1.06,1.06,0,0,1,1.547-.235c.556.394,1.066.852,1.6,1.282" transform="translate(4.018 1.343)" fill="#6ca1d8"/>
        <path id="Trazado_615282" data-name="Trazado 615282" d="M16.495,41.032c-1.174,0-2.349.015-3.522,0a4.882,4.882,0,0,1-4.751-4.256,48.142,48.142,0,0,1-.006-8.181,4.763,4.763,0,0,1,4.541-4.285c2.5-.078,5-.084,7.5,0a4.906,4.906,0,0,1,4.651,4.788q.074,3.559,0,7.122a5,5,0,0,1-4.968,4.816c-1.148.012-2.3,0-3.446,0" transform="translate(0.581 1.752)" fill="#040506"/>
        <path id="Trazado_615283" data-name="Trazado 615283" d="M16.51,61.456a36.715,36.715,0,0,1-3.9-.025,4.828,4.828,0,0,1-4.439-4.669,67.715,67.715,0,0,1,0-7.347,4.747,4.747,0,0,1,4.579-4.681,47.139,47.139,0,0,1,7.8.031,4.878,4.878,0,0,1,4.363,4.74q.076,3.559,0,7.122a5.03,5.03,0,0,1-4.875,4.847c-1.174.031-2.349,0-3.523,0v-.023" transform="translate(0.583 3.222)" fill="#040506"/>
        <path id="Trazado_615284" data-name="Trazado 615284" d="M36.636,28.305q4.253,0,8.5,0c.994,0,1.477.376,1.481,1.136s-.5,1.167-1.465,1.167q-8.656,0-17.314,0c-1.092,0-1.718-.814-1.3-1.668a1.24,1.24,0,0,1,1.279-.639c2.937.011,5.874.005,8.811.005" transform="translate(1.909 2.045)" fill="#050506"/>
        <path id="Trazado_615285" data-name="Trazado 615285" d="M32.088,33.733c1.4,0,2.8-.005,4.2,0,.874,0,1.415.459,1.4,1.154a1.208,1.208,0,0,1-1.356,1.147q-4.282.014-8.563,0a1.217,1.217,0,0,1-1.36-1.142c-.015-.712.505-1.155,1.391-1.159,1.427-.008,2.854,0,4.282,0" transform="translate(1.909 2.437)" fill="#050606"/>
        <path id="Trazado_615286" data-name="Trazado 615286" d="M32.072,54.148c1.4,0,2.81-.01,4.215,0,.871.008,1.422.48,1.406,1.163s-.565,1.142-1.443,1.144q-4.216.013-8.431,0c-.863,0-1.413-.49-1.4-1.183s.516-1.115,1.362-1.124c1.43-.015,2.862,0,4.292,0" transform="translate(1.909 3.912)" fill="#060607"/>
        <path id="Trazado_615287" data-name="Trazado 615287" d="M25.91,6.835a9.186,9.186,0,0,1,1.674-1.169A5.081,5.081,0,0,1,32.3,14.637a5.064,5.064,0,0,1-6.834-7.183c.145-.208.295-.413.443-.619" transform="translate(1.775 0.381)" fill="#040506"/>
        <path id="Trazado_615288" data-name="Trazado 615288" d="M16.38,26.429c1.124,0,2.247-.024,3.37,0a2.676,2.676,0,0,1,2.709,2.727q.042,3.331,0,6.664a2.705,2.705,0,0,1-2.775,2.748q-3.331.018-6.664,0a2.579,2.579,0,0,1-2.685-2.4,62.418,62.418,0,0,1,0-7.346,2.518,2.518,0,0,1,2.6-2.391c1.147-.031,2.3-.006,3.446-.008" transform="translate(0.739 1.909)" fill="#aecd8b"/>
        <path id="Trazado_615289" data-name="Trazado 615289" d="M16.345,59.02c-1.072,0-2.145.011-3.217,0A2.67,2.67,0,0,1,10.3,56.4c-.076-2.32-.07-4.647,0-6.968a2.492,2.492,0,0,1,2.517-2.568c2.37-.087,4.749-.088,7.119.006a2.62,2.62,0,0,1,2.518,2.751q.032,3.294,0,6.588a2.751,2.751,0,0,1-2.819,2.8c-1.1.018-2.2,0-3.294,0" transform="translate(0.741 3.382)" fill="#aecd8a"/>
        <path id="Trazado_615290" data-name="Trazado 615290" d="M32.188,10.153a2.711,2.711,0,1,1-5.42.008,2.71,2.71,0,1,1,5.42-.008" transform="translate(1.934 0.537)" fill="#254e6c"/>
        <path id="Trazado_615291" data-name="Trazado 615291" d="M15.383,33.779c1.055-1.674,2.059-3.29,3.09-4.888a1.142,1.142,0,0,1,2.042-.058,1.1,1.1,0,0,1-.064,1.223c-1.311,2.089-2.61,4.186-3.939,6.263a1.113,1.113,0,0,1-1.919.122C13.7,35.425,12.847,34.379,12,33.327a1.131,1.131,0,0,1,.087-1.7,1.163,1.163,0,0,1,1.685.231c.533.611,1.043,1.241,1.611,1.918" transform="translate(0.843 2.04)" fill="#040506"/>
        <path id="Trazado_615292" data-name="Trazado 615292" d="M15.38,54.208c1.079-1.709,2.1-3.321,3.113-4.937a1.152,1.152,0,0,1,2.134.229,1.158,1.158,0,0,1-.2,1.011c-1.3,2.067-2.588,4.144-3.907,6.2a1.1,1.1,0,0,1-1.908.174c-.909-1.034-1.781-2.1-2.636-3.18a1.107,1.107,0,0,1,.155-1.682,1.2,1.2,0,0,1,1.683.3c.509.6,1.007,1.213,1.564,1.886" transform="translate(0.843 3.515)" fill="#040506"/>
      </g>
    </g>
  </g>
</svg>
