<svg xmlns="http://www.w3.org/2000/svg" xmlns:xlink="http://www.w3.org/1999/xlink" width="155.183" height="155.183" viewBox="0 0 155.183 155.183">
  <defs>
    <filter id="Elipse_5222" x="0" y="0" width="155.183" height="155.183" filterUnits="userSpaceOnUse">
      <feOffset dy="6" input="SourceAlpha"/>
      <feGaussianBlur stdDeviation="5" result="blur"/>
      <feFlood flood-opacity="0.329"/>
      <feComposite operator="in" in2="blur"/>
      <feComposite in="SourceGraphic"/>
    </filter>
    <clipPath id="clip-path">
      <rect id="Rectángulo_325013" data-name="Rectángulo 325013" width="75.479" height="75.491" fill="none"/>
    </clipPath>
  </defs>
  <g id="Grupo_876526" data-name="Grupo 876526" transform="translate(-8684.09 7397.969)">
    <g transform="matrix(1, 0, 0, 1, 8684.09, -7397.97)" filter="url(#Elipse_5222)">
      <circle id="Elipse_5222-2" data-name="Elipse 5222" cx="62.591" cy="62.591" r="62.591" transform="translate(15 9)" fill="#ffb500"/>
    </g>
    <g id="Grupo_876525" data-name="Grupo 876525" transform="translate(8724.414 -7358.186)">
      <g id="Grupo_876524" data-name="Grupo 876524" transform="translate(0 0)" clip-path="url(#clip-path)">
        <path id="Trazado_615243" data-name="Trazado 615243" d="M41.97,47.809H9.823c-1.42,0-1.769-.343-1.769-1.739V6.767c0-1.369.355-1.731,1.7-1.732.943,0,1.887-.023,2.829.009.425.015.525-.13.515-.53-.025-1.021-.014-2.043-.007-3.065C13.1.455,13.534.008,14.518,0,16.377,0,18.238,0,20.1,0H69.143c1.473,0,1.808.329,1.809,1.778,0,.918.024,1.835-.01,2.751-.016.433.141.522.534.512.968-.024,1.938-.01,2.907-.007,1.2,0,1.6.4,1.6,1.593q0,10.3,0,20.6,0,9.471,0,18.944c0,1.249-.39,1.641-1.632,1.641H41.97" transform="translate(-0.506 0)" fill="#1b1818"/>
        <path id="Trazado_615244" data-name="Trazado 615244" d="M22.643,75.9c0,.63.01,1.127,0,1.624a1.21,1.21,0,0,1-1.3,1.333q-4.992.018-9.984,0a1.212,1.212,0,0,1-1.288-1.35c-.037-1.159-.037-1.159-1.2-1.159q-3.657,0-7.312,0C.413,76.34,0,75.924,0,74.777q0-8.491,0-16.983c0-1.184.406-1.579,1.612-1.58,2.594,0,5.189-.019,7.783.014.555.007.694-.137.683-.687-.031-1.538.3-1.844,1.806-1.844q4.6,0,9.2,0c1.143,0,1.554.414,1.56,1.555a9.859,9.859,0,0,1-.009,1.257c-.072.589.214.559.628.454,1.845-.469,3.7-.9,5.54-1.395a9.7,9.7,0,0,1,5.184.007q9.141,2.466,18.293,4.893A4.725,4.725,0,0,1,54.9,62.093c.309.4.526.4.941.156q5.789-3.375,11.606-6.7a5.046,5.046,0,1,1,4.946,8.792Q66.088,68,59.768,71.63q-4.038,2.331-8.074,4.665a9.384,9.384,0,0,1-4.852,1.315c-5.922-.022-11.845-.045-17.767.011a11.094,11.094,0,0,1-5.642-1.341c-.224-.124-.46-.224-.79-.383" transform="translate(0 -3.371)" fill="#1b1818"/>
        <path id="Trazado_615245" data-name="Trazado 615245" d="M16.132,36.65c-.008-1.231-.024-2.462-.024-3.693q0-14.741-.018-29.481c0-.654.155-.81.809-.808q11.83.038,23.66.007c.5,0,.723.052.722.651q-.031,16.353-.016,32.7c0,.1-.015.209-.022.313a3.05,3.05,0,0,1-2.568.318,1.884,1.884,0,0,0-2-1.037q-7.951.037-15.9,0a2.035,2.035,0,0,0-2.128,1.095,3.312,3.312,0,0,1-2.514-.065" transform="translate(-1.01 -0.167)" fill="#8abbe7"/>
        <path id="Trazado_615246" data-name="Trazado 615246" d="M42.18,45.8q-15.293,0-30.584.014c-.651,0-.88-.1-.879-.835q.042-18.045,0-36.091c0-.713.193-.867.868-.847,1.665.048,1.666.014,1.666,1.68V41.485c0,1.434.366,1.8,1.814,1.8h54.25c1.437,0,1.8-.367,1.8-1.808q0-16.277-.019-32.553c0-.747.223-.9.912-.881,1.622.047,1.623.014,1.623,1.645q0,17.614.015,35.226c0,.7-.153.907-.887.905Q57.473,45.776,42.18,45.8" transform="translate(-0.673 -0.504)" fill="#004291"/>
        <path id="Trazado_615247" data-name="Trazado 615247" d="M45.661,35.867c-.008-1.493-.024-2.986-.024-4.48q0-13.954-.018-27.909c0-.651.15-.812.806-.809,6.63.027,13.259.017,19.889.018.235,0,.47.017.706.025a3.2,3.2,0,0,1,.04,2.526,2.089,2.089,0,0,1-1.294.208q-7.666.008-15.331,0a4.874,4.874,0,0,0-1.174.068A.955.955,0,0,0,49.249,7.4a4.65,4.65,0,0,0,1.174.071q7.666,0,15.331,0a2.148,2.148,0,0,1,1.3.2,3.654,3.654,0,0,1,.024,2.574,2.056,2.056,0,0,1-1.363.226q-7.65.011-15.3,0a4.575,4.575,0,0,0-1.172.072.933.933,0,0,0-.78.951.923.923,0,0,0,.8.932,4.4,4.4,0,0,0,1.094.067q7.493,0,14.987,0a2.817,2.817,0,0,1,1.312.149,2.693,2.693,0,0,1-.459,2.728,3.327,3.327,0,0,1-1.32.127q-7.194.006-14.387,0a6.516,6.516,0,0,0-1.1.042.956.956,0,0,0-.926.987c0,.6.408.871.956.958a6.63,6.63,0,0,0,1.021.037q6.879,0,13.757,0a3.673,3.673,0,0,1,1.246.1c.121.061.251.154.213.291a4.627,4.627,0,0,1-1.112,2.509,3.713,3.713,0,0,1-1.245.1q-6.478,0-12.954,0a4.456,4.456,0,0,0-1.095.068.935.935,0,0,0-.791.942.925.925,0,0,0,.78.948,4.191,4.191,0,0,0,1.094.068q5.771,0,11.541,0a3.955,3.955,0,0,1,1.17.083.318.318,0,0,1,.214.485,5.1,5.1,0,0,1-1.778,2.366,5.59,5.59,0,0,1-1.25.069c-3.373,0-6.746,0-10.119,0-1.419,0-1.7.289-1.709,1.7-.008,2.223,0,4.445,0,6.668a3.517,3.517,0,0,1-.1,1.166,2.919,2.919,0,0,1-2.635.754" transform="translate(-2.864 -0.167)" fill="#b0d2f1"/>
        <path id="Trazado_615248" data-name="Trazado 615248" d="M66.236,15.242a8.543,8.543,0,0,0,.47-2.466c.123-.2.347-.2.539-.26a1.022,1.022,0,0,0,.81-.923,1.052,1.052,0,0,0-.61-1.071c-.156-.086-.338-.136-.426-.314q0-1.232,0-2.465c1.435-.9,1.435-1.667,0-2.567V2.712c1.1-.008,2.2,0,3.3-.033.379-.011.53.109.48.485a2.887,2.887,0,0,0,0,.393q0,18,.016,36c0,.707-.164.893-.884.891q-11.75-.044-23.5,0c-.651,0-.843-.147-.81-.808.066-1.254.034-2.513.042-3.769l2.464-.63c.3.255.248.614.269.947.07,1.179.353,1.455,1.545,1.481.575.012,1.152,0,1.728,0h14.3a8.307,8.307,0,0,0,.942-.022,1.061,1.061,0,0,0,1.1-1.1,12.693,12.693,0,0,0,.022-1.336c0-2.646.007-5.292,0-7.938,0-1.416-.283-1.687-1.716-1.7-1.205-.007-2.411.007-3.616-.007-.358,0-.744.056-1.026-.264a20.887,20.887,0,0,0,1.571-2.465c.257-.3.616-.239.946-.246.861-.018,1.723.018,2.583-.017.788-.032,1.23-.415,1.233-1.023s-.44-.951-1.229-1.033c-.707-.074-1.461.228-2.119-.251q.471-1.231.943-2.462c.309-.346.725-.213,1.1-.234.856-.05,1.306-.379,1.333-1.008.026-.608-.352-.963-1.167-1.091-.228-.035-.476-.011-.633-.235" transform="translate(-2.864 -0.168)" fill="#8abbe7"/>
        <path id="Trazado_615249" data-name="Trazado 615249" d="M16.132,38.906H18.6c.7,1.022,1.74,1.04,2.844,1.034q7.247-.042,14.492,0c1.1.007,2.14-.018,2.841-1.04.812-.186,1.662-.056,2.467-.3.007,1.152-.011,2.3.036,3.455.022.529-.157.644-.657.641-3.613-.02-7.226-.01-10.839-.01-4.32,0-8.639-.013-12.959.014-.588,0-.765-.139-.73-.731.058-1.018.031-2.04.039-3.061" transform="translate(-1.01 -2.423)" fill="#4a8ccc"/>
        <path id="Trazado_615250" data-name="Trazado 615250" d="M39.107,75.332c-2.515,0-5.034-.085-7.544.025a11.642,11.642,0,0,1-6.309-1.481,1.746,1.746,0,0,1-1.124-1.819c.07-3.823.037-7.649.018-11.474,0-.471.129-.678.594-.788,2.158-.515,4.317-1.032,6.46-1.606,1.849-.5,3.572.052,5.311.518,5.422,1.451,10.839,2.922,16.264,4.36,1.205.32,2.151.879,2.348,2.2A2.51,2.51,0,0,1,51.791,68q-7.262-1.93-14.52-3.883A1.553,1.553,0,0,0,36.2,64.1a1.2,1.2,0,0,0-.787,1.238,1.229,1.229,0,0,0,.994,1.172c5.043,1.351,10.078,2.739,15.138,4.024a4.939,4.939,0,0,0,6.095-4.752.872.872,0,0,1,.527-.843c3.991-2.288,7.968-4.6,11.957-6.889a2.553,2.553,0,0,1,3.616.836,2.509,2.509,0,0,1-1.076,3.488Q62.213,68.423,51.751,74.451a6.574,6.574,0,0,1-3.37.884c-3.092-.008-6.183,0-9.274,0" transform="translate(-1.515 -3.619)" fill="#f5aa9c"/>
        <path id="Trazado_615251" data-name="Trazado 615251" d="M13.422,66.365c0-3.091.018-6.183-.016-9.274-.007-.606.173-.735.746-.725,2.068.036,4.139.028,6.208,0,.472-.006.622.109.621.605q-.027,9.471,0,18.941c0,.5-.156.609-.624.6-2.068-.023-4.139-.032-6.207,0-.577.01-.75-.126-.743-.727.033-3.143.015-6.288.015-9.431" transform="translate(-0.842 -3.539)" fill="#0f55a2"/>
        <path id="Trazado_615252" data-name="Trazado 615252" d="M8.971,74.137c-1.936.008-3.873.008-5.808.033-.378.006-.487-.114-.486-.488q.017-7.067,0-14.134c0-.374.108-.493.486-.488,1.935.024,3.872.024,5.808.033a1.338,1.338,0,0,1,.252,1.038q.011,6.484,0,12.968a1.338,1.338,0,0,1-.252,1.038" transform="translate(-0.168 -3.708)" fill="#4a8ccc"/>
        <path id="Trazado_615253" data-name="Trazado 615253" d="M9.393,74.137V59.092a.74.74,0,0,1,.078-.011c1.183-.047,1.183-.047,1.183,1.1V72.972c0,1.231,0,1.231-1.261,1.165" transform="translate(-0.59 -3.708)" fill="#256ab3"/>
        <path id="Trazado_615254" data-name="Trazado 615254" d="M25,7.566c0-.413-.014-.67,0-.925a1.222,1.222,0,0,1,1.239-1.259q2.514-.044,5.028,0a1.238,1.238,0,0,1,1.273,1.308c.013.234,0,.47,0,.7.072.01.138.039.16.02,1.356-1.189,1.6-1.18,2.9.118q1.278,1.278,2.556,2.556c1,1,1.008,1.49.056,2.5-.067.07-.132.143-.207.226.215.187.428.1.621.1a1.321,1.321,0,0,1,1.465,1.523c.008,1.44,0,2.882,0,4.322,0,1.285-.392,1.681-1.673,1.708-.124,0-.247.014-.47.026.246.275.44.475.617.689a1.167,1.167,0,0,1-.016,1.694q-1.77,1.839-3.611,3.61a1.166,1.166,0,0,1-1.694-.013c-.2-.166-.379-.353-.564-.529-.051.039-.118.068-.116.094.1,1.621-.524,2.067-2.13,1.987-1.1-.055-2.2-.01-3.3-.01-1.848,0-2.068-.206-2.166-2.034-.047,0-.112-.02-.138,0-1.306,1.163-1.6,1.156-2.839-.084q-1.307-1.3-2.611-2.611c-.99-.993-1-1.479-.037-2.494.067-.07.129-.142.216-.239-2.111-.327-2.111-.327-2.111-2.476q0-1.69,0-3.38c0-1.393.354-1.751,1.752-1.783.1,0,.2-.017.315-.027-.066-.309-.325-.425-.486-.616a1.247,1.247,0,0,1,0-1.82q1.728-1.771,3.5-3.5a1.24,1.24,0,0,1,1.818,0c.176.153.339.321.647.613" transform="translate(-1.096 -0.336)" fill="#1b1818"/>
        <path id="Trazado_615255" data-name="Trazado 615255" d="M28.794,34.735h-8.02c-.157,0-.314,0-.471,0-.933-.016-1.495-.479-1.506-1.242s.552-1.258,1.471-1.273c.445-.007.891,0,1.336,0H37.172c1.146,0,1.73.418,1.743,1.24s-.587,1.276-1.709,1.276H28.794" transform="translate(-1.18 -2.023)" fill="#1b1818"/>
        <path id="Trazado_615256" data-name="Trazado 615256" d="M38.943,38.836c-.307,1.033-.606,1.266-1.664,1.267q-8.422,0-16.844,0c-1.062,0-1.365-.235-1.668-1.261.281-1,.584-1.252,1.593-1.252q8.491,0,16.981,0c1.01,0,1.306.238,1.6,1.246" transform="translate(-1.178 -2.36)" fill="#1b1818"/>
        <path id="Trazado_615257" data-name="Trazado 615257" d="M61.842,26.822q2.511.013,5.021.026c1.119.007,1.58.453,1.582,1.556q.008,4.71,0,9.418c0,1.158-.45,1.6-1.613,1.605q-8.4,0-16.794,0c-1.317,0-1.715-.407-1.721-1.735,0-.313-.016-.626-.025-.94q.014-4.113.026-8.228c0-1.269.412-1.675,1.691-1.678l11.832-.025" transform="translate(-3.032 -1.684)" fill="#1b1818"/>
        <path id="Trazado_615258" data-name="Trazado 615258" d="M67.189,5.345c.712.118,1.223.485,1.242,1.245.021.8-.5,1.19-1.242,1.321L50.24,7.887c-1.323,0-1.944-.422-1.914-1.3.029-.848.608-1.216,1.914-1.217l16.95-.025" transform="translate(-3.034 -0.335)" fill="#1b1818"/>
        <path id="Trazado_615259" data-name="Trazado 615259" d="M67.188,10.714c.9.25,1.322.722,1.252,1.4-.075.719-.558,1.08-1.564,1.169l-16.636-.026c-1.323,0-1.944-.42-1.915-1.3.028-.849.607-1.217,1.913-1.219l16.95-.025" transform="translate(-3.034 -0.673)" fill="#1b1818"/>
        <path id="Trazado_615260" data-name="Trazado 615260" d="M66.406,16.084c.284.01.57,0,.852.033a1.25,1.25,0,0,1-.012,2.5c-.489.039-.982.027-1.473.037l-15.535-.027c-1.3,0-1.885-.373-1.911-1.222-.027-.878.589-1.292,1.917-1.294l16.163-.024" transform="translate(-3.034 -1.01)" fill="#1b1818"/>
        <path id="Trazado_615261" data-name="Trazado 615261" d="M64.83,21.451c.754.009,1.508.007,2.261.031a1.258,1.258,0,1,1-.007,2.507c-1.222.025-2.445.022-3.667.031L50.16,23.994a5.535,5.535,0,0,1-.706-.012A1.244,1.244,0,0,1,48.331,22.7a1.221,1.221,0,0,1,1.126-1.2,4.538,4.538,0,0,1,.706-.013l14.667-.027" transform="translate(-3.034 -1.347)" fill="#1b1818"/>
        <path id="Trazado_615262" data-name="Trazado 615262" d="M18.623,74.354q0,1.9-1.254,1.905c-.837,0-1.262-.636-1.262-1.9,0-.1,0-.21,0-.315.016-.962.529-1.577,1.291-1.55.739.027,1.207.616,1.224,1.543,0,.1,0,.209,0,.314" transform="translate(-1.011 -4.552)" fill="#1a1818"/>
        <path id="Trazado_615263" data-name="Trazado 615263" d="M27.672,24.046c0-.393.014-.786,0-1.179A1.157,1.157,0,0,0,26.9,21.78a1.185,1.185,0,0,0-1.318.227c-.526.512-1.07,1.008-1.554,1.557-.337.382-.532.313-.863-.015-1.354-1.341-1.369-1.332-.012-2.683.56-.558,1.241-1.082.847-2-.381-.891-1.217-.753-1.972-.748h-.079c-2.007,0-2.079-.1-1.828-2.141.04-.326.173-.381.447-.378.733.008,1.467,0,2.2,0a1.211,1.211,0,0,0,1.244-.782,1.254,1.254,0,0,0-.33-1.439c-.49-.471-.941-.989-1.454-1.434-.385-.335-.314-.531.014-.863,1.345-1.356,1.337-1.372,2.687-.01.557.561,1.082,1.242,2,.847.888-.381.753-1.217.747-1.974V9.866c0-2,.1-2.079,2.142-1.826.327.04.381.175.377.448-.008.733.006,1.467,0,2.2a1.208,1.208,0,0,0,.782,1.242,1.256,1.256,0,0,0,1.439-.33c.491-.508,1.019-.983,1.494-1.506.29-.319.461-.261.749.012,1.442,1.368,1.455,1.363.065,2.742-.56.557-1.244,1.079-.847,2,.382.89,1.217.753,1.973.747h.079c2,0,2.079.1,1.827,2.142-.04.327-.176.38-.448.377-.734-.008-1.468,0-2.2,0a1.21,1.21,0,0,0-1.243.782,1.255,1.255,0,0,0,.33,1.439c.509.49.984,1.017,1.508,1.491.321.291.259.462-.013.749-1.368,1.445-1.364,1.456-2.741.068-.557-.56-1.08-1.243-2-.848-.891.381-.752,1.217-.747,1.973v.079c0,2.008-.095,2.079-2.141,1.828-.325-.04-.386-.172-.378-.446.011-.393,0-.786,0-1.179Z" transform="translate(-1.257 -0.498)" fill="#dc091d"/>
        <path id="Trazado_615264" data-name="Trazado 615264" d="M58.636,29.533c2.276,0,4.554.016,6.829-.012.517-.007.654.141.647.65q-.042,3.141,0,6.281c.008.528-.157.642-.657.64q-6.908-.028-13.816,0c-.517,0-.653-.141-.647-.65q.042-3.141,0-6.281c-.008-.527.157-.646.657-.64,2.329.025,4.658.011,6.987.011" transform="translate(-3.202 -1.853)" fill="#ffc000"/>
        <path id="Trazado_615265" data-name="Trazado 615265" d="M25.5,17.183a3.772,3.772,0,1,1,3.693,3.79,3.782,3.782,0,0,1-3.693-3.79" transform="translate(-1.601 -0.843)" fill="#1b1818"/>
        <path id="Trazado_615266" data-name="Trazado 615266" d="M29.385,18.623A1.255,1.255,0,1,1,30.7,17.45a1.276,1.276,0,0,1-1.313,1.173" transform="translate(-1.77 -1.012)" fill="#ffbe00"/>
      </g>
    </g>
  </g>
</svg>
