<svg xmlns="http://www.w3.org/2000/svg" xmlns:xlink="http://www.w3.org/1999/xlink" width="155.182" height="155.183" viewBox="0 0 155.182 155.183">
  <defs>
    <filter id="Elipse_5220" x="0" y="0" width="155.182" height="155.183" filterUnits="userSpaceOnUse">
      <feOffset dy="6" input="SourceAlpha"/>
      <feGaussianBlur stdDeviation="5" result="blur"/>
      <feFlood flood-opacity="0.329"/>
      <feComposite operator="in" in2="blur"/>
      <feComposite in="SourceGraphic"/>
    </filter>
    <clipPath id="clip-path">
      <rect id="Rectángulo_325019" data-name="Rectángulo 325019" width="74.972" height="74.971" fill="none"/>
    </clipPath>
  </defs>
  <g id="Grupo_876545" data-name="Grupo 876545" transform="translate(-358.09 -4303.031)">
    <g transform="matrix(1, 0, 0, 1, 358.09, 4303.03)" filter="url(#Elipse_5220)">
      <circle id="Elipse_5220-2" data-name="Elipse 5220" cx="62.591" cy="62.591" r="62.591" transform="translate(15 9)" fill="#ffb500"/>
    </g>
    <g id="Grupo_876544" data-name="Grupo 876544" transform="translate(399.009 4340.951)">
      <g id="Grupo_876543" data-name="Grupo 876543" transform="translate(0 0)" clip-path="url(#clip-path)">
        <path id="Trazado_615370" data-name="Trazado 615370" d="M58.151,0h1.024a1.455,1.455,0,0,1,1.069,1.613c.022,1.168,0,2.336.009,3.5.007.765.07.815.8.64,1.136-.275,2.282-.5,3.434-.7a3.9,3.9,0,0,1,3.874,1.5c.8.953,1.565,1.927,2.323,2.908a.979.979,0,0,0,1.134.393,2.488,2.488,0,0,1,3.157,1.988V60.412a2.414,2.414,0,0,1-1.59,1.838c-2.994,1.362-6.015,2.665-9.027,3.989-6.359,2.791-12.7,5.616-19.073,8.386a3.181,3.181,0,0,1-1.988.267,9.7,9.7,0,0,0-2.1.079c-2.437-.018-4.875,0-7.312-.012a18.648,18.648,0,0,0-2.686-.018,3.84,3.84,0,0,1-2.014-.567Q16.444,68.739,3.686,63.153c-.735-.323-1.47-.652-2.2-1A2.434,2.434,0,0,1,0,59.711Q.023,44.976.009,30.243q0-8.811,0-17.623a2.558,2.558,0,0,1,3.273-2.74,1.006,1.006,0,0,0,1.075-.415c.723-.92,1.459-1.83,2.191-2.742a4.174,4.174,0,0,1,4.328-1.629c1.053.2,2.1.445,3.148.662.683.141.756.083.765-.633.014-1.169-.012-2.34.012-3.509A1.458,1.458,0,0,1,15.878,0H16.9A28.579,28.579,0,0,1,30.509,5.773a22.4,22.4,0,0,1,6.726,8.421c.067.147.095.333.33.411.344-.569.589-1.2.92-1.785a24.8,24.8,0,0,1,12.54-10.8A25.777,25.777,0,0,1,57.372.108c.259-.036.54.058.779-.108" transform="translate(0 0)" fill="#040506"/>
        <path id="Trazado_615371" data-name="Trazado 615371" d="M37.012,70.312V69.46q0-22.739-.017-45.478a1.077,1.077,0,0,1,.769-1.175q13.5-5.9,26.974-11.857c.95-.418.95-.418.95.65q0,22.593.013,45.185a1.166,1.166,0,0,1-.814,1.291q-13.672,5.967-27.316,12c-.153.067-.308.127-.56.231" transform="translate(6.791 1.963)" fill="#b90b16"/>
        <path id="Trazado_615372" data-name="Trazado 615372" d="M28.345,69.165q-4.939-2.152-9.877-4.306Q10.667,61.436,2.87,58c-.413-.181-.715-.322-.714-.91q.034-22.916.018-45.831c0-.121.013-.243.019-.365.276-.239.5-.013.734.089,4.984,2.2,9.98,4.379,14.96,6.591,3.29,1.462,6.6,2.878,9.884,4.356a1.156,1.156,0,0,1,.766,1.124c.028,2.119.02,4.238,0,6.357a.759.759,0,0,1-.142.482c-.148.1-.279.026-.4-.049-3.029-1.782-6.3-3.062-9.454-4.6-2.934-1.429-5.9-2.787-8.854-4.177-.971-.457-1.946-.9-2.915-1.356-1.194-.56-1.909-.1-1.914,1.218-.013,3.874,0,7.749-.013,11.623a1.481,1.481,0,0,0,.923,1.5c3.069,1.487,6.165,2.914,9.248,4.37C17,39.36,18.98,40.3,20.969,41.217c1.791.828,3.56,1.7,5.352,2.525a1.356,1.356,0,0,0,1.627-.1c.159-.138.368-.3.536.018a27.759,27.759,0,0,1,.027,4.757c-.127.361-.341.244-.57.11-3.035-1.768-6.3-3.056-9.453-4.591-2.844-1.386-5.73-2.69-8.593-4.038-1.034-.488-2.091-.929-3.1-1.464a2.375,2.375,0,0,0-.618-.22,1.022,1.022,0,0,0-1.162.556.933.933,0,0,0,.223,1.193,2.277,2.277,0,0,0,.73.476q7.35,3.419,14.674,6.9c1.76.833,3.528,1.651,5.281,2.5.7.337,1.394.628,2.107.018a.264.264,0,0,1,.434.073A2.463,2.463,0,0,1,28.591,51q.005,8.492,0,16.984c0,.4.085.837-.244,1.176" transform="translate(0.396 1.981)" fill="#e02d2a"/>
        <path id="Trazado_615373" data-name="Trazado 615373" d="M35.262,19.875c0,1.392,0,1.386-1.426,1.4a4.334,4.334,0,0,0-2.281.318c-.23.133-.425-.034-.617-.12q-12.546-5.516-25.1-11.03c-.505-.221-.459-.385-.163-.737.7-.839,1.4-1.688,2.059-2.559a1.437,1.437,0,0,1,1.537-.582,58.11,58.11,0,0,1,23.662,9.831,14.141,14.141,0,0,1,1.33,1.14c1,.943.994.95.994,2.343" transform="translate(1.002 1.198)" fill="#ffd7a2"/>
        <path id="Trazado_615374" data-name="Trazado 615374" d="M36.351,21.436a8.606,8.606,0,0,0-2.9-.2c-.482,0-.6-.122-.689-.627-.4-2.128.968-3.206,2.4-4.274a52.985,52.985,0,0,1,15.075-7.62A47.433,47.433,0,0,1,57.547,6.8c.392-.174.651.033.878.312.752.928,1.5,1.857,2.238,2.8.516.66.466.824-.3,1.158-6.561,2.858-13.1,5.775-19.658,8.633-1.227.534-2.443,1.1-3.68,1.611-.213.088-.414.283-.676.123" transform="translate(6.002 1.237)" fill="#ffd7a2"/>
        <path id="Trazado_615375" data-name="Trazado 615375" d="M28.579,42.906c0-3.51.011-7.02-.011-10.529,0-.546.105-.762.711-.75,2.023.04,4.047.032,6.069,0,.522-.007.646.166.645.664q-.021,10.53,0,21.059c0,.511-.09.737-.673.728q-3.034-.051-6.068,0c-.57.009-.686-.194-.684-.717.02-3.486.011-6.971.011-10.457" transform="translate(5.244 5.806)" fill="#b90b16"/>
        <path id="Trazado_615376" data-name="Trazado 615376" d="M28.33,29.991c.007-2.291.011-4.582.025-6.873a1.118,1.118,0,0,0-.782-1.105c-2.38-1.05-4.752-2.119-7.132-3.171q-4.669-2.063-9.347-4.112-4.241-1.862-8.483-3.722a1.907,1.907,0,0,0-.423-.08c.047-.56.37-.206.542-.133,1.541.663,3.071,1.348,4.608,2.024Q18.787,17.86,30.243,22.892a.84.84,0,0,1,.617.9q-.023,22.959-.014,45.919c0,.168-.014.337-.027.613l-2.48-1.13q.007-9.438.013-18.878a.648.648,0,0,0-.107-.483,1.085,1.085,0,0,1,.083-1.118l0-5.22a1.3,1.3,0,0,1-.219-.967q-.011-5.786,0-11.572a1.316,1.316,0,0,1,.217-.968" transform="translate(0.402 1.949)" fill="#b90b16"/>
        <path id="Trazado_615377" data-name="Trazado 615377" d="M31.716,14.442A57.472,57.472,0,0,0,15.677,6.758c-.662-.2-.888-.454-.839-1.134.064-.92.02-1.849.013-2.773,0-.305,0-.5.428-.4,6.845,1.678,12.586,4.935,16.2,11.257a5.741,5.741,0,0,1,.257.521c.018.037-.007.094-.021.209" transform="translate(2.723 0.445)" fill="#dab78a"/>
        <path id="Trazado_615378" data-name="Trazado 615378" d="M34.262,14.408A19.579,19.579,0,0,1,40.2,7.247,28.374,28.374,0,0,1,50.579,2.481c.46-.117.639-.051.619.476-.038,1.021-.022,2.045,0,3.068a.526.526,0,0,1-.447.612,59.9,59.9,0,0,0-16.484,7.771" transform="translate(6.29 0.446)" fill="#dab78a"/>
        <path id="Trazado_615379" data-name="Trazado 615379" d="M32.257,26.087c-1.046,0-2.093-.014-3.138.007-.413.008-.554-.135-.548-.547.019-1.289.017-2.578,0-3.868,0-.387.084-.568.523-.563q3.174.027,6.349,0c.406,0,.555.121.548.537-.021,1.289-.024,2.579,0,3.868.008.459-.166.582-.6.573-1.045-.024-2.091-.008-3.138-.008" transform="translate(5.245 3.876)" fill="#b90b16"/>
        <path id="Trazado_615380" data-name="Trazado 615380" d="M32.281,61.942c-1.024,0-2.046-.017-3.069.008-.447.011-.658-.085-.644-.6.033-1.266.026-2.534,0-3.8-.007-.431.109-.6.569-.592q3.142.032,6.286,0c.463,0,.574.165.567.594-.022,1.266-.031,2.534,0,3.8.013.515-.2.6-.646.594-1.023-.024-2.046-.007-3.069-.007" transform="translate(5.244 10.457)" fill="#b90b16"/>
        <path id="Trazado_615381" data-name="Trazado 615381" d="M35.784,21.474c2.1-.767,4.1-1.758,6.149-2.642,3.475-1.5,6.936-3.031,10.4-4.552q3.8-1.667,7.595-3.342c.3-.134.509-.252.207-.623-.87-1.07-1.714-2.164-2.564-3.25a.77.77,0,0,0-.592-.225,6.228,6.228,0,0,1,1.561-.307,1.083,1.083,0,0,1,.986.375c.877,1.066,1.736,2.146,2.646,3.275-2.023.9-3.972,1.764-5.925,2.623q-9.768,4.3-19.541,8.582c-.286.125-.583.433-.924.085" transform="translate(6.569 1.198)" fill="#dab78a"/>
        <path id="Trazado_615382" data-name="Trazado 615382" d="M33.461,29.895c-1.483.008-2.966.008-4.449.03-.341.006-.51-.091-.468-.449a1,1,0,0,0,0-.146c-.044-1.9-.044-1.9,1.853-1.9,1.02,0,2.042.014,3.063.022a2.982,2.982,0,0,1,0,2.438" transform="translate(5.238 5.036)" fill="#ffd200"/>
        <path id="Trazado_615383" data-name="Trazado 615383" d="M28.638,55.129a8.379,8.379,0,0,1-.085-2.087c-.017-.34.258-.288.468-.286,1.481.006,2.962.018,4.443.027a3.089,3.089,0,0,1,.157,2.053c-.03.253-.218.357-.473.352-1.5-.036-3.007.071-4.509-.059" transform="translate(5.237 9.684)" fill="#ffd100"/>
        <path id="Trazado_615384" data-name="Trazado 615384" d="M28.621,55.128c1.413,0,2.826-.022,4.238-.007.44.006.615-.134.593-.586-.03-.582-.006-1.168-.006-1.753.243-.009.485-.027.727-.027,2.071,0,2.068,0,1.845,2.062-.027.246-.065.419-.368.414-2.327-.031-4.656.079-6.983-.049-.017,0-.031-.036-.046-.054" transform="translate(5.254 9.684)" fill="#ffb000"/>
        <path id="Trazado_615385" data-name="Trazado 615385" d="M32.7,29.906V27.468c.29-.008.581-.037.87-.02.547.033,1.343-.259,1.584.122.352.555.09,1.361.109,2.059.009.333-.238.3-.457.3L32.7,29.906" transform="translate(6.002 5.025)" fill="#ffb100"/>
        <path id="Trazado_615386" data-name="Trazado 615386" d="M39.1,35.375c0-1.974.022-3.95-.011-5.924A1.543,1.543,0,0,1,40.1,27.867q10.311-4.829,20.61-9.685c1.271-.6,2.108-.064,2.109,1.345,0,3.948-.009,7.9.009,11.848a1.524,1.524,0,0,1-.974,1.543q-10.37,4.861-20.734,9.742c-1.2.562-2.017.037-2.024-1.287-.011-2,0-4,0-6" transform="translate(7.175 3.293)" fill="#040506"/>
        <path id="Trazado_615387" data-name="Trazado 615387" d="M40.432,46.217a1.182,1.182,0,0,1-1.292-.9,1.22,1.22,0,0,1,.736-1.5q1.841-.882,3.69-1.748L60.324,34.18c.154-.072.307-.147.463-.215.878-.391,1.571-.2,1.911.536.315.678.017,1.342-.833,1.745q-6.624,3.132-13.255,6.247-3.661,1.724-7.323,3.443a2.111,2.111,0,0,1-.856.282" transform="translate(7.176 6.199)" fill="#040506"/>
        <path id="Trazado_615388" data-name="Trazado 615388" d="M42.451,50.139a1.239,1.239,0,0,1-1.171-.959,1.157,1.157,0,0,1,.633-1.41c.641-.343,1.313-.632,1.972-.942q6.954-3.279,13.911-6.555c.11-.052.22-.105.334-.147a1.254,1.254,0,0,1,1.707.655,1.216,1.216,0,0,1-.683,1.627c-1.328.657-2.673,1.281-4.013,1.913q-5.832,2.748-11.669,5.492a2.4,2.4,0,0,1-1.02.325" transform="translate(7.568 7.346)" fill="#050506"/>
        <path id="Trazado_615389" data-name="Trazado 615389" d="M27.948,28.646q.11,6.753,0,13.507c-.7.855-1.071.942-2.075.47q-10.313-4.856-20.63-9.709a1.519,1.519,0,0,1-.981-1.535c.017-3.971,0-7.942.009-11.914,0-1.305.852-1.859,2.032-1.307q10.382,4.87,20.759,9.751a2.516,2.516,0,0,1,.883.736" transform="translate(0.783 3.294)" fill="#040506"/>
        <path id="Trazado_615390" data-name="Trazado 615390" d="M27.947,44.469a2.191,2.191,0,0,1-.083,1.118,1.3,1.3,0,0,1-1.85.438q-10.421-4.9-20.836-9.809a1.244,1.244,0,0,1-.784-1.706,1.258,1.258,0,0,1,1.838-.573q10.418,4.893,20.832,9.793a2.493,2.493,0,0,1,.882.739" transform="translate(0.785 6.197)" fill="#050506"/>
        <path id="Trazado_615391" data-name="Trazado 615391" d="M7.677,40.023a1.691,1.691,0,0,1,.81.237l15.492,7.285c.088.041.175.084.262.128a1.274,1.274,0,0,1,.737,1.788,1.255,1.255,0,0,1-1.813.5c-1.935-.907-3.863-1.831-5.8-2.74Q12.355,44.859,7.34,42.509c-.716-.337-1.087-.9-.933-1.472a1.21,1.21,0,0,1,1.27-1.013" transform="translate(1.17 7.347)" fill="#050506"/>
        <path id="Trazado_615392" data-name="Trazado 615392" d="M41.222,39.074c0-2.77.073-5.472-.034-8.167a1.916,1.916,0,0,1,1.369-2.125C48.117,26.235,53.636,23.6,59.172,21a1.406,1.406,0,0,1,.757-.245V22.1c0,2.533,0,5.065,0,7.6,0,.385-.027.669-.458.87Q50.5,34.753,41.546,38.98a2.752,2.752,0,0,1-.324.093" transform="translate(7.56 3.81)" fill="#ec6500"/>
        <path id="Trazado_615393" data-name="Trazado 615393" d="M6.388,20.779c.279-.1.462.064.651.153q8.768,4.121,17.532,8.249c.284.135.543.223.54.653-.022,3-.013,5.995-.017,8.992a1.363,1.363,0,0,1-.073.267L21,37.2c-4.655-2.191-9.306-4.391-13.972-6.559a.958.958,0,0,1-.65-1.038c.027-2.946.013-5.893.013-8.826" transform="translate(1.17 3.809)" fill="#f48207"/>
      </g>
    </g>
  </g>
</svg>
