<svg xmlns="http://www.w3.org/2000/svg" xmlns:xlink="http://www.w3.org/1999/xlink" width="155.183" height="155.183" viewBox="0 0 155.183 155.183">
  <defs>
    <filter id="Elipse_5220" x="0" y="0" width="155.183" height="155.183" filterUnits="userSpaceOnUse">
      <feOffset dy="6" input="SourceAlpha"/>
      <feGaussianBlur stdDeviation="5" result="blur"/>
      <feFlood flood-opacity="0.329"/>
      <feComposite operator="in" in2="blur"/>
      <feComposite in="SourceGraphic"/>
    </filter>
    <clipPath id="clip-path">
      <rect id="Rectángulo_324965" data-name="Rectángulo 324965" width="75.358" height="78.686" fill="none"/>
    </clipPath>
  </defs>
  <g id="Grupo_876562" data-name="Grupo 876562" transform="translate(7610 9593)">
    <g transform="matrix(1, 0, 0, 1, -7610, -9593)" filter="url(#Elipse_5220)">
      <circle id="Elipse_5220-2" data-name="Elipse 5220" cx="62.591" cy="62.591" r="62.591" transform="translate(15 9)" fill="#ffb500"/>
    </g>
    <g id="Grupo_876388" data-name="Grupo 876388" transform="translate(-7566.268 -9558.233)">
      <g id="Grupo_876387" data-name="Grupo 876387" transform="translate(0 0)" clip-path="url(#clip-path)">
        <path id="Trazado_613928" data-name="Trazado 613928" d="M37.511,78.686a9.446,9.446,0,0,1-2.233-1.891c-1.684-1.683-3.376-3.357-5.044-5.056a1.346,1.346,0,0,0-1.065-.443q-8.715.022-17.429.01a2.765,2.765,0,0,1-3.067-3.083c0-4.25-.012-8.5.012-12.75,0-.577-.109-.8-.739-.765-1.072.058-2.15.021-3.224.015A1.965,1.965,0,0,1,2.5,52.514c-.006-2.228,0-4.455,0-6.683q0-14.593.01-29.187a1.684,1.684,0,0,0-.42-1.166A9.556,9.556,0,0,1,7.79.156,9.421,9.421,0,0,1,15.6,2.187a1.3,1.3,0,0,0,.892.315q17.736-.013,35.472-.007c1.86,0,2.56.692,2.562,2.532,0,1.024.013,2.048-.006,3.072-.006.365.106.5.481.484.536-.028,1.075,0,1.612-.01a1.2,1.2,0,0,1,1.358.967,1.18,1.18,0,0,1-1.005,1.545,6.175,6.175,0,0,1-1.217.054c-.922.012-.949.04-.965.935-.013.788.041,1.578-.046,2.364a2.377,2.377,0,0,1-1.512,2.193,5.6,5.6,0,0,1-1.972.219q-16.535,0-33.072,0c-1.469,0-1.457,0-1.472,1.46-.073,6.754.005,13.51-.038,20.264-.221.877-.453,1.065-1.436,1.175a1.492,1.492,0,0,1-1.261-1.357,2.631,2.631,0,0,1-.05-.534c0-5.909-.033-11.818.015-17.726-.015-.331.009-.663,0-1-.012-.779-.065-.824-.779-.547a9.868,9.868,0,0,1-3.437.7,9.761,9.761,0,0,1-4.1-.817c-.5-.217-.632-.081-.624.422.018,1.024-.005,2.047,0,3.071S5,23,6.058,22.994c.925.166,1.419.678,1.381,1.433-.035.715-.578,1.188-1.46,1.3-.331.043-.794-.107-.9.375a2.238,2.238,0,0,0,.075,1.576c.191.347.652.2,1,.239.791.091,1.232.487,1.284,1.171a1.38,1.38,0,0,1-1.087,1.47,3.079,3.079,0,0,1-.452.08c-.865.11-.873.12-.88.987-.007.953-.006.959.951,1.054a1.482,1.482,0,0,1,1.423.98c.307.913-.281,1.653-1.348,1.755-.338.032-.8-.107-.938.326a2.644,2.644,0,0,0,0,1.587c.071.235.317.228.518.247a5.355,5.355,0,0,1,.763.069,1.353,1.353,0,0,1-.032,2.647,2.417,2.417,0,0,1-.3.036C5,40.421,5,40.421,5.014,41.452c.01.936.048.978.983,1.058.966.083,1.444.528,1.447,1.342,0,.77-.543,1.286-1.444,1.393-.313.037-.735-.113-.89.271a2.443,2.443,0,0,0-.03,1.436c.062.285.326.292.554.311a3.1,3.1,0,0,1,.9.16,1.357,1.357,0,0,1,.886,1.454,1.226,1.226,0,0,1-1.173,1.115,3.755,3.755,0,0,1-.536.033c-.481,0-.691.253-.692.719,0,.2.006.41-.007.613-.037.575.19.837.8.832q3.644-.024,7.288,0c.631,0,.853-.241.846-.864-.021-2.2-.009-4.4-.007-6.6a6.324,6.324,0,0,1,.043-1,1.5,1.5,0,0,1,1.447-1.421c.98.236,1.259.537,1.265,1.513q.029,4.474,0,8.947A2.02,2.02,0,0,1,15.5,54.746a9.386,9.386,0,0,1-3.036.191c-1.143.035-1.142.012-1.149,1.158,0,.434.016.868-.012,1.3q0,5.146,0,10.292c0,1.031.066,1.1,1.08,1.1q6.872.006,13.744,0c.754,0,.759-.01.41-.676a4.077,4.077,0,0,1-.374-1.084,1.841,1.841,0,0,0-1.97-1.642c-2.406-.01-4.812,0-7.218-.005a2.037,2.037,0,0,1-.98-.134,1.359,1.359,0,0,1-.772-1.159,1.186,1.186,0,0,1,.636-1.143,2.442,2.442,0,0,1,1.329-.3c1.612,0,3.224.01,4.837-.01.313,0,.782.172.81-.418.025-.521-.265-.813-.871-.822-1.535-.02-3.071,0-4.607-.007a3.987,3.987,0,0,1-1.067-.1,1.326,1.326,0,0,1-1.072-1.318,1.389,1.389,0,0,1,1.212-1.29,4.94,4.94,0,0,1,.843-.036c1.869,0,3.737-.019,5.6.01a2.057,2.057,0,0,0,1.629-.684c.882-.926,1.793-1.827,2.71-2.719a4.038,4.038,0,0,1,5.844.011c.332.321.662.642.978.978a3.3,3.3,0,0,0,2.177,1.287,2.673,2.673,0,0,1,1.564.918q4.4,4.4,8.8,8.8a8.3,8.3,0,0,1,.991,1.362,1.805,1.805,0,0,0,1.379.135c.285-.031.311-.3.318-.532.013-.431.019-.861-.006-1.293q-.008-5.359,0-10.715a4.991,4.991,0,0,1,.2-1.662,2.812,2.812,0,0,1,2.2-2.006c4.168-.056,8.339,0,12.509-.031.255,0,.512,0,.767-.005.4,0,.621-.189.616-.607,0-.127,0-.255,0-.384q0-7.678,0-15.356a.919.919,0,0,0-.081-.6c-.3.056-.447.322-.637.511q-5.9,5.885-11.777,11.783a9.667,9.667,0,0,1-5.257,2.808c-1.31.236-2.615.488-3.927.714a2.562,2.562,0,0,1-2.005-.8,1.834,1.834,0,0,0-1.456-.541q-4.223.016-8.444,0c-1.5,0-1.911-.407-1.912-1.924q-.008-12.212,0-24.422c0-1.511.5-2.062,2.015-2.069q8.522-.04,17.044,0c1.15.005,1.765.513,1.807,1.363a1.2,1.2,0,0,1-1.141,1.364,10.729,10.729,0,0,1-1.688.02,1.028,1.028,0,0,0-1.165.837,7.889,7.889,0,0,1-6.15,5.5,4.593,4.593,0,0,1-.835.112c-1.456.054-2.032-.476-2.05-1.921-.015-1.152,0-2.3-.005-3.455-.006-1-.067-1.061-1.028-1.067q-1.537-.011-3.072,0c-.892.007-.964.072-.965.964q-.011,5.99,0,11.981,0,4.455,0,8.909c0,.991.047,1.037,1.041,1.04,2.151,0,4.3-.016,6.45.012.652.009,1.016-.192,1.066-.874a12.419,12.419,0,0,1,4.688-8.669c1.175-1.02,2.216-2.2,3.326-3.3a1.737,1.737,0,0,1,1.937-.559c1.011.814,1.053,1.489.077,2.493-1.73,1.778-3.5,3.519-5.256,5.268a6.4,6.4,0,0,0-1.237,1.74.825.825,0,0,0,.192,1.094c.63.6,1.232,1.226,1.851,1.837.2.2.391.4.59.6.912.913.937.911,2.077.246a5.009,5.009,0,0,0,1-.826L67.612,29.34c.75-.75.749-.751.006-1.5q-.351-.353-.709-.7c-.841-.861-1.721-1.683-2.538-2.564-.439-.473-.743-.443-1.185,0-2.354,2.386-4.732,4.749-7.1,7.119a6.547,6.547,0,0,1-.738.669,1.342,1.342,0,0,1-1.764-.027,1.453,1.453,0,0,1,.2-2.229c1.853-1.877,3.726-3.731,5.588-5.6,1.065-1.069,2.15-2.121,3.19-3.218q1.2-1.244,2.438-2.447a1.769,1.769,0,0,0,.571-1.363c-.017-1.842-.025-3.684,0-5.526.01-.637-.222-.87-.852-.839-.714.034-1.432.017-2.149,0a1.975,1.975,0,0,1-1.438-.416.842.842,0,0,1-.29-1.027,1.247,1.247,0,0,1,1.4-1.115c1.048.019,2.1-.011,3.146.01a2.693,2.693,0,0,1,2.81,2.868c.018,1.663.014,3.328,0,4.991,0,.406.027.632.538.673a2.165,2.165,0,0,1,1.3.748c1.5,1.507,3.01,3,4.5,4.513a2.453,2.453,0,0,1-.014,3.677Q71.609,29,68.659,31.912a1.439,1.439,0,0,0-.467,1.132c.012,6.757,0,13.515.01,20.271a2.216,2.216,0,0,1-.7,1.7q-7.832,7.8-15.632,15.638a2.035,2.035,0,0,1-1.625.667,8.833,8.833,0,0,0-3.417.1c-.96.391-1.628,1.5-2.424,2.3-1.231,1.231-2.475,2.447-3.684,3.7a6.957,6.957,0,0,1-1.675,1.27Z" transform="translate(0 0)" fill="#040506"/>
        <path id="Trazado_613929" data-name="Trazado 613929" d="M51.1,52.08A2.77,2.77,0,0,0,48.832,55.1q-.008,5.223,0,10.444c0,.28-.026.56-.04.84a7.651,7.651,0,0,1-1.582,1.737c-.135.131-.319.271-.541.116a4.405,4.405,0,0,0-1.077-1.564q-4.3-4.279-8.579-8.58a2.888,2.888,0,0,0-2.27-1.077c-.277.017-.409-.152-.572-.314-.688-.687-1.36-1.393-2.077-2.05a3.862,3.862,0,0,0-5.345.026c-1.08,1.018-2.12,2.079-3.152,3.146a1.246,1.246,0,0,1-1,.416c-2.15-.018-4.3-.012-6.45-.006-.9,0-1.433.422-1.451,1.114-.019.732.535,1.191,1.469,1.194,1.792.005,3.584.027,5.375-.014.553-.013.781.123.772.691a5.65,5.65,0,0,0,.187,1.044H18.746c-.948,0-1.9-.024-2.841.011A1.181,1.181,0,0,0,14.7,63.5a1.165,1.165,0,0,0,1.254,1.075c2.636.012,5.272,0,7.908.007a2.064,2.064,0,0,1,1.788,1.63,3.428,3.428,0,0,0,1.11,2.173h-.876c-4.862,0-9.725-.018-14.589.018-.8.005-.994-.253-.983-1.01.048-3.505.045-7.012.059-10.518.422-.343.924-.216,1.4-.232.584-.02,1.171,0,1.756-.011.632-.007.909-.321.933-.948.02-.574-.144-1.181.232-1.708a2.184,2.184,0,0,0,1.146-2.154c-.018-2.8,0-5.606-.009-8.409,0-1.051-.181-1.276-1.165-1.572a3.952,3.952,0,0,1,0-2.832,1.367,1.367,0,0,0,1.138-.894,3.269,3.269,0,0,0,.036-.842q0-8.873,0-17.747c0-.916.063-.99,1.005-1.009,1.152-.021,2.3-.006,3.455-.006H50.1c.282,0,.564,0,.845,0,1.245-.024,1.413-.2,1.439-1.433a1.881,1.881,0,0,1,.241-1.254A2.279,2.279,0,0,0,53.8,13.608c-.031-.915.024-1.832-.019-2.746-.022-.491.151-.612.6-.576.48.037.966.014,1.448.006.981-.014,1.343-.361,1.438-1.363a11.1,11.1,0,0,0,2.872.146c.278,1.009.489,1.165,1.7,1.248a1.323,1.323,0,0,1,.25,1.014c.007,2.837,0,5.673.006,8.511a2.75,2.75,0,0,1-.233,1.115q-4.306,4.333-8.612,8.669c-.766.771-.811,1.08-.3,2A4.988,4.988,0,0,1,50.88,33.6a1.289,1.289,0,0,0-1.84.238q-2.7,2.731-5.426,5.433a9.166,9.166,0,0,0-2.5,5.384,14.483,14.483,0,0,0-.263,1.506c-.026.632-.286.786-.9.777-2.482-.036-4.965-.029-7.447,0-.5.005-.635-.124-.634-.628q.026-11.022,0-22.043c0-.535.135-.692.674-.677,1.432.037,2.866.034,4.3,0,.485-.011.6.141.591.607-.029,1.458-.017,2.918-.009,4.377.006,1.025.426,1.42,1.459,1.409a7.706,7.706,0,0,0,7.235-5.8c.131-.5.316-.608.764-.589.639.028,1.28.027,1.919,0,.81-.033,1.265-.457,1.275-1.137.01-.7-.479-1.138-1.318-1.178-.1-.005-.2,0-.307,0q-8.638,0-17.275,0c-1.252,0-1.6.349-1.6,1.584V47.667c0,1.226.346,1.569,1.6,1.571q4.49.006,8.983,0a1.047,1.047,0,0,1,.988.409,2.54,2.54,0,0,0,2.1.919c.2.2.186.464.234.713a1.105,1.105,0,0,0,1.364,1.011c1.481-.286,2.986-.459,4.44-.869a8.118,8.118,0,0,0,3.545-2.2q3.952-3.971,7.924-7.922c.3-.295.592-.837,1.031-.655s.26.772.261,1.189q.018,4.529,0,9.058c0,1.143-.01,1.143-1.15,1.143q-4.527,0-9.054,0a1.914,1.914,0,0,0-.759.051" transform="translate(0.705 0.611)" fill="#fff"/>
        <path id="Trazado_613930" data-name="Trazado 613930" d="M15.061,38.345v2.832c-.955.309-1.161.582-1.163,1.612-.005,2.561-.018,5.122.012,7.683.005.537-.137.682-.675.676q-4.032-.043-8.064,0c-.566.006-.731-.187-.65-.7a1.662,1.662,0,0,0,0-.231c.009-.485-.138-1.054.066-1.436.249-.466.886-.12,1.346-.212a1.155,1.155,0,0,0,.106-2.28c-.1-.026-.2-.026-.3-.043-.39-.064-1.045.194-1.128-.149a8.042,8.042,0,0,1-.054-2.206c.01-.21.288-.147.459-.159a4.1,4.1,0,0,0,1.141-.077,1.081,1.081,0,0,0,.8-1.236,1.054,1.054,0,0,0-.987-1c-.451-.074-1.054.189-1.324-.14-.329-.4-.044-1.035-.128-1.558-.122-.764.191-1.013.916-.893a1.527,1.527,0,0,0,.611-.015,1.1,1.1,0,0,0,.918-1.225,1.12,1.12,0,0,0-1.179-1.059c-1.257-.065-1.257-.065-1.257-1.306,0-1.2,0-1.2,1.172-1.26.822-.042,1.256-.427,1.269-1.127s-.465-1.161-1.293-1.2c-1.149-.058-1.149-.058-1.149-1.191v-.23c0-1.053,0-1.053,1.026-1.083.911-.028,1.406-.434,1.417-1.163.012-.783-.455-1.213-1.454-1.15-.8.05-1.138-.191-.988-1a.45.45,0,0,0,0-.076c.011-.459-.138-1.019.072-1.351.244-.386.849-.093,1.292-.158a1.1,1.1,0,0,0,1.075-1.09c.045-.714-.359-1.1-1.25-1.237-1.146-.126-1.146-.126-1.146-1.309,0-.51.015-1.02-.005-1.53-.014-.359.158-.444.468-.4a3.407,3.407,0,0,1,.591.154,11.09,11.09,0,0,0,7.279,0,1.285,1.285,0,0,1,.96-.116c.014,1.047.037,2.094.038,3.141q.006,7.444,0,14.886c0,1.027.208,1.3,1.163,1.61" transform="translate(0.306 1.275)" fill="#3190d1"/>
        <path id="Trazado_613931" data-name="Trazado 613931" d="M18.721,4.6c.817-.015,1.635-.011,2.451-.051.421-.021.529.145.509.533a2.807,2.807,0,0,0,.072,1.065,1.15,1.15,0,0,0,2.239-.167c.1-.462-.255-1.186.2-1.338a7.125,7.125,0,0,1,2.126-.079c.27,0,.238.21.24.386.005.307-.015.615.009.921a1.146,1.146,0,0,0,1.145,1.107,1.128,1.128,0,0,0,1.152-1.092c.119-1.33.119-1.33,1.468-1.33,1.081,0,1.081,0,1.111,1.085.025.864.423,1.33,1.14,1.333.69,0,1.149-.509,1.182-1.319.045-1.1.045-1.1,1.153-1.1h.154c1.13,0,1.13,0,1.205,1.13.052.8.469,1.268,1.14,1.288.712.021,1.151-.447,1.2-1.291a2.823,2.823,0,0,0,0-.537c-.062-.479.144-.655.607-.593.151.019.307,0,.46,0,.458.012,1.017-.13,1.345.083s.078.809.126,1.234a1.17,1.17,0,0,0,1.157,1.1A1.122,1.122,0,0,0,43.467,5.8c.076-1.25.076-1.25,1.324-1.25a1.834,1.834,0,0,0,.307,0c.755-.13,1.015.134.972.938-.069,1.3.636,1.748,1.847,1.279.349.047.362.341.368.578.042,2.018.053,4.036,0,6.053a.71.71,0,0,1-.162.424,1.446,1.446,0,0,1-.823.082q-13.883.006-27.765,0c-1.007,0-1.052-.043-.732-.979a11.3,11.3,0,0,0-.018-7.452c-.1-.285-.253-.573-.059-.88" transform="translate(1.273 0.309)" fill="#3190d1"/>
        <path id="Trazado_613932" data-name="Trazado 613932" d="M48.738,32.678l2.068-1.964a1.41,1.41,0,0,0,1.962-.355c2.532-2.564,5.1-5.094,7.625-7.662.415-.421.65-.462,1.064-.006.875.962,1.811,1.868,2.722,2.8.1.346-.173.514-.361.7Q55.063,34.96,46.3,43.718a7.149,7.149,0,0,1-1.571,1.092A.689.689,0,0,1,44,44.9c-.714-.7-1.412-1.4-2.145-2.076a.572.572,0,0,1-.111-.744,6.374,6.374,0,0,1,1.488-2.205q2.67-2.647,5.318-5.317c.684-.689.708-1.075.185-1.881" transform="translate(2.849 1.53)" fill="#fcbe70"/>
        <path id="Trazado_613933" data-name="Trazado 613933" d="M48.987,50.459c.241-.218.537-.126.809-.127q4.6-.01,9.209-.005c.346,0,.736.1.735-.489-.011-3.577-.005-7.153-.005-10.753-.371.034-.5.313-.689.5-2.629,2.619-5.3,5.2-7.857,7.884a9.886,9.886,0,0,1-6.251,3.025,16.612,16.612,0,0,0-1.8.333c-1.329.309-1.99-.205-1.993-1.574,0-.1,0-.205,0-.308,1.276-.249,2.546-.531,3.828-.738A8.784,8.784,0,0,0,49.9,45.633q6.178-6.2,12.375-12.389a7.347,7.347,0,0,0,.505-.614c.343.147.246.356.246.51q.008,8.335.012,16.67c0,.463-.067.673-.618.67-4.479-.027-8.958-.018-13.437-.02" transform="translate(2.813 2.231)" fill="#b8dbf5"/>
        <path id="Trazado_613934" data-name="Trazado 613934" d="M52.273,15.38c0,.64-.016,1.28.009,1.919.027.66-.365.911-.922,1a4.126,4.126,0,0,1-.69.011q-17.075,0-34.153-.019c-.8,0-.964.23-.96.985.032,5.835.019,11.67.013,17.505,0,.3.1.618-.12.888.009-7.061.031-14.122.007-21.184,0-.795.189-1,.995-1q16.957.042,33.915.021a9.658,9.658,0,0,0,1.907-.131" transform="translate(1.056 1.052)" fill="#a6d2f2"/>
        <path id="Trazado_613935" data-name="Trazado 613935" d="M41.5,67.491q-2.314,2.343-4.625,4.688c-.309.314-.536.26-.828-.033q-4.433-4.455-8.886-8.891c-.309-.308-.388-.569-.048-.9q2.293-2.253,4.576-4.518c.34-.215.528.065.712.248q4.425,4.4,8.824,8.824c.156.156.354.312.276.587" transform="translate(1.839 3.949)" fill="#e44e60"/>
        <path id="Trazado_613936" data-name="Trazado 613936" d="M9.253,16.579A7.2,7.2,0,0,1,7.544,2.407a2.54,2.54,0,0,1,.75-.106,2.426,2.426,0,0,1,2.406.761,8.57,8.57,0,0,1,2.654,4.717c.066.358.236.761-.21,1.022-.321-.188-.354-.548-.489-.841A3.536,3.536,0,0,0,8.538,5.931,3.678,3.678,0,0,0,5.782,9.395a3.668,3.668,0,0,0,2.779,3.442,3.525,3.525,0,0,0,4.1-2.052,2.3,2.3,0,0,1,.418-.811c.417.053.364.393.328.639a8.253,8.253,0,0,1-3.447,5.693,2.764,2.764,0,0,1-.706.272" transform="translate(0.148 0.152)" fill="#56a7df"/>
        <path id="Trazado_613937" data-name="Trazado 613937" d="M43.852,44.7a5.037,5.037,0,0,0,2.194-1.35q8.816-8.779,17.6-17.592a5.892,5.892,0,0,0,.386-.472c.547.493,1.39.947,1.452,1.588.054.56-.827,1.009-1.308,1.49q-8.048,8.071-16.109,16.128a7.131,7.131,0,0,1-2.181,1.53.719.719,0,0,1-.985-.208c-.319-.4-.7-.745-1.047-1.113" transform="translate(2.998 1.729)" fill="#e5a555"/>
        <path id="Trazado_613938" data-name="Trazado 613938" d="M48.613,51.751c.03-.3.261-.262.457-.261q4.462.011,8.924.028c.067.368-.21.557-.419.766q-4.083,4.1-8.181,8.188a1.941,1.941,0,0,1-.412.341c-.28.152-.431.09-.426-.253.035-2.936-.072-5.873.057-8.809" transform="translate(3.319 3.521)" fill="#7bbcea"/>
        <path id="Trazado_613939" data-name="Trazado 613939" d="M12.724,8.77a.591.591,0,0,0,.12-.576A8.454,8.454,0,0,0,9.308,2.514C8.856,2.183,8.366,2.4,7.9,2.305a6.45,6.45,0,0,1,5.014,1.035A7.192,7.192,0,0,1,8.86,16.583a8.339,8.339,0,0,0,3.574-4.393A3.028,3.028,0,0,0,12.724,10a.88.88,0,0,1,0-1.232" transform="translate(0.54 0.148)" fill="#3190d1"/>
        <path id="Trazado_613940" data-name="Trazado 613940" d="M41.192,67.6q-2.369-2.4-4.739-4.8-2.189-2.207-4.4-4.4c-.194-.193-.35-.454-.676-.458.514-.533,1.031-1.061,1.538-1.6.291-.309.538-.294.839.007q4.446,4.462,8.907,8.907c.314.314.359.592.018.91-.5.471-.995.955-1.491,1.433" transform="translate(2.146 3.838)" fill="#e1344a"/>
        <path id="Trazado_613941" data-name="Trazado 613941" d="M48.621,51.749v8.939c.246.115.327-.054.425-.153q4.389-4.385,8.775-8.777A2.049,2.049,0,0,0,58,51.516h2.51L48.434,63.589c.067.021.1-.093.1-.187q0-5.53,0-11.061c0-.2-.054-.412.089-.592" transform="translate(3.312 3.523)" fill="#55a7df"/>
        <path id="Trazado_613942" data-name="Trazado 613942" d="M58.566,20.877q-.011-5.321-.024-10.64c.918-.01,1.835-.009,2.753-.034.4-.011.552.176.552.547q0,3.292,0,6.584a.72.72,0,0,1-.231.544q-1.529,1.5-3.053,3" transform="translate(4.003 0.698)" fill="#a6d2f2"/>
        <path id="Trazado_613943" data-name="Trazado 613943" d="M46.161,13.794q.014-3.308.028-6.616a.471.471,0,0,0-.146-.412,1.782,1.782,0,0,0,.444-1.556c-.044-.459.063-.666.6-.668C49,4.534,49,4.51,49,6.434c0,2.192,0,4.386,0,6.579a1.368,1.368,0,0,1-.09.819,8.161,8.161,0,0,1-2.749-.038" transform="translate(3.148 0.311)" fill="#56a7df"/>
        <path id="Trazado_613944" data-name="Trazado 613944" d="M48.165,13.794l2.749.038a17.163,17.163,0,0,1-3.194.093q-15.144.019-30.29-.006c-.2,0-.4-.02-.7-.036a9.683,9.683,0,0,0,.021-9.266,9.511,9.511,0,0,1,2.1-.021,12.707,12.707,0,0,1,.94,4.762,10.506,10.506,0,0,1-.735,3.877c-.221.532-.073.6.412.591,1.483-.019,2.967-.007,4.451-.007H47.168c.332,0,.665-.015,1-.022" transform="translate(1.144 0.311)" fill="#56a7df"/>
        <path id="Trazado_613945" data-name="Trazado 613945" d="M29.6,57l-3.76,3.573c-.493-.509-1.091-1.106-1.665-1.724a1.612,1.612,0,0,1-.014-2.335c.706-.736,1.455-1.431,2.186-2.144.544-.209.937.152,1.3.418a13.4,13.4,0,0,1,1.846,1.8.37.37,0,0,1,.1.417" transform="translate(1.618 3.714)" fill="#f5f2f3"/>
        <path id="Trazado_613946" data-name="Trazado 613946" d="M13.855,18.837a12.823,12.823,0,0,1-4.6.951,14.762,14.762,0,0,1-4.607-.9v1.6c0,1.241,0,1.241,1.063,1.543-.178.011-.358.005-.533.033-.538.082-.694-.139-.679-.673.04-1.479.022-2.959.031-4.439a.842.842,0,0,1,.075-.2,9.722,9.722,0,0,0,9.253,0Z" transform="translate(0.307 1.146)" fill="#56a7df"/>
        <path id="Trazado_613947" data-name="Trazado 613947" d="M64.638,24.161c-1.057-1.036-2.108-2.077-3.173-3.1-.2-.192-.175-.3.01-.485.75-.732,1.5-1.468,2.22-2.224.25-.262.4-.193.616.026.976,1.009,1.963,2.007,2.946,3.01a.274.274,0,0,1-.044.288,17.254,17.254,0,0,1-2.575,2.49" transform="translate(4.193 1.243)" fill="#ec8591"/>
        <path id="Trazado_613948" data-name="Trazado 613948" d="M14.694,51.093c0,.584,0,1.169-.005,1.753-.009.907-.224,1.131-1.113,1.138-1.066.009-2.134.005-3.2.007a.583.583,0,0,1-.037-.149c.007-.843-.293-1.92.116-2.462.388-.513,1.531-.113,2.341-.156a7.034,7.034,0,0,0,1.9-.132" transform="translate(0.7 3.494)" fill="#a5d2f2"/>
        <path id="Trazado_613949" data-name="Trazado 613949" d="M37.859,24.5c.068-.511-.281-1.327.129-1.719s1.217-.094,1.849-.118c.561-.02,1.124.019,1.684-.011.47-.027.491.129.338.521a5.488,5.488,0,0,1-3.53,3.343c-.4.135-.491.007-.475-.371.021-.51.005-1.02.005-1.646" transform="translate(2.584 1.544)" fill="#d0e5f5"/>
        <path id="Trazado_613950" data-name="Trazado 613950" d="M29.426,57.1c-.971-1.016-1.775-2.241-3.252-2.631a.24.24,0,0,1,.03-.069c1.562-1.724,2.3-2.208,4.226-.091.875.963.916.931-.012,1.85-.324.322-.661.628-.993.941" transform="translate(1.79 3.618)" fill="#dbdadb"/>
        <path id="Trazado_613951" data-name="Trazado 613951" d="M64.426,23.956c.763-1.03,1.819-1.783,2.619-2.779.549.484,1.381.943,1.444,1.574.053.545-.837.988-1.306,1.479-.4.42-.873,1.155-1.251,1.118-.475-.046-.89-.735-1.327-1.152a1.916,1.916,0,0,1-.179-.239" transform="translate(4.405 1.448)" fill="#e86977"/>
        <path id="Trazado_613952" data-name="Trazado 613952" d="M44.34,64.563c.67-.244.99-.89,1.506-1.311.213-.172.411-.361.616-.543a2.816,2.816,0,0,1,.037.525c-.051.485.24,1.26-.156,1.394a2.768,2.768,0,0,1-2-.065" transform="translate(3.032 4.288)" fill="#a3cfef"/>
        <path id="Trazado_613953" data-name="Trazado 613953" d="M41.031,44.05,42.623,45.4c-.058.077-.073.111-.085.11-.562-.029-1.265.531-1.612.071-.245-.327.057-1.065.106-1.534" transform="translate(2.792 3.012)" fill="#484848"/>
        <path id="Trazado_613954" data-name="Trazado 613954" d="M22.675,36.276c0,4.762.005,9.523-.009,14.285,0,.446.04.732.538.917a.988.988,0,0,1,.547,1.225,1,1,0,0,1-1.011.875c-.792.026-1.587.021-2.379.007a1.027,1.027,0,0,1-1.074-.894,1,1,0,0,1,.623-1.253c.471-.155.463-.437.463-.807q-.006-14.362,0-28.724c0-.357-.024-.588-.434-.734a1.024,1.024,0,0,1-.646-1.311A1.058,1.058,0,0,1,20.406,19c.741-.012,1.484-.011,2.226,0a1.07,1.07,0,0,1,1.112.868.988.988,0,0,1-.581,1.271c-.493.17-.494.459-.493.857q.01,7.143,0,14.285" transform="translate(1.317 1.299)" fill="#040506"/>
        <path id="Trazado_613955" data-name="Trazado 613955" d="M12.9,8.548V9.779a3.757,3.757,0,0,1-3.24,3.1,3.668,3.668,0,0,1-3.74-1.829A3.553,3.553,0,0,1,6.033,7.09,3.558,3.558,0,0,1,9.652,5.45a3.642,3.642,0,0,1,3.057,2.438,6.21,6.21,0,0,1,.188.659" transform="translate(0.367 0.37)" fill="#040506"/>
        <path id="Trazado_613956" data-name="Trazado 613956" d="M10.459,9.04A1.435,1.435,0,0,1,9.017,10.5a1.582,1.582,0,0,1-1.5-1.465A1.555,1.555,0,0,1,9.056,7.545a1.418,1.418,0,0,1,1.4,1.495" transform="translate(0.514 0.516)" fill="#1b67b1"/>
      </g>
    </g>
  </g>
</svg>
