<svg xmlns="http://www.w3.org/2000/svg" xmlns:xlink="http://www.w3.org/1999/xlink" width="155.183" height="155.183" viewBox="0 0 155.183 155.183">
  <defs>
    <filter id="Elipse_5222" x="0" y="0" width="155.183" height="155.183" filterUnits="userSpaceOnUse">
      <feOffset dy="6" input="SourceAlpha"/>
      <feGaussianBlur stdDeviation="5" result="blur"/>
      <feFlood flood-opacity="0.329"/>
      <feComposite operator="in" in2="blur"/>
      <feComposite in="SourceGraphic"/>
    </filter>
    <clipPath id="clip-path">
      <rect id="Rectángulo_325016" data-name="Rectángulo 325016" width="74.622" height="74.612" fill="none"/>
    </clipPath>
  </defs>
  <g id="Grupo_876535" data-name="Grupo 876535" transform="translate(-9392.09 7397.969)">
    <g transform="matrix(1, 0, 0, 1, 9392.09, -7397.97)" filter="url(#Elipse_5222)">
      <circle id="Elipse_5222-2" data-name="Elipse 5222" cx="62.591" cy="62.591" r="62.591" transform="translate(15 9)" fill="#ffb500"/>
    </g>
    <g id="Grupo_876534" data-name="Grupo 876534" transform="translate(9436.205 -7359.85)">
      <g id="Grupo_876533" data-name="Grupo 876533" transform="translate(0 0)" clip-path="url(#clip-path)">
        <path id="Trazado_615324" data-name="Trazado 615324" d="M48.408,66.019c-.147,1.614-1.043,2.4-2.768,2.4q-8.7.006-17.395,0-9.681,0-19.361,0A8.59,8.59,0,0,1,1.1,64.076,16.772,16.772,0,0,1,0,61.209V7.141C.3,3.532,3.914.124,7.287,0H48.678a10.853,10.853,0,0,1,3.789,1.638,8.353,8.353,0,0,1,3.492,6.849c.016,8.66-.021,17.319.028,25.98a2.553,2.553,0,0,1-2.354,2.841,2.268,2.268,0,0,1-2.52-2.032,7.294,7.294,0,0,1-.041-1.163q0-12.313,0-24.625c0-.339.009-.68-.014-1.019A3.734,3.734,0,0,0,47.416,4.9c-.267-.012-.535-.007-.8-.007H9.384c-.266,0-.534,0-.8.006A3.726,3.726,0,0,0,4.9,8.579c-.012.266-.009.534-.009.8q0,24.879,0,49.758a6.51,6.51,0,0,0,.077,1.379A3.608,3.608,0,0,0,8.7,63.454q11.767.011,23.533,0H45.27a3.692,3.692,0,0,1,2.347.627,1.837,1.837,0,0,1,.791,1.937" transform="translate(0 -0.001)" fill="#040506"/>
        <path id="Trazado_615325" data-name="Trazado 615325" d="M47.511,65.122a2.434,2.434,0,0,0-2.734-2.307c-12.265,0-24.53-.024-36.794.02a4.005,4.005,0,0,1-4.146-3.212,5.692,5.692,0,0,1-.068-.941q0-25.39,0-50.781A3.9,3.9,0,0,1,7.924,3.767q19.162,0,38.325,0A3.9,3.9,0,0,1,50.4,7.9q.007,12.75,0,25.5c0,1.911.487,2.539,2.333,3.007,0,1.934,0,3.868,0,5.8,0,.255-.1.537.134.757a1.082,1.082,0,0,1-.137.836,7.474,7.474,0,0,0-.508,2.841q.024,7.963,0,15.927c0,.421.114.883-.25,1.238-.275-.451-.054-.952-.181-1.532a6.6,6.6,0,0,1-4.29,2.843" transform="translate(0.897 0.897)" fill="#e7ecef"/>
        <path id="Trazado_615326" data-name="Trazado 615326" d="M42.706,56.936c0-5.719,0-11.437-.02-17.156a8.238,8.238,0,0,1,.914-3.686,7.328,7.328,0,0,1,5.163-3.4,7.057,7.057,0,0,1,7.814,5.695,12.447,12.447,0,0,1,.136,1.883q-.009,7.359,0,14.717a2.347,2.347,0,0,1-1.487,2.363,2.232,2.232,0,0,1-2.493-.471,2.642,2.642,0,0,1-.747-2.122q.011-7.285,0-14.571a4.12,4.12,0,0,0-.121-1.3,2.3,2.3,0,0,0-2.594-1.5,2.224,2.224,0,0,0-1.882,2.17c-.009,5.61-.033,11.22.014,16.83a6.176,6.176,0,0,0,5.855,5.782,6.261,6.261,0,0,0,6.388-5.028,11.087,11.087,0,0,0,.141-1.812q-.007-10.162,0-20.327a2.339,2.339,0,0,1,2.031-2.369,2.408,2.408,0,0,1,2.539,1.642,2.518,2.518,0,0,1,.09.861q0,10.491,0,20.983a10.9,10.9,0,0,1-21.684,1.4c-.03-.192-.037-.386-.054-.58" transform="translate(10.173 7.77)" fill="#040506"/>
        <path id="Trazado_615327" data-name="Trazado 615327" d="M26.223,33.894q8.123,0,16.247,0a2.332,2.332,0,0,1,1.366,4.246,2.645,2.645,0,0,1-1.585.42q-13.186-.011-26.374,0-2.913,0-5.827,0a2.337,2.337,0,1,1,0-4.661q8.087,0,16.174,0" transform="translate(1.795 8.077)" fill="#040506"/>
        <path id="Trazado_615328" data-name="Trazado 615328" d="M26.188,23.86q8.05,0,16.1,0a2.337,2.337,0,1,1,.437,4.654,4.138,4.138,0,0,1-.582.021q-15.954,0-31.909,0A2.483,2.483,0,0,1,7.772,27.2a2.278,2.278,0,0,1,1.952-3.314c1.8-.058,3.594-.022,5.39-.024q5.537,0,11.074,0" transform="translate(1.793 5.683)" fill="#040506"/>
        <path id="Trazado_615329" data-name="Trazado 615329" d="M18.4,18.462c-2.867,0-5.732.016-8.6-.009a2.313,2.313,0,0,1-2.246-1.909A2.347,2.347,0,0,1,8.951,14a2.861,2.861,0,0,1,1.134-.214q8.344,0,16.687,0a2.342,2.342,0,0,1,2.513,2.345,2.29,2.29,0,0,1-2.508,2.326c-2.792.012-5.586,0-8.38,0Z" transform="translate(1.792 3.286)" fill="#040506"/>
      </g>
    </g>
  </g>
</svg>
