<svg xmlns="http://www.w3.org/2000/svg" xmlns:xlink="http://www.w3.org/1999/xlink" width="155.182" height="155.183" viewBox="0 0 155.182 155.183">
  <defs>
    <filter id="Elipse_5220" x="0" y="0" width="155.182" height="155.183" filterUnits="userSpaceOnUse">
      <feOffset dy="6" input="SourceAlpha"/>
      <feGaussianBlur stdDeviation="5" result="blur"/>
      <feFlood flood-opacity="0.329"/>
      <feComposite operator="in" in2="blur"/>
      <feComposite in="SourceGraphic"/>
    </filter>
    <clipPath id="clip-path">
      <rect id="Rectángulo_324961" data-name="Rectángulo 324961" width="81.495" height="82.422" transform="translate(0 0)" fill="none"/>
    </clipPath>
  </defs>
  <g id="Grupo_876559" data-name="Grupo 876559" transform="translate(-358 -2121)">
    <g transform="matrix(1, 0, 0, 1, 358, 2121)" filter="url(#Elipse_5220)">
      <circle id="Elipse_5220-2" data-name="Elipse 5220" cx="62.591" cy="62.591" r="62.591" transform="translate(15 9)" fill="#ffb500"/>
    </g>
    <g id="Grupo_876379" data-name="Grupo 876379" transform="translate(399 2151.38)">
      <g id="Grupo_876378" data-name="Grupo 876378" clip-path="url(#clip-path)">
        <path id="Trazado_613811" data-name="Trazado 613811" d="M4.89,82.422a14.841,14.841,0,0,1-1.607-.653A5.76,5.76,0,0,1,.053,76.85c-.025-.374-.028-.75-.028-1.125Q.024,47.5,0,19.268a7.46,7.46,0,0,1,2.378-5.707C6.235,9.8,10.025,5.97,13.813,2.14A6.747,6.747,0,0,1,18.891.017C32.264.052,45.637.085,59.009,0A6.233,6.233,0,0,1,65.38,6.348c-.064,5.119-.023,10.24-.008,15.36a1.515,1.515,0,0,1-.808,1.526c-1.375.235-1.838-.147-1.844-1.609-.017-4.869-.005-9.738-.007-14.607a8.773,8.773,0,0,0-.044-1.2A3.353,3.353,0,0,0,59.2,2.7c-2.3-.032-4.6-.012-6.9-.006q-16.4.017-32.806.006c-1.637,0-1.638,0-1.638,1.628,0,2.976-.106,5.957.03,8.927A4.586,4.586,0,0,1,13.2,17.99q-4.5,0-9.006,0c-1.454,0-1.456,0-1.456,1.464q0,28.193-.009,56.385A3.519,3.519,0,0,0,4.8,79.488a4.37,4.37,0,0,0,1.815.264q9.851,0,19.7,0,12.945,0,25.889,0c2.384.043,4.77.053,7.153,0a3.4,3.4,0,0,0,3.353-3.43c.035-.535-.028-1.075.049-1.607a1.165,1.165,0,0,1,1.327-1.155c1.022.272,1.234.581,1.28,1.61a7.007,7.007,0,0,1-1.553,5.284,7.748,7.748,0,0,1-3.271,1.965Z" fill="#040506"/>
        <path id="Trazado_613812" data-name="Trazado 613812" d="M64.1,26.444a5.558,5.558,0,0,1,4.057,2.1,2.208,2.208,0,0,0,2.335.652c2.885-.628,5.293.725,6.038,3.345a7.86,7.86,0,0,1,.227,1.341,2.143,2.143,0,0,0,1.452,1.939,4.932,4.932,0,0,1,2.418,7.455,2.143,2.143,0,0,0,.013,2.5,4.917,4.917,0,0,1-2.383,7.4,2.229,2.229,0,0,0-1.514,2.071,4.785,4.785,0,0,1-3.829,4.637c-.5.126-.325.492-.326.769-.013,3.323,0,6.646-.011,9.969a2.663,2.663,0,0,1-2.161,2.865,2.523,2.523,0,0,1-1.9-.416c-1.256-.762-2.5-1.539-3.759-2.3-.208-.126-.374-.368-.673-.3a3.852,3.852,0,0,1-1.272.959c-.893.594-1.836,1.108-2.733,1.7a2.841,2.841,0,0,1-3.184.2,2.884,2.884,0,0,1-1.394-2.719c0-3.03-.028-6.06.019-9.09.014-.919-.143-1.58-1.16-1.756a1.7,1.7,0,0,1-.361-.172,5.142,5.142,0,0,1-2.659-4.234,2.356,2.356,0,0,0-1.6-2.1A5.056,5.056,0,0,1,46.6,49.2a4.2,4.2,0,0,1,.569-2.933,3.026,3.026,0,0,0,.028-3.442A4.876,4.876,0,0,1,49.348,36a3.259,3.259,0,0,0,2.07-2.861,4.659,4.659,0,0,1,2.463-3.656,4.544,4.544,0,0,1,3.621-.537,2.44,2.44,0,0,0,2.677-.765,5.03,5.03,0,0,1,2.73-1.724,2.437,2.437,0,0,1,1.188-.016" fill="#040506"/>
        <path id="Trazado_613813" data-name="Trazado 613813" d="M64.1,26.444A5.66,5.66,0,0,0,60.071,28.6a1.953,1.953,0,0,1-2.1.657,5.4,5.4,0,0,0-4.021.38A1.64,1.64,0,0,1,53.7,28.41c-.011-3.618,0-7.235-.013-10.851a1.2,1.2,0,0,1,.458-.894,2.521,2.521,0,0,0,.715-1.96,22.637,22.637,0,0,1,.008-2.631,4.244,4.244,0,0,0-1.061-3.3,11.736,11.736,0,0,1-.074-2.153,5.4,5.4,0,0,0-1.169-3.572.639.639,0,0,1-.219-.572c2.382-.008,4.764-.05,7.146-.013a3.569,3.569,0,0,1,3.441,3.782c.011,5.169,0,10.337.006,15.506,0,1.181.421,1.555,1.625,1.484a.764.764,0,0,0-.488.851c.046.784.019,1.572.022,2.359" fill="#def1fc"/>
        <path id="Trazado_613814" data-name="Trazado 613814" d="M53.952,59.4a1.533,1.533,0,0,0,.441.165c1.455.07,1.354,1.069,1.342,2.108-.036,3,0,6-.019,9.006a2.6,2.6,0,0,0,4.111,2.339c1.414-.851,2.769-1.8,4.25-2.543q.007,1.541.014,3.083A1.4,1.4,0,0,0,62.924,75.2a7.071,7.071,0,0,1-.1,1.993,3.5,3.5,0,0,1-3.271,2.8c-2.4.04-4.806,0-7.209-.009a.783.783,0,0,1,.252-.65,5.5,5.5,0,0,0,1.1-3.609q0-7.507.005-15.014c0-.443-.1-.919.243-1.3" fill="#def1fc"/>
        <path id="Trazado_613815" data-name="Trazado 613815" d="M53.952,59.4c0,5.38-.014,10.758.008,16.137a5.707,5.707,0,0,1-1.613,4.44c-.267.009-.535.025-.8.025-15.012,0-30.024-.024-45.036.03a3.881,3.881,0,0,1-4.076-4.081c.058-18.986.032-37.971.032-56.956,0-1.294,0-1.294,1.328-1.294q4.624,0,9.249,0c2.93,0,4.624-1.7,4.63-4.645.008-3.272.014-6.543-.01-9.815,0-.572.122-.807.748-.807q16.927.032,33.856.025a.445.445,0,0,1,.08.013,5.779,5.779,0,0,1,1.608,4.768c-.022.509-.017,1.019-.024,1.527a10.226,10.226,0,0,1-1.9-.139q-11.967.031-23.935.014a2.819,2.819,0,0,0-1.7.343,2.344,2.344,0,0,0-1.147,2c-.005,1.338-.027,2.678.006,4.017a2.309,2.309,0,0,0,1.905,2.358,7.648,7.648,0,0,0,2.476.079c.685-.059.95-.631,1.32-1.076a6.383,6.383,0,0,1,3.219,0A2.2,2.2,0,0,0,36.444,17.5q7.575-.041,15.152,0a7.831,7.831,0,0,1,2.137-.115c.315.2.214.523.215.8q.006,5.723,0,11.448a5.238,5.238,0,0,0-2.43,4.281,2.347,2.347,0,0,1-1.69,2.04,4.722,4.722,0,0,0-3.035,4.007,4.353,4.353,0,0,0,.7,2.983,2.73,2.73,0,0,1,0,3.147,4.733,4.733,0,0,0,2.276,6.944,2.662,2.662,0,0,1,1.8,2.484A4.971,4.971,0,0,0,53.952,59.4" fill="#f1f6fb"/>
        <path id="Trazado_613816" data-name="Trazado 613816" d="M4.4,15.265l10.789-10.8c.147.079.027.321.028.508q.013,4.1,0,8.206c0,1.44-.6,2.068-2.04,2.077-2.919.019-5.839.006-8.781.006" fill="#da6a74"/>
        <path id="Trazado_613817" data-name="Trazado 613817" d="M61.785,30.423A2.954,2.954,0,0,1,63.4,29.049,2.377,2.377,0,0,1,66,29.84a4.889,4.889,0,0,0,5.247,1.713A2.3,2.3,0,0,1,74.243,33.7a4.983,4.983,0,0,0,3.3,4.519,2.317,2.317,0,0,1,1.159,3.46,4.989,4.989,0,0,0-.009,5.656,2.318,2.318,0,0,1-1.128,3.47,5.019,5.019,0,0,0-3.325,4.588,2.262,2.262,0,0,1-2.807,2.118,5.17,5.17,0,0,0-5.537,1.78,2.327,2.327,0,0,1-3.6-.037c-.179-.2-.333-.416-.5-.625.166-.479.628-.633.993-.879A15.352,15.352,0,0,0,66.418,54.3c.9-.524,1.951-.711,2.835-1.3,3.465-2.293,5.179-5.512,4.7-9.634a9.566,9.566,0,0,0-6.568-8.2,2.44,2.44,0,0,1-.8-.367,17.713,17.713,0,0,0-4.4-3.9.782.782,0,0,1-.4-.474" fill="#ffc44e"/>
        <path id="Trazado_613818" data-name="Trazado 613818" d="M61.785,30.423a15.879,15.879,0,0,1,4.868,4.235c-.316.263-.663.119-1,.075a9.879,9.879,0,1,0-1.76,19.635,10.672,10.672,0,0,0,2.005-.082.609.609,0,0,1,.6.125,10.3,10.3,0,0,1-2.544,2.709A20.952,20.952,0,0,1,61.8,58.625a5.28,5.28,0,0,0-4.86-1.139,2.336,2.336,0,0,1-2.964-2.212,4.835,4.835,0,0,0-3.238-4.443,2.337,2.337,0,0,1-1.16-3.517,4.977,4.977,0,0,0,.005-5.583,2.32,2.32,0,0,1,1.077-3.484,4.957,4.957,0,0,0,3.328-4.557A2.326,2.326,0,0,1,57,31.556a5.2,5.2,0,0,0,4.785-1.133" fill="#ffd767"/>
        <path id="Trazado_613819" data-name="Trazado 613819" d="M70.088,65.417c0,1.634.005,3.269-.006,4.9,0,.222.129.52-.135.651-.213.1-.388-.124-.563-.23-1.233-.751-2.467-1.5-3.687-2.271a2.7,2.7,0,0,0-3.153.015c-1.236.8-2.506,1.54-3.75,2.325-.5.319-.672.253-.668-.38q.031-5.064,0-10.128c-.005-.559.221-.641.66-.548a2.761,2.761,0,0,1,1.493.876c2.395,2.586,5.35,2.576,7.708-.005a2.972,2.972,0,0,1,.54-.475c.431-.288.954-.586,1.416-.356.362.181.135.737.14,1.122.021,1.5.009,3,.009,4.5" fill="#e79d38"/>
        <path id="Trazado_613820" data-name="Trazado 613820" d="M30.972,16.453c-.273.98-.588,1.253-1.568,1.246a10.359,10.359,0,0,1-2.32-.088,2.57,2.57,0,0,1-2.12-2.475c-.048-1.31-.037-2.624-.017-3.936a2.627,2.627,0,0,1,2.872-2.824q8.556-.01,17.111,0c2.329,0,4.659.013,6.988-.007a4.079,4.079,0,0,1,2.012.406,3.148,3.148,0,0,1,1.178,2.806,22.729,22.729,0,0,0,0,2.871,3.1,3.1,0,0,1-1.376,2.938,5.741,5.741,0,0,1-2.042.326c-5.278-.013-10.557-.006-15.835-.008-1.146,0-1.472-.245-1.716-1.253a1.1,1.1,0,0,1,.931-1.313,5.083,5.083,0,0,1,1.2-.069q7.391,0,14.783,0c1.306,0,1.352-.049,1.357-1.352,0-.616-.011-1.232,0-1.848.011-.586-.259-.832-.828-.8-.187.011-.375,0-.563,0q-10.967,0-21.933,0c-.268,0-.535,0-.8.015a.558.558,0,0,0-.6.6c-.031.911-.026,1.821,0,2.732.011.43.238.618.654.641.509.028,1.02-.023,1.525.051a1.153,1.153,0,0,1,1.114,1.347" fill="#040506"/>
        <path id="Trazado_613821" data-name="Trazado 613821" d="M30.972,16.453a1.3,1.3,0,0,0-1.539-1.171.711.711,0,0,1-.08,0c-1.986-.019-2-.019-1.981-1.968.007-.8-.337-1.842.131-2.336.509-.537,1.57-.171,2.387-.173,7.318-.014,14.636,0,21.954-.023.661,0,.892.155.848.838a23.176,23.176,0,0,0,0,2.814c.04.677-.193.865-.858.862-4.718-.025-9.436-.014-14.153-.014-.7,0-1.4.016-2.091,0a1.267,1.267,0,0,0-1.448,1.174H30.972" fill="#bfdaf4"/>
        <path id="Trazado_613822" data-name="Trazado 613822" d="M25.716,40.121q-7.593,0-15.187,0c-1.106,0-1.719-.842-1.284-1.719a1.245,1.245,0,0,1,1.017-.688,4.206,4.206,0,0,1,.562-.011q14.946,0,29.891,0a2.243,2.243,0,0,1,.871.086,1.137,1.137,0,0,1,.79,1.323,1.071,1.071,0,0,1-1.072.995c-.48.033-.964.015-1.446.015H25.716" fill="#050506"/>
        <path id="Trazado_613823" data-name="Trazado 613823" d="M25.768,46.206c5.036,0,10.071.006,15.107-.008a1.36,1.36,0,0,1,1.45.763,1.217,1.217,0,0,1-.941,1.644,4.234,4.234,0,0,1-.722.019H10.85c-.187,0-.376.013-.562-.005a1.269,1.269,0,0,1-1.186-1.2,1.2,1.2,0,0,1,1.238-1.205c1.553-.022,3.107-.01,4.66-.01H25.768" fill="#040506"/>
        <path id="Trazado_613824" data-name="Trazado 613824" d="M25.823,54.687q7.352,0,14.7,0a5.876,5.876,0,0,1,.881.036,1.061,1.061,0,0,1,.98,1.082,1.072,1.072,0,0,1-.827,1.209,3.262,3.262,0,0,1-.871.1q-14.944.008-29.889,0A2.869,2.869,0,0,1,9.932,57a1.177,1.177,0,0,1,.225-2.287c.292-.029.588-.028.883-.028H25.823" fill="#050607"/>
        <path id="Trazado_613825" data-name="Trazado 613825" d="M25.715,29.241q7.552,0,15.1,0c1.035,0,1.522.346,1.566,1.1a1.09,1.09,0,0,1-.953,1.268,5.174,5.174,0,0,1-.957.066q-14.7,0-29.406,0a4.543,4.543,0,0,1-1.113-.1,1.078,1.078,0,0,1-.838-1.134,1.1,1.1,0,0,1,.934-1.138,4.684,4.684,0,0,1,.879-.056q7.392,0,14.783,0" fill="#070708"/>
        <path id="Trazado_613826" data-name="Trazado 613826" d="M18.119,67.116q3.695,0,7.388,0c.967,0,1.484.415,1.5,1.171s-.565,1.246-1.533,1.246q-7.388.006-14.776,0c-.989,0-1.578-.45-1.6-1.2s.559-1.218,1.549-1.22q3.735-.006,7.469,0" fill="#050506"/>
        <path id="Trazado_613827" data-name="Trazado 613827" d="M66.5,54.411a11.1,11.1,0,0,1-6.364-.6A10.122,10.122,0,0,1,62.582,34.5a12.625,12.625,0,0,1,4.071.155,10.581,10.581,0,0,1,6.115,4.608,10.128,10.128,0,0,1-5.908,15,3.227,3.227,0,0,0-.361.149" fill="#040506"/>
        <path id="Trazado_613828" data-name="Trazado 613828" d="M68.928,50.454a7.659,7.659,0,1,1-.02-11.907,7.214,7.214,0,0,1,1.144,3.447,16.157,16.157,0,0,1-.34,6.737,3.49,3.49,0,0,1-.784,1.723" fill="#e79d38"/>
        <path id="Trazado_613829" data-name="Trazado 613829" d="M68.928,50.454a16.552,16.552,0,0,0-.02-11.907c3.833,2.868,3.844,9.151.02,11.907" fill="#e3911c"/>
      </g>
    </g>
  </g>
</svg>
