<svg xmlns="http://www.w3.org/2000/svg" xmlns:xlink="http://www.w3.org/1999/xlink" width="155.182" height="155.183" viewBox="0 0 155.182 155.183">
  <defs>
    <filter id="Elipse_5221" x="0" y="0" width="155.182" height="155.183" filterUnits="userSpaceOnUse">
      <feOffset dy="6" input="SourceAlpha"/>
      <feGaussianBlur stdDeviation="5" result="blur"/>
      <feFlood flood-opacity="0.329"/>
      <feComposite operator="in" in2="blur"/>
      <feComposite in="SourceGraphic"/>
    </filter>
    <clipPath id="clip-path">
      <rect id="Rect치ngulo_324962" data-name="Rect치ngulo 324962" width="78.257" height="78.213" transform="translate(0 0)" fill="none"/>
    </clipPath>
    <clipPath id="clip-path-2">
      <rect id="Rect치ngulo_324963" data-name="Rect치ngulo 324963" width="30.179" height="34.67" transform="translate(0 0)" fill="none"/>
    </clipPath>
  </defs>
  <g id="Grupo_876560" data-name="Grupo 876560" transform="translate(-732.008 -2121)">
    <g transform="matrix(1, 0, 0, 1, 732.01, 2121)" filter="url(#Elipse_5221)">
      <circle id="Elipse_5221-2" data-name="Elipse 5221" cx="62.591" cy="62.591" r="62.591" transform="translate(15 9)" fill="#ffb500"/>
    </g>
    <g id="Grupo_876384" data-name="Grupo 876384">
      <g id="Grupo_876381" data-name="Grupo 876381" transform="translate(770.471 2153.484)">
        <g id="Grupo_876380" data-name="Grupo 876380" clip-path="url(#clip-path)">
          <path id="Trazado_613830" data-name="Trazado 613830" d="M1.336,31.31c-1.3-.067-1.3-.067-1.3-1.409,0-1.224,0-1.224,1.22-1.224,1.386,0,1.386,0,1.386-1.385,0-1.221,0-1.221-1.223-1.221-1.383,0-1.383,0-1.383-1.388,0-1.218,0-1.218,1.226-1.218,1.38,0,1.38,0,1.38-1.391,0-1.216,0-1.216,1.23-1.216,1.377,0,1.377,0,1.377,1.394,0,1.213,0,1.213,1.232,1.213.706,0,1.414-.031,2.117.01.479.029.633-.148.562-.592a.438.438,0,0,1,0-.081c.023-2.161.022-2.15,2.213-1.954.328.029.431.131.4.432a1.806,1.806,0,0,0,0,.244c.015.619-.211,1.475.106,1.8.419.428,1.28.071,1.945.148.489.057.57-.158.565-.594-.022-1.872,0-3.745-.014-5.618a2.682,2.682,0,0,1,.195-1.106c1.231-2.846,2.466-5.69,3.676-8.546a2.153,2.153,0,0,1,1-1.105Q24.745,3.466,30.229.4A3.017,3.017,0,0,1,31.767,0Q42.395.02,53.021,0a3.027,3.027,0,0,1,1.54.389Q60.008,3.437,65.472,6.45a2.5,2.5,0,0,1,1.149,1.3c1.084,2.559,2.2,5.105,3.272,7.669a2.152,2.152,0,0,0,.843,1.033c2.149,1.41,4.274,2.858,6.433,4.254a2.075,2.075,0,0,1,1.087,1.993c-.064,2.359-.018,4.722-.023,7.083,0,.968-.308,1.318-1.3,1.533a2.147,2.147,0,0,1-1.415.234q-9.849.01-19.7,0-26.452,0-52.906-.005a2.462,2.462,0,0,1-1.578-.233" fill="#040506"/>
          <path id="Trazado_613831" data-name="Trazado 613831" d="M1.336,70.4c-1.3-.068-1.3-.068-1.3-1.37,0-1.221,0-1.221,1.3-1.29a1.671,1.671,0,0,1,1.1-.2c1.764-.006,3.528,0,5.292-.007a1.167,1.167,0,0,0,.848-.145,10.162,10.162,0,0,1-2.222-4.888,17.2,17.2,0,0,1-.011-2.381,10.14,10.14,0,0,1,2.7-5.493,9.975,9.975,0,0,1,5.315-2.675,9.567,9.567,0,0,1,3.817.267,9.354,9.354,0,0,1,6.043,5.2,9.2,9.2,0,0,1,.45,6.521,12.519,12.519,0,0,1-1.825,3.4c.222.272.483.179.709.179q6.385.009,12.771,0c.9,0,.9-.015.566-.848-.514-1.28-.514-1.279-1.858-1.282-2.3,0-4.609.013-6.914-.008-.364-.013-.729,0-1.093-.022a1.38,1.38,0,0,1-.63-.216,1.834,1.834,0,0,1-.783-1.162,1.226,1.226,0,0,1-.024-.263,10.448,10.448,0,0,0-.447-6.21,9.758,9.758,0,0,0-7.092-6.155,9.753,9.753,0,0,0-5.139.129c-.615.185-.991.046-1.169-.59-.088-.312-.216-.612-.331-.917-.4-1.074-.3-1.292.848-1.58a12.011,12.011,0,0,1,3.293-.423c1.175.033,1.176,0,1.2-1.137-.021-.838-.033-1.675,0-2.513.2-1.1.649-1.525,1.725-1.552,1.6-.04,3.193-.032,4.789,0,1.016.018,1.4.335,1.763,1.351.228.977.391,1.967.582,2.952.366,1.658.682,3.327,1.022,4.991a14.479,14.479,0,0,0,.638,2.678,1.422,1.422,0,0,0,1.641,1.075c1.259-.066,2.525-.01,3.789-.019.91-.006.924-.027.994-.947a4,4,0,0,1,.015-.559,1.769,1.769,0,0,0-1.082-2.079c-.3-.084-.527-.723-.913-.111a.816.816,0,0,1-1.338.432c-.253-.147-.523-.262-.786-.39-.971-.532-.987-.572-.511-1.532.595-1.2,1.2-2.4,1.785-3.6.515-.846.617-.877,1.517-.446.24.115.478.232.717.349.877.5.877.5.513,1.442-.248.642.035,1.2.664,1.083,1.707-.315,3.318.258,4.973.4.914.076.954.076.967-.865.006-.458-.012-.917.009-1.376.014-.292,0-.6.3-.8a4.754,4.754,0,0,1,2.486.027c.322.3.255.694.27,1.067.015.352,0,.705,0,1.058,0,1.468-.07,1.414,1.259,1.671a1.534,1.534,0,0,1,1.334,1.524c.039.812.02,1.624.012,2.436-.028.806-.011,1.613-.018,2.421a1.031,1.031,0,0,0,.558.993,8.29,8.29,0,0,1,2.093,1.878,8.442,8.442,0,0,1,1.24,3.065,6.966,6.966,0,0,1-.544,3.736c-.338.795-.313.833.59.835q4.719.007,9.438,0,8.177,0,16.354,0a2.047,2.047,0,0,1,1.336.224c1.3.069,1.3.069,1.3,1.37,0,1.222,0,1.222-1.3,1.29a2.151,2.151,0,0,1-1.416.234q-9.93.01-19.86,0-26.372,0-52.743,0A2.462,2.462,0,0,1,1.336,70.4" fill="#040506"/>
          <path id="Trazado_613832" data-name="Trazado 613832" d="M1.336,70.4c.244-.009.487-.026.731-.026H76.2c.243,0,.487.017.731.026v5.159a.922.922,0,0,1-.737.278c-.3.023-.6.014-.9.014q-36.165,0-72.332-.007c-.551,0-1.151.164-1.632-.285V70.4" fill="#74a540"/>
          <path id="Trazado_613833" data-name="Trazado 613833" d="M1.336,31.31c.244-.009.487-.026.731-.026H76.2c.244,0,.488.017.731.026q0,2.578,0,5.159a.922.922,0,0,1-.737.278c-.3.023-.6.014-.9.014q-36.165,0-72.332-.007c-.551,0-1.151.164-1.632-.285V31.31" fill="#74a540"/>
          <path id="Trazado_613834" data-name="Trazado 613834" d="M24.846,44.3c-.3-1.041-.61-1.287-1.646-1.29q-2.313,0-4.626,0c-1.05,0-1.38.271-1.623,1.3-.837.489-1.75.178-2.627.246-4.031.049-8.062.018-12.092.015a1.042,1.042,0,0,1-.9-.281V39.129a.921.921,0,0,1,.736-.278c.3-.023.6-.014.9-.014q36.167,0,72.332.007c.551,0,1.151-.164,1.632.285v5.159a1.042,1.042,0,0,1-.9.282c-10.123,0-20.246.036-30.369-.013-6.635.044-13.27.015-19.905.015a1.32,1.32,0,0,1-.914-.27" fill="#74a540"/>
          <path id="Trazado_613835" data-name="Trazado 613835" d="M1.336,75.562c.244.009.487.026.731.026H76.2c.244,0,.487-.017.731-.026,1.3.067,1.3.067,1.3,1.409,0,1.224,0,1.224-1.222,1.224q-38.042,0-76.083.018c-.739,0-1.031-.181-.9-.917a1.853,1.853,0,0,0,0-.325c0-1.342,0-1.342,1.3-1.409" fill="#040506"/>
          <path id="Trazado_613836" data-name="Trazado 613836" d="M76.932,39.129c-.244-.009-.487-.026-.731-.026H2.066c-.244,0-.487.017-.731.026-1.3-.068-1.3-.068-1.3-1.37,0-1.221,0-1.221,1.3-1.29.244.009.488.026.731.026H76.2c.244,0,.488-.017.731-.026,1.3.069,1.3.069,1.3,1.37,0,1.222,0,1.222-1.3,1.29" fill="#040506"/>
          <path id="Trazado_613837" data-name="Trazado 613837" d="M45.676,52.127A1.408,1.408,0,0,0,44.292,50.8c-1.253-.171-1.247-.2-1.249-1.516,0-.787-.009-1.573-.014-2.36.849-.489,1.771-.179,2.659-.244.976-.052,1.952-.021,2.928-.022q13.425,0,26.848,0c.5,0,1.043-.134,1.468.285v5.159a1.043,1.043,0,0,1-.9.282c-9.239,0-18.477.037-27.716-.015-.882-.068-1.8.245-2.643-.247" fill="#74a540"/>
          <path id="Trazado_613838" data-name="Trazado 613838" d="M48.363,59.986a7.6,7.6,0,0,0-2.344-1.944.581.581,0,0,1-.372-.63c.019-.888.021-1.777.03-2.666.839-.49,1.754-.178,2.633-.246,1.843-.055,3.686-.021,5.528-.023q10.854-.008,21.709,0c.473,0,.988-.118,1.385.285v5.159a1.042,1.042,0,0,1-.9.282c-7.947,0-15.893.036-23.84-.013-.967.04-1.935.012-2.9.016a1.72,1.72,0,0,1-.928-.224" fill="#74a540"/>
          <path id="Trazado_613839" data-name="Trazado 613839" d="M76.932,67.744q-5.005.013-10.01.026-8.791.006-17.582,0H48.295a7.1,7.1,0,0,0,1.241-5.024c.056-.466.443-.406.737-.426a17.713,17.713,0,0,1,1.928,0c3.443-.052,6.887-.016,10.33-.021q6.548-.01,13.1,0c.447,0,.934-.1,1.3.285v5.159" fill="#74a540"/>
          <path id="Trazado_613840" data-name="Trazado 613840" d="M76.932,46.947c-1.492-.009-2.984-.025-4.476-.026q-13.392-.009-26.785-.012a2.831,2.831,0,0,1,0-2.584q15.142,0,30.286-.012c.325,0,.65-.017.975-.026,1.3.069,1.3.069,1.3,1.37,0,1.222,0,1.222-1.3,1.29" fill="#040506"/>
          <path id="Trazado_613841" data-name="Trazado 613841" d="M76.932,54.766c-2.442-.009-4.883-.023-7.325-.026q-10.665-.009-21.329-.012a2.831,2.831,0,0,1,0-2.584q13.839,0,27.679-.012c.325,0,.65-.017.975-.026,1.3.069,1.3.069,1.3,1.37,0,1.222,0,1.222-1.3,1.29" fill="#040506"/>
          <path id="Trazado_613842" data-name="Trazado 613842" d="M16.951,46.927a.736.736,0,0,1,.012.08c.046,1.218.046,1.245-1.135,1.21a13.65,13.65,0,0,0-3.91.515c-.468.124-.667.313-.438.824.253.562.279,1.334.687,1.69.448.391,1.122-.165,1.708-.252a10.989,10.989,0,0,1,4.412.2.963.963,0,0,1-.017,1.231,13.531,13.531,0,0,0-4.029-.271,50.335,50.335,0,0,1-7.677.22c-1.42.041-2.84.017-4.261.012a1.126,1.126,0,0,1-.967-.28V46.947a1.037,1.037,0,0,1,.895-.28c4.028,0,8.056-.037,12.084.013.88.068,1.8-.245,2.636.247" fill="#74a540"/>
          <path id="Trazado_613843" data-name="Trazado 613843" d="M76.932,62.585q-5.82-.013-11.639-.026-6.552-.01-13.1-.012a2.831,2.831,0,0,1,0-2.584q11.885,0,23.769-.012c.325,0,.65-.017.975-.026,1.3.069,1.3.069,1.3,1.37,0,1.222,0,1.222-1.3,1.29" fill="#040506"/>
          <path id="Trazado_613844" data-name="Trazado 613844" d="M14.35,46.909l-13.014.038c-1.3-.068-1.3-.068-1.3-1.37,0-1.222,0-1.222,1.3-1.29l13.014.038a2.831,2.831,0,0,1,0,2.584" fill="#040506"/>
          <path id="Trazado_613845" data-name="Trazado 613845" d="M6.555,62.556a10.218,10.218,0,0,0,2.668,5.188H1.335V62.585c.823-.528,1.733-.189,2.6-.266.874.062,1.781-.23,2.618.237" fill="#74a540"/>
          <path id="Trazado_613846" data-name="Trazado 613846" d="M9.177,54.742a10.715,10.715,0,0,0-2.623,5.211c-.835.467-1.739.175-2.611.237-.87-.075-1.783.264-2.607-.265V54.766a1.042,1.042,0,0,1,.9-.278c1.432-.006,2.865-.031,4.3.011.883.063,1.8-.245,2.648.243" fill="#74a540"/>
          <path id="Trazado_613847" data-name="Trazado 613847" d="M6.53,54.728l-5.194.038C.034,54.7.034,54.7.034,53.4c0-1.222,0-1.222,1.3-1.29l5.194.038a2.831,2.831,0,0,1,0,2.584" fill="#040506"/>
          <path id="Trazado_613848" data-name="Trazado 613848" d="M1.336,59.925l2.587.038a2.831,2.831,0,0,1,0,2.584l-2.587.038c-1.3-.069-1.3-.069-1.3-1.37,0-1.222,0-1.222,1.3-1.29" fill="#040506"/>
          <path id="Trazado_613849" data-name="Trazado 613849" d="M45.651,22.891c0,1.709-.022,3.419.013,5.128.011.545-.162.677-.684.67-2.117-.028-4.234-.034-6.35,0-.616.011-.827-.123-.816-.788.042-2.659.018-5.318.016-7.978,0-1.247-.415-1.671-1.638-1.672q-4.885,0-9.77,0c-1.19,0-1.622.428-1.624,1.6,0,2.714-.012,5.427.01,8.141,0,.507-.1.7-.66.693q-3.255-.051-6.513,0c-.544.008-.672-.163-.669-.684.022-3.419.015-6.838.005-10.257a2.485,2.485,0,0,1,.225-1.016c1.062-2.46,2.128-4.918,3.169-7.386a1.668,1.668,0,0,1,.773-.88q4.8-2.647,9.586-5.33a1.078,1.078,0,0,1,1.195,0Q36.7,5.824,41.505,8.471a1.572,1.572,0,0,1,.736.813q1.6,3.774,3.231,7.534a2.485,2.485,0,0,1,.183,1.026c-.009,1.682,0,3.365,0,5.047" fill="#d62d35"/>
          <path id="Trazado_613850" data-name="Trazado 613850" d="M45.042,9.13h.816c5.885,0,11.77.01,17.654-.015a1.021,1.021,0,0,1,1.143.728c.766,1.9,1.6,3.781,2.4,5.667-.241.227-.494.13-.718.13-5.911.007-11.823,0-17.735.019a.973.973,0,0,1-1.082-.691c-.782-1.924-1.619-3.826-2.478-5.838" fill="#9c542d"/>
          <path id="Trazado_613851" data-name="Trazado 613851" d="M36.679,2.615q8.051,0,16.1,0a1.015,1.015,0,0,1,.472.079c2.215,1.222,4.425,2.455,6.6,3.827h-.688q-7.529,0-15.057.008A2.524,2.524,0,0,1,42.8,6.193c-2.047-1.155-4.1-2.29-6.158-3.432.011-.049.023-.1.034-.146" fill="#d37b51"/>
          <path id="Trazado_613852" data-name="Trazado 613852" d="M61.945,23.465c1.707,0,3.415.018,5.122-.011.542-.009.773.111.753.71-.042,1.3-.027,2.6,0,3.9.007.442-.114.622-.591.62q-5.284-.024-10.57,0c-.483,0-.591-.19-.584-.626.02-1.328.029-2.656,0-3.983-.013-.532.213-.625.675-.62,1.735.02,3.469.008,5.2.008" fill="#7b421c"/>
          <path id="Trazado_613853" data-name="Trazado 613853" d="M72.593,20.858h-.919c-5.265,0-10.53-.006-15.794.01a2.112,2.112,0,0,1-1.277-.4c-1.024-.706-2.066-1.384-3.129-2.092.2-.2.425-.118.617-.119,5.319-.005,10.637,0,15.956-.013a2,2,0,0,1,1.2.373c1.04.716,2.1,1.408,3.342,2.242" fill="#d37b51"/>
          <path id="Trazado_613854" data-name="Trazado 613854" d="M48.258,19.406c1.743,1.157,3.357,2.233,4.978,3.3.25.165.236.4.236.641,0,1.6-.015,3.195.008,4.793.006.437-.146.551-.561.544-1.354-.021-2.709-.023-4.062,0-.444.008-.613-.1-.609-.58.021-2.842.01-5.684.01-8.7" fill="#ae7749"/>
          <path id="Trazado_613855" data-name="Trazado 613855" d="M72.941,28.677c-.651,0-1.3-.016-1.953.006-.4.014-.59-.083-.582-.535q.036-2.075,0-4.151c-.008-.449.178-.544.578-.539,1.357.018,2.714.026,4.07,0,.487-.01.589.183.581.621-.022,1.329-.031,2.659,0,3.987.014.526-.19.645-.663.622-.677-.032-1.357-.008-2.035-.008" fill="#906238"/>
          <path id="Trazado_613856" data-name="Trazado 613856" d="M27.4,24.714c0-1.085.017-2.171-.009-3.255-.01-.436.089-.6.572-.614,2.044-.045,2.044-.063,2.044,1.983,0,1.736-.015,3.472.009,5.208.007.472-.082.652-.613.657-2,.015-2,.038-2-1.944V24.714" fill="#d37b51"/>
          <path id="Trazado_613857" data-name="Trazado 613857" d="M35.224,24.808c0,1.085-.029,2.171.012,3.254.02.519-.159.623-.644.627-1.975.014-1.975.031-1.975-1.969,0-1.736.023-3.472-.013-5.207-.011-.548.169-.668.686-.668,1.934,0,1.934-.018,1.934,1.929v2.034" fill="#d62d35"/>
          <path id="Trazado_613858" data-name="Trazado 613858" d="M7.133,28.677c-1.906,0-1.888,0-1.9-1.942,0-.508.095-.709.653-.678.92.051,1.845.03,2.767.006.374-.01.5.079.515.484.087,2.131.1,2.13-2.037,2.13" fill="#fff"/>
          <path id="Trazado_613859" data-name="Trazado 613859" d="M14.37,27.417c0,1.26,0,1.26-1.265,1.26-1.342,0-1.342,0-1.342-1.346,0-1.26,0-1.26,1.265-1.26,1.342,0,1.342,0,1.342,1.346" fill="#fff"/>
          <path id="Trazado_613860" data-name="Trazado 613860" d="M22.187,61.256a6.592,6.592,0,0,1-6.454,6.512,6.514,6.514,0,1,1-.079-13.028,6.589,6.589,0,0,1,6.533,6.516" fill="#54606d"/>
          <path id="Trazado_613861" data-name="Trazado 613861" d="M32.664,62.558c-1.14,0-2.28-.016-3.419.008-.417.009-.567-.1-.553-.544a10.135,10.135,0,0,0-.137-2.754c-.127-.521.095-.636.59-.63,1.926.026,3.853.014,5.78.01,1.171,0,1.6-.44,1.6-1.629,0-1.383.013-2.767-.007-4.151-.006-.4.085-.505.5-.44q2.768.43,5.546.792c.379.05.495.181.486.559-.025,1.03-.019,2.062,0,3.093.005.335-.086.453-.449.487a6.322,6.322,0,0,0-5.788,4.581c-.174.508-.378.653-.893.632-1.084-.045-2.17-.014-3.256-.014" fill="#d62d35"/>
          <path id="Trazado_613862" data-name="Trazado 613862" d="M45.671,44.326V46.91l-2.641.014H40.452a1.111,1.111,0,0,1-.759.243c-2.245-.035-4.495.136-6.737-.112a3.549,3.549,0,0,1-.641-.31c-.61-.457-1.034-.339-1.306.366a47.936,47.936,0,0,1-5.571-.013q-.3-1.4-.592-2.8l20.825.024" fill="#628836"/>
          <path id="Trazado_613863" data-name="Trazado 613863" d="M43.045,67.765a3.9,3.9,0,1,1,3.9-3.886,3.987,3.987,0,0,1-3.9,3.886" fill="#54606d"/>
          <path id="Trazado_613864" data-name="Trazado 613864" d="M26.4,65.014l.533.186c.381.028.763.265,1.143-.006q4.068-.015,8.138-.028c.206,0,.419-.045.488.276a7.632,7.632,0,0,0,1.015,2.273H22.178a11.094,11.094,0,0,0,2.309-3.86.951.951,0,0,1,1.26.033.351.351,0,0,1,.006.137c-.147.568.209.806.649.989" fill="#74a540"/>
          <path id="Trazado_613865" data-name="Trazado 613865" d="M25.439,47.1c.128-.182.321-.176.512-.176H30.5a.526.526,0,0,1,.505.189c-.579,1.184-1.118,2.391-1.753,3.545-.367.665-.414,1.1.412,1.341,0,.118-.048.233-.158.251a5.193,5.193,0,0,1-3.067-.119q-.6-2.5-1.005-5.031" fill="#74a540"/>
          <path id="Trazado_613866" data-name="Trazado 613866" d="M32.957,47.054c.227-.22.512-.129.772-.13,2.241-.005,4.482,0,6.723,0-.005.894-.044,1.789,0,2.681.027.55-.186.637-.661.563-1.2-.189-2.411-.332-3.611-.526a2.763,2.763,0,0,0-1.736.105c-.531.252-.849-.33-1.23-.571-.316-.2-.013-.512.114-.706.412-.632.552-1.15-.369-1.416" fill="#74a540"/>
          <path id="Trazado_613867" data-name="Trazado 613867" d="M26.444,52.129A14.934,14.934,0,0,0,29.669,52a3.632,3.632,0,0,1,.643.309c.607.452,1.037.352,1.306-.365a6.816,6.816,0,0,1,.989.053c1.412.458,1.458,1.554,1.288,2.752a1.189,1.189,0,0,1-.91.249q-2.507.017-5.014,0a1.412,1.412,0,0,1-.917-.249,9.191,9.191,0,0,1-.61-2.619" fill="#628836"/>
          <path id="Trazado_613868" data-name="Trazado 613868" d="M23.419,50.738a14.719,14.719,0,0,0-3.492-1.814c-.3-.1-.348-.279-.345-.544.007-.759.012-1.517,0-2.275,0-.328.082-.527.452-.487a.548.548,0,0,0,.081,0c2.316-.14,2.313-.139,2.73,2.133.17.925.355,1.846.576,2.987" fill="#54606d"/>
          <path id="Trazado_613869" data-name="Trazado 613869" d="M6.53,54.728V52.144l7.711.01a10.764,10.764,0,0,0-5.064,2.588L6.53,54.728" fill="#628836"/>
          <path id="Trazado_613870" data-name="Trazado 613870" d="M18.27,52.425q.009-.615.017-1.231a9.985,9.985,0,0,1,6.988,6.152,1,1,0,0,1-1.279,0,9.769,9.769,0,0,0-5.726-4.92" fill="#c00d29"/>
          <path id="Trazado_613871" data-name="Trazado 613871" d="M27.053,54.747l6.841,0c.066,1.3.066,1.3-1.218,1.3H28.935c-1.344,0-1.344,0-1.882-1.295" fill="#74a540"/>
          <path id="Trazado_613872" data-name="Trazado 613872" d="M24,57.345l1.278,0a9.889,9.889,0,0,1,.473,6.541l-1.261-.033a10.056,10.056,0,0,0-.49-6.51" fill="#d62d35"/>
          <path id="Trazado_613873" data-name="Trazado 613873" d="M52.188,59.963v2.584c-.88.12-1.793-.207-2.651.2a10.158,10.158,0,0,0-1.174-2.761l3.825-.023" fill="#628836"/>
          <path id="Trazado_613874" data-name="Trazado 613874" d="M48.278,52.144v2.584l-2.6.018q0-1.309,0-2.62l2.6.018" fill="#628836"/>
          <path id="Trazado_613875" data-name="Trazado 613875" d="M3.923,62.547V59.963l2.631-.009q0,1.3,0,2.6l-2.632-.009" fill="#628836"/>
          <path id="Trazado_613876" data-name="Trazado 613876" d="M14.35,46.909V44.325l2.6-.017q0,1.31,0,2.619l-2.6-.018" fill="#628836"/>
          <path id="Trazado_613877" data-name="Trazado 613877" d="M32.607,51.994a.74.74,0,0,1-.99-.053c.384-.991.66.031.99.053" fill="#709f3d"/>
          <path id="Trazado_613878" data-name="Trazado 613878" d="M26.4,65.014c-.57-.1-1.168-.177-.649-.989a3.356,3.356,0,0,0,.649.989" fill="#b02f2f"/>
          <path id="Trazado_613879" data-name="Trazado 613879" d="M28.078,65.194c-.377.78-.762.027-1.143.006l1.143-.006" fill="#c02b32"/>
          <path id="Trazado_613880" data-name="Trazado 613880" d="M24.8,11.771c0,1.269,0,1.269-1.6,1.269-1,0-1,0-1-1.622,0-.986,0-.986,1.643-.985.964,0,.964,0,.964,1.338" fill="#040506"/>
          <path id="Trazado_613881" data-name="Trazado 613881" d="M40.437,11.709c0,1.331,0,1.331-1.54,1.33-1.068,0-1.068,0-1.067-1.641,0-.966,0-.966,1.663-.965.944,0,.944,0,.944,1.276" fill="#040506"/>
          <path id="Trazado_613882" data-name="Trazado 613882" d="M31.3,5.221c1.316,0,1.316,0,1.316,1.555,0,1.052,0,1.052-1.657,1.051-.951,0-.951,0-.95-1.676,0-.93,0-.93,1.291-.93" fill="#040506"/>
          <path id="Trazado_613883" data-name="Trazado 613883" d="M15.661,65.161a3.908,3.908,0,1,1,3.921-3.919,3.885,3.885,0,0,1-3.921,3.919" fill="#040506"/>
          <path id="Trazado_613884" data-name="Trazado 613884" d="M44.345,63.886A1.3,1.3,0,1,1,43.11,62.56a1.286,1.286,0,0,1,1.235,1.326" fill="#050607"/>
          <path id="Trazado_613885" data-name="Trazado 613885" d="M15.657,59.954a1.3,1.3,0,1,1-1.284,1.3,1.325,1.325,0,0,1,1.284-1.3" fill="#c7dbe9"/>
        </g>
      </g>
      <g id="Grupo_876383" data-name="Grupo 876383" transform="translate(821 2204)">
        <g id="Grupo_876382" data-name="Grupo 876382" clip-path="url(#clip-path-2)">
          <path id="Trazado_613886" data-name="Trazado 613886" d="M10.825.862a2.855,2.855,0,0,1,.968.151A1.224,1.224,0,0,0,12.94.8a3.281,3.281,0,0,1,4.315.015,1.224,1.224,0,0,0,1.115.209,3.3,3.3,0,0,1,3.968,1.638,1.233,1.233,0,0,0,1,.648,3.33,3.33,0,0,1,2.977,2.979,1.258,1.258,0,0,0,.667,1.031,3.3,3.3,0,0,1,1.63,3.94,1.244,1.244,0,0,0,.22,1.144,3.283,3.283,0,0,1-.009,4.288,1.248,1.248,0,0,0-.218,1.147,3.312,3.312,0,0,1-1.624,3.945,1.269,1.269,0,0,0-.667,1.029A3.177,3.177,0,0,1,24.732,25.3c-.232.137-.187.2-.041.36q2.625,2.85,5.242,5.708a.613.613,0,0,1,.165.78c-.174.3-.457.3-.764.237q-3.464-.752-6.927-1.5a.292.292,0,0,0-.4.2c-.425,1.026-.867,2.045-1.308,3.064-.263.611-.691.677-1.14.179q-2.125-2.36-4.243-4.728c-.185-.208-.28-.208-.465,0-1.338,1.5-2.689,3-4.035,4.493-.078.086-.154.174-.233.259-.426.46-.851.4-1.1-.173-.438-1.008-.882-2.013-1.3-3.03-.106-.261-.221-.311-.486-.253q-3.457.76-6.922,1.5a.581.581,0,0,1-.7-.249A.591.591,0,0,1,.22,31.4c1.74-1.893,3.472-3.794,5.217-5.683.189-.2.236-.28-.046-.451a3.122,3.122,0,0,1-1.525-2.412,1.387,1.387,0,0,0-.746-1.129,3.276,3.276,0,0,1-1.711-3.056,3.177,3.177,0,0,1,.155-.854A1.2,1.2,0,0,0,1.353,16.7a3.282,3.282,0,0,1,0-4.315,1.233,1.233,0,0,0,.217-1.116A3.305,3.305,0,0,1,3.2,7.3a1.264,1.264,0,0,0,.656-1.035A3.32,3.32,0,0,1,6.79,3.319a1.36,1.36,0,0,0,1.123-.754,3.3,3.3,0,0,1,2.912-1.7" fill="#040506"/>
          <path id="Trazado_613887" data-name="Trazado 613887" d="M19.411,27.106a3.62,3.62,0,0,1-.856-.142,2.238,2.238,0,0,0-1.916.368,2.272,2.272,0,0,1-3.11-.01,2.225,2.225,0,0,0-1.95-.364,2.222,2.222,0,0,1-2.793-1.146,2.255,2.255,0,0,0-1.771-1.145,2.2,2.2,0,0,1-2.042-2.034,2.333,2.333,0,0,0-1.215-1.84,2.168,2.168,0,0,1-1.11-2.651,2.393,2.393,0,0,0-.429-2.167A2.146,2.146,0,0,1,2.23,13.1a2.39,2.39,0,0,0,.427-2.167,2.176,2.176,0,0,1,1.1-2.657A2.312,2.312,0,0,0,4.972,6.443,2.207,2.207,0,0,1,7.031,4.425,2.248,2.248,0,0,0,8.8,3.281a2.215,2.215,0,0,1,2.787-1.159,2.274,2.274,0,0,0,1.979-.383,2.252,2.252,0,0,1,3.053.011,2.253,2.253,0,0,0,1.978.38A2.225,2.225,0,0,1,21.39,3.281a2.254,2.254,0,0,0,1.771,1.144A2.2,2.2,0,0,1,25.2,6.458,2.308,2.308,0,0,0,26.416,8.3a2.168,2.168,0,0,1,1.111,2.65,2.4,2.4,0,0,0,.428,2.168,2.148,2.148,0,0,1-.008,2.87,2.383,2.383,0,0,0-.429,2.166,2.182,2.182,0,0,1-1.1,2.659A2.308,2.308,0,0,0,25.2,22.647a2.192,2.192,0,0,1-2.02,2.016,2.316,2.316,0,0,0-1.878,1.266,2.2,2.2,0,0,1-1.894,1.177" fill="#ffc750"/>
          <path id="Trazado_613888" data-name="Trazado 613888" d="M13.986,28.893l-3.754,4.17c-.39-.909-.767-1.785-1.144-2.662-.05-.117-.1-.236-.149-.352a.594.594,0,0,0-.782-.394q-2.8.6-5.6,1.209c-.088.019-.179.02-.334.037.484-.532.928-1.019,1.373-1.5,1.052-1.15,2.107-2.3,3.154-3.451a.337.337,0,0,1,.423-.1,1.413,1.413,0,0,1,.74.7,3.288,3.288,0,0,0,2.937,1.684,3.1,3.1,0,0,0,.925-.149,1.207,1.207,0,0,1,1.178.222,4.213,4.213,0,0,0,1.038.6" fill="#f19d2e"/>
          <path id="Trazado_613889" data-name="Trazado 613889" d="M27.869,30.911q-1.443-.309-2.885-.617c-1-.214-1.992-.432-2.989-.644a.59.59,0,0,0-.766.421q-.587,1.356-1.167,2.714c-.035.082-.073.162-.123.272L16.192,28.9a5.281,5.281,0,0,0,1.173-.691,1.1,1.1,0,0,1,.965-.142,3.312,3.312,0,0,0,4-1.644,1.324,1.324,0,0,1,.36-.42c.4-.283.54-.264.871.1q2.061,2.251,4.126,4.5l.228.252-.042.063" fill="#f19d2e"/>
          <path id="Trazado_613890" data-name="Trazado 613890" d="M26.259,14.57a11.172,11.172,0,1,1-11.146-11.2,11.169,11.169,0,0,1,11.146,11.2" fill="#040506"/>
          <path id="Trazado_613891" data-name="Trazado 613891" d="M19.207,23.691a9.286,9.286,0,0,1-4.733.889,9.775,9.775,0,0,1-6.748-3.2,9.652,9.652,0,0,1-2.633-7.733,9.945,9.945,0,0,1,7.831-8.908,9.457,9.457,0,0,1,6.283.663,10.01,10.01,0,0,1,4.476,6.081,10.39,10.39,0,0,1,.426,3.2A10.935,10.935,0,0,1,21.2,22.079a7.794,7.794,0,0,1-2,1.612" fill="#fff"/>
          <path id="Trazado_613892" data-name="Trazado 613892" d="M19.207,23.691c.455-.409.979-.73,1.423-1.159a11.4,11.4,0,0,0,1.826-2.259A10.439,10.439,0,0,0,23.939,15.9,11,11,0,0,0,21.685,7.7a10.016,10.016,0,0,0-2.272-2.125c-.076-.052-.171-.081-.206-.178A9.512,9.512,0,0,1,23.3,8.754a10.047,10.047,0,0,1-3.806,14.823c-.092.045-.19.076-.286.114" fill="#f0efef"/>
          <path id="Trazado_613893" data-name="Trazado 613893" d="M22.906,10.543a15.635,15.635,0,0,1-7.433,12.806.65.65,0,0,1-.775,0A15.547,15.547,0,0,1,7.612,13.265a14.263,14.263,0,0,1-.343-3.075c0-.461.194-.66.645-.673a7.963,7.963,0,0,0,6.143-3.006q.256-.307.519-.612a.594.594,0,0,1,1.023,0A12.812,12.812,0,0,0,17.543,7.9a7.961,7.961,0,0,0,4.512,1.614c.737.033.857.146.851.892v.14" fill="#040506"/>
          <path id="Trazado_613894" data-name="Trazado 613894" d="M8.408,10.846c-.076-.255.141-.233.288-.247a9.152,9.152,0,0,0,2.524-.617A9,9,0,0,0,14.854,7.3c.206-.251.289-.211.477.012a8.937,8.937,0,0,0,5.991,3.264c.448.051.45.049.41.547a14.369,14.369,0,0,1-4.474,9.439,14.493,14.493,0,0,1-1.9,1.528.413.413,0,0,1-.551-.012,14.427,14.427,0,0,1-6.075-8.94c-.085-.373-.152-.751-.2-1.129s-.079-.762-.119-1.161" fill="#538b23"/>
          <path id="Trazado_613895" data-name="Trazado 613895" d="M19.556,12.309a.6.6,0,0,1-.214.458q-2.739,2.739-5.478,5.475a.563.563,0,0,1-.912-.008q-1.066-1.054-2.121-2.122a.559.559,0,0,1-.013-.886q.508-.528,1.036-1.036a.564.564,0,0,1,.888,0c.017.016.033.033.051.048.22.184.378.563.634.54.217-.019.41-.344.606-.541q1.656-1.65,3.307-3.3c.422-.421.661-.42,1.087,0,.305.3.608.609.913.913a.6.6,0,0,1,.216.457" fill="#040506"/>
          <path id="Trazado_613896" data-name="Trazado 613896" d="M18.2,12.3c-.068.076-.11.128-.157.175Q15.81,14.7,13.581,16.937c-.125.125-.2.148-.33.008-.369-.387-.749-.764-1.135-1.134-.129-.124-.1-.2.012-.306s.184-.181.3-.027a2.44,2.44,0,0,0,.2.2c.755.755.814.754,1.58-.012q1.738-1.739,3.479-3.475c.065-.064.113-.211.244-.136a1.808,1.808,0,0,1,.268.241" fill="#ffe083"/>
        </g>
      </g>
    </g>
  </g>
</svg>
