<svg id="Grupo_876492" data-name="Grupo 876492" xmlns="http://www.w3.org/2000/svg" xmlns:xlink="http://www.w3.org/1999/xlink" width="105.415" height="112.24" viewBox="0 0 105.415 112.24">
  <defs>
    <clipPath id="clip-path">
      <rect id="Rectángulo_325001" data-name="Rectángulo 325001" width="105.415" height="112.24" fill="none"/>
    </clipPath>
  </defs>
  <g id="Grupo_876491" data-name="Grupo 876491" transform="translate(0 0)" clip-path="url(#clip-path)">
    <path id="Trazado_614924" data-name="Trazado 614924" d="M73.176,93.555c-2.148-1.228-1.642-3.159-1.214-4.976a1.878,1.878,0,0,0-.708-2.174,16.183,16.183,0,0,1-1.566-1.53,2.391,2.391,0,0,1-.556-2.529,2.189,2.189,0,0,1,2.082-1.672c2.432.025,4-.921,4.7-3.337a2.222,2.222,0,0,1,2.273-1.564,2.259,2.259,0,0,1,2.371,1.584,4.221,4.221,0,0,0,4.6,3.306,2.217,2.217,0,0,1,2.178,1.7,2.311,2.311,0,0,1-.744,2.675c-1.791,1.334-2.673,2.877-1.834,5.175.542,1.485-.279,2.549-1.5,3.34H81.5a7.644,7.644,0,0,1-2.268-1.03,1.485,1.485,0,0,0-1.823-.056,9.141,9.141,0,0,1-2.486,1.086Z" transform="translate(17.012 18.686)" fill="#040506"/>
    <path id="Trazado_614925" data-name="Trazado 614925" d="M57.035,93.561c-1.705-1.012-2.1-1.743-1.588-3.69.456-1.743.36-3.185-1.305-4.232a3.8,3.8,0,0,1-.85-.845,2.515,2.515,0,0,1,1.49-4.131,1.445,1.445,0,0,1,.327-.027c2.239.075,3.755-.814,4.378-3.088a2.376,2.376,0,0,1,1.823-1.719,2.245,2.245,0,0,1,2.806,1.33,4.542,4.542,0,0,0,4.9,3.535,2.456,2.456,0,0,1,1.429,4.144c-2.18,1.537-2.743,3.417-1.909,5.96.411,1.255-.633,2.107-1.642,2.764H65.364a7.734,7.734,0,0,1-2.567-1.1,1.57,1.57,0,0,0-1.647-.009,11.206,11.206,0,0,1-2.582,1.113Z" transform="translate(12.99 18.68)" fill="#040506"/>
    <path id="Trazado_614926" data-name="Trazado 614926" d="M40.68,93.555c-1.69-1.065-2.048-1.667-1.543-3.6.491-1.877.3-3.385-1.452-4.473a2.839,2.839,0,0,1-.549-.532,2.39,2.39,0,0,1-.636-2.6,2.288,2.288,0,0,1,2.187-1.693c2.341.021,3.863-.9,4.548-3.217a2.51,2.51,0,0,1,4.733.006c.691,2.312,2.211,3.231,4.546,3.21A2.281,2.281,0,0,1,54.7,82.353a2.111,2.111,0,0,1-.657,2.573c-2.15,1.491-2.6,3.33-1.829,5.776.418,1.314-.572,2.215-1.675,2.853H49.009a12.231,12.231,0,0,1-2.676-1.161,1.423,1.423,0,0,0-1.442,0,12.221,12.221,0,0,1-2.675,1.161Z" transform="translate(8.962 18.686)" fill="#040506"/>
    <path id="Trazado_614927" data-name="Trazado 614927" d="M41.053,90.381c.982-.531,1.975-1.045,2.942-1.6a.792.792,0,0,1,.9,0c.971.553,1.966,1.068,2.951,1.6Z" transform="translate(10.124 21.859)" fill="#fdfcfd"/>
    <path id="Trazado_614928" data-name="Trazado 614928" d="M57.4,90.382c.974-.535,1.961-1.045,2.913-1.614a.886.886,0,0,1,1,.074c.955.52,1.917,1.028,2.876,1.541Z" transform="translate(14.156 21.859)" fill="#fdfdfd"/>
    <path id="Trazado_614929" data-name="Trazado 614929" d="M73.753,90.387a28.019,28.019,0,0,1,2.986-1.673.567.567,0,0,1,.62-.011,23.534,23.534,0,0,1,2.969,1.684Z" transform="translate(18.188 21.853)" fill="#fdfdfd"/>
    <path id="Trazado_614930" data-name="Trazado 614930" d="M55.759,90.11c-.494,1.41-.868,1.68-2.413,1.683-3.579,0-7.159.021-10.738-.015-.711-.007-.911.177-.9.9.036,3.8,0,7.6.025,11.4a2.777,2.777,0,0,1-1.541,2.886c-1.255.572-2.225.029-3.144-.831-1.572-1.472-3.211-2.873-4.773-4.357-.551-.522-.888-.62-1.491-.04-1.607,1.541-3.3,2.989-4.942,4.5a2.606,2.606,0,0,1-3.073.723,2.673,2.673,0,0,1-1.46-2.809c.034-2.411-.016-4.823.025-7.233.014-.792-.1-.971-.944-.7A15.4,15.4,0,0,1,.512,85.176C-.9,79.5.628,74.512,4.716,70.338a1.407,1.407,0,0,0,.48-1.581A43.062,43.062,0,0,1,3.93,57.817C3.9,53.908,3.952,50,3.913,46.091a4.45,4.45,0,0,1,2.736-4.422c7.557-3.722,15.078-7.518,22.623-11.263a1.4,1.4,0,0,0,.925-1.465c-.039-6.138-.022-12.275-.021-18.414,0-2.3.773-3.073,3.079-3.074,1.205,0,2.413-.037,3.616.015.646.029.787-.2.768-.8-.042-1.35-.031-2.7-.009-4.055A2.381,2.381,0,0,1,40.293,0Q71.52,0,102.75,0A2.319,2.319,0,0,1,105.4,2.487c.016.292,0,.585,0,.878q0,38.8,0,77.6a4.875,4.875,0,0,1-.173,1.842,2.482,2.482,0,0,1-2.541,1.533c-1.315.01-2.63.031-3.944-.01-.617-.019-.831.163-.809.8.046,1.24.022,2.483.012,3.726-.019,2.068-.868,2.937-2.927,2.938q-16.38.013-32.762,0c-1.44,0-1.823-.3-2.3-1.682-.219-1.055.424-1.55,1.258-1.887a5.638,5.638,0,0,1,2.164-.228q14.346,0,28.691,0c.365,0,.731-.016,1.095,0,.74.027,1.07-.317,1.046-1.051-.014-.4,0-.8,0-1.205q0-26.56,0-53.123a14.4,14.4,0,0,1,.042-1.751,2.093,2.093,0,0,1,1.823-2.011c1.427.076,1.975.586,2.1,1.97.049.547.027,1.1.027,1.643q0,22.9.006,45.794c0,2.255-.38,2.341,2.476,2.274.622-.015.947-.28.96-.921.007-.4.016-.8.016-1.2V5.66c0-2.015,0-2.017-2.073-2.017H47.9a11.96,11.96,0,0,1-1.419-.03c-1.384.027-2.769.02-4.154,0-.767-.007-1.1.267-1.129,1.08-.084,2.426-.111,2.422,2.3,2.426.984,0,1.967-.017,2.952.01A16.788,16.788,0,0,1,48.2,7.1H93.857c.547,0,1.1-.019,1.642.024a2.609,2.609,0,0,1,2.7,2.822q.056,6.3,0,12.594c-.016,1.673-.567,2.234-2.088,2.316a2.138,2.138,0,0,1-1.866-2.425c-.056-2.447-.012-4.894-.02-7.341,0-.949-.022-1.9,0-2.847.022-.849-.358-1.2-1.182-1.152-.4.021-.8,0-1.2,0H40.8a13.931,13.931,0,0,1-1.531-.029c-1.456.019-2.915.027-4.372,0-.855-.017-1.149.344-1.147,1.171q.021,8.366,0,16.733A1.629,1.629,0,0,0,34.8,30.58c1.51.729,3,1.5,4.5,2.243,2.484,1.237,4.98,2.453,7.441,3.735a7.222,7.222,0,0,0,3.459.829q15.337-.039,30.673-.014a5.6,5.6,0,0,1,2.057.216,1.931,1.931,0,0,1,1.391,2,1.971,1.971,0,0,1-1.854,1.709,13.651,13.651,0,0,1-1.532.032c-8.1,0-16.208,0-24.374.07a5.237,5.237,0,0,1,2.66,2.981c.247.635.807.662,1.37.664,1.9.006,3.8,0,5.7,0a9.223,9.223,0,0,1,1.2.04,1.736,1.736,0,0,1,1.723,1.538A1.968,1.968,0,0,1,67.925,48.8a4.032,4.032,0,0,1-1.511.2c-1.9.007-3.8-.011-5.7.009-1.184.012-1.288.136-1.316,1.34-.05,2.15-.05,2.152,2.147,2.152q9.8,0,19.609,0a6.147,6.147,0,0,1,1.634.113,1.9,1.9,0,0,1,0,3.724,6.535,6.535,0,0,1-1.743.116q-10.025,0-20.047.011c-.516,0-1.259-.231-1.46.408a3.877,3.877,0,0,0,.066,2.781c.217.467.856.293,1.316.293q7.45.015,14.9.006c1.9,0,3.8,0,5.7,0a4.642,4.642,0,0,1,1.305.123A1.967,1.967,0,0,1,84.3,62.02a1.988,1.988,0,0,1-1.719,1.845,9.846,9.846,0,0,1-1.422.042H60.782c-1.724,0-1.737,0-2,1.678-.287,1.816-.649,1.832,1.567,1.821a8.753,8.753,0,0,1,2.5.183,1.867,1.867,0,0,1,1.54,2.178c-.12.987-.737,1.523-1.9,1.573-1.313.056-2.629.035-3.943.012A1.4,1.4,0,0,0,57,72.441c-.194.627-.482,1.222-.718,1.835-.194.506-.022.765.521.788.365.015.731.012,1.1.012H81.124a10.217,10.217,0,0,1,1.422.042,1.988,1.988,0,0,1,1.748,1.819,1.888,1.888,0,0,1-1.462,1.931,6.546,6.546,0,0,1-1.957.162c-8.4,0-16.8.024-25.2-.021a3.127,3.127,0,0,0-2.925,1.449A36.383,36.383,0,0,1,45.913,88c1.566.027,2.893,0,4.22.016a33.674,33.674,0,0,1,3.721.062c1.34.162,1.928.828,1.9,2.034" transform="translate(0 0)" fill="#040506"/>
    <path id="Trazado_614931" data-name="Trazado 614931" d="M31.455,8.658c.364-.012.728-.035,1.092-.035q26.59,0,53.181-.026c1,0,1.25.246,1.233,1.235-.065,3.5,0,7.006-.037,10.508A2.014,2.014,0,0,0,88.514,22.6a.559.559,0,0,1,.4.576,18.249,18.249,0,0,1,0,3.11.558.558,0,0,1-.4.575c-1.348.516-1.576.871-1.576,2.486q0,27.832.024,55.666c0,1.021-.185,1.324-1.275,1.319-10.334-.049-20.669-.03-31-.027-1.567,0-1.891.237-2.387,1.682H48.089c-.5-1.449-.823-1.68-2.388-1.683-2.685,0-5.372,0-8.312,0,1.557-1.512,3-2.776,4.278-4.2a35.774,35.774,0,0,0,3.761-4.829,1.437,1.437,0,0,1,1.411-.739q13.585.03,27.168.01a3.232,3.232,0,0,0,1.3-.135A1.539,1.539,0,0,0,76.361,74.7a1.5,1.5,0,0,0-1.42-1.419,10.739,10.739,0,0,0-1.2-.027c-8.29,0-16.579-.014-24.868.016-.946,0-1.192-.192-.674-1.045a7.431,7.431,0,0,0,.482-1.1c.851-2.117.85-2.117,3.179-2.118.986,0,1.973.029,2.957-.014a1.635,1.635,0,1,0,.061-3.269c-1.274-.067-2.556-.042-3.832-.022-.526.009-.7-.1-.566-.679a28.587,28.587,0,0,0,.475-3.019c.06-.534.369-.536.755-.532.914.007,1.826,0,2.739,0h19.5a8.943,8.943,0,0,0,.985-.019,1.517,1.517,0,0,0,1.43-1.411,1.538,1.538,0,0,0-.946-1.682,3.007,3.007,0,0,0-1.395-.184c-7.23,0-14.461-.012-21.691.017-.785,0-1.142-.127-1-1a11.209,11.209,0,0,0,.044-1.75c.006-1.456,0-1.456,1.4-1.456H73.92a7.4,7.4,0,0,0,.985-.017,1.613,1.613,0,0,0,1.466-1.733,1.562,1.562,0,0,0-1.553-1.532c-.29-.026-.583-.009-.876-.009-7.193,0-14.387-.016-21.581.022-.835,0-1.091-.214-1-1.025.121-1.038-.448-2.436.224-3.033.577-.514,1.941-.155,2.958-.161,1.569-.01,3.14-.006,4.71,0a2.227,2.227,0,0,0,1.45-.38,1.567,1.567,0,0,0,.544-1.859,1.515,1.515,0,0,0-1.606-1.063q-3.725,0-7.45,0c-.385,0-.808.115-.905-.487a4.137,4.137,0,0,0-2.812-3.208,4.592,4.592,0,0,1-.558-.318c-.024-.015-.026-.064-.092-.238h.945q12.543,0,25.087,0c1.768,0,2.554-.529,2.522-1.685-.032-1.126-.794-1.622-2.5-1.622q-15.939,0-31.879.016a5.041,5.041,0,0,1-2.391-.578c-2.71-1.392-5.433-2.76-8.152-4.137a2.388,2.388,0,0,1-.358-1.568q0-9.581,0-19.16a2.036,2.036,0,0,1,.35-1.557" transform="translate(7.669 2.12)" fill="#d8eff9"/>
    <path id="Trazado_614932" data-name="Trazado 614932" d="M75.18,81.972a16.51,16.51,0,0,0,1.515-2.605c.709.9.866,2.024,1.734,2.685.906.689,2.047.425,3.21.893-2.051,1.387-2.831,3.21-1.728,5.657-1.252-.35-2.072-1.2-3.2-1.232a2.2,2.2,0,0,1,.042-1.672,2.323,2.323,0,0,0-.891-2.572c-.338-.278-.982-.464-.683-1.154" transform="translate(18.52 19.572)" fill="#ffb800"/>
    <path id="Trazado_614933" data-name="Trazado 614933" d="M75.845,81.457c.136.737.885.9,1.321,1.344a2.011,2.011,0,0,1,.633,1.841c-.118.742-.28,1.475-.423,2.213-1.1.049-1.907.841-3.14,1.274.95-2.4.445-4.29-1.83-5.671,1.268-.444,2.493-.274,3.438-1" transform="translate(17.856 20.088)" fill="#e9a800"/>
    <path id="Trazado_614934" data-name="Trazado 614934" d="M58.748,82.14a16.519,16.519,0,0,0,1.743-2.888c.7,2.456,2.175,3.755,4.838,3.588-1.967,1.518-2.9,3.282-1.679,5.777-1.335-.35-2.153-1.214-3.281-1.22a2.755,2.755,0,0,1,.1-1.7,2.048,2.048,0,0,0-.7-2.322,2.742,2.742,0,0,1-1.022-1.232" transform="translate(14.487 19.544)" fill="#feb800"/>
    <path id="Trazado_614935" data-name="Trazado 614935" d="M59.415,81.569a9.489,9.489,0,0,1,1.81,1.68,1.085,1.085,0,0,1,.3,1.172c-.228.783-.333,1.6-.491,2.4-1.047.079-1.841.794-3.055,1.264.863-2.441.353-4.343-1.936-5.7a16.4,16.4,0,0,0,3.371-.823" transform="translate(13.82 20.115)" fill="#e9a800"/>
    <path id="Trazado_614936" data-name="Trazado 614936" d="M42.639,81.918l1.5-2.671c.689,2.477,2.219,3.747,4.874,3.629a4.326,4.326,0,0,0-1.82,5.7c-1.2-.3-1.962-1.1-3-1.174a1.266,1.266,0,0,1-.121-1.338,2.438,2.438,0,0,0-.884-2.877c-.367-.284-.844-.643-.55-1.27" transform="translate(10.492 19.543)" fill="#feb800"/>
    <path id="Trazado_614937" data-name="Trazado 614937" d="M43.332,81.39a1.318,1.318,0,0,0,.709,1.037,2.641,2.641,0,0,1,.964,3.382,5.247,5.247,0,0,0-.118,1.066c-1.144-.029-1.978.814-3.241,1.23.879-2.427.359-4.3-1.91-5.651,1.361-.41,2.627-.264,3.6-1.065" transform="translate(9.799 20.071)" fill="#e9a800"/>
    <path id="Trazado_614938" data-name="Trazado 614938" d="M38.642,42.273c.516-1.31.353-1.876-.748-2.582-10.334-6.628-24.423.207-25.65,12.417a15.69,15.69,0,0,0,.494,6.169c.3.987.022,1.235-.89,1.139-.217-.022-.436-.012-.654-.017a2.071,2.071,0,0,1-.536-1.283,32.413,32.413,0,0,1-.462-4.99c-.026-5.2-.012-10.4,0-15.6a2.567,2.567,0,0,1,.339-1.78q6.913-3.491,13.827-6.982c1.3-.656,2.61-1.29,3.9-1.966a1.4,1.4,0,0,1,1.426-.026q11.358,5.713,22.743,11.379a1.224,1.224,0,0,1,.809,1.255c-.089,5,.1,10-.142,15A32.725,32.725,0,0,1,42.861,77.034c-1.021.991-2.1,1.917-3.16,2.87a3.756,3.756,0,0,1-.352.247c-.272-.323-.148-.661-.15-.964-.01-3.4.041-6.793-.032-10.187a3.053,3.053,0,0,1,1.139-2.608A16.712,16.712,0,0,0,44.228,46.8c-.662-1.395-1.066-1.608-2.569-1.348-.107.022-.243.034-.305-.044-.886-1.061-1.874-2.033-2.711-3.134" transform="translate(2.51 6.556)" fill="#ffb800"/>
    <path id="Trazado_614939" data-name="Trazado 614939" d="M87.092,28.339a13.414,13.414,0,0,0,0-4.26c1.46-.39,1.725-.709,1.728-2.192q.011-6.186,0-12.37C88.812,7.6,88,6.809,86.075,6.809q-23.8,0-47.605,0c-.4,0-.8-.022-1.2-.035a5.4,5.4,0,0,1,0-4.093c.364-.012.728-.035,1.092-.035q26.726,0,53.452-.026c.965,0,1.178.229,1.177,1.183q-.045,37.69,0,75.377c0,1-.28,1.253-1.208,1.158s-2.205.288-2.748-.194c-.635-.562-.2-1.856-.2-2.829q-.021-23.282-.011-46.563c0-1.723-.212-2.012-1.729-2.411" transform="translate(9.091 0.646)" fill="#fff0d6"/>
    <path id="Trazado_614940" data-name="Trazado 614940" d="M36.541,39.528a15.423,15.423,0,0,1,3.017,3.178,1.962,1.962,0,0,0-.482,2.69,13.525,13.525,0,0,1-9.423,19.1,8.536,8.536,0,0,1-1.191.1,3.874,3.874,0,0,1-3.277-.8,15.425,15.425,0,0,1-6.471-12.249,14.929,14.929,0,0,1,2.752-9.074,13.933,13.933,0,0,1,4.091-4.058,2.54,2.54,0,0,1,2.231-.618,11.443,11.443,0,0,1,6.117,1.875,1.911,1.911,0,0,0,2.635-.155" transform="translate(4.612 9.302)" fill="#5ea31f"/>
    <path id="Trazado_614941" data-name="Trazado 614941" d="M22.995,75a16.177,16.177,0,0,0,2.425-10.22c-.084-.792-.238-1.576-.374-2.45a16.851,16.851,0,0,0,7.146-1.229c.45-.184.607-.02.6.42,0,.146,0,.292,0,.439V87.772c-1.733-1.564-3.262-2.93-4.774-4.313a3.013,3.013,0,0,0-2.224-.992,2.705,2.705,0,0,0-1.741.794c-.324.29-.677.55-1.016.823a1.492,1.492,0,0,1-.36-1.208c-.021-2.133-.014-4.266-.006-6.4A3.89,3.89,0,0,1,22.995,75" transform="translate(5.587 15.051)" fill="#de1c30"/>
    <path id="Trazado_614942" data-name="Trazado 614942" d="M13.692,55.587c6.3-.294,12,5.095,12.316,11.383a12.345,12.345,0,0,1-10.25,12.839,8.434,8.434,0,0,1-2.066.076c-1.789-.546-2.907-1.946-4.1-3.241a.533.533,0,0,1-.04-.78,10.462,10.462,0,0,0,3-1.291,2.128,2.128,0,0,1,2.462-.037,14.417,14.417,0,0,0,1.548.817,2.126,2.126,0,0,0,3.085-2.044,11.485,11.485,0,0,0-.367-2.268,1.642,1.642,0,0,1,.5-1.684c.47-.459.966-.894,1.422-1.365a2.118,2.118,0,0,0-1.077-3.7,7.161,7.161,0,0,0-1.617-.268,2.207,2.207,0,0,1-2.138-1.571,10.447,10.447,0,0,0-.643-1.269c-1.043-1.774-2.816-1.764-3.868.02-.2.345-.369.713-.55,1.072-.855,1.7-2.023,2.206-3.952,1.727-.368-.4-.183-.824-.03-1.22a14.418,14.418,0,0,1,4.818-6.431,4.984,4.984,0,0,1,1.546-.757" transform="translate(1.762 13.705)" fill="#1563ac"/>
    <path id="Trazado_614943" data-name="Trazado 614943" d="M11.595,33.932c0,4.6.036,9.191-.007,13.787a53.82,53.82,0,0,0,.672,9.871,18.031,18.031,0,0,0-4.686,1.4c-.571.285-.716.166-.845-.435a31.852,31.852,0,0,1-.814-6.27c-.064-4.885-.039-9.772-.056-14.659,0-.485-.011-.922.542-1.182,1.74-.819,3.464-1.673,5.195-2.513" transform="translate(1.445 8.368)" fill="#e9a800"/>
    <path id="Trazado_614944" data-name="Trazado 614944" d="M32.5,8.656l0,22.285c-1.687-.829-3.367-1.674-5.066-2.475a.871.871,0,0,1-.553-.93q.015-9.078,0-18.157c0-.525.075-.794.7-.774,1.638.052,3.279.037,4.918.05" transform="translate(6.628 2.122)" fill="#bee3f7"/>
    <path id="Trazado_614945" data-name="Trazado 614945" d="M28.851,37.813a2.917,2.917,0,0,0-1.617.537,14.546,14.546,0,0,0-6.882,10.139,14.572,14.572,0,0,0,5.309,14.453c1.142.957,2.26,1.84,3.864,1.665a8.312,8.312,0,0,1-3.671-.019c-.371-.039-.445-.345-.591-.577a15.524,15.524,0,0,0-8.933-6.8,1.3,1.3,0,0,1-.9-.825c-3.269-7.446,1.532-16.7,9.532-18.33a9.629,9.629,0,0,1,3.889-.242" transform="translate(3.549 9.296)" fill="#4d9c23"/>
    <path id="Trazado_614946" data-name="Trazado 614946" d="M10.635,75.92c.525,1.3,1.677,2.023,2.66,2.9a16.857,16.857,0,0,0,1.491,1.071,12.188,12.188,0,0,1-1.526-24.27,10.7,10.7,0,0,1,1.525-.027,14.643,14.643,0,0,0-5.828,6.59,4.03,4.03,0,0,0-.512,1.759c.01.269-.207.349-.386.462-1.586,1.016-1.744,2.194-.486,3.635a1.658,1.658,0,0,1,.539.911A14.587,14.587,0,0,0,8.987,72.8c-.2,1.436.828,2.224,1.648,3.123" transform="translate(0.669 13.705)" fill="#0056a3"/>
    <path id="Trazado_614947" data-name="Trazado 614947" d="M23.707,72.24q.019,4.54.036,9.079L19.774,85.03v-2.6c0-1.82,0-3.639,0-5.459a1.09,1.09,0,0,1,.413-1.045,18.579,18.579,0,0,0,3.524-3.687" transform="translate(4.875 17.815)" fill="#d80522"/>
    <path id="Trazado_614948" data-name="Trazado 614948" d="M38.272,2.7V6.795c-1.564.012-3.13.007-4.695.046-.516.012-.759-.137-.682-.672a1.045,1.045,0,0,0,0-.108c.025-1.088-.355-2.5.186-3.173.567-.7,2.041-.165,3.117-.214.689-.031,1.382.016,2.073.029" transform="translate(8.086 0.623)" fill="#ffddb4"/>
    <path id="Trazado_614949" data-name="Trazado 614949" d="M55.324,27.572H37.915c-.328,0-.659.017-.985-.015a1.522,1.522,0,0,1-1.518-1.545A1.563,1.563,0,0,1,36.771,24.3a3.044,3.044,0,0,1,.763-.026H73.118a5.747,5.747,0,0,1,.656.009,1.654,1.654,0,0,1,1.543,1.673,1.6,1.6,0,0,1-1.6,1.6c-.728.039-1.46.015-2.189.015h-16.2" transform="translate(8.731 5.985)" fill="#040506"/>
    <path id="Trazado_614950" data-name="Trazado 614950" d="M54.006,15.59q5.365,0,10.729,0a2.135,2.135,0,0,1,1.548.381,1.626,1.626,0,0,1-.46,2.766,3.684,3.684,0,0,1-1.4.16H43.508a7.481,7.481,0,0,1-.767-.012,1.665,1.665,0,0,1-1.687-1.764A1.6,1.6,0,0,1,42.839,15.6c3.722-.021,7.445-.007,11.167-.009" transform="translate(10.123 3.844)" fill="#050607"/>
    <path id="Trazado_614951" data-name="Trazado 614951" d="M62.236,57.718c-2.149,0-4.3.007-6.449,0-1.412-.006-2.13-.555-2.152-1.608s.717-1.694,2.079-1.7c4.372-.015,8.744,0,13.117,0a1.765,1.765,0,0,1,1.942,1.255,1.543,1.543,0,0,1-.722,1.791,2.315,2.315,0,0,1-1.368.266q-3.224.007-6.449,0" transform="translate(13.227 13.415)" fill="#070809"/>
    <path id="Trazado_614952" data-name="Trazado 614952" d="M63.74,36.358c1.42,0,2.84-.016,4.26,0a1.647,1.647,0,1,1,.074,3.281q-4.314.062-8.628,0a1.648,1.648,0,0,1-1.766-1.678c.006-.977.662-1.586,1.8-1.6,1.42-.022,2.84,0,4.26,0" transform="translate(14.224 8.965)" fill="#050607"/>
    <path id="Trazado_614953" data-name="Trazado 614953" d="M34.587,46.724a1.734,1.734,0,0,1-.623,1.387c-2.219,2.221-4.427,4.452-6.662,6.656a1.68,1.68,0,0,1-2.678.011q-2.352-2.293-4.646-4.644c-.874-.894-.913-1.754-.184-2.5a1.677,1.677,0,0,1,2.519.15c1.052,1.011,2.093,2.037,3.093,3.1.421.449.668.459,1.106.009q2.517-2.594,5.106-5.114c.982-.957,2.187-.854,2.775.16a1.366,1.366,0,0,1,.194.785" transform="translate(4.755 11.126)" fill="#040606"/>
    <path id="Trazado_614954" data-name="Trazado 614954" d="M7.235,68.17c-.113-.137-.218-.284-.343-.41-1.846-1.85-1.538-3.593.815-4.6.794-.089,1.587-.2,2.382-.256a.991.991,0,0,0,.891-.674c.323-.691.649-1.381,1.02-2.048,1.027-1.852,3.414-1.972,4.238-.057.865,2.011,2.008,3.159,4.295,3.115a2.076,2.076,0,0,1,1.976,1.637,2.17,2.17,0,0,1-.755,2.554,3.731,3.731,0,0,0-1.532,4.747,2.157,2.157,0,0,1-.924,2.488,2.031,2.031,0,0,1-2.547.133,3.819,3.819,0,0,0-5.172.015,2.331,2.331,0,0,1-1.68.328c-1.566-.764-1.96-1.421-1.824-3.048a1.547,1.547,0,0,1-.1-.745,3.036,3.036,0,0,0-.735-3.176" transform="translate(1.405 14.485)" fill="#040506"/>
    <path id="Trazado_614955" data-name="Trazado 614955" d="M6.942,66.3a2.1,2.1,0,0,1,1.086,2.764,9.7,9.7,0,0,0-.246,1.158,7.377,7.377,0,0,1-.84-3.922" transform="translate(1.698 16.351)" fill="#1460a7"/>
    <path id="Trazado_614956" data-name="Trazado 614956" d="M11.359,64.692a9.6,9.6,0,0,0,1.472-2.344,3.651,3.651,0,0,0,4.218,2.9c-1.786,1.339-2.519,2.8-1.612,4.905L13.311,69.2c-.474-.042-.908-.175-.708-.775a2.555,2.555,0,0,0-.987-3.058.626.626,0,0,1-.257-.674" transform="translate(2.795 15.375)" fill="#feb700"/>
    <path id="Trazado_614957" data-name="Trazado 614957" d="M11.889,64.228a4.706,4.706,0,0,0,.576.638,2.275,2.275,0,0,1,.96,2.885c-.155.388-.151.839.416.985-1.118-.182-2.018.405-3.191,1.047.772-2.071.378-3.63-1.465-4.793a12.946,12.946,0,0,0,2.7-.762" transform="translate(2.265 15.839)" fill="#e8a700"/>
  </g>
</svg>
