<svg id="Grupo_876506" data-name="Grupo 876506" xmlns="http://www.w3.org/2000/svg" xmlns:xlink="http://www.w3.org/1999/xlink" width="118.203" height="118.216" viewBox="0 0 118.203 118.216">
  <defs>
    <clipPath id="clip-path">
      <rect id="Rectángulo_325008" data-name="Rectángulo 325008" width="118.203" height="118.216" fill="none"/>
    </clipPath>
  </defs>
  <g id="Grupo_876505" data-name="Grupo 876505" transform="translate(0 0)" clip-path="url(#clip-path)">
    <path id="Trazado_615103" data-name="Trazado 615103" d="M1.175,103.916A2.566,2.566,0,0,1,0,101.507Q.049,81.78,0,62.054A3.064,3.064,0,0,1,1.03,59.628c1.45-1.375,2.894-2.765,4.235-4.246A3.8,3.8,0,0,1,8.5,54.054c2.6.093,2.6.028,2.6-2.568V34.529c0-2.134.474-2.6,2.653-2.6,2.038,0,4.077-.015,6.114.01a.982.982,0,0,0,1.045-.641,5.346,5.346,0,0,1,4.326-3.032c.482-.057.594-.168.657-.653a5.545,5.545,0,0,1,11.016-.008c.062.472.156.6.649.662A5.2,5.2,0,0,1,41.818,31.2a1.223,1.223,0,0,0,1.339.744c2.116-.031,4.23-.016,6.345-.01,1.588,0,2.2.625,2.2,2.243,0,6.267.02,12.536-.021,18.8,0,.892.205,1.25,1.118,1.112.413-.062.85.034,1.266-.018a3.659,3.659,0,0,1,3.4,1.162c.27.041.561.062.465.467,1.305,1.344,2.584,2.711,3.924,4.02a2.817,2.817,0,0,1,.936,2.226c-.049,2.534,0,5.068-.034,7.6a1.661,1.661,0,0,0,.61,1.378q2.976,2.719,5.908,5.481c1.248,1.177,1.242,2.091.023,3.328-.942.957-1.9,1.9-2.848,2.851-1.362,1.357-2,1.4-3.676.132v1.172c0,5.834-.023,11.669.021,17.5a2.624,2.624,0,0,1-1.173,2.521H49.164c-1.208-.29-1.5-1.191-1.505-2.274-.024-2.881,0-5.761-.013-8.643-.007-1.564-.072-1.637-1.61-1.637q-14.637-.01-29.273,0c-1.538,0-1.6.073-1.611,1.637-.011,2.882.013,5.763-.011,8.643-.01,1.082-.3,1.984-1.507,2.274Z" transform="translate(0 14.246)" fill="#040506"/>
    <path id="Trazado_615104" data-name="Trazado 615104" d="M82.564,37.64a2.569,2.569,0,0,1-2.409,1.175c-7.032-.041-14.066-.02-21.1-.023-1.756,0-2.329-.578-2.331-2.339q0-4.209,0-8.417c0-1.356.373-1.833,1.7-2.182,1.551-.41,3.105-.8,4.715-1.219C62.957,23.712,62.2,22.99,62.2,22c0-.244-.347-.256-.544-.363a5.466,5.466,0,0,1-3.065-4.43c-.047-.452-.226-.513-.586-.636a1.83,1.83,0,0,1-1.3-1.94c.024-2.959.029-5.919,0-8.878a2.023,2.023,0,0,1,1.265-1.99C60.237,2.638,62.5,1.52,64.75.376a2.8,2.8,0,0,1,2.1-.21c1.771.469,3.574.827,5.333,1.333a2.3,2.3,0,0,0,1.85-.207c3.631-1.889,3.257-1.818,6,.946.858.866,1.688,1.759,2.531,2.64V15.491c-.177.213-.094.61-.322.714-1.224.563-1.276,1.8-1.725,2.827a5.2,5.2,0,0,1-2.254,2.549c-.967.527-1.133,1.505-1.525,2.355-.221.478.228.57.558.659,1.188.321,2.387.589,3.574.916a2.082,2.082,0,0,1,1.694,1.517Z" transform="translate(35.585 0)" fill="#040506"/>
    <path id="Trazado_615105" data-name="Trazado 615105" d="M82.564,63.719a2.569,2.569,0,0,1-2.409,1.175c-7.036-.041-14.071-.02-21.1-.023-1.751,0-2.324-.581-2.326-2.345,0-2.807.024-5.613-.013-8.419a1.981,1.981,0,0,1,1.6-2.189c.76-.215,1.5-.511,2.326-.8a11.569,11.569,0,0,1-2.075-6.736,10.769,10.769,0,0,1,3.421-7.776,1.368,1.368,0,0,0,.475-1.481,7.3,7.3,0,0,1,3.016-7.75,7.391,7.391,0,0,1,11.381,7.732,1.108,1.108,0,0,0,.225,1.234c4.23,4.288,4.816,9.218,1.777,14.431a2.058,2.058,0,0,0-.12.33c1.289.667,2.954.589,3.831,2Z" transform="translate(35.585 16.373)" fill="#040506"/>
    <path id="Trazado_615106" data-name="Trazado 615106" d="M57.887,85.418a2.52,2.52,0,0,1-1.177-2.405c.068-2.763.055-5.53.007-8.294a2.138,2.138,0,0,1,1.406-2.244c.561-.239,1.094-.545,1.636-.828.291-.151.677-.2.671-.667-.007-.5-.405-.464-.71-.592a4.626,4.626,0,0,1-2.073-7.133,3.85,3.85,0,0,1,1.984-1.5c.74-.21.83-.615.8-1.252-.037-.959-.016-1.919-.007-2.879a5.46,5.46,0,0,1,5.4-5.424q3.8-.029,7.6,0a5.463,5.463,0,0,1,5.449,5.5,11.827,11.827,0,0,1-.007,1.38c-.156,1.435-.057,2.6,1.66,3.17,1.121.371,1.5,1.637,2.039,2.638V67.19a4.316,4.316,0,0,1-2.454,3.252c-.285.148-.758.192-.7.638.047.384.483.451.78.612.371.2.747.4,1.134.565a2.018,2.018,0,0,1,1.243,1.395V84.264a1.435,1.435,0,0,1-1.154,1.154Z" transform="translate(35.575 32.744)" fill="#040506"/>
    <path id="Trazado_615108" data-name="Trazado 615108" d="M75.07,21.054a3.1,3.1,0,0,0-2.031-1.323c-1.453-.325-2.894-.7-4.383-1.058.164-.908.921-1.592.9-2.555-.008-.386.438-.378.69-.516a5.488,5.488,0,0,0,2.933-4.158c.078-.524.166-.8.724-.9s.8-.656,1.162-1.027Z" transform="translate(43.079 5.973)" fill="#fff"/>
    <path id="Trazado_615109" data-name="Trazado 615109" d="M74.023,67.865c-.708-1.09-1.942-1.388-2.982-1.977-.314-.179-.767-.22-.711-.758.05-.485.465-.433.765-.548a5.488,5.488,0,0,0,2.928-3.175Z" transform="translate(44.126 38.53)" fill="#fefefe"/>
    <path id="Trazado_615110" data-name="Trazado 615110" d="M71.888,73.05,73.042,71.9q.31,1.465-1.154,1.154" transform="translate(45.107 45.112)" fill="#f4f3f4"/>
    <path id="Trazado_615111" data-name="Trazado 615111" d="M9.086,16.6A16.612,16.612,0,1,1,25.611,33.244,16.55,16.55,0,0,1,9.086,16.6" transform="translate(5.701 0.013)" fill="#040506"/>
    <path id="Trazado_615112" data-name="Trazado 615112" d="M62.207,14.645c-.975-.91-1.717-1.554-2.4-2.254A1.877,1.877,0,1,1,62.437,9.73q2.717,2.663,5.382,5.38a1.814,1.814,0,0,1,0,2.759q-2.7,2.766-5.463,5.462a1.844,1.844,0,0,1-2.676.013,1.876,1.876,0,0,1,.034-2.679c.361-.4.75-.771,1.142-1.139.353-.334.724-.646,1.2-1.068a5.613,5.613,0,0,0-6.578,5.69c-.036,4.267,0,8.534-.011,12.8A9.137,9.137,0,0,1,46.4,46.021q-4.555.015-9.111,0c-1.369,0-2.117-.664-2.117-1.844s.747-1.841,2.114-1.844c2.767-.007,5.535,0,8.3,0,3.883-.007,6.188-2.329,6.192-6.241,0-4.036.094-8.075-.023-12.108a9.255,9.255,0,0,1,9.293-9.337c.254.013.511,0,1.156,0" transform="translate(22.069 5.691)" fill="#040506"/>
    <path id="Trazado_615113" data-name="Trazado 615113" d="M35.865,44.319,35.4,43.85c-.625-2.1.026-3,2.187-3,3,0,6-.013,9,0a9.146,9.146,0,0,1,8.884,8.905c.018,4.306-.018,8.613.013,12.919.024,3.644,2.646,6.026,6.677,5.786-.892-.822-1.636-1.46-2.322-2.153a1.88,1.88,0,1,1,2.651-2.636q2.632,2.588,5.219,5.219a1.855,1.855,0,0,1-.021,3q-2.59,2.629-5.221,5.218a1.882,1.882,0,1,1-2.607-2.684c.667-.675,1.385-1.3,2.208-2.07-1.149-.28-2.1-.083-3.029-.311a9.181,9.181,0,0,1-7.254-9.119c0-4.036,0-8.072,0-12.11,0-3.981-2.293-6.272-6.269-6.277-2.653,0-5.306-.01-7.958.007a5.088,5.088,0,0,1-1.688-.231" transform="translate(22.07 25.63)" fill="#040506"/>
    <path id="Trazado_615114" data-name="Trazado 615114" d="M62.112,37.329c-.931-.906-1.665-1.582-2.35-2.3a1.876,1.876,0,1,1,2.659-2.641q2.719,2.661,5.382,5.384a1.817,1.817,0,0,1-.026,2.838q-2.622,2.676-5.3,5.3a1.881,1.881,0,1,1-2.6-2.685,13.841,13.841,0,0,0,1.969-2.2H60.755q-11.764,0-23.53.011a1.874,1.874,0,0,1-.976-3.566,2.581,2.581,0,0,1,1.242-.132q11.593-.01,23.185,0h1.437" transform="translate(22.057 19.923)" fill="#040506"/>
    <path id="Trazado_615115" data-name="Trazado 615115" d="M20.637,55.989c.342-.013.682-.031,1.024-.036,1.554-.023,2.181-.657,2.2-2.226.01-.872.024-1.746.037-2.619a30.517,30.517,0,0,1,2.829-4.552c.547-.872,1.123-1.727,1.712-2.57.226-.325.382-.781.921-.727a2.978,2.978,0,0,0,1,1.509c1.3,1.2,2.557,2.44,3.885,3.6a1.977,1.977,0,0,1,.708,1.7c-.037,2.418.013,4.838-.028,7.257a2.723,2.723,0,0,0,.876,2.143c1.974,1.933,3.9,3.919,5.878,5.847a1.982,1.982,0,0,1,.657,1.6c-.039,2.187-.034,4.376,0,6.565.008.64-.072.946-.85.944q-15.78-.042-31.56,0c-1.053,0-.835-.576-.788-1.172a32.213,32.213,0,0,1,3.034-4.812.523.523,0,0,1,.579-.269c.125,2.132.57,2.54,2.765,2.54,2.075,0,4.15.01,6.225,0a1.852,1.852,0,0,0,2.121-2.1q.02-3.459,0-6.915a1.834,1.834,0,0,0-2.062-2.051c-1.151-.02-2.3-.026-3.455-.039a8.877,8.877,0,0,1,2.3-3.616" transform="translate(5.697 27.14)" fill="#e3421e"/>
    <path id="Trazado_615116" data-name="Trazado 615116" d="M29.362,51.185c-1.808,2.309-3.26,4.863-4.962,7.244-.151.213-.334.405-.5.605-.011-1.3-.028-2.609-.036-3.914-.013-1.681-.618-2.309-2.262-2.314q-3.286-.01-6.568,0c-1.6,0-2.309.64-2.218,2.212.068,1.162-.221,1.688-1.463,1.491a5.636,5.636,0,0,0-2.256.238V55.657c0-7.95.02-15.9-.024-23.852-.007-.986.272-1.242,1.211-1.17a28.79,28.79,0,0,0,3.455,0c.684-.031,1.017.135.9.879a4.69,4.69,0,0,0,0,.92,1.771,1.771,0,0,0,1.86,1.9q9.218.029,18.436,0c1.178,0,1.815-.767,1.849-2.028.046-1.652.046-1.652,1.72-1.652.921,0,1.85.068,2.763-.018.981-.094,1.229.3,1.014,1.17a50.164,50.164,0,0,1-4.044,6.321.757.757,0,0,1-.586.317c-2.563-.146-5.128-.049-7.693-.07-.116,0-.229,0-.343.016-1.059.1-1.683.679-1.665,1.533.018.81.612,1.364,1.624,1.444.916.072,1.837,0,2.755.033a12.825,12.825,0,0,1,2.858.124.485.485,0,0,1,.264.742c-.7,1.1-1.169,2.376-2.344,3.117-.61.013-1.221.013-1.829.041a1.788,1.788,0,0,0-1.87,1.87c-.039,1.3-.031,2.594-.044,3.891" transform="translate(5.692 19.214)" fill="#ef7100"/>
    <path id="Trazado_615117" data-name="Trazado 615117" d="M2.287,56.648c0-2.344.02-4.689-.013-7.032a1.736,1.736,0,0,1,.57-1.408c1.167-1.113,2.288-2.274,3.434-3.41a1.347,1.347,0,0,1,.85-.508C9.672,44.013,9.669,44,9.669,46.5c0,2.228,0,4.458,0,6.686,0,1.321.622,2.1,1.7,2.184s1.776-.571,2-1.9c.236-1.437,2.36-2.5,3.517-1.764.241.155.166.408.166.627,0,1.806-.011,3.613.015,5.419a1.277,1.277,0,0,1-.465.985q-2.7,2.678-5.374,5.382a1.525,1.525,0,0,1-1.206.495c-2.306-.024-4.612-.034-6.917,0-.651.011-.841-.174-.83-.827.037-2.383.015-4.765.015-7.148" transform="translate(1.425 27.713)" fill="#f5b9a2"/>
    <path id="Trazado_615118" data-name="Trazado 615118" d="M39.158,68.137c0,3-.023,6,.016,8.993.01.77-.151,1.09-1,1.059-1.8-.063-3.613-.047-5.418,0-.721.018-1-.151-1-.942q.046-9.225,0-18.451c0-.666.133-.96.882-.941q2.822.076,5.649,0c.752-.02.882.285.876.946-.026,3.113-.011,6.227-.011,9.34" transform="translate(19.927 36.299)" fill="#00486c"/>
    <path id="Trazado_615119" data-name="Trazado 615119" d="M9.671,68.348c0,2.69-.026,5.382.016,8.071.011.77-.151,1.09-1,1.059-1.8-.063-3.613-.047-5.418,0-.721.018-1-.15-1-.942q.049-8.3,0-16.605c0-.666.133-.96.88-.941q2.824.076,5.651,0c.752-.02.884.285.876.946-.028,2.806-.011,5.611-.011,8.417" transform="translate(1.425 37.01)" fill="#00486c"/>
    <path id="Trazado_615120" data-name="Trazado 615120" d="M23.839,44.926a34.216,34.216,0,0,0,2.3-3.616c.265-.369.674-.3,1.043-.332,1.688-.164,2.163-.944,1.554-2.565a.957.957,0,0,1-.1-.552c1.377-2.225,2.783-4.43,4.375-6.511q.02,9.328.036,18.659c0,.215.008.529-.117.628-.272.208-.495-.08-.68-.251-1.273-1.169-2.619-2.272-3.777-3.546a5.021,5.021,0,0,0-4.635-1.914" transform="translate(14.958 19.671)" fill="#e3421e"/>
    <path id="Trazado_615121" data-name="Trazado 615121" d="M22.08,34.2c-2.114,0-4.23-.023-6.344.013-.684.011-1.007-.073-.994-.9.034-2.231.542-2.8,2.763-2.8,2.35,0,2.8-.452,2.8-2.832,0-.269-.013-.539,0-.807a1.841,1.841,0,1,1,3.68.023c.029.576-.013,1.154.013,1.73A1.817,1.817,0,0,0,25.89,30.5c.269.013.539,0,.807,0,2.361,0,2.9.584,2.853,2.939-.013.612-.179.775-.78.765-2.23-.034-4.461-.013-6.691-.013" transform="translate(9.25 15.671)" fill="#ffe400"/>
    <path id="Trazado_615122" data-name="Trazado 615122" d="M38.9,62c-1.831,0-3.39-.015-4.949.01-.413.007-.617-.251-.854-.488-1.793-1.787-3.574-3.587-5.379-5.361a1.522,1.522,0,0,1-.485-1.206c.02-2.915.028-5.831,0-8.746-.007-.638.156-.833.819-.838,2.291-.018,2.84.485,2.856,2.793.011,1.689.057,3.377.015,5.065a2.694,2.694,0,0,0,.946,2.22c2.293,2.1,4.55,4.23,7.037,6.552" transform="translate(17.081 28.47)" fill="#f5b9a2"/>
    <path id="Trazado_615123" data-name="Trazado 615123" d="M30.943,44.321a3.824,3.824,0,0,0,.677,0c3.961-.955,5.631,2.241,7.9,4.349.2.186.146.423.148.646,0,1.3,0,2.594,0,4.267-2.921-3.279-6.619-5.364-8.726-9.257" transform="translate(19.416 27.697)" fill="#f5b9a2"/>
    <path id="Trazado_615124" data-name="Trazado 615124" d="M31.744,48.742c4.648,4.331,9.054,8.442,13.475,12.536.4.371.487.615.029.991-.358.295-.561.657-1.1.148q-5.935-5.627-11.936-11.182c-.749-.695-.3-1.478-.47-2.493" transform="translate(19.918 30.584)" fill="#0097d8"/>
    <path id="Trazado_615125" data-name="Trazado 615125" d="M12.741,60.134c-1.191,1.385-2.026,3.019-3.113,4.477-.156.208-.334.4-.5.6-.013-1.611-.015-3.222-.044-4.832a1.26,1.26,0,0,1,.4-1.011c1.04-1.019,2.047-2.069,3.255-3.3Z" transform="translate(5.699 35.184)" fill="#ef7100"/>
    <path id="Trazado_615126" data-name="Trazado 615126" d="M17.314,48.375c0,1.836,0,1.836-1.855,1.836-1.836,0-1.836,0-1.836-1.855,0-1.836,0-1.836,1.855-1.836,1.836,0,1.836,0,1.836,1.855" transform="translate(8.548 29.189)" fill="#fff"/>
    <path id="Trazado_615127" data-name="Trazado 615127" d="M15.478,55.593c1.836,0,1.836,0,1.836,1.855,0,1.836,0,1.836-1.855,1.836-1.836,0-1.836,0-1.836-1.855,0-1.836,0-1.836,1.855-1.836" transform="translate(8.548 34.882)" fill="#fff"/>
    <path id="Trazado_615128" data-name="Trazado 615128" d="M17.786,51.093a34.035,34.035,0,0,1-2.3,3.616c-1.862.1-1.862.1-1.862-1.806,0-1.847,0-1.85,1.865-1.846.767,0,1.531.023,2.3.036" transform="translate(8.548 32.036)" fill="#ef7100"/>
    <path id="Trazado_615129" data-name="Trazado 615129" d="M24.511,41.985A6.282,6.282,0,0,1,26.8,43.743c.044.487-.542.446-.713.783-.111.22-.3.319-.544.086-.519-.506-1.076-.975-1.577-1.5a.988.988,0,0,1-.078-.981c.073-.246.4-.122.618-.148" transform="translate(14.934 26.339)" fill="#0095d4"/>
    <path id="Trazado_615130" data-name="Trazado 615130" d="M77.452,7.92c0,.347.024.695,0,1.038-.067.752.373,1.829-.207,2.189-.85.527-2.013.168-3.042.164-.506,0-.435-.452-.433-.784,0-1.079.15-2.228-1.146-2.744-1.388-.553-2.117.474-2.928,1.281-1.061,1.059-2.13,2.112-3.175,3.187-.332.34-.64.545-1.087.226a7.73,7.73,0,0,0-5.393-1.133c-.793.067-1.094-.2-1.058-1.024.06-1.419.046-2.845,0-4.267-.02-.659.145-1.125.8-1.341a.433.433,0,0,0,.1-.049c3.1-2.138,6.362-2.809,9.911-1.177a4.362,4.362,0,0,0,4.557-.524c.623-.431.994-.186,1.577.216,1.777,1.227,1.627,2.968,1.52,4.741" transform="translate(37.005 1.617)" fill="#483924"/>
    <path id="Trazado_615131" data-name="Trazado 615131" d="M67.512,17.93a3.579,3.579,0,0,1-.576,0c-.695-.116-1.614.391-2.057-.262a4.875,4.875,0,0,1-1.108-2.947c.062-1.611-.347-2.013-2.008-2.342a2.534,2.534,0,0,1-.649-.223c-.591-.3-1.139-.882-.9-1.419.192-.425,1.025-.27,1.546-.029.936.436,1.855.908,2.773,1.383a2,2,0,0,0,2.607-.412c.345-.361.7-.708,1.061-1.058.61-.6,1-1.473,2.116-.363.778.771,2.145.174,3.239.3.423.049,1.118-.26,1.211.212a1.383,1.383,0,0,1-.973,1.409,2.65,2.65,0,0,1-.426.171c-2.088.545-2.114.571-2.2,2.773a7.047,7.047,0,0,1-1.089,2.612c-.14.306-.474.19-.729.2-.615.011-1.23,0-1.846,0" transform="translate(37.747 6.098)" fill="#f5b9a2"/>
    <path id="Trazado_615132" data-name="Trazado 615132" d="M66.466,16.953c2.121.537,4,1.024,5.878,1.474.348.085.412.252.41.55,0,1.647-.018,3.3.008,4.943.008.491-.216.557-.623.552-1.291-.018-2.583-.007-4.109-.007,1.348-1.183,1.138-2.321.408-3.569-.69-1.182-1.234-2.448-1.972-3.943" transform="translate(41.705 10.637)" fill="#9ed6f3"/>
    <path id="Trazado_615133" data-name="Trazado 615133" d="M63.6,24.457c-1.359,0-2.586-.023-3.812.01-.55.015-.828-.063-.806-.726.05-1.531.01-3.066.021-4.6,0-.272-.12-.591.352-.7,1.919-.454,3.829-.947,5.926-1.471l-2.036,4.078c-.807,1.618-.786,1.891.355,3.411" transform="translate(37.006 10.646)" fill="#9ed6f3"/>
    <path id="Trazado_615134" data-name="Trazado 615134" d="M65.144,18.474a15.378,15.378,0,0,0,.928,1.772,1.181,1.181,0,0,1-.355,1.9c-.252.177-.475.684-.823.265-.374-.451-1.268-.656-.957-1.481.29-.77.723-1.486,1.208-2.457" transform="translate(40.078 11.592)" fill="#00486b"/>
    <path id="Trazado_615135" data-name="Trazado 615135" d="M60.139,41.157c-.109-3.185,1-5.631,3.667-7.189a6.954,6.954,0,0,1,7.721.2c2.474,1.6,3.414,3.989,3.341,7.125-.97-1.152-2.1-.989-3.193-1-1.5-.01-2.1-.509-2.327-1.963a1.78,1.78,0,0,0-1.811-1.717c-1.042-.046-1.688.579-1.883,1.756A1.981,1.981,0,0,1,63.394,40.3c-2.124.046-2.124.046-3.255.854" transform="translate(37.73 20.641)" fill="#a40b60"/>
    <path id="Trazado_615136" data-name="Trazado 615136" d="M66.083,43.739c-.807,0-1.614.026-2.42-.008a1.206,1.206,0,0,1-1.248-1.208c-.02-.19.023-.387-.008-.575-.2-1.222.151-1.727,1.491-2.23,1.634-.615,2.959-.848,4.412.117.448.3,1.307-.072,1.421.436a6.679,6.679,0,0,1-.013,2.628,1.131,1.131,0,0,1-1.214.848c-.8-.039-1.613-.01-2.42-.01" transform="translate(39.126 24.587)" fill="#f5b9a2"/>
    <path id="Trazado_615137" data-name="Trazado 615137" d="M63.82,50.349c-1.618,0-2.907-.023-4.2.011-.509.013-.651-.153-.643-.651.028-1.608.018-3.216,0-4.825,0-.389.081-.643.5-.762.732-.205,1.448-.47,2.174-.7,1.053-.335,1.211.846,1.9,1.138.544.228.07.6.016.871a7.262,7.262,0,0,1-.483,1.522c-.526,1.2-.724,2.334.718,3.4" transform="translate(37.008 27.206)" fill="#f0c8e0"/>
    <path id="Trazado_615138" data-name="Trazado 615138" d="M67.425,50.362c1.789-1.435.752-2.863.365-4.275-.129-.467-.579-.988-.334-1.378a3.9,3.9,0,0,1,1.431-1.279c.575-.308,1.126.265,1.71.347,1.273.177,1.766.827,1.611,2.161a27.2,27.2,0,0,0-.021,3.785c.013.5-.132.664-.643.651-1.287-.034-2.576-.011-4.119-.011" transform="translate(42.281 27.193)" fill="#f0c8e0"/>
    <path id="Trazado_615139" data-name="Trazado 615139" d="M66.054,28.377A3.824,3.824,0,0,1,69.747,31.7c.07.625-.039.957-.806.737a10.232,10.232,0,0,0-5.786.018c-.7.205-.8-.14-.752-.7a3.843,3.843,0,0,1,3.65-3.372" transform="translate(39.15 17.805)" fill="#7e104a"/>
    <path id="Trazado_615140" data-name="Trazado 615140" d="M65.188,48.872c-.469-.023-1.518-1.5-1.38-1.955.221-.729.49-1.444.7-2.174a.6.6,0,0,1,.658-.495.628.628,0,0,1,.739.539c.133.553.342,1.089.521,1.632A2.028,2.028,0,0,1,65.388,48.8c-.067.028-.14.047-.2.067" transform="translate(40.029 27.764)" fill="#c23e89"/>
    <path id="Trazado_615141" data-name="Trazado 615141" d="M62.667,58.194c4.048,1,7.988,1.964,11.918,2.965a6.6,6.6,0,0,0,1.7.184c.628-.007,1.092.265,1.112.9s-.438.9-1.063.95c-2.339.2-2.6.485-2.6,2.788,0,.5.024,1-.007,1.5a1.166,1.166,0,0,1-1.212,1.234q-4.323.039-8.648,0a1.163,1.163,0,0,1-1.2-1.247c-.031-.729,0-1.46-.008-2.191a1.855,1.855,0,0,0-2.034-2.086c-.192,0-.384,0-.576,0-.627-.018-1.071-.314-1.048-.96.02-.571.435-.864,1.014-.88.192,0,.384,0,.576,0a1.858,1.858,0,0,0,2.069-2.054c.008-.306,0-.61,0-1.1" transform="translate(37.024 36.514)" fill="#f5b9a2"/>
    <path id="Trazado_615142" data-name="Trazado 615142" d="M72.327,57.661c0,1.81,0,1.816-1.681,1.391-2.884-.727-5.756-1.5-8.652-2.176-.832-.2-.845-.56-.584-1.2a1.758,1.758,0,0,1,1.671-1.193c2.453-.037,4.905-.046,7.358,0A1.86,1.86,0,0,1,72.322,56.4c.026.42,0,.843,0,1.265" transform="translate(38.438 34.166)" fill="#e3421e"/>
    <path id="Trazado_615143" data-name="Trazado 615143" d="M63.673,67.439c-.018,1.842-2.08,3.541.039,5.546-1.553,0-2.9-.01-4.241,0-.438,0-.483-.239-.483-.583.007-1.725.02-3.45,0-5.174-.01-.7.586-.693.967-.955.337-.231.623-.249.882.1a2.811,2.811,0,0,0,2.842,1.058" transform="translate(37.01 41.482)" fill="#a9be11"/>
    <path id="Trazado_615144" data-name="Trazado 615144" d="M67.441,67.407a3.021,3.021,0,0,0,2.957-1.1c.43-.482,1.715.186,1.73.9.037,1.723,0,3.449.02,5.174,0,.444-.15.6-.6.594-1.294-.02-2.588-.007-4.088-.007,2.088-1.945.05-3.667-.023-5.561" transform="translate(42.317 41.501)" fill="#a9be11"/>
    <path id="Trazado_615145" data-name="Trazado 615145" d="M66.7,69.944c-.168.669-.822,1-1.266,1.484-.207.226-.451.085-.581-.112-.35-.535-1.281-.721-1.042-1.606a21.854,21.854,0,0,1,.747-2.282c.241-.61.972-.708,1.217-.155.369.833.605,1.725.924,2.671" transform="translate(40.018 41.983)" fill="#386d24"/>
    <path id="Trazado_615146" data-name="Trazado 615146" d="M14.949,24.006C8.58,17.856,11.064,6.457,19.479,3.214a12.683,12.683,0,0,1,13.6,2.659,8.416,8.416,0,0,1,.659,5.268A15.051,15.051,0,0,1,17.93,24.73a5.83,5.83,0,0,1-2.982-.724" transform="translate(7.13 1.451)" fill="#ffe400"/>
    <path id="Trazado_615147" data-name="Trazado 615147" d="M13.566,22.633a14.827,14.827,0,0,0,11.864-2c4.788-3.224,6.909-7.82,6.666-13.537A23.267,23.267,0,0,0,31.7,4.5c4.738,3.992,5.442,11.731,1.544,17-4.785,6.468-14.652,7.036-19.678,1.133" transform="translate(8.512 2.823)" fill="#ffb300"/>
    <path id="Trazado_615148" data-name="Trazado 615148" d="M25.91,61.556c-1.188,0-2.374.021-3.563-.007a1.84,1.84,0,1,1-.01-3.676q3.618-.037,7.239,0a1.84,1.84,0,1,1,.01,3.676c-1.225.028-2.451.007-3.676.007" transform="translate(12.818 36.302)" fill="#050505"/>
    <path id="Trazado_615149" data-name="Trazado 615149" d="M23.139,51.347c-.343,0-.69.028-1.03,0a1.807,1.807,0,0,1-1.68-1.834A1.784,1.784,0,0,1,22.1,47.675a17.677,17.677,0,0,1,1.948-.01,1.843,1.843,0,1,1,0,3.685c-.3.013-.61,0-.916,0Z" transform="translate(12.818 29.894)" fill="#070505"/>
    <path id="Trazado_615150" data-name="Trazado 615150" d="M16.993,35.181c1.151,0,2.3-.016,3.452,0a1.81,1.81,0,0,1,1.982,2.005q.027,3.51,0,7.019a1.829,1.829,0,0,1-2.065,2.041c-2.339.015-4.679.02-7.019,0a1.8,1.8,0,0,1-1.979-2.007q-.027-3.51,0-7.019a1.826,1.826,0,0,1,2.064-2.039c1.19-.015,2.378,0,3.567,0" transform="translate(7.121 22.071)" fill="#040506"/>
    <path id="Trazado_615151" data-name="Trazado 615151" d="M30.778,35.463a1.994,1.994,0,0,1,.526,2.383,2.037,2.037,0,0,1-2.225,1.032,7.757,7.757,0,0,0-.8.034c-1.92-.013-3.841-.02-5.763-.041-1.291-.013-2.06-.682-2.088-1.79-.031-1.165.752-1.888,2.1-1.9,2.269-.011,4.536.01,6.8-.011a3.872,3.872,0,0,1,1.448.29" transform="translate(12.818 22.07)" fill="#050505"/>
    <path id="Trazado_615152" data-name="Trazado 615152" d="M18.162,10.072c0-1.19-.015-2.379,0-3.569a1.845,1.845,0,1,1,3.683.015c.018,1.572.026,3.146-.007,4.72-.011.545.143.763.7.711a7.376,7.376,0,0,1,1.38,0,1.76,1.76,0,0,1,1.613,1.883,1.647,1.647,0,0,1-1.6,1.767,38.638,38.638,0,0,1-4.142.013,1.721,1.721,0,0,1-1.632-1.859c-.023-1.229,0-2.456,0-3.685" transform="translate(11.392 2.86)" fill="#050506"/>
    <path id="Trazado_615153" data-name="Trazado 615153" d="M15.465,41.138c-1.842,0-1.842,0-1.842-1.849s0-1.842,1.849-1.842,1.842,0,1.842,1.849,0,1.842-1.849,1.842" transform="translate(8.548 23.496)" fill="#fff"/>
  </g>
</svg>
