<svg id="Grupo_876490" data-name="Grupo 876490" xmlns="http://www.w3.org/2000/svg" xmlns:xlink="http://www.w3.org/1999/xlink" width="115.204" height="115.222" viewBox="0 0 115.204 115.222">
  <defs>
    <clipPath id="clip-path">
      <rect id="Rectángulo_325000" data-name="Rectángulo 325000" width="115.204" height="115.222" fill="none"/>
    </clipPath>
  </defs>
  <g id="Grupo_876489" data-name="Grupo 876489" clip-path="url(#clip-path)">
    <path id="Trazado_614893" data-name="Trazado 614893" d="M50.716,104.069c2.878,4.071.521,8.372-3.01,9.162a6.906,6.906,0,0,1-1.493.123c-5.571.009-11.144-.047-16.716.021a38.258,38.258,0,0,1-13.931-2.428c-.174-.065-.352-.124-.7-.247,0,.9.009,1.684,0,2.472-.021,1.335-.667,2.032-1.961,2.038q-5.456.025-10.912,0A1.785,1.785,0,0,1,.006,113.2q-.011-12.829,0-25.658a1.8,1.8,0,0,1,2.069-2.046q5.281-.016,10.564,0c1.61,0,2.216.621,2.226,2.245a1.809,1.809,0,0,0,.006.462c.092.332-.285.815.256.99s.843-.206,1.135-.587c2.269-2.934,4.485-5.914,6.832-8.786a28.5,28.5,0,0,0,6.076-12.182A5.6,5.6,0,0,1,34.2,63.2a5.725,5.725,0,0,1,5.95,3.69,13.534,13.534,0,0,0,.723,1.7V2.622c0-2.107.488-2.6,2.566-2.6q23.448,0,46.9-.021a3.3,3.3,0,0,1,2.555,1.041q10.642,10.7,21.34,21.347a3.052,3.052,0,0,1,.971,2.349q-.032,38.427-.017,76.856c0,1.934-.538,2.475-2.463,2.475H50.716" transform="translate(0 0)" fill="#040506"/>
    <path id="Trazado_614894" data-name="Trazado 614894" d="M35.513,93.514a5.908,5.908,0,0,0-.947-5.249c-.218-.274-.109-.447.036-.7,2.108-3.724,1.25-6.584-2.587-8.675a1.984,1.984,0,0,1-.108-2.084c.712-.561,1.552-.3,2.34-.352,1.065-.074,1.14-.153,1.138-1.513S35.3,73.5,34.247,73.42c-.788-.059-1.629.208-2.343-.358a6.142,6.142,0,0,1-.023-3.65c.684-.617,1.526-.341,2.305-.391,1.1-.073,1.19-.153,1.2-1.447.009-1.423-.073-1.513-1.173-1.588-.781-.053-1.62.215-2.319-.371a5.55,5.55,0,0,1,.083-3.756,3.424,3.424,0,0,1,2.032-.3q23.5-.011,47.012-.006c.386,0,.773.006,1.161,0,1.337-.032,1.469-.167,1.473-1.469,0-1.364-.123-1.491-1.676-1.493q-18.865-.007-37.726,0c-3.483,0-6.966,0-10.447,0A3.116,3.116,0,0,1,32,58.3a5.021,5.021,0,0,1-.039-3.853,3.5,3.5,0,0,1,2.142-.314q23.455-.014,46.906-.008c.426,0,.852.011,1.278,0,1.2-.041,1.34-.176,1.37-1.338.038-1.47-.1-1.62-1.666-1.62q-16.953-.009-33.9,0-7.141,0-14.281,0A3.1,3.1,0,0,1,32,50.863a5.015,5.015,0,0,1-.041-3.853A3.512,3.512,0,0,1,34.1,46.7q23.436-.014,46.873-.006c.386,0,.773,0,1.159,0,1.4-.029,1.534-.167,1.522-1.535-.011-1.316-.132-1.426-1.743-1.426q-23.9-.007-47.8-.009a3.578,3.578,0,0,1-2.145-.308,2.59,2.59,0,0,1-.324-1.675q-.011-18.79,0-37.578a2.13,2.13,0,0,1,.379-1.646q7.836-.02,15.673-.036c8.049-.006,16.1.015,24.151-.026.885,0,1.067.233,1.061,1.084-.039,6.27-.023,12.54-.02,18.812,0,1.82.6,2.423,2.425,2.423,6.308,0,12.617.014,18.925-.015.743,0,.961.17.961.943q-.034,34.6-.02,69.208c0,.153-.024.308-.036.461a1.668,1.668,0,0,1-1.3.368q-5.9.023-11.8,0a2.212,2.212,0,0,1-1.119-.224c-.346-.843.443-.727.793-.832A14.2,14.2,0,0,0,86.611,92.1a12.775,12.775,0,0,0,2.142-17.169A12.7,12.7,0,1,0,68.4,90.108a13.4,13.4,0,0,0,6.716,4.541c.379.118,1.108-.017.938.806a2.646,2.646,0,0,1-1.575.279q-16.541.009-33.079,0a9.578,9.578,0,0,1-4.871-1.316,2.058,2.058,0,0,1-1.018-.908" transform="translate(16.291 1.263)" fill="#d8d7d7"/>
    <path id="Trazado_614895" data-name="Trazado 614895" d="M9.849,81.3c-.012-3.48-.014-6.961-.048-10.441,0-.55.153-.806.712-.706,1.652.3,2.613-.588,3.542-1.825,2.62-3.492,5.339-6.911,8.024-10.356a28.986,28.986,0,0,0,5.582-11.82,2.171,2.171,0,0,1,1.925-1.993c.99-.12,1.851.579,2.21,1.834a10.7,10.7,0,0,1-.787,7.111c-.652,1.6-1.5,3.125-2.246,4.688-.875,1.822-.106,3.062,1.91,3.068,3.4.008,6.808,0,10.211,0,1.422,0,2.251.614,2.355,1.707.1,1.053-.618,1.757-2.057,2.016a1.784,1.784,0,0,0-1.635,1.8,1.811,1.811,0,0,0,1.646,1.905c1.4.249,2.078.881,2.051,1.907-.026,1-.684,1.591-2.02,1.822a1.86,1.86,0,0,0,.044,3.707c1.294.214,1.978.858,1.976,1.863s-.691,1.646-1.981,1.86a1.824,1.824,0,0,0-1.722,1.837c-.009,1.034.617,1.694,1.8,1.875.756.115,1.437.32,1.676,1.167.286.6-.021.862-.565.975a6.857,6.857,0,0,1-1.388.067c-5.458,0-10.915.059-16.371-.015A35.115,35.115,0,0,1,11.078,82.3a2.057,2.057,0,0,1-1.229-1" transform="translate(5.053 22.764)" fill="#f5aa7d"/>
    <path id="Trazado_614896" data-name="Trazado 614896" d="M33.151,54.482v3.757a4.386,4.386,0,0,1,0,3.675V65.67a4.386,4.386,0,0,1,0,3.675V73.1a4.386,4.386,0,0,1,0,3.675q0,1.057-.006,2.113c-.649-.077-1.3-.208-1.946-.224-1.769-.044-1.769-.024-1.769-1.744q0-36.579-.026-73.156c0-1.055.253-1.432,1.316-1.3a23.658,23.658,0,0,0,2.434.053q0,20.431,0,40.859a4.386,4.386,0,0,1,0,3.675v3.757a4.386,4.386,0,0,1,0,3.675" transform="translate(15.161 1.257)" fill="#a6adae"/>
    <path id="Trazado_614897" data-name="Trazado 614897" d="M79.756,64.2c.28.3.647.192.981.192q6.686.007,13.374,0c-.006,1.193.426,2.708-.147,3.486-.546.743-2.161.226-3.3.227q-27.376.023-54.754.021c-.749,0-1.367.053-1.3-1.008a1.8,1.8,0,0,0-.383-1.191c-1.1-1.247-.591-2.317.256-3.387,1.428.647,2.731,1.607,4.366,1.734.421.032.841.12,1.261.12q16.944.011,33.889,0c.371,0,.781.129,1.1-.191.7-.529,1.482-.13,2.213-.117.811.015,1.658-.409,2.443.117" transform="translate(17.323 32.242)" fill="#a6adae"/>
    <path id="Trazado_614898" data-name="Trazado 614898" d="M61.3,4.406,76.939,20.044h-.975c-4.482,0-8.963-.024-13.443.021-.926.009-1.259-.179-1.246-1.187.056-4.559.024-9.118.024-13.677Z" transform="translate(31.593 2.272)" fill="#48585f"/>
    <path id="Trazado_614899" data-name="Trazado 614899" d="M3.817,58.9c1.622-.012,3.245,0,4.865-.049.573-.015.711.2.709.737q-.041,9.853-.047,19.7c-.862.65-1.864.359-2.8.37-3.107.038-3.108.015-3.108-3.122q0-7.882.006-15.762A2.486,2.486,0,0,1,3.817,58.9" transform="translate(1.766 30.343)" fill="#7e8e92"/>
    <path id="Trazado_614900" data-name="Trazado 614900" d="M9.864,68.665a32.912,32.912,0,0,0,12.352,3.49c6.672.5,13.352.082,20.029.229.512.012.829-.121.79-.7a1.788,1.788,0,0,1-1.813,2.54c-1.7.039-3.4.011-5.1.011-4.059,0-8.116.012-12.175,0a35.72,35.72,0,0,1-12.652-2.407c-1.15-.436-1.7-1.008-1.473-2.239a6.47,6.47,0,0,0,.044-.925" transform="translate(5.037 35.403)" fill="#e49671"/>
    <path id="Trazado_614901" data-name="Trazado 614901" d="M4.323,58.9c0,6.409.009,12.819-.026,19.23,0,.884.2,1.244,1.153,1.191,1.463-.082,2.933-.026,4.4-.029.011.076.027.153.03.23.047,1.635.047,1.635-1.537,1.635-1.7,0-3.406-.023-5.109.012-.609.012-.791-.185-.79-.791q.027-10.335,0-20.668c0-.641.158-.943.837-.853.343.044.694.03,1.041.042" transform="translate(1.261 30.34)" fill="#61747b"/>
    <path id="Trazado_614902" data-name="Trazado 614902" d="M27.827,48.255c0,2.064-.011,4.128.009,6.193,0,.443-.118.621-.582.594-.6-.035-1.2-.008-1.951-.008a26.244,26.244,0,0,0,2.523-6.779" transform="translate(13.047 24.88)" fill="#fdfdfd"/>
    <path id="Trazado_614903" data-name="Trazado 614903" d="M60.967,16.027a6.688,6.688,0,0,1-.4,2.745,3.143,3.143,0,0,0,.221,2.633c1.816,4,3.566,8.027,5.374,12.029a1.98,1.98,0,0,1-2.619,2.881c-1.272-.443-2.617-1.3-3.816-1.141-1.17.161-1.9,1.7-2.871,2.575-1.3,1.179-2.739.818-3.324-.885-1.015-2.951-1.988-5.917-2.986-8.874-.126-.374-.086-.871-.708-.891s-.614.467-.741.847c-.985,2.921-1.958,5.847-2.955,8.763-.674,1.975-2.079,2.286-3.581.824-.856-.834-1.62-2.111-2.624-2.348s-2.239.584-3.374.943c-.294.094-.587.191-.874.3a1.805,1.805,0,0,1-2.116-.48,1.851,1.851,0,0,1-.256-2.155c1.37-3.058,2.724-6.125,4.085-9.186.188-.423.343-.864.57-1.264a8.169,8.169,0,0,0,.847-6C37.508,10.613,44.031,4,50.838,4.872A11.163,11.163,0,0,1,60.967,16.027" transform="translate(17.063 2.472)" fill="#040506"/>
    <path id="Trazado_614904" data-name="Trazado 614904" d="M69.272,72.426a13.877,13.877,0,0,1-4.656,0C57.8,70.868,53.548,65.36,53.957,58.617a13.013,13.013,0,0,1,25.517-2.5c1.982,7.5-2.4,14.509-10.2,16.308" transform="translate(27.806 24.013)" fill="#040506"/>
    <path id="Trazado_614905" data-name="Trazado 614905" d="M31.876,33.136V29.46q25.6-.009,51.191-.033c.649,0,.832.165.84.826.039,2.9.062,2.9-2.813,2.9l-49.218-.02" transform="translate(16.435 15.172)" fill="#040506"/>
    <path id="Trazado_614906" data-name="Trazado 614906" d="M31.876,38.039V34.363q25.6-.009,51.191-.033c.649,0,.832.165.84.826.039,2.9.062,2.9-2.813,2.9l-49.218-.02" transform="translate(16.435 17.7)" fill="#040506"/>
    <path id="Trazado_614907" data-name="Trazado 614907" d="M31.876,42.943V39.267q25.6-.009,51.191-.033c.649,0,.832.165.84.826.039,2.9.062,2.9-2.813,2.9l-49.218-.02" transform="translate(16.435 20.229)" fill="#040506"/>
    <path id="Trazado_614908" data-name="Trazado 614908" d="M51.641,44.152c4.642,0,9.283.017,13.925-.017.74-.006.968.164.964.94-.015,2.793.018,2.793-2.808,2.793-8.627,0-17.252-.014-25.879.02-.847,0-1.1-.17-1.084-1.059.055-2.675.011-2.677,2.7-2.677Z" transform="translate(18.953 22.756)" fill="#040506"/>
    <path id="Trazado_614909" data-name="Trazado 614909" d="M48.861,52.773c-3.713,0-7.426-.021-11.138.018-.747.008-.965-.176-.961-.946.015-2.789-.017-2.789,2.811-2.789,6.769,0,13.537.017,20.3-.021.855,0,1.1.182,1.081,1.065-.053,2.67-.009,2.672-2.7,2.672Z" transform="translate(18.954 25.283)" fill="#040506"/>
    <path id="Trazado_614910" data-name="Trazado 614910" d="M31.876,47.842V44.167c.27-.006.54-.018.809-.02,3.055-.009,3.039-.009,2.916,3.016-.023.55-.158.737-.715.711-1-.047-2.007-.026-3.01-.032" transform="translate(16.435 22.762)" fill="#040506"/>
    <path id="Trazado_614911" data-name="Trazado 614911" d="M70.495,42.958c-1.848,0-1.848,0-1.848-1.867,0-1.849,0-1.849,1.867-1.849,1.848,0,1.848,0,1.848,1.867,0,1.849,0,1.849-1.867,1.849" transform="translate(35.394 20.233)" fill="#040506"/>
    <path id="Trazado_614912" data-name="Trazado 614912" d="M70.436,33.151c-1.79,0-1.79,0-1.79-1.811,0-1.905,0-1.905,1.926-1.905,1.79,0,1.79,0,1.79,1.811,0,1.905,0,1.905-1.926,1.905" transform="translate(35.394 15.177)" fill="#040506"/>
    <path id="Trazado_614913" data-name="Trazado 614913" d="M31.876,52.745V49.07c.27-.006.54-.018.809-.02,3.055-.009,3.039-.009,2.916,3.016-.023.55-.158.737-.715.711-1-.047-2.007-.026-3.01-.032" transform="translate(16.435 25.29)" fill="#040506"/>
    <path id="Trazado_614914" data-name="Trazado 614914" d="M72.362,36.214c0,1.841,0,1.841-1.875,1.841-1.841,0-1.841,0-1.841-1.876,0-1.84,0-1.84,1.875-1.84,1.841,0,1.841,0,1.841,1.875" transform="translate(35.394 17.705)" fill="#040506"/>
    <path id="Trazado_614915" data-name="Trazado 614915" d="M46.6,22.077A7.4,7.4,0,0,1,39.229,14.7a7.427,7.427,0,0,1,14.854,0A7.4,7.4,0,0,1,46.6,22.077" transform="translate(20.226 3.75)" fill="#e6a41e"/>
    <path id="Trazado_614916" data-name="Trazado 614916" d="M48.133,18.782c1.955-1.575,1.958-1.576,2.969.7.773,1.738,1.537,3.483,2.354,5.333-1-.135-1.841-.684-2.777-.4-.368-.009-.529-.288-.656-.559-.684-1.446-1.306-2.919-1.9-4.4a.91.91,0,0,1,.011-.671" transform="translate(24.781 9.114)" fill="#dd625b"/>
    <path id="Trazado_614917" data-name="Trazado 614917" d="M39.425,24.538c-.912-.262-1.732.153-2.828.524,1.158-2.6,2.214-4.968,3.257-7.337.18-.408.376-.274.609-.082q.757.625,1.519,1.247c.132.859-.4,1.519-.681,2.255-.321.856-.727,1.678-1.075,2.523-.153.373-.279.817-.8.868" transform="translate(18.869 9.002)" fill="#dd625b"/>
    <path id="Trazado_614918" data-name="Trazado 614918" d="M38.463,24.051c1.055-1.79,1.638-3.794,2.557-5.647,1.876.915,1.875.914,1.231,2.848-.518,1.549-1.029,3.1-1.566,4.72l-2.222-1.92" transform="translate(19.831 9.489)" fill="#d42a1f"/>
    <path id="Trazado_614919" data-name="Trazado 614919" d="M48.709,18.406c.878,1.866,1.485,3.851,2.546,5.633l-2.207,1.945c-.685-2.066-1.329-4.057-2.011-6.037-.152-.44-.159-.7.336-.885a13.954,13.954,0,0,0,1.335-.656" transform="translate(24.205 9.49)" fill="#d42a1f"/>
    <path id="Trazado_614920" data-name="Trazado 614920" d="M56.542,56.921a9.188,9.188,0,0,1,8.34-7.837,9.334,9.334,0,0,1,9.591,6.476C76.16,61,72.485,66.889,67.058,67.438c-5.5.846-11.352-4.97-10.515-10.517" transform="translate(29.112 25.286)" fill="#6fb38b"/>
    <path id="Trazado_614921" data-name="Trazado 614921" d="M56.579,54.241c-.5,5.283,5.236,11.014,10.517,10.517-2.476.743-7.251-.6-9.344-4.33a8.4,8.4,0,0,1-1.173-6.187" transform="translate(29.075 27.967)" fill="#3e8759"/>
    <path id="Trazado_614922" data-name="Trazado 614922" d="M45.966,8.737a5.2,5.2,0,0,1,5.344,5.342A5.358,5.358,0,1,1,40.6,14.052a5.2,5.2,0,0,1,5.371-5.315" transform="translate(20.931 4.505)" fill="#ffe57d"/>
    <path id="Trazado_614923" data-name="Trazado 614923" d="M62.83,58.268c1.831-2.287,3.663-4.536,5.443-6.825.47-.6.8-.815,1.417-.188s1.752,1.078,1.885,1.757c.136.706-.915,1.4-1.46,2.088Q67.38,58.558,64.6,61.982c-1.025,1.27-2.067,1.332-3.234.2-1-.971-1.96-1.981-2.966-2.945-.4-.379-.39-.612-.011-1.028,1.969-2.164,1.955-2.176,4.063-.223a4.625,4.625,0,0,0,.374.282" transform="translate(29.96 26.231)" fill="#040506"/>
  </g>
</svg>
